<!-- Generator: Adobe Illustrator 25.0.0, SVG Export Plug-In  -->
<svg version="1.1" xmlns="http://www.w3.org/2000/svg" xmlns:xlink="http://www.w3.org/1999/xlink" x="0px" y="0px" width="40.1px"
	 height="36.9px" viewBox="0 0 40.1 36.9" style="overflow:visible;enable-background:new 0 0 40.1 36.9;" xml:space="preserve">
<style type="text/css">
	.st0{clip-path:url(#SVGID_2_);}
	.st1{clip-path:url(#SVGID_4_);}
</style>
<defs>
</defs>
<g>
	<defs>
		<rect id="SVGID_1_" y="0" width="40.1" height="36.9"/>
	</defs>
	<clipPath id="SVGID_2_">
		<use xlink:href="#SVGID_1_"  style="overflow:visible;"/>
	</clipPath>
	<path class="st0" d="M23,32.5c0,0.2-0.1,0.4-0.3,0.6L19,36.7c-0.1,0.1-0.4,0.2-0.6,0.2c-0.2,0-0.5-0.1-0.6-0.2L0.2,19.1
		C0.1,19,0,18.6,0,18.5c0-0.2,0.1-0.5,0.2-0.6L17.7,0.3C17.9,0.2,18.2,0,18.3,0c0.2,0,0.5,0.1,0.6,0.2l3.7,3.6C22.9,4,23,4.2,23,4.4
		c0,0.2-0.1,0.4-0.3,0.6l-9.8,9.8h26.3c0.6,0,0.9,0.3,0.9,0.9v5.6c0,0.6-0.3,0.9-0.9,0.9H12.9l9.8,9.8C22.9,32.1,23,32.3,23,32.5"/>
</g>
</svg>
