<!-- Generator: Adobe Illustrator 25.0.0, SVG Export Plug-In  -->
<svg version="1.1" xmlns="http://www.w3.org/2000/svg" xmlns:xlink="http://www.w3.org/1999/xlink" x="0px" y="0px" width="240.4px"
	 height="46.6px" viewBox="0 0 240.4 46.6" style="overflow:visible;enable-background:new 0 0 240.4 46.6;" xml:space="preserve">
<style type="text/css">
	.st0{fill:#FFFFFF;}
</style>
<defs>
</defs>
<g>
	<path class="st0" d="M0,43.2c0-0.1,0-0.2,0.1-0.4c0.9-2.4,1.6-5.4,2-9c0.1-0.4,0.3-0.6,0.6-0.6l0.4,0l3.2,0.4
		c0.4,0,0.6,0.3,0.6,0.7c-0.1,1.5-0.2,3.2-0.5,5.2c-0.3,2-0.6,3.6-0.9,4.8c-0.1,0.4-0.3,0.5-0.6,0.5l-0.3,0l-4.2-0.9
		C0.2,43.7,0,43.5,0,43.2z M2.3,30.7l-0.9-3.1c0-0.1,0-0.3,0-0.5c0-0.3,0.2-0.6,0.6-0.9c2-1.7,4.1-4.3,6.3-7.8c-2,0.4-4,0.8-6.2,1
		H1.9c-0.1,0-0.3-0.1-0.4-0.2c-0.1-0.1-0.2-0.3-0.3-0.4l-0.8-3c-0.1-0.4-0.1-0.6-0.1-0.8c0-0.3,0.1-0.5,0.3-0.8
		c1.1-1.3,2.4-3.3,3.7-6.2c1.3-2.9,2.3-5.3,3-7.4C7.5,0.2,7.7,0,8,0c0.1,0,0.2,0,0.4,0.1l4.2,1.5c0.3,0.1,0.4,0.3,0.4,0.6l0,0.3
		c-0.8,1.8-1.8,3.8-3,6.1c-1.2,2.3-2.3,4-3.1,5.1l4.4-0.7c1.1-2.2,2-4,2.6-5.4c0.1-0.2,0.3-0.3,0.6-0.3c0.1,0,0.2,0,0.4,0.1l4,1.8
		c0.2,0.1,0.3,0.3,0.3,0.6c0,0.1,0,0.3-0.1,0.4c-1.5,2.7-3.2,5.5-5,8.3s-3.4,5-4.8,6.5c2-0.4,3.6-0.8,5-1.1c-0.3-1-0.6-1.7-0.9-2.3
		c0-0.1,0-0.2,0-0.3c0-0.3,0.1-0.5,0.4-0.6l3.2-1.1c0.1,0,0.2,0,0.3,0c0.3,0,0.5,0.1,0.6,0.4c0.6,1.2,1.1,2.7,1.6,4.3
		c0.5,1.7,0.9,3.1,1.2,4.4l0,0.3c0,0.2-0.2,0.4-0.5,0.5l-3.7,1.1c-0.1,0-0.2,0-0.3,0c-0.3,0-0.5-0.2-0.5-0.5l-0.3-1.4
		c-4.9,1.2-8.9,2-12.2,2.5l-0.3,0C2.7,31.4,2.4,31.1,2.3,30.7z M9.5,43.1c-0.1-1.3-0.3-2.8-0.5-4.4c-0.3-1.6-0.6-3.1-0.9-4.5L8,34
		c0-0.2,0.1-0.4,0.3-0.4l3.6-0.7l0.3,0c0.3,0,0.5,0.1,0.6,0.4c0.3,0.8,0.7,2.1,1.1,3.8c0.5,1.7,0.8,3.3,1.1,4.6l0,0.4
		c0,0.3-0.2,0.5-0.6,0.6l-3.9,1l-0.4,0C9.8,43.7,9.5,43.5,9.5,43.1z M16.8,40.6c-0.7-2.9-1.4-5.2-2.2-6.9c0-0.1-0.1-0.2-0.1-0.3
		c0-0.2,0.1-0.3,0.3-0.4l3-1c0.1,0,0.2-0.1,0.3-0.1c0.3,0,0.5,0.1,0.6,0.3c0.9,1.8,1.8,4,2.5,6.7l0,0.4c0,0.3-0.1,0.5-0.3,0.6
		l-3.4,1.2l-0.3,0C17.1,41.1,16.9,40.9,16.8,40.6z M19.8,10.8V6.4c0-0.5,0.2-0.7,0.7-0.7h8.9V1.3c0-0.5,0.2-0.7,0.7-0.7h4.8
		c0.5,0,0.7,0.2,0.7,0.7v4.3h9.4c0.5,0,0.7,0.2,0.7,0.7v4.5c0,0.5-0.2,0.7-0.7,0.7h-9.4v5.4H44c0.5,0,0.7,0.2,0.7,0.7v4.2
		c0,0.5-0.2,0.7-0.7,0.7H21.4c-0.5,0-0.7-0.2-0.7-0.7v-4.2c0-0.5,0.2-0.7,0.7-0.7h8v-5.4h-8.9C20,11.5,19.8,11.3,19.8,10.8z
		 M22.5,26.4H43c0.5,0,0.7,0.2,0.7,0.7v17.1c0,0.5-0.2,0.7-0.7,0.7H22.5c-0.5,0-0.7-0.2-0.7-0.7V27.1C21.8,26.6,22,26.4,22.5,26.4z
		 M37.8,31.7H27.7v7.9h10.2V31.7z"/>
	<path class="st0" d="M98.4,10.5c-0.3-0.8-0.8-1.8-1.4-2.8h-2.5c-1,1.3-1.8,2.3-2.5,3c-0.2,0.2-0.4,0.2-0.5,0.2
		c-0.1,0-0.2,0-0.4-0.1l-4.2-2.1c-0.3-0.1-0.4-0.2-0.4-0.4s0.1-0.4,0.3-0.5l0.1-0.1h-4.6c0.4,0.6,0.8,1.2,1.1,2
		c0,0.1,0.1,0.2,0.1,0.3c0,0.3-0.2,0.4-0.5,0.5L78.4,11h-0.1c-0.3,0-0.5-0.2-0.7-0.5c-0.3-0.9-0.6-1.8-1.1-2.8h-1.9
		c-1.1,1.4-2.4,2.7-3.9,4h34.7c0.5,0,0.7,0.2,0.7,0.7v18.1c0,0.5-0.2,0.7-0.7,0.7h-6.4v2.5h10.5c0.5,0,0.7,0.2,0.7,0.7V38
		c0,0.5-0.2,0.7-0.7,0.7H98.9v6.7c0,0.5-0.2,0.7-0.7,0.7h-4.8c-0.5,0-0.7-0.2-0.7-0.7v-6.7h-9.9c-0.5,2.4-1.8,4.2-3.9,5.4
		s-5.2,2.1-9.3,2.5h-0.1c-0.2,0-0.4-0.1-0.6-0.4l-2.2-4c0-0.1-0.1-0.2-0.1-0.3c0-0.3,0.2-0.5,0.6-0.5c2.8-0.1,4.8-0.3,6.2-0.7
		s2.4-1,2.9-1.8H65.9c-0.5,0-0.7-0.2-0.7-0.7v-3.5c0-0.5,0.2-0.7,0.7-0.7H77v-2.5h-6.7c-0.5,0-0.7-0.2-0.7-0.7v-18l-0.1,0.1
		c-0.2,0.1-0.3,0.2-0.4,0.2c-0.2,0-0.3-0.1-0.5-0.2L65,9.2c0,0-0.1-0.1-0.1-0.2c0-0.1-0.1-0.2-0.1-0.3c0-0.2,0.1-0.4,0.3-0.5
		c1.4-0.9,2.7-2,3.9-3.4c1.2-1.3,2.1-2.7,2.8-4.1c0.1-0.3,0.3-0.4,0.6-0.4h0.2l4.9,0.6c0.5,0.1,0.7,0.3,0.5,0.7
		C78.1,2,77.9,2.4,77.6,3h9.9c0.5,0,0.7,0.2,0.7,0.7v2.9c1.6-1.5,2.8-3.3,3.6-5.5c0.1-0.3,0.4-0.5,0.7-0.5h0.1l4.8,0.3
		c0.2,0,0.4,0.1,0.5,0.2s0.1,0.3,0.1,0.4L97.4,3h11.9c0.5,0,0.7,0.2,0.7,0.7V7c0,0.5-0.2,0.7-0.7,0.7H103c0.5,0.6,0.9,1.2,1.2,1.8
		c0.1,0.1,0.1,0.2,0.1,0.3c0,0.3-0.2,0.4-0.5,0.5l-4.5,0.7H99C98.7,11.1,98.5,10.9,98.4,10.5z M99.9,15.3H75.7v2h24.1V15.3z
		 M99.9,20.5H75.7v2h24.1V20.5z M99.9,25.6H75.7v2h24.1V25.6z M92.7,31.2h-9.6v2.5h9.6V31.2z"/>
	<path class="st0" d="M133.5,24.4c-0.2,0-0.4-0.1-0.5-0.3l-3.4-4.8c-0.1-0.1-0.1-0.2-0.1-0.4c0-0.2,0.1-0.4,0.3-0.5
		c5.1-3.2,9-8.1,11.5-14.7c0.2-0.5,0.5-0.6,0.9-0.4l4.8,1.9c0.4,0.2,0.6,0.5,0.4,0.9c-0.7,2.1-1.7,4.2-3,6.4s-2.7,4.2-4.3,6.1h24.5
		c-1.3-1.5-2.4-3.1-3.5-4.9c-1.1-1.7-2.2-3.7-3.3-6h-8.1c-0.5,0-0.7-0.2-0.7-0.7V2.1c0-0.5,0.2-0.7,0.7-0.7h11.7
		c0.4,0,0.7,0.2,0.8,0.5c3,7.3,7.1,12.5,12.3,15.8c0.2,0.1,0.3,0.3,0.3,0.5c0,0.2,0,0.3-0.1,0.4l-3.2,5.2c-0.2,0.3-0.3,0.4-0.5,0.4
		c-0.1,0-0.2,0-0.4-0.1c-1.4-1-2.6-2-3.7-3c-0.1,5.2-0.2,9.8-0.4,13.5c-0.1,2.8-0.6,5-1.5,6.5c-0.8,1.5-2.1,2.6-3.8,3.3
		c-1.7,0.6-4,1-7,1h-1.6c-0.4-0.1-0.7-0.3-0.8-0.6l-1.8-5.2l0-0.3v0c0-0.3,0.2-0.4,0.7-0.4L153,39c1.8,0,3.2-0.2,4.2-0.5
		c1-0.3,1.7-0.9,2.1-1.6c0.4-0.7,0.7-1.8,0.8-3.2c0.2-2,0.3-4.6,0.3-7.8v-1.3h-8c-0.5,5.6-2.2,10.1-5.1,13.7
		c-2.9,3.6-7.2,6.1-12.9,7.7c-0.1,0-0.1,0-0.2,0c-0.3,0-0.5-0.1-0.6-0.4l-3.1-4.7c-0.1-0.2-0.1-0.3-0.1-0.4c0-0.2,0.2-0.4,0.5-0.5
		c4.8-1.1,8.4-2.9,10.8-5.3s3.8-5.8,4.2-10.1h-6.8c-0.5,0-0.7-0.2-0.7-0.7v-3.4c-1.5,1.6-3,2.8-4.5,3.7
		C133.8,24.3,133.7,24.4,133.5,24.4z"/>
	<path class="st0" d="M195.2,27.5v-7.2c0-0.5,0.2-0.7,0.7-0.7h8.5V18h-7.5c-0.5,0-0.7-0.2-0.7-0.7V13h-1.3c-0.5,0-0.7-0.2-0.7-0.7
		V8.6c0-0.5,0.2-0.7,0.7-0.7h1.3V3.5c0-0.5,0.2-0.7,0.7-0.7h7.5V1.2c0-0.5,0.2-0.7,0.7-0.7h4.7c0.5,0,0.7,0.2,0.7,0.7v1.6h7.4
		c0.5,0,0.7,0.2,0.7,0.7v4.4h1.1c0.5,0,0.7,0.2,0.7,0.7v3.5c0,0.5-0.2,0.7-0.7,0.7h-1.1v4.5c0,0.5-0.2,0.7-0.7,0.7h-7.4v1.5h7.4
		l0.1-0.2c1.4-2,2.7-4.7,3.7-8c1-3.3,1.8-6.7,2.3-10.1c0.1-0.4,0.3-0.6,0.6-0.6h0.1l5,0.6c0.2,0,0.4,0.1,0.5,0.2
		c0.1,0.1,0.1,0.3,0.1,0.5c-0.4,1.9-0.9,3.8-1.4,5.6h10c0.5,0,0.7,0.2,0.7,0.7V13c0,0.5-0.2,0.7-0.7,0.7h-1.2
		c-0.4,8.2-1.9,14.7-4.5,19.5c1,1.5,2,2.7,3.2,3.8c1.1,1,2.4,2,3.8,3c0.2,0.1,0.3,0.3,0.3,0.5c0,0.1,0,0.3-0.1,0.4l-2.9,4.7
		c-0.1,0.2-0.3,0.3-0.5,0.3c-0.1,0-0.2,0-0.4-0.1c-2.7-1.9-4.9-4.3-6.9-7.2c-2.3,3.1-5,5.5-8.1,7.3c-0.1,0.1-0.3,0.1-0.4,0.1
		c-0.2,0-0.4-0.1-0.5-0.4l-2.2-3.6l-1.9,2.9c-0.1,0.2-0.3,0.3-0.6,0.3l-0.4-0.1c-2.4-1.4-4-2.2-4.9-2.6c-3.4,2.1-8.1,3.3-14,3.6
		c-0.4,0-0.7-0.2-0.8-0.5l-1.3-4c0-0.1,0-0.2,0-0.2c0-0.4,0.2-0.5,0.6-0.5c4.2,0.1,7.6-0.2,10-0.9c-1.9-0.6-4.2-1.1-6.8-1.7
		c-0.3,0-0.5-0.2-0.5-0.4c0-0.2,0-0.3,0.1-0.4c0.4-0.6,0.8-1.5,1.3-2.6h-4.5c-0.5,0-0.7-0.2-0.7-0.7v-3.1c0-0.4,0.2-0.6,0.6-0.6h7
		c0.3-0.6,0.6-1.3,0.9-2h-6.6C195.5,28.2,195.2,27.9,195.2,27.5z M200.3,22.7v2.1h5v-2.1H200.3z M201,6.7v2.1h4.3V6.7H201z
		 M201,12.1v2.3h4.3v-2.3H201z M209.5,37.3c0.8-0.9,1.3-1.9,1.7-2.9h-5.8l-0.9,1.7C205.8,36.3,207.4,36.7,209.5,37.3z M218.8,28.2
		h-10.3l-0.8,2h12.4c0.2,0,0.4,0.1,0.5,0.2c0.1,0.1,0.2,0.3,0.2,0.5v3c0,0.2-0.1,0.4-0.2,0.5c-0.1,0.1-0.3,0.2-0.5,0.2h-3.6
		c-0.4,1.3-1.1,2.8-2.1,4.3c1.4,0.5,2.5,1,3.2,1.3c0-0.1,0.1-0.2,0.3-0.3c1.6-0.8,3.1-1.8,4.6-3s2.7-2.5,3.7-3.9
		c-1.4-2.9-2.5-6.4-3.4-10.6l-1,1.8c-0.1,0.2-0.3,0.3-0.5,0.3c-0.1,0-0.3-0.1-0.4-0.3l-1.2-1.7v4.9
		C219.5,27.9,219.2,28.2,218.8,28.2z M209.6,6.7v2.1h4.3V6.7H209.6z M209.6,12.1v2.3h4.3v-2.3H209.6z M209.6,22.7v2.1h4.9v-2.1
		H209.6z M226.6,14.3c0.5,5.1,1.5,9.5,2.8,13c1.4-3.2,2.2-7.7,2.4-13.6h-5L226.6,14.3z"/>
</g>
</svg>
