<svg xmlns="http://www.w3.org/2000/svg" xml:space="preserve" width="240.4" height="46.6" style="overflow:visible" viewBox="0 0 240.4 46.6"><path fill="#fff" d="M0 43.2c0-.1 0-.2.1-.4.9-2.4 1.6-5.4 2-9q.15-.6.6-.6h.4l3.2.4c.4 0 .6.3.6.7-.1 1.5-.2 3.2-.5 5.2q-.45 3-.9 4.8c-.1.4-.3.5-.6.5h-.3l-4.2-.9c-.2-.2-.4-.4-.4-.7m2.3-12.5-.9-3.1v-.5q0-.45.6-.9 3-2.55 6.3-7.8c-2 .4-4 .8-6.2 1h-.2c-.1 0-.3-.1-.4-.2s-.2-.3-.3-.4l-.8-3c-.1-.4-.1-.6-.1-.8 0-.3.1-.5.3-.8C1.7 12.9 3 10.9 4.3 8s2.3-5.3 3-7.4c.2-.4.4-.6.7-.6.1 0 .2 0 .4.1l4.2 1.5c.3.1.4.3.4.6v.3c-.8 1.8-1.8 3.8-3 6.1s-2.3 4-3.1 5.1l4.4-.7c1.1-2.2 2-4 2.6-5.4q.15-.3.6-.3c.1 0 .2 0 .4.1l4 1.8q.3.15.3.6c0 .1 0 .3-.1.4-1.5 2.7-3.2 5.5-5 8.3s-3.4 5-4.8 6.5c2-.4 3.6-.8 5-1.1-.3-1-.6-1.7-.9-2.3v-.3c0-.3.1-.5.4-.6l3.2-1.1h.3c.3 0 .5.1.6.4.6 1.2 1.1 2.7 1.6 4.3.5 1.7.9 3.1 1.2 4.4v.3c0 .2-.2.4-.5.5l-3.7 1.1h-.3c-.3 0-.5-.2-.5-.5l-.3-1.4c-4.9 1.2-8.9 2-12.2 2.5h-.3c-.2.2-.5-.1-.6-.5m7.2 12.4c-.1-1.3-.3-2.8-.5-4.4q-.45-2.4-.9-4.5L8 34c0-.2.1-.4.3-.4l3.6-.7h.3c.3 0 .5.1.6.4.3.8.7 2.1 1.1 3.8.5 1.7.8 3.3 1.1 4.6v.4q0 .45-.6.6l-3.9 1h-.4c-.3 0-.6-.2-.6-.6m7.3-2.5c-.7-2.9-1.4-5.2-2.2-6.9 0-.1-.1-.2-.1-.3 0-.2.1-.3.3-.4l3-1c.1 0 .2-.1.3-.1q.45 0 .6.3c.9 1.8 1.8 4 2.5 6.7v.4q0 .45-.3.6l-3.4 1.2h-.3c-.1 0-.3-.2-.4-.5m3-29.8V6.4c0-.5.2-.7.7-.7h8.9V1.3c0-.5.2-.7.7-.7h4.8c.5 0 .7.2.7.7v4.3H45c.5 0 .7.2.7.7v4.5c0 .5-.2.7-.7.7h-9.4v5.4H44c.5 0 .7.2.7.7v4.2c0 .5-.2.7-.7.7H21.4c-.5 0-.7-.2-.7-.7v-4.2c0-.5.2-.7.7-.7h8v-5.4h-8.9c-.5 0-.7-.2-.7-.7m2.7 15.6H43c.5 0 .7.2.7.7v17.1c0 .5-.2.7-.7.7H22.5c-.5 0-.7-.2-.7-.7V27.1c0-.5.2-.7.7-.7m15.3 5.3H27.7v7.9h10.2v-7.9zm60.6-21.2c-.3-.8-.8-1.8-1.4-2.8h-2.5c-1 1.3-1.8 2.3-2.5 3-.2.2-.4.2-.5.2s-.2 0-.4-.1l-4.2-2.1c-.3-.1-.4-.2-.4-.4s.1-.4.3-.5l.1-.1h-4.6c.4.6.8 1.2 1.1 2 0 .1.1.2.1.3 0 .3-.2.4-.5.5l-4.6.5h-.1c-.3 0-.5-.2-.7-.5-.3-.9-.6-1.8-1.1-2.8h-1.9c-1.1 1.4-2.4 2.7-3.9 4h34.7c.5 0 .7.2.7.7v18.1c0 .5-.2.7-.7.7H99v2.5h10.5c.5 0 .7.2.7.7V38c0 .5-.2.7-.7.7H98.9v6.7c0 .5-.2.7-.7.7h-4.8c-.5 0-.7-.2-.7-.7v-6.7h-9.9q-.75 3.6-3.9 5.4c-3.15 1.8-5.2 2.1-9.3 2.5h-.1c-.2 0-.4-.1-.6-.4l-2.2-4c0-.1-.1-.2-.1-.3 0-.3.2-.5.6-.5 2.8-.1 4.8-.3 6.2-.7s2.4-1 2.9-1.8H65.9c-.5 0-.7-.2-.7-.7v-3.5c0-.5.2-.7.7-.7H77v-2.5h-6.7c-.5 0-.7-.2-.7-.7v-18l-.1.1c-.2.1-.3.2-.4.2-.2 0-.3-.1-.5-.2L65 9.2s-.1-.1-.1-.2-.1-.2-.1-.3c0-.2.1-.4.3-.5 1.4-.9 2.7-2 3.9-3.4 1.2-1.3 2.1-2.7 2.8-4.1.1-.3.3-.4.6-.4h.2l4.9.6c.5.1.7.3.5.7.1.4-.1.8-.4 1.4h9.9c.5 0 .7.2.7.7v2.9c1.6-1.5 2.8-3.3 3.6-5.5.1-.3.4-.5.7-.5h.1l4.8.3c.2 0 .4.1.5.2s.1.3.1.4L97.4 3h11.9c.5 0 .7.2.7.7V7c0 .5-.2.7-.7.7H103q.75.9 1.2 1.8c.1.1.1.2.1.3 0 .3-.2.4-.5.5l-4.5.7H99c-.3.1-.5-.1-.6-.5m1.5 4.8H75.7v2h24.1v-2zm0 5.2H75.7v2h24.1v-2zm0 5.1H75.7v2h24.1v-2zm-7.2 5.6h-9.6v2.5h9.6zm40.8-6.8c-.2 0-.4-.1-.5-.3l-3.4-4.8c-.1-.1-.1-.2-.1-.4s.1-.4.3-.5c5.1-3.2 9-8.1 11.5-14.7.2-.5.5-.6.9-.4l4.8 1.9c.4.2.6.5.4.9-.7 2.1-1.7 4.2-3 6.4s-2.7 4.2-4.3 6.1h24.5c-1.3-1.5-2.4-3.1-3.5-4.9q-1.65-2.55-3.3-6h-8.1c-.5 0-.7-.2-.7-.7V2.1c0-.5.2-.7.7-.7h11.7c.4 0 .7.2.8.5 3 7.3 7.1 12.5 12.3 15.8.2.1.3.3.3.5s0 .3-.1.4l-3.2 5.2c-.2.3-.3.4-.5.4-.1 0-.2 0-.4-.1-1.4-1-2.6-2-3.7-3-.1 5.2-.2 9.8-.4 13.5-.1 2.8-.6 5-1.5 6.5-.8 1.5-2.1 2.6-3.8 3.3-1.7.6-4 1-7 1h-1.6c-.4-.1-.7-.3-.8-.6l-1.8-5.2v-.3c0-.3.2-.4.7-.4l2.3.1c1.8 0 3.2-.2 4.2-.5s1.7-.9 2.1-1.6.7-1.8.8-3.2q.3-3 .3-7.8v-1.3h-8c-.5 5.6-2.2 10.1-5.1 13.7s-7.2 6.1-12.9 7.7h-.2c-.3 0-.5-.1-.6-.4l-3.1-4.7c-.1-.2-.1-.3-.1-.4 0-.2.2-.4.5-.5 4.8-1.1 8.4-2.9 10.8-5.3s3.8-5.8 4.2-10.1h-6.8c-.5 0-.7-.2-.7-.7v-3.4c-1.5 1.6-3 2.8-4.5 3.7-.1.1-.2.2-.4.2m61.7 3.1v-7.2c0-.5.2-.7.7-.7h8.5V18h-7.5c-.5 0-.7-.2-.7-.7V13h-1.3c-.5 0-.7-.2-.7-.7V8.6c0-.5.2-.7.7-.7h1.3V3.5c0-.5.2-.7.7-.7h7.5V1.2c0-.5.2-.7.7-.7h4.7c.5 0 .7.2.7.7v1.6h7.4c.5 0 .7.2.7.7v4.4h1.1c.5 0 .7.2.7.7v3.5c0 .5-.2.7-.7.7h-1.1v4.5c0 .5-.2.7-.7.7h-7.4v1.5h7.4l.1-.2c1.4-2 2.7-4.7 3.7-8s1.8-6.7 2.3-10.1q.15-.6.6-.6h.1l5 .6c.2 0 .4.1.5.2s.1.3.1.5c-.4 1.9-.9 3.8-1.4 5.6h10c.5 0 .7.2.7.7V13c0 .5-.2.7-.7.7h-1.2q-.6 12.3-4.5 19.5c1 1.5 2 2.7 3.2 3.8 1.1 1 2.4 2 3.8 3 .2.1.3.3.3.5 0 .1 0 .3-.1.4l-2.9 4.7c-.1.2-.3.3-.5.3-.1 0-.2 0-.4-.1-2.7-1.9-4.9-4.3-6.9-7.2-2.3 3.1-5 5.5-8.1 7.3-.1.1-.3.1-.4.1-.2 0-.4-.1-.5-.4l-2.2-3.6-1.9 2.9q-.15.3-.6.3l-.4-.1c-2.4-1.4-4-2.2-4.9-2.6-3.4 2.1-8.1 3.3-14 3.6-.4 0-.7-.2-.8-.5l-1.3-4v-.2c0-.4.2-.5.6-.5 4.2.1 7.6-.2 10-.9-1.9-.6-4.2-1.1-6.8-1.7-.3 0-.5-.2-.5-.4s0-.3.1-.4c.4-.6.8-1.5 1.3-2.6h-4.5c-.5 0-.7-.2-.7-.7v-3.1q0-.6.6-.6h7c.3-.6.6-1.3.9-2H196c-.5-.3-.8-.6-.8-1m5.1-4.8v2.1h5v-2.1zm.7-16v2.1h4.3V6.7zm0 5.4v2.3h4.3v-2.3zm8.5 25.2c.8-.9 1.3-1.9 1.7-2.9h-5.8l-.9 1.7c1.3.2 2.9.6 5 1.2m9.3-9.1h-10.3l-.8 2h12.4c.2 0 .4.1.5.2s.2.3.2.5v3c0 .2-.1.4-.2.5s-.3.2-.5.2h-3.6c-.4 1.3-1.1 2.8-2.1 4.3 1.4.5 2.5 1 3.2 1.3q0-.15.3-.3c1.6-.8 3.1-1.8 4.6-3s2.7-2.5 3.7-3.9c-1.4-2.9-2.5-6.4-3.4-10.6l-1 1.8c-.1.2-.3.3-.5.3-.1 0-.3-.1-.4-.3l-1.2-1.7v4.9c-.2.5-.5.8-.9.8m-9.2-21.5v2.1h4.3V6.7zm0 5.4v2.3h4.3v-2.3zm0 10.6v2.1h4.9v-2.1zm17-8.4c.5 5.1 1.5 9.5 2.8 13 1.4-3.2 2.2-7.7 2.4-13.6h-5z"/></svg>