<svg xmlns="http://www.w3.org/2000/svg" xmlns:xlink="http://www.w3.org/1999/xlink" xml:space="preserve" width="445.6" height="322.8" style="overflow:visible" viewBox="0 0 445.6 322.8"><defs><path id="SVGID_1_" d="M0 0h445.5v161.1H0z"/></defs><clipPath id="SVGID_2_"><use xlink:href="#SVGID_1_" style="overflow:visible"/></clipPath><path d="M440.5 19.9v136.2H19.9" style="clip-path:url(#SVGID_2_);fill:none;stroke:#000;stroke-width:10;stroke-miterlimit:10"/><path d="M5 5h420.6v136.2H5z"/><defs><path id="SVGID_3_" d="M0 0h445.5v161.1H0z"/></defs><clipPath id="SVGID_4_"><use xlink:href="#SVGID_3_" style="overflow:visible"/></clipPath><path d="M5 5h420.6v136.2H5z" style="clip-path:url(#SVGID_4_);fill:none;stroke:#000;stroke-width:10;stroke-miterlimit:10"/><path d="M5 103.3V5h99.2z"/><defs><path id="SVGID_5_" d="M0 0h445.5v161.1H0z"/></defs><clipPath id="SVGID_6_"><use xlink:href="#SVGID_5_" style="overflow:visible"/></clipPath><path d="M5 5h420.6v136.2H5z" style="clip-path:url(#SVGID_6_);fill:none;stroke:#000;stroke-width:10;stroke-miterlimit:10"/><defs><path id="SVGID_7_" d="M0 161.1h445.5v161.1H0z"/></defs><clipPath id="SVGID_8_"><use xlink:href="#SVGID_7_" style="overflow:visible"/></clipPath><path d="M440.5 181v136.2H19.9" style="clip-path:url(#SVGID_8_);fill:none;stroke:#000;stroke-width:10;stroke-miterlimit:10"/><path d="M21 181.6h420.6v136.2H21z"/><path d="M21 279.8v-98.2h99.2z"/><path d="M20 181.6h420.6v136.2H20z" style="fill:none;stroke:#000;stroke-width:10;stroke-miterlimit:10"/></svg>