<svg xmlns="http://www.w3.org/2000/svg" xml:space="preserve" width="135" height="106" style="overflow:visible" viewBox="0 0 135 106"><path d="M62.6 1 23.3 29.3H6.2c-3.4 0-6.2 2.8-6.2 6.2v35c0 3.4 2.8 6.2 6.2 6.2h17.2L62.6 105c3.4 2.5 8.2 0 8.2-4.2V5.2C70.7 1 66-1.5 62.6 1m32.3 18.6c-2.6-1.6-5.9-.8-7.5 1.8s-.8 5.9 1.7 7.6c.4.3 10.2 6.8 10.2 24s-9.8 23.7-10.2 24c-2.6 1.6-3.4 5-1.8 7.6 1 1.7 2.9 2.6 4.7 2.6 1 0 2-.3 2.9-.8.6-.4 15.5-9.7 15.5-33.4S95.6 20 94.9 19.6"/><path d="M112.1 2.9c-2.6-1.6-5.9-.8-7.5 1.8s-.8 6 1.8 7.6c.6.5 17.6 11.5 17.6 40.7s-16.9 40.2-17.6 40.7c-2.6 1.6-3.4 5-1.8 7.6 1 1.7 2.9 2.6 4.7 2.6 1 0 2-.3 2.9-.8.8-.6 22.8-14.4 22.8-50.1S113 3.5 112.1 2.9"/></svg>