<svg xmlns="http://www.w3.org/2000/svg" xml:space="preserve" width="405.9" height="50.8" style="overflow:visible" viewBox="0 0 405.9 50.8"><path fill="#fff" d="M3.3 50.4c-.4 0-.6-.2-.9-.5L0 45.6v-.5q0-.6.9-.6c3.5-.2 6.9-.7 9.9-1.6H4.4q-.9 0-.9-.9V26.7q0-.9.9-.9h24.5q.9 0 .9.9v15.4q0 .9-.9.9h-5.4c3.8.5 6.9 1.1 9.4 1.8q.6.15.6.6c0 .1 0 .3-.1.4l-2 4.2c-.2.4-.4.5-.7.5-.1 0-.2 0-.4-.1-1.6-.6-3.3-1.1-5.1-1.6s-4-1-6.6-1.6q-.6-.15-.6-.6c0-.1.1-.3.2-.5l2.3-3.2.2-.2h-7.4l2.8 3.3q.3.3.3.6c0 .2-.2.4-.5.6-1.8.7-3.7 1.4-6 1.9-2.2.6-4.3.9-6.3 1.1h-.3zm34.3-1.7c-1.5-1.3-2.6-3.2-3.4-5.7-1.3-4.1-2.3-10.3-3.1-18.6H2.2q-.9 0-.9-.9v-3.3q0-.9.9-.9h28.6c-.3-3-.4-5.6-.4-7.8H1.9q-.9 0-.9-.9V5.2q0-.9.9-.9h28.3v-3q0-.9.9-.9H39c.6 0 .9.3.9.8s0 1-.1 1.3l-.1 1.9H42c-.2-.8-.4-1.4-.5-1.7 0-.1-.1-.2-.1-.4q0-.45.6-.6l5.2-1 .3-.1c.4 0 .6.2.8.5.6 1.6 1.3 3.6 1.9 6 .6 2.3 1 4.5 1.3 6.5v.2c0 .4-.2.6-.7.7l-6.1 1.6c-.1 0-.2.1-.3.1-.4 0-.6-.2-.7-.8l-.7-3.7h-3.4c.1 5.2.4 10.1.8 14.8s1 8.4 1.9 11.1c.3 1 .7 1.6 1 1.6.5 0 .9-.7 1.4-2.1.4-1.4.8-2.9 1-4.5 0-.2.1-.4.2-.5s.2-.2.3-.2c.2 0 .4.1.6.4l5 6.3c.2.3.3.5.3.9l-.1.4c-.8 3.6-2 6.3-3.8 8.2s-3.7 2.8-5.8 2.8c-1.7-.2-3.3-.8-4.8-2.2M4.7 17.2v-3.1q0-.9.9-.9h21.9q.9 0 .9.9v3.1q0 .9-.9.9H5.6q-.9-.15-.9-.9m16 14v-1.6h-8.5v1.6zm0 4v-1.6h-8.5v1.6zm0 4v-1.7h-8.5v1.7zm66.2-4.7c-.3 0-.5-.2-.8-.5-1.4-1.9-3-3.8-4.8-5.6s-3.7-3.4-5.5-4.7c-.3-.2-.4-.4-.4-.7 0-.2.1-.5.3-.7l5-5.2c.2-.2.5-.4.8-.4.2 0 .4.1.5.2 4.7 3.1 8.6 6.7 11.8 10.7q.3.45.3.6c0 .3-.1.6-.4.8l-6.1 5.2c-.3.2-.5.3-.7.3m43.7 15.4V28.2q-5.1.6-11.7.9c-.1 0-.3 0-.4-.1s-.2-.1-.3-.1q-.15-.15-.3-.6l-.5-5.3c0-.2.1-.4.2-.6.1 0 .2-.1.3-.2s.2-.1.3-.1c.8-.1 1.4-.1 1.9-.1V8.7H119q-.9 0-.9-.9V2.3q0-.9.9-.9h19.6q.9 0 .9.9v.6c.1-.1.3-.1.4-.1h8.9V1.2q0-.9.9-.9h7.9q.9 0 .9.9v1.6h9.7q.9 0 .9.9v5.5q0 .9-.9.9h-9.7v1.6h8.7q.9 0 .9.9v12.5q0 .9-.9.9h-26.7q-.9 0-.9-.9V12.5q0-.9.9-.9h8.3V10H140q-.9 0-.9-.9v-.5c-.1 0-.2.1-.4.1h-.4v34.8q.9-3.6 1.2-6.9 0-.45.3-.6c.2-.1.4-.2.7-.1l4.2.8c.4.1.6.2.7.4 0 .1.1.3.1.5-.1 1.7-.3 3.6-.6 5.6q-.45 3-1.2 5.1c-.1.4-.3.6-.7.6-.1 0-.2 0-.4-.1l-4.3-1.4v2.5q0 .9-.9.9h-6c-.5 0-.8-.3-.8-.9m-12.3-.8-.5-4c0-.2 0-.4.1-.4.1-.3.3-.5.8-.5l2.8-.1v-2.2H120q-.9 0-.9-.9v-3q0-.9.9-.9h1.4v-1.7h-1.9q-.9 0-.9-.9V31q0-.9.9-.9h9.4q.9 0 .9.9v3.5q0 .9-.9.9h-1.5v1.7h1.1q.9 0 .9.9v3q0 .9-.9.9h-1.1v1.8c.5 0 1.1-.1 1.6-.1.2 0 .4 0 .5.1.3.1.4.4.4.8v3.6q0 .9-.6.9c-2.7.4-6 .6-10 .9-.7 0-1-.3-1-.8m12.6-38.2V8.7h-3.3v2.2zm0 5.8v-2.3h-3.3v2.3zm0 5.7v-2.3h-3.3v2.5zm20.7 27.7q-2.4-.15-3.6-.9c-1.2-.75-1.3-1.2-1.5-2.1-.2-.8-.3-1.9-.3-3.1v-7.9q0-.9.9-.9h5.5l-.6-.6q-.3-.3-.3-.6c0-.1 0-.2.1-.3H140q-.9 0-.9-.9v-4.7q0-.9.9-.9h28q.9 0 .9.9v4.7q0 .9-.9.9h-8.8c.6.6 1.2 1.4 1.8 2.3l.2.3 4-1.2c.1 0 .2-.1.3-.1.3 0 .6.2.8.5q1.2 2.1 2.1 4.8c.7 1.8 1.2 3.5 1.5 5.2 0 .1.1.2.1.4q-.15.45-.6.6l-5 2c-.1 0-.2.1-.4.1-.4 0-.6-.2-.6-.7-.2-1.3-.4-2.5-.7-3.6-.2 1.3-.5 2.4-.9 3.1-.4.8-1 1.4-1.9 1.8-.8.4-2 .7-3.5.8-.4 0-1.2.1-2.4.1zm-2.7-29.6V17h-2.3v3.5zm6.3 0V17h-2.5v3.5zm.5 22.6h.3c.3 0 .5-.2.6-.5s.2-.7.2-1.4c0-.2.1-.4.2-.6.1-.1.2-.2.4-.2s.3 0 .4.1l4.1 1.7c-.6-1.8-1.3-3.3-1.9-4.6l-3.4 2.2c-.1.1-.3.2-.5.2-.3 0-.6-.2-.7-.5-.4-.8-.9-1.6-1.3-2.3v5.1c0 .3.1.5.2.6s.3.2.6.2zm5.4-22.6V17h-2.3v3.5zm22.4 29.7-5.7-8.3c-.1-.2-.2-.4-.2-.5 0-.3.2-.5.5-.6 5.2-2.5 9-5.6 11.5-9.3s4.1-8 4.7-13.1H181q-.9 0-.9-.9V9.3q0-.9.9-.9h13.7V1.2q0-.9.9-.9h9q.9 0 .9.9v7.3h19.6q.9 0 .9.9v5.9c0 7.9-.1 14.1-.4 18.6-.3 4.2-1 7.5-2.1 9.8-1.2 2.3-3 3.9-5.4 4.9S212.3 50 208 50l-2.3-.1c-.3 0-.5-.1-.6-.2s-.3-.3-.3-.5l-2.9-8.2c0-.1-.1-.2-.1-.3 0-.4.2-.6.8-.6l3.6.1c2.4 0 4.2-.2 5.5-.6q1.95-.6 2.7-2.1c.6-1 .9-2.5 1-4.4.2-3.2.4-8 .4-14.5H205c-1.5 14.8-8.2 25.5-20.2 32.1-.1.1-.3.2-.5.2-.3-.2-.6-.4-.8-.7m53.1-38V6.9q0-.9.9-.9h5.3c-.6-1.1-1.2-2.2-1.8-3.1-.1-.2-.2-.4-.2-.6s.1-.3.2-.5c.1-.1.3-.2.5-.2l6.9-1.2c.1 0 .3-.1.4-.1.5 0 .8.2 1 .6.9 1.7 1.6 3.4 2.2 5h4.8c.3 0 .5.1.7.2q.3.3.3.6V12q0 .45-.3.6c-.2.2-.4.2-.7.2h-19.3q-.9.3-.9-.6m1.6 37.2c-.2-.2-.2-.4-.2-.6V32.5c0-.2.1-.5.2-.6.2-.2.4-.2.7-.2h17.2q.9 0 .9.9v16.3q0 .9-.9.9h-17.2c-.3-.2-.5-.3-.7-.4m.5-29v-4.5q0-.9.9-.9h16c.3 0 .5.1.7.2.2.2.2.4.2.6v4.5c0 .3-.1.5-.2.6s-.4.2-.7.2h-16c-.6.2-.9-.1-.9-.7m0 8.3v-4.5q0-.9.9-.9h16c.3 0 .5.1.7.2.2.2.2.4.2.6v4.5c0 .3-.1.5-.2.6s-.4.2-.7.2h-16c-.6.2-.9-.1-.9-.7m10.8 14.1v-4.5h-3.6v4.5zm8.2-14.4v-5.9q0-.9.9-.9h4.1l.6-3.1H260q-.9 0-.9-.9v-5.4q0-.9.9-.9h4.6L265 9h-5.7q-.9 0-.9-.9V2.4q0-.9.9-.9h26.3q.9 0 .9.9v5.9q0 .9-.9.9h-11.8l-.4 2.3h11c.4 0 .7.2.8.6v.3l-1.1 9.3h2.4q.9 0 .9.9v5.9q0 .9-.9.9h-27.9c-.6-.1-.9-.4-.9-1m1.4 20.5V32.1q0-.9.9-.9h24.9q.9 0 .9.9V49q0 .9-.9.9H260c-.6-.1-.9-.4-.9-1m17.4-6.7v-3.6h-8.3v3.6zm-.9-20.6.4-3.1h-4l-.6 3.1zm21.6 23.3c-.5 0-.7-.2-.8-.7l-1.1-7.4-.1-.6c0-.4.2-.7.7-.8 1.5-.3 3-.6 4.5-1v-12h-3.1q-.9 0-.9-.9v-7.4q0-.9.9-.9h3.1V2.8q0-.9.9-.9h7.4q.9 0 .9.9v10.6h2.2q.9 0 .9.9v7.4q0 .9-.9.9h-2.2v9.2l2.7-1.2.4-.1c.4 0 .6.3.6.8V39c0 .5-.2.8-.6 1-5.3 2-10.3 3.6-15 4.9zm15.1 5.9c-.3 0-.6-.2-.9-.5l-4.5-6.3c-.1-.2-.2-.4-.2-.5 0-.3.3-.5.8-.5 6-.4 9.6-2 10.8-4.9h-2.6q-.9 0-.9-.9V20.8q0-.9.9-.9h27.6q.9 0 .9.9v16.4q0 .9-.9.9h-6.1v3.4c0 .4.2.7.6.8.2 0 .5 0 .7.1.7 0 1.2-.2 1.4-.6.3-.4.4-1.2.4-2.3 0-.3.1-.6.3-.7s.4-.2.7-.1l5.1 1.7c.5.1.7.5.7 1-.1 2.4-.3 4.2-.8 5.3s-1.3 2-2.4 2.4c-1.1.5-2.8.8-5 .9l-1.8.1-2-.1c-2.3-.1-4-.5-5-1.2s-1.5-2-1.5-3.8v-7h-1.3c-.4 3.2-1.8 5.9-4.1 8.2-2.3 2.2-5.8 3.8-10.3 4.6zm1.2-33.4v-4.5q0-.9.9-.9h4l-.7-2.6h-2.5q-.9 0-.9-.9V3.8q0-.9.9-.9h9l-.6-1.3c-.1-.2-.2-.3-.2-.4 0-.3.2-.5.8-.6l7.5-.6h.3c.4 0 .7.2.8.5q.6 1.65.9 2.4h10q.9 0 .9.9v4.8q0 .9-.9.9h-2.8l-.5 2.6h4.8q.9 0 .9.9v4.5q0 .9-.9.9h-30.8c-.7-.2-.9-.4-.9-1m21.6 9.8v-1.9h-11.3v1.9zm0 5.5v-2h-11.3v2zm-8-20.7h4.3l.5-2.6h-5.5c.3.8.6 1.7.7 2.6m33.2 38.2-5.7-3.1c-.3-.2-.4-.4-.5-.6 0-.2 0-.3.1-.4q1.2-2.85 1.8-6.6c.4-2.5.7-5 .8-7.4 0-.4.1-.6.3-.7.1-.1.3-.2.6-.2l5.4.5c.4.1.6.2.8.4 0 .1.1.2.1.5-.1 1.3-.2 2.4-.3 3.5.5.7 1 1.3 1.6 1.8v-8h-8.6q-.9 0-.9-.9v-5.7q0-.9.9-.9h21.6q.9 0 .9.9v5.6q0 .9-.9.9h-4.9v2.1h4.4q.9 0 .9.9v2.8c2.5-.4 4.6-1.1 6.5-2.1h-3.7q-.9 0-.9-.9V11.1q0-.9.9-.9h4.2l.7-1.7h-6q-.9 0-.9-.9V2.4q0-.9.9-.9h23.2q.9 0 .9.9v5.3q0 .9-.9.9h-7.9c-.1.4-.3.9-.7 1.7h7.2q.9 0 .9.9V33q0 .9-.9.9h-3.7c1.8.9 3.9 1.6 6.2 2.1.5.1.7.3.7.6 0 .1 0 .3-.1.5l-1.9 3.9c.5 0 1.1 0 1.9-.1h.3c.4.1.5.3.5.5l-.1.4-2.5 7.4c-.2.5-.5.8-.9.8-2.5.1-6.9.2-13.3.2-6.2 0-10.8-.1-13.8-.2-3.1-.1-5.7-.5-7.6-1.3-2-.8-3.6-1.9-4.9-3.4-.4 1.8-.8 3.4-1.4 4.8-.1.3-.3.5-.6.5-.3-.2-.5-.3-.7-.4m-3.6-29.9v-18q0-.9.9-.9h19.7q.9 0 .9.9v18q0 .9-.9.9h-19.7q-.9 0-.9-.9m13.4-10.5V7.6h-5.4v2.1h5.4zm0 5.9v-2.1h-5.4v2.1zm7.5 22.8h-4.4v2.6l2.3.2 4.2.1-1.6-3c-.2 0-.3.1-.5.1m19.7 2.6c-1.9-.9-3.5-1.8-4.7-3q-.3-.3-.3-.6 0-.15.3-.6l2.6-3.2h-7.4l2.6 3.3c.1.2.2.4.2.6 0 .4-.7 1.1-2.1 1.9s-2.6 1.4-3.5 1.8zm-2.9-23.8v-2.1h-5.7v2.1zm0 5.9V21h-5.7v2.2zm0 5.5v-2.1h-5.7v2.1z"/></svg>