<!-- Generator: Adobe Illustrator 25.0.0, SVG Export Plug-In  -->
<svg version="1.1" xmlns="http://www.w3.org/2000/svg" xmlns:xlink="http://www.w3.org/1999/xlink" x="0px" y="0px" width="67.3px"
	 height="50.6px" viewBox="0 0 67.3 50.6" style="overflow:visible;enable-background:new 0 0 67.3 50.6;" xml:space="preserve">
<style type="text/css">
	.st0{clip-path:url(#SVGID_2_);fill:#FFFFFF;}
	.st1{clip-path:url(#SVGID_4_);fill:#FFFFFF;}
</style>
<defs>
</defs>
<g>
	<defs>
		<rect id="SVGID_1_" width="67.3" height="50.6"/>
	</defs>
	<clipPath id="SVGID_2_">
		<use xlink:href="#SVGID_1_"  style="overflow:visible;"/>
	</clipPath>
	<path class="st0" d="M63.8,7H3.5C1.6,7,0,5.4,0,3.5C0,1.6,1.6,0,3.5,0h60.3c1.9,0,3.5,1.6,3.5,3.5C67.3,5.4,65.7,7,63.8,7"/>
	<path class="st0" d="M63.8,28.8H3.5c-1.9,0-3.5-1.6-3.5-3.5c0-1.9,1.6-3.5,3.5-3.5h60.3c1.9,0,3.5,1.6,3.5,3.5
		C67.3,27.2,65.7,28.8,63.8,28.8"/>
	<path class="st0" d="M63.8,50.6H3.5C1.6,50.6,0,49,0,47.1c0-1.9,1.6-3.5,3.5-3.5h60.3c1.9,0,3.5,1.6,3.5,3.5
		C67.3,49,65.7,50.6,63.8,50.6"/>
</g>
</svg>
