<!-- Generator: Adobe Illustrator 25.0.0, SVG Export Plug-In  -->
<svg version="1.1" xmlns="http://www.w3.org/2000/svg" xmlns:xlink="http://www.w3.org/1999/xlink" x="0px" y="0px" width="113.8px"
	 height="66.2px" viewBox="0 0 113.8 66.2" style="overflow:visible;enable-background:new 0 0 113.8 66.2;" xml:space="preserve">
<style type="text/css">
	.st0{fill:#FFFFFF;}
</style>
<defs>
</defs>
<g>
	<g>
		<path class="st0" d="M30.2,12.8l3.5,10.4h10.6c1.3,0,1.9,1.7,0.8,2.5l-8.6,6.2l3.2,10.2c0.4,1.3-1,2.3-2.1,1.5L29,37.4l-8.4,6.2
			c-1.1,0.8-2.5-0.3-2.1-1.5l3.2-10.1L13,25.7c-1.1-0.8-0.5-2.5,0.8-2.5H24l3.6-10.4C28.1,11.6,29.8,11.6,30.2,12.8z"/>
	</g>
</g>
<g>
	<g>
		<path class="st0" d="M2.8,31c0-0.2,0-0.4,0-0.6C2.8,30.5,2.8,30.7,2.8,31z"/>
	</g>
	<g>
		<path class="st0" d="M3.2,33.9c-0.1-0.3-0.1-0.5-0.1-0.8C3.1,33.3,3.1,33.6,3.2,33.9z"/>
	</g>
	<g>
		<path class="st0" d="M3.5,35.2c-0.1-0.3-0.1-0.6-0.2-0.8C3.4,34.7,3.4,35,3.5,35.2z"/>
	</g>
	<g>
		<path class="st0" d="M3.9,36.6c-0.1-0.3-0.2-0.6-0.3-0.9C3.7,36,3.8,36.3,3.9,36.6z"/>
	</g>
	<g>
		<path class="st0" d="M4.3,37.9c-0.1-0.3-0.2-0.7-0.3-1C4.1,37.2,4.2,37.5,4.3,37.9z"/>
	</g>
	<g>
		<path class="st0" d="M3,32.4c0-0.2-0.1-0.5-0.1-0.7C2.9,32,2.9,32.2,3,32.4z"/>
	</g>
	<g>
		<path class="st0" d="M2.7,28.9c0,0,0,0.1,0,0.1C2.7,29,2.7,29,2.7,28.9C2.7,28.9,2.7,28.9,2.7,28.9z"/>
	</g>
	<path class="st0" d="M2.8,30.3c0-0.4,0-0.8,0-1.3C2.7,29.5,2.7,29.9,2.8,30.3z"/>
	<path class="st0" d="M3.6,35.7c0-0.1-0.1-0.3-0.1-0.4C3.5,35.4,3.6,35.5,3.6,35.7z"/>
	<path class="st0" d="M4,36.9c0-0.1-0.1-0.2-0.1-0.3C3.9,36.7,3.9,36.8,4,36.9z"/>
	<path class="st0" d="M28.9,2.7C28.9,2.7,28.9,2.7,28.9,2.7C14.4,2.7,2.7,14.4,2.7,28.9c0,0,0,0,0,0C2.7,14.4,14.4,2.7,28.9,2.7z"/>
	<path class="st0" d="M3.1,33.1C3,32.9,3,32.7,3,32.4C3,32.7,3,32.9,3.1,33.1z"/>
	<path class="st0" d="M3.3,34.4c0-0.2-0.1-0.4-0.1-0.5C3.2,34,3.3,34.2,3.3,34.4z"/>
	<path class="st0" d="M2.9,31.7c0-0.2,0-0.5-0.1-0.7C2.8,31.2,2.8,31.5,2.9,31.7z"/>
	<path class="st0" d="M4.3,38c0,0,0-0.1,0-0.1C4.3,37.9,4.3,37.9,4.3,38z"/>
	<path class="st0" d="M57.8,28.9C57.8,12.9,44.9,0,28.9,0C12.9,0,0,12.9,0,28.9C0,29,0,29,0,29.1c0,0.5,0,0.9,0,1.4
		c0,0.2,0,0.5,0.1,0.7c0,0.3,0,0.6,0.1,0.8c0,0.3,0.1,0.5,0.1,0.8c0,0.2,0.1,0.5,0.1,0.7c0,0.3,0.1,0.6,0.2,0.9
		c0,0.2,0.1,0.4,0.1,0.6c0.1,0.3,0.1,0.6,0.2,0.9c0,0.2,0.1,0.3,0.1,0.5c0.1,0.3,0.2,0.7,0.3,1c0,0.1,0.1,0.2,0.1,0.4
		c0.1,0.4,0.2,0.7,0.4,1.1c0,0,0,0.1,0,0.1C4,45,8.2,50.1,13.7,53.4l-1.5,12.7l16.5-6.9l17,6.9l-1.5-12.8
		C52.3,48.3,57.8,39.2,57.8,28.9z M28.9,5.5c12.9,0,23.4,10.5,23.4,23.4c0,12.9-10.5,23.4-23.4,23.4C16,52.3,5.5,41.8,5.5,28.9
		C5.5,16,16,5.5,28.9,5.5z"/>
</g>
<g>
	<path class="st0" d="M61.3,19h49c1.9,0,3.5-1.6,3.5-3.5s-1.6-3.5-3.5-3.5h-52C59.5,14.2,60.5,16.5,61.3,19z"/>
	<path class="st0" d="M110.3,33.7H62.4c-0.3,2.4-0.9,4.7-1.8,7h49.6c1.9,0,3.5-1.6,3.5-3.5S112.2,33.7,110.3,33.7z"/>
	<path class="st0" d="M110.3,55.5H49.8c-0.1,0.1-0.2,0.2-0.4,0.3l0.8,6.7h60c1.9,0,3.5-1.6,3.5-3.5S112.2,55.5,110.3,55.5z"/>
</g>
</svg>
