<!-- Generator: Adobe Illustrator 25.0.0, SVG Export Plug-In  -->
<svg version="1.1" xmlns="http://www.w3.org/2000/svg" xmlns:xlink="http://www.w3.org/1999/xlink" x="0px" y="0px" width="342.5px"
	 height="24.5px" viewBox="0 0 342.5 24.5" style="overflow:visible;enable-background:new 0 0 342.5 24.5;" xml:space="preserve">
<style type="text/css">
	.st0{fill:#040000;}
</style>
<defs>
</defs>
<g>
	<path class="st0" d="M0,16.5v-5.7c0-0.5,0.3-0.8,1.1-0.8h24.3c0.3,0,0.6,0.1,0.8,0.2c0.2,0.1,0.3,0.3,0.3,0.6v5.7
		c0,0.3-0.1,0.4-0.3,0.6c-0.2,0.1-0.5,0.2-0.8,0.2H1.1C0.3,17.3,0,17,0,16.5z"/>
	<path class="st0" d="M93.6,4.1c0.2-0.1,0.3-0.1,0.5-0.1h4.5c0.4,0,0.7,0.1,0.9,0.3c0.2,0.2,0.3,0.5,0.3,0.8c0,0.3-0.1,0.6-0.3,0.9
		L86.4,24c-0.1,0.1-0.2,0.3-0.4,0.4c-0.2,0.1-0.3,0.2-0.5,0.2h-7.7c-0.4,0-0.8-0.1-1-0.3c-0.3-0.2-0.4-0.5-0.4-0.9
		c0-0.3,0.2-0.6,0.5-1.1L93.2,4.3C93.3,4.2,93.4,4.1,93.6,4.1z"/>
	<path class="st0" d="M155.2,7.1c0-0.3,0.1-0.6,0.3-0.8c0.2-0.2,0.5-0.3,0.9-0.3h4.4c0.2,0,0.4,0.1,0.6,0.2c0.2,0.1,0.4,0.3,0.5,0.4
		l7.4,10l10.8-16.2c0.2-0.3,0.5-0.5,0.9-0.5h4.4c0.4,0,0.7,0.1,0.9,0.3c0.2,0.2,0.3,0.4,0.3,0.8c0,0.2-0.1,0.5-0.4,1l-12.3,21.6
		c-0.1,0.1-0.2,0.3-0.3,0.4c-0.1,0.1-0.3,0.2-0.4,0.2h-8c-0.1,0-0.3-0.1-0.4-0.2c-0.1-0.1-0.3-0.2-0.3-0.4l-9-15.6
		C155.3,7.6,155.2,7.3,155.2,7.1z"/>
	<path class="st0" d="M242.1,5.2c0-0.3,0.1-0.6,0.4-0.9c0.2-0.2,0.6-0.4,1-0.4h7.8c0.1,0,0.3,0,0.5,0.1c0.2,0.1,0.3,0.2,0.3,0.3
		l13.3,18.1c0.2,0.2,0.3,0.5,0.3,0.8c0,0.4-0.1,0.7-0.3,0.9c-0.2,0.2-0.5,0.3-0.9,0.3h-4.5c-0.4,0-0.6-0.1-0.8-0.4l-16.5-18
		C242.2,5.8,242.1,5.5,242.1,5.2z"/>
	<path class="st0" d="M340.8,9.6c1.1,1.1,1.7,2.5,1.7,4.1s-0.6,3-1.7,4.1s-2.5,1.7-4.1,1.7c-1.6,0-3-0.6-4.1-1.7s-1.7-2.5-1.7-4.1
		c0-1.6,0.6-2.9,1.7-4.1c1.1-1.1,2.5-1.7,4.1-1.7C338.3,7.9,339.7,8.5,340.8,9.6z"/>
</g>
</svg>
