<svg xmlns="http://www.w3.org/2000/svg" xml:space="preserve" width="342.5" height="24.5" style="overflow:visible" viewBox="0 0 342.5 24.5"><path fill="#040000" d="M0 16.5v-5.7c0-.5.3-.8 1.1-.8h24.3c.3 0 .6.1.8.2q.3.15.3.6v5.7c0 .3-.1.4-.3.6-.2.1-.5.2-.8.2H1.1c-.8 0-1.1-.3-1.1-.8M93.6 4.1c.2-.1.3-.1.5-.1h4.5q.6 0 .9.3c.2.2.3.5.3.8q0 .45-.3.9L86.4 24c-.1.1-.2.3-.4.4s-.3.2-.5.2h-7.7c-.4 0-.8-.1-1-.3-.3-.2-.4-.5-.4-.9 0-.3.2-.6.5-1.1l16.3-18c.1-.1.2-.2.4-.2m61.6 3c0-.3.1-.6.3-.8q.3-.3.9-.3h4.4c.2 0 .4.1.6.2s.4.3.5.4l7.4 10L180.1.4c.2-.3.5-.5.9-.5h4.4q.6 0 .9.3c.2.2.3.4.3.8 0 .2-.1.5-.4 1l-12.3 21.6c-.1.1-.2.3-.3.4s-.3.2-.4.2h-8c-.1 0-.3-.1-.4-.2s-.3-.2-.3-.4l-9-15.6q-.3-.6-.3-.9m86.9-1.9c0-.3.1-.6.4-.9.2-.2.6-.4 1-.4h7.8c.1 0 .3 0 .5.1q.3.15.3.3l13.3 18.1c.2.2.3.5.3.8q0 .6-.3.9t-.9.3H260c-.4 0-.6-.1-.8-.4L242.7 6c-.5-.2-.6-.5-.6-.8m98.7 4.4c1.1 1.1 1.7 2.5 1.7 4.1s-.6 3-1.7 4.1-2.5 1.7-4.1 1.7-3-.6-4.1-1.7-1.7-2.5-1.7-4.1.6-2.9 1.7-4.1c1.1-1.1 2.5-1.7 4.1-1.7s3 .6 4.1 1.7"/></svg>