<!-- Generator: Adobe Illustrator 25.0.0, SVG Export Plug-In  -->
<svg version="1.1" xmlns="http://www.w3.org/2000/svg" xmlns:xlink="http://www.w3.org/1999/xlink" x="0px" y="0px" width="379.7px"
	 height="46.8px" viewBox="0 0 379.7 46.8" style="overflow:visible;enable-background:new 0 0 379.7 46.8;" xml:space="preserve">
<style type="text/css">
	.st0{fill:#231815;}
</style>
<defs>
</defs>
<g>
	<path class="st0" d="M0,4.5V2.9c0-0.2,0.1-0.3,0.3-0.3h2.2C2.4,2.2,2.2,1.8,2,1.4C1.9,1.3,1.9,1.2,1.9,1.2C1.9,1.1,2,1,2.1,1
		l1.7-0.4c0.1,0,0.1,0,0.2,0c0.1,0,0.2,0.1,0.3,0.2c0.2,0.4,0.4,1.1,0.7,1.9h1.9c0.2,0,0.3,0.1,0.3,0.3v1.6c0,0.2-0.1,0.3-0.3,0.3
		H0.3C0.1,4.8,0,4.7,0,4.5z M0.5,18.1v-5.8c0-0.2,0.1-0.3,0.3-0.3h5.7c0.2,0,0.3,0.1,0.3,0.3v5.8c0,0.2-0.1,0.3-0.3,0.3H0.9
		C0.6,18.4,0.5,18.3,0.5,18.1z M0.7,7.6V6.2c0-0.2,0.1-0.3,0.3-0.3h5.3c0.2,0,0.3,0.1,0.3,0.3v1.4c0,0.2-0.1,0.3-0.3,0.3H1.1
		C0.9,7.9,0.7,7.8,0.7,7.6z M0.7,10.7V9.3C0.7,9.1,0.9,9,1.1,9h5.3c0.2,0,0.3,0.1,0.3,0.3v1.4c0,0.2-0.1,0.3-0.3,0.3H1.1
		C0.9,11,0.7,10.9,0.7,10.7z M4.7,16.3v-2.3h-2v2.3H4.7z M17.4,9.5v6.4c0,0.7-0.1,1.2-0.3,1.6c-0.2,0.4-0.5,0.7-1,0.9
		c-0.5,0.2-1.3,0.3-2.3,0.3c-0.1,0-0.2,0-0.3,0c-0.1,0-0.2,0-0.2-0.1s-0.1-0.1-0.1-0.2l-0.5-1.4c0,0,0-0.1,0-0.1
		c0-0.1,0-0.1,0.1-0.2s0.1-0.1,0.2-0.1l0.5,0c0.4,0,0.8,0,1-0.1s0.4-0.2,0.4-0.3s0.1-0.3,0.1-0.5v-0.1h-4.7
		c-0.2,1.1-0.5,2.2-1.1,3.1c0,0.1-0.1,0.1-0.2,0.1c0,0-0.1,0-0.1,0l-1.8-0.9C7,17.9,7,17.8,7,17.7c0,0,0-0.1,0.1-0.2
		c0.4-0.7,0.7-1.5,0.8-2.3C8,14.4,8,13.4,8,12.2v-0.6V9.5c0-0.2,0.1-0.3,0.3-0.3h8.8C17.3,9.2,17.4,9.3,17.4,9.5z M8,5.5V4.6
		c0-0.2,0.1-0.3,0.3-0.3h3.2V3.5H7.7c-0.2,0-0.3-0.1-0.3-0.3V2c0-0.2,0.1-0.3,0.3-0.3h3.7V0.8c0-0.2,0.1-0.3,0.3-0.3h1.9
		c0.2,0,0.3,0.1,0.3,0.3v0.9h3.8C17.9,1.7,18,1.8,18,2v1.2c0,0.2-0.1,0.3-0.3,0.3h-3.8v0.8h3.3c0.2,0,0.3,0.1,0.3,0.3v0.9
		c0,0.2-0.1,0.3-0.3,0.3h-3.3v0.9H18c0.2,0,0.3,0.1,0.3,0.3v1.2c0,0.2-0.1,0.3-0.3,0.3H7.5c-0.2,0-0.3-0.1-0.3-0.3V7
		c0-0.2,0.1-0.3,0.3-0.3h3.9V5.8H8.2C8.1,5.8,8,5.7,8,5.5z M14.9,14.3v-0.9h-4.5l0,0.9H14.9z M14.9,11.9v-1h-4.5v1H14.9z"/>
	<path class="st0" d="M23.1,18.5V12c-0.7,0.6-1.3,1-1.7,1.3c-0.1,0-0.1,0.1-0.2,0.1c-0.1,0-0.2-0.1-0.2-0.2l-1.1-1.9
		c0-0.1,0-0.1,0-0.2c0-0.1,0.1-0.2,0.2-0.2c1.1-0.6,2.1-1.4,3-2.3s1.7-2,2.4-3.1h-4.6c-0.2,0-0.3-0.1-0.3-0.3V3.2
		c0-0.2,0.1-0.3,0.3-0.3h5.8c0.3-0.7,0.5-1.4,0.6-2.1c0-0.1,0.1-0.2,0.2-0.2c0,0,0.1,0,0.2,0L30,0.8c0.1,0,0.2,0.1,0.2,0.2
		c0,0.1,0,0.1,0,0.1c-0.2,0.7-0.4,1.3-0.6,1.9h8c0.2,0,0.3,0.1,0.3,0.3v1.9c0,0.2-0.1,0.3-0.3,0.3h-9.1c-0.7,1.4-1.7,2.8-2.8,4.1v9
		c0,0.2-0.1,0.3-0.3,0.3h-2C23.2,18.8,23.1,18.7,23.1,18.5z M26.5,17.9v-1.8c0-0.2,0.1-0.3,0.3-0.3h4v-3.8h-3.5
		c-0.2,0-0.3-0.1-0.3-0.3V9.9c0-0.2,0.1-0.3,0.3-0.3h3.5v-3c0-0.2,0.1-0.3,0.3-0.3h2c0.2,0,0.3,0.1,0.3,0.3v3H37
		c0.2,0,0.3,0.1,0.3,0.3v1.8c0,0.2-0.1,0.3-0.3,0.3h-3.6v3.8h4.3c0.2,0,0.3,0.1,0.3,0.3v1.8c0,0.2-0.1,0.3-0.3,0.3H26.8
		C26.6,18.2,26.5,18.1,26.5,17.9z"/>
	<path class="st0" d="M41.5,18.7L40,17.9c-0.1-0.1-0.1-0.1-0.2-0.2c0-0.1,0-0.1,0-0.2c0.4-0.7,0.6-1.6,0.9-2.6c0.2-1,0.3-2,0.4-3
		c0-0.1,0-0.2,0.1-0.2c0,0,0.1,0,0.2,0l1.6,0.2c0.1,0,0.2,0.1,0.2,0.1c0,0,0,0.1,0,0.2c0,0.4-0.1,1-0.2,1.7c0.3,0.4,0.6,0.8,1.1,1.1
		v-4h-3.4c-0.2,0-0.3-0.1-0.3-0.3V9.3c0-0.2,0.1-0.3,0.3-0.3h8C48.9,9,49,9.1,49,9.3v1.4c0,0.2-0.1,0.3-0.3,0.3h-2.4v1.4h2
		c0.2,0,0.3,0.1,0.3,0.3v1.3c0,0.2-0.1,0.3-0.3,0.3h-2v1.7c0.5,0.1,1,0.2,1.3,0.2c0.7,0,1.7,0.1,3,0.1c2.3,0,4.4-0.1,6.3-0.2
		c-1.2-0.5-2.2-1.1-2.8-1.8c-0.1-0.1-0.1-0.1-0.1-0.2c0-0.1,0-0.1,0.1-0.2l0.8-1h-2.7l0.8,1C53,13.9,53,14,53,14
		c0,0.1,0,0.1-0.1,0.2c-0.4,0.4-0.9,0.8-1.5,1.1c-0.6,0.3-1.2,0.6-1.8,0.8c0,0-0.1,0-0.1,0c-0.1,0-0.2-0.1-0.3-0.2l-0.8-1.4
		c0,0,0-0.1,0-0.2c0-0.1,0.1-0.2,0.2-0.2c1.2-0.3,2.2-0.7,3-1.3h-1.7c-0.2,0-0.3-0.1-0.3-0.3V4.4c0-0.2,0.1-0.3,0.3-0.3h1.7L52,3
		h-2.7c-0.2,0-0.3-0.1-0.3-0.3V1.4c0-0.2,0.1-0.3,0.3-0.3h8.3c0.2,0,0.3,0.1,0.3,0.3v1.4C58,2.9,57.9,3,57.7,3h-3.2
		c-0.2,0.5-0.4,0.8-0.5,1.1h3.1c0.2,0,0.3,0.1,0.3,0.3v8.2c0,0.2-0.1,0.3-0.3,0.3h-1.8c0.8,0.6,1.7,1,2.8,1.3c0.1,0,0.2,0.1,0.2,0.2
		c0,0.1,0,0.1,0,0.2l-0.8,1.4l0.7-0.1h0c0.1,0,0.2,0.1,0.2,0.2c0,0.1,0,0.1,0,0.1L57.8,18c-0.1,0.1-0.1,0.2-0.2,0.2
		c-1.1,0.1-3,0.2-5.7,0.2c-1.8,0-3.3,0-4.4-0.1c-1.1-0.1-2.1-0.3-2.8-0.6s-1.4-0.9-1.9-1.5c-0.2,0.9-0.5,1.7-0.9,2.4
		c0,0.1-0.1,0.2-0.2,0.2C41.6,18.8,41.6,18.7,41.5,18.7z M40.9,7.8V1.4c0-0.2,0.1-0.3,0.3-0.3h6.9c0.2,0,0.3,0.1,0.3,0.3v6.4
		c0,0.2-0.1,0.3-0.3,0.3h-6.9C41,8.1,40.9,8,40.9,7.8z M46.3,3.9V2.8h-3.2v1.1H46.3z M46.3,6.5V5.4h-3.2v1.1H46.3z M55.1,6.5v-1
		h-3.3v1H55.1z M55.1,9V8h-3.3v1H55.1z M55.1,11.4v-1h-3.3v1H55.1z"/>
	<path class="st0" d="M62,1.2h14.2c0.2,0,0.3,0.1,0.3,0.3V18c0,0.2-0.1,0.3-0.3,0.3H62c-0.2,0-0.3-0.1-0.3-0.3V1.4
		C61.8,1.3,61.9,1.2,62,1.2z M73.9,3.6h-9.5v2.5h9.5V3.6z M73.9,8.4h-9.5v2.5h9.5V8.4z M73.9,13.2h-9.5v2.7h9.5V13.2z"/>
	<path class="st0" d="M92.5,7.2v7.9c0,0.2-0.1,0.3-0.3,0.3h-8.8c-0.2,0-0.3-0.1-0.3-0.3V8c-0.6,0.6-1.1,1.2-1.5,1.5
		c-0.1,0.1-0.1,0.1-0.2,0.1c-0.1,0-0.2,0-0.2-0.1L80,7.4c0,0,0-0.1,0-0.2c0-0.1,0-0.2,0.1-0.2c0.9-0.8,1.8-1.7,2.5-2.8
		c0.7-1.1,1.3-2.2,1.6-3.3c0.1-0.1,0.1-0.2,0.3-0.2h0.1l2.2,0.3c0.1,0,0.2,0.1,0.2,0.1s0,0.2,0,0.3c-0.1,0.4-0.3,0.9-0.5,1.3h11
		c0.2,0,0.3,0.1,0.3,0.3c0,4.7-0.1,8.1-0.2,10.2c-0.1,1.5-0.4,2.6-0.8,3.4s-1.1,1.4-2,1.8c-0.9,0.4-2.1,0.5-3.7,0.5
		c-0.2,0-0.4-0.1-0.4-0.2l-0.8-2c0,0,0-0.1,0-0.1c0-0.1,0-0.1,0.1-0.2s0.1-0.1,0.2,0l1,0c1,0,1.7-0.1,2.2-0.3
		c0.5-0.2,0.9-0.6,1.1-1.1c0.2-0.5,0.4-1.2,0.4-2.2c0.1-1.6,0.1-4.1,0.1-7.6h-9.8c-0.4,0.7-0.8,1.3-1.3,2h8.2
		C92.4,7,92.5,7.1,92.5,7.2z M85.7,9.2v4h4.3v-4H85.7z"/>
	<path class="st0" d="M105,18.5l-0.8-2c0,0,0-0.1,0-0.1c0-0.1,0.1-0.2,0.2-0.2l0.8,0c0.1,0,0.3,0,0.6,0c0.7,0,1.3,0,1.6-0.1
		c0.3-0.1,0.6-0.2,0.6-0.4c0.1-0.2,0.1-0.4,0.1-0.8v-4h-7.8c-0.2,0-0.3-0.1-0.3-0.3v-2c0-0.2,0.1-0.3,0.3-0.3h7.8v-2
		c0-0.1,0.1-0.3,0.2-0.3c0.7-0.3,1.5-0.7,2.3-1.1c0.8-0.5,1.5-0.9,1.9-1.2h-10.4c-0.2,0-0.3-0.1-0.3-0.3V1.5c0-0.2,0.1-0.3,0.3-0.3
		h14c0.2,0,0.3,0.1,0.3,0.3v1.9c0,0.1,0,0.3-0.1,0.3c-0.6,0.6-1.4,1.3-2.4,2c-1,0.7-2.1,1.3-3.1,1.8v0.9h7c0.2,0,0.3,0.1,0.3,0.3v2
		c0,0.2-0.1,0.3-0.3,0.3h-7v4.6c0,0.8-0.1,1.4-0.4,1.8c-0.2,0.4-0.7,0.8-1.4,1c-0.7,0.2-1.8,0.3-3.1,0.3h-0.7
		C105.1,18.7,105,18.7,105,18.5z"/>
	<path class="st0" d="M120.8,13.6V3.9c0-0.2,0.1-0.3,0.3-0.3h6.6V0.8c0-0.2,0.1-0.3,0.3-0.3h2.2c0.2,0,0.3,0.1,0.3,0.3v2.8h6.7
		c0.2,0,0.3,0.1,0.3,0.3v9.7c0,0.2-0.1,0.3-0.3,0.3h-6.7v4.6c0,0.2-0.1,0.3-0.3,0.3H128c-0.2,0-0.3-0.1-0.3-0.3v-4.6h-6.6
		C120.9,13.9,120.8,13.8,120.8,13.6z M123.4,6.1v5.3h4.3V6.1H123.4z M130.5,6.1v5.3h4.4V6.1H130.5z"/>
	<path class="st0" d="M147.2,14.3l0-0.2l1-3.1c-0.3-0.2-0.5-0.4-0.6-0.6s-0.2-0.5-0.2-0.9c0-0.5,0.2-0.9,0.5-1.2s0.8-0.5,1.3-0.5
		s0.9,0.2,1.3,0.5c0.3,0.3,0.5,0.7,0.5,1.2c0,0.3-0.1,0.6-0.2,1c-0.1,0.4-0.4,1-0.8,1.9l-0.9,1.9c-0.1,0.1-0.2,0.2-0.3,0.2h-1.3
		C147.3,14.5,147.2,14.4,147.2,14.3z"/>
	<path class="st0" d="M159.8,18.1l0-0.1c0.2-0.4,0.4-0.9,0.5-1.6c0.1-0.6,0.2-1.2,0.3-1.8c0-0.2,0.1-0.3,0.3-0.2l1.4,0.2
		c0.2,0,0.3,0.1,0.3,0.3c0,0.6-0.1,1.2-0.2,1.9s-0.3,1.2-0.5,1.8c0,0.1-0.1,0.2-0.2,0.2c-0.1,0-0.1,0-0.2,0l-1.4-0.4
		C159.8,18.3,159.8,18.2,159.8,18.1z M160.4,11.9h3.4V11h-2.9c-0.2,0-0.3-0.1-0.3-0.3V9.4c0-0.2,0.1-0.3,0.3-0.3h2.9V8.3h-3.1
		c-0.2,0-0.3-0.1-0.3-0.3V1.3c0-0.2,0.1-0.3,0.3-0.3h8.3c0.2,0,0.3,0.1,0.3,0.3V8c0,0.2-0.1,0.3-0.3,0.3h-3.1v0.9h2.9
		c0.2,0,0.3,0.1,0.3,0.3v1.3c0,0.2-0.1,0.3-0.3,0.3h-2.9v0.9h3.3c0.2,0,0.3,0.1,0.3,0.3v1.3c0,0.2-0.1,0.3-0.3,0.3h-8.7
		c-0.2,0-0.3-0.1-0.3-0.3v-1.3C160.1,12,160.2,11.9,160.4,11.9z M163.9,2.8h-1.8v3.7h1.8V2.8z M162.2,3.8c0-0.1,0.1-0.2,0.2-0.2
		l0.5-0.2l0.1,0h0c0.1,0,0.2,0.1,0.2,0.2c0.2,0.5,0.4,1.2,0.5,1.9l0,0.1c0,0.1-0.1,0.2-0.2,0.3L163.1,6c-0.1,0-0.1,0-0.1,0
		c-0.1,0-0.2-0.1-0.2-0.2c-0.1-0.6-0.2-1.2-0.4-1.8C162.3,3.9,162.3,3.9,162.2,3.8z M163.1,18.4c0,0-0.1-0.1,0-0.2
		c0-0.2,0-0.6,0-1.1c0-0.7,0-1.4-0.1-2.1c0-0.2,0.1-0.3,0.3-0.3l1.1-0.1h0c0.2,0,0.3,0.1,0.3,0.2c0.2,1,0.3,2,0.3,3.2
		c0,0.2-0.1,0.3-0.3,0.3l-1.4,0.2h0C163.2,18.5,163.2,18.5,163.1,18.4z M165.7,17.9c-0.1-1.2-0.2-2.1-0.4-2.9l0-0.1
		c0-0.1,0.1-0.2,0.2-0.2l1-0.2h0.1c0.1,0,0.2,0.1,0.3,0.2c0.1,0.5,0.3,1,0.4,1.6c0.1,0.6,0.2,1,0.2,1.2v0.1c0,0.1-0.1,0.2-0.2,0.3
		l-1.2,0.3h-0.1C165.8,18.1,165.7,18,165.7,17.9z M167.4,2.8h-1.8v3.7h1.8V2.8z M166.1,3.7c0-0.2,0.1-0.3,0.3-0.2l0.6,0.2
		c0.2,0,0.2,0.1,0.2,0.3c-0.1,0.7-0.3,1.4-0.5,2c0,0.1-0.1,0.1-0.1,0.2c-0.1,0-0.1,0-0.2,0l-0.5-0.2c-0.2-0.1-0.2-0.2-0.2-0.4
		C165.9,5,166,4.4,166.1,3.7z M168,17.3c-0.1-1-0.4-1.8-0.6-2.4c0-0.1,0-0.1,0-0.1c0-0.1,0.1-0.2,0.2-0.2l0.9-0.3l0.1,0h0
		c0.1,0,0.2,0.1,0.2,0.2c0.3,0.8,0.6,1.6,0.8,2.4l0,0.1c0,0.1,0,0.1-0.1,0.1c0,0-0.1,0.1-0.2,0.1l-1,0.4c0,0-0.1,0-0.1,0
		C168.1,17.5,168,17.4,168,17.3z M169.9,18.2V9.6c0-0.2,0.1-0.3,0.3-0.3h2.1V0.8c0-0.2,0.1-0.3,0.3-0.3h1.9c0.2,0,0.3,0.1,0.3,0.3v3
		h3.3c0.2,0,0.3,0.1,0.3,0.3V6c0,0.2-0.1,0.3-0.3,0.3h-3.3v3.1h2.7c0.2,0,0.3,0.1,0.3,0.3v8.5c0,0.2-0.1,0.3-0.3,0.3h-7.2
		C170,18.4,169.9,18.3,169.9,18.2z M175.4,11.6h-3.2v4.6h3.2V11.6z"/>
	<path class="st0" d="M185.4,18.8c-0.2,0-0.3-0.1-0.3-0.2l-0.5-1.1c0-0.1,0-0.1,0-0.1c0-0.1,0-0.2,0.1-0.2h0.1l1.2,0
		c0.6,0,1.1,0,1.3-0.1s0.5-0.1,0.5-0.2c0.1-0.1,0.2-0.3,0.2-0.5h-7.8c-0.2,0-0.3-0.1-0.3-0.3v-1c0-0.2,0.1-0.3,0.3-0.3h7.8v-0.6
		h-6.7c-0.2,0-0.3-0.1-0.3-0.3v-0.8c0-0.2,0.1-0.3,0.3-0.3h6.7v-0.5c-0.3,0-2,0-4.9,0h-0.6c-0.2,0-0.3-0.1-0.3-0.2l-0.4-1
		c0,0,0-0.1,0-0.1c0-0.1,0.1-0.2,0.3-0.2c0.6,0,1.7,0,3.3,0c2.2,0,4.1,0,5.6-0.1c1.5-0.1,2.9-0.2,4.2-0.3c-0.6-0.2-1.1-0.4-1.7-0.7
		c-0.5,0.2-1,0.4-1.8,0.5s-1.3,0.3-1.7,0.3c-0.1,0-0.2-0.1-0.2-0.2l-0.6-1.2c0-0.1,0-0.1,0-0.1c0-0.1,0.1-0.2,0.3-0.2
		c1.1-0.1,1.8-0.1,2.3-0.3c-0.6-0.5-1.1-1.2-1.5-2h-0.5c-0.2,0-0.3-0.1-0.3-0.3v-1c0-0.2,0.1-0.3,0.3-0.3h0.7l-1.2-0.7
		c-0.1-0.1-0.1-0.1-0.1-0.2c0-0.1,0-0.1,0.1-0.2c0.8-0.5,1.2-1.3,1.2-2.4V1.2c0-0.2,0.1-0.3,0.3-0.3h4.9c0.2,0,0.3,0.1,0.3,0.3v1.5
		c0,0.2,0.1,0.3,0.3,0.4c0.1,0,0.4,0,0.8,0c0.2,0,0.5,0,0.7,0c0.1,0,0.1,0,0.1,0c0.1,0,0.1,0.1,0.1,0.3v1c0,0.1-0.1,0.2-0.3,0.3
		c-0.4,0.1-0.9,0.1-1.5,0.1c-0.4,0-0.8,0-1,0c-0.4,0-0.7-0.1-0.9-0.3c-0.2-0.2-0.3-0.5-0.3-0.9V2.6h-1.6c0,0.5-0.1,0.9-0.4,1.4
		s-0.6,0.8-1,1.1h6c0.2,0,0.3,0.1,0.3,0.3v1c0,0.1,0,0.2-0.1,0.3c-0.5,0.8-1.2,1.5-1.9,2c0.8,0.2,1.8,0.4,2.8,0.4
		c0.2,0,0.2,0.1,0.2,0.2c0,0,0,0.1,0,0.1l-0.5,1.3c-0.1,0.1-0.1,0.2-0.2,0.2h-0.1c-0.6-0.1-1.2-0.2-1.9-0.4l0.1,0.1l0.6,0.8
		c0.1,0.1,0.1,0.1,0.1,0.2c0,0.1-0.1,0.2-0.2,0.2c-1.7,0.2-3.5,0.3-5.6,0.3v0.6h6.3c0.2,0,0.3,0.1,0.3,0.3v0.8
		c0,0.2-0.1,0.3-0.3,0.3h-6.3v0.6h7.3c0.2,0,0.3,0.1,0.3,0.3v1c0,0.2-0.1,0.3-0.3,0.3h-7.3c0,0.7-0.1,1.2-0.3,1.5s-0.6,0.6-1.2,0.7
		s-1.5,0.2-2.7,0.2L185.4,18.8z M180.6,10.2V8.8c0-0.2,0.1-0.3,0.3-0.3h1.2c0.2,0,0.3,0.1,0.3,0.3v0.4h1.5V8.1h-3.5
		c-0.2,0-0.3-0.1-0.3-0.3V7.2c0-0.2,0.1-0.3,0.3-0.3h3.5V6.5h-3c-0.2,0-0.3-0.1-0.3-0.3V3.2c0-0.2,0.1-0.3,0.3-0.3h3V2.5h-3.4
		c-0.2,0-0.3-0.1-0.3-0.3V1.5c0-0.2,0.1-0.3,0.3-0.3h3.4V0.8c0-0.2,0.1-0.3,0.3-0.3h1.4c0.2,0,0.3,0.1,0.3,0.3v0.4h3.2
		c0.2,0,0.3,0.1,0.3,0.3v0.8c0,0.2-0.1,0.3-0.3,0.3h-3.2v0.5h2.9c0.2,0,0.3,0.1,0.3,0.3v3.1c0,0.2-0.1,0.3-0.3,0.3h-2.9V7h3.3
		c0.2,0,0.3,0.1,0.3,0.3v0.6c0,0.2-0.1,0.3-0.3,0.3h-3.3v1.1h1.5V8.8c0-0.2,0.1-0.3,0.3-0.3h1.1c0.2,0,0.3,0.1,0.3,0.3v1.4
		c0,0.2-0.1,0.3-0.3,0.3h-7.9C180.7,10.5,180.6,10.4,180.6,10.2z M184,4.3V3.8h-1.6v0.5H184z M184,5.6V5.1h-1.6v0.5H184z M187.3,4.3
		V3.8h-1.6v0.5H187.3z M187.3,5.6V5.1h-1.6v0.5H187.3z M193.5,7.9c0.6-0.4,1.1-0.8,1.5-1.3h-2.8C192.5,7.1,192.9,7.6,193.5,7.9z"/>
	<path class="st0" d="M199.9,17.7c0,0,0-0.1,0-0.2c0.4-1,0.6-2.2,0.8-3.6c0-0.2,0.1-0.3,0.3-0.3l0.2,0l1.4,0.2
		c0.2,0,0.3,0.1,0.3,0.3c0,0.7-0.1,1.4-0.2,2.2c-0.1,0.8-0.2,1.4-0.4,1.9c0,0.1,0,0.1-0.1,0.2c0,0-0.1,0.1-0.2,0.1l-0.1,0l-1.7-0.4
		C200,17.9,199.9,17.8,199.9,17.7z M200.9,12.6l-0.4-1.2c0-0.1-0.1-0.2-0.1-0.3c0-0.1,0.1-0.3,0.2-0.4c0.8-0.7,1.7-1.7,2.6-3
		c-1,0.2-1.9,0.4-2.5,0.4h0c-0.1,0-0.1,0-0.2-0.1c0,0-0.1-0.1-0.1-0.2l-0.4-1.3c0-0.1-0.1-0.3-0.1-0.3c0-0.1,0-0.2,0.1-0.3
		c0.4-0.5,0.9-1.4,1.5-2.5c0.6-1.1,1-2.1,1.3-2.9c0.1-0.1,0.1-0.2,0.3-0.2c0,0,0.1,0,0.2,0l1.7,0.7c0.1,0.1,0.2,0.1,0.2,0.2l0,0.1
		c-0.3,0.6-0.7,1.4-1.2,2.3c-0.5,0.9-0.9,1.6-1.3,2.1l1.8-0.4c0.5-0.9,0.9-1.6,1.2-2.2c0-0.1,0.1-0.1,0.2-0.1c0,0,0.1,0,0.2,0
		l1.7,0.8c0.1,0,0.1,0.1,0.1,0.3c0,0.1,0,0.1-0.1,0.2c-0.6,1-1.3,2.1-2.2,3.3c-0.8,1.2-1.5,2.1-2.1,2.8c0.9-0.2,1.6-0.4,2.1-0.5
		c-0.1-0.3-0.2-0.6-0.3-0.9c0,0,0-0.1,0-0.1c0-0.1,0.1-0.2,0.2-0.2l1.3-0.4c0,0,0.1,0,0.1,0c0.1,0,0.2,0.1,0.3,0.2
		c0.3,0.5,0.5,1.1,0.7,1.8c0.2,0.7,0.4,1.2,0.5,1.7l0,0.1c0,0.1-0.1,0.2-0.2,0.2l-1.5,0.5c0,0-0.1,0-0.1,0c-0.1,0-0.2-0.1-0.2-0.2
		l-0.1-0.6c-2,0.5-3.7,0.9-5.1,1.1l-0.1,0C201,12.9,200.9,12.8,200.9,12.6z M203.9,17.6c0-0.5-0.1-1.1-0.2-1.8
		c-0.1-0.6-0.2-1.2-0.4-1.8l0-0.1c0-0.1,0-0.2,0.1-0.2l1.5-0.3l0.1,0c0.1,0,0.2,0.1,0.2,0.2c0.1,0.3,0.3,0.8,0.4,1.5
		c0.2,0.7,0.3,1.3,0.4,1.9l0,0.2c0,0.1-0.1,0.2-0.2,0.2l-1.6,0.4l-0.2,0C204,17.9,204,17.8,203.9,17.6z M208.2,17.9v-1.1l-0.7,0.2
		c0,0-0.1,0-0.1,0c-0.1,0-0.2-0.1-0.2-0.2c-0.3-1.2-0.6-2.2-1-2.9c0-0.1,0-0.1,0-0.1c0-0.1,0-0.1,0.1-0.2l1.3-0.4c0.1,0,0.1,0,0.1,0
		c0.1,0,0.2,0,0.2,0.1c0.3,0.5,0.7,1.4,1,2.5h2.9V4.2h-3.1c-0.2,0-0.3-0.1-0.3-0.3V2c0-0.2,0.1-0.3,0.3-0.3h8.8
		c0.2,0,0.3,0.1,0.3,0.3v1.9c0,0.2-0.1,0.3-0.3,0.3h-3.1v11.5h3.6c0.2,0,0.3,0.1,0.3,0.3v1.9c0,0.2-0.1,0.3-0.3,0.3h-9.6
		C208.3,18.2,208.2,18.1,208.2,17.9z"/>
	<path class="st0" d="M225.1,18.3c-0.8,0-1.5-0.1-2-0.3c-0.5-0.2-0.8-0.5-1-1c-0.2-0.4-0.3-1-0.3-1.7V7.5l-0.8,0.4c0,0-0.1,0-0.1,0
		c-0.1,0-0.2-0.1-0.2-0.2l-0.8-2l0-0.1c0-0.1,0.1-0.2,0.2-0.2c1.4-0.5,2.7-1.1,3.9-2c1.2-0.8,2.1-1.8,2.7-2.7
		c0.1-0.1,0.1-0.2,0.3-0.2h0.1l2.3,0.3c0.1,0,0.2,0.1,0.2,0.2c0,0.1,0,0.1-0.1,0.2l-0.6,0.8h5.9c0.2,0,0.3,0.1,0.3,0.3v1.4
		c0,0.1,0,0.2-0.1,0.3c-0.5,0.7-1.2,1.3-2,2h3.9c0.2,0,0.3,0.1,0.3,0.3v6.2c0,0.2-0.1,0.3-0.3,0.3h-12.3v2c0,0.4,0.1,0.6,0.2,0.8
		c0.2,0.2,0.4,0.3,0.9,0.3c1.2,0,2.5,0.1,4,0.1c1.5,0,2.8,0,4-0.1c0.5,0,0.9-0.1,1.2-0.2s0.5-0.3,0.6-0.6c0.1-0.3,0.2-0.8,0.3-1.5
		c0-0.2,0.1-0.3,0.3-0.2l2.1,0.7c0.1,0.1,0.2,0.1,0.2,0.3v0.1c-0.2,1.1-0.4,1.9-0.7,2.4s-0.7,0.9-1.3,1.1c-0.6,0.2-1.4,0.3-2.5,0.3
		c-1.4,0-2.9,0.1-4.3,0.1C228,18.3,226.5,18.3,225.1,18.3z M231.5,4.2h-4.7c-0.8,0.7-1.6,1.3-2.4,1.9h4.9
		C230.3,5.4,231,4.8,231.5,4.2z M228.2,10.6V8.3h-3.7v2.3H228.2z M234.4,10.6V8.3h-3.7v2.3H234.4z"/>
	<path class="st0" d="M240.2,18v-1.8c0-0.2,0.1-0.3,0.3-0.3h7.2v-2.3h-5.9c-0.2,0-0.3-0.1-0.3-0.3v-1.7c0-0.2,0.1-0.3,0.3-0.3h14.6
		c0.2,0,0.3,0.1,0.3,0.3v1.7c0,0.2-0.1,0.3-0.3,0.3h-6v2.3h7.3c0.2,0,0.3,0.1,0.3,0.3V18c0,0.2-0.1,0.3-0.3,0.3h-17.3
		C240.3,18.3,240.2,18.2,240.2,18z M240.5,6.7V2.4c0-0.2,0.1-0.3,0.3-0.3h6.9c-0.1-0.3-0.2-0.7-0.4-1.1c0,0,0-0.1,0-0.1
		c0-0.1,0-0.1,0.1-0.2c0,0,0.1-0.1,0.2-0.1l2.3-0.2h0c0.1,0,0.2,0.1,0.3,0.2c0.1,0.3,0.3,0.8,0.5,1.5h6.9c0.2,0,0.3,0.1,0.3,0.3v4.3
		c0,0.2-0.1,0.3-0.3,0.3h-2c-0.2,0-0.3-0.1-0.3-0.3V4.5h-2.9v2.7c0,0.3,0,0.5,0.1,0.6s0.2,0.2,0.5,0.2c0.2,0,0.6,0,1.1,0l1.2,0
		c0.9,0,1.4-0.1,1.7-0.1c0.1,0,0.1,0,0.1,0c0.1,0,0.1,0.1,0.1,0.3v1.8c0,0.2-0.1,0.3-0.3,0.3c-0.9,0.1-1.7,0.1-2.6,0.1
		c-1.1,0-1.8,0-2.1,0c-0.9,0-1.5-0.2-1.8-0.5c-0.4-0.3-0.6-0.9-0.6-1.7V4.5H243v2.2c0,0.2-0.1,0.3-0.3,0.3h-1.9
		C240.6,7,240.5,6.9,240.5,6.7z M242.2,10.8l-1-1.7c0-0.1,0-0.1,0-0.1c0-0.1,0.1-0.2,0.2-0.2c1.4-0.2,2.5-0.6,3.2-1.2
		s1.2-1.4,1.4-2.5c0-0.1,0.1-0.2,0.2-0.2c0,0,0.1,0,0.1,0l1.9,0.5c0.1,0,0.2,0.1,0.2,0.2c0,0.1,0,0.1,0,0.1
		c-0.4,1.9-1.2,3.2-2.5,3.9c-1.2,0.8-2.4,1.3-3.5,1.5h-0.1C242.4,10.9,242.3,10.9,242.2,10.8z"/>
	<path class="st0" d="M260.6,5.7V3.9c0-0.2,0.1-0.3,0.3-0.3h1.9l0-2.8c0-0.2,0.1-0.3,0.3-0.3h1.9c0.2,0,0.3,0.1,0.3,0.3l0,2.8h1.4
		c0.2,0,0.3,0.1,0.3,0.3v0.7c1.1-1,1.9-2.3,2.4-3.8c0.1-0.1,0.2-0.2,0.3-0.2h0.1l1.9,0.2c0.1,0,0.2,0,0.2,0.1c0,0.1,0,0.1,0,0.2
		c-0.1,0.2-0.2,0.4-0.3,0.8h5.2c0.2,0,0.3,0.1,0.3,0.3v1.7c0,0.1,0,0.2-0.1,0.3c-0.6,1.4-1.4,2.7-2.5,3.8c1.1,0.6,2.4,1,3.9,1.3
		c0.1,0,0.2,0.1,0.2,0.2l0,0.1l-0.9,1.9c-0.1,0.1-0.2,0.2-0.3,0.2c0,0-0.1,0-0.1,0l-0.3-0.1v0v6.4c0,0.2-0.1,0.3-0.3,0.3H268
		c-0.2,0-0.3-0.1-0.3-0.3v-6.4c-0.1,0.1-0.2,0.1-0.3,0.1h-0.1c-0.1,0-0.2-0.1-0.3-0.2l-0.3-0.7l-0.4,0.6c-0.1,0.1-0.1,0.1-0.2,0.1
		s-0.1,0-0.2-0.1c-0.3-0.6-0.6-1.3-0.9-2.2l0.1,9.1c0,0.2-0.1,0.3-0.3,0.3h-1.9c-0.2,0-0.3-0.1-0.3-0.3l0.1-8.5
		c-0.4,1.5-0.9,2.8-1.5,3.9c-0.1,0.1-0.1,0.2-0.2,0.2c-0.1,0-0.1-0.1-0.2-0.2l-1.1-1.8c0-0.1-0.1-0.1-0.1-0.2s0-0.1,0.1-0.2
		c0.5-0.8,1-1.7,1.5-2.7c0.5-1,0.9-2,1.2-3h-1.7C260.7,6,260.6,5.9,260.6,5.7z M267.3,9.3c1.2-0.3,2.2-0.7,3.2-1.3
		c-0.6-0.6-1.2-1.3-1.6-2c-0.3,0.3-0.6,0.6-1,1c-0.1,0-0.1,0.1-0.2,0.1c-0.1,0-0.2,0-0.2-0.1l-0.7-1c0,0-0.1,0-0.1,0h-1.3
		C265.8,7.2,266.5,8.3,267.3,9.3z M272.4,9.7c-1,0.7-2.3,1.3-3.7,1.8h7.3C274.7,11,273.5,10.4,272.4,9.7z M274.4,13.5h-4.2v2.9h4.2
		V13.5z M272.4,6.7c0.8-0.8,1.5-1.7,1.9-2.6h-3.8C270.9,5.1,271.5,6,272.4,6.7z"/>
	<path class="st0" d="M287.2,14.3l0-0.2l1-3.1c-0.3-0.2-0.5-0.4-0.6-0.6s-0.2-0.5-0.2-0.9c0-0.5,0.2-0.9,0.5-1.2s0.8-0.5,1.3-0.5
		s0.9,0.2,1.3,0.5c0.3,0.3,0.5,0.7,0.5,1.2c0,0.3-0.1,0.6-0.2,1c-0.1,0.4-0.4,1-0.8,1.9l-0.9,1.9c-0.1,0.1-0.2,0.2-0.3,0.2h-1.3
		C287.3,14.5,287.2,14.4,287.2,14.3z"/>
	<path class="st0" d="M299.9,16.8c0-0.1,0-0.1,0.1-0.2c1.5-1.2,2.5-2.8,3-4.6h-2.1c-0.2,0-0.3-0.1-0.3-0.3v-1.4c0-0.2,0-0.3,0.1-0.4
		c0.6-0.6,1.1-1.4,1.7-2.2h-1.9c-0.1,0-0.1,0-0.2-0.1c0,0-0.1-0.1-0.1-0.2V5.8c0-0.1,0-0.1,0.1-0.2c0,0,0.1-0.1,0.2-0.1h4.1
		c0.1,0,0.2,0,0.2,0.1s0.1,0.1,0.1,0.2v1.3c0,0.1,0,0.2,0,0.3c-0.1,0.2-0.3,0.6-0.6,1.1c-0.3,0.5-0.7,1-1.1,1.5h1.7
		c0.2,0,0.3,0.1,0.3,0.3v0.2v0.6c0,0.1,0,0.3,0,0.6c-0.1,0.8-0.3,1.6-0.7,2.5c0.5,0.8,1.1,1.3,1.9,1.6l-0.8-1.4c0,0,0-0.1,0-0.2
		c0-0.1,0.1-0.2,0.2-0.2c0.6-0.1,1.2-0.2,1.9-0.3c0.6-0.1,1.2-0.3,1.6-0.5h-3.5c-0.2,0-0.3-0.1-0.3-0.3v-1.3c0-0.2,0.1-0.3,0.3-0.3
		h2.2v-0.9h-1.9c-0.2,0-0.3-0.1-0.3-0.3V9c0-0.2,0.1-0.3,0.3-0.3h1.9V8.1c0-0.2,0.1-0.3,0.3-0.3h1.7c0.2,0,0.3,0.1,0.3,0.3v0.6h2.6
		V8.1c0-0.2,0.1-0.3,0.3-0.3h1.7c0.2,0,0.3,0.1,0.3,0.3v0.6h2c0.2,0,0.3,0.1,0.3,0.3v1.2c0,0.2-0.1,0.3-0.3,0.3h-2v0.9h2.5
		c0.2,0,0.3,0.1,0.3,0.3V13c0,0.2-0.1,0.3-0.3,0.3h-3.6c1,0.4,2.2,0.7,3.5,0.8c0.1,0,0.2,0.1,0.2,0.2c0,0.1,0,0.1,0,0.2l-0.7,1.3
		c-0.1,0.1-0.2,0.2-0.4,0.2c-0.7-0.1-1.5-0.3-2.2-0.6c-0.8-0.2-1.4-0.5-2.1-0.8c-0.1,0-0.2-0.1-0.2-0.2c0,0,0-0.1,0.1-0.2l0.6-0.9
		h-2.6l0.7,0.9c0.1,0.1,0.1,0.1,0.1,0.2c0,0.1,0,0.1-0.1,0.2c-0.5,0.3-1.1,0.5-1.8,0.8c-0.7,0.3-1.5,0.5-2.3,0.6
		c0.4,0.1,0.8,0.2,1.2,0.2c0.8,0.1,1.9,0.1,3.3,0.1c2.4,0,4.7-0.1,6.9-0.4h0c0.1,0,0.2,0.1,0.2,0.2l0,0.1l-0.6,1.8
		c-0.1,0.1-0.2,0.2-0.4,0.2c-1.8,0.2-3.8,0.3-6.2,0.3c-1.4,0-2.5,0-3.3-0.1c-1-0.1-1.9-0.3-2.7-0.6c-0.7-0.3-1.4-0.8-2-1.5
		c-0.5,0.8-1.1,1.5-1.6,2c-0.1,0.1-0.2,0.1-0.3,0.1c-0.1,0-0.1,0-0.2-0.1l-1.3-1.3C299.9,17,299.9,16.9,299.9,16.8z M302.9,4.7
		c-0.3-0.5-0.7-1-1-1.4c-0.3-0.4-0.8-0.8-1.3-1.2c-0.1-0.1-0.1-0.1-0.1-0.2s0-0.1,0.1-0.2l1.4-1.1c0.1,0,0.1-0.1,0.2-0.1
		c0.1,0,0.1,0,0.2,0.1c0.4,0.3,0.8,0.7,1.2,1.1s0.8,1,1.1,1.5c0,0.1,0.1,0.1,0.1,0.2c0,0.1,0,0.2-0.1,0.2l-1.4,1.1
		c0,0-0.1,0.1-0.1,0.1C303.1,4.9,303,4.8,302.9,4.7z M305.8,6V1.2c0-0.2,0.1-0.3,0.3-0.3h4.8c0.2,0,0.3,0.1,0.3,0.3v3.6
		c0,0.2-0.1,0.3-0.3,0.3h-3.1v0.4c0,0.1,0,0.2,0.1,0.2c0.1,0.1,0.2,0.1,0.4,0.1c0.3,0,0.5,0,0.6,0c0.7,0,1.4-0.1,2-0.2l0.1,0h0
		c0.1,0,0.2,0.1,0.2,0.3V7c0,0.1-0.1,0.2-0.2,0.3c-0.9,0.2-1.8,0.3-2.7,0.3c-0.5,0-0.9,0-1.2,0C306.2,7.5,305.8,7,305.8,6z
		 M309.4,3.6V2.7h-1.6v0.9H309.4z M310.3,10.5v0.9h2.6v-0.9H310.3z M313.4,7.5c-0.6-0.1-1-0.2-1.2-0.5c-0.2-0.3-0.4-0.7-0.4-1.2V1.2
		c0-0.2,0.1-0.3,0.3-0.3h5c0.2,0,0.3,0.1,0.3,0.3v3.6c0,0.1,0,0.2,0,0.2c0,0-0.1,0.1-0.2,0.1h-3.3v0.3c0,0.1,0,0.2,0.1,0.3
		c0,0.1,0.2,0.1,0.3,0.1c0.4,0,0.7,0,0.8,0c0.7,0,1.5,0,2.3-0.1h0c0.2,0,0.2,0.1,0.2,0.3v1.2c0,0.2-0.1,0.3-0.3,0.3
		c-0.6,0.1-1.3,0.1-2.1,0.1C314.5,7.5,313.9,7.5,313.4,7.5z M315.5,3.6V2.7h-1.7v0.9H315.5z"/>
	<path class="st0" d="M320.1,5.9V4.1c0-0.2,0.1-0.3,0.3-0.3h1.6V0.8c0-0.2,0.1-0.3,0.3-0.3h1.9c0.2,0,0.3,0.1,0.3,0.3v2.9h1
		c0.2,0,0.3,0.1,0.3,0.3v1.8c0,0.2-0.1,0.3-0.3,0.3h-1v3l0.8-0.3c0.1,0,0.1,0,0.1,0c0.1,0,0.2,0.1,0.2,0.3V11c0,0.2-0.1,0.3-0.2,0.3
		l-0.9,0.3v3.5c0,1-0.1,1.7-0.3,2.2c-0.2,0.5-0.5,0.8-1,1c-0.5,0.2-1.2,0.3-2.2,0.4c-0.2,0-0.3-0.1-0.3-0.2l-0.6-2l0-0.1
		c0-0.2,0.1-0.2,0.3-0.2c0.5,0,0.8,0,1.1-0.1c0.2-0.1,0.4-0.2,0.5-0.4c0.1-0.2,0.1-0.5,0.1-0.8v-2.6l-0.8,0.2l-0.7,0.2l-0.1,0
		c-0.1,0-0.2-0.1-0.2-0.3l-0.2-1.9v-0.1c0-0.1,0.1-0.2,0.2-0.3c0.7-0.1,1.3-0.3,1.8-0.4V6.2h-1.6C320.2,6.2,320.1,6.1,320.1,5.9z
		 M326.1,9.5h4.7V8.6H327c-0.2,0-0.3-0.1-0.3-0.3V7.1c0-0.2,0.1-0.3,0.3-0.3h3.8V5.9h-4.3c-0.2,0-0.3-0.1-0.3-0.3V1.4
		c0-0.2,0.1-0.3,0.3-0.3h11c0.2,0,0.3,0.1,0.3,0.3v4.3c0,0.2-0.1,0.3-0.3,0.3h-4.3v0.9h3.9c0.2,0,0.3,0.1,0.3,0.3v1.2
		c0,0.2-0.1,0.3-0.3,0.3h-3.9v0.9h4.7c0.2,0,0.3,0.1,0.3,0.3v1.2c0,0.2-0.1,0.3-0.3,0.3h-2c-0.1,0.5-0.3,1-0.5,1.4h1.6
		c0.2,0,0.3,0.1,0.3,0.3V14c0,0.2-0.1,0.3-0.3,0.3h-3.8v1h4.7c0.2,0,0.3,0.1,0.3,0.3v1.2c0,0.2-0.1,0.3-0.3,0.3h-4.7v1.4
		c0,0.2-0.1,0.3-0.3,0.3h-1.9c-0.2,0-0.3-0.1-0.3-0.3v-1.4h-4.6c-0.2,0-0.3-0.1-0.3-0.3v-1.2c0-0.2,0.1-0.3,0.3-0.3h4.6v-1H327
		c-0.2,0-0.3-0.1-0.3-0.3v-1.2c0-0.2,0.1-0.3,0.3-0.3h1.5c-0.1-0.4-0.3-0.8-0.5-1.4h-1.9c-0.2,0-0.3-0.1-0.3-0.3V9.8
		C325.8,9.6,325.9,9.5,326.1,9.5z M329.6,2.7h-1.3v1.6h1.3V2.7z M330.8,12.6h2.3c0.2-0.5,0.3-0.9,0.4-1.4h-3.2
		C330.6,11.6,330.7,12.1,330.8,12.6z M332.6,2.7h-1.2v1.6h1.2V2.7z M335.7,2.7h-1.3v1.6h1.3V2.7z"/>
	<path class="st0" d="M342.5,11.7V0.3c0-0.2,0.1-0.3,0.3-0.3h5.4c0.2,0,0.3,0.1,0.3,0.3v2c0,0.2-0.1,0.3-0.3,0.3h-2.9v9.1
		c0,0.2-0.1,0.3-0.3,0.3h-2.2C342.6,12,342.5,11.9,342.5,11.7z"/>
	<path class="st0" d="M359.1,17.4c-0.1,0-0.1,0-0.2-0.1c-0.5-0.6-1.1-1.2-1.8-1.9c-0.5,0.6-1,1.2-1.6,1.8c-0.6,0.6-1.2,1.1-1.9,1.5
		c-0.1,0-0.1,0.1-0.2,0.1c-0.1,0-0.1,0-0.2-0.1l-1.3-1.8c-0.1-0.1-0.1-0.1-0.1-0.2c0-0.1,0.1-0.2,0.2-0.2c0.6-0.3,1.2-0.7,1.8-1.2
		c0.6-0.5,1-0.9,1.5-1.5c-0.8-0.6-1.6-1.2-2.5-1.8c-0.1-0.1-0.2-0.2-0.1-0.4c0.5-1.6,0.8-3.5,1.1-5.7h-1.2c-0.2,0-0.3-0.1-0.3-0.3
		V3.8c0-0.2,0.1-0.3,0.3-0.3h1.5c0.1-1.1,0.1-2,0.1-2.7c0-0.2,0.1-0.3,0.3-0.3l1.9,0c0.2,0,0.3,0.1,0.3,0.3c0,0.9-0.1,1.8-0.2,2.7
		h3.4c0.2,0,0.3,0.1,0.3,0.3c0,2.1-0.1,3.9-0.3,5.4c-0.2,1.5-0.6,2.9-1.2,4.1c0.8,0.7,1.4,1.3,2,1.9c0.1,0.1,0.1,0.1,0.1,0.2
		c0,0.1,0,0.1-0.1,0.2l-1.2,1.7C359.2,17.4,359.2,17.4,359.1,17.4z M356.5,11.7c0.3-0.7,0.6-1.6,0.8-2.6s0.3-2.1,0.3-3.2H356
		c-0.3,2.2-0.6,3.8-0.9,4.8C355.5,11,356,11.3,356.5,11.7z M360.5,8.5h3.8V6.3c0-0.1,0.1-0.2,0.2-0.3c0.5-0.3,0.9-0.6,1.3-1
		c0.4-0.4,0.7-0.8,0.9-1.1H361c-0.2,0-0.3-0.1-0.3-0.3v-2c0-0.2,0.1-0.3,0.3-0.3h8.4c0.2,0,0.3,0.1,0.3,0.3v1.9c0,0.1,0,0.2-0.1,0.3
		c-0.3,0.5-0.7,1-1.2,1.6c-0.5,0.6-1,1.1-1.6,1.6v1.6h3.2c0.2,0,0.3,0.1,0.3,0.3v2c0,0.2-0.1,0.3-0.3,0.3h-3.2v4.5
		c0,0.9-0.1,1.5-0.3,2c-0.2,0.5-0.6,0.8-1.2,1c-0.6,0.2-1.4,0.3-2.6,0.3l-0.6,0c-0.2,0-0.3-0.1-0.3-0.2l-0.7-1.9l0-0.1
		c0-0.1,0-0.1,0.1-0.2c0,0,0.1,0,0.2,0l1,0c0.6,0,1,0,1.3-0.1c0.3-0.1,0.4-0.2,0.5-0.4c0.1-0.2,0.1-0.5,0.1-0.8v-4h-3.8
		c-0.2,0-0.3-0.1-0.3-0.3v-2C360.2,8.6,360.3,8.5,360.5,8.5z"/>
	<path class="st0" d="M379.7,7.7v11.4c0,0.2-0.1,0.3-0.3,0.3H374c-0.2,0-0.3-0.1-0.3-0.3v-2c0-0.2,0.1-0.3,0.3-0.3h2.9V7.7
		c0-0.2,0.1-0.3,0.3-0.3h2.2C379.6,7.4,379.7,7.5,379.7,7.7z"/>
	<path class="st0" d="M5.5,46.8c-0.1,0-0.3-0.1-0.3-0.2l-0.7-1.9c0,0,0-0.1,0-0.1c0-0.1,0.1-0.2,0.3-0.2l1.2,0
		c1.1,0,1.8-0.1,2.1-0.4c0.1-0.1,0.2-0.2,0.2-0.3c0-0.1,0.1-0.3,0.1-0.5v-1.7h-8c-0.2,0-0.3-0.1-0.3-0.3v-1.8c0-0.2,0.1-0.3,0.3-0.3
		h8v-1.4c0-0.2,0.1-0.3,0.2-0.3c1.1-0.4,1.9-0.8,2.5-1.2H3.8c-0.2,0-0.3-0.1-0.3-0.3v-1.6c0-0.2,0.1-0.3,0.3-0.3h10.7
		c0.2,0,0.3,0.1,0.3,0.3v1.6c0,0.1,0,0.2-0.1,0.3c-0.4,0.4-1,0.9-1.6,1.3c-0.7,0.4-1.3,0.8-2,1.2v0.3h6.9c0.2,0,0.3,0.1,0.3,0.3v1.8
		c0,0.2-0.1,0.3-0.3,0.3H11v2c0,0.6-0.1,1.1-0.2,1.5c-0.1,0.4-0.3,0.7-0.6,1c-0.3,0.3-0.8,0.5-1.3,0.6c-0.6,0.1-1.3,0.2-2.3,0.2
		L5.5,46.8z M0.6,35.1v-4.5c0-0.2,0.1-0.3,0.3-0.3h6.9C7.5,29.9,7.2,29.4,7,29c0,0,0,0,0-0.1c0-0.1,0-0.1,0-0.1s0.1-0.1,0.1-0.1
		l2.4-0.2h0.1c0.1,0,0.3,0.1,0.3,0.2c0.2,0.4,0.4,0.9,0.7,1.6h6.8c0.2,0,0.3,0.1,0.3,0.3v4.5c0,0.2-0.1,0.3-0.3,0.3h-1.9
		c-0.2,0-0.3-0.1-0.3-0.3v-2.5H3.1v2.5c0,0.2-0.1,0.3-0.3,0.3H0.8C0.7,35.3,0.6,35.2,0.6,35.1z"/>
	<path class="st0" d="M20.2,35.3c0-0.1,0-0.1,0.1-0.2l1.1-1.6c0.1-0.1,0.2-0.2,0.4-0.1c1.4,0.6,2.5,1.3,3.4,2
		c0.1,0.1,0.1,0.2,0.1,0.2c0,0.1,0,0.1-0.1,0.2L24,37.5c-0.1,0.1-0.1,0.1-0.2,0.1c-0.1,0-0.1,0-0.2-0.1c-0.8-0.8-1.9-1.4-3.2-2
		C20.2,35.4,20.2,35.4,20.2,35.3z M20.2,44.9c0-0.1,0-0.1,0.1-0.2c0.5-0.8,1.1-1.7,1.6-2.8s1-2.1,1.4-3.1c0.1-0.1,0.1-0.2,0.2-0.2
		c0.1,0,0.1,0,0.2,0.1l1.7,1c0.1,0.1,0.2,0.2,0.1,0.3c-0.4,1-0.9,2.1-1.4,3.2c-0.5,1.1-1,2-1.5,2.8c-0.1,0.1-0.1,0.2-0.2,0.2
		c0,0-0.1,0-0.2-0.1l-1.8-1.1C20.2,45,20.2,45,20.2,44.9z M20.7,30.6c0-0.1,0-0.1,0.1-0.2l1.2-1.5c0.1-0.1,0.2-0.1,0.2-0.1
		c0,0,0.1,0,0.2,0c0.6,0.2,1.2,0.5,1.8,0.9c0.6,0.4,1.1,0.8,1.5,1.2c0.1,0.1,0.1,0.1,0.1,0.2c0,0.1,0,0.1-0.1,0.2l-1.3,1.6
		c-0.1,0.1-0.1,0.1-0.2,0.1c-0.1,0-0.1,0-0.2-0.1c-0.4-0.4-0.9-0.7-1.4-1.1c-0.6-0.4-1.1-0.7-1.7-1C20.8,30.7,20.7,30.7,20.7,30.6z
		 M26.3,40v-1.7c0-0.2,0.1-0.3,0.3-0.3h3.8v-3.2H26c-0.2,0-0.3-0.1-0.3-0.3v-1.8c0-0.2,0.1-0.3,0.3-0.3h6.9c-0.6-0.3-1.4-0.7-2.2-1
		c-0.8-0.3-1.6-0.6-2.3-0.8c-0.1,0-0.2-0.1-0.2-0.2c0-0.1,0-0.1,0.1-0.2l1-1.5c0.1-0.1,0.1-0.2,0.2-0.2c0.1,0,0.1,0,0.1,0
		c1.8,0.5,3.4,1.1,4.7,1.8c0.1,0.1,0.2,0.1,0.2,0.2c0,0,0,0.1-0.1,0.2l-1,1.6l0,0h4.1c0.2,0,0.3,0.1,0.3,0.3v1.8
		c0,0.2-0.1,0.3-0.3,0.3H33V38h4c0.2,0,0.3,0.1,0.3,0.3V40c0,0.2-0.1,0.3-0.3,0.3h-4v3.7h5c0.2,0,0.3,0.1,0.3,0.3V46
		c0,0.2-0.1,0.3-0.3,0.3H25.5c-0.2,0-0.3-0.1-0.3-0.3v-1.8c0-0.2,0.1-0.3,0.3-0.3h4.9v-3.7h-3.8C26.4,40.2,26.3,40.1,26.3,40z"/>
	<path class="st0" d="M40.3,34.3h4c-0.3-0.8-0.5-1.5-0.8-2.1h-2.1c-0.2,0-0.3-0.1-0.3-0.3v-1.7c0-0.2,0.1-0.3,0.3-0.3h6.5
		c-0.1-0.3-0.3-0.6-0.5-0.9c0-0.1,0-0.1,0-0.1c0-0.1,0.1-0.2,0.2-0.2l2.1-0.2h0c0.1,0,0.2,0.1,0.3,0.2c0.2,0.4,0.4,0.8,0.5,1.2h6.3
		c0.2,0,0.3,0.1,0.3,0.3V32c0,0.2-0.1,0.3-0.3,0.3h-2.1c-0.2,0.7-0.4,1.4-0.7,2.1H58c0.2,0,0.3,0.1,0.3,0.3v1.7
		c0,0.2-0.1,0.3-0.3,0.3H40.3c-0.2,0-0.3-0.1-0.3-0.3v-1.7C40,34.4,40.1,34.3,40.3,34.3z M42.1,46.1v-8c0-0.2,0.1-0.3,0.3-0.3H56
		c0.2,0,0.3,0.1,0.3,0.3v8c0,0.2-0.1,0.3-0.3,0.3H42.3C42.2,46.3,42.1,46.2,42.1,46.1z M53.7,39.7h-9.1V41h9.1V39.7z M53.7,42.9
		h-9.1v1.4h9.1V42.9z M47,34.3h4.3c0.2-0.6,0.5-1.3,0.7-2.1h-5.8C46.5,32.9,46.8,33.6,47,34.3z"/>
	<path class="st0" d="M67.7,45.9H61c-0.2,0-0.3-0.1-0.3-0.3V31.4c0-0.2,0.1-0.3,0.3-0.3h1.4c0.4-0.8,0.7-1.6,0.9-2.4
		c0-0.1,0.1-0.2,0.3-0.2h0.1l1.9,0.2c0.2,0,0.3,0.1,0.2,0.3c-0.3,0.8-0.5,1.5-0.8,2h2.7c0.2,0,0.3,0.1,0.3,0.3v2.3
		c0.5-0.7,0.9-1.4,1.2-2.3c0.4-0.8,0.6-1.7,0.8-2.6c0-0.1,0.1-0.2,0.3-0.2h0.1l1.9,0.2c0.1,0,0.2,0,0.2,0.1s0.1,0.1,0,0.2
		c-0.1,0.5-0.3,1.1-0.5,1.7h5.4c0.2,0,0.3,0.1,0.3,0.3c0,0.2,0,1.5,0,4c0,2.9,0,5-0.1,6.3c-0.1,1.3-0.4,2.3-0.7,3.1s-1,1.3-1.7,1.7
		c-0.8,0.4-1.8,0.5-3.1,0.5c-0.1,0-0.3,0-0.4,0c-0.1,0-0.2-0.1-0.3-0.2l-0.7-2c0,0,0-0.1,0-0.1c0-0.1,0.1-0.2,0.3-0.2
		c1,0,1.8,0,2.4-0.2c0.6-0.2,1-0.5,1.2-0.9c0.3-0.4,0.4-1.1,0.5-1.9c0.1-1.3,0.2-2.9,0.2-4.7c0-1,0-2,0-3.2h-4
		c-0.4,1-0.9,1.7-1.5,2.4c-0.1,0.1-0.1,0.1-0.2,0.1c-0.1,0-0.1,0-0.2-0.1L67.9,35v10.7C67.9,45.8,67.8,45.9,67.7,45.9z M63,33.4v3.8
		h2.6v-3.8H63z M63,39.6v4.1h2.6v-4.1H63z M69.2,37c-0.1-0.1-0.1-0.1-0.1-0.2c0-0.1,0.1-0.2,0.2-0.2l1.6-0.8c0,0,0.1,0,0.2,0
		c0.1,0,0.2,0,0.2,0.1c0.5,0.6,0.9,1.2,1.3,2s0.7,1.4,1,2.2c0,0,0,0.1,0,0.1c0,0.1-0.1,0.2-0.2,0.3l-1.7,0.8l-0.2,0
		c-0.1,0-0.2-0.1-0.2-0.2C70.8,39.6,70.1,38.2,69.2,37z"/>
	<path class="st0" d="M82.8,34.8h2.1c0.2,0,0.3,0.1,0.3,0.3v8.6h3V31.8h-7.1c-0.2,0-0.3-0.1-0.3-0.3v-1.9c0-0.2,0.1-0.3,0.3-0.3
		h16.2c0.2,0,0.3,0.1,0.3,0.3v1.9c0,0.2-0.1,0.3-0.3,0.3H91v4.4h5.3c0.2,0,0.3,0.1,0.3,0.3v1.9c0,0.2-0.1,0.3-0.3,0.3H91v5h6.9
		c0.2,0,0.3,0.1,0.3,0.3v1.9c0,0.2-0.1,0.3-0.3,0.3H80.4c-0.2,0-0.3-0.1-0.3-0.3V44c0-0.2,0.1-0.3,0.3-0.3h2.1v-8.6
		C82.5,34.9,82.6,34.8,82.8,34.8z"/>
	<path class="st0" d="M108.4,46.1v-6.7c-0.2,0.2-0.4,0.3-0.6,0.5c-0.1,0.1-0.1,0.1-0.2,0.1c-0.1,0-0.2-0.1-0.2-0.2l-0.6-1.4v7.1
		c0,0.2-0.1,0.3-0.3,0.3h-4.9c-0.2,0-0.3-0.1-0.3-0.3v-5.8c-0.2,0.3-0.5,0.7-0.7,1c-0.1,0.1-0.1,0.1-0.2,0.1c-0.1,0-0.2-0.1-0.2-0.2
		l-0.7-2.3c0,0,0-0.1,0-0.1c0-0.1,0-0.2,0.1-0.3c0.6-0.8,1.1-1.8,1.6-2.9c0.5-1.1,0.8-2.3,1-3.5h-1.7c-0.2,0-0.3-0.1-0.3-0.3v-1.8
		c0-0.2,0.1-0.3,0.3-0.3h6.5c0.2,0,0.3,0.1,0.3,0.3v0.6c0.1,0,0.1,0,0.1,0h3.7c0.1-0.3,0.2-0.7,0.3-1.3c0-0.2,0.1-0.2,0.2-0.2h0.1
		l2,0.1c0.2,0,0.3,0.1,0.2,0.3c-0.1,0.5-0.2,0.8-0.3,1.1h3.9c0.2,0,0.3,0.1,0.3,0.3v3.4c0,0.2-0.1,0.3-0.3,0.3H116
		c-0.1,0-0.1,0-0.2-0.1c-0.1-0.1-0.1-0.1-0.1-0.2v-1.6h-2.7c-0.4,1.1-0.8,2-1.3,2.9h1.6c0-0.1-0.2-0.4-0.4-0.8l-0.3-0.5
		c0,0,0,0,0-0.1c0-0.1,0.1-0.2,0.2-0.3l1.5-0.3h0.1c0.2,0,0.3,0.1,0.4,0.2c0.3,0.5,0.5,1.1,0.7,1.7h2.1c0.2,0,0.3,0.1,0.3,0.3v1.4
		c0,0.2-0.1,0.3-0.3,0.3h-2.5v1.2h2.1c0.2,0,0.3,0.1,0.3,0.3v1.2c0,0.2-0.1,0.3-0.3,0.3h-2.1v1.1h2.1c0.2,0,0.3,0.1,0.3,0.3v1.3
		c0,0.2-0.1,0.3-0.3,0.3h-2.1v1.3h2.8c0.2,0,0.3,0.1,0.3,0.3v1.5c0,0.2-0.1,0.3-0.3,0.3h-9.3C108.5,46.4,108.4,46.3,108.4,46.1z
		 M104.8,43.4v-6h-1.3v6H104.8z M110.6,32.2h-1.3v1.7c0,0.2-0.1,0.3-0.3,0.3h-1.6c-0.2,0-0.3-0.1-0.3-0.3v-2.3c-0.1,0-0.1,0-0.1,0
		h-2.3c-0.2,1-0.5,2.2-0.9,3.5h2.9c0.2,0,0.3,0.1,0.3,0.3v2.1C108.4,36.3,109.7,34.5,110.6,32.2z M113,38.3v-1.2h-2.2v1.2H113z
		 M113,41.3v-1.1h-2.2v1.1H113z M113,44.4v-1.3h-2.2v1.3H113z"/>
	<path class="st0" d="M120.2,45.7v-1.2c0-0.2,0.1-0.3,0.3-0.3h2.5v-4.1h-1.8c-0.2,0-0.3-0.1-0.3-0.3V39l-0.7-0.2
		c-0.1,0-0.2-0.1-0.2-0.2c0-0.1,0-0.1,0.1-0.2c0.6-0.8,0.9-1.8,0.9-3l0-1.3c0-0.2,0.1-0.3,0.3-0.3h7.6c0.2,0,0.3,0.1,0.3,0.3v2.8
		c0.7,0,1.6-0.2,2.4-0.4c-0.3-0.3-0.6-0.5-0.9-0.9c-0.3-0.3-0.5-0.7-0.7-1h-0.3c-0.2,0-0.3-0.1-0.3-0.3v-1c0-0.2,0.1-0.3,0.3-0.3
		h0.8l-1.3-0.7c-0.1,0-0.1-0.1-0.1-0.2c0-0.1,0.1-0.1,0.2-0.2c0.5-0.3,0.8-0.7,1-1.1c0.2-0.4,0.3-1,0.3-1.6c0-0.2,0.1-0.3,0.3-0.3
		h4.9c0.2,0,0.3,0.1,0.3,0.3v1.3c0,0.2,0,0.3,0.1,0.3c0,0.1,0.1,0.1,0.3,0.1l0.7,0c0.2,0,0.4,0,0.6,0h0c0.2,0,0.2,0.1,0.2,0.3v1
		c0,0.2-0.1,0.3-0.3,0.3c-0.3,0-0.7,0.1-1.2,0.1c-0.6,0-1,0-1.3-0.1c-0.4-0.1-0.7-0.2-0.9-0.3c-0.2-0.2-0.2-0.4-0.2-0.8v-0.8h-1.5
		c-0.1,1.1-0.5,1.9-1.3,2.4h5.9c0.2,0,0.3,0.1,0.3,0.3l0,1c0,0.1,0,0.2-0.1,0.3c-0.4,0.7-1,1.3-1.7,1.8c0.8,0.2,1.7,0.3,2.5,0.3
		c0.2,0,0.2,0.1,0.2,0.2c0,0.1,0,0.1,0,0.1l-0.5,1.2c-0.1,0.2-0.2,0.2-0.3,0.2c-1.3-0.2-2.7-0.5-3.9-1c-1.3,0.5-2.7,0.9-4,1h0
		c-0.1,0-0.2-0.1-0.2-0.2l-0.4-0.9h-6.2c0,0.3-0.2,0.7-0.3,1.1h15.1c0.2,0,0.3,0.1,0.3,0.3v1.1c0,0.2-0.1,0.3-0.3,0.3h-2v4.1h2.5
		c0.2,0,0.3,0.1,0.3,0.3v1.2c0,0.2-0.1,0.3-0.3,0.3h-2.5v0.5c0,0.2-0.1,0.3-0.3,0.3h-1.8c-0.2,0-0.3-0.1-0.3-0.3V46h-12.6
		C120.3,46,120.2,45.9,120.2,45.7z M120.5,30.7v-1c0-0.2,0.1-0.3,0.3-0.3h3.2v-0.6c0-0.2,0.1-0.3,0.3-0.3h1.7c0.2,0,0.3,0.1,0.3,0.3
		v0.6h2.9c0.2,0,0.3,0.1,0.3,0.3v1c0,0.2-0.1,0.3-0.3,0.3h-2.9v0.8h2.5c0.2,0,0.3,0.1,0.3,0.3v0.8c0,0.2-0.1,0.3-0.3,0.3h-7.4
		c-0.2,0-0.3-0.1-0.3-0.3V32c0-0.2,0.1-0.3,0.3-0.3h2.7V31h-3.2C120.6,31,120.5,30.9,120.5,30.7z M122.9,35.1l0,1.1h1.4v-1.1H122.9z
		 M125.3,40.2v0.6h7.8v-0.6H125.3z M125.3,41.9v0.6h7.8v-0.6H125.3z M133.1,44.3v-0.6h-7.8v0.6H133.1z M125.9,35.1v1.1h1.3v-1.1
		H125.9z M133.5,35.7c0.8-0.4,1.3-0.8,1.5-1.2h-3C132.4,35,132.9,35.4,133.5,35.7z"/>
	<path class="st0" d="M140,32.5v-1.6c0-0.2,0.1-0.3,0.3-0.3h2.1c-0.2-0.4-0.4-0.8-0.7-1.3l0-0.2c0-0.1,0.1-0.2,0.2-0.2l1.7-0.4
		c0.1,0,0.2,0,0.2,0c0.1,0,0.2,0.1,0.3,0.2c0.2,0.5,0.5,1.2,0.8,1.9h1.7c0.2,0,0.3,0.1,0.3,0.3v1.6c0,0.2-0.1,0.3-0.3,0.3h-6.2
		C140.1,32.8,140,32.7,140,32.5z M140.6,46.1v-5.8c0-0.2,0.1-0.3,0.3-0.3h5.3c0.2,0,0.3,0.1,0.3,0.3v5.8c0,0.2-0.1,0.3-0.3,0.3h-5.3
		C140.7,46.4,140.6,46.3,140.6,46.1z M140.7,35.6v-1.4c0-0.2,0.1-0.3,0.3-0.3h5c0.2,0,0.3,0.1,0.3,0.3v1.4c0,0.2-0.1,0.3-0.3,0.3h-5
		C140.8,35.9,140.7,35.8,140.7,35.6z M140.7,38.7v-1.4c0-0.2,0.1-0.3,0.3-0.3h5c0.2,0,0.3,0.1,0.3,0.3v1.4c0,0.2-0.1,0.3-0.3,0.3h-5
		C140.8,39,140.7,38.9,140.7,38.7z M144.4,44.3v-2.3h-1.8v2.3H144.4z M154.1,46.5l-0.6-1.7c0,0,0-0.1,0-0.1c0-0.1,0.1-0.2,0.2-0.2
		l0.6,0c0.4,0,0.7,0,0.9-0.1s0.3-0.2,0.4-0.3c0.1-0.1,0.1-0.3,0.1-0.6V31.2h-6.1v6.5c0,1.7-0.1,3.3-0.2,4.8
		c-0.1,1.5-0.4,2.8-0.8,3.9c0,0.1-0.1,0.2-0.2,0.2l-0.2,0l-1.6-0.8c-0.2-0.1-0.2-0.2-0.1-0.4c0.4-1,0.6-2.2,0.7-3.6
		c0.1-1.4,0.2-2.9,0.2-4.5v-7.9c0-0.2,0.1-0.3,0.3-0.3h9.9c0.2,0,0.3,0.1,0.3,0.3v14.3c0,0.8-0.1,1.4-0.3,1.8c-0.2,0.4-0.5,0.8-1,1
		c-0.5,0.2-1.1,0.3-2,0.3h-0.3C154.2,46.7,154.1,46.6,154.1,46.5z M150.1,37.5v-1.4c0-0.2,0.1-0.3,0.3-0.3h1.4v-1.2h-1.3
		c-0.2,0-0.3-0.1-0.3-0.3v-1.3c0-0.2,0.1-0.3,0.3-0.3h1.3v-0.9c0-0.2,0.1-0.3,0.3-0.3h1.3c0.2,0,0.3,0.1,0.3,0.3v0.9h1.3
		c0.2,0,0.3,0.1,0.3,0.3v1.3c0,0.2-0.1,0.3-0.3,0.3h-1.3v1.2h1.4c0.2,0,0.3,0.1,0.3,0.3v1.4c0,0.2-0.1,0.3-0.3,0.3h-4.6
		C150.2,37.8,150.1,37.7,150.1,37.5z M150.1,43.9v-5c0-0.2,0.1-0.3,0.3-0.3h4.4c0.2,0,0.3,0.1,0.3,0.3v5c0,0.2-0.1,0.3-0.3,0.3h-4.4
		C150.2,44.2,150.1,44.1,150.1,43.9z M153.4,42.4v-2h-1.5v2H153.4z"/>
	<path class="st0" d="M167.4,40.6c-0.5-0.3-0.9-0.7-1.2-1.2c-0.3-0.5-0.5-1.1-0.5-1.7c0-0.6,0.2-1.2,0.5-1.7
		c0.3-0.5,0.7-0.9,1.2-1.2c0.5-0.3,1.1-0.5,1.7-0.5s1.2,0.2,1.7,0.5c0.5,0.3,0.9,0.7,1.2,1.2s0.5,1.1,0.5,1.7s-0.2,1.2-0.5,1.7
		c-0.3,0.5-0.7,0.9-1.2,1.2c-0.5,0.3-1.1,0.5-1.7,0.5S168,40.9,167.4,40.6z M170.5,39.1c0.4-0.4,0.6-0.8,0.6-1.4
		c0-0.5-0.2-1-0.6-1.4c-0.4-0.4-0.8-0.6-1.4-0.6c-0.5,0-1,0.2-1.4,0.6c-0.4,0.4-0.6,0.8-0.6,1.4s0.2,1,0.6,1.4
		c0.4,0.4,0.8,0.6,1.4,0.6C169.7,39.6,170.1,39.5,170.5,39.1z"/>
</g>
</svg>
