<svg xmlns="http://www.w3.org/2000/svg" xml:space="preserve" width="379.7" height="46.8" style="overflow:visible" viewBox="0 0 379.7 46.8"><path fill="#231815" d="M0 4.5V2.9q0-.3.3-.3h2.2c-.1-.4-.3-.8-.5-1.2-.1-.1-.1-.2-.1-.2 0-.1.1-.2.2-.2L3.8.6H4c.1 0 .2.1.3.2.2.4.4 1.1.7 1.9h1.9q.3 0 .3.3v1.6q0 .3-.3.3H.3c-.2-.1-.3-.2-.3-.4m.5 13.6v-5.8q0-.3.3-.3h5.7q.3 0 .3.3v5.8q0 .3-.3.3H.9c-.3 0-.4-.1-.4-.3M.7 7.6V6.2q0-.3.3-.3h5.3q.3 0 .3.3v1.4q0 .3-.3.3H1.1c-.2 0-.4-.1-.4-.3m0 3.1V9.3c0-.2.2-.3.4-.3h5.3q.3 0 .3.3v1.4q0 .3-.3.3H1.1c-.2 0-.4-.1-.4-.3m4 5.6V14h-2v2.3zm12.7-6.8v6.4c0 .7-.1 1.2-.3 1.6s-.5.7-1 .9-1.3.3-2.3.3h-.3c-.1 0-.2 0-.2-.1s-.1-.1-.1-.2l-.5-1.4v-.1c0-.1 0-.1.1-.2s.1-.1.2-.1h.5c.4 0 .8 0 1-.1s.4-.2.4-.3.1-.3.1-.5v-.1h-4.7c-.2 1.1-.5 2.2-1.1 3.1 0 .1-.1.1-.2.1h-.1l-1.8-.9c-.1 0-.1-.1-.1-.2 0 0 0-.1.1-.2.4-.7.7-1.5.8-2.3s.1-1.8.1-3V9.5q0-.3.3-.3h8.8q.3 0 .3.3M8 5.5v-.9q0-.3.3-.3h3.2v-.8H7.7q-.3 0-.3-.3V2q0-.3.3-.3h3.7V.8q0-.3.3-.3h1.9q.3 0 .3.3v.9h3.8q.3 0 .3.3v1.2q0 .3-.3.3h-3.8v.8h3.3q.3 0 .3.3v.9q0 .3-.3.3h-3.3v.9H18q.3 0 .3.3v1.2q0 .3-.3.3H7.5q-.3 0-.3-.3V7q0-.3.3-.3h3.9v-.9H8.2c-.1 0-.2-.1-.2-.3m6.9 8.8v-.9h-4.5v.9zm0-2.4v-1h-4.5v1zm8.2 6.6V12c-.7.6-1.3 1-1.7 1.3-.1 0-.1.1-.2.1s-.2-.1-.2-.2l-1.1-1.9v-.2c0-.1.1-.2.2-.2 1.1-.6 2.1-1.4 3-2.3s1.7-2 2.4-3.1h-4.6q-.3 0-.3-.3v-2q0-.3.3-.3h5.8q.45-1.05.6-2.1c0-.1.1-.2.2-.2h.2l2.3.2c.1 0 .2.1.2.2v.1c-.2.7-.4 1.3-.6 1.9h8q.3 0 .3.3v1.9q0 .3-.3.3h-9.1c-.7 1.4-1.7 2.8-2.8 4.1v9q0 .3-.3.3h-2c-.2-.1-.3-.2-.3-.4m3.4-.6v-1.8q0-.3.3-.3h4V12h-3.5q-.3 0-.3-.3V9.9q0-.3.3-.3h3.5v-3q0-.3.3-.3h2q.3 0 .3.3v3H37q.3 0 .3.3v1.8q0 .3-.3.3h-3.6v3.8h4.3q.3 0 .3.3v1.8q0 .3-.3.3H26.8q-.3 0-.3-.3m15 .8-1.5-.8-.2-.2v-.2c.4-.7.6-1.6.9-2.6.2-1 .3-2 .4-3 0-.1 0-.2.1-.2h.2l1.6.2c.1 0 .2.1.2.1v.2c0 .4-.1 1-.2 1.7.3.4.6.8 1.1 1.1v-4h-3.4q-.3 0-.3-.3V9.3q0-.3.3-.3h8q.3 0 .3.3v1.4q0 .3-.3.3h-2.4v1.4h2q.3 0 .3.3V14q0 .3-.3.3h-2V16c.5.1 1 .2 1.3.2.7 0 1.7.1 3 .1 2.3 0 4.4-.1 6.3-.2-1.2-.5-2.2-1.1-2.8-1.8-.1-.1-.1-.1-.1-.2s0-.1.1-.2l.8-1h-2.7l.8 1v.1c0 .1 0 .1-.1.2-.4.4-.9.8-1.5 1.1s-1.2.6-1.8.8h-.1c-.1 0-.2-.1-.3-.2l-.8-1.4v-.2c0-.1.1-.2.2-.2 1.2-.3 2.2-.7 3-1.3h-1.7q-.3 0-.3-.3V4.4q0-.3.3-.3h1.7L52 3h-2.7q-.3 0-.3-.3V1.4q0-.3.3-.3h8.3q.3 0 .3.3v1.4c.1.1 0 .2-.2.2h-3.2c-.2.5-.4.8-.5 1.1h3.1q.3 0 .3.3v8.2q0 .3-.3.3h-1.8c.8.6 1.7 1 2.8 1.3.1 0 .2.1.2.2v.2l-.8 1.4.7-.1c.1 0 .2.1.2.2v.1l-.6 1.8c-.1.1-.1.2-.2.2-1.1.1-3 .2-5.7.2-1.8 0-3.3 0-4.4-.1s-2.1-.3-2.8-.6-1.4-.9-1.9-1.5q-.3 1.35-.9 2.4c0 .1-.1.2-.2.2s-.1-.1-.2-.1m-.6-10.9V1.4q0-.3.3-.3h6.9q.3 0 .3.3v6.4q0 .3-.3.3h-6.9q-.3 0-.3-.3m5.4-3.9V2.8h-3.2v1.1zm0 2.6V5.4h-3.2v1.1zm8.8 0v-1h-3.3v1zm0 2.5V8h-3.3v1zm0 2.4v-1h-3.3v1zM62 1.2h14.2q.3 0 .3.3V18q0 .3-.3.3H62q-.3 0-.3-.3V1.4c.1-.1.2-.2.3-.2m11.9 2.4h-9.5v2.5h9.5zm0 4.8h-9.5v2.5h9.5zm0 4.8h-9.5v2.7h9.5zm18.6-6v7.9q0 .3-.3.3h-8.8q-.3 0-.3-.3V8c-.6.6-1.1 1.2-1.5 1.5-.1.1-.1.1-.2.1s-.2 0-.2-.1L80 7.4v-.2c0-.1 0-.2.1-.2.9-.8 1.8-1.7 2.5-2.8S83.9 2 84.2.9c.1-.1.1-.2.3-.2h.1l2.2.3c.1 0 .2.1.2.1v.3c-.1.4-.3.9-.5 1.3h11q.3 0 .3.3c0 4.7-.1 8.1-.2 10.2-.1 1.5-.4 2.6-.8 3.4s-1.1 1.4-2 1.8-2.1.5-3.7.5c-.2 0-.4-.1-.4-.2l-.8-2v-.1c0-.1 0-.1.1-.2s.1-.1.2 0h1c1 0 1.7-.1 2.2-.3s.9-.6 1.1-1.1.4-1.2.4-2.2c.1-1.6.1-4.1.1-7.6h-9.8c-.4.7-.8 1.3-1.3 2h8.2c.3-.2.4-.1.4 0m-6.8 2v4H90v-4zm19.3 9.3-.8-2v-.1c0-.1.1-.2.2-.2h1.4c.7 0 1.3 0 1.6-.1s.6-.2.6-.4c.1-.2.1-.4.1-.8v-4h-7.8q-.3 0-.3-.3v-2q0-.3.3-.3h7.8v-2c0-.1.1-.3.2-.3.7-.3 1.5-.7 2.3-1.1.8-.5 1.5-.9 1.9-1.2h-10.4q-.3 0-.3-.3V1.5q0-.3.3-.3h14q.3 0 .3.3v1.9c0 .1 0 .3-.1.3-.6.6-1.4 1.3-2.4 2s-2.1 1.3-3.1 1.8v.9h7q.3 0 .3.3v2q0 .3-.3.3h-7v4.6c0 .8-.1 1.4-.4 1.8-.2.4-.7.8-1.4 1s-1.8.3-3.1.3h-.7c-.1 0-.2 0-.2-.2m15.8-4.9V3.9q0-.3.3-.3h6.6V.8q0-.3.3-.3h2.2q.3 0 .3.3v2.8h6.7q.3 0 .3.3v9.7q0 .3-.3.3h-6.7v4.6q0 .3-.3.3H128q-.3 0-.3-.3v-4.6h-6.6q-.3 0-.3-.3m2.6-7.5v5.3h4.3V6.1zm7.1 0v5.3h4.4V6.1zm16.7 8.2v-.2l1-3.1q-.45-.3-.6-.6c-.15-.3-.2-.5-.2-.9 0-.5.2-.9.5-1.2s.8-.5 1.3-.5.9.2 1.3.5c.3.3.5.7.5 1.2 0 .3-.1.6-.2 1s-.4 1-.8 1.9l-.9 1.9c-.1.1-.2.2-.3.2h-1.3c-.2 0-.3-.1-.3-.2m12.6 3.8V18c.2-.4.4-.9.5-1.6l.3-1.8c0-.2.1-.3.3-.2l1.4.2q.3 0 .3.3c0 .6-.1 1.2-.2 1.9s-.3 1.2-.5 1.8c0 .1-.1.2-.2.2h-.2l-1.4-.4c-.3-.1-.3-.2-.3-.3m.6-6.2h3.4V11h-2.9q-.3 0-.3-.3V9.4q0-.3.3-.3h2.9v-.8h-3.1q-.3 0-.3-.3V1.3q0-.3.3-.3h8.3q.3 0 .3.3V8q0 .3-.3.3h-3.1v.9h2.9q.3 0 .3.3v1.3q0 .3-.3.3h-2.9v.9h3.3q.3 0 .3.3v1.3q0 .3-.3.3h-8.7q-.3 0-.3-.3v-1.3c-.1-.3 0-.4.2-.4m3.5-9.1h-1.8v3.7h1.8zm-1.7 1c0-.1.1-.2.2-.2l.5-.2h.1c.1 0 .2.1.2.2.2.5.4 1.2.5 1.9v.1c0 .1-.1.2-.2.3l-.4.1h-.1c-.1 0-.2-.1-.2-.2-.1-.6-.2-1.2-.4-1.8zm.9 14.6s-.1-.1 0-.2v-1.1c0-.7 0-1.4-.1-2.1q0-.3.3-.3l1.1-.1c.2 0 .3.1.3.2.2 1 .3 2 .3 3.2q0 .3-.3.3l-1.4.2c-.1 0-.1 0-.2-.1m2.6-.5c-.1-1.2-.2-2.1-.4-2.9v-.1c0-.1.1-.2.2-.2l1-.2h.1c.1 0 .2.1.3.2.1.5.3 1 .4 1.6s.2 1 .2 1.2v.1c0 .1-.1.2-.2.3l-1.2.3h-.1q-.3-.15-.3-.3m1.7-15.1h-1.8v3.7h1.8zm-1.3.9c0-.2.1-.3.3-.2l.6.2c.2 0 .2.1.2.3-.1.7-.3 1.4-.5 2 0 .1-.1.1-.1.2h-.2l-.5-.2c-.2-.1-.2-.2-.2-.4.2-.6.3-1.2.4-1.9m1.9 13.6c-.1-1-.4-1.8-.6-2.4v-.1c0-.1.1-.2.2-.2l.9-.3h.1c.1 0 .2.1.2.2.3.8.6 1.6.8 2.4v.1c0 .1 0 .1-.1.1 0 0-.1.1-.2.1l-1 .4h-.1c-.1-.1-.2-.2-.2-.3m1.9.9V9.6q0-.3.3-.3h2.1V.8q0-.3.3-.3h1.9q.3 0 .3.3v3h3.3q.3 0 .3.3V6q0 .3-.3.3h-3.3v3.1h2.7q.3 0 .3.3v8.5q0 .3-.3.3h-7.2c-.3-.1-.4-.2-.4-.3m5.5-6.6h-3.2v4.6h3.2zm10 7.2c-.2 0-.3-.1-.3-.2l-.5-1.1v-.1c0-.1 0-.2.1-.2h1.3c.6 0 1.1 0 1.3-.1s.5-.1.5-.2c.1-.1.2-.3.2-.5h-7.8q-.3 0-.3-.3v-1q0-.3.3-.3h7.8v-.6h-6.7q-.3 0-.3-.3v-.8q0-.3.3-.3h6.7v-.5h-5.5c-.2 0-.3-.1-.3-.2l-.4-1V11c0-.1.1-.2.3-.2h3.3c2.2 0 4.1 0 5.6-.1q2.25-.15 4.2-.3c-.6-.2-1.1-.4-1.7-.7-.5.2-1 .4-1.8.5s-1.3.3-1.7.3c-.1 0-.2-.1-.2-.2l-.6-1.2V9c0-.1.1-.2.3-.2 1.1-.1 1.8-.1 2.3-.3-.6-.5-1.1-1.2-1.5-2h-.5q-.3 0-.3-.3v-1q0-.3.3-.3h.7l-1.2-.7c-.1-.1-.1-.1-.1-.2s0-.1.1-.2q1.2-.75 1.2-2.4v-.2q0-.3.3-.3h4.9q.3 0 .3.3v1.5c0 .2.1.3.3.4h1.6c.1 0 .1.1.1.3v1q0 .15-.3.3c-.4.1-.9.1-1.5.1h-1q-.6 0-.9-.3t-.3-.9v-1h-1.6c0 .5-.1.9-.4 1.4s-.6.8-1 1.1h6q.3 0 .3.3v1c0 .1 0 .2-.1.3-.5.8-1.2 1.5-1.9 2 .8.2 1.8.4 2.8.4.2 0 .2.1.2.2v.1l-.5 1.3c-.1.1-.1.2-.2.2h-.1c-.6-.1-1.2-.2-1.9-.4l.1.1.6.8c.1.1.1.1.1.2s-.1.2-.2.2c-1.7.2-3.5.3-5.6.3v.6h6.3q.3 0 .3.3v.8q0 .3-.3.3h-6.3v.6h7.3q.3 0 .3.3v1q0 .3-.3.3h-7.3q0 1.05-.3 1.5c-.3.45-.6.6-1.2.7s-1.5.2-2.7.2zm-4.8-8.6V8.8q0-.3.3-.3h1.2q.3 0 .3.3v.4h1.5V8.1h-3.5q-.3 0-.3-.3v-.6q0-.3.3-.3h3.5v-.4h-3q-.3 0-.3-.3v-3q0-.3.3-.3h3v-.4h-3.4q-.3 0-.3-.3v-.7q0-.3.3-.3h3.4V.8q0-.3.3-.3h1.4q.3 0 .3.3v.4h3.2q.3 0 .3.3v.8q0 .3-.3.3h-3.2v.5h2.9q.3 0 .3.3v3.1q0 .3-.3.3h-2.9V7h3.3q.3 0 .3.3v.6q0 .3-.3.3h-3.3v1.1h1.5v-.5q0-.3.3-.3h1.1q.3 0 .3.3v1.4q0 .3-.3.3h-7.9q-.3 0-.3-.3m3.4-5.9v-.5h-1.6v.5zm0 1.3v-.5h-1.6v.5zm3.3-1.3v-.5h-1.6v.5zm0 1.3v-.5h-1.6v.5zm6.2 2.3c.6-.4 1.1-.8 1.5-1.3h-2.8c.3.5.7 1 1.3 1.3m6.4 9.8v-.2c.4-1 .6-2.2.8-3.6q0-.3.3-.3h.2l1.4.2q.3 0 .3.3c0 .7-.1 1.4-.2 2.2s-.2 1.4-.4 1.9c0 .1 0 .1-.1.2 0 0-.1.1-.2.1h-.1l-1.7-.4c-.2-.2-.3-.3-.3-.4m1-5.1-.4-1.2c0-.1-.1-.2-.1-.3s.1-.3.2-.4c.8-.7 1.7-1.7 2.6-3-1 .2-1.9.4-2.5.4-.1 0-.1 0-.2-.1 0 0-.1-.1-.1-.2l-.4-1.3c0-.1-.1-.3-.1-.3 0-.1 0-.2.1-.3.4-.5.9-1.4 1.5-2.5s1-2.1 1.3-2.9c.1-.1.1-.2.3-.2h.2l1.7.7c.1.1.2.1.2.2v.1c-.3.6-.7 1.4-1.2 2.3s-.9 1.6-1.3 2.1l1.8-.4c.5-.9.9-1.6 1.2-2.2 0-.1.1-.1.2-.1h.2l1.7.8c.1 0 .1.1.1.3 0 .1 0 .1-.1.2-.6 1-1.3 2.1-2.2 3.3-.8 1.2-1.5 2.1-2.1 2.8.9-.2 1.6-.4 2.1-.5l-.3-.9v-.1c0-.1.1-.2.2-.2l1.3-.4h.1c.1 0 .2.1.3.2.3.5.5 1.1.7 1.8s.4 1.2.5 1.7v.1c0 .1-.1.2-.2.2l-1.5.5h-.1c-.1 0-.2-.1-.2-.2l-.1-.6c-2 .5-3.7.9-5.1 1.1h-.1c-.1-.2-.2-.3-.2-.5m3 5c0-.5-.1-1.1-.2-1.8-.1-.6-.2-1.2-.4-1.8v-.1c0-.1 0-.2.1-.2l1.5-.3h.1c.1 0 .2.1.2.2.1.3.3.8.4 1.5.2.7.3 1.3.4 1.9v.2c0 .1-.1.2-.2.2l-1.6.4h-.2c0 .1 0 0-.1-.2m4.3.3v-1.1l-.7.2h-.1c-.1 0-.2-.1-.2-.2-.3-1.2-.6-2.2-1-2.9v-.1c0-.1 0-.1.1-.2l1.3-.4h.1c.1 0 .2 0 .2.1.3.5.7 1.4 1 2.5h2.9V4.2h-3.1q-.3 0-.3-.3V2q0-.3.3-.3h8.8q.3 0 .3.3v1.9q0 .3-.3.3h-3.1v11.5h3.6q.3 0 .3.3v1.9q0 .3-.3.3h-9.6c-.1 0-.2-.1-.2-.3m16.9.4c-.8 0-1.5-.1-2-.3s-.8-.5-1-1c-.2-.4-.3-1-.3-1.7V7.5l-.8.4h-.1c-.1 0-.2-.1-.2-.2l-.8-2v-.1c0-.1.1-.2.2-.2 1.4-.5 2.7-1.1 3.9-2 1.2-.8 2.1-1.8 2.7-2.7.1-.1.1-.2.3-.2h.1l2.3.3c.1 0 .2.1.2.2s0 .1-.1.2l-.6.8h5.9q.3 0 .3.3v1.4c0 .1 0 .2-.1.3-.5.7-1.2 1.3-2 2h3.9q.3 0 .3.3v6.2q0 .3-.3.3h-12.3v2c0 .4.1.6.2.8.2.2.4.3.9.3 1.2 0 2.5.1 4 .1s2.8 0 4-.1c.5 0 .9-.1 1.2-.2s.5-.3.6-.6q.15-.45.3-1.5c0-.2.1-.3.3-.2l2.1.7c.1.1.2.1.2.3v.1c-.2 1.1-.4 1.9-.7 2.4s-.7.9-1.3 1.1-1.4.3-2.5.3c-1.4 0-2.9.1-4.3.1-1.6-.1-3.1-.1-4.5-.1m6.4-14.1h-4.7c-.8.7-1.6 1.3-2.4 1.9h4.9c1-.7 1.7-1.3 2.2-1.9m-3.3 6.4V8.3h-3.7v2.3zm6.2 0V8.3h-3.7v2.3zm5.8 7.4v-1.8q0-.3.3-.3h7.2v-2.3h-5.9q-.3 0-.3-.3v-1.7q0-.3.3-.3h14.6q.3 0 .3.3v1.7q0 .3-.3.3h-6v2.3h7.3q.3 0 .3.3V18q0 .3-.3.3h-17.3c-.1 0-.2-.1-.2-.3m.3-11.3V2.4q0-.3.3-.3h6.9c-.1-.3-.2-.7-.4-1.1V.9c0-.1 0-.1.1-.2 0 0 .1-.1.2-.1l2.3-.2c.1 0 .2.1.3.2.1.3.3.8.5 1.5h6.9q.3 0 .3.3v4.3q0 .3-.3.3h-2q-.3 0-.3-.3V4.5h-2.9v2.7c0 .3 0 .5.1.6s.2.2.5.2h2.3c.9 0 1.4-.1 1.7-.1h.1c.1 0 .1.1.1.3V10q0 .3-.3.3c-.9.1-1.7.1-2.6.1h-2.1c-.9 0-1.5-.2-1.8-.5-.4-.3-.6-.9-.6-1.7V4.5H243v2.2q0 .3-.3.3h-1.9q-.3 0-.3-.3m1.7 4.1-1-1.7V9c0-.1.1-.2.2-.2 1.4-.2 2.5-.6 3.2-1.2s1.2-1.4 1.4-2.5c0-.1.1-.2.2-.2h.1l1.9.5c.1 0 .2.1.2.2v.1c-.4 1.9-1.2 3.2-2.5 3.9-1.2.8-2.4 1.3-3.5 1.5h-.1c.1-.2 0-.2-.1-.3m18.4-5.1V3.9q0-.3.3-.3h1.9V.8q0-.3.3-.3h1.9q.3 0 .3.3v2.8h1.4q.3 0 .3.3v.7c1.1-1 1.9-2.3 2.4-3.8.1-.1.2-.2.3-.2h.1l1.9.2c.1 0 .2 0 .2.1v.2c-.1.2-.2.4-.3.8h5.2q.3 0 .3.3v1.7c0 .1 0 .2-.1.3-.6 1.4-1.4 2.7-2.5 3.8 1.1.6 2.4 1 3.9 1.3.1 0 .2.1.2.2v.1l-.9 1.9c-.1.1-.2.2-.3.2h-.1l-.3-.1V18q0 .3-.3.3H268q-.3 0-.3-.3v-6.4c-.1.1-.2.1-.3.1h-.1c-.1 0-.2-.1-.3-.2l-.3-.7-.4.6c-.1.1-.1.1-.2.1s-.1 0-.2-.1c-.3-.6-.6-1.3-.9-2.2l.1 9.1q0 .3-.3.3h-1.9q-.3 0-.3-.3l.1-8.5q-.6 2.25-1.5 3.9c-.1.1-.1.2-.2.2s-.1-.1-.2-.2l-1.1-1.8c0-.1-.1-.1-.1-.2s0-.1.1-.2q.75-1.2 1.5-2.7t1.2-3h-1.7c0 .2-.1.1-.1-.1m6.7 3.6c1.2-.3 2.2-.7 3.2-1.3-.6-.6-1.2-1.3-1.6-2l-1 1c-.1 0-.1.1-.2.1s-.2 0-.2-.1l-.7-1h-1.4c.4 1.2 1.1 2.3 1.9 3.3m5.1.4c-1 .7-2.3 1.3-3.7 1.8h7.3q-1.95-.75-3.6-1.8m2 3.8h-4.2v2.9h4.2zm-2-6.8c.8-.8 1.5-1.7 1.9-2.6h-3.8c.4 1 1 1.9 1.9 2.6m14.8 7.6v-.2l1-3.1q-.45-.3-.6-.6c-.15-.3-.2-.5-.2-.9 0-.5.2-.9.5-1.2s.8-.5 1.3-.5.9.2 1.3.5c.3.3.5.7.5 1.2 0 .3-.1.6-.2 1s-.4 1-.8 1.9l-.9 1.9c-.1.1-.2.2-.3.2h-1.3c-.2 0-.3-.1-.3-.2m12.7 2.5c0-.1 0-.1.1-.2 1.5-1.2 2.5-2.8 3-4.6h-2.1q-.3 0-.3-.3v-1.4c0-.2 0-.3.1-.4.6-.6 1.1-1.4 1.7-2.2h-1.9c-.1 0-.1 0-.2-.1 0 0-.1-.1-.1-.2V5.8c0-.1 0-.1.1-.2 0 0 .1-.1.2-.1h4.1c.1 0 .2 0 .2.1s.1.1.1.2v1.6c-.1.2-.3.6-.6 1.1s-.7 1-1.1 1.5h1.7q.3 0 .3.3v1.4c-.1.8-.3 1.6-.7 2.5.5.8 1.1 1.3 1.9 1.6l-.8-1.4v-.2c0-.1.1-.2.2-.2.6-.1 1.2-.2 1.9-.3.6-.1 1.2-.3 1.6-.5h-3.5q-.3 0-.3-.3v-1.3q0-.3.3-.3h2.2v-.9h-1.9q-.3 0-.3-.3V9q0-.3.3-.3h1.9v-.6q0-.3.3-.3h1.7q.3 0 .3.3v.6h2.6v-.6q0-.3.3-.3h1.7q.3 0 .3.3v.6h2q.3 0 .3.3v1.2q0 .3-.3.3h-2v.9h2.5q.3 0 .3.3V13q0 .3-.3.3h-3.6c1 .4 2.2.7 3.5.8.1 0 .2.1.2.2v.2l-.7 1.3c-.1.1-.2.2-.4.2-.7-.1-1.5-.3-2.2-.6-.8-.2-1.4-.5-2.1-.8-.1 0-.2-.1-.2-.2 0 0 0-.1.1-.2l.6-.9h-2.6l.7.9c.1.1.1.1.1.2s0 .1-.1.2c-.5.3-1.1.5-1.8.8s-1.5.5-2.3.6c.4.1.8.2 1.2.2.8.1 1.9.1 3.3.1 2.4 0 4.7-.1 6.9-.4.1 0 .2.1.2.2v.1l-.6 1.8c-.1.1-.2.2-.4.2-1.8.2-3.8.3-6.2.3-1.4 0-2.5 0-3.3-.1q-1.5-.15-2.7-.6c-.7-.3-1.4-.8-2-1.5-.5.8-1.1 1.5-1.6 2-.1.1-.2.1-.3.1s-.1 0-.2-.1l-1.3-1.3zm3-12.1c-.3-.5-.7-1-1-1.4s-.8-.8-1.3-1.2c-.1-.1-.1-.1-.1-.2s0-.1.1-.2L302 .6c.1 0 .1-.1.2-.1s.1 0 .2.1c.4.3.8.7 1.2 1.1s.8 1 1.1 1.5c0 .1.1.1.1.2s0 .2-.1.2l-1.4 1.1-.1.1c-.1.1-.2 0-.3-.1m2.9 1.3V1.2q0-.3.3-.3h4.8q.3 0 .3.3v3.6q0 .3-.3.3h-3.1v.4c0 .1 0 .2.1.2.1.1.2.1.4.1h.6c.7 0 1.4-.1 2-.2h.1c.1 0 .2.1.2.3V7c0 .1-.1.2-.2.3q-1.35.3-2.7.3h-1.2c-.9-.1-1.3-.6-1.3-1.6m3.6-2.4v-.9h-1.6v.9zm.9 6.9v.9h2.6v-.9zm3.1-3c-.6-.1-1-.2-1.2-.5s-.4-.7-.4-1.2V1.2q0-.3.3-.3h5q.3 0 .3.3V5s-.1.1-.2.1h-3.3v.3c0 .1 0 .2.1.3 0 .1.2.1.3.1h.8c.7 0 1.5 0 2.3-.1.2 0 .2.1.2.3v1.2q0 .3-.3.3c-.6.1-1.3.1-2.1.1-.7-.1-1.3-.1-1.8-.1m2.1-3.9v-.9h-1.7v.9zm4.6 2.3V4.1q0-.3.3-.3h1.6v-3q0-.3.3-.3h1.9q.3 0 .3.3v2.9h1q.3 0 .3.3v1.8q0 .3-.3.3h-1v3l.8-.3h.1c.1 0 .2.1.2.3V11c0 .2-.1.3-.2.3l-.9.3v3.5c0 1-.1 1.7-.3 2.2s-.5.8-1 1-1.2.3-2.2.4c-.2 0-.3-.1-.3-.2l-.6-2v-.1c0-.2.1-.2.3-.2.5 0 .8 0 1.1-.1.2-.1.4-.2.5-.4s.1-.5.1-.8v-2.6l-.8.2-.7.2h-.1c-.1 0-.2-.1-.2-.3l-.2-1.9v-.1c0-.1.1-.2.2-.3.7-.1 1.3-.3 1.8-.4V6.2h-1.6c-.3 0-.4-.1-.4-.3m6 3.6h4.7v-.9H327q-.3 0-.3-.3V7.1q0-.3.3-.3h3.8v-.9h-4.3q-.3 0-.3-.3V1.4q0-.3.3-.3h11q.3 0 .3.3v4.3q0 .3-.3.3h-4.3v.9h3.9q.3 0 .3.3v1.2q0 .3-.3.3h-3.9v.9h4.7q.3 0 .3.3v1.2q0 .3-.3.3h-2c-.1.5-.3 1-.5 1.4h1.6q.3 0 .3.3v.9q0 .3-.3.3h-3.8v1h4.7q.3 0 .3.3v1.2q0 .3-.3.3h-4.7v1.4q0 .3-.3.3H331q-.3 0-.3-.3v-1.4h-4.6q-.3 0-.3-.3v-1.2q0-.3.3-.3h4.6v-1H327q-.3 0-.3-.3v-1.2q0-.3.3-.3h1.5c-.1-.4-.3-.8-.5-1.4h-1.9q-.3 0-.3-.3v-1q0-.3.3-.3m3.5-6.8h-1.3v1.6h1.3zm1.2 9.9h2.3c.2-.5.3-.9.4-1.4h-3.2c.3.4.4.9.5 1.4m1.8-9.9h-1.2v1.6h1.2zm3.1 0h-1.3v1.6h1.3zm6.8 9V.3q0-.3.3-.3h5.4q.3 0 .3.3v2q0 .3-.3.3h-2.9v9.1q0 .3-.3.3h-2.2q-.3 0-.3-.3m16.6 5.7c-.1 0-.1 0-.2-.1-.5-.6-1.1-1.2-1.8-1.9-.5.6-1 1.2-1.6 1.8s-1.2 1.1-1.9 1.5c-.1 0-.1.1-.2.1s-.1 0-.2-.1l-1.3-1.8c-.1-.1-.1-.1-.1-.2s.1-.2.2-.2q.9-.45 1.8-1.2c.6-.5 1-.9 1.5-1.5-.8-.6-1.6-1.2-2.5-1.8-.1-.1-.2-.2-.1-.4.5-1.6.8-3.5 1.1-5.7h-1.2q-.3 0-.3-.3V3.8q0-.3.3-.3h1.5c.1-1.1.1-2 .1-2.7q0-.3.3-.3h1.9q.3 0 .3.3c0 .9-.1 1.8-.2 2.7h3.4q.3 0 .3.3 0 3.15-.3 5.4c-.2 1.5-.6 2.9-1.2 4.1.8.7 1.4 1.3 2 1.9.1.1.1.1.1.2s0 .1-.1.2l-1.2 1.7c-.3.1-.3.1-.4.1m-2.6-5.7c.3-.7.6-1.6.8-2.6s.3-2.1.3-3.2H356q-.45 3.3-.9 4.8c.4.3.9.6 1.4 1m4-3.2h3.8V6.3c0-.1.1-.2.2-.3.5-.3.9-.6 1.3-1s.7-.8.9-1.1H361q-.3 0-.3-.3v-2q0-.3.3-.3h8.4q.3 0 .3.3v1.9c0 .1 0 .2-.1.3-.3.5-.7 1-1.2 1.6s-1 1.1-1.6 1.6v1.6h3.2q.3 0 .3.3v2q0 .3-.3.3h-3.2v4.5c0 .9-.1 1.5-.3 2s-.6.8-1.2 1-1.4.3-2.6.3h-.6c-.2 0-.3-.1-.3-.2l-.7-1.9v-.1c0-.1 0-.1.1-.2h1.2c.6 0 1 0 1.3-.1s.4-.2.5-.4.1-.5.1-.8v-4h-3.8q-.3 0-.3-.3V9c0-.4.1-.5.3-.5m19.2-.8v11.4q0 .3-.3.3H374q-.3 0-.3-.3v-2q0-.3.3-.3h2.9V7.7q0-.3.3-.3h2.2q.3 0 .3.3M5.5 46.8c-.1 0-.3-.1-.3-.2l-.7-1.9v-.1c0-.1.1-.2.3-.2H6c1.1 0 1.8-.1 2.1-.4.1-.1.2-.2.2-.3s.1-.3.1-.5v-1.7h-8q-.3 0-.3-.3v-1.8q0-.3.3-.3h8v-1.4c0-.2.1-.3.2-.3 1.1-.4 1.9-.8 2.5-1.2H3.8q-.3 0-.3-.3v-1.6q0-.3.3-.3h10.7q.3 0 .3.3v1.6c0 .1 0 .2-.1.3-.4.4-1 .9-1.6 1.3-.7.4-1.3.8-2 1.2v.3H18q.3 0 .3.3v1.8q0 .3-.3.3h-7v2c0 .6-.1 1.1-.2 1.5s-.3.7-.6 1-.8.5-1.3.6c-.6.1-1.3.2-2.3.2zM.6 35.1v-4.5q0-.3.3-.3h6.9c-.3-.4-.6-.9-.8-1.3v-.2l.1-.1 2.4-.2h.1c.1 0 .3.1.3.2.2.4.4.9.7 1.6h6.8q.3 0 .3.3v4.5q0 .3-.3.3h-1.9q-.3 0-.3-.3v-2.5H3.1v2.5q0 .3-.3.3h-2c-.1-.1-.2-.2-.2-.3m19.6.2c0-.1 0-.1.1-.2l1.1-1.6c.1-.1.2-.2.4-.1 1.4.6 2.5 1.3 3.4 2 .1.1.1.2.1.2 0 .1 0 .1-.1.2L24 37.5c-.1.1-.1.1-.2.1s-.1 0-.2-.1c-.8-.8-1.9-1.4-3.2-2-.2-.1-.2-.1-.2-.2m0 9.6c0-.1 0-.1.1-.2.5-.8 1.1-1.7 1.6-2.8s1-2.1 1.4-3.1c.1-.1.1-.2.2-.2s.1 0 .2.1l1.7 1c.1.1.2.2.1.3-.4 1-.9 2.1-1.4 3.2s-1 2-1.5 2.8c-.1.1-.1.2-.2.2 0 0-.1 0-.2-.1L20.4 45c-.2 0-.2 0-.2-.1m.5-14.3c0-.1 0-.1.1-.2l1.2-1.5c.1-.1.2-.1.2-.1h.2q.9.3 1.8.9t1.5 1.2c.1.1.1.1.1.2s0 .1-.1.2l-1.3 1.6c-.1.1-.1.1-.2.1s-.1 0-.2-.1c-.4-.4-.9-.7-1.4-1.1-.6-.4-1.1-.7-1.7-1-.1-.1-.2-.1-.2-.2m5.6 9.4v-1.7q0-.3.3-.3h3.8v-3.2H26q-.3 0-.3-.3v-1.8q0-.3.3-.3h6.9c-.6-.3-1.4-.7-2.2-1s-1.6-.6-2.3-.8c-.1 0-.2-.1-.2-.2s0-.1.1-.2l1-1.5c.1-.1.1-.2.2-.2h.1c1.8.5 3.4 1.1 4.7 1.8.1.1.2.1.2.2 0 0 0 .1-.1.2l-1 1.6h4.1q.3 0 .3.3v1.8q0 .3-.3.3H33V38h4q.3 0 .3.3V40q0 .3-.3.3h-4V44h5q.3 0 .3.3V46q0 .3-.3.3H25.5q-.3 0-.3-.3v-1.8q0-.3.3-.3h4.9v-3.7h-3.8c-.2 0-.3-.1-.3-.2m14-5.7h4c-.3-.8-.5-1.5-.8-2.1h-2.1q-.3 0-.3-.3v-1.7q0-.3.3-.3h6.5c-.1-.3-.3-.6-.5-.9v-.1c0-.1.1-.2.2-.2l2.1-.2c.1 0 .2.1.3.2.2.4.4.8.5 1.2h6.3q.3 0 .3.3V32q0 .3-.3.3h-2.1c-.2.7-.4 1.4-.7 2.1h4q.3 0 .3.3v1.7q0 .3-.3.3H40.3q-.3 0-.3-.3v-1.7c0-.3.1-.4.3-.4m1.8 11.8v-8q0-.3.3-.3H56q.3 0 .3.3v8q0 .3-.3.3H42.3c-.1-.1-.2-.2-.2-.3m11.6-6.4h-9.1V41h9.1zm0 3.2h-9.1v1.4h9.1zM47 34.3h4.3c.2-.6.5-1.3.7-2.1h-5.8c.3.7.6 1.4.8 2.1m20.7 11.6H61q-.3 0-.3-.3V31.4q0-.3.3-.3h1.4q.6-1.2.9-2.4c0-.1.1-.2.3-.2h.1l1.9.2c.2 0 .3.1.2.3-.3.8-.5 1.5-.8 2h2.7q.3 0 .3.3v2.3c.5-.7.9-1.4 1.2-2.3.4-.8.6-1.7.8-2.6 0-.1.1-.2.3-.2h.1l1.9.2c.1 0 .2 0 .2.1s.1.1 0 .2c-.1.5-.3 1.1-.5 1.7h5.4q.3 0 .3.3v4c0 2.9 0 5-.1 6.3s-.4 2.3-.7 3.1-1 1.3-1.7 1.7c-.8.4-1.8.5-3.1.5h-.4c-.1 0-.2-.1-.3-.2l-.7-2v-.1c0-.1.1-.2.3-.2 1 0 1.8 0 2.4-.2q.9-.3 1.2-.9c.3-.4.4-1.1.5-1.9.1-1.3.2-2.9.2-4.7v-3.2h-4c-.4 1-.9 1.7-1.5 2.4-.1.1-.1.1-.2.1s-.1 0-.2-.1l-1.5-.6v10.7c0 .1-.1.2-.2.2M63 33.4v3.8h2.6v-3.8zm0 6.2v4.1h2.6v-4.1zm6.2-2.6c-.1-.1-.1-.1-.1-.2s.1-.2.2-.2l1.6-.8h.2c.1 0 .2 0 .2.1.5.6.9 1.2 1.3 2s.7 1.4 1 2.2v.1c0 .1-.1.2-.2.3l-1.7.8h-.2c-.1 0-.2-.1-.2-.2-.5-1.5-1.2-2.9-2.1-4.1m13.6-2.2h2.1q.3 0 .3.3v8.6h3V31.8h-7.1q-.3 0-.3-.3v-1.9q0-.3.3-.3h16.2q.3 0 .3.3v1.9q0 .3-.3.3H91v4.4h5.3q.3 0 .3.3v1.9q0 .3-.3.3H91v5h6.9q.3 0 .3.3v1.9q0 .3-.3.3H80.4q-.3 0-.3-.3V44q0-.3.3-.3h2.1v-8.6q0-.3.3-.3m25.6 11.3v-6.7c-.2.2-.4.3-.6.5-.1.1-.1.1-.2.1s-.2-.1-.2-.2l-.6-1.4v7.1q0 .3-.3.3h-4.9q-.3 0-.3-.3v-5.8c-.2.3-.5.7-.7 1-.1.1-.1.1-.2.1s-.2-.1-.2-.2l-.7-2.3v-.1c0-.1 0-.2.1-.3.6-.8 1.1-1.8 1.6-2.9s.8-2.3 1-3.5h-1.7q-.3 0-.3-.3v-1.8q0-.3.3-.3h6.5q.3 0 .3.3v.6h3.8c.1-.3.2-.7.3-1.3 0-.2.1-.2.2-.2h.1l2 .1c.2 0 .3.1.2.3-.1.5-.2.8-.3 1.1h3.9q.3 0 .3.3v3.4q0 .3-.3.3H116c-.1 0-.1 0-.2-.1s-.1-.1-.1-.2v-1.6H113c-.4 1.1-.8 2-1.3 2.9h1.6c0-.1-.2-.4-.4-.8l-.3-.5v-.1c0-.1.1-.2.2-.3l1.5-.3h.1c.2 0 .3.1.4.2.3.5.5 1.1.7 1.7h2.1q.3 0 .3.3v1.4q0 .3-.3.3h-2.5v1.2h2.1q.3 0 .3.3v1.2q0 .3-.3.3h-2.1V41h2.1q.3 0 .3.3v1.3q0 .3-.3.3h-2.1v1.3h2.8q.3 0 .3.3V46q0 .3-.3.3h-9.3c-.1.1-.2 0-.2-.2m-3.6-2.7v-6h-1.3v6zm5.8-11.2h-1.3v1.7q0 .3-.3.3h-1.6q-.3 0-.3-.3v-2.3h-2.4c-.2 1-.5 2.2-.9 3.5h2.9q.3 0 .3.3v2.1c1.4-1.2 2.7-3 3.6-5.3m2.4 6.1v-1.2h-2.2v1.2zm0 3v-1.1h-2.2v1.1zm0 3.1v-1.3h-2.2v1.3zm7.2 1.3v-1.2q0-.3.3-.3h2.5v-4.1h-1.8q-.3 0-.3-.3V39l-.7-.2c-.1 0-.2-.1-.2-.2s0-.1.1-.2q.9-1.2.9-3v-1.3q0-.3.3-.3h7.6q.3 0 .3.3v2.8c.7 0 1.6-.2 2.4-.4-.3-.3-.6-.5-.9-.9-.3-.3-.5-.7-.7-1h-.3q-.3 0-.3-.3v-1q0-.3.3-.3h.8l-1.3-.7c-.1 0-.1-.1-.1-.2s.1-.1.2-.2c.5-.3.8-.7 1-1.1s.3-1 .3-1.6q0-.3.3-.3h4.9q.3 0 .3.3v1.3c0 .2 0 .3.1.3 0 .1.1.1.3.1h1.3c.2 0 .2.1.2.3v1q0 .3-.3.3c-.3 0-.7.1-1.2.1-.6 0-1 0-1.3-.1q-.6-.15-.9-.3c-.2-.2-.2-.4-.2-.8v-.8h-1.5c-.1 1.1-.5 1.9-1.3 2.4h5.9q.3 0 .3.3v1c0 .1 0 .2-.1.3-.4.7-1 1.3-1.7 1.8.8.2 1.7.3 2.5.3.2 0 .2.1.2.2v.1l-.5 1.2c-.1.2-.2.2-.3.2-1.3-.2-2.7-.5-3.9-1-1.3.5-2.7.9-4 1-.1 0-.2-.1-.2-.2l-.4-.9h-6.2c0 .3-.2.7-.3 1.1h15.1q.3 0 .3.3v1.1q0 .3-.3.3h-2v4.1h2.5q.3 0 .3.3v1.2q0 .3-.3.3h-2.5v.5q0 .3-.3.3h-1.8q-.3 0-.3-.3V46h-12.6c-.4 0-.5-.1-.5-.3m.3-15v-1q0-.3.3-.3h3.2v-.6q0-.3.3-.3h1.7q.3 0 .3.3v.6h2.9q.3 0 .3.3v1q0 .3-.3.3h-2.9v.8h2.5q.3 0 .3.3v.8q0 .3-.3.3h-7.4q-.3 0-.3-.3V32q0-.3.3-.3h2.7V31h-3.2c-.3 0-.4-.1-.4-.3m2.4 4.4v1.1h1.4v-1.1zm2.4 5.1v.6h7.8v-.6zm0 1.7v.6h7.8v-.6zm7.8 2.4v-.6h-7.8v.6zm-7.2-9.2v1.1h1.3v-1.1zm7.6.6q1.2-.6 1.5-1.2h-3q.6.75 1.5 1.2m6.5-3.2v-1.6q0-.3.3-.3h2.1c-.2-.4-.4-.8-.7-1.3v-.2c0-.1.1-.2.2-.2l1.7-.4h.2c.1 0 .2.1.3.2.2.5.5 1.2.8 1.9h1.7q.3 0 .3.3v1.6q0 .3-.3.3h-6.2c-.3 0-.4-.1-.4-.3m.6 13.6v-5.8q0-.3.3-.3h5.3q.3 0 .3.3v5.8q0 .3-.3.3h-5.3q-.3 0-.3-.3m.1-10.5v-1.4q0-.3.3-.3h5q.3 0 .3.3v1.4q0 .3-.3.3h-5q-.3 0-.3-.3m0 3.1v-1.4q0-.3.3-.3h5q.3 0 .3.3v1.4q0 .3-.3.3h-5q-.3 0-.3-.3m3.7 5.6V42h-1.8v2.3zm9.7 2.2-.6-1.7v-.1c0-.1.1-.2.2-.2h.6c.4 0 .7 0 .9-.1s.3-.2.4-.3.1-.3.1-.6V31.2h-6.1v6.5c0 1.7-.1 3.3-.2 4.8s-.4 2.8-.8 3.9c0 .1-.1.2-.2.2h-.2l-1.6-.8c-.2-.1-.2-.2-.1-.4.4-1 .6-2.2.7-3.6s.2-2.9.2-4.5v-7.9q0-.3.3-.3h9.9q.3 0 .3.3v14.3q0 1.2-.3 1.8c-.2.4-.5.8-1 1s-1.1.3-2 .3h-.3c-.1-.1-.2-.2-.2-.3m-4-9v-1.4q0-.3.3-.3h1.4v-1.2h-1.3q-.3 0-.3-.3V33q0-.3.3-.3h1.3v-.9q0-.3.3-.3h1.3q.3 0 .3.3v.9h1.3q.3 0 .3.3v1.3q0 .3-.3.3h-1.3v1.2h1.4q.3 0 .3.3v1.4q0 .3-.3.3h-4.6c-.3 0-.4-.1-.4-.3m0 6.4v-5q0-.3.3-.3h4.4q.3 0 .3.3v5q0 .3-.3.3h-4.4q-.3 0-.3-.3m3.3-1.5v-2h-1.5v2zm14-1.8q-.75-.45-1.2-1.2c-.3-.5-.5-1.1-.5-1.7s.2-1.2.5-1.7q.45-.75 1.2-1.2c.5-.3 1.1-.5 1.7-.5s1.2.2 1.7.5q.75.45 1.2 1.2c.45.75.5 1.1.5 1.7s-.2 1.2-.5 1.7q-.45.75-1.2 1.2c-.5.3-1.1.5-1.7.5s-1.1-.2-1.7-.5m3.1-1.5c.4-.4.6-.8.6-1.4 0-.5-.2-1-.6-1.4s-.8-.6-1.4-.6c-.5 0-1 .2-1.4.6s-.6.8-.6 1.4.2 1 .6 1.4.8.6 1.4.6c.6-.1 1-.2 1.4-.6"/></svg>