<svg xmlns="http://www.w3.org/2000/svg" xml:space="preserve" width="405.1" height="50.7" style="overflow:visible" viewBox="0 0 405.1 50.7"><path fill="#fff" d="M0 48.8V44q0-.9.9-.9H11c-.3-.9-.6-1.6-.9-2.2H4.9c-.6.1-.9-.2-.9-.8V31q0-.9.9-.9h40q.9 0 .9.9v9.1q0 .9-.9.9h-4.8l-.9 2.2h9.7q.9 0 .9.9v4.8q0 .9-.9.9H.9c-.6-.1-.9-.4-.9-1m3.1-34.3v-3.6q0-.9.9-.9h15.9V8.6H1.6c-.6 0-.8-.3-.8-.9V3.3q0-.9.9-.9h18.2V1.1q0-.9.9-.9H29q.9 0 .9.9v1.3h18.4q.9 0 .9.9v4.5q0 .9-.9.9H29.8V10h16.1q.9 0 .9.9v3.6q0 .9-.9.9H4q-.9 0-.9-.9m2.6 13.4v-.1h-4q-.9 0-.9-.9v-9.3q0-.9.9-.9h46.6q.9 0 .9.9v9.3q0 .9-.9.9h-4.2v.1q0 .9-.9.9H6.6q-.9-.15-.9-.9m34-3.9v-1.5H10.2V24zm-3.4 12.6v-1.9H13.5v1.9zM30.2 41H19.8l.9 2.2h8.6c.2-.6.6-1.3.9-2.2m55.9-6.6c-.3 0-.5-.2-.8-.5-1.4-1.9-3-3.8-4.8-5.6s-3.7-3.4-5.5-4.7c-.3-.2-.4-.4-.4-.7 0-.2.1-.5.3-.7l5-5.2c.2-.2.5-.4.8-.4.2 0 .4.1.5.2C86 20 89.9 23.5 93 27.5q.3.45.3.6c0 .3-.1.6-.4.8l-6.1 5.2c-.3.2-.5.3-.7.3M167.3 15v4.6q0 .9-.9.9h-15.8l-.2 1.9h16.9q.9 0 .9.9v4.8q0 .9-.9.9h-18l-.4 2.1h16.7q.9 0 .9.9v3.5c0 .3-.1.6-.2 1-1 2.2-2.2 4.1-3.5 5.5 1.9.3 3.7.4 5.6.4.5 0 .8.2.8.6 0 .2 0 .3-.1.4l-2.5 6.6c-.1.4-.4.6-.6.6h-.2c-3.8-.4-7.3-1.4-10.6-2.9-3.4 1.6-7.1 2.6-11.3 2.9h-.2c-.3 0-.5-.2-.8-.6l-1.6-3.9c-.4.4-.9 1-1.6 1.8s-1.3 1.4-1.7 1.8l-.3.3c-.1.1-.2.1-.3.1q-.3 0-.6-.3l-3.4-3.5h-13.9q-.9 0-.9-.9V2.7q0-.9.9-.9h15.1q.9 0 .9.9v36.5c2.4-3 4.1-6.4 5.2-10.3h-3.4q-.9 0-.9-.9v-4.8q0-.9.9-.9h4.7l.1-1.9h-4.2q-.9 0-.9-.9V15q0-.9.9-.9h3c-.4-1.4-.9-2.9-1.7-4.6h-.8c-.5 0-.8-.2-.9-.7l-1.7-6.1c0-.1-.1-.2-.1-.3 0-.4.2-.6.8-.6l4.2.1c4.4 0 8.7-.1 13-.4S161.4.8 164 .3l.3-.1c.3 0 .6.2.8.5l3 5.7c.1.2.2.4.2.6s-.1.4-.4.5q-.9.3-1.5.3c-.6 2.5-1.2 4.6-1.7 6.2h2.1c.2.1.5.4.5 1m-38.8 4.6v-9.2h-2.7v9.2zm0 18.1v-10h-2.7v10zm19 4.8c-.5-.5-1.3-1.4-2.2-2.6-.8 1.4-1.4 2.5-1.8 3.2 1.5-.2 2.9-.4 4-.6m-.4-28.4h3c-.3-1.4-.8-3-1.4-4.7l-3 .1c.5 1.6 1 3.1 1.4 4.6M158 36.8h-6.3c1.2 1.3 2.3 2.2 3.4 2.8 1-.7 2-1.6 2.9-2.8m-1.8-22.7h1.8c.5-1.5.9-3.4 1.3-5.5l-4.5.4c.7 1.9 1.1 3.6 1.4 5.1m20.7 14.4c0-.5.3-.8.8-.8l4.9.1V4.7q0-.9.9-.9h10.4c.8-1.1 1.3-2.1 1.7-3.1.1-.4.5-.6 1-.6l9.9.5c.3 0 .5.1.7.3.1.2.1.4 0 .7-.4.8-.8 1.5-1.3 2.3h14.9q.9 0 .9.9v12.5l5.9 3.7c.3.2.4.4.4.6 0 .1-.1.3-.2.5-2.5 3.3-4.6 5.7-6.1 7.2v11.9c0 2.6-.4 4.5-1.1 5.9-.7 1.3-2 2.3-3.9 2.9s-4.6.9-8.3.9h-1.7c-.5 0-.9-.2-1-.7l-2.4-7c0-.1-.1-.2-.1-.3q0-.6.9-.6l2.8.1c1.7 0 2.9-.1 3.7-.3s1.3-.5 1.4-.8c.2-.3.3-.8.3-1.4v-3.2c-4.1 2.8-9 5.3-14.7 7.7s-11.5 4.3-17.4 6l-.3.1c-.4 0-.6-.2-.8-.6l-3-7c0-.1-.1-.3-.1-.4 0-.2.1-.3.2-.4s.3-.2.5-.2c3.6-.6 7.5-1.5 11.8-2.7s8.3-2.6 12.1-4.2c-5.4.6-12.8 1.1-22 1.6h-.1c-.5 0-.8-.3-.9-.8L177 29v-.5zm14.9-17.1v2.1h20.4v-2.1zm0 7v2.2h20.4v-2.2zm20.5 8.5v-1.5h-20.4v2.4q12.3-.3 20.4-.9m23.4-4.6V16q0-.9.9-.9h9.2l-1.3-3.5h-4.8q-.9 0-.9-.9V4.4q0-.9.9-.9h16.2c-.2-.4-.5-1-.9-1.7-.1-.2-.2-.4-.2-.5 0-.3.2-.5.8-.6l7.8-.7 1.1-.1c.6 0 .9.3 1.1.9l.8 2.6h16q.9 0 .9.9v6.3q0 .9-.9.9h-4.9c-.4 1.6-.8 2.7-1 3.5h9.1q.9 0 .9.9v6.3q0 .9-.9.9h-49c-.6 0-.9-.3-.9-.8m5 26.4V25.9q0-.9.9-.9h39q.9 0 .9.9v22.9q0 .9-.9.9h-39c-.6-.1-.9-.4-.9-1m31.1-14.5v-2.1h-21.4v2.1zm0 8V40h-21.4v2.1h21.4zm-4.5-30.6h-12.5l1.2 3.5h10.1c.6-1.5 1-2.7 1.2-3.5m27.6.5V6.8q0-.9.9-.9h4.8c-.4-.8-.9-1.8-1.7-3-.1-.2-.2-.4-.2-.6s.1-.3.2-.5c.1-.1.3-.2.5-.2l6.7-1.2.3-.1q.6 0 .9.6c.9 1.9 1.5 3.5 2 4.9h4.1q.9 0 .9.9V12q0 .9-.9.9h-17.8c-.4 0-.7-.3-.7-.8m38.8 37.8-1.4-4.1h-6.9q-.9 0-.9-.9V29.5q0-.9.9-.9h8.8q.9 0 .9.9V42c.6-.1 1-.2 1.2-.5s.3-.8.3-1.4V9.3h-13.2V26c0 4.3-.2 8.5-.5 12.7s-.9 7.9-1.7 11.1q-.15.6-.6.6c-.1 0-.3-.1-.5-.2l-6.3-3.2-.3-.2v1.8q0 .9-.9.9H297q-.9 0-.9-.9V32.4q0-.9.9-.9h15.6q.9 0 .9.9v11.3c1.3-5.5 1.9-12 1.9-19.6V2.3q0-.9.9-.9h27.6q.9 0 .9.9V41c0 4-.7 6.7-2 7.9-.8.8-1.8 1.2-2.8 1.4q-1.65.3-5.1.3c-.7 0-1-.2-1.2-.7m-36.9-29.5v-4.5q0-.9.9-.9h14.7q.9 0 .9.9v4.5q0 .9-.9.9h-14.7c-.7 0-.9-.3-.9-.9m0 8.3v-4.5q0-.9.9-.9h14.7q.9 0 .9.9v4.5q0 .9-.9.9h-14.7c-.7-.1-.9-.4-.9-.9m9.4 14.1v-4.5h-2.5v4.5zm18-16.7v-4.6q0-.9.9-.9h1.4v-2.2h-1.3q-.9 0-.9-.9v-4.3q0-.9.9-.9h1.3V11q0-.9.9-.9h5q.9 0 .9.9v1.3h1.2q.9 0 .9.9v4.3q0 .9-.9.9h-1.2v2.2h1.4q.9 0 .9.9v4.6q0 .9-.9.9h-9.6q-.9 0-.9-.9m6.7 12.8v-3.6h-2v3.6zm28.6 11.3-5.7-3.1c-.3-.2-.4-.4-.5-.6 0-.2 0-.3.1-.4q1.2-2.85 1.8-6.6c.4-2.5.7-5 .8-7.4 0-.4.1-.6.3-.7.1-.1.3-.2.6-.2l5.4.5c.4.1.6.2.8.4 0 .1.1.2.1.5-.1 1.3-.2 2.4-.3 3.5.5.7 1 1.3 1.6 1.8v-8h-8.6q-.9 0-.9-.9v-5.7q0-.9.9-.9h21.6q.9 0 .9.9v5.6q0 .9-.9.9h-4.9v2.1h4.4q.9 0 .9.9v2.8c2.5-.4 4.6-1.1 6.5-2.1h-3.7q-.9 0-.9-.9V11q0-.9.9-.9h4.2l.7-1.7h-6q-.9 0-.9-.9V2.3q0-.9.9-.9h23.2q.9 0 .9.9v5.3q0 .9-.9.9h-7.9c-.1.4-.3.9-.7 1.7h7.2q.9 0 .9.9v21.8q0 .9-.9.9h-3.7c1.8.9 3.9 1.6 6.2 2.1.5.1.7.3.7.6 0 .1 0 .3-.1.5l-1.9 3.9c.5 0 1.1 0 1.9-.1h.3c.4.1.5.3.5.5l-.1.4-2.5 7.4c-.2.5-.5.8-.9.8-2.5.1-6.9.2-13.3.2-6.2 0-10.8-.1-13.8-.2-3.1-.1-5.7-.5-7.6-1.3-2-.8-3.6-1.9-4.9-3.4-.4 1.8-.8 3.4-1.4 4.8-.1.3-.3.5-.6.5-.3-.2-.5-.2-.7-.3m-3.6-29.9v-18q0-.9.9-.9h19.7q.9 0 .9.9v18q0 .9-.9.9h-19.7c-.6-.1-.9-.3-.9-.9m13.4-10.6V7.6h-5.4v2.1zm0 5.9v-2.1h-5.4v2.1zm7.5 22.8h-4.4V41l2.3.2 4.2.1-1.6-3c-.2.1-.3.1-.5.1m19.7 2.6c-1.9-.9-3.5-1.8-4.7-3q-.3-.3-.3-.6 0-.15.3-.6l2.6-3.2H387l2.6 3.3c.1.2.2.4.2.6 0 .4-.7 1.1-2.1 1.9s-2.6 1.4-3.5 1.8zm-2.9-23.7v-2.1h-5.7v2.1zm0 5.9V21h-5.7v2.2zm0 5.5v-2.1h-5.7v2.1z"/></svg>