<!-- Generator: Adobe Illustrator 25.0.0, SVG Export Plug-In  -->
<svg version="1.1" xmlns="http://www.w3.org/2000/svg" xmlns:xlink="http://www.w3.org/1999/xlink" x="0px" y="0px" width="405.1px"
	 height="50.7px" viewBox="0 0 405.1 50.7" style="overflow:visible;enable-background:new 0 0 405.1 50.7;" xml:space="preserve">
<style type="text/css">
	.st0{fill:#FFFFFF;}
</style>
<defs>
</defs>
<g>
	<path class="st0" d="M0,48.8V44c0-0.6,0.3-0.9,0.9-0.9h10.1c-0.3-0.9-0.6-1.6-0.9-2.2H4.9C4.3,41,4,40.7,4,40.1V31
		c0-0.6,0.3-0.9,0.9-0.9h40c0.6,0,0.9,0.3,0.9,0.9v9.1c0,0.6-0.3,0.9-0.9,0.9h-4.8l-0.9,2.2h9.7c0.6,0,0.9,0.3,0.9,0.9v4.8
		c0,0.6-0.3,0.9-0.9,0.9H0.9C0.3,49.7,0,49.4,0,48.8z M3.1,14.5v-3.6C3.1,10.3,3.4,10,4,10h15.9V8.6H1.6C1,8.6,0.8,8.3,0.8,7.7V3.3
		c0-0.6,0.3-0.9,0.9-0.9h18.2V1.1c0-0.6,0.3-0.9,0.9-0.9h8.2c0.6,0,0.9,0.3,0.9,0.9v1.3h18.4c0.6,0,0.9,0.3,0.9,0.9v4.5
		c0,0.6-0.3,0.9-0.9,0.9H29.8V10h16.1c0.6,0,0.9,0.3,0.9,0.9v3.6c0,0.6-0.3,0.9-0.9,0.9H4C3.4,15.4,3.1,15.1,3.1,14.5z M5.7,27.9
		v-0.1H1.7c-0.6,0-0.9-0.3-0.9-0.9v-9.3c0-0.6,0.3-0.9,0.9-0.9h46.6c0.6,0,0.9,0.3,0.9,0.9v9.3c0,0.6-0.3,0.9-0.9,0.9h-4.2v0.1
		c0,0.6-0.3,0.9-0.9,0.9H6.6C6,28.7,5.7,28.4,5.7,27.9z M39.7,24v-1.5H10.2V24H39.7z M36.3,36.6v-1.9H13.5v1.9H36.3z M30.2,41H19.8
		l0.9,2.2h8.6C29.5,42.6,29.9,41.9,30.2,41z"/>
	<path class="st0" d="M86.1,34.4c-0.3,0-0.5-0.2-0.8-0.5c-1.4-1.9-3-3.8-4.8-5.6c-1.8-1.8-3.7-3.4-5.5-4.7c-0.3-0.2-0.4-0.4-0.4-0.7
		c0-0.2,0.1-0.5,0.3-0.7l5-5.2c0.2-0.2,0.5-0.4,0.8-0.4c0.2,0,0.4,0.1,0.5,0.2C86,20,89.9,23.5,93,27.5c0.2,0.3,0.3,0.5,0.3,0.6
		c0,0.3-0.1,0.6-0.4,0.8l-6.1,5.2C86.5,34.3,86.3,34.4,86.1,34.4z"/>
	<path class="st0" d="M167.3,15v4.6c0,0.6-0.3,0.9-0.9,0.9h-15.8l-0.2,1.9h16.9c0.6,0,0.9,0.3,0.9,0.9v4.8c0,0.6-0.3,0.9-0.9,0.9
		h-18l-0.4,2.1h16.7c0.6,0,0.9,0.3,0.9,0.9v3.5c0,0.3-0.1,0.6-0.2,1c-1,2.2-2.2,4.1-3.5,5.5c1.9,0.3,3.7,0.4,5.6,0.4
		c0.5,0,0.8,0.2,0.8,0.6c0,0.2,0,0.3-0.1,0.4l-2.5,6.6c-0.1,0.4-0.4,0.6-0.6,0.6h-0.2c-3.8-0.4-7.3-1.4-10.6-2.9
		c-3.4,1.6-7.1,2.6-11.3,2.9h-0.2c-0.3,0-0.5-0.2-0.8-0.6l-1.6-3.9c-0.4,0.4-0.9,1-1.6,1.8c-0.7,0.8-1.3,1.4-1.7,1.8
		c-0.1,0.1-0.2,0.2-0.3,0.3c-0.1,0.1-0.2,0.1-0.3,0.1c-0.2,0-0.4-0.1-0.6-0.3l-3.4-3.5h-13.9c-0.6,0-0.9-0.3-0.9-0.9V2.7
		c0-0.6,0.3-0.9,0.9-0.9h15.1c0.6,0,0.9,0.3,0.9,0.9v36.5c2.4-3,4.1-6.4,5.2-10.3h-3.4c-0.6,0-0.9-0.3-0.9-0.9v-4.8
		c0-0.6,0.3-0.9,0.9-0.9h4.7l0.1-1.9h-4.2c-0.6,0-0.9-0.3-0.9-0.9V15c0-0.6,0.3-0.9,0.9-0.9h3c-0.4-1.4-0.9-2.9-1.7-4.6h-0.8
		c-0.5,0-0.8-0.2-0.9-0.7l-1.7-6.1c0-0.1-0.1-0.2-0.1-0.3c0-0.4,0.2-0.6,0.8-0.6l4.2,0.1c4.4,0,8.7-0.1,13-0.4
		c4.3-0.3,7.7-0.7,10.3-1.2l0.3-0.1c0.3,0,0.6,0.2,0.8,0.5l3,5.7c0.1,0.2,0.2,0.4,0.2,0.6c0,0.2-0.1,0.4-0.4,0.5
		c-0.6,0.2-1.1,0.3-1.5,0.3c-0.6,2.5-1.2,4.6-1.7,6.2h2.1C167,14.1,167.3,14.4,167.3,15z M128.5,19.6v-9.2h-2.7v9.2H128.5z
		 M128.5,37.7v-10h-2.7v10H128.5z M147.5,42.5c-0.5-0.5-1.3-1.4-2.2-2.6c-0.8,1.4-1.4,2.5-1.8,3.2C145,42.9,146.4,42.7,147.5,42.5z
		 M147.1,14.1h3c-0.3-1.4-0.8-3-1.4-4.7l-3,0.1C146.2,11.1,146.7,12.6,147.1,14.1z M158,36.8h-6.3c1.2,1.3,2.3,2.2,3.4,2.8
		C156.1,38.9,157.1,38,158,36.8z M156.2,14.1h1.8c0.5-1.5,0.9-3.4,1.3-5.5L154.8,9C155.5,10.9,155.9,12.6,156.2,14.1z"/>
	<path class="st0" d="M176.9,28.5c0-0.5,0.3-0.8,0.8-0.8l4.9,0.1V4.7c0-0.6,0.3-0.9,0.9-0.9h10.4c0.8-1.1,1.3-2.1,1.7-3.1
		c0.1-0.4,0.5-0.6,1-0.6l9.9,0.5c0.3,0,0.5,0.1,0.7,0.3c0.1,0.2,0.1,0.4,0,0.7c-0.4,0.8-0.8,1.5-1.3,2.3h14.9c0.6,0,0.9,0.3,0.9,0.9
		v12.5l5.9,3.7c0.3,0.2,0.4,0.4,0.4,0.6c0,0.1-0.1,0.3-0.2,0.5c-2.5,3.3-4.6,5.7-6.1,7.2v11.9c0,2.6-0.4,4.5-1.1,5.9
		c-0.7,1.3-2,2.3-3.9,2.9c-1.9,0.6-4.6,0.9-8.3,0.9h-1.7c-0.5,0-0.9-0.2-1-0.7l-2.4-7c0-0.1-0.1-0.2-0.1-0.3c0-0.4,0.3-0.6,0.9-0.6
		l2.8,0.1c1.7,0,2.9-0.1,3.7-0.3c0.8-0.2,1.3-0.5,1.4-0.8c0.2-0.3,0.3-0.8,0.3-1.4v-3.2c-4.1,2.8-9,5.3-14.7,7.7s-11.5,4.3-17.4,6
		l-0.3,0.1c-0.4,0-0.6-0.2-0.8-0.6l-3-7c0-0.1-0.1-0.3-0.1-0.4c0-0.2,0.1-0.3,0.2-0.4c0.1-0.1,0.3-0.2,0.5-0.2
		c3.6-0.6,7.5-1.5,11.8-2.7c4.3-1.2,8.3-2.6,12.1-4.2c-5.4,0.6-12.8,1.1-22,1.6h-0.1c-0.5,0-0.8-0.3-0.9-0.8l-0.6-6.8V28.5z
		 M191.8,11.4v2.1h20.4v-2.1H191.8z M191.8,18.4v2.2h20.4v-2.2H191.8z M212.3,26.9v-1.5h-20.4v2.4C200.1,27.6,206.9,27.3,212.3,26.9
		z"/>
	<path class="st0" d="M235.7,22.3v-6.3c0-0.6,0.3-0.9,0.9-0.9h9.2l-1.3-3.5h-4.8c-0.6,0-0.9-0.3-0.9-0.9V4.4c0-0.6,0.3-0.9,0.9-0.9
		h16.2c-0.2-0.4-0.5-1-0.9-1.7c-0.1-0.2-0.2-0.4-0.2-0.5c0-0.3,0.2-0.5,0.8-0.6l7.8-0.7l1.1-0.1c0.6,0,0.9,0.3,1.1,0.9l0.8,2.6h16
		c0.6,0,0.9,0.3,0.9,0.9v6.3c0,0.6-0.3,0.9-0.9,0.9h-4.9c-0.4,1.6-0.8,2.7-1,3.5h9.1c0.6,0,0.9,0.3,0.9,0.9v6.3
		c0,0.6-0.3,0.9-0.9,0.9h-49C236,23.1,235.7,22.8,235.7,22.3z M240.7,48.7V25.9c0-0.6,0.3-0.9,0.9-0.9h39c0.6,0,0.9,0.3,0.9,0.9
		v22.9c0,0.6-0.3,0.9-0.9,0.9h-39C241,49.6,240.7,49.3,240.7,48.7z M271.8,34.2v-2.1h-21.4v2.1H271.8z M271.8,42.2V40h-21.4v2.1
		H271.8z M267.3,11.6h-12.5l1.2,3.5h10.1C266.7,13.6,267.1,12.4,267.3,11.6z"/>
	<path class="st0" d="M294.9,12.1V6.8c0-0.6,0.3-0.9,0.9-0.9h4.8c-0.4-0.8-0.9-1.8-1.7-3c-0.1-0.2-0.2-0.4-0.2-0.6
		c0-0.2,0.1-0.3,0.2-0.5c0.1-0.1,0.3-0.2,0.5-0.2l6.7-1.2l0.3-0.1c0.4,0,0.7,0.2,0.9,0.6c0.9,1.9,1.5,3.5,2,4.9h4.1
		c0.6,0,0.9,0.3,0.9,0.9v5.3c0,0.6-0.3,0.9-0.9,0.9h-17.8C295.2,12.9,294.9,12.6,294.9,12.1z M333.7,49.9l-1.4-4.1h-6.9
		c-0.6,0-0.9-0.3-0.9-0.9V29.5c0-0.6,0.3-0.9,0.9-0.9h8.8c0.6,0,0.9,0.3,0.9,0.9v12.5c0.6-0.1,1-0.2,1.2-0.5
		c0.2-0.3,0.3-0.8,0.3-1.4V9.3h-13.2V26c0,4.3-0.2,8.5-0.5,12.7c-0.3,4.2-0.9,7.9-1.7,11.1c-0.1,0.4-0.3,0.6-0.6,0.6
		c-0.1,0-0.3-0.1-0.5-0.2l-6.3-3.2l-0.3-0.2v1.8c0,0.6-0.3,0.9-0.9,0.9H297c-0.6,0-0.9-0.3-0.9-0.9V32.4c0-0.6,0.3-0.9,0.9-0.9h15.6
		c0.6,0,0.9,0.3,0.9,0.9v11.3c1.3-5.5,1.9-12,1.9-19.6V2.3c0-0.6,0.3-0.9,0.9-0.9h27.6c0.6,0,0.9,0.3,0.9,0.9V41c0,4-0.7,6.7-2,7.9
		c-0.8,0.8-1.8,1.2-2.8,1.4c-1.1,0.2-2.8,0.3-5.1,0.3C334.2,50.6,333.9,50.4,333.7,49.9z M296.8,20.4v-4.5c0-0.6,0.3-0.9,0.9-0.9
		h14.7c0.6,0,0.9,0.3,0.9,0.9v4.5c0,0.6-0.3,0.9-0.9,0.9h-14.7C297,21.3,296.8,21,296.8,20.4z M296.8,28.7v-4.5
		c0-0.6,0.3-0.9,0.9-0.9h14.7c0.6,0,0.9,0.3,0.9,0.9v4.5c0,0.6-0.3,0.9-0.9,0.9h-14.7C297,29.5,296.8,29.2,296.8,28.7z M306.2,42.8
		v-4.5h-2.5v4.5H306.2z M324.2,26.1v-4.6c0-0.6,0.3-0.9,0.9-0.9h1.4v-2.2h-1.3c-0.6,0-0.9-0.3-0.9-0.9v-4.3c0-0.6,0.3-0.9,0.9-0.9
		h1.3v-1.3c0-0.6,0.3-0.9,0.9-0.9h5c0.6,0,0.9,0.3,0.9,0.9v1.3h1.2c0.6,0,0.9,0.3,0.9,0.9v4.3c0,0.6-0.3,0.9-0.9,0.9h-1.2v2.2h1.4
		c0.6,0,0.9,0.3,0.9,0.9v4.6c0,0.6-0.3,0.9-0.9,0.9h-9.6C324.5,27,324.2,26.7,324.2,26.1z M330.9,38.9v-3.6h-2v3.6H330.9z"/>
	<path class="st0" d="M359.5,50.2l-5.7-3.1c-0.3-0.2-0.4-0.4-0.5-0.6c0-0.2,0-0.3,0.1-0.4c0.8-1.9,1.4-4.1,1.8-6.6
		c0.4-2.5,0.7-5,0.8-7.4c0-0.4,0.1-0.6,0.3-0.7c0.1-0.1,0.3-0.2,0.6-0.2l5.4,0.5c0.4,0.1,0.6,0.2,0.8,0.4c0,0.1,0.1,0.2,0.1,0.5
		c-0.1,1.3-0.2,2.4-0.3,3.5c0.5,0.7,1,1.3,1.6,1.8v-8h-8.6c-0.6,0-0.9-0.3-0.9-0.9v-5.7c0-0.6,0.3-0.9,0.9-0.9h21.6
		c0.6,0,0.9,0.3,0.9,0.9v5.6c0,0.6-0.3,0.9-0.9,0.9h-4.9v2.1h4.4c0.6,0,0.9,0.3,0.9,0.9v2.8c2.5-0.4,4.6-1.1,6.5-2.1h-3.7
		c-0.6,0-0.9-0.3-0.9-0.9V11c0-0.6,0.3-0.9,0.9-0.9h4.2l0.7-1.7h-6c-0.6,0-0.9-0.3-0.9-0.9V2.3c0-0.6,0.3-0.9,0.9-0.9h23.2
		c0.6,0,0.9,0.3,0.9,0.9v5.3c0,0.6-0.3,0.9-0.9,0.9h-7.9c-0.1,0.4-0.3,0.9-0.7,1.7h7.2c0.6,0,0.9,0.3,0.9,0.9v21.8
		c0,0.6-0.3,0.9-0.9,0.9h-3.7c1.8,0.9,3.9,1.6,6.2,2.1c0.5,0.1,0.7,0.3,0.7,0.6c0,0.1,0,0.3-0.1,0.5l-1.9,3.9c0.5,0,1.1,0,1.9-0.1
		h0.3c0.4,0.1,0.5,0.3,0.5,0.5l-0.1,0.4l-2.5,7.4c-0.2,0.5-0.5,0.8-0.9,0.8c-2.5,0.1-6.9,0.2-13.3,0.2c-6.2,0-10.8-0.1-13.8-0.2
		c-3.1-0.1-5.7-0.5-7.6-1.3c-2-0.8-3.6-1.9-4.9-3.4c-0.4,1.8-0.8,3.4-1.4,4.8c-0.1,0.3-0.3,0.5-0.6,0.5
		C359.9,50.3,359.7,50.3,359.5,50.2z M355.9,20.3v-18c0-0.6,0.3-0.9,0.9-0.9h19.7c0.6,0,0.9,0.3,0.9,0.9v18c0,0.6-0.3,0.9-0.9,0.9
		h-19.7C356.2,21.1,355.9,20.9,355.9,20.3z M369.3,9.7V7.6h-5.4v2.1H369.3z M369.3,15.6v-2.1h-5.4v2.1H369.3z M376.8,38.4h-4.4v2.6
		l2.3,0.2l4.2,0.1l-1.6-3C377.1,38.4,377,38.4,376.8,38.4z M396.5,41c-1.9-0.9-3.5-1.8-4.7-3c-0.2-0.2-0.3-0.4-0.3-0.6
		c0-0.1,0.1-0.3,0.3-0.6l2.6-3.2H387l2.6,3.3c0.1,0.2,0.2,0.4,0.2,0.6c0,0.4-0.7,1.1-2.1,1.9c-1.4,0.8-2.6,1.4-3.5,1.8L396.5,41z
		 M393.6,17.3v-2.1h-5.7v2.1H393.6z M393.6,23.2V21h-5.7v2.2H393.6z M393.6,28.7v-2.1h-5.7v2.1H393.6z"/>
</g>
</svg>
