<!-- Generator: Adobe Illustrator 25.0.0, SVG Export Plug-In  -->
<svg version="1.1" xmlns="http://www.w3.org/2000/svg" xmlns:xlink="http://www.w3.org/1999/xlink" x="0px" y="0px" width="28.8px"
	 height="28.9px" viewBox="0 0 28.8 28.9" style="overflow:visible;enable-background:new 0 0 28.8 28.9;" xml:space="preserve">
<defs>
</defs>
<path d="M20.4,16.8c-2.3-1-4.3-2.1-5.9-3.2c-1.4,1-3.3,2-5.6,2.9c-2.3,0.9-4.7,1.5-7,1.9H1.7c-0.2,0-0.3-0.1-0.4-0.3l-1.2-2.6
	c0-0.1,0-0.2-0.1-0.2C0,15.1,0.1,15,0.3,15c2.2-0.2,4.2-0.6,6.2-1.1s3.6-1.1,4.8-1.7c0-0.1-0.1-0.2-0.2-0.5
	c-3.6,0.6-6.8,0.9-9.6,1.1l0,0c-0.2,0-0.4-0.1-0.4-0.3L0.6,11c0-0.2-0.1-0.3-0.1-0.4c0-0.1,0.1-0.4,0.4-0.6c0.4-0.3,0.8-0.8,1.3-1.4
	C2.8,8,3.2,7.4,3.4,7C3.5,6.7,3.7,6.7,4,6.7l2.6,0.5c0.2,0,0.3,0.1,0.3,0.2s0,0.2-0.1,0.3C6,8.7,5.4,9.4,4.9,9.8
	c2.6-0.2,4.2-0.4,4.9-0.5C9.5,8.9,9.3,8.6,9.2,8.4c0-0.1-0.1-0.2-0.1-0.3c0-0.1,0.1-0.3,0.3-0.3l1.9-0.5c0,0,0.1,0,0.2,0
	c0.2,0,0.3,0.1,0.4,0.2c1.2,1.3,2,2.5,2.6,3.6h0.3l-0.2-0.7c0-0.1,0-0.3,0.1-0.4c0.1-0.1,0.2-0.3,0.3-0.4s0.3-0.3,0.4-0.5
	c0.5-0.6,0.9-1.2,1.4-1.8l0.4-0.6c0.2-0.2,0.4-0.3,0.6-0.2l2.4,0.6c0.2,0,0.3,0.1,0.3,0.2c0.1,0.1,0,0.2,0,0.4
	c-0.2,0.3-0.5,0.6-0.8,1s-0.7,0.7-1,1.1c1.7-0.1,3.3-0.2,4.5-0.4l-0.7-0.9c-0.1-0.1-0.2-0.2-0.2-0.3s0.1-0.3,0.3-0.3l2-0.7l0.3-0.1
	c0.1,0,0.3,0.1,0.4,0.2c1.3,1.3,2.4,2.7,3.1,4.2c0,0.1,0,0.1,0.1,0.2c0,0.1-0.1,0.2-0.3,0.3L26,13.1c-0.1,0-0.1,0-0.2,0.1
	c-0.1,0-0.2-0.1-0.3-0.3c0-0.1-0.2-0.4-0.5-1c-1.9,0.3-4.2,0.5-7,0.6c1.3,0.7,2.8,1.2,4.6,1.7c1.8,0.5,3.7,0.8,5.8,1.1
	c0.3,0,0.4,0.1,0.4,0.3c0,0.1,0,0.1,0,0.2l-1.1,2.9c-0.1,0.3-0.3,0.4-0.5,0.3C25,18.5,22.7,17.8,20.4,16.8z M3.1,28.7l-1.3-2.4
	c0-0.1-0.1-0.2-0.1-0.3c0-0.2,0.1-0.3,0.4-0.3c4.9,0,9.1-0.5,12.8-1.4s6.6-2.4,8.8-4.4c0.1-0.1,0.2-0.2,0.3-0.2s0.2,0.1,0.3,0.2
	l1.9,1.7c0.1,0.1,0.2,0.2,0.2,0.3c0,0.1,0,0.2-0.1,0.2c-2.6,2.3-5.8,4-9.6,5c-3.8,1.1-8.2,1.6-13.1,1.7C3.3,29,3.2,28.9,3.1,28.7z
	 M4.4,24.3l-1.1-1.8c-0.1-0.1-0.1-0.2-0.1-0.3c0-0.2,0.1-0.3,0.4-0.3c3.5-0.2,6.6-0.6,9.2-1.3c2.6-0.7,4.8-1.7,6.4-3
	c0.1-0.1,0.2-0.1,0.3-0.1c0.1,0,0.2,0,0.3,0.1l1.6,1.3c0.1,0.1,0.2,0.2,0.2,0.3c0,0.1,0,0.2-0.1,0.3c-1.9,1.4-4.3,2.6-7.3,3.5
	c-2.9,0.9-6.1,1.4-9.4,1.6C4.7,24.6,4.5,24.5,4.4,24.3z M23.4,6.7c-0.2,0-0.3-0.1-0.4-0.2c-0.2-0.3-0.5-0.6-0.9-1
	c-1.8,0.2-4.5,0.4-8.1,0.6c-3.6,0.2-6.5,0.3-8.5,0.3h-1C4.2,6.4,4,6.3,4,6L3.7,4.3c0-0.1,0-0.2,0-0.3c0-0.2,0.1-0.4,0.3-0.5
	C4.4,3.3,4.9,3,5.4,2.7c1.5-1,2.6-1.8,3.3-2.5C8.9,0.1,9.1,0,9.2,0c0.1,0,0.2,0,0.3,0l3.3,0.6c0.2,0,0.3,0.1,0.3,0.3
	c0,0.1-0.1,0.2-0.2,0.3C11.8,2,10.7,2.8,9.5,3.5c2.8-0.1,6.1-0.2,9.8-0.5l-1.6-1c-0.1-0.1-0.2-0.2-0.2-0.3c0-0.1,0.1-0.2,0.3-0.3
	l2.3-0.8c0.1,0,0.1,0,0.3,0c0.1,0,0.3,0,0.3,0.1c0.9,0.4,1.8,1.1,2.8,1.9s1.9,1.6,2.7,2.5c0.1,0.1,0.2,0.2,0.2,0.3
	c0,0.1-0.1,0.2-0.3,0.3l-2.6,1.1C23.5,6.7,23.5,6.7,23.4,6.7z M5.9,20.8c-0.2,0-0.3-0.1-0.4-0.3l-1-1.6c-0.1-0.1-0.1-0.2-0.1-0.3
	c0-0.2,0.1-0.3,0.4-0.3c2.1-0.1,4.1-0.5,5.9-1.1s3.4-1.2,4.6-2c0.1-0.1,0.2-0.1,0.3-0.1c0.1,0,0.2,0,0.3,0.1l1.4,1.1
	c0.1,0.1,0.2,0.2,0.2,0.3c0,0.1-0.1,0.2-0.2,0.3C14.2,19,10.5,20.2,5.9,20.8L5.9,20.8z"/>
</svg>
