<!-- Generator: Adobe Illustrator 25.0.0, SVG Export Plug-In  -->
<svg version="1.1" xmlns="http://www.w3.org/2000/svg" xmlns:xlink="http://www.w3.org/1999/xlink" x="0px" y="0px" width="28.3px"
	 height="28.7px" viewBox="0 0 28.3 28.7" style="overflow:visible;enable-background:new 0 0 28.3 28.7;" xml:space="preserve">
<defs>
</defs>
<path d="M0.4,8.3V5.4C0.4,5.1,0.5,5,0.8,5h3.5V2V0.4C4.3,0.1,4.4,0,4.7,0h3.1c0.3,0,0.4,0.1,0.4,0.4v4.5h6.1c0.3,0,0.4,0.1,0.4,0.4
	v1.1l0.1,7.6c0,1.6,0,3.1-0.1,4.4c-0.1,2.8-0.3,4.9-0.7,6.3s-1,2.3-1.9,2.9c-0.9,0.5-2.2,0.8-4,0.8c-0.4,0-0.6-0.1-0.6-0.3l-1-3.3
	c0,0,0-0.1,0-0.2c0-0.2,0.1-0.3,0.4-0.3c1.1,0,2-0.1,2.5-0.4s0.9-0.9,1.1-1.7c0.2-0.9,0.4-2.3,0.4-4.1c0-1.2,0.1-3.1,0.1-5.6V8.8
	H8.1C8,13,7.6,16.8,7,20.2c-0.7,3.4-1.7,6.2-3.3,8.3c-0.1,0.1-0.2,0.2-0.3,0.2s-0.2,0-0.3-0.1l-2.9-1.8C0.1,26.7,0,26.6,0,26.5
	c0-0.1,0-0.2,0.1-0.3c1.5-2.1,2.6-4.5,3.1-7.4c0.6-2.8,0.9-6.2,1-10H0.8C0.6,8.8,0.4,8.6,0.4,8.3z M17.2,2.8h10.7
	c0.3,0,0.4,0.1,0.4,0.4v24c0,0.3-0.1,0.4-0.4,0.4H17.2c-0.3,0-0.4-0.1-0.4-0.4v-24C16.7,2.9,16.9,2.8,17.2,2.8z M20.7,6.5v17.4h3.8
	V6.5H20.7z"/>
</svg>
