<!-- Generator: Adobe Illustrator 25.0.0, SVG Export Plug-In  -->
<svg version="1.1" xmlns="http://www.w3.org/2000/svg" xmlns:xlink="http://www.w3.org/1999/xlink" x="0px" y="0px" width="29.1px"
	 height="28px" viewBox="0 0 29.1 28" style="overflow:visible;enable-background:new 0 0 29.1 28;" xml:space="preserve">
<defs>
</defs>
<path d="M2.2,14.4l-2.1-3.1L0,11.1c0-0.2,0.1-0.3,0.2-0.4c3.3-2.2,5.7-5.3,7.2-9.3c0.1-0.2,0.2-0.3,0.4-0.3H8l3.1,1.3
	c0.1,0,0.2,0.1,0.3,0.2c0,0.1,0,0.2,0,0.3c-0.9,2.3-2.2,4.5-3.6,6.5s-3.1,3.7-5,5.1c-0.1,0.1-0.2,0.1-0.3,0.1
	C2.4,14.6,2.3,14.5,2.2,14.4z M3.5,26.6l-0.6-3v-0.1c0-0.2,0.1-0.4,0.2-0.5c0.4-0.3,0.9-0.8,1.5-1.5c1.2-1.4,2.5-3.3,4-5.7
	c1.5-2.5,2.5-4.6,3.1-6.5C11.8,9,12,8.9,12.2,9l3.3,1.1c0.1,0,0.2,0.1,0.3,0.2c0.1,0.1,0.1,0.2,0,0.3c-0.9,2.2-2,4.4-3.3,6.6
	s-2.6,4.1-3.8,5.6c5-0.4,9.1-0.8,12.3-1.3c-0.8-1.8-1.8-3.5-2.8-5.1c-0.1-0.1-0.1-0.2-0.1-0.3c0-0.2,0.1-0.3,0.3-0.3l2.8-1.1
	c0.1,0,0.2,0,0.2-0.1c0.2,0,0.3,0.1,0.4,0.2c2.4,3.6,4.4,7.4,5.8,11.3c0,0,0,0.1,0,0.2c0,0.2-0.1,0.3-0.3,0.4L24,28h-0.1
	c-0.2,0-0.4-0.2-0.6-0.7l-0.8-2.1c-2.8,0.4-5.9,0.8-9.4,1.1c-3.4,0.3-6.6,0.5-9.4,0.6C3.7,27,3.6,26.9,3.5,26.6z M26.4,14.3
	c-1.9-1.4-3.5-3-4.9-4.6S18.9,6.1,17.9,4h-5c-0.3,0-0.4-0.1-0.4-0.4V0.4c0-0.3,0.1-0.4,0.4-0.4h7.4c0.3,0,0.4,0.1,0.5,0.3
	c0.9,2.1,2.1,4,3.4,5.7c1.4,1.7,3,3.1,4.7,4.3c0.1,0.1,0.2,0.2,0.2,0.3s0,0.1-0.1,0.3l-2,3.3c-0.1,0.1-0.2,0.2-0.3,0.2
	C26.6,14.4,26.5,14.4,26.4,14.3z"/>
</svg>
