<!-- Generator: Adobe Illustrator 25.0.0, SVG Export Plug-In  -->
<svg version="1.1" xmlns="http://www.w3.org/2000/svg" xmlns:xlink="http://www.w3.org/1999/xlink" x="0px" y="0px" width="29.2px"
	 height="28.7px" viewBox="0 0 29.2 28.7" style="overflow:visible;enable-background:new 0 0 29.2 28.7;" xml:space="preserve">
<defs>
</defs>
<path d="M18.3,28.2V15.9h-2.8v9.4c0,0.3-0.1,0.4-0.4,0.4h-2.7c-0.3,0-0.4-0.1-0.4-0.4v-8.1c-0.5,0.7-1.1,1.4-1.8,2.1
	c-0.1,0.1-0.2,0.2-0.3,0.2c-0.1,0-0.3-0.1-0.3-0.2l-1.8-2.1v11.1c0,0.3-0.1,0.4-0.4,0.4h-3c-0.3,0-0.4-0.1-0.4-0.4V13.5
	c-0.5,0.7-1.1,1.5-1.9,2.3C2,15.9,1.9,16,1.8,16c-0.1,0-0.3-0.1-0.3-0.3l-1.4-3.5C0.1,12.1,0,12,0,11.9s0.1-0.2,0.2-0.3
	c1.4-1.4,2.7-3,3.7-5.1c1.1-2,1.9-4,2.4-6c0.1-0.2,0.2-0.3,0.3-0.3L7,0.3l2.9,0.6c0.2,0,0.3,0.1,0.4,0.3c0,0.1,0,0.1,0,0.2
	C9.6,3.9,8.7,6.2,7.7,8.1v7.8c2.6-2.5,4.6-5.3,6-8.6h-3.4c-0.3,0-0.4-0.1-0.4-0.4V4.1c0-0.3,0.1-0.4,0.4-0.4H15
	c0.3-1.1,0.5-2.2,0.7-3.3c0-0.2,0.2-0.3,0.4-0.4h0.2l3.1,0.3c0.2,0,0.4,0.1,0.4,0.3v0.1c-0.2,0.9-0.4,1.9-0.7,2.9h9.7
	c0.3,0,0.4,0.1,0.4,0.4v2.9c0,0.3-0.1,0.4-0.4,0.4h-11c-0.8,1.9-1.6,3.6-2.5,5h3.1V9.2c0-0.3,0.1-0.4,0.4-0.4h2.7
	c0.3,0,0.4,0.1,0.4,0.4v3.1h5.9c0.3,0,0.5,0.1,0.5,0.4v8.4c0,1.1-0.1,2-0.4,2.6c-0.2,0.6-0.7,1.1-1.3,1.4c-0.7,0.3-1.6,0.4-2.8,0.4
	c-0.3,0-0.5-0.1-0.5-0.4l-0.9-2.8c0-0.1,0-0.1,0-0.2s0-0.2,0.1-0.3s0.2-0.1,0.3-0.1c0.8,0,1.4-0.1,1.6-0.4s0.4-0.8,0.4-1.6v-3.8
	h-2.9v12.4c0,0.3-0.1,0.4-0.4,0.4h-2.7C18.4,28.7,18.3,28.5,18.3,28.2z"/>
</svg>
