<!-- Generator: Adobe Illustrator 25.0.0, SVG Export Plug-In  -->
<svg version="1.1" xmlns="http://www.w3.org/2000/svg" xmlns:xlink="http://www.w3.org/1999/xlink" x="0px" y="0px" width="28.8px"
	 height="28.6px" viewBox="0 0 28.8 28.6" style="overflow:visible;enable-background:new 0 0 28.8 28.6;" xml:space="preserve">
<defs>
</defs>
<path d="M1.3,28.2l-1-3.1c0-0.1,0-0.1,0-0.2c0-0.2,0.1-0.3,0.4-0.3h0.2c0.8,0,1.3-0.1,1.7-0.2c0.4-0.1,0.6-0.3,0.7-0.6
	c0.1-0.3,0.2-0.7,0.2-1.3v-4.3c-0.5,0.1-1,0.3-1.6,0.4c-0.5,0.1-0.9,0.2-1.1,0.3c-0.2,0-0.3-0.1-0.4-0.4L0,15.4v-0.1
	c0-0.2,0.1-0.3,0.4-0.4c0.7-0.1,1.7-0.4,3.1-0.7V8.9H1c-0.3,0-0.4-0.1-0.4-0.4V5.7c0-0.3,0.1-0.4,0.4-0.4h2.5V0.4
	C3.5,0.1,3.6,0,3.9,0h2.9c0.3,0,0.4,0.1,0.4,0.4v4.9h1.7c0.3,0,0.4,0.1,0.4,0.4v2.8c0,0.3-0.1,0.4-0.4,0.4H7.2v4.4
	c0.6-0.2,1.2-0.4,1.8-0.7c0.1,0,0.2,0,0.2-0.1c0.2,0,0.3,0.1,0.3,0.4V16c0,0.3-0.1,0.4-0.3,0.5l-2,0.8v5.4c0,1.6-0.1,2.8-0.4,3.6
	c-0.2,0.8-0.7,1.4-1.4,1.7c-0.7,0.4-1.8,0.5-3.2,0.5H1.8C1.6,28.6,1.4,28.5,1.3,28.2z M12.5,28.5l-2.8-1.9c-0.1-0.1-0.2-0.2-0.2-0.3
	c0-0.1,0.1-0.3,0.2-0.3c2-1.3,3.4-3.1,4.1-5.5c-1.3,0.6-2.5,1-3.6,1.3c0,0-0.1,0-0.2,0c-0.2,0-0.3-0.1-0.4-0.4l-0.7-3
	c0-0.1,0-0.2,0.1-0.3C9.1,18,9.2,18,9.3,18c1.8-0.3,3.4-0.6,4.7-1l0.1-2.6h-3.3c-0.3,0-0.4-0.1-0.4-0.4v-2.6c0-0.3,0.1-0.4,0.4-0.4
	h3.3V8h-3.6c-0.3,0-0.4-0.1-0.4-0.4V4.8c0-0.3,0.1-0.4,0.4-0.4h3.6v-4c0-0.3,0.1-0.4,0.4-0.4h3c0.3,0,0.4,0.1,0.4,0.4v11.3
	c0,3-0.1,5.5-0.3,7.3s-0.6,3.5-1.3,5.2s-1.8,3.1-3.4,4.3c-0.1,0.1-0.2,0.1-0.3,0.1C12.7,28.7,12.6,28.6,12.5,28.5z M20.3,28.2V0.4
	c0-0.3,0.1-0.4,0.4-0.4h3c0.3,0,0.4,0.1,0.4,0.4v3.9h4.1c0.3,0,0.4,0.1,0.4,0.4v2.8c0,0.3-0.1,0.4-0.4,0.4h-4.1v3h3.6
	c0.3,0,0.4,0.1,0.4,0.4V14c0,0.3-0.1,0.4-0.4,0.4h-3.6v3.2h4.3c0.3,0,0.4,0.1,0.4,0.4v2.8c0,0.3-0.1,0.4-0.4,0.4h-4.3v6.7
	c0,0.3-0.1,0.4-0.4,0.4h-3C20.4,28.7,20.3,28.5,20.3,28.2z"/>
</svg>
