<!-- Generator: Adobe Illustrator 25.0.0, SVG Export Plug-In  -->
<svg version="1.1" xmlns="http://www.w3.org/2000/svg" xmlns:xlink="http://www.w3.org/1999/xlink" x="0px" y="0px" width="26.9px"
	 height="28px" viewBox="0 0 26.9 28" style="overflow:visible;enable-background:new 0 0 26.9 28;" xml:space="preserve">
<defs>
</defs>
<path d="M2.8,11.3c-0.2,0-0.3-0.1-0.4-0.2l-2-3c0-0.1,0-0.1,0-0.2s0.1-0.3,0.3-0.3c2.1-0.7,4.2-1.8,6.1-3.1s3.4-2.8,4.4-4.2
	C11.3,0.1,11.5,0,11.8,0l3.6,0.5c0.2,0.1,0.3,0.2,0.3,0.3s0,0.1-0.1,0.3l-0.9,1.3h11c0.3,0,0.4,0.1,0.4,0.4v2.7c0,0.2,0,0.4-0.1,0.5
	c-2.5,3.7-6.1,6.8-10.9,9.4h11.4c0.3,0,0.4,0.1,0.4,0.4v11.8c0,0.3-0.1,0.4-0.4,0.4H6.3c-0.3,0-0.4-0.1-0.4-0.4v-8.5
	c-0.8,0.3-2,0.6-3.7,1.1H2c-0.2,0-0.3-0.1-0.4-0.3l-1.5-3.2c0-0.1,0-0.2-0.1-0.2c0-0.2,0.1-0.3,0.3-0.3c3.8-0.7,7.2-1.6,10.3-2.9
	C9.2,12,7.7,10.8,6.1,9.7c-0.9,0.5-2,1.1-3.1,1.6C3,11.3,2.9,11.3,2.8,11.3z M14.4,11.5c2.8-1.6,5-3.4,6.7-5.5h-9.9
	c-0.4,0.4-1,0.9-1.9,1.5C11.3,8.7,12.9,10.1,14.4,11.5z M22.9,18.9h-13v5.5h13V18.9z"/>
</svg>
