<!-- Generator: Adobe Illustrator 25.0.0, SVG Export Plug-In  -->
<svg version="1.1" xmlns="http://www.w3.org/2000/svg" xmlns:xlink="http://www.w3.org/1999/xlink" x="0px" y="0px" width="28.9px"
	 height="28.7px" viewBox="0 0 28.9 28.7" style="overflow:visible;enable-background:new 0 0 28.9 28.7;" xml:space="preserve">
<defs>
</defs>
<path d="M12.6,28.7c-0.3,0-0.4-0.1-0.5-0.3L11,25.7l-0.1-0.2c0-0.2,0.1-0.3,0.4-0.3h2.8h0.8c2.3,0,3.8-0.1,4.7-0.4
	c0.9-0.3,1.4-0.6,1.6-1.2c0.1-0.3,0.1-0.8,0.1-1.4H5.9c-0.3,0-0.4-0.1-0.4-0.3c0-0.1,0-0.1,0-0.2C6,20.5,6.4,19,6.8,17.4
	c-2,0.7-3.6,1.1-4.7,1.4c0,0-0.1,0-0.2,0c-0.2,0-0.3-0.1-0.4-0.3l-1.4-3.1c0-0.1,0-0.2-0.1-0.2c0-0.2,0.1-0.3,0.4-0.3
	c2.3-0.3,4.6-0.8,6.9-1.4c2.3-0.6,4.4-1.2,6.3-2H1.3c-0.3,0-0.4-0.1-0.4-0.4V8.8c0-0.3,0.1-0.4,0.4-0.4h10.2V5.9H3.9
	c-0.3,0-0.4-0.1-0.4-0.4V3.1c0-0.3,0.1-0.4,0.4-0.4h7.6V0.4c0-0.3,0.1-0.4,0.4-0.4H15c0.3,0,0.4,0.1,0.4,0.4v2.2h6.3
	c0.3,0,0.4,0.1,0.4,0.4v1.6C23,4,23.7,3.1,24.5,2c0.1-0.1,0.2-0.2,0.3-0.2l0.3,0.1l3.1,1.6c0.2,0.1,0.3,0.2,0.3,0.3s0,0.2-0.1,0.3
	c-1.1,1.5-2.5,2.9-4.1,4.3h4.2c0.3,0,0.4,0.1,0.4,0.4v2.5c0,0.3-0.1,0.4-0.4,0.4h-8.2c-1.4,0.8-2.9,1.6-4.3,2.2h11.1
	c0.3,0,0.4,0.1,0.4,0.4v2.4c0,0.3-0.1,0.4-0.4,0.4H11.2l-0.5,2h14.7c0.3,0,0.4,0.1,0.4,0.4c0,1.8-0.1,3.3-0.2,4.5s-0.6,2.2-1.3,2.8
	c-0.7,0.7-1.8,1.1-3.3,1.4s-3.6,0.4-6.4,0.4L12.6,28.7z M21.3,5.8h-5.7v2.5h2.7C19.4,7.5,20.4,6.7,21.3,5.8z"/>
</svg>
