<!-- Generator: Adobe Illustrator 25.0.0, SVG Export Plug-In  -->
<svg version="1.1" xmlns="http://www.w3.org/2000/svg" xmlns:xlink="http://www.w3.org/1999/xlink" x="0px" y="0px" width="29.2px"
	 height="28.5px" viewBox="0 0 29.2 28.5" style="overflow:visible;enable-background:new 0 0 29.2 28.5;" xml:space="preserve">
<defs>
</defs>
<path d="M0,6.5V4c0-0.3,0.1-0.4,0.4-0.4h3.5C3.6,2.7,3.3,1.9,3,1.3C2.9,1.2,2.9,1.1,2.9,1c0-0.2,0.1-0.3,0.3-0.3l2.6-0.6
	c0.1,0,0.2,0,0.3-0.1c0.2,0,0.4,0.1,0.4,0.3c0.4,0.8,0.7,1.9,1.1,3.3h2.8c0.3,0,0.4,0.1,0.4,0.4v2.5c0,0.3-0.1,0.4-0.4,0.4H0.3
	C0.1,6.9,0,6.7,0,6.5z M0.8,27.7v-9c0-0.3,0.1-0.4,0.4-0.4h8.9c0.3,0,0.4,0.1,0.4,0.4v9c0,0.3-0.1,0.4-0.4,0.4H1.2
	C1,28.2,0.8,28,0.8,27.7z M1.2,11.2V9.1c0-0.3,0.1-0.4,0.4-0.4h8.3c0.3,0,0.4,0.1,0.4,0.4v2.1c0,0.3-0.1,0.4-0.4,0.4H1.6
	C1.3,11.7,1.2,11.5,1.2,11.2z M1.2,15.9v-2.1c0-0.3,0.1-0.4,0.4-0.4h8.3c0.3,0,0.4,0.1,0.4,0.4v2.1c0,0.3-0.1,0.4-0.4,0.4H1.6
	C1.3,16.3,1.2,16.2,1.2,15.9z M7.3,25.1v-3.8H4.1v3.8H7.3z M11.7,15.5v-2.7c0-0.3,0.1-0.4,0.4-0.4h6.5c0.3,0,0.4,0.1,0.4,0.4v2.7
	c0,0.3-0.1,0.4-0.4,0.4h-1.4v6c0.7-0.1,1.4-0.3,2.2-0.5c0,0,0.1,0,0.2,0c0.2,0,0.3,0.1,0.3,0.4v2.7c0,0.3-0.1,0.4-0.3,0.5
	c-2.3,0.7-4.8,1.3-7.6,1.7h-0.1c-0.2,0-0.3-0.1-0.3-0.4l-0.3-2.8v-0.1c0-0.2,0.1-0.4,0.4-0.4l0.9-0.1l1.3-0.2v-6.8h-1.6
	C11.8,15.9,11.7,15.8,11.7,15.5z M11.4,8.9V6c0-0.3,0.1-0.4,0.4-0.4h7.7V0.5c0-0.3,0.1-0.4,0.4-0.4h3c0.3,0,0.4,0.1,0.4,0.4
	c0,1.8-0.1,3.5-0.1,5.1h2.2c-0.4-1.3-1-2.7-1.8-4c0-0.1-0.1-0.1-0.1-0.3S23.6,1,23.8,1l2.1-0.8c0,0,0.1,0,0.2,0
	c0.2,0,0.3,0.1,0.4,0.2c0.4,0.6,0.8,1.2,1.1,1.9c0.3,0.7,0.6,1.4,0.8,2c0,0,0,0.1,0,0.2c0,0.2-0.1,0.3-0.3,0.4l-1.9,0.7h1.4
	C27.9,5.6,28,5.7,28,6v2.9c0,0.3-0.1,0.4-0.4,0.4h-4.5c0.1,6.3,0.6,10.8,1.5,13.5c0.2,0.5,0.4,0.8,0.6,0.8c0.3,0,0.5-0.3,0.7-1
	s0.4-1.5,0.5-2.5c0-0.3,0.1-0.4,0.3-0.4c0.1,0,0.2,0,0.3,0.1l2,1.8c0.1,0.1,0.2,0.3,0.2,0.4v0.3c-0.3,2-0.8,3.6-1.6,4.6
	s-1.6,1.6-2.5,1.6c-0.7,0-1.4-0.3-2-1c-0.6-0.6-1.2-1.6-1.6-2.8c-1.1-3.2-1.8-8.4-2-15.6h-7.8C11.5,9.3,11.4,9.2,11.4,8.9z"/>
</svg>
