<!-- Generator: Adobe Illustrator 25.0.0, SVG Export Plug-In  -->
<svg version="1.1" xmlns="http://www.w3.org/2000/svg" xmlns:xlink="http://www.w3.org/1999/xlink" x="0px" y="0px" width="28.9px"
	 height="28.7px" viewBox="0 0 28.9 28.7" style="overflow:visible;enable-background:new 0 0 28.9 28.7;" xml:space="preserve">
<defs>
</defs>
<path d="M2.4,28.5l-2.3-3.2C0,25.2,0,25.1,0,25c0-0.1,0.1-0.3,0.3-0.3c2.5-1,4.7-2.6,6.5-4.8c1.8-2.1,3.1-4.6,4-7.3s1.4-5.4,1.4-8.2
	v-4c0-0.3,0.1-0.4,0.4-0.4h3.5c0.3,0,0.4,0.1,0.4,0.4v2.3v0.1c0.1,3.2,0.6,6.2,1.6,9.1s2.4,5.5,4.2,7.7s3.9,3.9,6.3,4.9
	c0.2,0.1,0.3,0.2,0.3,0.3c0,0.1,0,0.1-0.1,0.3l-2.2,3.2c-0.1,0.1-0.2,0.2-0.4,0.2c-0.1,0-0.1,0-0.2-0.1c-2.5-1.3-4.8-3.2-6.9-5.8
	c-2.1-2.6-3.6-5.5-4.6-8.7c-1,3.2-2.5,6.1-4.5,8.8c-2,2.6-4.4,4.6-7.1,5.9c-0.1,0-0.2,0.1-0.3,0.1C2.6,28.7,2.5,28.6,2.4,28.5z"/>
</svg>
