<!-- Generator: Adobe Illustrator 25.0.0, SVG Export Plug-In  -->
<svg version="1.1" xmlns="http://www.w3.org/2000/svg" xmlns:xlink="http://www.w3.org/1999/xlink" x="0px" y="0px" width="28.6px"
	 height="28.7px" viewBox="0 0 28.6 28.7" style="overflow:visible;enable-background:new 0 0 28.6 28.7;" xml:space="preserve">
<defs>
</defs>
<path d="M8.1,28.7l-3.3-1.3c-0.2-0.1-0.3-0.2-0.3-0.3c0-0.1,0-0.2,0.1-0.3c1.1-2,1.7-4.9,1.7-8.5v-1.8c-1.2,1.2-2.4,2.3-3.6,3.2
	c0,0-0.1,0-0.1,0.1c-0.1,0-0.1,0-0.2,0c-0.1,0-0.3-0.1-0.3-0.2l-2-3C0,16.5,0,16.4,0,16.3c0-0.1,0.1-0.2,0.2-0.3
	c3.5-2.4,6.1-5.5,8-9.2H1.6c-0.3,0-0.4-0.1-0.4-0.4V3.5c0-0.3,0.1-0.4,0.4-0.4h8.1c0.4-1.2,0.6-2.1,0.8-2.8C10.6,0.1,10.7,0,10.8,0
	H11l3.5,0.4c0.3,0,0.4,0.2,0.4,0.3s0,0.2,0,0.3l-0.6,2h13.9c0.3,0,0.4,0.1,0.4,0.4v2.8c0,0.3-0.1,0.4-0.4,0.4H12.9
	c-0.3,0.8-0.7,1.6-1.2,2.4h14c0.3,0,0.4,0.1,0.4,0.4v14.1c0,1.2-0.2,2.1-0.6,2.8c-0.4,0.7-1.1,1.2-2.1,1.5s-2.4,0.5-4.2,0.5
	c-0.4,0-0.7,0-1,0s-0.5-0.2-0.5-0.3l-0.9-2.8c0-0.1,0-0.1,0-0.2c0-0.2,0.1-0.3,0.3-0.3h0.2h1.4c1,0,1.8-0.1,2.3-0.2s0.9-0.3,1-0.5
	c0.2-0.2,0.2-0.5,0.2-0.9v-0.5H10.1c-0.4,2.5-0.9,4.4-1.5,5.9c0,0.1-0.1,0.2-0.3,0.2C8.2,28.7,8.1,28.7,8.1,28.7z M21.9,19.7v-2.1
	H10.3c0,0.9,0,1.6-0.1,2.1H21.9z M21.9,14.6v-2.1H10.3v2.1C10.3,14.6,21.9,14.6,21.9,14.6z"/>
</svg>
