<!-- Generator: Adobe Illustrator 25.0.0, SVG Export Plug-In  -->
<svg version="1.1" xmlns="http://www.w3.org/2000/svg" xmlns:xlink="http://www.w3.org/1999/xlink" x="0px" y="0px" width="28.8px"
	 height="28.6px" viewBox="0 0 28.8 28.6" style="overflow:visible;enable-background:new 0 0 28.8 28.6;" xml:space="preserve">
<defs>
</defs>
<path d="M1.1,28.4L0,25.6c0,0,0-0.1,0-0.2c0-0.2,0.1-0.3,0.4-0.3c5.7-0.2,9.3-1.2,10.7-3.1L1,22.1c-0.3,0-0.4-0.1-0.4-0.4v-2.3
	C0.6,19.1,0.7,19,1,19h11.1c0.1-0.6,0.1-1.3,0.1-2c0-0.3,0.1-0.5,0.4-0.5h3.3c0.3,0,0.4,0.1,0.4,0.4s0,0.6,0,1c0,0.3-0.1,0.7-0.1,1
	h4.7c-0.4-0.6-0.9-1.2-1.4-1.7c-0.1-0.1-0.2-0.2-0.2-0.3c0-0.1,0.1-0.1,0.2-0.2c0.1-0.1,0.2-0.1,0.3-0.2l-0.6-1.3l-2,1.2
	c-0.1,0.1-0.2,0.1-0.3,0.1s-0.3-0.1-0.3-0.2c-0.7-0.9-1.6-1.7-2.6-2.4c-0.1-0.1-0.2-0.2-0.2-0.3s0.1-0.2,0.2-0.3l1.8-0.9h-3.1
	c-0.3,0-0.4-0.1-0.4-0.4v-1.7c0-0.3,0.1-0.4,0.4-0.4h0.4l-0.2-0.2l-1-1.7V7.8c0-0.2,0.1-0.3,0.4-0.3c1.3-0.1,2.3-0.2,2.9-0.3
	c-0.3-0.4-0.6-0.7-0.8-0.9C14.3,6.2,14.2,6,14.2,6c0-0.1,0.1-0.2,0.3-0.3l1.4-0.5c0.1,0,0.2,0,0.2-0.1c0.1,0,0.2,0.1,0.3,0.2
	c0.5,0.4,0.9,0.8,1.3,1.4c0.5-0.1,1-0.2,1.4-0.4c-0.3-0.3-0.7-0.7-1.2-1.1c0-0.2,0-0.3,0-0.3c0-0.1,0.1-0.2,0.3-0.3L19.7,4
	c0.1,0,0.1,0,0.3,0c0.1,0,0.2,0,0.3,0.1c0.5,0.4,1,0.8,1.4,1.3c1-0.5,1.9-1.1,2.5-1.7h-5.9c-1.4,0.6-3,1.1-4.7,1.5h-0.2
	c-0.2,0-0.3-0.1-0.4-0.3l-1.1-1.7c0-0.1,0-0.2,0-0.3c0-0.2,0.1-0.3,0.4-0.3c1.5-0.2,2.8-0.5,4-0.9s2.1-0.9,2.7-1.5
	C19.1,0.1,19.2,0,19.4,0h0.2l2.7,0.5c0.2,0,0.3,0.1,0.3,0.3c0,0.1-0.1,0.2-0.2,0.3L22,1.4h5.6c0.3,0,0.4,0.1,0.4,0.4v1.4
	c0,0.2,0,0.3-0.1,0.5c-1.1,1.5-2.8,2.8-5.2,3.9c-2.4,1.1-5.2,1.8-8.5,2.2h8.1V8.5c0-0.3,0.1-0.4,0.4-0.4h2.9c0.3,0,0.4,0.1,0.4,0.4
	v1.4h2c0.3,0,0.4,0.1,0.4,0.4V12c0,0.3-0.1,0.4-0.4,0.4h-2v1c0,1.1-0.2,2-0.5,2.5c-0.4,0.5-1.1,0.9-2.1,1.1c0.4,0.4,0.8,1,1.2,1.9
	h3.2c0.3,0,0.4,0.1,0.4,0.4v2.3c0,0.3-0.1,0.4-0.4,0.4l-10.4,0c1.1,0.9,2.6,1.6,4.5,2.1s4.1,0.8,6.5,0.8c0.3,0,0.4,0.1,0.4,0.3
	c0,0.1,0,0.1,0,0.2l-1.1,2.8c-0.1,0.2-0.3,0.3-0.5,0.3c-6-0.4-10.3-2-12.8-4.9c-2.1,2.7-6.3,4.4-12.7,4.9H1.6
	C1.4,28.7,1.2,28.6,1.1,28.4z M3.2,17.8l-2.6-1.2c-0.2-0.1-0.3-0.2-0.3-0.3c0-0.1,0-0.1,0.1-0.2S0.5,16,0.5,16
	c1-0.9,1.6-2.3,1.8-3.9H0.9c-0.3,0-0.4-0.1-0.4-0.4V9.4C0.5,9.1,0.6,9,0.9,9h6.7V7.3H2.2c-0.3,0-0.4-0.1-0.4-0.4V1.1
	c0-0.3,0.1-0.4,0.4-0.4h2.6c0.3,0,0.4,0.1,0.4,0.4v3.1h2.3V0.5c0-0.3,0.1-0.4,0.4-0.4h2.9c0.3,0,0.4,0.1,0.4,0.4v16.6
	c0,0.3-0.1,0.4-0.4,0.4H7.9c-0.3,0-0.4-0.1-0.4-0.4V12H5.9c-0.2,2.4-0.9,4.3-2.1,5.7c-0.1,0.1-0.2,0.2-0.3,0.2
	C3.3,17.8,3.3,17.8,3.2,17.8z M19.7,14.6c1.1,0,1.8-0.1,2.2-0.4c0.3-0.2,0.5-0.6,0.5-1.2v-0.5h-5.9c1,0.5,1.9,1.2,2.8,2.1H19.7z"/>
</svg>
