<!-- Generator: Adobe Illustrator 25.0.0, SVG Export Plug-In  -->
<svg version="1.1" xmlns="http://www.w3.org/2000/svg" xmlns:xlink="http://www.w3.org/1999/xlink" x="0px" y="0px" width="5.9px"
	 height="10.6px" viewBox="0 0 5.9 10.6" style="overflow:visible;enable-background:new 0 0 5.9 10.6;" xml:space="preserve">
<defs>
</defs>
<path d="M0,10.3L0.1,10l1.6-4.9c-0.4-0.3-0.8-0.6-1-1S0.3,3.2,0.3,2.7c0-0.8,0.3-1.4,0.8-1.9S2.3,0,3.1,0s1.5,0.3,2,0.8
	s0.8,1.1,0.8,1.9c0,0.5-0.1,1-0.3,1.6C5.4,4.9,5,5.8,4.4,7.2L3,10.3c-0.1,0.2-0.3,0.3-0.5,0.3H0.4C0.1,10.6,0,10.5,0,10.3z"/>
</svg>
