<!-- Generator: Adobe Illustrator 25.0.0, SVG Export Plug-In  -->
<svg version="1.1" xmlns="http://www.w3.org/2000/svg" xmlns:xlink="http://www.w3.org/1999/xlink" x="0px" y="0px" width="29.5px"
	 height="28px" viewBox="0 0 29.5 28" style="overflow:visible;enable-background:new 0 0 29.5 28;" xml:space="preserve">
<defs>
</defs>
<path d="M0.1,25.5c0-0.1,0.1-0.3,0.2-0.3c1.3-1,2.4-2.2,3.2-3.4c0.8-1.2,1.4-2.5,1.7-3.8H1.8c-0.3,0-0.4-0.1-0.4-0.4v-2.2
	c0-0.3,0.1-0.5,0.2-0.6c0.9-1,1.8-2.1,2.6-3.5h-3c-0.1,0-0.2,0-0.3-0.1c-0.1-0.1-0.1-0.2-0.1-0.3V8.1c0-0.1,0-0.2,0.1-0.3
	C1,7.7,1.1,7.7,1.2,7.7h6.6c0.2,0,0.3,0,0.4,0.1C8.3,7.9,8.3,8,8.3,8.1v2.1c0,0.2,0,0.3-0.1,0.5c-0.1,0.3-0.4,0.8-0.9,1.6
	s-1.1,1.6-1.7,2.5h2.8c0.3,0,0.4,0.2,0.4,0.5v0.3v0.9l-0.1,1c-0.2,1.4-0.6,2.9-1.2,4.3c0.3,0.3,0.5,0.5,0.7,0.6s0.4,0.3,0.6,0.4
	c1.2,0.8,2.7,1.3,4.7,1.5c0.8,0.1,1.7,0.1,2.9,0.1h2c4-0.1,7-0.2,8.9-0.4c0.5-0.1,1.1-0.1,1.8-0.3h0.1c0.1,0,0.2,0,0.2,0.1
	c0.1,0.1,0.1,0.1,0.1,0.2v0.2l-0.9,3c-0.1,0.2-0.3,0.4-0.6,0.4c-2.5,0.3-5.6,0.4-9.5,0.4c-2.4,0-4.3-0.1-5.6-0.2
	c-1.1-0.1-2.1-0.3-2.8-0.4s-1.4-0.4-2-0.8c-0.8-0.4-1.6-1-2.3-1.7C5,26.1,4.2,27,3.3,27.8c0,0-0.1,0.1-0.2,0.1s-0.2,0-0.3,0
	c-0.1,0-0.2,0-0.3-0.1L0,25.7C0.2,25.7,0.1,25.6,0.1,25.5z M4.8,6.4c-0.5-0.8-1-1.5-1.6-2.1C2.7,3.7,2.1,3.1,1.3,2.4
	C1.2,2.3,1.1,2.2,1.1,2.1s0.1-0.2,0.2-0.3l2.2-1.7C3.6,0,3.7,0,3.8,0C3.9,0,4,0,4.1,0.1C4.6,0.6,5.2,1.2,5.9,2
	c0.6,0.7,1.2,1.5,1.7,2.3c0.1,0.1,0.1,0.2,0.1,0.3c0,0.1-0.1,0.3-0.2,0.4L5.3,6.7C5.2,6.8,5.2,6.8,5.1,6.8C5,6.6,4.9,6.6,4.8,6.4z
	 M22.3,22.9l-0.7-1.8h-6.4c-0.3,0-0.4-0.1-0.4-0.4v-6.3c0-0.3,0.1-0.4,0.4-0.4h7.9c0.3,0,0.4,0.1,0.4,0.4V20
	c0.5-0.1,0.8-0.2,0.9-0.4s0.2-0.5,0.2-1V3.7H13.7v6.1c0,2.8-0.1,5.3-0.3,7.4c-0.2,2.1-0.6,3.9-1.2,5.5c0,0.1-0.1,0.2-0.2,0.3
	c-0.1,0-0.2,0-0.3-0.1l-2.6-1.6c-0.2-0.1-0.3-0.3-0.2-0.6c0.6-1.4,0.9-3,1.1-4.7s0.2-3.9,0.2-6.6V1c0-0.3,0.1-0.4,0.4-0.4h17.1
	c0.3,0,0.4,0.1,0.4,0.4v17.5c0,1.3-0.1,2.3-0.4,3s-0.8,1.1-1.5,1.4s-1.9,0.4-3.4,0.4C22.6,23.2,22.4,23.1,22.3,22.9z M14.4,12.2
	v-1.8c0-0.3,0.1-0.4,0.4-0.4h2.7V8.4h-2.3c-0.3,0-0.4-0.1-0.4-0.4V6.2c0-0.3,0.1-0.4,0.4-0.4h2.3v-1c0-0.3,0.1-0.4,0.4-0.4h2.4
	c0.3,0,0.4,0.1,0.4,0.4v1h2.4c0.3,0,0.4,0.1,0.4,0.4V8c0,0.3-0.1,0.4-0.4,0.4h-2.4v1.5h2.6c0.3,0,0.4,0.1,0.4,0.4v1.8
	c0,0.3-0.1,0.4-0.4,0.4h-8.6C14.6,12.6,14.4,12.5,14.4,12.2z M20.7,18.5v-2h-3.1v2H20.7z"/>
</svg>
