<!-- Generator: Adobe Illustrator 25.0.0, SVG Export Plug-In  -->
<svg version="1.1" xmlns="http://www.w3.org/2000/svg" xmlns:xlink="http://www.w3.org/1999/xlink" x="0px" y="0px" width="31.6px"
	 height="24.2px" viewBox="0 0 31.6 24.2" style="overflow:visible;enable-background:new 0 0 31.6 24.2;" xml:space="preserve">
<style type="text/css">
	.st0{fill:#040000;}
</style>
<defs>
</defs>
<path class="st0" d="M0,7.1c0-0.3,0.1-0.6,0.3-0.8c0.2-0.2,0.5-0.3,0.9-0.3h4.4c0.2,0,0.4,0.1,0.6,0.2c0.2,0.1,0.4,0.3,0.5,0.4
	l7.4,10L25,0.5C25.1,0.2,25.4,0,25.9,0h4.4c0.4,0,0.7,0.1,0.9,0.3c0.2,0.2,0.3,0.4,0.3,0.8c0,0.2-0.1,0.5-0.4,1L18.9,23.6
	c-0.1,0.1-0.2,0.3-0.3,0.4c-0.1,0.1-0.3,0.2-0.4,0.2h-8c-0.1,0-0.3-0.1-0.4-0.2c-0.1-0.1-0.3-0.2-0.3-0.4l-9-15.6
	C0.1,7.6,0,7.3,0,7.1z"/>
</svg>
