<svg xmlns="http://www.w3.org/2000/svg" xmlns:xlink="http://www.w3.org/1999/xlink" xml:space="preserve" viewBox="0 0 57.8 69.6"><defs><path id="a" d="M5.5 28.9C5.5 16 16 5.5 28.9 5.5S52.3 16 52.3 28.9 41.8 52.3 28.9 52.3 5.5 41.8 5.5 28.9M28.9 0C12.9 0 0 12.9 0 28.9v1.6c0 .2 0 .5.1.7 0 .3 0 .6.1.8 0 .3.1.5.1.8 0 .2.1.5.1.7 0 .3.1.6.2.9 0 .2.1.4.1.6.1.3.1.6.2.9 0 .2.1.3.1.5.1.3.2.7.3 1 0 .1.1.2.1.3.1.4.2.7.4 1.1v.1C4 45 8.2 50.1 13.7 53.4l-1.5 16.2 16.5-6.9 17 6.9-1.5-16.2c8.2-5.1 13.6-14.2 13.6-24.5C57.8 12.9 44.9 0 28.9 0"/></defs><clipPath id="b"><use xlink:href="#a" style="overflow:visible"/></clipPath><linearGradient id="c" x1="0" x2="1" y1="69.674" y2="69.674" gradientTransform="rotate(221.348 -916.396 2443.69)scale(-69.9906 69.9906)" gradientUnits="userSpaceOnUse"><stop offset="0" style="stop-color:#d79c75"/><stop offset=".002" style="stop-color:#d79c75"/><stop offset=".241" style="stop-color:#e6a97b"/><stop offset=".317" style="stop-color:#e7aa7d"/><stop offset=".35" style="stop-color:#e9b085"/><stop offset=".375" style="stop-color:#ecba92"/><stop offset=".396" style="stop-color:#f1c8a4"/><stop offset=".409" style="stop-color:#f6d5b6"/><stop offset=".413" style="stop-color:#f4d2b3"/><stop offset=".465" style="stop-color:#e3b795"/><stop offset=".522" style="stop-color:#d5a17d"/><stop offset=".588" style="stop-color:#cb916c"/><stop offset=".667" style="stop-color:#c48561"/><stop offset=".771" style="stop-color:#c07f5b"/><stop offset="1" style="stop-color:#be7d59"/></linearGradient><path d="m25.2-28.7 67.1 59.1-59.7 67.9-67.1-59z" style="clip-path:url(#b);fill:url(#c)"/><defs><path id="d" d="M5.5 28.9C5.5 16 16 5.5 28.9 5.5S52.3 16 52.3 28.9 41.8 52.3 28.9 52.3 5.5 41.8 5.5 28.9m-1.8 0c0 13.9 11.3 25.2 25.2 25.2s25.2-11.3 25.2-25.2S42.8 3.7 28.9 3.7 3.7 15 3.7 28.9"/></defs><clipPath id="e"><use xlink:href="#d" style="overflow:visible"/></clipPath><linearGradient id="f" x1="0" x2="1" y1="69.647" y2="69.647" gradientTransform="rotate(53.326 5394.294 2820.451)scale(-78.3444 78.3444)" gradientUnits="userSpaceOnUse"><stop offset="0" style="stop-color:#d79c75"/><stop offset=".002" style="stop-color:#d79c75"/><stop offset=".241" style="stop-color:#e6a97b"/><stop offset=".317" style="stop-color:#e7aa7d"/><stop offset=".35" style="stop-color:#e9b085"/><stop offset=".375" style="stop-color:#ecba92"/><stop offset=".396" style="stop-color:#f1c8a4"/><stop offset=".409" style="stop-color:#f6d5b6"/><stop offset=".413" style="stop-color:#f4d2b3"/><stop offset=".465" style="stop-color:#e3b795"/><stop offset=".522" style="stop-color:#d5a17d"/><stop offset=".588" style="stop-color:#cb916c"/><stop offset=".667" style="stop-color:#c48561"/><stop offset=".771" style="stop-color:#c07f5b"/><stop offset="1" style="stop-color:#be7d59"/></linearGradient><path d="m21.7 78.3-42.2-56.6 56.6-42.2 42.2 56.6z" style="clip-path:url(#e);fill:url(#f)"/><defs><path id="g" d="M27.6 12.8 24 23.2H13.9c-1.3 0-1.9 1.7-.8 2.5l8.5 6.1L18.4 42c-.4 1.3 1.1 2.3 2.1 1.5l8.5-6.2 8.7 6.2c1.1.8 2.5-.3 2.1-1.5l-3.2-10.2 8.6-6.2c1.1-.8.5-2.5-.8-2.5H33.8l-3.5-10.4c-.2-.6-.8-.9-1.3-.9-.6.1-1.2.4-1.4 1"/></defs><clipPath id="h"><use xlink:href="#g" style="overflow:visible"/></clipPath><linearGradient id="i" x1="0" x2="1" y1="69.709" y2="69.709" gradientTransform="rotate(221.348 -432.83 1183.92)scale(-33.8082 33.8082)" gradientUnits="userSpaceOnUse"><stop offset="0" style="stop-color:#d79c75"/><stop offset=".002" style="stop-color:#d79c75"/><stop offset=".241" style="stop-color:#e6a97b"/><stop offset=".317" style="stop-color:#e7aa7d"/><stop offset=".35" style="stop-color:#e9b085"/><stop offset=".375" style="stop-color:#ecba92"/><stop offset=".396" style="stop-color:#f1c8a4"/><stop offset=".409" style="stop-color:#f6d5b6"/><stop offset=".413" style="stop-color:#f4d2b3"/><stop offset=".465" style="stop-color:#e3b795"/><stop offset=".522" style="stop-color:#d5a17d"/><stop offset=".588" style="stop-color:#cb916c"/><stop offset=".667" style="stop-color:#c48561"/><stop offset=".771" style="stop-color:#c07f5b"/><stop offset="1" style="stop-color:#be7d59"/></linearGradient><path d="m26.9-5.1 35.5 31.2-31.1 35.3-35.5-31.2z" style="clip-path:url(#h);fill:url(#i)"/></svg>