<svg xmlns="http://www.w3.org/2000/svg" xmlns:xlink="http://www.w3.org/1999/xlink" xml:space="preserve" viewBox="0 0 57.8 69.6"><defs><path id="a" d="M5.5 28.9C5.5 16 16 5.5 28.9 5.5S52.3 16 52.3 28.9 41.8 52.3 28.9 52.3 5.5 41.8 5.5 28.9M28.9 0C12.9 0 0 12.9 0 28.9v1.6c0 .2 0 .5.1.7 0 .3 0 .6.1.8 0 .3.1.5.1.8 0 .2.1.5.1.7 0 .3.1.6.2.9 0 .2.1.4.1.6.1.3.1.6.2.9 0 .2.1.3.1.5.1.3.2.7.3 1 0 .1.1.2.1.3.1.4.2.7.4 1.1v.1C4 45 8.2 50.1 13.7 53.4l-1.5 16.2 16.5-6.9 17 6.9-1.5-16.2c8.2-5.1 13.6-14.2 13.6-24.5C57.8 12.9 44.9 0 28.9 0"/></defs><clipPath id="b"><use xlink:href="#a" style="overflow:visible"/></clipPath><linearGradient id="c" x1="0" x2="1" y1="69.674" y2="69.674" gradientTransform="rotate(221.348 -916.396 2443.69)scale(-69.9906 69.9906)" gradientUnits="userSpaceOnUse"><stop offset="0" style="stop-color:#cd8c3a"/><stop offset=".004" style="stop-color:#cd8c3a"/><stop offset=".234" style="stop-color:#ddb373"/><stop offset=".306" style="stop-color:#deb575"/><stop offset=".337" style="stop-color:#dfb97c"/><stop offset=".36" style="stop-color:#e2c088"/><stop offset=".38" style="stop-color:#e7ca9a"/><stop offset=".397" style="stop-color:#ecd7b0"/><stop offset=".406" style="stop-color:#f0e0c1"/><stop offset=".433" style="stop-color:#e5cda5"/><stop offset=".474" style="stop-color:#d6b684"/><stop offset=".52" style="stop-color:#caa269"/><stop offset=".571" style="stop-color:#c09255"/><stop offset=".629" style="stop-color:#b98747"/><stop offset=".698" style="stop-color:#b37e3e"/><stop offset=".789" style="stop-color:#b07a39"/><stop offset=".99" style="stop-color:#b07937"/><stop offset="1" style="stop-color:#b07937"/></linearGradient><path d="m25.2-28.7 67.1 59.1-59.7 67.9-67.1-59z" style="clip-path:url(#b);fill:url(#c)"/><defs><path id="d" d="M5.5 28.9C5.5 16 16 5.5 28.9 5.5S52.3 16 52.3 28.9 41.8 52.3 28.9 52.3 5.5 41.8 5.5 28.9m-1.8 0c0 13.9 11.3 25.2 25.2 25.2s25.2-11.3 25.2-25.2S42.8 3.7 28.9 3.7 3.7 15 3.7 28.9"/></defs><clipPath id="e"><use xlink:href="#d" style="overflow:visible"/></clipPath><linearGradient id="f" x1="0" x2="1" y1="69.647" y2="69.647" gradientTransform="rotate(53.326 5394.294 2820.451)scale(-78.3444 78.3444)" gradientUnits="userSpaceOnUse"><stop offset="0" style="stop-color:#cd8c3a"/><stop offset=".004" style="stop-color:#cd8c3a"/><stop offset=".234" style="stop-color:#ddb373"/><stop offset=".306" style="stop-color:#deb575"/><stop offset=".337" style="stop-color:#dfb97c"/><stop offset=".36" style="stop-color:#e2c088"/><stop offset=".38" style="stop-color:#e7ca9a"/><stop offset=".397" style="stop-color:#ecd7b0"/><stop offset=".406" style="stop-color:#f0e0c1"/><stop offset=".433" style="stop-color:#e5cda5"/><stop offset=".474" style="stop-color:#d6b684"/><stop offset=".52" style="stop-color:#caa269"/><stop offset=".571" style="stop-color:#c09255"/><stop offset=".629" style="stop-color:#b98747"/><stop offset=".698" style="stop-color:#b37e3e"/><stop offset=".789" style="stop-color:#b07a39"/><stop offset=".99" style="stop-color:#b07937"/><stop offset="1" style="stop-color:#b07937"/></linearGradient><path d="m21.7 78.3-42.2-56.6 56.6-42.2 42.2 56.6z" style="clip-path:url(#e);fill:url(#f)"/><defs><path id="g" d="M28.6 14.5c-.3 0-.5.1-.7.3l-8.1 7c-.2.1-.2.3-.2.5 0 .1 0 .2.1.4l1 2c.1.3.3.4.5.4h.2l4.9-1.6v19.3q0 .6.6.6H33q.6 0 .6-.6V15.1q0-.6-.6-.6z"/></defs><clipPath id="h"><use xlink:href="#g" style="overflow:visible"/></clipPath><linearGradient id="i" x1="0" x2="1" y1="69.558" y2="69.558" gradientTransform="rotate(41.348 -2319.169 -831.93)scale(24.948 -24.948)" gradientUnits="userSpaceOnUse"><stop offset="0" style="stop-color:#cd8c3a"/><stop offset=".004" style="stop-color:#cd8c3a"/><stop offset=".234" style="stop-color:#ddb373"/><stop offset=".306" style="stop-color:#deb575"/><stop offset=".337" style="stop-color:#dfb97c"/><stop offset=".36" style="stop-color:#e2c088"/><stop offset=".38" style="stop-color:#e7ca9a"/><stop offset=".397" style="stop-color:#ecd7b0"/><stop offset=".406" style="stop-color:#f0e0c1"/><stop offset=".433" style="stop-color:#e5cda5"/><stop offset=".474" style="stop-color:#d6b684"/><stop offset=".52" style="stop-color:#caa269"/><stop offset=".571" style="stop-color:#c09255"/><stop offset=".629" style="stop-color:#b98747"/><stop offset=".698" style="stop-color:#b37e3e"/><stop offset=".789" style="stop-color:#b07a39"/><stop offset=".99" style="stop-color:#b07937"/><stop offset="1" style="stop-color:#b07937"/></linearGradient><path d="m25.6 7.5 22.3 19.6-20.5 23.2L5.2 30.7z" style="clip-path:url(#h);fill:url(#i)"/></svg>