<?xml version="1.0" encoding="utf-8"?>
<!-- Generator: Adobe Illustrator 25.0.0, SVG Export Plug-In . SVG Version: 6.00 Build 0)  -->
<svg version="1.1" id="圖層_1" xmlns="http://www.w3.org/2000/svg" xmlns:xlink="http://www.w3.org/1999/xlink" x="0px" y="0px"
	 viewBox="0 0 57.8 69.6" style="enable-background:new 0 0 57.8 69.6;" xml:space="preserve">
<style type="text/css">
	.st0{clip-path:url(#SVGID_2_);fill:url(#SVGID_3_);}
	.st1{clip-path:url(#SVGID_5_);fill:url(#SVGID_6_);}
	.st2{clip-path:url(#SVGID_8_);fill:url(#SVGID_9_);}
</style>
<g>
	<defs>
		<path id="SVGID_1_" d="M5.5,28.9C5.5,16,16,5.5,28.9,5.5c12.9,0,23.4,10.5,23.4,23.4S41.8,52.3,28.9,52.3
			C16,52.3,5.5,41.8,5.5,28.9 M28.9,0C12.9,0,0,12.9,0,28.9C0,29,0,29,0,29.1c0,0.5,0,0.9,0,1.4c0,0.2,0,0.5,0.1,0.7
			c0,0.3,0,0.6,0.1,0.8c0,0.3,0.1,0.5,0.1,0.8c0,0.2,0.1,0.5,0.1,0.7c0,0.3,0.1,0.6,0.2,0.9c0,0.2,0.1,0.4,0.1,0.6
			c0.1,0.3,0.1,0.6,0.2,0.9c0,0.2,0.1,0.3,0.1,0.5c0.1,0.3,0.2,0.7,0.3,1c0,0.1,0.1,0.2,0.1,0.3c0.1,0.4,0.2,0.7,0.4,1.1
			c0,0,0,0.1,0,0.1C4,45,8.2,50.1,13.7,53.4l-1.5,16.2l16.5-6.9l17,6.9l-1.5-16.2c8.2-5.1,13.6-14.2,13.6-24.5
			C57.8,12.9,44.9,0,28.9,0z"/>
	</defs>
	<clipPath id="SVGID_2_">
		<use xlink:href="#SVGID_1_"  style="overflow:visible;"/>
	</clipPath>
	
		<linearGradient id="SVGID_3_" gradientUnits="userSpaceOnUse" x1="0" y1="69.6743" x2="1" y2="69.6743" gradientTransform="matrix(52.5429 46.2377 46.2377 -52.5429 -3218.7158 3672.8049)">
		<stop  offset="0" style="stop-color:#CD8C3A"/>
		<stop  offset="3.860640e-03" style="stop-color:#CD8C3A"/>
		<stop  offset="0.2338" style="stop-color:#DDB373"/>
		<stop  offset="0.3059" style="stop-color:#DEB575"/>
		<stop  offset="0.3371" style="stop-color:#DFB97C"/>
		<stop  offset="0.3605" style="stop-color:#E2C088"/>
		<stop  offset="0.38" style="stop-color:#E7CA9A"/>
		<stop  offset="0.3968" style="stop-color:#ECD7B0"/>
		<stop  offset="0.4061" style="stop-color:#F0E0C1"/>
		<stop  offset="0.4331" style="stop-color:#E5CDA5"/>
		<stop  offset="0.4744" style="stop-color:#D6B684"/>
		<stop  offset="0.5203" style="stop-color:#CAA269"/>
		<stop  offset="0.5711" style="stop-color:#C09255"/>
		<stop  offset="0.6289" style="stop-color:#B98747"/>
		<stop  offset="0.6979" style="stop-color:#B37E3E"/>
		<stop  offset="0.789" style="stop-color:#B07A39"/>
		<stop  offset="0.9899" style="stop-color:#B07937"/>
		<stop  offset="1" style="stop-color:#B07937"/>
	</linearGradient>
	<polygon class="st0" points="25.2,-28.7 92.3,30.4 32.6,98.3 -34.5,39.3 	"/>
</g>
<g>
	<defs>
		<path id="SVGID_4_" d="M5.5,28.9C5.5,16,16,5.5,28.9,5.5c12.9,0,23.4,10.5,23.4,23.4S41.8,52.3,28.9,52.3
			C16,52.3,5.5,41.8,5.5,28.9 M3.7,28.9c0,13.9,11.3,25.2,25.2,25.2s25.2-11.3,25.2-25.2S42.8,3.7,28.9,3.7S3.7,15,3.7,28.9"/>
	</defs>
	<clipPath id="SVGID_5_">
		<use xlink:href="#SVGID_4_"  style="overflow:visible;"/>
	</clipPath>
	
		<linearGradient id="SVGID_6_" gradientUnits="userSpaceOnUse" x1="0" y1="69.6468" x2="1" y2="69.6468" gradientTransform="matrix(-46.7925 -62.8356 -62.8356 46.7925 4434.5864 -3190.5645)">
		<stop  offset="0" style="stop-color:#CD8C3A"/>
		<stop  offset="3.860640e-03" style="stop-color:#CD8C3A"/>
		<stop  offset="0.2338" style="stop-color:#DDB373"/>
		<stop  offset="0.3059" style="stop-color:#DEB575"/>
		<stop  offset="0.3371" style="stop-color:#DFB97C"/>
		<stop  offset="0.3605" style="stop-color:#E2C088"/>
		<stop  offset="0.38" style="stop-color:#E7CA9A"/>
		<stop  offset="0.3968" style="stop-color:#ECD7B0"/>
		<stop  offset="0.4061" style="stop-color:#F0E0C1"/>
		<stop  offset="0.4331" style="stop-color:#E5CDA5"/>
		<stop  offset="0.4744" style="stop-color:#D6B684"/>
		<stop  offset="0.5203" style="stop-color:#CAA269"/>
		<stop  offset="0.5711" style="stop-color:#C09255"/>
		<stop  offset="0.6289" style="stop-color:#B98747"/>
		<stop  offset="0.6979" style="stop-color:#B37E3E"/>
		<stop  offset="0.789" style="stop-color:#B07A39"/>
		<stop  offset="0.9899" style="stop-color:#B07937"/>
		<stop  offset="1" style="stop-color:#B07937"/>
	</linearGradient>
	<polygon class="st1" points="21.7,78.3 -20.5,21.7 36.1,-20.5 78.3,36.1 	"/>
</g>
<g>
	<defs>
		<path id="SVGID_7_" d="M28.6,14.5c-0.3,0-0.5,0.1-0.7,0.3l-8.1,7c-0.2,0.1-0.2,0.3-0.2,0.5c0,0.1,0,0.2,0.1,0.4l1,2
			c0.1,0.3,0.3,0.4,0.5,0.4c0.1,0,0.2,0,0.2,0l4.9-1.6v19.3c0,0.4,0.2,0.6,0.6,0.6h6.1c0.4,0,0.6-0.2,0.6-0.6V15.1
			c0-0.4-0.2-0.6-0.6-0.6H28.6z"/>
	</defs>
	<clipPath id="SVGID_8_">
		<use xlink:href="#SVGID_7_"  style="overflow:visible;"/>
	</clipPath>
	
		<linearGradient id="SVGID_9_" gradientUnits="userSpaceOnUse" x1="0" y1="69.5575" x2="1" y2="69.5575" gradientTransform="matrix(18.7288 16.4813 16.4813 -18.7288 -1127.7305 1324.7172)">
		<stop  offset="0" style="stop-color:#CD8C3A"/>
		<stop  offset="3.860640e-03" style="stop-color:#CD8C3A"/>
		<stop  offset="0.2338" style="stop-color:#DDB373"/>
		<stop  offset="0.3059" style="stop-color:#DEB575"/>
		<stop  offset="0.3371" style="stop-color:#DFB97C"/>
		<stop  offset="0.3605" style="stop-color:#E2C088"/>
		<stop  offset="0.38" style="stop-color:#E7CA9A"/>
		<stop  offset="0.3968" style="stop-color:#ECD7B0"/>
		<stop  offset="0.4061" style="stop-color:#F0E0C1"/>
		<stop  offset="0.4331" style="stop-color:#E5CDA5"/>
		<stop  offset="0.4744" style="stop-color:#D6B684"/>
		<stop  offset="0.5203" style="stop-color:#CAA269"/>
		<stop  offset="0.5711" style="stop-color:#C09255"/>
		<stop  offset="0.6289" style="stop-color:#B98747"/>
		<stop  offset="0.6979" style="stop-color:#B37E3E"/>
		<stop  offset="0.789" style="stop-color:#B07A39"/>
		<stop  offset="0.9899" style="stop-color:#B07937"/>
		<stop  offset="1" style="stop-color:#B07937"/>
	</linearGradient>
	<polygon class="st2" points="25.6,7.5 47.9,27.1 27.4,50.3 5.2,30.7 	"/>
</g>
</svg>
