<svg xmlns="http://www.w3.org/2000/svg" xmlns:xlink="http://www.w3.org/1999/xlink" xml:space="preserve" viewBox="0 0 57.8 69.6"><defs><path id="a" d="M5.5 28.9C5.5 16 16 5.5 28.9 5.5S52.3 16 52.3 28.9 41.8 52.3 28.9 52.3 5.5 41.8 5.5 28.9M28.9 0C12.9 0 0 12.9 0 28.9v1.6c0 .2 0 .5.1.7 0 .3 0 .6.1.8 0 .3.1.5.1.8 0 .2.1.5.1.7 0 .3.1.6.2.9 0 .2.1.4.1.6.1.3.1.6.2.9 0 .2.1.3.1.5.1.3.2.7.3 1 0 .1.1.2.1.3.1.4.2.7.4 1.1v.1C4 45 8.2 50.1 13.7 53.4l-1.5 16.2 16.5-6.9 17 6.9-1.5-16.2c8.2-5.1 13.6-14.2 13.6-24.5C57.8 12.9 44.9 0 28.9 0"/></defs><clipPath id="b"><use xlink:href="#a" style="overflow:visible"/></clipPath><linearGradient id="c" x1="0" x2="1" y1="69.674" y2="69.674" gradientTransform="rotate(221.348 -916.396 2443.69)scale(-69.9906 69.9906)" gradientUnits="userSpaceOnUse"><stop offset="0" style="stop-color:#8b989e"/><stop offset=".001" style="stop-color:#8b989e"/><stop offset=".234" style="stop-color:#9fa9ae"/><stop offset=".305" style="stop-color:#a0aab0"/><stop offset=".336" style="stop-color:#a6b0b6"/><stop offset=".359" style="stop-color:#b0bac0"/><stop offset=".378" style="stop-color:#bdc8cd"/><stop offset=".395" style="stop-color:#ced8de"/><stop offset=".408" style="stop-color:#dfe9ef"/><stop offset=".428" style="stop-color:#d4dde2"/><stop offset=".47" style="stop-color:#bec5ca"/><stop offset=".517" style="stop-color:#a9afb3"/><stop offset=".57" style="stop-color:#979c9f"/><stop offset=".629" style="stop-color:#888c8f"/><stop offset=".7" style="stop-color:#7e8183"/><stop offset=".793" style="stop-color:#787a7c"/><stop offset="1" style="stop-color:#76797a"/></linearGradient><path d="m25.2-28.7 67.1 59.1-59.7 67.9-67.1-59z" style="clip-path:url(#b);fill:url(#c)"/><defs><path id="d" d="M5.5 28.9C5.5 16 16 5.5 28.9 5.5S52.3 16 52.3 28.9 41.8 52.3 28.9 52.3 5.5 41.8 5.5 28.9m-1.8 0c0 13.9 11.3 25.2 25.2 25.2s25.2-11.3 25.2-25.2S42.8 3.7 28.9 3.7 3.7 15 3.7 28.9"/></defs><clipPath id="e"><use xlink:href="#d" style="overflow:visible"/></clipPath><linearGradient id="f" x1="0" x2="1" y1="69.647" y2="69.647" gradientTransform="rotate(53.326 5394.294 2820.451)scale(-78.3444 78.3444)" gradientUnits="userSpaceOnUse"><stop offset="0" style="stop-color:#8b989e"/><stop offset=".001" style="stop-color:#8b989e"/><stop offset=".234" style="stop-color:#9fa9ae"/><stop offset=".305" style="stop-color:#a0aab0"/><stop offset=".336" style="stop-color:#a6b0b6"/><stop offset=".359" style="stop-color:#b0bac0"/><stop offset=".378" style="stop-color:#bdc8cd"/><stop offset=".395" style="stop-color:#ced8de"/><stop offset=".408" style="stop-color:#dfe9ef"/><stop offset=".428" style="stop-color:#d4dde2"/><stop offset=".47" style="stop-color:#bec5ca"/><stop offset=".517" style="stop-color:#a9afb3"/><stop offset=".57" style="stop-color:#979c9f"/><stop offset=".629" style="stop-color:#888c8f"/><stop offset=".7" style="stop-color:#7e8183"/><stop offset=".793" style="stop-color:#787a7c"/><stop offset="1" style="stop-color:#76797a"/></linearGradient><path d="m21.7 78.3-42.2-56.6 56.6-42.2 42.2 56.6z" style="clip-path:url(#e);fill:url(#f)"/><defs><path id="g" d="M27.6 12.9 24 23.3H13.9c-1.3 0-1.9 1.7-.8 2.5l8.5 6.1L18.4 42c-.4 1.3 1.1 2.3 2.1 1.5l8.5-6.2 8.7 6.2c1.1.8 2.5-.3 2.1-1.5l-3.3-10 8.6-6.2c1.1-.8.5-2.5-.8-2.5H33.8l-3.5-10.4c-.2-.6-.8-.9-1.3-.9-.6-.1-1.2.3-1.4.9"/></defs><clipPath id="h"><use xlink:href="#g" style="overflow:visible"/></clipPath><linearGradient id="i" x1="0" x2="1" y1="69.677" y2="69.677" gradientTransform="rotate(41.348 -6469.494 -2426)scale(69.9906 -69.9906)" gradientUnits="userSpaceOnUse"><stop offset="0" style="stop-color:#8b989e"/><stop offset=".001" style="stop-color:#8b989e"/><stop offset=".234" style="stop-color:#9fa9ae"/><stop offset=".305" style="stop-color:#a0aab0"/><stop offset=".336" style="stop-color:#a6b0b6"/><stop offset=".359" style="stop-color:#b0bac0"/><stop offset=".378" style="stop-color:#bdc8cd"/><stop offset=".395" style="stop-color:#ced8de"/><stop offset=".408" style="stop-color:#dfe9ef"/><stop offset=".428" style="stop-color:#d4dde2"/><stop offset=".47" style="stop-color:#bec5ca"/><stop offset=".517" style="stop-color:#a9afb3"/><stop offset=".57" style="stop-color:#979c9f"/><stop offset=".629" style="stop-color:#888c8f"/><stop offset=".7" style="stop-color:#7e8183"/><stop offset=".793" style="stop-color:#787a7c"/><stop offset="1" style="stop-color:#76797a"/></linearGradient><path d="m26.9-5.1 35.5 31.2-31.1 35.4-35.5-31.2z" style="clip-path:url(#h);fill:url(#i)"/></svg>