<?xml version="1.0" encoding="utf-8"?>
<!-- Generator: Adobe Illustrator 25.0.0, SVG Export Plug-In . SVG Version: 6.00 Build 0)  -->
<svg version="1.1" id="圖層_1" xmlns="http://www.w3.org/2000/svg" xmlns:xlink="http://www.w3.org/1999/xlink" x="0px" y="0px"
	 viewBox="0 0 57.8 69.6" style="enable-background:new 0 0 57.8 69.6;" xml:space="preserve">
<style type="text/css">
	.st0{clip-path:url(#SVGID_2_);fill:url(#SVGID_3_);}
	.st1{clip-path:url(#SVGID_5_);fill:url(#SVGID_6_);}
	.st2{clip-path:url(#SVGID_8_);fill:url(#SVGID_9_);}
</style>
<g>
	<defs>
		<path id="SVGID_1_" d="M5.5,28.9C5.5,16,16,5.5,28.9,5.5c12.9,0,23.4,10.5,23.4,23.4S41.8,52.3,28.9,52.3
			C16,52.3,5.5,41.8,5.5,28.9 M28.9,0C12.9,0,0,12.9,0,28.9C0,29,0,29,0,29.1c0,0.5,0,0.9,0,1.4c0,0.2,0,0.5,0.1,0.7
			c0,0.3,0,0.6,0.1,0.8c0,0.3,0.1,0.5,0.1,0.8c0,0.2,0.1,0.5,0.1,0.7c0,0.3,0.1,0.6,0.2,0.9c0,0.2,0.1,0.4,0.1,0.6
			c0.1,0.3,0.1,0.6,0.2,0.9c0,0.2,0.1,0.3,0.1,0.5c0.1,0.3,0.2,0.7,0.3,1c0,0.1,0.1,0.2,0.1,0.3c0.1,0.4,0.2,0.7,0.4,1.1
			c0,0,0,0.1,0,0.1C4,45,8.2,50.1,13.7,53.4l-1.5,16.2l16.5-6.9l17,6.9l-1.5-16.2c8.2-5.1,13.6-14.2,13.6-24.5
			C57.8,12.9,44.9,0,28.9,0z"/>
	</defs>
	<clipPath id="SVGID_2_">
		<use xlink:href="#SVGID_1_"  style="overflow:visible;"/>
	</clipPath>
	
		<linearGradient id="SVGID_3_" gradientUnits="userSpaceOnUse" x1="0" y1="69.6743" x2="1" y2="69.6743" gradientTransform="matrix(52.5429 46.2377 46.2377 -52.5429 -3218.7158 3672.8049)">
		<stop  offset="0" style="stop-color:#8B989E"/>
		<stop  offset="9.653180e-04" style="stop-color:#8B989E"/>
		<stop  offset="0.2339" style="stop-color:#9FA9AE"/>
		<stop  offset="0.3049" style="stop-color:#A0AAB0"/>
		<stop  offset="0.3357" style="stop-color:#A6B0B6"/>
		<stop  offset="0.3588" style="stop-color:#B0BAC0"/>
		<stop  offset="0.378" style="stop-color:#BDC8CD"/>
		<stop  offset="0.3946" style="stop-color:#CED8DE"/>
		<stop  offset="0.4076" style="stop-color:#DFE9EF"/>
		<stop  offset="0.4277" style="stop-color:#D4DDE2"/>
		<stop  offset="0.4701" style="stop-color:#BEC5CA"/>
		<stop  offset="0.5173" style="stop-color:#A9AFB3"/>
		<stop  offset="0.5695" style="stop-color:#979C9F"/>
		<stop  offset="0.629" style="stop-color:#888C8F"/>
		<stop  offset="0.6999" style="stop-color:#7E8183"/>
		<stop  offset="0.7935" style="stop-color:#787A7C"/>
		<stop  offset="1" style="stop-color:#76797A"/>
	</linearGradient>
	<polygon class="st0" points="25.2,-28.7 92.3,30.4 32.6,98.3 -34.5,39.3 	"/>
</g>
<g>
	<defs>
		<path id="SVGID_4_" d="M5.5,28.9C5.5,16,16,5.5,28.9,5.5c12.9,0,23.4,10.5,23.4,23.4S41.8,52.3,28.9,52.3
			C16,52.3,5.5,41.8,5.5,28.9 M3.7,28.9c0,13.9,11.3,25.2,25.2,25.2s25.2-11.3,25.2-25.2S42.8,3.7,28.9,3.7S3.7,15,3.7,28.9"/>
	</defs>
	<clipPath id="SVGID_5_">
		<use xlink:href="#SVGID_4_"  style="overflow:visible;"/>
	</clipPath>
	
		<linearGradient id="SVGID_6_" gradientUnits="userSpaceOnUse" x1="0" y1="69.6468" x2="1" y2="69.6468" gradientTransform="matrix(-46.7925 -62.8356 -62.8356 46.7925 4434.5864 -3190.5645)">
		<stop  offset="0" style="stop-color:#8B989E"/>
		<stop  offset="9.653180e-04" style="stop-color:#8B989E"/>
		<stop  offset="0.2339" style="stop-color:#9FA9AE"/>
		<stop  offset="0.3049" style="stop-color:#A0AAB0"/>
		<stop  offset="0.3357" style="stop-color:#A6B0B6"/>
		<stop  offset="0.3588" style="stop-color:#B0BAC0"/>
		<stop  offset="0.378" style="stop-color:#BDC8CD"/>
		<stop  offset="0.3946" style="stop-color:#CED8DE"/>
		<stop  offset="0.4076" style="stop-color:#DFE9EF"/>
		<stop  offset="0.4277" style="stop-color:#D4DDE2"/>
		<stop  offset="0.4701" style="stop-color:#BEC5CA"/>
		<stop  offset="0.5173" style="stop-color:#A9AFB3"/>
		<stop  offset="0.5695" style="stop-color:#979C9F"/>
		<stop  offset="0.629" style="stop-color:#888C8F"/>
		<stop  offset="0.6999" style="stop-color:#7E8183"/>
		<stop  offset="0.7935" style="stop-color:#787A7C"/>
		<stop  offset="1" style="stop-color:#76797A"/>
	</linearGradient>
	<polygon class="st1" points="21.7,78.3 -20.5,21.7 36.1,-20.5 78.3,36.1 	"/>
</g>
<g>
	<defs>
		<path id="SVGID_7_" d="M27.6,12.9L24,23.3H13.9c-1.3,0-1.9,1.7-0.8,2.5l8.5,6.1l-3.2,10.1c-0.4,1.3,1.1,2.3,2.1,1.5l8.5-6.2
			l8.7,6.2c1.1,0.8,2.5-0.3,2.1-1.5L36.5,32l8.6-6.2c1.1-0.8,0.5-2.5-0.8-2.5H33.8l-3.5-10.4c-0.2-0.6-0.8-0.9-1.3-0.9
			C28.4,11.9,27.8,12.3,27.6,12.9"/>
	</defs>
	<clipPath id="SVGID_8_">
		<use xlink:href="#SVGID_7_"  style="overflow:visible;"/>
	</clipPath>
	
		<linearGradient id="SVGID_9_" gradientUnits="userSpaceOnUse" x1="0" y1="69.6769" x2="1" y2="69.6769" gradientTransform="matrix(52.5429 46.2377 46.2377 -52.5429 -3215.4373 3669.157)">
		<stop  offset="0" style="stop-color:#8B989E"/>
		<stop  offset="9.653180e-04" style="stop-color:#8B989E"/>
		<stop  offset="0.2339" style="stop-color:#9FA9AE"/>
		<stop  offset="0.3049" style="stop-color:#A0AAB0"/>
		<stop  offset="0.3357" style="stop-color:#A6B0B6"/>
		<stop  offset="0.3588" style="stop-color:#B0BAC0"/>
		<stop  offset="0.378" style="stop-color:#BDC8CD"/>
		<stop  offset="0.3946" style="stop-color:#CED8DE"/>
		<stop  offset="0.4076" style="stop-color:#DFE9EF"/>
		<stop  offset="0.4277" style="stop-color:#D4DDE2"/>
		<stop  offset="0.4701" style="stop-color:#BEC5CA"/>
		<stop  offset="0.5173" style="stop-color:#A9AFB3"/>
		<stop  offset="0.5695" style="stop-color:#979C9F"/>
		<stop  offset="0.629" style="stop-color:#888C8F"/>
		<stop  offset="0.6999" style="stop-color:#7E8183"/>
		<stop  offset="0.7935" style="stop-color:#787A7C"/>
		<stop  offset="1" style="stop-color:#76797A"/>
	</linearGradient>
	<polygon class="st2" points="26.9,-5.1 62.4,26.1 31.3,61.5 -4.2,30.3 	"/>
</g>
</svg>
