<svg xmlns="http://www.w3.org/2000/svg" xml:space="preserve" width="225" height="45.8" style="overflow:visible" viewBox="0 0 225 45.8"><style>.st0{fill:#df032e}</style><g id="#df032e"><path d="M17.3 34.6V17c-.3.6-.9 1.3-1.7 2.3-.2.2-.3.2-.5.2s-.3-.1-.5-.2l-1.4-1.7c-.3.6-.8 1.5-1.6 2.6s-1.6 2.3-2.4 3.4h4.6c.5 0 .7.3.7.8V26c0 .8 0 1.4-.1 1.8-.3 2.3-1 4.7-2.2 7.2.5.5 1 .9 1.5 1.3 1.8 1.3 4.3 2 7.5 2.3 1.5.2 2.9.2 4.2.2h4c3.8 0 7-.1 9.7-.4 2.6-.3 4.6-.6 6-.8l.8-.1c.4 0 .6.1.6.4v.3L45 43.4q-.3.6-.9.6-5.85.6-15 .6c-3.8 0-6.7-.1-8.8-.3-1.8-.2-3.2-.4-4.4-.7-1.1-.3-2.2-.7-3.2-1.2-1.2-.6-2.3-1.5-3.5-2.5-1.2 1.7-2.6 3.2-4 4.4-.1.1-.2.1-.3.2s-.2.1-.4.1-.3 0-.4-.1L.2 41.2c-.1-.3-.2-.4-.2-.6s.1-.4.2-.5c2.1-1.7 3.9-3.6 5.3-5.5 1.4-2 2.3-3.9 2.8-5.9H2.5c-.5 0-.7-.2-.7-.6v-3.5q0-.6.3-.9c1.5-1.6 3-3.5 4.4-5.6H1.6c-.2 0-.3-.1-.4-.2-.1-.3-.2-.4-.2-.6v-4.1c0-.2.1-.4.2-.5s.3-.2.4-.2h11.1c.4 0 .6.1.7.3C16.6 9.4 19 5.4 20.8.7c.1-.2.2-.4.4-.4h.4l4.8.7c.3 0 .4.2.5.4l-.1.4q-.75 1.95-1.8 3.6h5.7q-.75-1.95-1.8-3.6c-.1-.1-.1-.2-.1-.4 0-.3.2-.5.6-.5l4.5-.3h.1c.4 0 .7.2.9.5.7 1.3 1.3 2.7 1.8 4.4h6.7c.5 0 .7.2.7.7V10c0 .5-.2.7-.7.7h-8.3V14h7.1c.4 0 .6.2.6.7v3.4c0 .5-.2.7-.6.7h-7.1V22h7.1c.4 0 .6.2.6.7v3.5c0 .5-.2.7-.6.7h-7.1v3.2H44c.5 0 .7.2.7.7v3.9c0 .5-.2.7-.7.7H18c-.5-.1-.7-.3-.7-.8M7.6 10.5C6.7 9.2 5.8 8.1 5 7.1c-.8-.9-1.9-1.9-3.1-3-.2-.1-.3-.3-.3-.5s.1-.3.3-.5L5.7.4c.3-.1.4-.2.6-.2.1 0 .3.1.5.2q1.35 1.2 3 3T12.5 7c.1.1.1.3.1.4q0 .3-.3.6l-3.8 2.6c-.1.1-.2.1-.3.1-.3.1-.5 0-.6-.2m21.7 3.6v-3.4h-6.2v3.4zm0 7.9v-3.2h-6.2V22zm0 8.1v-3.3h-6.2v3.3zM63.6 44.9 60.2 40c-.1-.2-.1-.3-.1-.4 0-.2.1-.4.4-.5 6-2.8 10.6-6.9 13.9-12.2s5.1-11.6 5.5-18.8h-12c-.5 0-.7-.2-.7-.7V2.2c0-.5.2-.7.7-.7h18c.5 0 .7.2.7.7 0 17.5 6.2 29.7 18.6 36.7.3.2.4.4.4.6 0 .1 0 .2-.1.4l-3.5 5c-.2.2-.3.3-.5.3-.1 0-.2 0-.4-.1-4.4-2.7-8.1-6.1-11-10.1-3-4-5.2-8.5-6.6-13.6-1.5 5.4-3.9 10.2-7.1 14.3s-7.1 7.2-11.6 9.4c-.2.1-.3.1-.4.1-.5.1-.7 0-.8-.3M139.2 45.4c-.4 0-.7-.2-.8-.5l-1.7-4.2-.1-.3c0-.3.2-.5.7-.5h5.7q5.4 0 7.5-.6c1.4-.4 2.2-1 2.5-1.8.1-.5.2-1.2.2-2.1h-24.5c-.4 0-.6-.2-.6-.5v-.3c.7-2 1.4-4.2 2-6.7-3.2 1-5.7 1.8-7.5 2.2h-.2c-.3 0-.5-.1-.6-.4l-2.2-4.9c0-.1-.1-.2-.1-.3 0-.3.2-.5.6-.5q5.4-.75 10.8-2.1c3.6-.9 6.9-1.9 9.9-3.1h-19.3c-.5 0-.7-.2-.7-.7v-3.9c0-.5.2-.7.7-.7h16.2V9.3h-11.9c-.5 0-.7-.2-.7-.7V4.9c0-.5.2-.7.7-.7h11.9V.7c0-.5.2-.7.7-.7h4.9c.5 0 .7.2.7.7v3.5h9.9c.5 0 .7.2.7.7v2.6c1.1-1.2 2.2-2.7 3.4-4.4.1-.2.3-.3.5-.3l.4.1 4.9 2.6c.3.2.4.3.4.5s-.1.3-.2.4c-1.8 2.3-4 4.6-6.5 6.7h6.6c.5 0 .7.2.7.7v3.9c0 .5-.2.7-.7.7h-12.9c-2.3 1.3-4.6 2.5-6.9 3.5h17.5c.5 0 .7.2.7.7v3.8c0 .5-.2.7-.7.7H137l-.8 3.1h23.2c.5 0 .7.2.7.6 0 2.9-.1 5.2-.3 7.1s-.9 3.4-2 4.5-2.8 1.8-5.2 2.3c-2.4.4-5.7.7-10.1.7zM153 9.2h-9.1v4h4.3c1.8-1.3 3.4-2.6 4.8-4M180.3 17.4v-4.5c0-.5.2-.7.7-.7h3.9V1.7c0-.5.2-.7.7-.7h4.8c.5 0 .7.2.7.7v10.4h3.3c.5 0 .7.2.7.7v4.5c0 .5-.2.7-.7.7h-3.3v10.8c1.3-.7 2.3-1.2 2.9-1.6.2-.1.3-.1.4-.1.3 0 .4.2.4.6v1c2.5-1 4.5-2.4 5.9-4.2H196c-.5 0-.7-.2-.7-.7v-3.1c0-.5.2-.7.7-.7h28.4c.5 0 .7.2.7.7v3.1c0 .5-.2.7-.7.7h-17.5c-.5.8-1 1.6-1.5 2.2h17.8c.5 0 .7.2.7.7 0 4.3-.1 7.5-.2 9.5-.1 2.4-.5 4.1-1.2 5.4-.7 1.2-1.7 2-3.1 2.5-1.4.4-3.3.6-5.8.6-.4 0-.6-.2-.8-.6l-1.5-4.5c-2.2 2.4-4.5 4.2-7 5.3-.1.1-.3.1-.4.1s-.3-.1-.5-.2l-3.2-2.9c-.2-.2-.2-.3-.2-.4 0-.2.1-.4.4-.5 2.7-1 4.9-2.4 6.8-4.2s3.3-3.8 4.3-6H209c-1.2 2.1-2.7 3.9-4.7 5.6s-4.2 3-6.6 4h-.3q-.3 0-.6-.3l-2.5-3c-.1-.1-.2-.3-.2-.4 0-.3.2-.4.5-.5 2-.5 3.7-1.3 5.3-2.3 1.5-1 2.7-2 3.6-3.2h-2.7q-1.95 1.65-4.2 2.7c-.1 0-.2.1-.3.1-.2 0-.4-.1-.5-.4l-.5-.9c0 .2-.1.4-.3.5-1.6 1-3.6 2.1-6 3.1s-4.7 1.9-7 2.7h-.3c-.3 0-.5-.2-.6-.5l-1.3-5v-.2c0-.3.2-.5.5-.6 1.4-.3 3.1-.8 5-1.5V18.1H181c-.5 0-.7-.3-.7-.7m17.6-16.1h23.9c.5 0 .7.2.7.7v15.6c0 .5-.2.7-.7.7h-23.9c-.5 0-.7-.2-.7-.7V2c0-.5.2-.7.7-.7m5.5 4.1V8h12.8V5.4zm0 6.3v2.6h12.8v-2.6zm8.6 27.7c2 .1 3.3-.1 4.1-.6.7-.5 1.2-1.4 1.3-2.7.1-1.5.2-3 .2-4.6h-1.1c-1.1 3-2.6 5.6-4.5 7.9" class="st0"/></g></svg>