<!-- Generator: Adobe Illustrator 25.0.0, SVG Export Plug-In  -->
<svg version="1.1" xmlns="http://www.w3.org/2000/svg" xmlns:xlink="http://www.w3.org/1999/xlink" x="0px" y="0px" width="286px"
	 height="45.6px" viewBox="0 0 286 45.6" style="overflow:visible;enable-background:new 0 0 286 45.6;" xml:space="preserve">
<style type="text/css">
	.st0{fill:#DF032E;}
</style>
<defs>
</defs>
<g>
	<path class="st0" d="M19.1,35.5l-2.3-4.1c-0.1-0.1-0.1-0.2-0.1-0.3c0-0.3,0.2-0.4,0.5-0.5c2.2-0.6,4.3-1.4,6.3-2.6
		c2.1-1.2,3.8-2.4,5.2-3.7l-8.5,0.6c-0.2,0-0.3,0-0.3,0c-0.2,0-0.3-0.2-0.4-0.5l-1.7,2.9c-0.2,0.3-0.3,0.4-0.5,0.4
		c-0.2,0-0.3-0.1-0.4-0.3c-1.2-1.7-2.4-3.8-3.4-6.2l0.3,23.9c0,0.5-0.2,0.7-0.7,0.7H8.1c-0.5,0-0.7-0.2-0.7-0.7l0.2-21
		c-1,3.5-2.3,6.6-3.9,9.5c-0.1,0.2-0.2,0.3-0.4,0.3s-0.4-0.1-0.5-0.3l-2.6-4.3C0,29,0,28.8,0,28.7c0-0.1,0.1-0.3,0.2-0.5
		c1.2-1.8,2.4-4.1,3.6-6.7c1.2-2.6,2.2-5.3,3-7.8H2.4c-0.5,0-0.7-0.2-0.7-0.7V8.6c0-0.5,0.2-0.7,0.7-0.7h5.1l0-7
		c0-0.5,0.2-0.7,0.7-0.7h4.8c0.5,0,0.7,0.2,0.7,0.7v7h3.8c0.1,0,0.3,0,0.4,0.1V6.1c0-0.5,0.2-0.7,0.7-0.7h9.9
		c-0.6-1.5-1.2-2.8-1.8-3.9c-0.1-0.1-0.1-0.2-0.1-0.3c0-0.2,0.1-0.3,0.2-0.4c0.1-0.1,0.3-0.2,0.4-0.2L32.2,0h0.1
		c0.3,0,0.5,0.2,0.7,0.5c0.3,0.6,0.7,1.4,1,2.4c0.4,1,0.6,1.8,0.8,2.5h10.4c0.5,0,0.7,0.2,0.7,0.7v4.4c0,0.5-0.2,0.7-0.7,0.7h-12
		c-2.1,2.9-4.3,5.6-6.9,8.2l7.1-0.2c1-1.3,2-2.9,3.1-4.8c0.1-0.3,0.3-0.4,0.5-0.4c0.2,0,0.3,0,0.4,0.1l3.7,2.1
		c0.3,0.2,0.4,0.3,0.4,0.5c0,0.1-0.1,0.2-0.1,0.3C36.9,25.7,29.7,32,20,35.8c-0.1,0-0.2,0-0.3,0C19.4,35.9,19.2,35.8,19.1,35.5z
		 M18.9,21.3l-0.1-0.9v-0.2c0-0.2,0-0.3,0.1-0.4c0.1-0.1,0.2-0.2,0.4-0.3c0.8-0.5,1.8-1.6,3.2-3.2c1.4-1.7,2.5-3.3,3.5-4.9h-7.6
		c-0.2,0-0.3,0-0.4,0V13c0,0.5-0.2,0.7-0.7,0.7H14C15.3,16.5,17,19,18.9,21.3z M18.6,45L16,40.5c-0.1-0.1-0.1-0.3-0.1-0.4
		c0-0.2,0.2-0.4,0.5-0.5c5.4-1.2,10.1-3.3,14.1-6.2c4-2.9,7.2-6.4,9.5-10.3c0.2-0.3,0.3-0.4,0.5-0.4c0.2,0,0.3,0,0.4,0.1l3.7,2.3
		c0.3,0.2,0.4,0.3,0.4,0.5c0,0.1,0,0.1,0,0.2c-1.8,3-4,5.8-6.8,8.5c2.1,2.1,4.7,3.7,7.8,4.8c0.3,0.1,0.4,0.2,0.5,0.4
		c0,0.1,0,0.2-0.1,0.4L44,45c-0.2,0.3-0.3,0.4-0.5,0.4c-0.1,0-0.2,0-0.3,0c-1.7-0.7-3.4-1.7-5.1-2.9c-1.7-1.2-3.2-2.5-4.5-4
		c-4.4,3.2-9.1,5.5-14.1,6.9c-0.1,0-0.1,0-0.2,0C18.9,45.4,18.7,45.3,18.6,45z"/>
	<path class="st0" d="M63,33.7v-3.6c0-0.5,0.2-0.7,0.7-0.7h7.4v-3.6h-8.8c-0.5,0-0.7-0.2-0.7-0.7v-3.8c0-0.5,0.2-0.7,0.7-0.7h4.1
		c-0.4-1.5-0.9-3.1-1.5-4.7h-3.3c-0.5,0-0.7-0.2-0.7-0.7v-3.8c0-0.5,0.2-0.7,0.7-0.7h6.5V0.9c0-0.5,0.2-0.7,0.7-0.7h3.6
		c0.5,0,0.7,0.2,0.7,0.7v9.8h2.1V0.9c0-0.5,0.2-0.7,0.7-0.7h3.6c0.5,0,0.7,0.2,0.7,0.7v9.8h6c0.5,0,0.7,0.2,0.7,0.7v3.8
		c0,0.5-0.2,0.7-0.7,0.7h-2.7c-0.5,1.9-1,3.5-1.5,4.7h3.8c0.5,0,0.7,0.2,0.7,0.7v3.8c0,0.5-0.2,0.7-0.7,0.7h-8.6v3.6h7.2
		c0.5,0,0.7,0.2,0.7,0.7v3.6c0,0.5-0.2,0.7-0.7,0.7h-7.2v3.8c4.2-0.4,7.3-0.7,9.2-1h0.1c0.4,0,0.5,0.2,0.5,0.6v3.8
		c0,0.5-0.2,0.7-0.5,0.7c-7.7,1.1-15.9,1.9-24.5,2.3c-0.4,0-0.6-0.2-0.7-0.6l-0.7-4.2v-0.1c0-0.2,0.1-0.3,0.2-0.4
		c0.1-0.1,0.3-0.2,0.5-0.2c3.4-0.1,6.7-0.2,10-0.4v-4.2h-7.4C63.2,34.4,63,34.2,63,33.7z M62,6.5c-0.4-1-0.8-2-1.3-2.8
		c-0.1-0.1-0.1-0.2-0.1-0.4c0-0.2,0.1-0.4,0.4-0.5l3.1-1.1c0.1,0,0.2,0,0.3,0c0.3,0,0.5,0.1,0.6,0.4c1.1,1.8,1.9,3.7,2.4,5.8l0,0.2
		c0,0.3-0.2,0.5-0.5,0.6l-3.3,1c-0.1,0-0.2,0-0.3,0c-0.3,0-0.4-0.2-0.5-0.5C62.7,8.4,62.4,7.5,62,6.5z M77.7,15.9h-7.1
		c0.5,1.4,1,3,1.5,4.7h4.1C76.9,19,77.4,17.4,77.7,15.9z M80.6,7.7c0.9-1.9,1.6-3.8,2.1-5.7c0.1-0.4,0.4-0.6,0.8-0.5l3.5,0.9
		c0.4,0.1,0.6,0.3,0.5,0.7c-0.3,0.9-0.6,2-1.1,3.1c-0.5,1.1-0.9,2.1-1.4,3c-0.2,0.4-0.5,0.5-0.9,0.3l-3.1-1
		C80.5,8.4,80.4,8.1,80.6,7.7z M89.3,26.2c-0.7-1.8-1.4-3.5-2.1-5L87,20.9c0-0.3,0.1-0.4,0.4-0.5l3.7-1.3c0.1,0,0.2,0,0.3,0
		c0.3,0,0.5,0.1,0.6,0.4c1.8,3.3,3.2,6.6,4.1,10l0,0.2c0,0.3-0.2,0.5-0.5,0.6l-4.2,1.7c-0.1,0-0.2,0-0.3,0c-0.3,0-0.4-0.2-0.5-0.5
		C90.5,29.7,89.9,28,89.3,26.2z M87.8,14.6v-4.5c0-0.5,0.2-0.7,0.7-0.7H97V0.9c0-0.5,0.2-0.7,0.7-0.7h4.6c0.5,0,0.7,0.2,0.7,0.7v8.4
		h2.4c0.5,0,0.7,0.2,0.7,0.7v4.5c0,0.5-0.2,0.7-0.7,0.7h-2.4v22c0,2.2-0.3,3.8-0.9,5c-0.6,1.1-1.7,2-3.1,2.4c-1.4,0.5-3.4,0.7-6,0.7
		h-0.6c-0.4,0-0.7-0.2-0.8-0.5l-1.9-5c0-0.1,0-0.2,0-0.3c0-0.2,0.1-0.3,0.2-0.4c0.1-0.1,0.3-0.1,0.5-0.1l2.2,0.1
		c1.8,0,3-0.2,3.6-0.6c0.6-0.4,0.9-1.2,0.9-2.2V15.3h-8.6C88,15.3,87.8,15,87.8,14.6z"/>
	<path class="st0" d="M125.4,42.2l-4.6-2.8c-0.2-0.1-0.3-0.3-0.3-0.5c0-0.2,0-0.3,0.1-0.4c1.5-2.2,2.9-4.7,4.1-7.6
		c1.2-2.9,2.2-5.8,3-8.7c0.1-0.3,0.3-0.5,0.5-0.5c0.2,0,0.3,0,0.4,0.1l4.3,2.5c0.2,0.1,0.3,0.3,0.4,0.5c0,0.1,0,0.2,0,0.3
		c-0.8,2.9-1.8,5.9-3,9c-1.2,3.1-2.5,5.8-3.9,8c-0.1,0.2-0.3,0.3-0.5,0.3C125.7,42.3,125.6,42.3,125.4,42.2z M128.4,14.6
		c-1-1.3-2.1-2.7-3.5-4c-1.3-1.3-2.7-2.5-4-3.4c-0.2-0.2-0.3-0.3-0.3-0.5c0-0.1,0-0.2,0.1-0.3c0.1-0.1,0.1-0.2,0.1-0.2l3.7-3.3
		c0.2-0.2,0.3-0.2,0.5-0.2c0.2,0,0.3,0,0.4,0.1c1.3,0.9,2.6,2,4,3.3c1.4,1.3,2.6,2.7,3.7,4c0.1,0.1,0.1,0.3,0.1,0.4
		c0,0.2-0.1,0.3-0.2,0.5l-3.7,3.6c-0.2,0.2-0.3,0.2-0.5,0.2C128.8,14.9,128.6,14.8,128.4,14.6z M135.9,43.9V20.3
		c-0.3,0.5-0.7,1-1.1,1.4c-0.2,0.2-0.3,0.2-0.4,0.2c-0.2,0-0.3-0.1-0.5-0.2l-3.7-3.9c-0.1-0.1-0.2-0.3-0.2-0.5
		c0-0.2,0.1-0.3,0.2-0.4c2.2-2.1,4.2-4.6,5.9-7.5c1.7-2.9,3-5.7,3.8-8.6c0-0.2,0.1-0.3,0.3-0.4c0.1,0,0.3,0,0.5,0l5.3,0.8
		c0.3,0,0.4,0.2,0.5,0.4c0,0.1,0,0.3,0,0.4c-0.8,2.1-1.7,4-2.7,6h7.2c-0.9-2.5-1.7-4.3-2.5-5.7c-0.1-0.1-0.1-0.2-0.1-0.3
		c0-0.3,0.2-0.5,0.6-0.5l4.4-0.7c0.3-0.1,0.5-0.1,0.6-0.1c0.3,0,0.5,0.2,0.6,0.5c0.9,1.7,1.7,3.9,2.5,6.8h6.9c0.5,0,0.7,0.2,0.7,0.7
		v4.3c0,0.5-0.2,0.7-0.7,0.7h-8.5v4.9h7.5c0.5,0,0.7,0.2,0.7,0.7v4.1c0,0.5-0.2,0.7-0.7,0.7h-7.5v4.6h7.5c0.5,0,0.7,0.2,0.7,0.7v4.1
		c0,0.5-0.2,0.7-0.7,0.7h-7.5v4.8h9.2c0.5,0,0.7,0.2,0.7,0.7v4.3c0,0.5-0.2,0.7-0.7,0.7h-28.2C136.1,44.6,135.9,44.4,135.9,43.9z
		 M149.5,18.5v-4.9h-7.3v4.9H149.5z M149.5,28.7V24h-7.3v4.7H149.5z M149.5,38.9v-4.8h-7.3v4.8H149.5z"/>
	<path class="st0" d="M199.5,45.5c-0.4,0-0.7-0.2-0.8-0.5l-1.7-4.2l-0.1-0.3c0-0.3,0.2-0.5,0.7-0.5l4.5,0h1.2c3.6,0,6.1-0.2,7.5-0.6
		c1.4-0.4,2.2-1,2.5-1.8c0.1-0.5,0.2-1.2,0.2-2.1H189c-0.4,0-0.6-0.2-0.6-0.5c0-0.1,0-0.2,0-0.3c0.7-2,1.4-4.2,2-6.7
		c-3.2,1-5.7,1.8-7.5,2.2c-0.1,0-0.1,0-0.2,0c-0.3,0-0.5-0.1-0.6-0.4l-2.2-4.9c0-0.1-0.1-0.2-0.1-0.3c0-0.3,0.2-0.5,0.6-0.5
		c3.6-0.5,7.2-1.2,10.8-2.1c3.6-0.9,6.9-1.9,9.9-3.1h-19.3c-0.5,0-0.7-0.2-0.7-0.7V14c0-0.5,0.2-0.7,0.7-0.7h16.2V9.5h-11.9
		c-0.5,0-0.7-0.2-0.7-0.7V5.1c0-0.5,0.2-0.7,0.7-0.7h11.9V0.8c0-0.5,0.2-0.7,0.7-0.7h4.9c0.5,0,0.7,0.2,0.7,0.7v3.5h9.9
		c0.5,0,0.7,0.2,0.7,0.7v2.6c1.1-1.2,2.2-2.7,3.4-4.4c0.1-0.2,0.3-0.3,0.5-0.3l0.4,0.1l4.9,2.6c0.3,0.2,0.4,0.3,0.4,0.5
		c0,0.2-0.1,0.3-0.2,0.4c-1.8,2.3-4,4.6-6.5,6.7h6.6c0.5,0,0.7,0.2,0.7,0.7v3.9c0,0.5-0.2,0.7-0.7,0.7h-12.9
		c-2.3,1.3-4.6,2.5-6.9,3.5h17.5c0.5,0,0.7,0.2,0.7,0.7v3.8c0,0.5-0.2,0.7-0.7,0.7h-24.8l-0.8,3.1h23.2c0.5,0,0.7,0.2,0.7,0.6
		c0,2.9-0.1,5.2-0.3,7.1c-0.2,1.9-0.9,3.4-2,4.5c-1.1,1.1-2.8,1.8-5.2,2.3c-2.4,0.4-5.7,0.7-10.1,0.7L199.5,45.5z M213.3,9.4h-9.1v4
		h4.3C210.3,12.1,211.9,10.7,213.3,9.4z"/>
	<path class="st0" d="M257.1,21.7l-1.8-4c0-0.1-0.1-0.2-0.1-0.3c0-0.3,0.1-0.4,0.4-0.5c1.5-0.8,2.9-1.8,4.1-2.8
		c-1.5-1.5-2.7-2.7-3.7-3.4c-0.1,0.1-0.3,0.2-0.5,0.2h-15.2c-0.5,0-0.7-0.2-0.7-0.7v-4c0-0.5,0.2-0.7,0.7-0.7h5.1
		c-0.4-1-0.9-2.1-1.5-3.3c-0.1-0.2-0.1-0.3-0.1-0.4c0-0.3,0.2-0.4,0.5-0.5l3.9-0.9l0.4-0.1c0.3,0,0.5,0.1,0.6,0.4
		c0.6,1.6,1.2,3.2,1.7,4.8h4.6c0.5,0,0.7,0.2,0.7,0.7v3.1l2.1-1.7c0.1-0.1,0.3-0.2,0.5-0.2c0.2,0,0.4,0.1,0.5,0.2
		c1.1,0.9,2.3,2,3.5,3.3c1.1-1.4,2-2.8,2.6-4.2h-6.6c-0.5,0-0.7-0.2-0.7-0.7V2.3c0-0.5,0.2-0.7,0.7-0.7H272c0.4,0,0.7,0.2,0.8,0.5
		c0.3,0.7,0.6,1.5,1,2.3c1.1-1,2-2.1,2.8-3.3c0.2-0.3,0.3-0.4,0.5-0.4c0.2,0,0.3,0,0.4,0.1l3.2,1.9c0.3,0.2,0.4,0.3,0.4,0.5
		c0,0.1,0,0.2-0.1,0.3c-1.6,2.1-3.1,3.7-4.6,4.9c0.4,0.6,0.9,1.2,1.4,1.7c1.2-1.1,2.3-2.4,3.2-3.8c0.2-0.2,0.3-0.3,0.5-0.3
		c0.1,0,0.3,0,0.4,0.1l3.1,1.9c0.2,0.1,0.3,0.2,0.3,0.4c0,0.2,0,0.3-0.1,0.4c-1.3,1.8-2.6,3.3-4.1,4.5c1.2,1,2.6,2,4.2,3
		c0.2,0.1,0.3,0.2,0.4,0.4c0,0.2,0,0.4-0.1,0.5l-1.9,4c-0.1,0.3-0.3,0.4-0.5,0.4c-0.1,0-0.2,0-0.4-0.1c-2.1-1.3-4.2-2.9-6.2-5v1.7
		c0,0.5-0.2,0.7-0.7,0.7h-11c-0.5,0-0.7-0.2-0.7-0.7v-1.7c-1.8,2-3.9,3.7-6.3,5.2c-0.1,0.1-0.3,0.1-0.4,0.1
		C257.5,22.1,257.3,22,257.1,21.7z M240.9,43.7V29.6c0-0.5,0.2-0.7,0.7-0.7H255c0.5,0,0.7,0.2,0.7,0.7v14.2c0,0.5-0.2,0.7-0.7,0.7
		h-13.4C241.2,44.4,240.9,44.2,240.9,43.7z M241.4,17.9v-3.5c0-0.5,0.2-0.7,0.7-0.7h12.2c0.5,0,0.7,0.2,0.7,0.7v3.5
		c0,0.5-0.2,0.7-0.7,0.7h-12.2C241.7,18.6,241.4,18.3,241.4,17.9z M241.4,25.4v-3.5c0-0.5,0.2-0.7,0.7-0.7h12.4
		c0.5,0,0.7,0.2,0.7,0.7v3.5c0,0.5-0.2,0.7-0.7,0.7h-12.4C241.7,26.1,241.4,25.9,241.4,25.4z M250.6,39.5v-5.7H246v5.7H250.6z
		 M257,43.6v-3.8c0-0.5,0.2-0.7,0.7-0.7h4.9c-0.4-1.7-0.9-3.3-1.5-4.9h-1.2c-0.5,0-0.7-0.2-0.7-0.7V22.1c0-0.5,0.2-0.7,0.7-0.7h21.6
		c0.5,0,0.7,0.2,0.7,0.7v11.4c0,0.5-0.2,0.7-0.7,0.7h-1.3c-0.5,2.1-0.9,3.7-1.3,4.9h5c0.5,0,0.7,0.2,0.7,0.7v3.8
		c0,0.5-0.2,0.7-0.7,0.7h-26.2C257.2,44.3,257,44.1,257,43.6z M276.7,29.7v-3.8h-12v3.8H276.7z M270.3,7.7c-0.9,2.3-2.2,4.5-3.8,6.7
		h8.1C272.8,12.1,271.3,9.9,270.3,7.7z M274.4,34.2h-7.5c0.5,1.4,1,3,1.4,4.9h4.7C273.7,37.5,274.1,35.8,274.4,34.2z"/>
</g>
</svg>
