<!--Generator: Adobe Illustrator 25.0.0, SVG Export Plug-In-->
<svg version="1.1" xmlns="http://www.w3.org/2000/svg" xmlns:xlink="http://www.w3.org/1999/xlink" x="0px" y="0px" width="567.9px" height="158.8px" viewBox="0 0 567.9 158.8" style="overflow:visible;enable-background:new 0 0 567.9 158.8;" xml:space="preserve">
    <defs/>
    <g>
        <path d="M20.9,16.8c-2.3-1-4.3-2.1-5.9-3.2c-1.4,1-3.3,2-5.6,2.9s-4.7,1.5-7,1.9H2.2c-0.2,0-0.3-0.1-0.4-0.3l-1.2-2.6
		c0-0.1,0-0.2-0.1-0.2c0-0.2,0.1-0.3,0.3-0.3C3,14.8,5,14.4,7,13.9c2-0.5,3.6-1.1,4.8-1.7c0-0.1-0.1-0.2-0.2-0.5
		C8,12.3,4.8,12.6,2,12.8H2c-0.2,0-0.4-0.1-0.4-0.3L1.1,11c0-0.2-0.1-0.3-0.1-0.4c0-0.1,0.1-0.4,0.4-0.6c0.4-0.3,0.8-0.8,1.3-1.4
		C3.3,8,3.7,7.4,3.9,7c0.1-0.3,0.3-0.3,0.6-0.3l2.6,0.5c0.2,0,0.3,0.1,0.3,0.2c0,0.1,0,0.2-0.1,0.3c-0.8,1-1.4,1.7-1.9,2.1
		C8,9.6,9.6,9.4,10.3,9.3c-0.3-0.4-0.5-0.7-0.6-0.9C9.7,8.3,9.6,8.2,9.6,8.1c0-0.1,0.1-0.3,0.3-0.3l1.9-0.5c0,0,0.1,0,0.2,0
		c0.2,0,0.3,0.1,0.4,0.2c1.2,1.3,2,2.5,2.6,3.6h0.3l-0.2-0.7c0-0.1,0-0.3,0.1-0.4c0.1-0.1,0.2-0.3,0.3-0.4s0.3-0.3,0.4-0.5
		c0.5-0.6,0.9-1.2,1.4-1.8l0.4-0.6c0.2-0.2,0.4-0.3,0.6-0.2l2.4,0.6c0.2,0,0.3,0.1,0.3,0.2c0.1,0.1,0,0.2,0,0.4
		c-0.2,0.3-0.5,0.6-0.8,1c-0.3,0.4-0.7,0.7-1,1.1c1.7-0.1,3.3-0.2,4.5-0.4l-0.7-0.9c-0.1-0.1-0.2-0.2-0.2-0.3c0-0.1,0.1-0.3,0.3-0.3
		l2-0.7l0.3-0.1c0.1,0,0.3,0.1,0.4,0.2c1.3,1.3,2.4,2.7,3.1,4.2c0,0.1,0,0.1,0.1,0.2c0,0.1-0.1,0.2-0.3,0.3l-2.2,1.1
		c-0.1,0-0.1,0-0.2,0.1c-0.1,0-0.2-0.1-0.3-0.3c0-0.1-0.2-0.4-0.5-1c-1.9,0.3-4.2,0.5-7,0.6c1.3,0.7,2.8,1.2,4.6,1.7
		c1.8,0.5,3.7,0.8,5.8,1.1c0.3,0,0.4,0.1,0.4,0.3c0,0.1,0,0.1,0,0.2l-1.1,2.9c-0.1,0.3-0.3,0.4-0.5,0.3
		C25.5,18.5,23.2,17.8,20.9,16.8z M3.6,28.7l-1.3-2.4c0-0.1-0.1-0.2-0.1-0.3c0-0.2,0.1-0.3,0.4-0.3c4.9,0,9.1-0.5,12.8-1.4
		c3.7-0.9,6.6-2.4,8.8-4.4c0.1-0.1,0.2-0.2,0.3-0.2s0.2,0.1,0.3,0.2l1.9,1.7c0.1,0.1,0.2,0.2,0.2,0.3c0,0.1,0,0.2-0.1,0.2
		c-2.6,2.3-5.8,4-9.6,5c-3.8,1.1-8.2,1.6-13.1,1.7C3.8,29,3.7,28.9,3.6,28.7z M4.9,24.3l-1.1-1.8c-0.1-0.1-0.1-0.2-0.1-0.3
		c0-0.2,0.1-0.3,0.4-0.3c3.5-0.2,6.6-0.6,9.2-1.3c2.6-0.7,4.8-1.7,6.4-3c0.1-0.1,0.2-0.1,0.3-0.1c0.1,0,0.2,0,0.3,0.1l1.6,1.3
		c0.1,0.1,0.2,0.2,0.2,0.3c0,0.1,0,0.2-0.1,0.3c-1.9,1.4-4.3,2.6-7.3,3.5c-2.9,0.9-6.1,1.4-9.4,1.6C5.2,24.6,5,24.5,4.9,24.3z
		 M23.9,6.7c-0.2,0-0.3-0.1-0.4-0.2c-0.2-0.3-0.5-0.6-0.9-1c-1.8,0.2-4.5,0.4-8.1,0.6C10.9,6.3,8,6.4,6,6.4h-1
		C4.7,6.4,4.5,6.3,4.5,6L4.2,4.3c0-0.1,0-0.2,0-0.3c0-0.2,0.1-0.4,0.3-0.5C4.9,3.3,5.4,3,5.9,2.7c1.5-1,2.6-1.8,3.3-2.5
		C9.4,0.1,9.6,0,9.7,0c0.1,0,0.2,0,0.3,0l3.3,0.6c0.2,0,0.3,0.1,0.3,0.3c0,0.1-0.1,0.2-0.2,0.3c-1.1,0.8-2.2,1.6-3.4,2.3
		c2.8-0.1,6.1-0.2,9.8-0.5L18.2,2C18.1,1.9,18,1.8,18,1.7c0-0.1,0.1-0.2,0.3-0.3l2.3-0.8c0.1,0,0.1,0,0.3,0c0.1,0,0.3,0,0.3,0.1
		C22.1,1.1,23,1.8,24,2.6c1,0.8,1.9,1.6,2.7,2.5c0.1,0.1,0.2,0.2,0.2,0.3c0,0.1-0.1,0.2-0.3,0.3l-2.6,1.1C24,6.7,24,6.7,23.9,6.7z
		 M6.4,20.8c-0.2,0-0.3-0.1-0.4-0.3l-1-1.6c-0.1-0.1-0.1-0.2-0.1-0.3c0-0.2,0.1-0.3,0.4-0.3c2.1-0.1,4.1-0.5,5.9-1.1
		c1.8-0.6,3.4-1.2,4.6-2c0.1-0.1,0.2-0.1,0.3-0.1c0.1,0,0.2,0,0.3,0.1l1.4,1.1c0.1,0.1,0.2,0.2,0.2,0.3c0,0.1-0.1,0.2-0.2,0.3
		C14.7,19,11,20.2,6.4,20.8L6.4,20.8z"/>
        <path d="M33.8,8.4V5.5c0-0.3,0.1-0.4,0.4-0.4h3.5l0-3l0-1.6c0-0.3,0.1-0.4,0.4-0.4h3.1c0.3,0,0.4,0.1,0.4,0.4l0,4.5h6.1
		c0.3,0,0.4,0.1,0.4,0.4v1.1l0.1,7.6c0,1.6,0,3.1-0.1,4.4c-0.1,2.8-0.3,4.9-0.7,6.3c-0.4,1.4-1,2.3-1.9,2.9c-0.9,0.5-2.2,0.8-4,0.8
		c-0.4,0-0.6-0.1-0.6-0.3l-1-3.3c0,0,0-0.1,0-0.2c0-0.2,0.1-0.3,0.4-0.3c1.1,0,2-0.1,2.5-0.4c0.5-0.3,0.9-0.9,1.1-1.7
		c0.2-0.9,0.4-2.3,0.4-4.1c0-1.2,0.1-3.1,0.1-5.6V8.9h-2.9c-0.1,4.2-0.5,8-1.1,11.4c-0.7,3.4-1.7,6.2-3.3,8.3
		c-0.1,0.1-0.2,0.2-0.3,0.2c-0.1,0-0.2,0-0.3-0.1l-2.9-1.8c-0.1-0.1-0.2-0.2-0.2-0.3c0-0.1,0-0.2,0.1-0.3c1.5-2.1,2.6-4.5,3.1-7.4
		c0.6-2.8,0.9-6.2,1-10h-3.4C34,8.9,33.8,8.7,33.8,8.4z M50.6,2.9h10.7c0.3,0,0.4,0.1,0.4,0.4v24c0,0.3-0.1,0.4-0.4,0.4H50.6
		c-0.3,0-0.4-0.1-0.4-0.4v-24C50.1,3,50.3,2.9,50.6,2.9z M54.1,6.6V24h3.8V6.6H54.1z"/>
        <path d="M79.1,28.7c-0.3,0-0.4-0.1-0.5-0.3l-1.1-2.7l-0.1-0.2c0-0.2,0.1-0.3,0.4-0.3l2.8,0h0.8c2.3,0,3.8-0.1,4.7-0.4
		c0.9-0.3,1.4-0.6,1.6-1.2c0.1-0.3,0.1-0.8,0.1-1.4H72.4c-0.3,0-0.4-0.1-0.4-0.3c0-0.1,0-0.1,0-0.2c0.5-1.2,0.9-2.7,1.3-4.3
		c-2,0.7-3.6,1.1-4.7,1.4c0,0-0.1,0-0.2,0c-0.2,0-0.3-0.1-0.4-0.3l-1.4-3.1c0-0.1,0-0.2-0.1-0.2c0-0.2,0.1-0.3,0.4-0.3
		c2.3-0.3,4.6-0.8,6.9-1.4c2.3-0.6,4.4-1.2,6.3-2H67.8c-0.3,0-0.4-0.1-0.4-0.4V8.8c0-0.3,0.1-0.4,0.4-0.4h10.2V5.9h-7.6
		c-0.3,0-0.4-0.1-0.4-0.4V3.1c0-0.3,0.1-0.4,0.4-0.4h7.6V0.4c0-0.3,0.1-0.4,0.4-0.4h3.1c0.3,0,0.4,0.1,0.4,0.4v2.2h6.3
		c0.3,0,0.4,0.1,0.4,0.4v1.6C89.5,4,90.2,3.1,91,2c0.1-0.1,0.2-0.2,0.3-0.2l0.3,0.1l3.1,1.6c0.2,0.1,0.3,0.2,0.3,0.3
		c0,0.1,0,0.2-0.1,0.3c-1.1,1.5-2.5,2.9-4.1,4.3h4.2c0.3,0,0.4,0.1,0.4,0.4v2.5c0,0.3-0.1,0.4-0.4,0.4h-8.2
		c-1.4,0.8-2.9,1.6-4.3,2.2h11.1c0.3,0,0.4,0.1,0.4,0.4v2.4c0,0.3-0.1,0.4-0.4,0.4H77.7l-0.5,2h14.7c0.3,0,0.4,0.1,0.4,0.4
		c0,1.8-0.1,3.3-0.2,4.5c-0.1,1.2-0.6,2.2-1.3,2.8c-0.7,0.7-1.8,1.1-3.3,1.4c-1.5,0.3-3.6,0.4-6.4,0.4L79.1,28.7z M87.8,5.8h-5.7
		v2.5h2.7C85.9,7.5,86.9,6.7,87.8,5.8z"/>
        <path d="M99.8,6.6V4.1c0-0.3,0.1-0.4,0.4-0.4h3.5c-0.3-0.9-0.6-1.7-0.9-2.3c-0.1-0.1-0.1-0.2-0.1-0.3c0-0.2,0.1-0.3,0.3-0.3
		l2.6-0.6c0.1,0,0.2,0,0.3-0.1c0.2,0,0.4,0.1,0.4,0.3c0.4,0.8,0.7,1.9,1.1,3.3h2.8c0.3,0,0.4,0.1,0.4,0.4v2.5c0,0.3-0.1,0.4-0.4,0.4
		h-10.1C99.9,7,99.8,6.8,99.8,6.6z M100.6,27.8v-9c0-0.3,0.1-0.4,0.4-0.4h8.9c0.3,0,0.4,0.1,0.4,0.4v9c0,0.3-0.1,0.4-0.4,0.4H101
		C100.8,28.3,100.6,28.1,100.6,27.8z M101,11.3V9.2c0-0.3,0.1-0.4,0.4-0.4h8.3c0.3,0,0.4,0.1,0.4,0.4v2.1c0,0.3-0.1,0.4-0.4,0.4
		h-8.3C101.1,11.8,101,11.6,101,11.3z M101,16v-2.1c0-0.3,0.1-0.4,0.4-0.4h8.3c0.3,0,0.4,0.1,0.4,0.4V16c0,0.3-0.1,0.4-0.4,0.4h-8.3
		C101.1,16.4,101,16.3,101,16z M107.1,25.2v-3.8h-3.2v3.8H107.1z M111.5,15.6v-2.7c0-0.3,0.1-0.4,0.4-0.4h6.5c0.3,0,0.4,0.1,0.4,0.4
		v2.7c0,0.3-0.1,0.4-0.4,0.4H117v6c0.7-0.1,1.4-0.3,2.2-0.5c0,0,0.1,0,0.2,0c0.2,0,0.3,0.1,0.3,0.4l0,2.7c0,0.3-0.1,0.4-0.3,0.5
		c-2.3,0.7-4.8,1.3-7.6,1.7h-0.1c-0.2,0-0.3-0.1-0.3-0.4l-0.3-2.8v-0.1c0-0.2,0.1-0.4,0.4-0.4l0.9-0.1l1.3-0.2V16h-1.6
		C111.6,16,111.5,15.9,111.5,15.6z M111.2,9V6.1c0-0.3,0.1-0.4,0.4-0.4h7.7l0-5.1c0-0.3,0.1-0.4,0.4-0.4h3c0.3,0,0.4,0.1,0.4,0.4
		c0,1.8-0.1,3.5-0.1,5.1h2.2c-0.4-1.3-1-2.7-1.8-4c0-0.1-0.1-0.1-0.1-0.3c0-0.2,0.1-0.3,0.3-0.3l2.1-0.8c0,0,0.1,0,0.2,0
		c0.2,0,0.3,0.1,0.4,0.2c0.4,0.6,0.8,1.2,1.1,1.9c0.3,0.7,0.6,1.4,0.8,2c0,0,0,0.1,0,0.2c0,0.2-0.1,0.3-0.3,0.4l-1.9,0.7h1.4
		c0.3,0,0.4,0.1,0.4,0.4V9c0,0.3-0.1,0.4-0.4,0.4h-4.5c0.1,6.3,0.6,10.8,1.5,13.5c0.2,0.5,0.4,0.8,0.6,0.8c0.3,0,0.5-0.3,0.7-1
		s0.4-1.5,0.5-2.5c0-0.3,0.1-0.4,0.3-0.4c0.1,0,0.2,0,0.3,0.1l2,1.8c0.1,0.1,0.2,0.3,0.2,0.4l0,0.3c-0.3,2-0.8,3.6-1.6,4.6
		s-1.6,1.6-2.5,1.6c-0.7,0-1.4-0.3-2-1c-0.6-0.6-1.2-1.6-1.6-2.8c-1.1-3.2-1.8-8.4-2-15.6h-7.8C111.3,9.4,111.2,9.3,111.2,9z"/>
        <path d="M135.2,28.5l-2.3-3.2c-0.1-0.1-0.1-0.2-0.1-0.3c0-0.1,0.1-0.3,0.3-0.3c2.5-1,4.7-2.6,6.5-4.8c1.8-2.1,3.1-4.6,4-7.3
		c0.9-2.7,1.4-5.4,1.4-8.2v-4c0-0.3,0.1-0.4,0.4-0.4h3.5c0.3,0,0.4,0.1,0.4,0.4v2.3l0,0.1C149.5,6,150,9.1,151,12
		c1,2.9,2.4,5.5,4.2,7.7c1.8,2.2,3.9,3.9,6.3,4.9c0.2,0.1,0.3,0.2,0.3,0.3c0,0.1,0,0.1-0.1,0.3l-2.2,3.2c-0.1,0.1-0.2,0.2-0.4,0.2
		c-0.1,0-0.1,0-0.2-0.1c-2.5-1.3-4.8-3.2-6.9-5.8c-2.1-2.6-3.6-5.5-4.6-8.7c-1,3.2-2.5,6.1-4.5,8.8c-2,2.6-4.4,4.6-7.1,5.9
		c-0.1,0-0.2,0.1-0.3,0.1C135.4,28.7,135.3,28.6,135.2,28.5z"/>
        <path d="M168.3,28.5l-2.3-3.2c-0.1-0.1-0.1-0.2-0.1-0.3c0-0.1,0.1-0.3,0.3-0.3c2.5-1,4.7-2.6,6.5-4.8c1.8-2.1,3.1-4.6,4-7.3
		c0.9-2.7,1.4-5.4,1.4-8.2v-4c0-0.3,0.1-0.4,0.4-0.4h3.5c0.3,0,0.4,0.1,0.4,0.4v2.3l0,0.1c0.1,3.2,0.6,6.2,1.6,9.1
		c1,2.9,2.4,5.5,4.2,7.7c1.8,2.2,3.9,3.9,6.3,4.9c0.2,0.1,0.3,0.2,0.3,0.3c0,0.1,0,0.1-0.1,0.3l-2.2,3.2c-0.1,0.1-0.2,0.2-0.4,0.2
		c-0.1,0-0.1,0-0.2-0.1c-2.5-1.3-4.8-3.2-6.9-5.8c-2.1-2.6-3.6-5.5-4.6-8.7c-1,3.2-2.5,6.1-4.5,8.8c-2,2.6-4.4,4.6-7.1,5.9
		c-0.1,0-0.2,0.1-0.3,0.1C168.5,28.7,168.4,28.6,168.3,28.5z"/>
        <path d="M207,28.9l-3.3-1.3c-0.2-0.1-0.3-0.2-0.3-0.3c0-0.1,0-0.2,0.1-0.3c1.1-2,1.7-4.9,1.7-8.5v-1.8c-1.2,1.2-2.4,2.3-3.6,3.2
		c0,0-0.1,0-0.1,0.1c-0.1,0-0.1,0-0.2,0c-0.1,0-0.3-0.1-0.3-0.2l-2-3c-0.1-0.1-0.1-0.2-0.1-0.3c0-0.1,0.1-0.2,0.2-0.3
		c3.5-2.4,6.1-5.5,8-9.2h-6.6c-0.3,0-0.4-0.1-0.4-0.4V3.7c0-0.3,0.1-0.4,0.4-0.4h8.1c0.4-1.2,0.6-2.1,0.8-2.8
		c0.1-0.2,0.2-0.3,0.3-0.3h0.2l3.5,0.4c0.3,0,0.4,0.2,0.4,0.3c0,0.1,0,0.2,0,0.3l-0.6,2h13.9c0.3,0,0.4,0.1,0.4,0.4v2.8
		c0,0.3-0.1,0.4-0.4,0.4h-15.3c-0.3,0.8-0.7,1.6-1.2,2.4h14c0.3,0,0.4,0.1,0.4,0.4v14.1c0,1.2-0.2,2.1-0.6,2.8
		c-0.4,0.7-1.1,1.2-2.1,1.5c-1,0.3-2.4,0.5-4.2,0.5c-0.4,0-0.7,0-1,0c-0.3,0-0.5-0.2-0.5-0.3l-0.9-2.8c0-0.1,0-0.1,0-0.2
		c0-0.2,0.1-0.3,0.3-0.3h0.2l1.4,0c1,0,1.8-0.1,2.3-0.2c0.5-0.1,0.9-0.3,1-0.5c0.2-0.2,0.2-0.5,0.2-0.9v-0.5H209
		c-0.4,2.5-0.9,4.4-1.5,5.9c0,0.1-0.1,0.2-0.3,0.2C207.1,28.9,207,28.9,207,28.9z M220.8,19.9v-2.1h-11.6c0,0.9,0,1.6-0.1,2.1H220.8
		z M220.8,14.8v-2.1h-11.6v2.1H220.8z"/>
        <path d="M233.2,28.4l-1.1-2.8c0,0,0-0.1,0-0.2c0-0.2,0.1-0.3,0.4-0.3c5.7-0.2,9.3-1.2,10.7-3.1l-10.1,0.1c-0.3,0-0.4-0.1-0.4-0.4
		v-2.3c0-0.3,0.1-0.4,0.4-0.4h11.1c0.1-0.6,0.1-1.3,0.1-2c0-0.3,0.1-0.5,0.4-0.5l3.3,0c0.3,0,0.4,0.1,0.4,0.4c0,0.3,0,0.6,0,1
		c0,0.3-0.1,0.7-0.1,1h4.7c-0.4-0.6-0.9-1.2-1.4-1.7c-0.1-0.1-0.2-0.2-0.2-0.3c0-0.1,0.1-0.1,0.2-0.2c0.1-0.1,0.2-0.1,0.3-0.2
		l-0.6-1.3l-2,1.2c-0.1,0.1-0.2,0.1-0.3,0.1c-0.1,0-0.3-0.1-0.3-0.2c-0.7-0.9-1.6-1.7-2.6-2.4c-0.1-0.1-0.2-0.2-0.2-0.3
		s0.1-0.2,0.2-0.3l1.8-0.9h-3.1c-0.3,0-0.4-0.1-0.4-0.4v-1.7c0-0.3,0.1-0.4,0.4-0.4h0.4L245,9.7L244,8L244,7.8
		c0-0.2,0.1-0.3,0.4-0.3c1.3-0.1,2.3-0.2,2.9-0.3c-0.3-0.4-0.6-0.7-0.8-0.9c-0.1-0.1-0.2-0.3-0.2-0.3c0-0.1,0.1-0.2,0.3-0.3l1.4-0.5
		c0.1,0,0.2,0,0.2-0.1c0.1,0,0.2,0.1,0.3,0.2c0.5,0.4,0.9,0.8,1.3,1.4c0.5-0.1,1-0.2,1.4-0.4c-0.3-0.3-0.7-0.7-1.2-1.1
		C250,5,250,4.9,250,4.9c0-0.1,0.1-0.2,0.3-0.3l1.5-0.6c0.1,0,0.1,0,0.3,0c0.1,0,0.2,0,0.3,0.1c0.5,0.4,1,0.8,1.4,1.3
		c1-0.5,1.9-1.1,2.5-1.7h-5.9c-1.4,0.6-3,1.1-4.7,1.5h-0.2c-0.2,0-0.3-0.1-0.4-0.3l-1.1-1.7C244,3.1,244,3,244,2.9
		c0-0.2,0.1-0.3,0.4-0.3c1.5-0.2,2.8-0.5,4-0.9c1.2-0.4,2.1-0.9,2.7-1.5c0.1-0.1,0.2-0.2,0.4-0.2h0.2l2.7,0.5c0.2,0,0.3,0.1,0.3,0.3
		c0,0.1-0.1,0.2-0.2,0.3l-0.4,0.3h5.6c0.3,0,0.4,0.1,0.4,0.4v1.4c0,0.2,0,0.3-0.1,0.5c-1.1,1.5-2.8,2.8-5.2,3.9
		c-2.4,1.1-5.2,1.8-8.5,2.2h8.1V8.5c0-0.3,0.1-0.4,0.4-0.4h2.9c0.3,0,0.4,0.1,0.4,0.4v1.4h2c0.3,0,0.4,0.1,0.4,0.4V12
		c0,0.3-0.1,0.4-0.4,0.4h-2v1c0,1.1-0.2,2-0.5,2.5c-0.4,0.5-1.1,0.9-2.1,1.1c0.4,0.4,0.8,1,1.2,1.9h3.2c0.3,0,0.4,0.1,0.4,0.4v2.3
		c0,0.3-0.1,0.4-0.4,0.4L249.5,22c1.1,0.9,2.6,1.6,4.5,2.1c1.9,0.5,4.1,0.8,6.5,0.8c0.3,0,0.4,0.1,0.4,0.3c0,0.1,0,0.1,0,0.2
		l-1.1,2.8c-0.1,0.2-0.3,0.3-0.5,0.3c-6-0.4-10.3-2-12.8-4.9c-2.1,2.7-6.3,4.4-12.7,4.9h-0.1C233.5,28.7,233.3,28.6,233.2,28.4z
		 M235.3,17.8l-2.6-1.2c-0.2-0.1-0.3-0.2-0.3-0.3c0-0.1,0-0.1,0.1-0.2s0.1-0.1,0.1-0.1c1-0.9,1.6-2.3,1.8-3.9H233
		c-0.3,0-0.4-0.1-0.4-0.4V9.4c0-0.3,0.1-0.4,0.4-0.4h6.7V7.3h-5.4c-0.3,0-0.4-0.1-0.4-0.4V1.1c0-0.3,0.1-0.4,0.4-0.4h2.6
		c0.3,0,0.4,0.1,0.4,0.4v3.1h2.3V0.5c0-0.3,0.1-0.4,0.4-0.4h2.9c0.3,0,0.4,0.1,0.4,0.4v16.6c0,0.3-0.1,0.4-0.4,0.4h-2.9
		c-0.3,0-0.4-0.1-0.4-0.4V12H238c-0.2,2.4-0.9,4.3-2.1,5.7c-0.1,0.1-0.2,0.2-0.3,0.2C235.4,17.8,235.4,17.8,235.3,17.8z M251.8,14.6
		c1.1,0,1.8-0.1,2.2-0.4c0.3-0.2,0.5-0.6,0.5-1.2v-0.5h-5.9c1,0.5,1.9,1.2,2.8,2.1H251.8z"/>
        <path d="M276.5,21.7l0.1-0.3l1.6-4.9c-0.4-0.3-0.8-0.6-1-1c-0.2-0.4-0.4-0.9-0.4-1.4c0-0.8,0.3-1.4,0.8-1.9s1.2-0.8,2-0.8
		c0.8,0,1.5,0.3,2,0.8s0.8,1.1,0.8,1.9c0,0.5-0.1,1-0.3,1.6c-0.2,0.6-0.6,1.5-1.2,2.9l-1.4,3.1c-0.1,0.2-0.3,0.3-0.5,0.3h-2.1
		C276.6,22,276.5,21.9,276.5,21.7z"/>
        <path d="M298,25.7c0-0.1,0.1-0.3,0.2-0.3c1.3-1,2.4-2.2,3.2-3.4c0.8-1.2,1.4-2.5,1.7-3.8h-3.4c-0.3,0-0.4-0.1-0.4-0.4v-2.2
		c0-0.3,0.1-0.5,0.2-0.6c0.9-1,1.8-2.1,2.6-3.5h-3c-0.1,0-0.2,0-0.3-0.1c-0.1-0.1-0.1-0.2-0.1-0.3V8.3c0-0.1,0-0.2,0.1-0.3
		c0.1-0.1,0.2-0.1,0.3-0.1h6.6c0.2,0,0.3,0,0.4,0.1s0.1,0.2,0.1,0.3v2.1c0,0.2,0,0.3-0.1,0.5c-0.1,0.3-0.4,0.8-0.9,1.6
		c-0.5,0.8-1.1,1.6-1.7,2.5h2.8c0.3,0,0.4,0.2,0.4,0.5v0.3v0.9l-0.1,1c-0.2,1.4-0.6,2.9-1.2,4.3c0.3,0.3,0.5,0.5,0.7,0.6
		c0.2,0.1,0.4,0.3,0.6,0.4c1.2,0.8,2.7,1.3,4.7,1.5c0.8,0.1,1.7,0.1,2.9,0.1h2c4-0.1,7-0.2,8.9-0.4c0.5-0.1,1.1-0.1,1.8-0.3h0.1
		c0.1,0,0.2,0,0.2,0.1c0.1,0.1,0.1,0.1,0.1,0.2l0,0.2l-0.9,3c-0.1,0.2-0.3,0.4-0.6,0.4c-2.5,0.3-5.6,0.4-9.5,0.4
		c-2.4,0-4.3-0.1-5.6-0.2c-1.1-0.1-2.1-0.3-2.8-0.4s-1.4-0.4-2-0.8c-0.8-0.4-1.6-1-2.3-1.7c-0.8,1.2-1.6,2.1-2.5,2.9
		c0,0-0.1,0.1-0.2,0.1c-0.1,0-0.2,0-0.3,0c-0.1,0-0.2,0-0.3-0.1l-2.5-2.1C298.1,25.9,298,25.8,298,25.7z M302.7,6.6
		c-0.5-0.8-1-1.5-1.6-2.1c-0.5-0.6-1.1-1.2-1.9-1.9c-0.1-0.1-0.2-0.2-0.2-0.3c0-0.1,0.1-0.2,0.2-0.3l2.2-1.7
		c0.1-0.1,0.2-0.1,0.3-0.1c0.1,0,0.2,0,0.3,0.1c0.5,0.5,1.1,1.1,1.8,1.9c0.6,0.7,1.2,1.5,1.7,2.3c0.1,0.1,0.1,0.2,0.1,0.3
		c0,0.1-0.1,0.3-0.2,0.4l-2.2,1.7c-0.1,0.1-0.1,0.1-0.2,0.1C302.9,6.8,302.8,6.8,302.7,6.6z M320.2,23.1l-0.7-1.8h-6.4
		c-0.3,0-0.4-0.1-0.4-0.4v-6.3c0-0.3,0.1-0.4,0.4-0.4h7.9c0.3,0,0.4,0.1,0.4,0.4v5.6c0.5-0.1,0.8-0.2,0.9-0.4s0.2-0.5,0.2-1V3.9
		h-10.9V10c0,2.8-0.1,5.3-0.3,7.4c-0.2,2.1-0.6,3.9-1.2,5.5c0,0.1-0.1,0.2-0.2,0.3c-0.1,0-0.2,0-0.3-0.1l-2.6-1.6
		c-0.2-0.1-0.3-0.3-0.2-0.6c0.6-1.4,0.9-3,1.1-4.7c0.2-1.7,0.2-3.9,0.2-6.6V1.2c0-0.3,0.1-0.4,0.4-0.4h17.1c0.3,0,0.4,0.1,0.4,0.4
		v17.5c0,1.3-0.1,2.3-0.4,3c-0.3,0.7-0.8,1.1-1.5,1.4c-0.7,0.3-1.9,0.4-3.4,0.4C320.5,23.4,320.3,23.3,320.2,23.1z M312.3,12.4v-1.8
		c0-0.3,0.1-0.4,0.4-0.4h2.7V8.6h-2.3c-0.3,0-0.4-0.1-0.4-0.4V6.4c0-0.3,0.1-0.4,0.4-0.4h2.3V5c0-0.3,0.1-0.4,0.4-0.4h2.4
		c0.3,0,0.4,0.1,0.4,0.4v1h2.4c0.3,0,0.4,0.1,0.4,0.4v1.8c0,0.3-0.1,0.4-0.4,0.4h-2.4v1.5h2.6c0.3,0,0.4,0.1,0.4,0.4v1.8
		c0,0.3-0.1,0.4-0.4,0.4h-8.6C312.5,12.8,312.3,12.7,312.3,12.4z M318.6,18.7v-2h-3.1v2H318.6z"/>
        <path d="M331.1,25.7c0-0.1,0.1-0.3,0.2-0.3c1.3-1,2.4-2.2,3.2-3.4c0.8-1.2,1.4-2.5,1.7-3.8h-3.4c-0.3,0-0.4-0.1-0.4-0.4v-2.2
		c0-0.3,0.1-0.5,0.2-0.6c0.9-1,1.8-2.1,2.6-3.5h-3c-0.1,0-0.2,0-0.3-0.1c-0.1-0.1-0.1-0.2-0.1-0.3V8.3c0-0.1,0-0.2,0.1-0.3
		c0.1-0.1,0.2-0.1,0.3-0.1h6.6c0.2,0,0.3,0,0.4,0.1c0.1,0.1,0.1,0.2,0.1,0.3v2.1c0,0.2,0,0.3-0.1,0.5c-0.1,0.3-0.4,0.8-0.9,1.6
		c-0.5,0.8-1.1,1.6-1.7,2.5h2.8c0.3,0,0.4,0.2,0.4,0.5v0.3v0.9l-0.1,1c-0.2,1.4-0.6,2.9-1.2,4.3c0.3,0.3,0.5,0.5,0.7,0.6
		c0.2,0.1,0.4,0.3,0.6,0.4c1.2,0.8,2.7,1.3,4.7,1.5c0.8,0.1,1.7,0.1,2.9,0.1h2c4-0.1,7-0.2,8.9-0.4c0.5-0.1,1.1-0.1,1.8-0.3h0.1
		c0.1,0,0.2,0,0.2,0.1c0.1,0.1,0.1,0.1,0.1,0.2l0,0.2l-0.9,3c-0.1,0.2-0.3,0.4-0.6,0.4c-2.5,0.3-5.6,0.4-9.5,0.4
		c-2.4,0-4.3-0.1-5.6-0.2c-1.1-0.1-2.1-0.3-2.8-0.4c-0.7-0.2-1.4-0.4-2-0.8c-0.8-0.4-1.6-1-2.3-1.7c-0.8,1.2-1.6,2.1-2.5,2.9
		c0,0-0.1,0.1-0.2,0.1c-0.1,0-0.2,0-0.3,0c-0.1,0-0.2,0-0.3-0.1l-2.5-2.1C331.2,25.9,331.1,25.8,331.1,25.7z M335.8,6.6
		c-0.5-0.8-1-1.5-1.6-2.1c-0.5-0.6-1.1-1.2-1.9-1.9c-0.1-0.1-0.2-0.2-0.2-0.3c0-0.1,0.1-0.2,0.2-0.3l2.2-1.7
		c0.1-0.1,0.2-0.1,0.3-0.1c0.1,0,0.2,0,0.3,0.1c0.5,0.5,1.1,1.1,1.8,1.9c0.6,0.7,1.2,1.5,1.7,2.3c0.1,0.1,0.1,0.2,0.1,0.3
		c0,0.1-0.1,0.3-0.2,0.4l-2.2,1.7c-0.1,0.1-0.1,0.1-0.2,0.1C336,6.8,335.8,6.8,335.8,6.6z M353.3,23.1l-0.7-1.8h-6.4
		c-0.3,0-0.4-0.1-0.4-0.4v-6.3c0-0.3,0.1-0.4,0.4-0.4h7.9c0.3,0,0.4,0.1,0.4,0.4v5.6c0.5-0.1,0.8-0.2,0.9-0.4s0.2-0.5,0.2-1V3.9
		h-10.9V10c0,2.8-0.1,5.3-0.3,7.4c-0.2,2.1-0.6,3.9-1.2,5.5c0,0.1-0.1,0.2-0.2,0.3s-0.2,0-0.3-0.1l-2.6-1.6
		c-0.2-0.1-0.3-0.3-0.2-0.6c0.6-1.4,0.9-3,1.1-4.7c0.2-1.7,0.2-3.9,0.2-6.6V1.2c0-0.3,0.1-0.4,0.4-0.4h17.1c0.3,0,0.4,0.1,0.4,0.4
		v17.5c0,1.3-0.1,2.3-0.4,3c-0.3,0.7-0.8,1.1-1.5,1.4c-0.7,0.3-1.9,0.4-3.4,0.4C353.5,23.4,353.4,23.3,353.3,23.1z M345.4,12.4v-1.8
		c0-0.3,0.1-0.4,0.4-0.4h2.7V8.6h-2.3c-0.3,0-0.4-0.1-0.4-0.4V6.4c0-0.3,0.1-0.4,0.4-0.4h2.3V5c0-0.3,0.1-0.4,0.4-0.4h2.4
		c0.3,0,0.4,0.1,0.4,0.4v1h2.4c0.3,0,0.4,0.1,0.4,0.4v1.8c0,0.3-0.1,0.4-0.4,0.4h-2.4v1.5h2.6c0.3,0,0.4,0.1,0.4,0.4v1.8
		c0,0.3-0.1,0.4-0.4,0.4h-8.6C345.5,12.8,345.4,12.7,345.4,12.4z M351.6,18.7v-2h-3.1v2H351.6z"/>
        <path d="M366.4,15l-2.1-3.1l-0.1-0.2c0-0.2,0.1-0.3,0.2-0.4c3.3-2.2,5.7-5.3,7.2-9.3c0.1-0.2,0.2-0.3,0.4-0.3l0.2,0l3.1,1.3
		c0.1,0,0.2,0.1,0.3,0.2c0,0.1,0,0.2,0,0.3c-0.9,2.3-2.2,4.5-3.6,6.5s-3.1,3.7-5,5.1c-0.1,0.1-0.2,0.1-0.3,0.1
		C366.6,15.2,366.5,15.1,366.4,15z M367.7,27.2l-0.6-3v-0.1c0-0.2,0.1-0.4,0.2-0.5c0.4-0.3,0.9-0.8,1.5-1.5c1.2-1.4,2.5-3.3,4-5.7
		c1.5-2.5,2.5-4.6,3.1-6.5c0.1-0.3,0.3-0.4,0.5-0.3l3.3,1.1c0.1,0,0.2,0.1,0.3,0.2c0.1,0.1,0.1,0.2,0,0.3c-0.9,2.2-2,4.4-3.3,6.6
		c-1.3,2.2-2.6,4.1-3.8,5.6c5-0.4,9.1-0.8,12.3-1.3c-0.8-1.8-1.8-3.5-2.8-5.1c-0.1-0.1-0.1-0.2-0.1-0.3c0-0.2,0.1-0.3,0.3-0.3
		l2.8-1.1c0.1,0,0.2,0,0.2-0.1c0.2,0,0.3,0.1,0.4,0.2c2.4,3.6,4.4,7.4,5.8,11.3c0,0,0,0.1,0,0.2c0,0.2-0.1,0.3-0.3,0.4l-3.3,1.3
		l-0.1,0c-0.2,0-0.4-0.2-0.6-0.7l-0.8-2.1c-2.8,0.4-5.9,0.8-9.4,1.1c-3.4,0.3-6.6,0.5-9.4,0.6C367.9,27.6,367.8,27.5,367.7,27.2z
		 M390.6,14.9c-1.9-1.4-3.5-3-4.9-4.6s-2.6-3.6-3.6-5.7h-5c-0.3,0-0.4-0.1-0.4-0.4V1c0-0.3,0.1-0.4,0.4-0.4h7.4
		c0.3,0,0.4,0.1,0.5,0.3c0.9,2.1,2.1,4,3.4,5.7c1.4,1.7,3,3.1,4.7,4.3c0.1,0.1,0.2,0.2,0.2,0.3c0,0.1,0,0.1-0.1,0.3l-2,3.3
		c-0.1,0.1-0.2,0.2-0.3,0.2C390.8,15,390.7,15,390.6,14.9z"/>
        <path d="M415.5,28.3V16h-2.8v9.4c0,0.3-0.1,0.4-0.4,0.4h-2.7c-0.3,0-0.4-0.1-0.4-0.4v-8.1c-0.5,0.7-1.1,1.4-1.8,2.1
		c-0.1,0.1-0.2,0.2-0.3,0.2c-0.1,0-0.3-0.1-0.3-0.2l-1.8-2.1v11.1c0,0.3-0.1,0.4-0.4,0.4h-3c-0.3,0-0.4-0.1-0.4-0.4V13.6
		c-0.5,0.7-1.1,1.5-1.9,2.3c-0.1,0.1-0.2,0.2-0.3,0.2c-0.1,0-0.3-0.1-0.3-0.3l-1.4-3.5c0-0.1-0.1-0.2-0.1-0.3c0-0.1,0.1-0.2,0.2-0.3
		c1.4-1.4,2.7-3,3.7-5.1c1.1-2,1.9-4,2.4-6c0.1-0.2,0.2-0.3,0.3-0.3l0.4,0.1l2.9,0.6c0.2,0,0.3,0.1,0.4,0.3c0,0.1,0,0.1,0,0.2
		c-0.7,2.5-1.6,4.8-2.6,6.7V16c2.6-2.5,4.6-5.3,6-8.6h-3.4c-0.3,0-0.4-0.1-0.4-0.4V4.2c0-0.3,0.1-0.4,0.4-0.4h4.7
		c0.3-1.1,0.5-2.2,0.7-3.3c0-0.2,0.2-0.3,0.4-0.4h0.2l3.1,0.3c0.2,0,0.4,0.1,0.4,0.3v0.1c-0.2,0.9-0.4,1.9-0.7,2.9h9.7
		c0.3,0,0.4,0.1,0.4,0.4V7c0,0.3-0.1,0.4-0.4,0.4h-11c-0.8,1.9-1.6,3.6-2.5,5h3.1V9.3c0-0.3,0.1-0.4,0.4-0.4h2.7
		c0.3,0,0.4,0.1,0.4,0.4v3.1h5.9c0.3,0,0.5,0.1,0.5,0.4v8.4c0,1.1-0.1,2-0.4,2.6c-0.2,0.6-0.7,1.1-1.3,1.4c-0.7,0.3-1.6,0.4-2.8,0.4
		c-0.3,0-0.5-0.1-0.5-0.4l-0.9-2.8c0-0.1,0-0.1,0-0.2c0-0.1,0-0.2,0.1-0.3s0.2-0.1,0.3-0.1c0.8,0,1.4-0.1,1.6-0.4s0.4-0.8,0.4-1.6
		V16h-2.9v12.4c0,0.3-0.1,0.4-0.4,0.4h-2.7C415.6,28.8,415.5,28.6,415.5,28.3z"/>
        <path d="M431.7,28.3l-1-3.1c0-0.1,0-0.1,0-0.2c0-0.2,0.1-0.3,0.4-0.3h0.2c0.8,0,1.3-0.1,1.7-0.2c0.4-0.1,0.6-0.3,0.7-0.6
		c0.1-0.3,0.2-0.7,0.2-1.3v-4.3c-0.5,0.1-1,0.3-1.6,0.4c-0.5,0.1-0.9,0.2-1.1,0.3c-0.2,0-0.3-0.1-0.4-0.4l-0.4-3.1v-0.1
		c0-0.2,0.1-0.3,0.4-0.4c0.7-0.1,1.7-0.4,3.1-0.7V9h-2.5c-0.3,0-0.4-0.1-0.4-0.4V5.8c0-0.3,0.1-0.4,0.4-0.4h2.5V0.5
		c0-0.3,0.1-0.4,0.4-0.4h2.9c0.3,0,0.4,0.1,0.4,0.4v4.9h1.7c0.3,0,0.4,0.1,0.4,0.4v2.8c0,0.3-0.1,0.4-0.4,0.4h-1.7v4.4
		c0.6-0.2,1.2-0.4,1.8-0.7c0.1,0,0.2,0,0.2-0.1c0.2,0,0.3,0.1,0.3,0.4v3.1c0,0.3-0.1,0.4-0.3,0.5l-2,0.8v5.4c0,1.6-0.1,2.8-0.4,3.6
		c-0.2,0.8-0.7,1.4-1.4,1.7c-0.7,0.4-1.8,0.5-3.2,0.5h-0.4C432,28.7,431.8,28.6,431.7,28.3z M442.9,28.6l-2.8-1.9
		c-0.1-0.1-0.2-0.2-0.2-0.3c0-0.1,0.1-0.3,0.2-0.3c2-1.3,3.4-3.1,4.1-5.5c-1.3,0.6-2.5,1-3.6,1.3c0,0-0.1,0-0.2,0
		c-0.2,0-0.3-0.1-0.4-0.4l-0.7-3c0-0.1,0-0.2,0.1-0.3c0.1-0.1,0.2-0.1,0.3-0.1c1.8-0.3,3.4-0.6,4.7-1l0.1-2.6h-3.3
		c-0.3,0-0.4-0.1-0.4-0.4v-2.6c0-0.3,0.1-0.4,0.4-0.4h3.3v-3h-3.6c-0.3,0-0.4-0.1-0.4-0.4V4.9c0-0.3,0.1-0.4,0.4-0.4h3.6V0.5
		c0-0.3,0.1-0.4,0.4-0.4h3c0.3,0,0.4,0.1,0.4,0.4v11.3c0,3-0.1,5.5-0.3,7.3s-0.6,3.5-1.3,5.2s-1.8,3.1-3.4,4.3
		c-0.1,0.1-0.2,0.1-0.3,0.1C443.1,28.8,443,28.7,442.9,28.6z M450.7,28.3V0.5c0-0.3,0.1-0.4,0.4-0.4h3c0.3,0,0.4,0.1,0.4,0.4v3.9
		h4.1c0.3,0,0.4,0.1,0.4,0.4v2.8c0,0.3-0.1,0.4-0.4,0.4h-4.1v3h3.6c0.3,0,0.4,0.1,0.4,0.4v2.7c0,0.3-0.1,0.4-0.4,0.4h-3.6v3.2h4.3
		c0.3,0,0.4,0.1,0.4,0.4v2.8c0,0.3-0.1,0.4-0.4,0.4h-4.3v6.7c0,0.3-0.1,0.4-0.4,0.4h-3C450.8,28.8,450.7,28.6,450.7,28.3z"/>
        <path d="M466.4,11.4c-0.2,0-0.3-0.1-0.4-0.2l-2-3C464,8.1,464,8.1,464,8c0-0.1,0.1-0.3,0.3-0.3c2.1-0.7,4.2-1.8,6.1-3.1
		c1.9-1.3,3.4-2.8,4.4-4.2c0.1-0.2,0.3-0.3,0.6-0.3l3.6,0.5c0.2,0.1,0.3,0.2,0.3,0.3c0,0.1,0,0.1-0.1,0.3l-0.9,1.3h11
		c0.3,0,0.4,0.1,0.4,0.4v2.7c0,0.2,0,0.4-0.1,0.5c-2.5,3.7-6.1,6.8-10.9,9.4h11.4c0.3,0,0.4,0.1,0.4,0.4v11.8c0,0.3-0.1,0.4-0.4,0.4
		h-20.2c-0.3,0-0.4-0.1-0.4-0.4v-8.5c-0.8,0.3-2,0.6-3.7,1.1h-0.2c-0.2,0-0.3-0.1-0.4-0.3l-1.5-3.2c0-0.1,0-0.2-0.1-0.2
		c0-0.2,0.1-0.3,0.3-0.3c3.8-0.7,7.2-1.6,10.3-2.9c-1.4-1.3-2.9-2.5-4.5-3.6c-0.9,0.5-2,1.1-3.1,1.6
		C466.6,11.4,466.5,11.4,466.4,11.4z M478,11.6c2.8-1.6,5-3.4,6.7-5.5h-9.9c-0.4,0.4-1,0.9-1.9,1.5C474.9,8.8,476.5,10.2,478,11.6z
		 M486.5,19h-13v5.5h13V19z"/>
        <path d="M508,21.7l0.1-0.3l1.6-4.9c-0.4-0.3-0.8-0.6-1-1c-0.2-0.4-0.4-0.9-0.4-1.4c0-0.8,0.3-1.4,0.8-1.9c0.5-0.5,1.2-0.8,2-0.8
		s1.5,0.3,2,0.8c0.5,0.5,0.8,1.1,0.8,1.9c0,0.5-0.1,1-0.3,1.6c-0.2,0.6-0.6,1.5-1.2,2.9l-1.4,3.1c-0.1,0.2-0.3,0.3-0.5,0.3h-2.1
		C508.1,22,508,21.9,508,21.7z"/>
        <path d="M3.1,62.3c-0.1,0-0.2-0.1-0.3-0.2l-2.1-3c0-0.1-0.1-0.1-0.1-0.3c0-0.1,0.1-0.3,0.2-0.3c3.2-2,5.7-5.1,7.3-9.3
		c0.1-0.3,0.3-0.4,0.6-0.3l3,1.2c0.3,0.1,0.4,0.3,0.3,0.6c-0.5,1.3-1.1,2.7-1.9,4.1c-0.8,1.4-1.7,2.7-2.7,3.9h15.5
		c-0.8-0.9-1.5-2-2.2-3.1c-0.7-1.1-1.4-2.4-2.1-3.8h-5.1c-0.3,0-0.4-0.1-0.4-0.4v-3.1c0-0.3,0.1-0.4,0.4-0.4h7.4
		c0.3,0,0.5,0.1,0.5,0.3c1.9,4.6,4.5,7.9,7.8,10c0.1,0.1,0.2,0.2,0.2,0.3c0,0.1,0,0.2-0.1,0.3l-2,3.3c-0.1,0.2-0.2,0.3-0.3,0.3
		c-0.1,0-0.1,0-0.3-0.1c-0.9-0.6-1.7-1.3-2.3-1.9c0,3.3-0.1,6.2-0.3,8.6c-0.1,1.8-0.4,3.1-0.9,4.1c-0.5,1-1.3,1.7-2.4,2.1
		s-2.6,0.6-4.4,0.6h-1c-0.3,0-0.4-0.2-0.5-0.4L13.7,72l0-0.2v0c0-0.2,0.1-0.3,0.4-0.3l1.4,0.1c1.2,0,2-0.1,2.7-0.3
		c0.6-0.2,1.1-0.6,1.4-1c0.3-0.5,0.5-1.1,0.5-2c0.1-1.2,0.2-2.9,0.2-4.9v-0.8h-5.1c-0.3,3.5-1.4,6.4-3.2,8.7
		C10.1,73.4,7.4,75,3.7,76c0,0-0.1,0-0.2,0c-0.2,0-0.3-0.1-0.4-0.3l-2-3c-0.1-0.1-0.1-0.2-0.1-0.3c0-0.1,0.1-0.3,0.3-0.3
		c3-0.7,5.3-1.8,6.8-3.4c1.5-1.6,2.4-3.7,2.7-6.4H6.7c-0.3,0-0.4-0.1-0.4-0.4v-2.1c-1,1-1.9,1.8-2.8,2.4C3.3,62.3,3.2,62.3,3.1,62.3
		z"/>
        <path d="M34.3,64.3v-4.6c0-0.3,0.1-0.4,0.4-0.4h5.4v-1h-4.8c-0.3,0-0.4-0.1-0.4-0.4v-2.7H34c-0.3,0-0.4-0.1-0.4-0.4v-2.4
		c0-0.3,0.1-0.4,0.4-0.4h0.9v-2.8c0-0.3,0.1-0.4,0.4-0.4h4.8v-1c0-0.3,0.1-0.4,0.4-0.4h3c0.3,0,0.4,0.1,0.4,0.4v1h4.7
		c0.3,0,0.4,0.1,0.4,0.4v2.8h0.7c0.3,0,0.4,0.1,0.4,0.4v2.2c0,0.3-0.1,0.4-0.4,0.4H49v2.8c0,0.3-0.1,0.4-0.4,0.4h-4.7v1h4.7l0.1-0.1
		c0.9-1.3,1.7-3,2.3-5.1c0.7-2.1,1.1-4.2,1.5-6.4c0-0.3,0.2-0.4,0.4-0.4H53l3.1,0.4c0.1,0,0.3,0.1,0.3,0.2s0.1,0.2,0.1,0.3
		c-0.3,1.2-0.6,2.4-0.9,3.5h6.3c0.3,0,0.4,0.1,0.4,0.4v2.9c0,0.3-0.1,0.4-0.4,0.4h-0.8c-0.2,5.2-1.2,9.3-2.9,12.3
		c0.6,0.9,1.3,1.7,2,2.4s1.5,1.3,2.4,1.9c0.1,0.1,0.2,0.2,0.2,0.3c0,0.1,0,0.2-0.1,0.3l-1.9,3c-0.1,0.1-0.2,0.2-0.3,0.2
		c-0.1,0-0.1,0-0.3-0.1c-1.7-1.2-3.1-2.7-4.3-4.5c-1.5,1.9-3.2,3.5-5.1,4.6C50.8,76,50.7,76,50.6,76c-0.1,0-0.2-0.1-0.3-0.3
		l-1.4-2.3l-1.2,1.9c-0.1,0.1-0.2,0.2-0.4,0.2l-0.3-0.1c-1.5-0.9-2.5-1.4-3.1-1.7c-2.2,1.3-5.1,2.1-8.9,2.3c-0.3,0-0.4-0.1-0.5-0.3
		l-0.9-2.6c0-0.1,0-0.1,0-0.2c0-0.2,0.1-0.3,0.4-0.3c2.7,0,4.8-0.1,6.3-0.6c-1.2-0.4-2.6-0.7-4.3-1.1c-0.2,0-0.3-0.1-0.3-0.3
		c0-0.1,0-0.2,0.1-0.3c0.3-0.4,0.5-1,0.9-1.7h-2.9c-0.3,0-0.4-0.1-0.4-0.4v-2c0-0.3,0.1-0.4,0.4-0.4h4.4c0.2-0.4,0.4-0.8,0.6-1.3
		h-4.2C34.4,64.7,34.3,64.6,34.3,64.3z M37.5,61.3v1.4h3.1v-1.4H37.5z M37.9,51.2v1.3h2.7v-1.3H37.9z M37.9,54.6V56h2.7v-1.5H37.9z
		 M43.3,70.5c0.5-0.6,0.9-1.2,1.1-1.9h-3.7l-0.6,1.1C41,69.9,42,70.1,43.3,70.5z M49.2,64.7h-6.5L42.2,66h7.9c0.1,0,0.2,0,0.3,0.1
		c0.1,0.1,0.1,0.2,0.1,0.3v1.9c0,0.1,0,0.3-0.1,0.3c-0.1,0.1-0.2,0.1-0.3,0.1h-2.3c-0.3,0.8-0.7,1.7-1.4,2.7c0.9,0.3,1.6,0.6,2,0.8
		c0,0,0.1-0.1,0.2-0.2c1-0.5,2-1.2,2.9-1.9s1.7-1.6,2.3-2.5c-0.9-1.8-1.6-4-2.2-6.7L51,62.2c-0.1,0.1-0.2,0.2-0.3,0.2
		c-0.1,0-0.2-0.1-0.3-0.2l-0.8-1.1v3.1C49.6,64.6,49.5,64.7,49.2,64.7z M43.4,51.2v1.3h2.7v-1.3H43.4z M43.4,54.6V56h2.7v-1.5H43.4z
		 M43.4,61.3v1.4h3.1v-1.4H43.4z M54.2,55.9c0.3,3.2,0.9,6,1.8,8.3c0.9-2,1.4-4.9,1.5-8.6h-3.1L54.2,55.9z"/>
        <path d="M86.9,67.3L86,64.9c0-0.1-0.1-0.1-0.1-0.2c0-0.2,0.1-0.3,0.4-0.3c0.7,0,1.3,0,1.8-0.1c0.5-0.1,0.8-0.2,1-0.4
		c0.2-0.2,0.2-0.5,0.2-0.9v-6.8c0-0.3,0.1-0.4,0.4-0.4h2.4c-1.6-0.5-3.3-1.2-5.1-2v0.9c0,0.3-0.1,0.4-0.4,0.4H76
		c-0.3,0-0.4-0.1-0.4-0.4v-0.9c-2.5,1.2-5,2.1-7.3,2.7H68c-0.2,0-0.3-0.1-0.4-0.3l-1.2-3c0,0,0-0.1,0-0.2c0-0.2,0.1-0.3,0.3-0.3
		c2.4-0.5,4.7-1.1,6.8-2c2.1-0.9,3.9-1.9,5.3-3c0.1-0.1,0.3-0.2,0.5-0.2h3.3c0.2,0,0.4,0.1,0.5,0.2c1.5,1.1,3.3,2.1,5.4,3
		c2.1,0.9,4.4,1.5,6.8,1.9c0.2,0,0.3,0.1,0.3,0.3c0,0.1,0,0.1,0,0.2l-1.2,3c-0.1,0.2-0.2,0.3-0.4,0.3h-0.1c-0.1,0-0.5-0.1-0.9-0.2
		l0,0.2v7.4c0,1-0.2,1.8-0.5,2.3c-0.3,0.6-0.9,1-1.7,1.3c-0.8,0.3-2,0.4-3.4,0.4C87.2,67.6,87,67.5,86.9,67.3z M70,75.5l-2.9-1.1
		c-0.2-0.1-0.3-0.2-0.3-0.3c0-0.1,0-0.2,0.1-0.3c0.5-0.7,0.9-1.5,1.3-2.5c0.4-1,0.7-2,1-2.9c0.1-0.3,0.2-0.4,0.5-0.3l2.8,0.7
		c0.1,0,0.3,0.1,0.3,0.2c0.1,0.1,0.1,0.2,0,0.3c-0.3,1-0.6,2.1-1,3.2c-0.4,1.2-0.9,2.1-1.3,2.8c-0.1,0.1-0.2,0.2-0.3,0.2
		C70.2,75.5,70.1,75.5,70,75.5z M82.8,71.8c-0.1,0-0.1-0.1-0.1-0.1c-1.1-1.1-2.2-2-3.5-2.8c-0.2-0.1-0.3-0.2-0.3-0.3
		c0-0.1,0.1-0.2,0.2-0.3l1.1-1.1c-0.8,0.3-2.1,0.4-3.7,0.4c-0.3,0-0.4-0.1-0.5-0.4l-0.5-1.4c0,0,0-0.1,0-0.2c0-0.2,0.1-0.3,0.4-0.3
		c1,0,1.8,0,2.2-0.1c0.4-0.1,0.6-0.4,0.6-0.9h-6.1c-0.2,1.3-0.6,2.4-1,3.2c0,0.1-0.1,0.1-0.2,0.2c-0.1,0-0.2,0-0.3,0l-2.6-1.1
		c-0.3-0.1-0.3-0.3-0.2-0.6c0.5-0.9,0.8-1.9,0.9-2.9c0.1-1,0.2-2.2,0.2-3.4v-3.1c0-0.3,0.1-0.4,0.4-0.4h11.8c0.3,0,0.4,0.1,0.4,0.4
		V64c0,0.7,0,1.2-0.1,1.5s-0.3,0.7-0.6,1c0.6,0.3,1.2,0.7,1.9,1.2c0.7,0.5,1.2,1,1.7,1.5c0.1,0.1,0.2,0.2,0.2,0.3
		c0,0.1-0.1,0.2-0.2,0.3l-1.6,1.8c-0.1,0.1-0.2,0.2-0.3,0.2C82.9,71.9,82.9,71.9,82.8,71.8z M78.6,62.5v-1.2h-5.8
		c0,0.3,0,0.7-0.1,1.2H78.6z M78.6,59.5v-1.2h-5.8v1.2H78.6z M77.6,75.8c-1.4,0-2.3-0.4-2.9-0.9c-0.6-0.6-0.9-1.5-0.9-2.8v-3.1
		c0-0.3,0.1-0.4,0.4-0.4h3.1c0.3,0,0.4,0.1,0.4,0.4V71c0,0.5,0.1,0.9,0.3,1.1c0.2,0.2,0.5,0.4,1.1,0.4l2.6,0.1l2.6-0.1
		c0.5,0,0.9-0.1,1.1-0.3s0.4-0.5,0.6-0.9c0.1-0.4,0.2-1,0.3-1.7c0-0.1,0.1-0.3,0.2-0.3c0.1-0.1,0.2-0.1,0.4,0l2.6,1.2
		c0.2,0.1,0.3,0.3,0.3,0.5c-0.2,1.3-0.5,2.3-0.9,2.9c-0.4,0.7-0.9,1.1-1.6,1.4c-0.7,0.2-1.7,0.4-2.9,0.4c-0.7,0-1.7,0.1-3.3,0.1
		C79.5,75.8,78.3,75.8,77.6,75.8z M84.7,52.5c-1.4-0.8-2.5-1.5-3.5-2.3c-0.9,0.7-2.1,1.5-3.5,2.3H84.7z M83.8,63.2v-6.2
		c0-0.3,0.1-0.4,0.4-0.4h2.6c0.3,0,0.4,0.1,0.4,0.4v6.2c0,0.3-0.1,0.4-0.4,0.4h-2.6C84,63.6,83.8,63.4,83.8,63.2z M91.9,74.6
		c-0.4-1-0.8-2-1.3-3c-0.5-1-1.1-1.8-1.7-2.4c-0.1-0.1-0.1-0.2-0.1-0.3c0-0.1,0.1-0.2,0.3-0.3l2.4-0.9c0.1,0,0.2-0.1,0.3-0.1
		c0.1,0,0.3,0.1,0.3,0.2c0.5,0.5,1.1,1.3,1.7,2.3c0.6,1,1.2,2,1.6,3c0,0.1,0,0.1,0,0.2c0,0.2-0.1,0.3-0.3,0.3l-2.6,1.2
		c-0.1,0-0.1,0-0.2,0C92.1,74.9,92,74.8,91.9,74.6z"/>
        <path d="M128,49.7v2.4c0,0.3-0.1,0.4-0.4,0.4h-26.7c-0.3,0-0.4-0.1-0.4-0.4v-2.4c0-0.3,0.1-0.4,0.4-0.4h11.5
		c-0.3-0.5-0.6-0.9-0.9-1.3c0-0.1-0.1-0.1-0.1-0.2c0-0.2,0.1-0.3,0.4-0.4l3.3-0.3h0.1c0.2,0,0.4,0.1,0.5,0.3c0.3,0.4,0.6,1,0.9,1.8
		h11C127.9,49.2,128,49.4,128,49.7z M104.4,76.1h-2.9c-0.3,0-0.4-0.1-0.4-0.4V62.8c0-0.3,0.1-0.4,0.4-0.4H127c0.3,0,0.4,0.1,0.4,0.4
		v8.6c0,1.2-0.2,2.1-0.6,2.7c-0.4,0.7-1,1.1-1.9,1.4c-0.9,0.3-2,0.5-3.4,0.5h-0.4c-0.3,0-0.5-0.1-0.6-0.3l-0.9-1.8h-12
		c-0.3,0-0.4-0.1-0.4-0.4v-6.2c0-0.3,0.1-0.4,0.4-0.4h12.8c0.3,0,0.4,0.1,0.4,0.4v5.4c0.8,0,1.4-0.1,1.8-0.2
		c0.4-0.1,0.6-0.3,0.7-0.5c0.1-0.2,0.1-0.5,0.1-0.9v-5.6h-18.8v10.3C104.8,75.9,104.6,76.1,104.4,76.1z M104.2,53.8h20
		c0.3,0,0.4,0.1,0.4,0.4v6.3c0,0.3-0.1,0.4-0.4,0.4h-20c-0.3,0-0.4-0.1-0.4-0.4v-6.3C103.8,53.9,103.9,53.8,104.2,53.8z M120.7,56.4
		h-13v2h13V56.4z M110.8,69.4v2h6.6v-2H110.8z"/>
        <path d="M134,75.6l-1.1-2.8c0,0,0-0.1,0-0.2c0-0.2,0.1-0.3,0.4-0.3c5.7-0.2,9.3-1.2,10.7-3.1l-10.1,0.1c-0.3,0-0.4-0.1-0.4-0.4
		v-2.3c0-0.3,0.1-0.4,0.4-0.4H145c0.1-0.6,0.1-1.3,0.1-2c0-0.3,0.1-0.5,0.4-0.5l3.3,0c0.3,0,0.4,0.1,0.4,0.4c0,0.3,0,0.6,0,1
		c0,0.3-0.1,0.7-0.1,1h4.7c-0.4-0.6-0.9-1.2-1.4-1.7c-0.1-0.1-0.2-0.2-0.2-0.3c0-0.1,0.1-0.1,0.2-0.2c0.1-0.1,0.2-0.1,0.3-0.2
		l-0.6-1.3l-2,1.2c-0.1,0.1-0.2,0.1-0.3,0.1c-0.1,0-0.3-0.1-0.3-0.2c-0.7-0.9-1.6-1.7-2.6-2.4c-0.1-0.1-0.2-0.2-0.2-0.3
		s0.1-0.2,0.2-0.3l1.8-0.9h-3.1c-0.3,0-0.4-0.1-0.4-0.4v-1.7c0-0.3,0.1-0.4,0.4-0.4h0.4l-0.2-0.2l-1-1.6l-0.1-0.3
		c0-0.2,0.1-0.3,0.4-0.3c1.3-0.1,2.3-0.2,2.9-0.3c-0.3-0.4-0.6-0.7-0.8-0.9c-0.1-0.1-0.2-0.3-0.2-0.3c0-0.1,0.1-0.2,0.3-0.3l1.4-0.5
		c0.1,0,0.2,0,0.2-0.1c0.1,0,0.2,0.1,0.3,0.2c0.5,0.4,0.9,0.8,1.3,1.4c0.5-0.1,1-0.2,1.4-0.4c-0.3-0.3-0.7-0.7-1.2-1.1
		c-0.1-0.1-0.2-0.3-0.2-0.3c0-0.1,0.1-0.2,0.3-0.3l1.5-0.6c0.1,0,0.1,0,0.3,0c0.1,0,0.2,0,0.3,0.1c0.5,0.4,1,0.8,1.4,1.3
		c1-0.5,1.9-1.1,2.5-1.7h-5.9c-1.4,0.6-3,1.1-4.7,1.5h-0.2c-0.2,0-0.3-0.1-0.4-0.3l-1.1-1.7c-0.1-0.1-0.1-0.2-0.1-0.3
		c0-0.2,0.1-0.3,0.4-0.3c1.5-0.2,2.8-0.5,4-0.9c1.2-0.4,2.1-0.9,2.7-1.5c0.1-0.1,0.2-0.2,0.4-0.2h0.2l2.7,0.5c0.2,0,0.3,0.1,0.3,0.3
		c0,0.1-0.1,0.2-0.2,0.3l-0.4,0.3h5.6c0.3,0,0.4,0.1,0.4,0.4v1.4c0,0.2,0,0.3-0.1,0.5c-1.1,1.5-2.8,2.8-5.2,3.9
		c-2.4,1.1-5.2,1.8-8.5,2.2h8.1v-1.4c0-0.3,0.1-0.4,0.4-0.4h2.9c0.3,0,0.4,0.1,0.4,0.4v1.4h2c0.3,0,0.4,0.1,0.4,0.4v1.7
		c0,0.3-0.1,0.4-0.4,0.4h-2v1c0,1.1-0.2,2-0.5,2.5c-0.4,0.5-1.1,0.9-2.1,1.1c0.4,0.4,0.8,1,1.2,1.9h3.2c0.3,0,0.4,0.1,0.4,0.4v2.3
		c0,0.3-0.1,0.4-0.4,0.4l-10.5-0.1c1.1,0.9,2.6,1.6,4.5,2.1c1.9,0.5,4.1,0.8,6.5,0.8c0.3,0,0.4,0.1,0.4,0.3c0,0.1,0,0.1,0,0.2
		l-1.1,2.8c-0.1,0.2-0.3,0.3-0.5,0.3c-6-0.4-10.3-2-12.8-4.9c-2.1,2.7-6.3,4.4-12.7,4.9h-0.1C134.3,75.9,134.1,75.8,134,75.6z
		 M136.1,65l-2.6-1.2c-0.2-0.1-0.3-0.2-0.3-0.3c0-0.1,0-0.1,0.1-0.2s0.1-0.1,0.1-0.1c1-0.9,1.6-2.3,1.8-3.9h-1.4
		c-0.3,0-0.4-0.1-0.4-0.4v-2.2c0-0.3,0.1-0.4,0.4-0.4h6.7v-1.6h-5.4c-0.3,0-0.4-0.1-0.4-0.4v-5.8c0-0.3,0.1-0.4,0.4-0.4h2.6
		c0.3,0,0.4,0.1,0.4,0.4v3.1h2.3v-3.7c0-0.3,0.1-0.4,0.4-0.4h2.9c0.3,0,0.4,0.1,0.4,0.4v16.6c0,0.3-0.1,0.4-0.4,0.4h-2.9
		c-0.3,0-0.4-0.1-0.4-0.4v-5.1h-1.6c-0.2,2.4-0.9,4.3-2.1,5.7c-0.1,0.1-0.2,0.2-0.3,0.2C136.2,65.1,136.1,65.1,136.1,65z
		 M152.6,61.8c1.1,0,1.8-0.1,2.2-0.4c0.3-0.2,0.5-0.6,0.5-1.2v-0.5h-5.9c1,0.5,1.9,1.2,2.8,2.1H152.6z"/>
        <path d="M186.1,67.3l-0.9-2.3c0-0.1-0.1-0.1-0.1-0.2c0-0.2,0.1-0.3,0.4-0.3c0.7,0,1.3,0,1.8-0.1c0.5-0.1,0.8-0.2,1-0.4
		c0.2-0.2,0.2-0.5,0.2-0.9v-6.8c0-0.3,0.1-0.4,0.4-0.4h2.4c-1.6-0.5-3.3-1.2-5.1-2v0.9c0,0.3-0.1,0.4-0.4,0.4h-10.7
		c-0.3,0-0.4-0.1-0.4-0.4v-0.9c-2.5,1.2-5,2.1-7.3,2.7h-0.2c-0.2,0-0.3-0.1-0.4-0.3l-1.2-3c0,0,0-0.1,0-0.2c0-0.2,0.1-0.3,0.3-0.3
		c2.4-0.5,4.7-1.1,6.8-2c2.1-0.9,3.9-1.9,5.3-3c0.1-0.1,0.3-0.2,0.5-0.2h3.3c0.2,0,0.4,0.1,0.5,0.2c1.5,1.1,3.3,2.1,5.4,3
		c2.1,0.9,4.4,1.5,6.8,1.9c0.2,0,0.3,0.1,0.3,0.3c0,0.1,0,0.1,0,0.2l-1.2,3c-0.1,0.2-0.2,0.3-0.4,0.3h-0.1c-0.1,0-0.5-0.1-0.9-0.2
		l0,0.2v7.4c0,1-0.2,1.8-0.5,2.3c-0.3,0.6-0.9,1-1.7,1.3c-0.8,0.3-2,0.4-3.4,0.4C186.4,67.6,186.2,67.5,186.1,67.3z M169.2,75.5
		l-2.9-1.1c-0.2-0.1-0.3-0.2-0.3-0.3c0-0.1,0-0.2,0.1-0.3c0.5-0.7,0.9-1.5,1.3-2.5c0.4-1,0.7-2,1-2.9c0.1-0.3,0.2-0.4,0.5-0.3
		l2.8,0.7c0.1,0,0.3,0.1,0.3,0.2c0.1,0.1,0.1,0.2,0,0.3c-0.3,1-0.6,2.1-1,3.2c-0.4,1.2-0.9,2.1-1.3,2.8c-0.1,0.1-0.2,0.2-0.3,0.2
		C169.4,75.5,169.3,75.5,169.2,75.5z M182,71.8c-0.1,0-0.1-0.1-0.1-0.1c-1.1-1.1-2.2-2-3.5-2.8c-0.2-0.1-0.3-0.2-0.3-0.3
		c0-0.1,0.1-0.2,0.2-0.3l1.1-1.1c-0.8,0.3-2.1,0.4-3.7,0.4c-0.3,0-0.4-0.1-0.5-0.4l-0.5-1.4c0,0,0-0.1,0-0.2c0-0.2,0.1-0.3,0.4-0.3
		c1,0,1.8,0,2.2-0.1c0.4-0.1,0.6-0.4,0.6-0.9h-6.1c-0.2,1.3-0.6,2.4-1,3.2c0,0.1-0.1,0.1-0.2,0.2c-0.1,0-0.2,0-0.3,0l-2.6-1.1
		c-0.3-0.1-0.3-0.3-0.2-0.6c0.5-0.9,0.8-1.9,0.9-2.9c0.1-1,0.2-2.2,0.2-3.4v-3.1c0-0.3,0.1-0.4,0.4-0.4h11.8c0.3,0,0.4,0.1,0.4,0.4
		V64c0,0.7,0,1.2-0.1,1.5s-0.3,0.7-0.6,1c0.6,0.3,1.2,0.7,1.9,1.2c0.7,0.5,1.2,1,1.7,1.5c0.1,0.1,0.2,0.2,0.2,0.3
		c0,0.1-0.1,0.2-0.2,0.3l-1.6,1.8c-0.1,0.1-0.2,0.2-0.3,0.2C182.2,71.9,182.1,71.9,182,71.8z M177.8,62.5v-1.2H172
		c0,0.3,0,0.7-0.1,1.2H177.8z M177.8,59.5v-1.2H172v1.2H177.8z M176.8,75.8c-1.4,0-2.3-0.4-2.9-0.9c-0.6-0.6-0.9-1.5-0.9-2.8v-3.1
		c0-0.3,0.1-0.4,0.4-0.4h3.1c0.3,0,0.4,0.1,0.4,0.4V71c0,0.5,0.1,0.9,0.3,1.1c0.2,0.2,0.5,0.4,1.1,0.4l2.6,0.1l2.6-0.1
		c0.5,0,0.9-0.1,1.1-0.3s0.4-0.5,0.6-0.9c0.1-0.4,0.2-1,0.3-1.7c0-0.1,0.1-0.3,0.2-0.3c0.1-0.1,0.2-0.1,0.4,0l2.6,1.2
		c0.2,0.1,0.3,0.3,0.3,0.5c-0.2,1.3-0.5,2.3-0.9,2.9c-0.4,0.7-0.9,1.1-1.6,1.4c-0.7,0.2-1.7,0.4-2.9,0.4c-0.7,0-1.7,0.1-3.3,0.1
		C178.7,75.8,177.6,75.8,176.8,75.8z M183.9,52.5c-1.4-0.8-2.5-1.5-3.5-2.3c-0.9,0.7-2.1,1.5-3.5,2.3H183.9z M183,63.2v-6.2
		c0-0.3,0.1-0.4,0.4-0.4h2.6c0.3,0,0.4,0.1,0.4,0.4v6.2c0,0.3-0.1,0.4-0.4,0.4h-2.6C183.2,63.6,183,63.4,183,63.2z M191.1,74.6
		c-0.4-1-0.8-2-1.3-3c-0.5-1-1.1-1.8-1.7-2.4c-0.1-0.1-0.1-0.2-0.1-0.3c0-0.1,0.1-0.2,0.3-0.3l2.4-0.9c0.1,0,0.2-0.1,0.3-0.1
		c0.1,0,0.3,0.1,0.3,0.2c0.5,0.5,1.1,1.3,1.7,2.3c0.6,1,1.2,2,1.6,3c0,0.1,0,0.1,0,0.2c0,0.2-0.1,0.3-0.3,0.3l-2.6,1.2
		c-0.1,0-0.1,0-0.2,0C191.3,74.9,191.2,74.8,191.1,74.6z"/>
        <path d="M201.4,75.7l-2.3-3.3c-0.1-0.1-0.1-0.2-0.1-0.3c0-0.1,0.1-0.3,0.3-0.3c3.1-1.2,5.7-3,7.7-5.4s3.3-5.1,3.9-8.2h-10.4
		c-0.3,0-0.4-0.1-0.4-0.4v-3.2c0-0.3,0.1-0.4,0.4-0.4h10.7v-6.4c0-0.3,0.1-0.4,0.4-0.4h3.6c0.3,0,0.4,0.1,0.4,0.4v6.4h10.8
		c0.3,0,0.4,0.1,0.4,0.4v3.2c0,0.3-0.1,0.4-0.4,0.4h-10.6c0.8,3,2.2,5.7,4.3,8c2.1,2.4,4.5,4.2,7.4,5.4c0.2,0.1,0.3,0.2,0.3,0.3
		c0,0.1,0,0.1-0.1,0.3l-2.2,3.3c-0.1,0.1-0.2,0.2-0.3,0.2c-0.1,0-0.2,0-0.3-0.1c-2.5-1.2-4.7-2.9-6.7-4.9c-2-2-3.6-4.4-4.8-7
		c-1.1,2.6-2.7,4.9-4.7,7.1c-2,2.1-4.3,3.8-6.8,4.9c-0.1,0-0.2,0.1-0.3,0.1C201.6,75.9,201.5,75.9,201.4,75.7z"/>
        <path d="M233.2,70.6c0.5-0.5,1.2-0.8,2-0.8c0.8,0,1.5,0.3,2,0.8s0.8,1.1,0.8,1.9s-0.3,1.4-0.8,1.9c-0.5,0.5-1.2,0.8-2,0.8
		c-0.8,0-1.5-0.3-2-0.8c-0.5-0.5-0.8-1.2-0.8-1.9S232.7,71.1,233.2,70.6z M233.3,66.8L233,50.3c0-0.1,0-0.2,0.1-0.3
		c0.1-0.1,0.2-0.1,0.3-0.1h3.6c0.1,0,0.3,0,0.3,0.1c0.1,0.1,0.1,0.2,0.1,0.3l-0.3,16.5c0,0.3-0.1,0.4-0.4,0.4h-2.9
		C233.5,67.2,233.3,67.1,233.3,66.8z"/>
        <path d="M17.4,122.9l-0.9-1.3v0.4c0,0.3-0.1,0.4-0.4,0.4H3c-0.3,0-0.4-0.1-0.4-0.4v-7c-0.2,0.3-0.4,0.5-0.6,0.7
		c-0.1,0.1-0.2,0.2-0.3,0.2c-0.1,0-0.3-0.1-0.3-0.3L0.1,113c0-0.1,0-0.2-0.1-0.2c0-0.1,0.1-0.3,0.2-0.4c0.8-0.6,1.5-1.4,2.2-2.3
		c0.7-0.9,1.1-1.8,1.4-2.8c0.1-0.3,0.3-0.4,0.5-0.3l2.6,0.6c0.3,0.1,0.4,0.2,0.3,0.5l-0.3,0.7h2.2c-0.1-0.3-0.3-0.5-0.5-0.8
		c-0.1-0.1-0.1-0.2-0.1-0.3c0-0.2,0.1-0.3,0.3-0.3l2.1-0.3l0.3,0c0.2,0,0.4,0.1,0.5,0.3c0.2,0.3,0.4,0.7,0.7,1.4h3.6
		c0.3,0,0.4,0.1,0.4,0.4v1.5c0,0.3-0.1,0.4-0.4,0.4h-3.5v1.4h2.9c0.3,0,0.4,0.1,0.4,0.4v1.3c0,0.3-0.1,0.4-0.4,0.4h-2.9v1.2h2.9
		c0.3,0,0.4,0.1,0.4,0.4v1.3c0,0.3-0.1,0.4-0.4,0.4h-2.9v1.5l3,0l0.1-0.1c1.7-1.4,3-3.4,3.8-5.9c0.8-2.5,1.2-5.3,1.2-8.3v-1.9
		c0-0.3,0.1-0.4,0.4-0.4h2.5c0.3,0,0.4,0.1,0.4,0.4l0,2.3v1.1c0.2,2.6,0.8,5,1.7,7.1c0.9,2.1,2.2,3.8,3.7,5.2
		c0.1,0.1,0.2,0.2,0.2,0.3c0,0.1,0,0.2-0.1,0.3l-1.8,2.9c-0.1,0.2-0.2,0.3-0.3,0.3c-0.1,0-0.2-0.1-0.3-0.2c-1-1-2-2.3-2.8-3.7
		c-0.8-1.4-1.4-2.9-1.9-4.5c-0.4,1.6-1,3.2-1.8,4.7c-0.8,1.5-1.7,2.7-2.8,3.7c-0.1,0.1-0.2,0.1-0.3,0.1
		C17.6,123.1,17.5,123,17.4,122.9z M0.9,98.5v-1.9c0-0.3,0.1-0.4,0.4-0.4h3.3V95c0-0.3,0.1-0.4,0.4-0.4h2.7c0.3,0,0.4,0.1,0.4,0.4
		v4.8c0,0.3-0.1,0.4-0.4,0.4H5c-0.3,0-0.4-0.1-0.4-0.4v-0.8H1.3C1,98.9,0.9,98.8,0.9,98.5z M1.5,106.5v-5.4c0-0.3,0.1-0.4,0.4-0.4
		h6.1c0.3,0,0.4,0.1,0.4,0.4v5.4c0,0.3-0.1,0.4-0.4,0.4H2C1.7,106.9,1.5,106.8,1.5,106.5z M6,104.8v-2H4v2H6z M9.4,112.6v-1.4H6.1
		v1.4H9.4z M9.4,116v-1.2H6.1v1.2H9.4z M9.4,119.8v-1.5H6.1v1.5H9.4z M9.5,106.5v-5.4c0-0.3,0.1-0.4,0.4-0.4h6
		c0.3,0,0.4,0.1,0.4,0.4v3.3c0.7-1.3,1.2-2.9,1.6-4.7s0.7-3.4,0.8-4.7c0-0.3,0.2-0.4,0.5-0.4l2.7,0.3c0.3,0,0.4,0.3,0.3,0.6
		c-0.1,0.8-0.2,1.6-0.4,2.5h7c0.3,0,0.4,0.2,0.4,0.5c-0.1,2.2-0.2,4.1-0.4,6c-0.2,1.8-0.5,3.4-1,4.9c-0.1,0.3-0.3,0.4-0.6,0.3
		l-2.5-0.8c-0.3-0.1-0.4-0.3-0.3-0.6c0.3-0.9,0.6-2,0.8-3.3c0.2-1.3,0.3-2.5,0.3-3.6h-4.5c-0.7,2.4-1.5,4.6-2.4,6.4
		c-0.1,0.2-0.2,0.3-0.3,0.3c-0.1,0-0.1,0-0.3-0.1l-1.9-1.2c0,0.1-0.1,0.1-0.2,0.2s-0.2,0.1-0.2,0.1h-6
		C9.7,106.9,9.5,106.8,9.5,106.5z M9.8,99.8V95c0-0.3,0.1-0.4,0.4-0.4h2.7c0.3,0,0.4,0.1,0.4,0.4v1.1h3.2c0.3,0,0.4,0.1,0.4,0.4v1.9
		c0,0.3-0.1,0.4-0.4,0.4h-3.2v0.8c0,0.3-0.1,0.4-0.4,0.4h-2.7C9.9,100.2,9.8,100,9.8,99.8z M14,104.8v-2h-2v2H14z"/>
        <path d="M33.6,119.8c1.3-1.1,2.5-2.3,3.4-3.5c0.9-1.2,1.5-2.5,1.8-3.7h-3.7c-0.3,0-0.4-0.1-0.4-0.4V110c0-0.3,0.1-0.5,0.2-0.6
		c0.9-1,1.9-2.2,2.8-3.5h-3.1c-0.1,0-0.2,0-0.3-0.1c-0.1-0.1-0.1-0.2-0.1-0.3v-2.6c0-0.1,0-0.2,0.1-0.3c0.1-0.1,0.2-0.1,0.3-0.1h7
		c0.2,0,0.3,0,0.4,0.1s0.1,0.2,0.1,0.3v2.1c0,0.2,0,0.3-0.1,0.5c-0.1,0.3-0.4,0.8-0.9,1.6c-0.5,0.8-1.1,1.6-1.7,2.5h2.8
		c0.3,0,0.4,0.2,0.4,0.5v1.3c0,0.2,0,0.5-0.1,0.9c-0.2,1.4-0.6,2.9-1.3,4.5c0.2,0.2,0.4,0.3,0.5,0.5c0.2,0.1,0.3,0.2,0.4,0.3
		c1.1,0.8,2.7,1.2,4.7,1.5c0.9,0.1,1.9,0.2,2.9,0.2h2c4,0,7.2-0.2,9.8-0.6l0.9-0.1h0.1c0.2,0,0.3,0.1,0.3,0.3c0,0.1,0,0.1,0,0.2
		L62,122c-0.1,0.2-0.3,0.4-0.6,0.4c-2.5,0.3-5.6,0.4-9.5,0.4c-2.4,0-4.3-0.1-5.6-0.2c-1.1-0.1-2.1-0.3-2.8-0.4s-1.4-0.4-2-0.8
		c-0.8-0.4-1.5-0.9-2.2-1.6c-0.8,1.1-1.6,2-2.5,2.8c-0.1,0.1-0.3,0.2-0.4,0.2c-0.1,0-0.2,0-0.3-0.1l-2.5-2.1
		c-0.1-0.1-0.2-0.2-0.2-0.3S33.6,119.9,33.6,119.8z M34.7,96.5l2.4-1.7c0.1-0.1,0.2-0.1,0.3-0.1s0.2,0,0.3,0.1
		c0.6,0.5,1.2,1.2,1.9,1.9c0.7,0.7,1.2,1.5,1.7,2.3c0.1,0.1,0.1,0.2,0.1,0.3c0,0.1-0.1,0.3-0.2,0.4l-2.4,1.7
		c-0.1,0.1-0.1,0.1-0.2,0.1c-0.1,0-0.2-0.1-0.3-0.2c-0.6-0.8-1.1-1.5-1.7-2.1c-0.5-0.6-1.2-1.2-2-1.9c-0.1-0.1-0.2-0.2-0.2-0.3
		C34.5,96.7,34.6,96.6,34.7,96.5z M43.8,96.4c1-0.1,2.1-0.3,3.1-0.6c1-0.3,1.8-0.6,2.5-0.9c0.1,0,0.2-0.1,0.2-0.1s0.1,0,0.2,0.1
		c0.1,0,0.1,0.1,0.2,0.2l1.3,2.6l0.1,0.3c0,0.1-0.1,0.3-0.2,0.3c-1,0.7-2.3,1.1-3.8,1.4v10.4c0,0.2,0,0.4,0.1,0.4
		c0.1,0.1,0.2,0.1,0.3,0.1c0.5-0.1,1.3-0.3,2.4-0.8c0.1,0,0.2,0,0.2-0.1c0.2,0,0.3,0.1,0.3,0.4v3c0,0.3-0.1,0.4-0.3,0.5
		c-1.4,0.6-2.9,1-4.2,1.2c-0.2,0-0.4,0-0.7,0c-0.8,0-1.3-0.3-1.6-0.7c-0.3-0.4-0.4-1.1-0.4-2V96.9C43.4,96.6,43.5,96.5,43.8,96.4z
		 M51.4,117.1V96.3c0-0.3,0.1-0.4,0.4-0.4h9.4c0.3,0,0.4,0.1,0.4,0.4v13.5c0,1.2-0.1,2.2-0.4,2.8c-0.3,0.7-0.7,1.1-1.3,1.4
		c-0.6,0.3-1.5,0.4-2.7,0.4h-0.4c-0.3,0-0.4-0.1-0.5-0.4l-0.8-3l0-0.2c0-0.2,0.2-0.3,0.5-0.3c0.6,0,1,0,1.3-0.1
		c0.3-0.1,0.5-0.2,0.6-0.5c0.1-0.3,0.2-0.7,0.2-1.2v-9.3h-2.9v17.7c0,0.3-0.1,0.4-0.4,0.4h-2.9C51.6,117.5,51.4,117.4,51.4,117.1z"/>
        <path d="M67.2,101v-2.8c0-0.3,0.1-0.4,0.4-0.4h11.5V95c0-0.3,0.1-0.4,0.4-0.4h3.2c0.3,0,0.4,0.1,0.4,0.4v2.7h11.4
		c0.3,0,0.4,0.1,0.4,0.4v2.8c0,0.3-0.1,0.4-0.4,0.4H83.2v8.5c1.5,1.9,3.3,3.5,5.4,4.9c2.1,1.4,4.3,2.4,6.8,3.1
		c0.2,0.1,0.3,0.2,0.3,0.3c0,0.1,0,0.2-0.1,0.3l-1.8,3.3c-0.1,0.3-0.3,0.3-0.6,0.2c-1.9-0.8-3.8-1.9-5.5-3.2
		c-1.8-1.3-3.3-2.7-4.6-4.2l0.1,8.3c0,0.3-0.1,0.4-0.4,0.4h-3.2c-0.3,0-0.4-0.1-0.4-0.4l0.1-8.1c-1.2,1.5-2.8,2.9-4.6,4.3
		c-1.8,1.3-3.6,2.4-5.5,3.1c0,0-0.1,0-0.2,0c-0.1,0-0.3-0.1-0.4-0.3l-1.9-3c-0.1-0.1-0.1-0.2-0.1-0.3c0-0.1,0.1-0.2,0.3-0.3
		c2.6-0.8,4.9-1.9,6.9-3.4c2.1-1.4,3.8-3.1,5.3-5.1v-8.4H67.6C67.3,101.4,67.2,101.3,67.2,101z M70.2,112.5
		c-0.1,0.1-0.2,0.1-0.3,0.1c-0.1,0-0.2,0-0.3-0.1l-2.2-1.9c-0.1-0.1-0.2-0.2-0.2-0.3c0-0.1,0.1-0.3,0.2-0.3c1-0.9,2-2,2.7-3.3
		c0.8-1.3,1.2-2.6,1.5-3.9c0.1-0.3,0.2-0.4,0.5-0.4l2.7,0.5c0.3,0.1,0.4,0.2,0.3,0.5c-0.1,0.5-0.3,1.1-0.5,1.9
		c0.4,0.6,1,1.2,1.7,1.8c0.7,0.6,1.3,1,2,1.3c0.2,0.1,0.3,0.2,0.3,0.3c0,0.1,0,0.2-0.1,0.3l-1.6,2.2c-0.1,0.1-0.2,0.2-0.3,0.2
		c-0.1,0-0.2,0-0.3-0.1c-1.1-0.8-2.1-1.8-3-3C72.3,110,71.3,111.4,70.2,112.5z M87,111.6c-0.1,0.1-0.2,0.1-0.3,0.1s-0.2-0.1-0.3-0.2
		l-2.1-1.9c-0.1-0.1-0.2-0.2-0.2-0.3c0-0.1,0.1-0.2,0.2-0.3c0.9-0.7,1.7-1.7,2.3-2.8c0.6-1.1,1-2.3,1.2-3.6c0-0.1,0.1-0.3,0.2-0.3
		c0.1-0.1,0.2-0.1,0.3-0.1l2.6,0.4c0.3,0.1,0.4,0.2,0.4,0.5c-0.1,0.7-0.3,1.4-0.6,2.1c0.5,0.7,1.1,1.4,1.8,2
		c0.7,0.7,1.4,1.2,2.2,1.6c0.1,0.1,0.2,0.2,0.2,0.3c0,0.1,0,0.2-0.1,0.3l-1.8,2.4c-0.1,0.1-0.2,0.2-0.3,0.2c0,0-0.1,0-0.3-0.1
		c-0.5-0.4-1.1-0.9-1.6-1.6c-0.6-0.6-1.1-1.3-1.5-1.9C88.5,109.9,87.8,110.8,87,111.6z"/>
        <path d="M100.2,122.1l-0.4-2.9V119c0-0.3,0.1-0.4,0.4-0.4c1.5,0,3.7-0.1,6.4-0.3v-3.8h-5.3c-0.3,0-0.4-0.1-0.4-0.4v-2.6
		c0-0.3,0.1-0.4,0.4-0.4h5.3v-3.1l-5,0.2c-0.3,0-0.4-0.1-0.5-0.4l-0.4-2.4l0-0.2c0-0.2,0.1-0.4,0.4-0.7c0.5-0.5,1.1-1.3,1.7-2.4
		c0.7-1.2,1.1-2.1,1.3-2.9H101c-0.3,0-0.4-0.1-0.4-0.4v-2.7c0-0.3,0.1-0.4,0.4-0.4h15.3c0.3,0,0.4,0.1,0.4,0.4v2.7
		c0,0.3-0.1,0.4-0.4,0.4h-7.9c-0.4,0.9-0.8,1.8-1.4,2.8c-0.5,1-1.1,1.8-1.7,2.6c3-0.1,5.2-0.3,6.5-0.5c-0.5-0.9-1-1.7-1.4-2.4
		c-0.1-0.1-0.1-0.2-0.1-0.3c0-0.2,0.1-0.3,0.3-0.3l2.4-0.9c0,0,0.1,0,0.2,0c0.2,0,0.3,0.1,0.4,0.2c0.7,1,1.4,2.1,2.1,3.4
		c0.7,1.3,1.2,2.5,1.5,3.5c0,0,0,0.1,0,0.2c0,0.1-0.1,0.3-0.3,0.4l-2.6,1.2c-0.1,0-0.1,0-0.2,0.1c-0.2,0-0.3-0.1-0.3-0.3
		c-0.1-0.5-0.3-1.1-0.5-1.6c-0.7,0.1-1.6,0.2-2.8,0.3v3.4h5.3c0.3,0,0.4,0.1,0.4,0.4v2.6c0,0.3-0.1,0.4-0.4,0.4h-5.3v3.4
		c2-0.2,4-0.5,6.1-0.9h0.1c0.2,0,0.3,0.1,0.3,0.4l0,2.7c0,0.3-0.1,0.4-0.4,0.5c-2.1,0.4-4.7,0.7-7.6,1c-2.9,0.3-5.7,0.5-8.3,0.6
		C100.4,122.5,100.2,122.3,100.2,122.1z M118.2,115.5V97c0-0.3,0.1-0.4,0.4-0.4h2.8c0.3,0,0.4,0.1,0.4,0.4v18.5
		c0,0.3-0.1,0.4-0.4,0.4h-2.8C118.3,115.9,118.2,115.8,118.2,115.5z M120.4,122.9l-1.2-3c0,0,0-0.1,0-0.2c0-0.2,0.1-0.3,0.3-0.3
		l1.5,0c1.2,0,2-0.1,2.3-0.4c0.4-0.3,0.6-0.8,0.6-1.4V95c0-0.3,0.1-0.4,0.4-0.4h2.9c0.3,0,0.4,0.1,0.4,0.4v23.4c0,1.3-0.2,2.3-0.5,3
		c-0.3,0.7-0.9,1.2-1.7,1.5c-0.8,0.3-2.1,0.4-3.8,0.4h-0.9C120.6,123.3,120.4,123.2,120.4,122.9z"/>
        <path d="M143.2,123.1c0,0.2-0.1,0.3-0.3,0.3l-2.7,1.1c-0.1,0.1-0.2,0.1-0.3,0.1c-0.1,0-0.2-0.1-0.3-0.3l-5.5-15
		c-0.1-0.2-0.1-0.3-0.1-0.5c0-0.1,0-0.3,0.1-0.4l5.5-15.1c0.1-0.2,0.2-0.3,0.3-0.3c0.1,0,0.2,0,0.3,0.1l2.7,1.1
		c0.2,0.1,0.3,0.2,0.3,0.3c0,0.1,0,0.2-0.1,0.4L138,109l5.1,13.8C143.2,122.9,143.2,123.1,143.2,123.1z M149.3,123.1
		c0,0.2-0.1,0.3-0.3,0.3l-2.7,1.1c-0.1,0.1-0.2,0.1-0.3,0.1c-0.1,0-0.2-0.1-0.3-0.3l-5.5-15c-0.1-0.2-0.1-0.3-0.1-0.5
		c0-0.1,0-0.3,0.1-0.4l5.5-15.1c0.1-0.2,0.2-0.3,0.3-0.3c0.1,0,0.2,0,0.3,0.1l2.7,1.1c0.2,0.1,0.3,0.2,0.3,0.3c0,0.1,0,0.2-0.1,0.4
		L144,109l5.1,13.8C149.2,122.9,149.3,123.1,149.3,123.1z"/>
        <path d="M155.2,121.9V119c0-0.3,0.1-0.4,0.4-0.4H167v-3.7h-7.9c-0.3,0-0.4-0.1-0.4-0.4v-2.7c0-0.3,0.1-0.4,0.4-0.4h7.9v-3.3h-7.7
		c-0.3,0-0.4-0.1-0.4-0.4v-1.4l-2.4,1.1c0,0-0.1,0-0.2,0c-0.2,0-0.3-0.1-0.4-0.3l-1.3-3.4c0-0.1-0.1-0.1-0.1-0.2
		c0-0.1,0.1-0.3,0.3-0.4c2-0.6,3.9-1.2,5.5-2c1.6-0.7,3.1-1.6,4.4-2.7h-5.5c-0.3,0-0.4-0.1-0.4-0.4v-2.8c0-0.3,0.1-0.4,0.4-0.4h11.4
		c0.2,0,0.3,0.1,0.5,0.2c1.5,1.9,3.2,3.5,5.2,4.8c2,1.3,4.3,2.3,6.8,3.1c0.2,0.1,0.3,0.1,0.3,0.3c0,0.1,0,0.2,0,0.3l-1.2,3.4
		c-0.1,0.2-0.2,0.3-0.4,0.3c-0.1,0-0.1,0-0.2,0c-0.9-0.4-1.8-0.8-2.6-1.2v1.7c0,0.3-0.1,0.4-0.4,0.4H171v3.3h7.9
		c0.3,0,0.4,0.1,0.4,0.4v2.7c0,0.3-0.1,0.4-0.4,0.4H171v3.7h11.4c0.3,0,0.4,0.1,0.4,0.4v2.9c0,0.3-0.1,0.4-0.4,0.4h-26.9
		C155.3,122.3,155.2,122.2,155.2,121.9z M176.3,104.2c-3.4-1.8-5.7-3.5-7.1-5.2c-1.2,1.7-3.4,3.4-6.6,5.2H176.3z"/>
        <path d="M191.8,122.8c-1.7-0.3-2.6-1.3-2.6-3.1V95.9c0-0.3,0.1-0.4,0.4-0.4h24.4c0.3,0,0.4,0.1,0.4,0.4v9.4c0,0.3-0.1,0.4-0.4,0.4
		h-8.7c0.1,1.1,0.2,2.1,0.3,3.2h9.9c0.3,0,0.4,0.1,0.4,0.4v2.8c0,0.3-0.1,0.4-0.4,0.4h-9c0.7,2.2,1.8,4,3.1,5.3
		c0.6,0.5,1.2,0.8,1.9,0.8c0.5,0,1-0.3,1.3-1s0.6-1.7,0.8-3c0.1-0.2,0.2-0.3,0.3-0.3c0.1,0,0.2,0,0.3,0.1l2.4,2.3
		c0.1,0.1,0.2,0.3,0.2,0.4c0,0.1,0,0.3-0.1,0.5c-0.4,1.8-1,3.2-1.9,4.1c-0.9,0.9-2,1.3-3.2,1.3c-1.1,0-2.2-0.4-3.3-1.1
		c-1.1-0.7-2.1-1.6-2.9-2.7c-0.7-0.9-1.3-1.9-1.9-3.1c-0.6-1.2-1-2.4-1.3-3.6h-8.8v5.2c0,0.3,0.1,0.6,0.2,0.7
		c0.2,0.1,0.5,0.2,0.9,0.2c0.5,0,1.4-0.1,2.5-0.2c1.4-0.1,2.9-0.4,4.5-0.8l0.2,0c0.2,0,0.3,0.1,0.3,0.4v3.1c0,0.3-0.1,0.5-0.3,0.6
		c-1.1,0.3-2.4,0.6-4,0.8c-1.6,0.2-3.1,0.3-4.6,0.3C192.6,122.8,192.2,122.8,191.8,122.8z M210.3,102.4v-3.5h-16.8v3.5H210.3z
		 M201.6,109c-0.2-1.1-0.4-2.2-0.4-3.2h-7.6v3.2H201.6z"/>
        <path d="M221.5,110.3v-3.4c0-0.3,0.1-0.4,0.4-0.4h26.4c0.3,0,0.4,0.1,0.4,0.4v3.4c0,0.3-0.1,0.4-0.4,0.4H222
		C221.7,110.7,221.5,110.6,221.5,110.3z"/>
        <path d="M253.4,121.6c0-0.1,0-0.1,0-0.2c0.6-1.5,1.1-3.3,1.4-5.5c0.3-2.1,0.4-4.3,0.4-6.3c0-0.1,0-0.3,0.1-0.3
		c0.1-0.1,0.2-0.1,0.3-0.1l2.6,0.2c0.3,0,0.4,0.2,0.4,0.4c0,1.4-0.1,2.9-0.2,4.4c0.4,0.8,1,1.5,1.7,2.1v-8.9h-5.4
		c-0.3,0-0.4-0.1-0.4-0.4v-2.8c0-0.3,0.1-0.4,0.4-0.4h5.1v-2.8h-4.1c-0.3,0-0.4-0.1-0.4-0.4v-2.7c0-0.3,0.1-0.4,0.4-0.4h4.1V95
		c0-0.3,0.1-0.4,0.4-0.4h2.8c0.3,0,0.4,0.1,0.4,0.4v2.3h3.6c0.3,0,0.4,0.1,0.4,0.4v2.7c0,0.3-0.1,0.4-0.4,0.4h-3.6v2.8h4.3
		c0.3,0,0.4,0.1,0.4,0.4v2.8c0,0.3-0.1,0.4-0.4,0.4h-4v3.1h3.5c0.3,0,0.4,0.1,0.4,0.4v2.7c0,0.3-0.1,0.4-0.4,0.4h-3.5v4
		c1.2,0.3,2.4,0.5,3.8,0.6c1.6,0.1,3.6,0.2,5.8,0.2c3,0,6-0.1,9.1-0.4h0.1c0.3,0,0.4,0.1,0.4,0.3l0,0.2L282,122
		c-0.1,0.2-0.2,0.3-0.5,0.4c-2.4,0.2-5,0.3-7.7,0.3c-2.6,0-4.7-0.1-6.4-0.2c-2.2-0.2-4.1-0.6-5.6-1.2c-1.5-0.6-2.8-1.6-3.9-2.9
		c-0.2,1.5-0.6,3-1,4.5c-0.1,0.2-0.2,0.3-0.4,0.3c0,0-0.1,0-0.2-0.1l-2.8-1.1C253.5,121.9,253.4,121.8,253.4,121.6z M273.1,116.9
		c-1.2,0-2.1-0.3-2.7-0.9c-0.6-0.5-0.9-1.5-0.9-2.8v-17c0-0.3,0.1-0.4,0.4-0.4h11c0.3,0,0.4,0.1,0.4,0.4v10.6c0,0.3-0.1,0.4-0.4,0.4
		h-7.7v4.9c0,0.4,0.1,0.7,0.2,0.9c0.1,0.2,0.4,0.2,0.8,0.3l1.4,0l1.4,0c0.5,0,0.9-0.1,1.1-0.4c0.3-0.3,0.4-0.7,0.6-1.2
		c0.1-0.5,0.2-1.3,0.3-2.4c0-0.4,0.2-0.5,0.5-0.4l2.7,1c0.2,0.1,0.3,0.1,0.3,0.3c0,0,0,0.1,0,0.3c-0.1,1.8-0.4,3.2-0.7,4
		c-0.3,0.9-0.8,1.5-1.5,1.8c-0.7,0.3-1.6,0.5-2.9,0.6l-2.5,0L273.1,116.9z M277.6,103.8v-4.3h-4.4v4.3H277.6z"/>
        <path d="M298.1,121.1c-0.1,0-0.2-0.1-0.3-0.2c-0.8-0.9-1.8-1.9-2.9-3c-0.7,0.9-1.5,1.9-2.5,2.8c-0.9,0.9-1.9,1.7-3,2.4
		c-0.1,0.1-0.2,0.1-0.3,0.1c-0.1,0-0.2-0.1-0.3-0.2l-2-2.8c-0.1-0.1-0.1-0.2-0.1-0.3c0-0.1,0.1-0.2,0.3-0.3c1-0.5,1.9-1.1,2.8-1.8
		c0.9-0.7,1.7-1.5,2.3-2.3c-1.2-1-2.5-2-4-2.9c-0.2-0.1-0.3-0.3-0.2-0.6c0.7-2.6,1.3-5.6,1.7-9h-1.9c-0.3,0-0.4-0.1-0.4-0.4v-2.9
		c0-0.3,0.1-0.4,0.4-0.4h2.3c0.1-1.8,0.2-3.2,0.2-4.2c0-0.3,0.1-0.4,0.4-0.4l3,0c0.3,0,0.4,0.1,0.4,0.4c-0.1,1.4-0.2,2.8-0.3,4.2
		h5.3c0.3,0,0.4,0.1,0.4,0.4c0,3.3-0.2,6.1-0.6,8.5c-0.3,2.4-1,4.5-1.8,6.5c1.2,1,2.2,2,3.1,3c0.1,0.1,0.2,0.2,0.2,0.3
		c0,0.1,0,0.2-0.1,0.3l-1.9,2.7C298.3,121,298.2,121.1,298.1,121.1z M294.1,112.2c0.5-1.2,0.9-2.6,1.2-4.2c0.3-1.6,0.4-3.3,0.5-5
		h-2.5c-0.5,3.4-0.9,6-1.4,7.6C292.4,111,293.2,111.5,294.1,112.2z M300.3,107.1h6v-3.5c0-0.2,0.1-0.4,0.3-0.5c0.7-0.5,1.4-1,2-1.6
		c0.6-0.6,1.1-1.2,1.5-1.8h-8.9c-0.3,0-0.4-0.1-0.4-0.4v-3.1c0-0.3,0.1-0.4,0.4-0.4h13.2c0.3,0,0.4,0.1,0.4,0.4v3
		c0,0.2,0,0.4-0.1,0.5c-0.5,0.8-1.1,1.6-1.8,2.5c-0.8,0.9-1.6,1.7-2.5,2.5v2.5h5c0.3,0,0.4,0.1,0.4,0.4v3.1c0,0.3-0.1,0.4-0.4,0.4
		h-5v7c0,1.4-0.2,2.4-0.5,3.2c-0.3,0.7-0.9,1.2-1.9,1.6c-0.9,0.3-2.3,0.5-4.1,0.5l-0.9,0c-0.3,0-0.4-0.1-0.5-0.3l-1.1-3.1l0-0.2
		c0-0.1,0-0.2,0.1-0.2c0.1-0.1,0.2-0.1,0.3,0l1.6,0c0.9,0,1.6-0.1,2-0.2c0.4-0.1,0.7-0.3,0.8-0.6c0.1-0.3,0.2-0.7,0.2-1.3V111h-6
		c-0.3,0-0.4-0.1-0.4-0.4v-3.1C299.9,107.2,300,107.1,300.3,107.1z"/>
        <path d="M331.1,121.1c-0.1,0-0.2-0.1-0.3-0.2c-0.8-0.9-1.8-1.9-2.9-3c-0.7,0.9-1.5,1.9-2.5,2.8c-0.9,0.9-1.9,1.7-3,2.4
		c-0.1,0.1-0.2,0.1-0.3,0.1c-0.1,0-0.2-0.1-0.3-0.2l-2-2.8c-0.1-0.1-0.1-0.2-0.1-0.3c0-0.1,0.1-0.2,0.3-0.3c1-0.5,1.9-1.1,2.8-1.8
		c0.9-0.7,1.7-1.5,2.3-2.3c-1.2-1-2.5-2-4-2.9c-0.2-0.1-0.3-0.3-0.2-0.6c0.7-2.6,1.3-5.6,1.7-9h-1.9c-0.3,0-0.4-0.1-0.4-0.4v-2.9
		c0-0.3,0.1-0.4,0.4-0.4h2.3c0.1-1.8,0.2-3.2,0.2-4.2c0-0.3,0.1-0.4,0.4-0.4l3,0c0.3,0,0.4,0.1,0.4,0.4c-0.1,1.4-0.2,2.8-0.3,4.2
		h5.3c0.3,0,0.4,0.1,0.4,0.4c0,3.3-0.2,6.1-0.6,8.5c-0.3,2.4-1,4.5-1.8,6.5c1.2,1,2.2,2,3.2,3c0.1,0.1,0.2,0.2,0.2,0.3
		c0,0.1,0,0.2-0.1,0.3l-1.9,2.7C331.4,121,331.3,121.1,331.1,121.1z M327.1,112.2c0.5-1.2,0.9-2.6,1.2-4.2c0.3-1.6,0.4-3.3,0.5-5
		h-2.5c-0.5,3.4-0.9,6-1.4,7.6C325.5,111,326.3,111.5,327.1,112.2z M333.4,107.1h6v-3.5c0-0.2,0.1-0.4,0.3-0.5c0.7-0.5,1.4-1,2-1.6
		c0.6-0.6,1.1-1.2,1.5-1.8h-8.9c-0.3,0-0.4-0.1-0.4-0.4v-3.1c0-0.3,0.1-0.4,0.4-0.4h13.2c0.3,0,0.4,0.1,0.4,0.4v3
		c0,0.2,0,0.4-0.1,0.5c-0.5,0.8-1.1,1.6-1.8,2.5c-0.8,0.9-1.6,1.7-2.5,2.5v2.5h5c0.3,0,0.4,0.1,0.4,0.4v3.1c0,0.3-0.1,0.4-0.4,0.4
		h-5v7c0,1.4-0.2,2.4-0.5,3.2c-0.3,0.7-0.9,1.2-1.9,1.6c-0.9,0.3-2.3,0.5-4.1,0.5l-0.9,0c-0.3,0-0.4-0.1-0.5-0.3l-1.1-3.1l0-0.2
		c0-0.1,0-0.2,0.1-0.2c0.1-0.1,0.2-0.1,0.3,0l1.6,0c0.9,0,1.6-0.1,2-0.2c0.4-0.1,0.7-0.3,0.8-0.6c0.1-0.3,0.2-0.7,0.2-1.3V111h-6
		c-0.3,0-0.4-0.1-0.4-0.4v-3.1C332.9,107.2,333.1,107.1,333.4,107.1z"/>
        <path d="M366.2,121.3c-0.8-0.8-1.2-1.7-1.2-2.9c0-0.7,0.2-1.4,0.5-2.1c0.3-0.7,0.8-1.4,1.3-2c0.9-0.9,2-2.1,3.4-3.4
		c1.4-1.3,2.7-2.4,3.7-3.2h-6.8c-0.3,0-0.4-0.1-0.4-0.4v-2.1c-0.2,0.2-0.4,0.4-0.6,0.6c-0.2,0.2-0.4,0.4-0.6,0.6
		c-0.1,0.1-0.2,0.1-0.3,0.1c-0.1,0-0.2-0.1-0.3-0.2l-1.2-1.7v14.2c0,0.3-0.1,0.4-0.4,0.4h-8.9c-0.3,0-0.4-0.1-0.4-0.4V96.4
		c0-0.3,0.1-0.4,0.4-0.4h8.9c0.3,0,0.4,0.1,0.4,0.4v6.1c1.1-1,2-2.2,2.8-3.5c0.8-1.3,1.4-2.7,1.8-4.1c0.1-0.2,0.2-0.3,0.4-0.3h0.1
		l3,0.5c0.1,0,0.2,0.1,0.3,0.2c0.1,0.1,0.1,0.2,0,0.3l-0.7,2h9.8c0.3,0,0.4,0.1,0.4,0.4v2.8c0,0.3-0.1,0.4-0.4,0.4h-11.7
		c-0.6,0.9-1.2,1.8-1.8,2.6h12c0.3,0,0.4,0.1,0.4,0.4v2.6c0,0.2-0.1,0.4-0.3,0.5c-1.5,1.1-3.3,2.5-5.3,4.3c-2.1,1.8-3.6,3.2-4.6,4.2
		c-0.5,0.6-0.8,1.2-0.8,1.6c0,0.3,0.1,0.6,0.4,0.8c0.3,0.2,0.7,0.3,1.2,0.3c0.9,0.1,1.8,0.1,2.8,0.1c0.9,0,1.6,0,2.3-0.1
		c0.7-0.1,1.1-0.2,1.5-0.5s0.6-0.7,0.7-1.3c0.2-0.6,0.3-1.6,0.4-2.8c0-0.2,0.1-0.3,0.2-0.4s0.2-0.1,0.4,0l2.9,1.2
		c0.2,0.1,0.3,0.2,0.3,0.4v0.1c-0.1,1.7-0.4,3.1-0.7,4c-0.3,0.9-0.9,1.7-1.6,2.1s-1.8,0.8-3.1,0.8c-1.1,0.1-2.2,0.1-3.5,0.1
		c-1.2,0-2.4,0-3.6-0.1C368.2,122.5,367,122,366.2,121.3z M357.4,99.6v15.9h2.7V99.6H357.4z"/>
        <path d="M386.1,100.8v-2.5c0-0.3,0.2-0.4,0.5-0.4h3.7c-0.3-0.7-0.6-1.4-0.9-2c-0.1-0.1-0.1-0.2-0.1-0.3c0-0.2,0.1-0.3,0.4-0.3
		l2.6-0.6c0.1,0,0.2,0,0.3-0.1c0.2,0,0.4,0.1,0.5,0.3c0.3,0.7,0.7,1.7,1.1,3h3.4c0.4,0,0.5,0.1,0.5,0.4v2.5c0,0.3-0.2,0.4-0.5,0.4
		h-11C386.3,101.3,386.1,101.1,386.1,100.8z M387,122.2v-9.1c0-0.3,0.2-0.4,0.5-0.4h9.4c0.3,0,0.5,0.1,0.5,0.4v9.1
		c0,0.3-0.2,0.4-0.5,0.4h-9.4C387.2,122.7,387,122.5,387,122.2z M387.4,105.7v-2.2c0-0.3,0.2-0.4,0.6-0.4h8.8c0.3,0,0.5,0.1,0.5,0.4
		v2.2c0,0.3-0.2,0.4-0.5,0.4H388C387.6,106.1,387.4,106,387.4,105.7z M387.4,110.5v-2.2c0-0.3,0.2-0.4,0.6-0.4h8.8
		c0.3,0,0.5,0.1,0.5,0.4v2.2c0,0.3-0.2,0.4-0.5,0.4H388C387.6,110.9,387.4,110.8,387.4,110.5z M393.9,119.4v-3.6h-3.1v3.6H393.9z
		 M398,110.1v-2.5c0-0.3,0.1-0.4,0.4-0.4h3l0.7-2.9h-2.6c-0.3,0-0.4-0.1-0.4-0.4v-2.5c0-0.3,0.1-0.4,0.4-0.4h3.2l0.4-2.1h-4
		c-0.3,0-0.4-0.1-0.4-0.4v-2.5c0-0.3,0.1-0.4,0.4-0.4h14.7c0.3,0,0.4,0.1,0.4,0.4v2.5c0,0.3-0.1,0.4-0.4,0.4h-6.9l-0.4,2.1h6.4
		c0.1,0,0.3,0,0.3,0.1c0.1,0.1,0.1,0.2,0.1,0.3l-0.6,5.8h1.8c0.3,0,0.4,0.1,0.4,0.4v2.5c0,0.3-0.1,0.4-0.4,0.4h-16.1
		C398.2,110.5,398,110.3,398,110.1z M399.3,122.3v-9.5c0-0.3,0.1-0.4,0.4-0.4h13.5c0.3,0,0.4,0.1,0.4,0.4v9.5c0,0.3-0.1,0.4-0.4,0.4
		h-13.5C399.4,122.7,399.3,122.6,399.3,122.3z M409.8,119.3v-3.7h-6.7v3.7H409.8z M409.1,107.1l0.4-2.9h-3.6l-0.7,2.9H409.1z"/>
        <path d="M422.2,122.3l-2.9-1.2c-0.2-0.1-0.3-0.2-0.3-0.3c0-0.1,0-0.2,0.1-0.2c0.9-1.9,1.5-3.9,1.8-6c0.3-2.1,0.6-5.1,0.7-9.1l0-2.7
		c0-3,0-4.7,0-5.2c0-0.3,0.1-0.4,0.4-0.4h14.9l0-2c0-0.3,0.1-0.4,0.4-0.4h2.9c0.3,0,0.4,0.1,0.4,0.4v2h2c-0.3-0.4-0.6-0.7-0.8-0.9
		c-0.1-0.1-0.2-0.2-0.2-0.3c0-0.1,0.1-0.2,0.2-0.3l1.8-1.1c0.1-0.1,0.2-0.1,0.3-0.1c0.1,0,0.2,0,0.3,0.1c1,0.8,2,1.9,3.1,3.4
		c0.1,0.1,0.1,0.2,0.1,0.3c0,0.1-0.1,0.3-0.2,0.3l-1.8,1.2c0,0-0.1,0-0.1,0.1v0.1c0,0.3-0.1,0.4-0.4,0.4h-4.2c0,1.7,0.1,3.7,0.4,6.1
		c0.9-1.4,1.6-2.9,2.1-4.3c0.1-0.2,0.2-0.3,0.3-0.3c0.1,0,0.2,0,0.3,0.1l2.2,1.1c0.2,0.1,0.3,0.2,0.3,0.4c0,0.1,0,0.2,0,0.3
		c-0.5,1.2-1.1,2.4-1.9,3.7c-0.8,1.3-1.7,2.5-2.6,3.7c0.4,2.9,1,5.2,1.6,6.9c0.1,0.4,0.3,0.5,0.5,0.5c0.2,0,0.4-0.4,0.5-1.2
		s0.2-1.6,0.3-2.5c0-0.2,0.1-0.3,0.3-0.3c0.1,0,0.2,0,0.3,0.1l2.4,1.5c0.1,0.1,0.2,0.2,0.2,0.5l0,0.3c-0.2,1.6-0.7,3-1.3,4
		c-0.7,1-1.5,1.6-2.4,1.6c-0.6,0-1.1-0.1-1.5-0.3c-0.4-0.2-0.8-0.5-1.1-0.8c-0.5-0.7-0.9-1.4-1.2-2.2c-0.5-1.5-1-3.2-1.4-5
		c-0.7,0.6-1.5,1.2-2.3,1.7c-0.1,0.1-0.2,0.1-0.3,0.1c-0.1,0-0.2-0.1-0.3-0.2l-1.5-1.8c-0.1-0.1-0.1-0.2-0.1-0.3s0-0.2,0.1-0.3
		l0.5-0.3H432c1,0.8,1.9,1.6,2.5,2.5c0.1,0.1,0.1,0.2,0.1,0.3c0,0.1-0.1,0.3-0.2,0.4l-1.4,1.2c-0.1,0.1-0.3,0.2-0.3,0.2
		c-0.1,0-0.2-0.1-0.3-0.3c-0.3-0.5-0.7-1-1.3-1.6v3.7c0,0.2,0,0.4,0.1,0.5c0.1,0.1,0.2,0.2,0.3,0.2c0.1,0,0.3,0,0.5,0
		c0.2,0,0.4,0,0.6,0c0.2,0,0.4-0.2,0.5-0.5c0.1-0.3,0.2-0.8,0.2-1.5c0-0.1,0.1-0.2,0.1-0.3c0-0.1,0.1-0.1,0.2-0.1l0.3,0.1l1.8,0.6
		c-0.2-0.5-0.4-0.9-0.6-1.2c0,0-0.1-0.1-0.1-0.2c0-0.1,0.1-0.3,0.3-0.3l1.8-0.6l0.2,0c0.1,0,0.3,0.1,0.4,0.2c0.7,1.2,1.4,2.8,2,4.9
		l0,0.2c0,0.1-0.1,0.2-0.3,0.2l-2,0.7l-0.2,0c-0.2,0-0.3-0.1-0.3-0.3c-0.1-0.7-0.3-1.6-0.8-2.8c-0.1,1-0.2,1.9-0.5,2.4
		c-0.2,0.6-0.6,1-1,1.2c-0.5,0.3-1.1,0.4-2,0.5c-0.2,0-0.5,0-0.9,0H431c-1,0-1.7-0.3-2.2-0.8c-0.5-0.5-0.7-1.3-0.7-2.3v-4.6
		c0-0.3,0.1-0.4,0.4-0.4h2l-0.6-0.6c-0.1-0.1-0.2-0.2-0.2-0.3c0-0.1,0.1-0.2,0.2-0.3l1-0.8h-4.3c-0.3,0-0.4-0.1-0.4-0.4v-6.5
		c0-0.3,0.1-0.4,0.4-0.4h8.6c0.3,0,0.4,0.1,0.4,0.4v6c0.7-0.5,1.3-1.1,2-1.8c-0.4-3-0.7-6.3-0.9-10h-11.7v5.7c0,3.4-0.2,6.5-0.6,9.3
		c-0.4,2.8-1,5.1-1.9,6.9c-0.1,0.2-0.2,0.3-0.4,0.3C422.3,122.4,422.3,122.3,422.2,122.3z M426,122.4l-2-0.7
		c-0.2-0.1-0.3-0.1-0.3-0.3c0-0.1,0-0.2,0.1-0.3c0.3-0.5,0.6-1.4,0.9-2.5c0.3-1.1,0.5-2.1,0.6-2.8c0-0.2,0.1-0.3,0.2-0.3
		c0,0,0.1,0,0.2,0l1.9,0.3c0.2,0,0.3,0.1,0.3,0.3c0,0,0,0.1,0,0.2c-0.3,2.6-0.7,4.6-1.3,5.9c-0.1,0.2-0.2,0.3-0.3,0.3
		C426.2,122.4,426.1,122.4,426,122.4z M426.1,103.8v-1.9c0-0.3,0.1-0.4,0.4-0.4h9.3c0.3,0,0.4,0.1,0.4,0.4v1.9
		c0,0.3-0.1,0.4-0.4,0.4h-9.3C426.3,104.3,426.1,104.1,426.1,103.8z M432.8,110.2V108h-3.4v2.2H432.8z"/>
        <path d="M454.6,123l-2.3-3.3c-0.1-0.1-0.1-0.2-0.1-0.3c0-0.1,0.1-0.3,0.3-0.3c3.1-1.2,5.7-3,7.7-5.4c2-2.4,3.3-5.1,3.9-8.2h-10.4
		c-0.3,0-0.4-0.1-0.4-0.4v-3.2c0-0.3,0.1-0.4,0.4-0.4h10.7V95c0-0.3,0.1-0.4,0.4-0.4h3.6c0.3,0,0.4,0.1,0.4,0.4v6.4h10.8
		c0.3,0,0.4,0.1,0.4,0.4v3.2c0,0.3-0.1,0.4-0.4,0.4h-10.6c0.8,3,2.2,5.7,4.3,8c2.1,2.4,4.5,4.2,7.4,5.4c0.2,0.1,0.3,0.2,0.3,0.3
		c0,0.1,0,0.1-0.1,0.3l-2.2,3.3c-0.1,0.1-0.2,0.2-0.3,0.2c-0.1,0-0.2,0-0.3-0.1c-2.5-1.2-4.7-2.9-6.7-4.9c-2-2-3.6-4.4-4.8-7
		c-1.1,2.6-2.7,4.9-4.7,7.1c-2,2.1-4.3,3.8-6.8,4.9c-0.1,0-0.2,0.1-0.3,0.1C454.8,123.2,454.7,123.1,454.6,123z"/>
        <path d="M487.7,111.2v-7.5l-0.9,0.3c0,0-0.1,0-0.2,0c-0.1,0-0.3-0.1-0.4-0.3l-1.2-2.9c0-0.1,0-0.2,0-0.2c0-0.2,0.1-0.3,0.3-0.3
		c2.4-0.6,4.7-1.3,6.8-2.3c2.1-1,3.8-2,5.2-3.2c0.1-0.1,0.3-0.2,0.5-0.2h3.8c0.2,0,0.4,0.1,0.5,0.2c1.5,1.2,3.3,2.3,5.4,3.2
		s4.3,1.7,6.7,2.2c0.2,0.1,0.3,0.2,0.3,0.3c0,0,0,0.1-0.1,0.2l-1.2,2.9c-0.1,0.3-0.3,0.3-0.6,0.3l-0.9-0.3v7.6
		c0,0.3-0.1,0.4-0.4,0.4h-23.2C487.8,111.6,487.7,111.5,487.7,111.2z M488.8,122.3v-9c0-0.3,0.1-0.4,0.4-0.4h21
		c0.3,0,0.4,0.1,0.4,0.4v9c0,0.3-0.1,0.4-0.4,0.4h-21C489,122.7,488.8,122.6,488.8,122.3z M504.9,100.7v1c0,0.3-0.1,0.4-0.4,0.4
		h-9.4c-0.3,0-0.4-0.1-0.4-0.4v-1c-1.9,1-3.8,1.8-5.7,2.5h21.7C508.6,102.5,506.7,101.7,504.9,100.7z M498.1,109.4v-3.8h-6.9v3.8
		H498.1z M494.5,109c-0.4-0.8-1-1.4-1.7-2c-0.1-0.1-0.2-0.2-0.2-0.3s0.1-0.2,0.3-0.3l1.4-0.6c0.1,0,0.2-0.1,0.3-0.1
		c0.1,0,0.2,0,0.3,0.1c0.8,0.7,1.4,1.4,1.9,2.1c0,0.1,0.1,0.2,0.1,0.3c0,0.1-0.1,0.3-0.3,0.3l-1.4,0.6c-0.1,0-0.1,0-0.2,0.1
		C494.7,109.2,494.6,109.1,494.5,109z M506.8,116.6v-1.4h-14.2v1.4H506.8z M506.8,120.2v-1.4h-14.2v1.4H506.8z M499.7,97.4
		c-1,0.9-2,1.6-3.1,2.3h6.4C501.7,98.9,500.6,98.1,499.7,97.4z M508.2,109.4v-3.8h-6.8v3.8H508.2z M502.5,108.3
		c0-0.1,0.1-0.2,0.2-0.3c0.8-0.6,1.3-1.3,1.7-2c0.1-0.3,0.3-0.3,0.6-0.3l1.4,0.4c0.1,0,0.2,0.1,0.3,0.2c0,0.1,0,0.2,0,0.4
		c-0.5,0.9-1.1,1.7-1.8,2.3c-0.1,0.1-0.3,0.2-0.6,0.1l-1.5-0.6C502.6,108.5,502.5,108.4,502.5,108.3z"/>
        <path d="M530.8,123.2c-0.3,0-0.4-0.1-0.5-0.3l-1.1-2.7l-0.1-0.2c0-0.2,0.1-0.3,0.4-0.3l2.8,0h0.8c2.3,0,3.8-0.1,4.7-0.4
		s1.4-0.6,1.6-1.2c0.1-0.3,0.1-0.8,0.1-1.4h-15.5c-0.3,0-0.4-0.1-0.4-0.3c0-0.1,0-0.1,0-0.2c0.5-1.2,0.9-2.7,1.3-4.3
		c-2,0.7-3.6,1.1-4.7,1.4c0,0-0.1,0-0.2,0c-0.2,0-0.3-0.1-0.4-0.3l-1.4-3.1c0-0.1,0-0.2-0.1-0.2c0-0.2,0.1-0.3,0.4-0.3
		c2.3-0.3,4.6-0.8,6.9-1.4c2.3-0.6,4.4-1.2,6.3-2h-12.2c-0.3,0-0.4-0.1-0.4-0.4v-2.5c0-0.3,0.1-0.4,0.4-0.4h10.2v-2.5h-7.6
		c-0.3,0-0.4-0.1-0.4-0.4v-2.3c0-0.3,0.1-0.4,0.4-0.4h7.6v-2.2c0-0.3,0.1-0.4,0.4-0.4h3.1c0.3,0,0.4,0.1,0.4,0.4v2.2h6.3
		c0.3,0,0.4,0.1,0.4,0.4v1.6c0.7-0.8,1.4-1.7,2.2-2.8c0.1-0.1,0.2-0.2,0.3-0.2l0.3,0.1l3.1,1.6c0.2,0.1,0.3,0.2,0.3,0.3
		c0,0.1,0,0.2-0.1,0.3c-1.1,1.5-2.5,2.9-4.1,4.3h4.2c0.3,0,0.4,0.1,0.4,0.4v2.5c0,0.3-0.1,0.4-0.4,0.4h-8.2
		c-1.4,0.8-2.9,1.6-4.3,2.2h11.1c0.3,0,0.4,0.1,0.4,0.4v2.4c0,0.3-0.1,0.4-0.4,0.4h-15.7l-0.5,2h14.7c0.3,0,0.4,0.1,0.4,0.4
		c0,1.8-0.1,3.3-0.2,4.5c-0.1,1.2-0.6,2.2-1.3,2.8c-0.7,0.7-1.8,1.1-3.3,1.4c-1.5,0.3-3.6,0.4-6.4,0.4L530.8,123.2z M539.5,100.3
		h-5.7v2.5h2.7C537.6,102,538.6,101.2,539.5,100.3z"/>
        <path d="M557.8,109l-5.1-13.8c-0.1-0.2-0.1-0.3-0.1-0.4c0-0.1,0.1-0.3,0.3-0.3l2.7-1.1c0.1-0.1,0.2-0.1,0.3-0.1
		c0.2,0,0.3,0.1,0.3,0.3l5.5,15.1c0.1,0.1,0.1,0.3,0.1,0.4c0,0.1,0,0.3-0.1,0.5l-5.5,15c-0.1,0.2-0.2,0.3-0.3,0.3
		c-0.1,0-0.2,0-0.3-0.1l-2.7-1.1c-0.2-0.1-0.3-0.2-0.3-0.3c0-0.1,0-0.2,0.1-0.4L557.8,109z M563.9,109l-5.1-13.8
		c-0.1-0.2-0.1-0.3-0.1-0.4c0-0.1,0.1-0.3,0.3-0.3l2.7-1.1c0.1-0.1,0.2-0.1,0.3-0.1c0.2,0,0.3,0.1,0.3,0.3l5.5,15.1
		c0.1,0.1,0.1,0.3,0.1,0.4c0,0.1,0,0.3-0.1,0.5l-5.5,15c-0.1,0.2-0.2,0.3-0.3,0.3c-0.1,0-0.2,0-0.3-0.1l-2.7-1.1
		c-0.2-0.1-0.3-0.2-0.3-0.3c0-0.1,0-0.2,0.1-0.4L563.9,109z"/>
        <path d="M2.7,154.3c0.5-0.5,1.2-0.8,2-0.8c0.8,0,1.4,0.2,1.9,0.7c0.5,0.5,0.8,1.1,0.8,1.9c0,0.8-0.3,1.4-0.8,1.9
		c-0.5,0.5-1.2,0.7-1.9,0.7c-0.8,0-1.4-0.3-2-0.8S2,157,2,156.2S2.2,154.8,2.7,154.3z M13.1,158.1c-0.5-0.5-0.8-1.1-0.8-1.9
		c0-0.8,0.3-1.4,0.8-1.9s1.2-0.7,1.9-0.7c0.8,0,1.4,0.2,1.9,0.7c0.5,0.5,0.8,1.1,0.8,1.9c0,0.8-0.3,1.4-0.8,1.9
		c-0.5,0.5-1.2,0.7-1.9,0.7C14.2,158.8,13.6,158.6,13.1,158.1z M23.4,154.3c0.5-0.5,1.2-0.7,1.9-0.7c0.8,0,1.4,0.3,2,0.8
		c0.5,0.5,0.8,1.1,0.8,1.9s-0.3,1.4-0.8,1.9c-0.5,0.5-1.2,0.8-2,0.8c-0.8,0-1.4-0.2-1.9-0.7c-0.5-0.5-0.8-1.1-0.8-1.9
		C22.6,155.4,22.8,154.8,23.4,154.3z"/>
    </g>
</svg>
