<svg xmlns="http://www.w3.org/2000/svg" xml:space="preserve" width="567.9" height="158.8" style="overflow:visible" viewBox="0 0 567.9 158.8"><path d="M20.9 16.8c-2.3-1-4.3-2.1-5.9-3.2-1.4 1-3.3 2-5.6 2.9s-4.7 1.5-7 1.9h-.2c-.2 0-.3-.1-.4-.3L.6 15.5c0-.1 0-.2-.1-.2q0-.3.3-.3C3 14.8 5 14.4 7 13.9s3.6-1.1 4.8-1.7c0-.1-.1-.2-.2-.5-3.6.6-6.8.9-9.6 1.1-.2 0-.4-.1-.4-.3L1.1 11c0-.2-.1-.3-.1-.4s.1-.4.4-.6c.4-.3.8-.8 1.3-1.4.6-.6 1-1.2 1.2-1.6.1-.3.3-.3.6-.3l2.6.5c.2 0 .3.1.3.2s0 .2-.1.3c-.8 1-1.4 1.7-1.9 2.1 2.6-.2 4.2-.4 4.9-.5q-.45-.6-.6-.9c0-.1-.1-.2-.1-.3s.1-.3.3-.3l1.9-.5h.2c.2 0 .3.1.4.2 1.2 1.3 2 2.5 2.6 3.6h.3l-.2-.7c0-.1 0-.3.1-.4s.2-.3.3-.4.3-.3.4-.5c.5-.6.9-1.2 1.4-1.8l.4-.6c.2-.2.4-.3.6-.2l2.4.6c.2 0 .3.1.3.2.1.1 0 .2 0 .4-.2.3-.5.6-.8 1s-.7.7-1 1.1c1.7-.1 3.3-.2 4.5-.4l-.7-.9c-.1-.1-.2-.2-.2-.3s.1-.3.3-.3l2-.7.3-.1c.1 0 .3.1.4.2 1.3 1.3 2.4 2.7 3.1 4.2 0 .1 0 .1.1.2q0 .15-.3.3l-2.2 1.1c-.1 0-.1 0-.2.1q-.15 0-.3-.3c0-.1-.2-.4-.5-1-1.9.3-4.2.5-7 .6 1.3.7 2.8 1.2 4.6 1.7s3.7.8 5.8 1.1c.3 0 .4.1.4.3v.2l-1.1 2.9c-.1.3-.3.4-.5.3-2.2-.5-4.5-1.2-6.8-2.2M3.6 28.7l-1.3-2.4c0-.1-.1-.2-.1-.3 0-.2.1-.3.4-.3 4.9 0 9.1-.5 12.8-1.4s6.6-2.4 8.8-4.4c.1-.1.2-.2.3-.2s.2.1.3.2l1.9 1.7c.1.1.2.2.2.3s0 .2-.1.2c-2.6 2.3-5.8 4-9.6 5-3.8 1.1-8.2 1.6-13.1 1.7-.3.2-.4.1-.5-.1m1.3-4.4-1.1-1.8c-.1-.1-.1-.2-.1-.3 0-.2.1-.3.4-.3 3.5-.2 6.6-.6 9.2-1.3s4.8-1.7 6.4-3c.1-.1.2-.1.3-.1s.2 0 .3.1l1.6 1.3c.1.1.2.2.2.3s0 .2-.1.3c-1.9 1.4-4.3 2.6-7.3 3.5-2.9.9-6.1 1.4-9.4 1.6-.1 0-.3-.1-.4-.3m19-17.6c-.2 0-.3-.1-.4-.2-.2-.3-.5-.6-.9-1q-2.7.3-8.1.6c-3.6.2-6.5.3-8.5.3H5c-.3 0-.5-.1-.5-.4l-.3-1.7V4c0-.2.1-.4.3-.5.4-.2.9-.5 1.4-.8C7.4 1.7 8.5.9 9.2.2c.2-.1.4-.2.5-.2h.3l3.3.6q.3 0 .3.3c0 .1-.1.2-.2.3-1.1.8-2.2 1.6-3.4 2.3 2.8-.1 6.1-.2 9.8-.5l-1.6-1c-.1-.1-.2-.2-.2-.3q0-.15.3-.3l2.3-.8h.3c.1 0 .3 0 .3.1.9.4 1.8 1.1 2.8 1.9s1.9 1.6 2.7 2.5c.1.1.2.2.2.3q0 .15-.3.3L24 6.8c0-.1 0-.1-.1-.1M6.4 20.8c-.2 0-.3-.1-.4-.3l-1-1.6c-.1-.1-.1-.2-.1-.3 0-.2.1-.3.4-.3 2.1-.1 4.1-.5 5.9-1.1s3.4-1.2 4.6-2c.1-.1.2-.1.3-.1s.2 0 .3.1l1.4 1.1c.1.1.2.2.2.3s-.1.2-.2.3C14.7 19 11 20.2 6.4 20.8M33.8 8.4V5.5c0-.3.1-.4.4-.4h3.5V.5c0-.3.1-.4.4-.4h3.1c.3 0 .4.1.4.4V5h6.1c.3 0 .4.1.4.4v1.1l.1 7.6c0 1.6 0 3.1-.1 4.4-.1 2.8-.3 4.9-.7 6.3s-1 2.3-1.9 2.9c-.9.5-2.2.8-4 .8q-.6 0-.6-.3l-1-3.3v-.2c0-.2.1-.3.4-.3 1.1 0 2-.1 2.5-.4s.9-.9 1.1-1.7c.2-.9.4-2.3.4-4.1 0-1.2.1-3.1.1-5.6V8.9h-2.9c-.1 4.2-.5 8-1.1 11.4-.7 3.4-1.7 6.2-3.3 8.3-.1.1-.2.2-.3.2s-.2 0-.3-.1l-2.9-1.8c-.1-.1-.2-.2-.2-.3s0-.2.1-.3c1.5-2.1 2.6-4.5 3.1-7.4.6-2.8.9-6.2 1-10h-3.4c-.2 0-.4-.2-.4-.5m16.8-5.5h10.7c.3 0 .4.1.4.4v24c0 .3-.1.4-.4.4H50.6c-.3 0-.4-.1-.4-.4v-24c-.1-.3.1-.4.4-.4m3.5 3.7V24h3.8V6.6zM79.1 28.7c-.3 0-.4-.1-.5-.3l-1.1-2.7-.1-.2c0-.2.1-.3.4-.3h3.6c2.3 0 3.8-.1 4.7-.4s1.4-.6 1.6-1.2c.1-.3.1-.8.1-1.4H72.4c-.3 0-.4-.1-.4-.3v-.2c.5-1.2.9-2.7 1.3-4.3-2 .7-3.6 1.1-4.7 1.4h-.2c-.2 0-.3-.1-.4-.3l-1.4-3.1c0-.1 0-.2-.1-.2 0-.2.1-.3.4-.3 2.3-.3 4.6-.8 6.9-1.4s4.4-1.2 6.3-2H67.8c-.3 0-.4-.1-.4-.4V8.8c0-.3.1-.4.4-.4H78V5.9h-7.6c-.3 0-.4-.1-.4-.4V3.1c0-.3.1-.4.4-.4H78V.4c0-.3.1-.4.4-.4h3.1c.3 0 .4.1.4.4v2.2h6.3c.3 0 .4.1.4.4v1.6C89.5 4 90.2 3.1 91 2c.1-.1.2-.2.3-.2l.3.1 3.1 1.6q.3.15.3.3c0 .1 0 .2-.1.3-1.1 1.5-2.5 2.9-4.1 4.3H95c.3 0 .4.1.4.4v2.5c0 .3-.1.4-.4.4h-8.2c-1.4.8-2.9 1.6-4.3 2.2h11.1c.3 0 .4.1.4.4v2.4c0 .3-.1.4-.4.4H77.7l-.5 2h14.7c.3 0 .4.1.4.4 0 1.8-.1 3.3-.2 4.5s-.6 2.2-1.3 2.8c-.7.7-1.8 1.1-3.3 1.4s-3.6.4-6.4.4zm8.7-22.9h-5.7v2.5h2.7c1.1-.8 2.1-1.6 3-2.5M99.8 6.6V4.1c0-.3.1-.4.4-.4h3.5c-.3-.9-.6-1.7-.9-2.3-.1-.1-.1-.2-.1-.3q0-.3.3-.3l2.6-.6c.1 0 .2 0 .3-.1.2 0 .4.1.4.3.4.8.7 1.9 1.1 3.3h2.8c.3 0 .4.1.4.4v2.5c0 .3-.1.4-.4.4h-10.1c-.2 0-.3-.2-.3-.4m.8 21.2v-9c0-.3.1-.4.4-.4h8.9c.3 0 .4.1.4.4v9c0 .3-.1.4-.4.4H101c-.2.1-.4-.1-.4-.4m.4-16.5V9.2c0-.3.1-.4.4-.4h8.3c.3 0 .4.1.4.4v2.1c0 .3-.1.4-.4.4h-8.3c-.3.1-.4-.1-.4-.4m0 4.7v-2.1c0-.3.1-.4.4-.4h8.3c.3 0 .4.1.4.4V16c0 .3-.1.4-.4.4h-8.3c-.3 0-.4-.1-.4-.4m6.1 9.2v-3.8h-3.2v3.8zm4.4-9.6v-2.7c0-.3.1-.4.4-.4h6.5c.3 0 .4.1.4.4v2.7c0 .3-.1.4-.4.4H117v6c.7-.1 1.4-.3 2.2-.5h.2c.2 0 .3.1.3.4v2.7c0 .3-.1.4-.3.5-2.3.7-4.8 1.3-7.6 1.7h-.1c-.2 0-.3-.1-.3-.4l-.3-2.8v-.1c0-.2.1-.4.4-.4l.9-.1 1.3-.2V16h-1.6c-.5 0-.6-.1-.6-.4m-.3-6.6V6.1c0-.3.1-.4.4-.4h7.7V.6c0-.3.1-.4.4-.4h3c.3 0 .4.1.4.4 0 1.8-.1 3.5-.1 5.1h2.2c-.4-1.3-1-2.7-1.8-4 0-.1-.1-.1-.1-.3q0-.3.3-.3l2.1-.8h.2c.2 0 .3.1.4.2.4.6.8 1.2 1.1 1.9s.6 1.4.8 2v.2c0 .2-.1.3-.3.4l-1.9.7h1.4c.3 0 .4.1.4.4V9c0 .3-.1.4-.4.4h-4.5q.15 9.45 1.5 13.5c.2.5.4.8.6.8.3 0 .5-.3.7-1s.4-1.5.5-2.5c0-.3.1-.4.3-.4.1 0 .2 0 .3.1l2 1.8c.1.1.2.3.2.4v.3c-.3 2-.8 3.6-1.6 4.6s-1.6 1.6-2.5 1.6c-.7 0-1.4-.3-2-1-.6-.6-1.2-1.6-1.6-2.8-1.1-3.2-1.8-8.4-2-15.6h-7.8c-.2.2-.3.1-.3-.2M135.2 28.5l-2.3-3.2c-.1-.1-.1-.2-.1-.3s.1-.3.3-.3c2.5-1 4.7-2.6 6.5-4.8 1.8-2.1 3.1-4.6 4-7.3s1.4-5.4 1.4-8.2v-4c0-.3.1-.4.4-.4h3.5c.3 0 .4.1.4.4v2.4c.2 3.2.7 6.3 1.7 9.2s2.4 5.5 4.2 7.7 3.9 3.9 6.3 4.9q.3.15.3.3c0 .1 0 .1-.1.3l-2.2 3.2c-.1.1-.2.2-.4.2-.1 0-.1 0-.2-.1-2.5-1.3-4.8-3.2-6.9-5.8s-3.6-5.5-4.6-8.7c-1 3.2-2.5 6.1-4.5 8.8-2 2.6-4.4 4.6-7.1 5.9-.1 0-.2.1-.3.1zM168.3 28.5l-2.3-3.2c-.1-.1-.1-.2-.1-.3s.1-.3.3-.3c2.5-1 4.7-2.6 6.5-4.8 1.8-2.1 3.1-4.6 4-7.3s1.4-5.4 1.4-8.2v-4c0-.3.1-.4.4-.4h3.5c.3 0 .4.1.4.4v2.4c.1 3.2.6 6.2 1.6 9.1s2.4 5.5 4.2 7.7 3.9 3.9 6.3 4.9q.3.15.3.3c0 .1 0 .1-.1.3l-2.2 3.2c-.1.1-.2.2-.4.2-.1 0-.1 0-.2-.1-2.5-1.3-4.8-3.2-6.9-5.8s-3.6-5.5-4.6-8.7c-1 3.2-2.5 6.1-4.5 8.8-2 2.6-4.4 4.6-7.1 5.9-.1 0-.2.1-.3.1zM207 28.9l-3.3-1.3q-.3-.15-.3-.3c0-.1 0-.2.1-.3 1.1-2 1.7-4.9 1.7-8.5v-1.8c-1.2 1.2-2.4 2.3-3.6 3.2 0 0-.1 0-.1.1h-.2c-.1 0-.3-.1-.3-.2l-2-3c-.1-.1-.1-.2-.1-.3s.1-.2.2-.3c3.5-2.4 6.1-5.5 8-9.2h-6.6c-.3 0-.4-.1-.4-.4V3.7c0-.3.1-.4.4-.4h8.1c.4-1.2.6-2.1.8-2.8q.15-.3.3-.3h.2l3.5.4c.3 0 .4.2.4.3v.3l-.6 2h13.9c.3 0 .4.1.4.4v2.8c0 .3-.1.4-.4.4h-15.3q-.45 1.2-1.2 2.4h14c.3 0 .4.1.4.4v14.1c0 1.2-.2 2.1-.6 2.8q-.6 1.05-2.1 1.5c-1 .3-2.4.5-4.2.5h-1c-.3 0-.5-.2-.5-.3l-.9-2.8v-.2q0-.3.3-.3h1.6c1 0 1.8-.1 2.3-.2s.9-.3 1-.5c.2-.2.2-.5.2-.9v-.5H209c-.4 2.5-.9 4.4-1.5 5.9 0 .1-.1.2-.3.2zm13.8-9v-2.1h-11.6c0 .9 0 1.6-.1 2.1zm0-5.1v-2.1h-11.6v2.1zM233.2 28.4l-1.1-2.8v-.2c0-.2.1-.3.4-.3 5.7-.2 9.3-1.2 10.7-3.1l-10.1.1c-.3 0-.4-.1-.4-.4v-2.3c0-.3.1-.4.4-.4h11.1c.1-.6.1-1.3.1-2 0-.3.1-.5.4-.5h3.3c.3 0 .4.1.4.4v1c0 .3-.1.7-.1 1h4.7c-.4-.6-.9-1.2-1.4-1.7-.1-.1-.2-.2-.2-.3s.1-.1.2-.2.2-.1.3-.2l-.6-1.3-2 1.2c-.1.1-.2.1-.3.1s-.3-.1-.3-.2c-.7-.9-1.6-1.7-2.6-2.4-.1-.1-.2-.2-.2-.3s.1-.2.2-.3l1.8-.9h-3.1c-.3 0-.4-.1-.4-.4v-1.7c0-.3.1-.4.4-.4h.4l-.2-.2-1-1.7v-.2c0-.2.1-.3.4-.3 1.3-.1 2.3-.2 2.9-.3-.3-.4-.6-.7-.8-.9-.1-.1-.2-.3-.2-.3q0-.15.3-.3l1.4-.5c.1 0 .2 0 .2-.1.1 0 .2.1.3.2.5.4.9.8 1.3 1.4.5-.1 1-.2 1.4-.4-.3-.3-.7-.7-1.2-1.1v-.3q0-.15.3-.3l1.5-.6h.3c.1 0 .2 0 .3.1.5.4 1 .8 1.4 1.3 1-.5 1.9-1.1 2.5-1.7h-5.9c-1.4.6-3 1.1-4.7 1.5h-.2c-.2 0-.3-.1-.4-.3L244 3.2v-.3c0-.2.1-.3.4-.3 1.5-.2 2.8-.5 4-.9q1.8-.6 2.7-1.5c.1-.1.2-.2.4-.2h.2l2.7.5q.3 0 .3.3c0 .1-.1.2-.2.3l-.4.3h5.6c.3 0 .4.1.4.4v1.4c0 .2 0 .3-.1.5-1.1 1.5-2.8 2.8-5.2 3.9s-5.2 1.8-8.5 2.2h8.1V8.5c0-.3.1-.4.4-.4h2.9c.3 0 .4.1.4.4v1.4h2c.3 0 .4.1.4.4V12c0 .3-.1.4-.4.4h-2v1c0 1.1-.2 2-.5 2.5-.4.5-1.1.9-2.1 1.1.4.4.8 1 1.2 1.9h3.2c.3 0 .4.1.4.4v2.3c0 .3-.1.4-.4.4h-10.4q1.65 1.35 4.5 2.1c1.9.5 4.1.8 6.5.8.3 0 .4.1.4.3v.2l-1.1 2.8c-.1.2-.3.3-.5.3-6-.4-10.3-2-12.8-4.9-2.1 2.7-6.3 4.4-12.7 4.9h-.1c-.2.2-.4.1-.5-.1m2.1-10.6-2.6-1.2q-.3-.15-.3-.3c0-.1 0-.1.1-.2l.1-.1c1-.9 1.6-2.3 1.8-3.9H233c-.3 0-.4-.1-.4-.4V9.4c0-.3.1-.4.4-.4h6.7V7.3h-5.4c-.3 0-.4-.1-.4-.4V1.1c0-.3.1-.4.4-.4h2.6c.3 0 .4.1.4.4v3.1h2.3V.5c0-.3.1-.4.4-.4h2.9c.3 0 .4.1.4.4v16.6c0 .3-.1.4-.4.4H240c-.3 0-.4-.1-.4-.4V12H238q-.3 3.6-2.1 5.7c-.1.1-.2.2-.3.2-.2-.1-.2-.1-.3-.1m16.5-3.2c1.1 0 1.8-.1 2.2-.4.3-.2.5-.6.5-1.2v-.5h-5.9c1 .5 1.9 1.2 2.8 2.1zM276.5 21.7l.1-.3 1.6-4.9c-.4-.3-.8-.6-1-1s-.4-.9-.4-1.4c0-.8.3-1.4.8-1.9s1.2-.8 2-.8 1.5.3 2 .8.8 1.1.8 1.9c0 .5-.1 1-.3 1.6s-.6 1.5-1.2 2.9l-1.4 3.1c-.1.2-.3.3-.5.3h-2.1c-.3 0-.4-.1-.4-.3M298 25.7c0-.1.1-.3.2-.3 1.3-1 2.4-2.2 3.2-3.4s1.4-2.5 1.7-3.8h-3.4c-.3 0-.4-.1-.4-.4v-2.2c0-.3.1-.5.2-.6.9-1 1.8-2.1 2.6-3.5h-3c-.1 0-.2 0-.3-.1s-.1-.2-.1-.3V8.3c0-.1 0-.2.1-.3s.2-.1.3-.1h6.6c.2 0 .3 0 .4.1s.1.2.1.3v2.1c0 .2 0 .3-.1.5-.1.3-.4.8-.9 1.6s-1.1 1.6-1.7 2.5h2.8c.3 0 .4.2.4.5v1.2l-.1 1c-.2 1.4-.6 2.9-1.2 4.3.3.3.5.5.7.6s.4.3.6.4c1.2.8 2.7 1.3 4.7 1.5.8.1 1.7.1 2.9.1h2c4-.1 7-.2 8.9-.4.5-.1 1.1-.1 1.8-.3h.1c.1 0 .2 0 .2.1.1.1.1.1.1.2v.2l-.9 3c-.1.2-.3.4-.6.4-2.5.3-5.6.4-9.5.4-2.4 0-4.3-.1-5.6-.2-1.1-.1-2.1-.3-2.8-.4s-1.4-.4-2-.8c-.8-.4-1.6-1-2.3-1.7-.8 1.2-1.6 2.1-2.5 2.9 0 0-.1.1-.2.1h-.3c-.1 0-.2 0-.3-.1l-2.5-2.1c.2 0 .1-.1.1-.2m4.7-19.1c-.5-.8-1-1.5-1.6-2.1-.5-.6-1.1-1.2-1.9-1.9-.1-.1-.2-.2-.2-.3s.1-.2.2-.3l2.2-1.7c.1-.1.2-.1.3-.1s.2 0 .3.1c.5.5 1.1 1.1 1.8 1.9.6.7 1.2 1.5 1.7 2.3.1.1.1.2.1.3s-.1.3-.2.4l-2.2 1.7c-.1.1-.1.1-.2.1-.1-.2-.2-.2-.3-.4m17.5 16.5-.7-1.8h-6.4c-.3 0-.4-.1-.4-.4v-6.3c0-.3.1-.4.4-.4h7.9c.3 0 .4.1.4.4v5.6c.5-.1.8-.2.9-.4s.2-.5.2-1V3.9h-10.9V10c0 2.8-.1 5.3-.3 7.4s-.6 3.9-1.2 5.5c0 .1-.1.2-.2.3-.1 0-.2 0-.3-.1l-2.6-1.6c-.2-.1-.3-.3-.2-.6.6-1.4.9-3 1.1-4.7s.2-3.9.2-6.6V1.2c0-.3.1-.4.4-.4h17.1c.3 0 .4.1.4.4v17.5c0 1.3-.1 2.3-.4 3s-.8 1.1-1.5 1.4-1.9.4-3.4.4c-.2-.1-.4-.2-.5-.4m-7.9-10.7v-1.8c0-.3.1-.4.4-.4h2.7V8.6h-2.3c-.3 0-.4-.1-.4-.4V6.4c0-.3.1-.4.4-.4h2.3V5c0-.3.1-.4.4-.4h2.4c.3 0 .4.1.4.4v1h2.4c.3 0 .4.1.4.4v1.8c0 .3-.1.4-.4.4h-2.4v1.5h2.6c.3 0 .4.1.4.4v1.8c0 .3-.1.4-.4.4h-8.6c-.1.1-.3 0-.3-.3m6.3 6.3v-2h-3.1v2zM331.1 25.7c0-.1.1-.3.2-.3 1.3-1 2.4-2.2 3.2-3.4s1.4-2.5 1.7-3.8h-3.4c-.3 0-.4-.1-.4-.4v-2.2c0-.3.1-.5.2-.6.9-1 1.8-2.1 2.6-3.5h-3c-.1 0-.2 0-.3-.1s-.1-.2-.1-.3V8.3c0-.1 0-.2.1-.3s.2-.1.3-.1h6.6c.2 0 .3 0 .4.1s.1.2.1.3v2.1c0 .2 0 .3-.1.5-.1.3-.4.8-.9 1.6s-1.1 1.6-1.7 2.5h2.8c.3 0 .4.2.4.5v1.2l-.1 1c-.2 1.4-.6 2.9-1.2 4.3.3.3.5.5.7.6s.4.3.6.4c1.2.8 2.7 1.3 4.7 1.5.8.1 1.7.1 2.9.1h2c4-.1 7-.2 8.9-.4.5-.1 1.1-.1 1.8-.3h.1c.1 0 .2 0 .2.1.1.1.1.1.1.2v.2l-.9 3c-.1.2-.3.4-.6.4-2.5.3-5.6.4-9.5.4-2.4 0-4.3-.1-5.6-.2-1.1-.1-2.1-.3-2.8-.4-.7-.2-1.4-.4-2-.8-.8-.4-1.6-1-2.3-1.7-.8 1.2-1.6 2.1-2.5 2.9 0 0-.1.1-.2.1h-.3c-.1 0-.2 0-.3-.1l-2.5-2.1c.2 0 .1-.1.1-.2m4.7-19.1c-.5-.8-1-1.5-1.6-2.1-.5-.6-1.1-1.2-1.9-1.9-.1-.1-.2-.2-.2-.3s.1-.2.2-.3l2.2-1.7c.1-.1.2-.1.3-.1s.2 0 .3.1c.5.5 1.1 1.1 1.8 1.9.6.7 1.2 1.5 1.7 2.3.1.1.1.2.1.3s-.1.3-.2.4l-2.2 1.7c-.1.1-.1.1-.2.1-.1-.2-.3-.2-.3-.4m17.5 16.5-.7-1.8h-6.4c-.3 0-.4-.1-.4-.4v-6.3c0-.3.1-.4.4-.4h7.9c.3 0 .4.1.4.4v5.6c.5-.1.8-.2.9-.4s.2-.5.2-1V3.9h-10.9V10c0 2.8-.1 5.3-.3 7.4s-.6 3.9-1.2 5.5c0 .1-.1.2-.2.3s-.2 0-.3-.1l-2.6-1.6c-.2-.1-.3-.3-.2-.6.6-1.4.9-3 1.1-4.7s.2-3.9.2-6.6V1.2c0-.3.1-.4.4-.4h17.1c.3 0 .4.1.4.4v17.5c0 1.3-.1 2.3-.4 3s-.8 1.1-1.5 1.4-1.9.4-3.4.4c-.3-.1-.4-.2-.5-.4m-7.9-10.7v-1.8c0-.3.1-.4.4-.4h2.7V8.6h-2.3c-.3 0-.4-.1-.4-.4V6.4c0-.3.1-.4.4-.4h2.3V5c0-.3.1-.4.4-.4h2.4c.3 0 .4.1.4.4v1h2.4c.3 0 .4.1.4.4v1.8c0 .3-.1.4-.4.4h-2.4v1.5h2.6c.3 0 .4.1.4.4v1.8c0 .3-.1.4-.4.4h-8.6q-.3.15-.3-.3m6.2 6.3v-2h-3.1v2zM366.4 15l-2.1-3.1-.1-.2c0-.2.1-.3.2-.4q4.95-3.3 7.2-9.3c.1-.2.2-.3.4-.3h.2l3.1 1.3c.1 0 .2.1.3.2v.3c-.9 2.3-2.2 4.5-3.6 6.5s-3.1 3.7-5 5.1c-.1.1-.2.1-.3.1s-.2-.1-.3-.2m1.3 12.2-.6-3v-.1c0-.2.1-.4.2-.5q.6-.45 1.5-1.5c1.2-1.4 2.5-3.3 4-5.7 1.5-2.5 2.5-4.6 3.1-6.5.1-.3.3-.4.5-.3l3.3 1.1c.1 0 .2.1.3.2q.15.15 0 .3-1.35 3.3-3.3 6.6c-1.3 2.2-2.6 4.1-3.8 5.6 5-.4 9.1-.8 12.3-1.3-.8-1.8-1.8-3.5-2.8-5.1-.1-.1-.1-.2-.1-.3q0-.3.3-.3l2.8-1.1c.1 0 .2 0 .2-.1.2 0 .3.1.4.2 2.4 3.6 4.4 7.4 5.8 11.3v.2c0 .2-.1.3-.3.4l-3.3 1.3h-.1c-.2 0-.4-.2-.6-.7l-.8-2.1c-2.8.4-5.9.8-9.4 1.1-3.4.3-6.6.5-9.4.6 0 .1-.1 0-.2-.3m22.9-12.3c-1.9-1.4-3.5-3-4.9-4.6s-2.6-3.6-3.6-5.7h-5c-.3 0-.4-.1-.4-.4V1c0-.3.1-.4.4-.4h7.4c.3 0 .4.1.5.3.9 2.1 2.1 4 3.4 5.7 1.4 1.7 3 3.1 4.7 4.3.1.1.2.2.2.3s0 .1-.1.3l-2 3.3c-.1.1-.2.2-.3.2s-.2 0-.3-.1M415.5 28.3V16h-2.8v9.4c0 .3-.1.4-.4.4h-2.7c-.3 0-.4-.1-.4-.4v-8.1q-.75 1.05-1.8 2.1c-.1.1-.2.2-.3.2s-.3-.1-.3-.2l-1.8-2.1v11.1c0 .3-.1.4-.4.4h-3c-.3 0-.4-.1-.4-.4V13.6c-.5.7-1.1 1.5-1.9 2.3-.1.1-.2.2-.3.2s-.3-.1-.3-.3l-1.4-3.5c0-.1-.1-.2-.1-.3s.1-.2.2-.3c1.4-1.4 2.7-3 3.7-5.1q1.65-3 2.4-6 .15-.3.3-.3l.4.1 2.9.6c.2 0 .3.1.4.3v.2c-.7 2.5-1.6 4.8-2.6 6.7V16c2.6-2.5 4.6-5.3 6-8.6h-3.4c-.3 0-.4-.1-.4-.4V4.2c0-.3.1-.4.4-.4h4.7c.3-1.1.5-2.2.7-3.3 0-.2.2-.3.4-.4h.2l3.1.3c.2 0 .4.1.4.3v.1c-.2.9-.4 1.9-.7 2.9h9.7c.3 0 .4.1.4.4V7c0 .3-.1.4-.4.4h-11c-.8 1.9-1.6 3.6-2.5 5h3.1V9.3c0-.3.1-.4.4-.4h2.7c.3 0 .4.1.4.4v3.1h5.9c.3 0 .5.1.5.4v8.4c0 1.1-.1 2-.4 2.6-.2.6-.7 1.1-1.3 1.4-.7.3-1.6.4-2.8.4-.3 0-.5-.1-.5-.4l-.9-2.8v-.2c0-.1 0-.2.1-.3s.2-.1.3-.1c.8 0 1.4-.1 1.6-.4s.4-.8.4-1.6V16h-2.9v12.4c0 .3-.1.4-.4.4H416c-.4 0-.5-.2-.5-.5M431.7 28.3l-1-3.1V25c0-.2.1-.3.4-.3h.2c.8 0 1.3-.1 1.7-.2s.6-.3.7-.6.2-.7.2-1.3v-4.3c-.5.1-1 .3-1.6.4-.5.1-.9.2-1.1.3-.2 0-.3-.1-.4-.4l-.4-3.1v-.1c0-.2.1-.3.4-.4.7-.1 1.7-.4 3.1-.7V9h-2.5c-.3 0-.4-.1-.4-.4V5.8c0-.3.1-.4.4-.4h2.5V.5c0-.3.1-.4.4-.4h2.9c.3 0 .4.1.4.4v4.9h1.7c.3 0 .4.1.4.4v2.8c0 .3-.1.4-.4.4h-1.7v4.4c.6-.2 1.2-.4 1.8-.7.1 0 .2 0 .2-.1.2 0 .3.1.3.4v3.1c0 .3-.1.4-.3.5l-2 .8v5.4c0 1.6-.1 2.8-.4 3.6-.2.8-.7 1.4-1.4 1.7-.7.4-1.8.5-3.2.5h-.4c-.2.1-.4 0-.5-.3m11.2.3-2.8-1.9c-.1-.1-.2-.2-.2-.3s.1-.3.2-.3c2-1.3 3.4-3.1 4.1-5.5-1.3.6-2.5 1-3.6 1.3h-.2c-.2 0-.3-.1-.4-.4l-.7-3c0-.1 0-.2.1-.3s.2-.1.3-.1c1.8-.3 3.4-.6 4.7-1l.1-2.6h-3.3c-.3 0-.4-.1-.4-.4v-2.6c0-.3.1-.4.4-.4h3.3v-3h-3.6c-.3 0-.4-.1-.4-.4V4.9c0-.3.1-.4.4-.4h3.6v-4c0-.3.1-.4.4-.4h3c.3 0 .4.1.4.4v11.3c0 3-.1 5.5-.3 7.3s-.6 3.5-1.3 5.2-1.8 3.1-3.4 4.3c-.1.1-.2.1-.3.1zm7.8-.3V.5c0-.3.1-.4.4-.4h3c.3 0 .4.1.4.4v3.9h4.1c.3 0 .4.1.4.4v2.8c0 .3-.1.4-.4.4h-4.1v3h3.6c.3 0 .4.1.4.4v2.7c0 .3-.1.4-.4.4h-3.6v3.2h4.3c.3 0 .4.1.4.4v2.8c0 .3-.1.4-.4.4h-4.3V28c0 .3-.1.4-.4.4h-3c-.3.4-.4.2-.4-.1M466.4 11.4c-.2 0-.3-.1-.4-.2l-2-3V8c0-.1.1-.3.3-.3 2.1-.7 4.2-1.8 6.1-3.1s3.4-2.8 4.4-4.2q.15-.3.6-.3l3.6.5q.3.15.3.3c0 .1 0 .1-.1.3l-.9 1.3h11c.3 0 .4.1.4.4v2.7c0 .2 0 .4-.1.5-2.5 3.7-6.1 6.8-10.9 9.4h11.4c.3 0 .4.1.4.4v11.8c0 .3-.1.4-.4.4h-20.2c-.3 0-.4-.1-.4-.4v-8.5c-.8.3-2 .6-3.7 1.1h-.2c-.2 0-.3-.1-.4-.3l-1.5-3.2c0-.1 0-.2-.1-.2q0-.3.3-.3c3.8-.7 7.2-1.6 10.3-2.9q-2.1-1.95-4.5-3.6c-.9.5-2 1.1-3.1 1.6zm11.6.2c2.8-1.6 5-3.4 6.7-5.5h-9.9c-.4.4-1 .9-1.9 1.5 2 1.2 3.6 2.6 5.1 4m8.5 7.4h-13v5.5h13zM508 21.7l.1-.3 1.6-4.9c-.4-.3-.8-.6-1-1s-.4-.9-.4-1.4c0-.8.3-1.4.8-1.9s1.2-.8 2-.8 1.5.3 2 .8.8 1.1.8 1.9c0 .5-.1 1-.3 1.6s-.6 1.5-1.2 2.9l-1.4 3.1c-.1.2-.3.3-.5.3h-2.1c-.3 0-.4-.1-.4-.3M3.1 62.3c-.1 0-.2-.1-.3-.2l-2.1-3c0-.1-.1-.1-.1-.3 0-.1.1-.3.2-.3 3.2-2 5.7-5.1 7.3-9.3q.15-.45.6-.3l3 1.2q.45.15.3.6c-.5 1.3-1.1 2.7-1.9 4.1q-1.2 2.1-2.7 3.9h15.5c-.8-.9-1.5-2-2.2-3.1s-1.4-2.4-2.1-3.8h-5.1c-.3 0-.4-.1-.4-.4v-3.1c0-.3.1-.4.4-.4h7.4c.3 0 .5.1.5.3 1.9 4.6 4.5 7.9 7.8 10 .1.1.2.2.2.3s0 .2-.1.3l-2 3.3q-.15.3-.3.3c-.1 0-.1 0-.3-.1-.9-.6-1.7-1.3-2.3-1.9 0 3.3-.1 6.2-.3 8.6-.1 1.8-.4 3.1-.9 4.1q-.75 1.5-2.4 2.1c-1.65.6-2.6.6-4.4.6h-1c-.3 0-.4-.2-.5-.4L13.7 72v-.2c0-.2.1-.3.4-.3l1.4.1c1.2 0 2-.1 2.7-.3.6-.2 1.1-.6 1.4-1 .3-.5.5-1.1.5-2 .1-1.2.2-2.9.2-4.9v-.8h-5.1c-.3 3.5-1.4 6.4-3.2 8.7-1.9 2.1-4.6 3.7-8.3 4.7h-.2c-.2 0-.3-.1-.4-.3l-2-3c-.1-.1-.1-.2-.1-.3s.1-.3.3-.3c3-.7 5.3-1.8 6.8-3.4s2.4-3.7 2.7-6.4H6.7c-.3 0-.4-.1-.4-.4v-2.1c-1 1-1.9 1.8-2.8 2.4-.2.1-.3.1-.4.1M34.3 64.3v-4.6c0-.3.1-.4.4-.4h5.4v-1h-4.8c-.3 0-.4-.1-.4-.4v-2.7H34c-.3 0-.4-.1-.4-.4v-2.4c0-.3.1-.4.4-.4h.9v-2.8c0-.3.1-.4.4-.4h4.8v-1c0-.3.1-.4.4-.4h3c.3 0 .4.1.4.4v1h4.7c.3 0 .4.1.4.4V52h.7c.3 0 .4.1.4.4v2.2c0 .3-.1.4-.4.4H49v2.8c0 .3-.1.4-.4.4h-4.7v1h4.7l.1-.1c.9-1.3 1.7-3 2.3-5.1.7-2.1 1.1-4.2 1.5-6.4 0-.3.2-.4.4-.4h.1l3.1.4c.1 0 .3.1.3.2s.1.2.1.3c-.3 1.2-.6 2.4-.9 3.5h6.3c.3 0 .4.1.4.4v2.9c0 .3-.1.4-.4.4h-.8c-.2 5.2-1.2 9.3-2.9 12.3.6.9 1.3 1.7 2 2.4s1.5 1.3 2.4 1.9c.1.1.2.2.2.3s0 .2-.1.3l-1.9 3c-.1.1-.2.2-.3.2s-.1 0-.3-.1c-1.7-1.2-3.1-2.7-4.3-4.5-1.5 1.9-3.2 3.5-5.1 4.6 0 .3-.1.3-.2.3q-.15 0-.3-.3l-1.4-2.3-1.2 1.9c-.1.1-.2.2-.4.2l-.3-.1c-1.5-.9-2.5-1.4-3.1-1.7-2.2 1.3-5.1 2.1-8.9 2.3-.3 0-.4-.1-.5-.3l-.9-2.6v-.2c0-.2.1-.3.4-.3 2.7 0 4.8-.1 6.3-.6-1.2-.4-2.6-.7-4.3-1.1q-.3 0-.3-.3c0-.1 0-.2.1-.3.3-.4.5-1 .9-1.7h-2.9c-.3 0-.4-.1-.4-.4v-2c0-.3.1-.4.4-.4h4.4c.2-.4.4-.8.6-1.3h-4.2c-.2.2-.3.1-.3-.2m3.2-3v1.4h3.1v-1.4zm.4-10.1v1.3h2.7v-1.3zm0 3.4V56h2.7v-1.5h-2.7zm5.4 15.9c.5-.6.9-1.2 1.1-1.9h-3.7l-.6 1.1c.9.2 1.9.4 3.2.8m5.9-5.8h-6.5l-.5 1.3h7.9c.1 0 .2 0 .3.1s.1.2.1.3v1.9c0 .1 0 .3-.1.3-.1.1-.2.1-.3.1h-2.3c-.3.8-.7 1.7-1.4 2.7.9.3 1.6.6 2 .8l.2-.2c1-.5 2-1.2 2.9-1.9s1.7-1.6 2.3-2.5c-.9-1.8-1.6-4-2.2-6.7l-.6 1.3c-.1.1-.2.2-.3.2s-.2-.1-.3-.2l-.8-1.1v3.1c0 .4-.1.5-.4.5m-5.8-13.5v1.3h2.7v-1.3zm0 3.4V56h2.7v-1.5h-2.7zm0 6.7v1.4h3.1v-1.4zm10.8-5.4c.3 3.2.9 6 1.8 8.3.9-2 1.4-4.9 1.5-8.6h-3.1zM86.9 67.3l-.9-2.4c0-.1-.1-.1-.1-.2 0-.2.1-.3.4-.3.7 0 1.3 0 1.8-.1s.8-.2 1-.4.2-.5.2-.9v-6.8c0-.3.1-.4.4-.4h2.4c-1.6-.5-3.3-1.2-5.1-2v.9c0 .3-.1.4-.4.4H76c-.3 0-.4-.1-.4-.4v-.9c-2.5 1.2-5 2.1-7.3 2.7H68c-.2 0-.3-.1-.4-.3l-1.2-3V53q0-.3.3-.3c2.4-.5 4.7-1.1 6.8-2s3.9-1.9 5.3-3c.1-.1.3-.2.5-.2h3.3c.2 0 .4.1.5.2q2.25 1.65 5.4 3c2.1.9 4.4 1.5 6.8 1.9q.3 0 .3.3v.2l-1.2 3c-.1.2-.2.3-.4.3h-.1c-.1 0-.5-.1-.9-.2v7.6c0 1-.2 1.8-.5 2.3-.3.6-.9 1-1.7 1.3s-2 .4-3.4.4c-.2-.2-.4-.3-.5-.5M70 75.5l-2.9-1.1q-.3-.15-.3-.3c0-.1 0-.2.1-.3.5-.7.9-1.5 1.3-2.5s.7-2 1-2.9c.1-.3.2-.4.5-.3l2.8.7c.1 0 .3.1.3.2q.15.15 0 .3c-.3 1-.6 2.1-1 3.2-.4 1.2-.9 2.1-1.3 2.8-.1.1-.2.2-.3.2zm12.8-3.7c-.1 0-.1-.1-.1-.1-1.1-1.1-2.2-2-3.5-2.8q-.3-.15-.3-.3c0-.1.1-.2.2-.3l1.1-1.1c-.8.3-2.1.4-3.7.4-.3 0-.4-.1-.5-.4l-.5-1.4v-.2c0-.2.1-.3.4-.3 1 0 1.8 0 2.2-.1q.6-.15.6-.9h-6.1c-.2 1.3-.6 2.4-1 3.2 0 .1-.1.1-.2.2h-.3l-2.6-1.1c-.3-.1-.3-.3-.2-.6.5-.9.8-1.9.9-2.9s.2-2.2.2-3.4v-3.1c0-.3.1-.4.4-.4h11.8c.3 0 .4.1.4.4V64c0 .7 0 1.2-.1 1.5s-.3.7-.6 1c.6.3 1.2.7 1.9 1.2s1.2 1 1.7 1.5c.1.1.2.2.2.3s-.1.2-.2.3l-1.6 1.8c-.1.1-.2.2-.3.2-.1.1-.1.1-.2 0m-4.2-9.3v-1.2h-5.8c0 .3 0 .7-.1 1.2zm0-3v-1.2h-5.8v1.2zm-1 16.3c-1.4 0-2.3-.4-2.9-.9-.6-.6-.9-1.5-.9-2.8V69c0-.3.1-.4.4-.4h3.1c.3 0 .4.1.4.4v2c0 .5.1.9.3 1.1s.5.4 1.1.4l2.6.1 2.6-.1c.5 0 .9-.1 1.1-.3s.4-.5.6-.9c.1-.4.2-1 .3-1.7 0-.1.1-.3.2-.3.1-.1.2-.1.4 0l2.6 1.2c.2.1.3.3.3.5-.2 1.3-.5 2.3-.9 2.9-.4.7-.9 1.1-1.6 1.4-.7.2-1.7.4-2.9.4-.7 0-1.7.1-3.3.1zm7.1-23.3c-1.4-.8-2.5-1.5-3.5-2.3-.9.7-2.1 1.5-3.5 2.3zm-.9 10.7V57c0-.3.1-.4.4-.4h2.6c.3 0 .4.1.4.4v6.2c0 .3-.1.4-.4.4h-2.6c-.2 0-.4-.2-.4-.4m8.1 11.4c-.4-1-.8-2-1.3-3s-1.1-1.8-1.7-2.4c-.1-.1-.1-.2-.1-.3q0-.15.3-.3l2.4-.9c.1 0 .2-.1.3-.1s.3.1.3.2c.5.5 1.1 1.3 1.7 2.3s1.2 2 1.6 3v.2q0 .3-.3.3l-2.6 1.2h-.2c-.2.1-.3 0-.4-.2M128 49.7v2.4c0 .3-.1.4-.4.4h-26.7c-.3 0-.4-.1-.4-.4v-2.4c0-.3.1-.4.4-.4h11.5c-.3-.5-.6-.9-.9-1.3 0-.1-.1-.1-.1-.2 0-.2.1-.3.4-.4l3.3-.3h.1c.2 0 .4.1.5.3q.45.6.9 1.8h11c.3 0 .4.2.4.5m-23.6 26.4h-2.9c-.3 0-.4-.1-.4-.4V62.8c0-.3.1-.4.4-.4H127c.3 0 .4.1.4.4v8.6q0 1.8-.6 2.7c-.4.7-1 1.1-1.9 1.4s-2 .5-3.4.5h-.4q-.45 0-.6-.3l-.9-1.8h-12c-.3 0-.4-.1-.4-.4v-6.2c0-.3.1-.4.4-.4h12.8c.3 0 .4.1.4.4v5.4c.8 0 1.4-.1 1.8-.2s.6-.3.7-.5.1-.5.1-.9v-5.6h-18.8v10.3c.2.1 0 .3-.2.3m-.2-22.3h20c.3 0 .4.1.4.4v6.3c0 .3-.1.4-.4.4h-20c-.3 0-.4-.1-.4-.4v-6.3c0-.3.1-.4.4-.4m16.5 2.6h-13v2h13zm-9.9 13v2h6.6v-2zM134 75.6l-1.1-2.8v-.2c0-.2.1-.3.4-.3 5.7-.2 9.3-1.2 10.7-3.1l-10.1.1c-.3 0-.4-.1-.4-.4v-2.3c0-.3.1-.4.4-.4H145c.1-.6.1-1.3.1-2 0-.3.1-.5.4-.5h3.3c.3 0 .4.1.4.4v1c0 .3-.1.7-.1 1h4.7c-.4-.6-.9-1.2-1.4-1.7-.1-.1-.2-.2-.2-.3s.1-.1.2-.2.2-.1.3-.2l-.6-1.3-2 1.2c-.1.1-.2.1-.3.1s-.3-.1-.3-.2c-.7-.9-1.6-1.7-2.6-2.4-.1-.1-.2-.2-.2-.3s.1-.2.2-.3l1.8-.9h-3.1c-.3 0-.4-.1-.4-.4v-1.7c0-.3.1-.4.4-.4h.4l-.2-.2-1-1.6-.1-.3c0-.2.1-.3.4-.3 1.3-.1 2.3-.2 2.9-.3-.3-.4-.6-.7-.8-.9-.1-.1-.2-.3-.2-.3q0-.15.3-.3l1.4-.5c.1 0 .2 0 .2-.1.1 0 .2.1.3.2.5.4.9.8 1.3 1.4.5-.1 1-.2 1.4-.4-.3-.3-.7-.7-1.2-1.1-.1-.1-.2-.3-.2-.3q0-.15.3-.3l1.5-.6h.3c.1 0 .2 0 .3.1.5.4 1 .8 1.4 1.3 1-.5 1.9-1.1 2.5-1.7h-5.9c-1.4.6-3 1.1-4.7 1.5h-.2c-.2 0-.3-.1-.4-.3l-1.1-1.7c-.1-.1-.1-.2-.1-.3 0-.2.1-.3.4-.3 1.5-.2 2.8-.5 4-.9q1.8-.6 2.7-1.5c.1-.1.2-.2.4-.2h.2l2.7.5q.3 0 .3.3c0 .1-.1.2-.2.3l-.4.3h5.6c.3 0 .4.1.4.4v1.4c0 .2 0 .3-.1.5-1.1 1.5-2.8 2.8-5.2 3.9s-5.2 1.8-8.5 2.2h8.1v-1.4c0-.3.1-.4.4-.4h2.9c.3 0 .4.1.4.4V57h2c.3 0 .4.1.4.4v1.7c0 .3-.1.4-.4.4h-2v1c0 1.1-.2 2-.5 2.5-.4.5-1.1.9-2.1 1.1.4.4.8 1 1.2 1.9h3.2c.3 0 .4.1.4.4v2.3c0 .3-.1.4-.4.4l-10.5-.1q1.65 1.35 4.5 2.1c1.9.5 4.1.8 6.5.8.3 0 .4.1.4.3v.2l-1.1 2.8c-.1.2-.3.3-.5.3-6-.4-10.3-2-12.8-4.9-2.1 2.7-6.3 4.4-12.7 4.9h-.1c.3.4.1.3 0 .1m2.1-10.6-2.6-1.2q-.3-.15-.3-.3c0-.1 0-.1.1-.2l.1-.1c1-.9 1.6-2.3 1.8-3.9h-1.4c-.3 0-.4-.1-.4-.4v-2.2c0-.3.1-.4.4-.4h6.7v-1.6h-5.4c-.3 0-.4-.1-.4-.4v-5.8c0-.3.1-.4.4-.4h2.6c.3 0 .4.1.4.4v3.1h2.3v-3.7c0-.3.1-.4.4-.4h2.9c.3 0 .4.1.4.4v16.6c0 .3-.1.4-.4.4h-2.9c-.3 0-.4-.1-.4-.4v-5.1h-1.6q-.3 3.6-2.1 5.7c-.1.1-.2.2-.3.2-.2-.2-.3-.2-.3-.3m16.5-3.2c1.1 0 1.8-.1 2.2-.4.3-.2.5-.6.5-1.2v-.5h-5.9c1 .5 1.9 1.2 2.8 2.1zM186.1 67.3l-.9-2.3c0-.1-.1-.1-.1-.2 0-.2.1-.3.4-.3.7 0 1.3 0 1.8-.1s.8-.2 1-.4.2-.5.2-.9v-6.8c0-.3.1-.4.4-.4h2.4c-1.6-.5-3.3-1.2-5.1-2v.9c0 .3-.1.4-.4.4h-10.7c-.3 0-.4-.1-.4-.4v-.9c-2.5 1.2-5 2.1-7.3 2.7h-.2c-.2 0-.3-.1-.4-.3l-1.2-3v-.2q0-.3.3-.3c2.4-.5 4.7-1.1 6.8-2s3.9-1.9 5.3-3c.1-.1.3-.2.5-.2h3.3c.2 0 .4.1.5.2q2.25 1.65 5.4 3c2.1.9 4.4 1.5 6.8 1.9q.3 0 .3.3v.2l-1.2 3c-.1.2-.2.3-.4.3h-.1c-.1 0-.5-.1-.9-.2v7.6c0 1-.2 1.8-.5 2.3-.3.6-.9 1-1.7 1.3s-2 .4-3.4.4c-.2-.3-.4-.4-.5-.6m-16.9 8.2-2.9-1.1q-.3-.15-.3-.3c0-.1 0-.2.1-.3.5-.7.9-1.5 1.3-2.5s.7-2 1-2.9c.1-.3.2-.4.5-.3l2.8.7c.1 0 .3.1.3.2q.15.15 0 .3c-.3 1-.6 2.1-1 3.2-.4 1.2-.9 2.1-1.3 2.8-.1.1-.2.2-.3.2zm12.8-3.7c-.1 0-.1-.1-.1-.1-1.1-1.1-2.2-2-3.5-2.8q-.3-.15-.3-.3c0-.1.1-.2.2-.3l1.1-1.1c-.8.3-2.1.4-3.7.4-.3 0-.4-.1-.5-.4l-.5-1.4v-.2c0-.2.1-.3.4-.3 1 0 1.8 0 2.2-.1q.6-.15.6-.9h-6.1c-.2 1.3-.6 2.4-1 3.2 0 .1-.1.1-.2.2h-.3l-2.6-1.1c-.3-.1-.3-.3-.2-.6.5-.9.8-1.9.9-2.9s.2-2.2.2-3.4v-3.1c0-.3.1-.4.4-.4h11.8c.3 0 .4.1.4.4V64c0 .7 0 1.2-.1 1.5s-.3.7-.6 1c.6.3 1.2.7 1.9 1.2s1.2 1 1.7 1.5c.1.1.2.2.2.3s-.1.2-.2.3l-1.6 1.8c-.1.1-.2.2-.3.2 0 .1-.1.1-.2 0m-4.2-9.3v-1.2H172c0 .3 0 .7-.1 1.2zm0-3v-1.2H172v1.2zm-1 16.3c-1.4 0-2.3-.4-2.9-.9-.6-.6-.9-1.5-.9-2.8V69c0-.3.1-.4.4-.4h3.1c.3 0 .4.1.4.4v2c0 .5.1.9.3 1.1s.5.4 1.1.4l2.6.1 2.6-.1c.5 0 .9-.1 1.1-.3s.4-.5.6-.9c.1-.4.2-1 .3-1.7 0-.1.1-.3.2-.3.1-.1.2-.1.4 0l2.6 1.2c.2.1.3.3.3.5-.2 1.3-.5 2.3-.9 2.9-.4.7-.9 1.1-1.6 1.4-.7.2-1.7.4-2.9.4-.7 0-1.7.1-3.3.1zm7.1-23.3c-1.4-.8-2.5-1.5-3.5-2.3-.9.7-2.1 1.5-3.5 2.3zm-.9 10.7V57c0-.3.1-.4.4-.4h2.6c.3 0 .4.1.4.4v6.2c0 .3-.1.4-.4.4h-2.6c-.2 0-.4-.2-.4-.4m8.1 11.4c-.4-1-.8-2-1.3-3s-1.1-1.8-1.7-2.4c-.1-.1-.1-.2-.1-.3q0-.15.3-.3l2.4-.9c.1 0 .2-.1.3-.1s.3.1.3.2c.5.5 1.1 1.3 1.7 2.3s1.2 2 1.6 3v.2q0 .3-.3.3l-2.6 1.2h-.2c-.2.1-.3 0-.4-.2M201.4 75.7l-2.3-3.3c-.1-.1-.1-.2-.1-.3s.1-.3.3-.3c3.1-1.2 5.7-3 7.7-5.4s3.3-5.1 3.9-8.2h-10.4c-.3 0-.4-.1-.4-.4v-3.2c0-.3.1-.4.4-.4h10.7v-6.4c0-.3.1-.4.4-.4h3.6c.3 0 .4.1.4.4v6.4h10.8c.3 0 .4.1.4.4v3.2c0 .3-.1.4-.4.4h-10.6c.8 3 2.2 5.7 4.3 8 2.1 2.4 4.5 4.2 7.4 5.4q.3.15.3.3c0 .1 0 .1-.1.3l-2.2 3.3c-.1.1-.2.2-.3.2s-.2 0-.3-.1c-2.5-1.2-4.7-2.9-6.7-4.9s-3.6-4.4-4.8-7c-1.1 2.6-2.7 4.9-4.7 7.1-2 2.1-4.3 3.8-6.8 4.9-.1 0-.2.1-.3.1 0 .1-.1.1-.2-.1M233.2 70.6c.5-.5 1.2-.8 2-.8s1.5.3 2 .8.8 1.1.8 1.9-.3 1.4-.8 1.9-1.2.8-2 .8-1.5-.3-2-.8-.8-1.2-.8-1.9.3-1.4.8-1.9m.1-3.8-.3-16.5c0-.1 0-.2.1-.3s.2-.1.3-.1h3.6c.1 0 .3 0 .3.1.1.1.1.2.1.3l-.3 16.5c0 .3-.1.4-.4.4h-2.9c-.3 0-.5-.1-.5-.4M17.4 122.9l-.9-1.3v.4c0 .3-.1.4-.4.4H3c-.3 0-.4-.1-.4-.4v-7c-.2.3-.4.5-.6.7-.1.1-.2.2-.3.2s-.3-.1-.3-.3L.1 113c0-.1 0-.2-.1-.2 0-.1.1-.3.2-.4.8-.6 1.5-1.4 2.2-2.3s1.1-1.8 1.4-2.8c.1-.3.3-.4.5-.3l2.6.6c.3.1.4.2.3.5l-.3.7h2.2c-.1-.3-.3-.5-.5-.8-.1-.1-.1-.2-.1-.3q0-.3.3-.3l2.1-.3h.3c.2 0 .4.1.5.3.2.3.4.7.7 1.4H16c.3 0 .4.1.4.4v1.5c0 .3-.1.4-.4.4h-3.5v1.4h2.9c.3 0 .4.1.4.4v1.3c0 .3-.1.4-.4.4h-2.9v1.2h2.9c.3 0 .4.1.4.4v1.3c0 .3-.1.4-.4.4h-2.9v1.5h3l.1-.1c1.7-1.4 3-3.4 3.8-5.9s1.2-5.3 1.2-8.3v-1.9c0-.3.1-.4.4-.4h2.5c.3 0 .4.1.4.4v3.4c.2 2.6.8 5 1.7 7.1s2.2 3.8 3.7 5.2c.1.1.2.2.2.3s0 .2-.1.3l-1.8 2.9q-.15.3-.3.3c-.1 0-.2-.1-.3-.2-1-1-2-2.3-2.8-3.7s-1.4-2.9-1.9-4.5c-.4 1.6-1 3.2-1.8 4.7s-1.7 2.7-2.8 3.7c-.1.1-.2.1-.3.1.2.3.1.2 0 .1M.9 98.5v-1.9c0-.3.1-.4.4-.4h3.3V95c0-.3.1-.4.4-.4h2.7c.3 0 .4.1.4.4v4.8c0 .3-.1.4-.4.4H5c-.3 0-.4-.1-.4-.4V99H1.3c-.3-.1-.4-.2-.4-.5m.6 8v-5.4c0-.3.1-.4.4-.4H8c.3 0 .4.1.4.4v5.4c0 .3-.1.4-.4.4H2c-.3 0-.5-.1-.5-.4m4.5-1.7v-2H4v2zm3.4 7.8v-1.4H6.1v1.4zm0 3.4v-1.2H6.1v1.2zm0 3.8v-1.5H6.1v1.5zm.1-13.3v-5.4c0-.3.1-.4.4-.4h6c.3 0 .4.1.4.4v3.3c.7-1.3 1.2-2.9 1.6-4.7s.7-3.4.8-4.7c0-.3.2-.4.5-.4l2.7.3c.3 0 .4.3.3.6-.1.8-.2 1.6-.4 2.5h7c.3 0 .4.2.4.5-.1 2.2-.2 4.1-.4 6-.2 1.8-.5 3.4-1 4.9q-.15.45-.6.3l-2.5-.8q-.45-.15-.3-.6c.3-.9.6-2 .8-3.3q.3-1.95.3-3.6H21c-.7 2.4-1.5 4.6-2.4 6.4q-.15.3-.3.3c-.1 0-.1 0-.3-.1l-1.9-1.2c0 .1-.1.1-.2.2s-.2.1-.2.1h-6c0-.2-.2-.3-.2-.6m.3-6.7V95c0-.3.1-.4.4-.4h2.7c.3 0 .4.1.4.4v1.1h3.2c.3 0 .4.1.4.4v1.9c0 .3-.1.4-.4.4h-3.2v.8c0 .3-.1.4-.4.4h-2.7c-.3.2-.4 0-.4-.2m4.2 5v-2h-2v2zM33.6 119.8c1.3-1.1 2.5-2.3 3.4-3.5s1.5-2.5 1.8-3.7h-3.7c-.3 0-.4-.1-.4-.4V110c0-.3.1-.5.2-.6.9-1 1.9-2.2 2.8-3.5h-3.1c-.1 0-.2 0-.3-.1s-.1-.2-.1-.3v-2.6c0-.1 0-.2.1-.3s.2-.1.3-.1h7c.2 0 .3 0 .4.1s.1.2.1.3v2.1c0 .2 0 .3-.1.5-.1.3-.4.8-.9 1.6s-1.1 1.6-1.7 2.5h2.8c.3 0 .4.2.4.5v1.3c0 .2 0 .5-.1.9-.2 1.4-.6 2.9-1.3 4.5.2.2.4.3.5.5.2.1.3.2.4.3 1.1.8 2.7 1.2 4.7 1.5.9.1 1.9.2 2.9.2h2c4 0 7.2-.2 9.8-.6l.9-.1h.1q.3 0 .3.3v.2L62 122c-.1.2-.3.4-.6.4-2.5.3-5.6.4-9.5.4-2.4 0-4.3-.1-5.6-.2-1.1-.1-2.1-.3-2.8-.4s-1.4-.4-2-.8c-.8-.4-1.5-.9-2.2-1.6-.8 1.1-1.6 2-2.5 2.8-.1.1-.3.2-.4.2s-.2 0-.3-.1l-2.5-2.1c-.1-.1-.2-.2-.2-.3s.2-.4.2-.5m1.1-23.3 2.4-1.7c.1-.1.2-.1.3-.1s.2 0 .3.1c.6.5 1.2 1.2 1.9 1.9s1.2 1.5 1.7 2.3c.1.1.1.2.1.3s-.1.3-.2.4l-2.4 1.7c-.1.1-.1.1-.2.1s-.2-.1-.3-.2c-.6-.8-1.1-1.5-1.7-2.1-.5-.6-1.2-1.2-2-1.9-.1-.1-.2-.2-.2-.3.1-.3.2-.4.3-.5m9.1-.1c1-.1 2.1-.3 3.1-.6s1.8-.6 2.5-.9c.1 0 .2-.1.2-.1s.1 0 .2.1c.1 0 .1.1.2.2l1.3 2.6.1.3c0 .1-.1.3-.2.3-1 .7-2.3 1.1-3.8 1.4v10.4c0 .2 0 .4.1.4.1.1.2.1.3.1.5-.1 1.3-.3 2.4-.8.1 0 .2 0 .2-.1.2 0 .3.1.3.4v3c0 .3-.1.4-.3.5-1.4.6-2.9 1-4.2 1.2h-.7c-.8 0-1.3-.3-1.6-.7s-.4-1.1-.4-2V96.9c-.1-.3 0-.4.3-.5m7.6 20.7V96.3c0-.3.1-.4.4-.4h9.4c.3 0 .4.1.4.4v13.5c0 1.2-.1 2.2-.4 2.8-.3.7-.7 1.1-1.3 1.4s-1.5.4-2.7.4h-.4c-.3 0-.4-.1-.5-.4l-.8-3v-.2c0-.2.2-.3.5-.3.6 0 1 0 1.3-.1s.5-.2.6-.5.2-.7.2-1.2v-9.3h-2.9v17.7c0 .3-.1.4-.4.4h-2.9c-.3 0-.5-.1-.5-.4M67.2 101v-2.8c0-.3.1-.4.4-.4h11.5V95c0-.3.1-.4.4-.4h3.2c.3 0 .4.1.4.4v2.7h11.4c.3 0 .4.1.4.4v2.8c0 .3-.1.4-.4.4H83.2v8.5c1.5 1.9 3.3 3.5 5.4 4.9s4.3 2.4 6.8 3.1q.3.15.3.3c0 .1 0 .2-.1.3l-1.8 3.3c-.1.3-.3.3-.6.2-1.9-.8-3.8-1.9-5.5-3.2-1.8-1.3-3.3-2.7-4.6-4.2l.1 8.3c0 .3-.1.4-.4.4h-3.2c-.3 0-.4-.1-.4-.4l.1-8.1c-1.2 1.5-2.8 2.9-4.6 4.3-1.8 1.3-3.6 2.4-5.5 3.1H69c-.1 0-.3-.1-.4-.3l-1.9-3c-.1-.1-.1-.2-.1-.3q0-.15.3-.3c2.6-.8 4.9-1.9 6.9-3.4 2.1-1.4 3.8-3.1 5.3-5.1v-8.4H67.6c-.3.1-.4 0-.4-.3m3 11.5c-.1.1-.2.1-.3.1s-.2 0-.3-.1l-2.2-1.9c-.1-.1-.2-.2-.2-.3s.1-.3.2-.3c1-.9 2-2 2.7-3.3.8-1.3 1.2-2.6 1.5-3.9.1-.3.2-.4.5-.4l2.7.5c.3.1.4.2.3.5-.1.5-.3 1.1-.5 1.9.4.6 1 1.2 1.7 1.8s1.3 1 2 1.3q.3.15.3.3c0 .1 0 .2-.1.3l-1.6 2.2c-.1.1-.2.2-.3.2s-.2 0-.3-.1q-1.65-1.2-3-3c-1 1.7-2 3.1-3.1 4.2m16.8-.9c-.1.1-.2.1-.3.1s-.2-.1-.3-.2l-2.1-1.9c-.1-.1-.2-.2-.2-.3s.1-.2.2-.3c.9-.7 1.7-1.7 2.3-2.8q.9-1.65 1.2-3.6c0-.1.1-.3.2-.3.1-.1.2-.1.3-.1l2.6.4c.3.1.4.2.4.5q-.15 1.05-.6 2.1c.5.7 1.1 1.4 1.8 2 .7.7 1.4 1.2 2.2 1.6.1.1.2.2.2.3s0 .2-.1.3l-1.8 2.4c-.1.1-.2.2-.3.2 0 0-.1 0-.3-.1-.5-.4-1.1-.9-1.6-1.6-.6-.6-1.1-1.3-1.5-1.9-.8 1.5-1.5 2.4-2.3 3.2M100.2 122.1l-.4-2.9v-.2c0-.3.1-.4.4-.4 1.5 0 3.7-.1 6.4-.3v-3.8h-5.3c-.3 0-.4-.1-.4-.4v-2.6c0-.3.1-.4.4-.4h5.3V108l-5 .2c-.3 0-.4-.1-.5-.4l-.4-2.4v-.2c0-.2.1-.4.4-.7.5-.5 1.1-1.3 1.7-2.4.7-1.2 1.1-2.1 1.3-2.9H101c-.3 0-.4-.1-.4-.4v-2.7c0-.3.1-.4.4-.4h15.3c.3 0 .4.1.4.4v2.7c0 .3-.1.4-.4.4h-7.9c-.4.9-.8 1.8-1.4 2.8-.5 1-1.1 1.8-1.7 2.6 3-.1 5.2-.3 6.5-.5-.5-.9-1-1.7-1.4-2.4-.1-.1-.1-.2-.1-.3q0-.3.3-.3l2.4-.9h.2c.2 0 .3.1.4.2.7 1 1.4 2.1 2.1 3.4s1.2 2.5 1.5 3.5v.2c0 .1-.1.3-.3.4l-2.6 1.2c-.1 0-.1 0-.2.1q-.3 0-.3-.3c-.1-.5-.3-1.1-.5-1.6-.7.1-1.6.2-2.8.3v3.4h5.3c.3 0 .4.1.4.4v2.6c0 .3-.1.4-.4.4h-5.3v3.4c2-.2 4-.5 6.1-.9h.1c.2 0 .3.1.3.4v2.7c0 .3-.1.4-.4.5-2.1.4-4.7.7-7.6 1s-5.7.5-8.3.6c-.3.4-.5.2-.5 0m18-6.6V97c0-.3.1-.4.4-.4h2.8c.3 0 .4.1.4.4v18.5c0 .3-.1.4-.4.4h-2.8c-.3 0-.4-.1-.4-.4m2.2 7.4-1.2-3v-.2q0-.3.3-.3h1.5c1.2 0 2-.1 2.3-.4.4-.3.6-.8.6-1.4V95c0-.3.1-.4.4-.4h2.9c.3 0 .4.1.4.4v23.4c0 1.3-.2 2.3-.5 3s-.9 1.2-1.7 1.5-2.1.4-3.8.4h-.9c-.1 0-.3-.1-.3-.4M143.2 123.1q0 .3-.3.3l-2.7 1.1c-.1.1-.2.1-.3.1q-.15 0-.3-.3l-5.5-15c-.1-.2-.1-.3-.1-.5 0-.1 0-.3.1-.4l5.5-15.1q.15-.3.3-.3c.1 0 .2 0 .3.1l2.7 1.1q.3.15.3.3c0 .1 0 .2-.1.4L138 109l5.1 13.8c.1.1.1.3.1.3m6.1 0q0 .3-.3.3l-2.7 1.1c-.1.1-.2.1-.3.1q-.15 0-.3-.3l-5.5-15c-.1-.2-.1-.3-.1-.5 0-.1 0-.3.1-.4l5.5-15.1q.15-.3.3-.3c.1 0 .2 0 .3.1l2.7 1.1q.3.15.3.3c0 .1 0 .2-.1.4L144 109l5.1 13.8c.1.1.2.3.2.3M155.2 121.9V119c0-.3.1-.4.4-.4H167v-3.7h-7.9c-.3 0-.4-.1-.4-.4v-2.7c0-.3.1-.4.4-.4h7.9v-3.3h-7.7c-.3 0-.4-.1-.4-.4v-1.4l-2.4 1.1h-.2c-.2 0-.3-.1-.4-.3l-1.3-3.4c0-.1-.1-.1-.1-.2s.1-.3.3-.4c2-.6 3.9-1.2 5.5-2 1.6-.7 3.1-1.6 4.4-2.7h-5.5c-.3 0-.4-.1-.4-.4v-2.8c0-.3.1-.4.4-.4h11.4c.2 0 .3.1.5.2 1.5 1.9 3.2 3.5 5.2 4.8s4.3 2.3 6.8 3.1c.2.1.3.1.3.3v.3l-1.2 3.4c-.1.2-.2.3-.4.3h-.2c-.9-.4-1.8-.8-2.6-1.2v1.7c0 .3-.1.4-.4.4H171v3.3h7.9c.3 0 .4.1.4.4v2.7c0 .3-.1.4-.4.4H171v3.7h11.4c.3 0 .4.1.4.4v2.9c0 .3-.1.4-.4.4h-26.9c-.2 0-.3-.1-.3-.4m21.1-17.7c-3.4-1.8-5.7-3.5-7.1-5.2-1.2 1.7-3.4 3.4-6.6 5.2zM191.8 122.8c-1.7-.3-2.6-1.3-2.6-3.1V95.9c0-.3.1-.4.4-.4H214c.3 0 .4.1.4.4v9.4c0 .3-.1.4-.4.4h-8.7c.1 1.1.2 2.1.3 3.2h9.9c.3 0 .4.1.4.4v2.8c0 .3-.1.4-.4.4h-9c.7 2.2 1.8 4 3.1 5.3.6.5 1.2.8 1.9.8.5 0 1-.3 1.3-1s.6-1.7.8-3q.15-.3.3-.3c.1 0 .2 0 .3.1l2.4 2.3c.1.1.2.3.2.4s0 .3-.1.5c-.4 1.8-1 3.2-1.9 4.1s-2 1.3-3.2 1.3c-1.1 0-2.2-.4-3.3-1.1s-2.1-1.6-2.9-2.7c-.7-.9-1.3-1.9-1.9-3.1s-1-2.4-1.3-3.6h-8.8v5.2c0 .3.1.6.2.7.2.1.5.2.9.2.5 0 1.4-.1 2.5-.2 1.4-.1 2.9-.4 4.5-.8h.2c.2 0 .3.1.3.4v3.1q0 .45-.3.6c-1.1.3-2.4.6-4 .8s-3.1.3-4.6.3zm18.5-20.4v-3.5h-16.8v3.5zm-8.7 6.6c-.2-1.1-.4-2.2-.4-3.2h-7.6v3.2zM221.5 110.3v-3.4c0-.3.1-.4.4-.4h26.4c.3 0 .4.1.4.4v3.4c0 .3-.1.4-.4.4H222c-.3 0-.5-.1-.5-.4M253.4 121.6v-.2c.6-1.5 1.1-3.3 1.4-5.5.3-2.1.4-4.3.4-6.3 0-.1 0-.3.1-.3.1-.1.2-.1.3-.1l2.6.2c.3 0 .4.2.4.4 0 1.4-.1 2.9-.2 4.4.4.8 1 1.5 1.7 2.1v-8.9h-5.4c-.3 0-.4-.1-.4-.4v-2.8c0-.3.1-.4.4-.4h5.1V101h-4.1c-.3 0-.4-.1-.4-.4v-2.7c0-.3.1-.4.4-.4h4.1V95c0-.3.1-.4.4-.4h2.8c.3 0 .4.1.4.4v2.3h3.6c.3 0 .4.1.4.4v2.7c0 .3-.1.4-.4.4h-3.6v2.8h4.3c.3 0 .4.1.4.4v2.8c0 .3-.1.4-.4.4h-4v3.1h3.5c.3 0 .4.1.4.4v2.7c0 .3-.1.4-.4.4h-3.5v4c1.2.3 2.4.5 3.8.6 1.6.1 3.6.2 5.8.2 3 0 6-.1 9.1-.4h.1c.3 0 .4.1.4.3v.2l-.9 3.3c-.1.2-.2.3-.5.4-2.4.2-5 .3-7.7.3-2.6 0-4.7-.1-6.4-.2-2.2-.2-4.1-.6-5.6-1.2s-2.8-1.6-3.9-2.9c-.2 1.5-.6 3-1 4.5-.1.2-.2.3-.4.3 0 0-.1 0-.2-.1l-2.8-1.1c0-.1-.1-.2-.1-.4m19.7-4.7q-1.8 0-2.7-.9c-.6-.5-.9-1.5-.9-2.8v-17c0-.3.1-.4.4-.4h11c.3 0 .4.1.4.4v10.6c0 .3-.1.4-.4.4h-7.7v4.9c0 .4.1.7.2.9s.4.2.8.3h2.8c.5 0 .9-.1 1.1-.4.3-.3.4-.7.6-1.2q.15-.75.3-2.4c0-.4.2-.5.5-.4l2.7 1c.2.1.3.1.3.3v.3c-.1 1.8-.4 3.2-.7 4q-.45 1.35-1.5 1.8c-.7.3-1.6.5-2.9.6h-4.3m4.5-13.1v-4.3h-4.4v4.3zM298.1 121.1c-.1 0-.2-.1-.3-.2-.8-.9-1.8-1.9-2.9-3-.7.9-1.5 1.9-2.5 2.8q-1.35 1.35-3 2.4c-.1.1-.2.1-.3.1s-.2-.1-.3-.2l-2-2.8c-.1-.1-.1-.2-.1-.3q0-.15.3-.3c1-.5 1.9-1.1 2.8-1.8s1.7-1.5 2.3-2.3c-1.2-1-2.5-2-4-2.9-.2-.1-.3-.3-.2-.6.7-2.6 1.3-5.6 1.7-9h-1.9c-.3 0-.4-.1-.4-.4v-2.9c0-.3.1-.4.4-.4h2.3c.1-1.8.2-3.2.2-4.2 0-.3.1-.4.4-.4h3c.3 0 .4.1.4.4l-.3 4.2h5.3c.3 0 .4.1.4.4 0 3.3-.2 6.1-.6 8.5-.3 2.4-1 4.5-1.8 6.5 1.2 1 2.2 2 3.1 3 .1.1.2.2.2.3s0 .2-.1.3l-1.9 2.7s-.1.1-.2.1m-4-8.9q.75-1.8 1.2-4.2c.3-1.6.4-3.3.5-5h-2.5c-.5 3.4-.9 6-1.4 7.6.5.4 1.3.9 2.2 1.6m6.2-5.1h6v-3.5c0-.2.1-.4.3-.5.7-.5 1.4-1 2-1.6q.9-.9 1.5-1.8h-8.9c-.3 0-.4-.1-.4-.4v-3.1c0-.3.1-.4.4-.4h13.2c.3 0 .4.1.4.4v3c0 .2 0 .4-.1.5-.5.8-1.1 1.6-1.8 2.5-.8.9-1.6 1.7-2.5 2.5v2.5h5c.3 0 .4.1.4.4v3.1c0 .3-.1.4-.4.4h-5v7c0 1.4-.2 2.4-.5 3.2-.3.7-.9 1.2-1.9 1.6-.9.3-2.3.5-4.1.5h-.9c-.3 0-.4-.1-.5-.3l-1.1-3.1v-.2c0-.1 0-.2.1-.2q.15-.15.3 0h1.6c.9 0 1.6-.1 2-.2s.7-.3.8-.6.2-.7.2-1.3V111h-6c-.3 0-.4-.1-.4-.4v-3.1c-.1-.3 0-.4.3-.4M331.1 121.1c-.1 0-.2-.1-.3-.2-.8-.9-1.8-1.9-2.9-3-.7.9-1.5 1.9-2.5 2.8q-1.35 1.35-3 2.4c-.1.1-.2.1-.3.1s-.2-.1-.3-.2l-2-2.8c-.1-.1-.1-.2-.1-.3q0-.15.3-.3c1-.5 1.9-1.1 2.8-1.8s1.7-1.5 2.3-2.3c-1.2-1-2.5-2-4-2.9-.2-.1-.3-.3-.2-.6.7-2.6 1.3-5.6 1.7-9h-1.9c-.3 0-.4-.1-.4-.4v-2.9c0-.3.1-.4.4-.4h2.3c.1-1.8.2-3.2.2-4.2 0-.3.1-.4.4-.4h3c.3 0 .4.1.4.4l-.3 4.2h5.3c.3 0 .4.1.4.4 0 3.3-.2 6.1-.6 8.5-.3 2.4-1 4.5-1.8 6.5 1.2 1 2.2 2 3.2 3 .1.1.2.2.2.3s0 .2-.1.3l-1.9 2.7s-.1.1-.3.1m-4-8.9q.75-1.8 1.2-4.2c.3-1.6.4-3.3.5-5h-2.5c-.5 3.4-.9 6-1.4 7.6.6.4 1.4.9 2.2 1.6m6.3-5.1h6v-3.5c0-.2.1-.4.3-.5.7-.5 1.4-1 2-1.6q.9-.9 1.5-1.8h-8.9c-.3 0-.4-.1-.4-.4v-3.1c0-.3.1-.4.4-.4h13.2c.3 0 .4.1.4.4v3c0 .2 0 .4-.1.5-.5.8-1.1 1.6-1.8 2.5-.8.9-1.6 1.7-2.5 2.5v2.5h5c.3 0 .4.1.4.4v3.1c0 .3-.1.4-.4.4h-5v7c0 1.4-.2 2.4-.5 3.2-.3.7-.9 1.2-1.9 1.6-.9.3-2.3.5-4.1.5h-.9c-.3 0-.4-.1-.5-.3l-1.1-3.1v-.2c0-.1 0-.2.1-.2q.15-.15.3 0h1.6c.9 0 1.6-.1 2-.2s.7-.3.8-.6.2-.7.2-1.3V111h-6c-.3 0-.4-.1-.4-.4v-3.1c-.2-.3 0-.4.3-.4M366.2 121.3c-.8-.8-1.2-1.7-1.2-2.9 0-.7.2-1.4.5-2.1s.8-1.4 1.3-2c.9-.9 2-2.1 3.4-3.4s2.7-2.4 3.7-3.2h-6.8c-.3 0-.4-.1-.4-.4v-2.1l-.6.6-.6.6c-.1.1-.2.1-.3.1s-.2-.1-.3-.2l-1.2-1.7v14.2c0 .3-.1.4-.4.4h-8.9c-.3 0-.4-.1-.4-.4V96.4c0-.3.1-.4.4-.4h8.9c.3 0 .4.1.4.4v6.1c1.1-1 2-2.2 2.8-3.5s1.4-2.7 1.8-4.1c.1-.2.2-.3.4-.3h.1l3 .5c.1 0 .2.1.3.2q.15.15 0 .3l-.7 2h9.8c.3 0 .4.1.4.4v2.8c0 .3-.1.4-.4.4h-11.7c-.6.9-1.2 1.8-1.8 2.6h12c.3 0 .4.1.4.4v2.6c0 .2-.1.4-.3.5-1.5 1.1-3.3 2.5-5.3 4.3-2.1 1.8-3.6 3.2-4.6 4.2-.5.6-.8 1.2-.8 1.6 0 .3.1.6.4.8q.45.3 1.2.3c.9.1 1.8.1 2.8.1.9 0 1.6 0 2.3-.1s1.1-.2 1.5-.5.6-.7.7-1.3c.2-.6.3-1.6.4-2.8 0-.2.1-.3.2-.4s.2-.1.4 0l2.9 1.2c.2.1.3.2.3.4v.1c-.1 1.7-.4 3.1-.7 4s-.9 1.7-1.6 2.1-1.8.8-3.1.8c-1.1.1-2.2.1-3.5.1-1.2 0-2.4 0-3.6-.1-1.5.4-2.7-.1-3.5-.8m-8.8-21.7v15.9h2.7V99.6zM386.1 100.8v-2.5c0-.3.2-.4.5-.4h3.7c-.3-.7-.6-1.4-.9-2-.1-.1-.1-.2-.1-.3 0-.2.1-.3.4-.3l2.6-.6c.1 0 .2 0 .3-.1.2 0 .4.1.5.3.3.7.7 1.7 1.1 3h3.4c.4 0 .5.1.5.4v2.5c0 .3-.2.4-.5.4h-11c-.3.1-.5-.1-.5-.4m.9 21.4v-9.1c0-.3.2-.4.5-.4h9.4c.3 0 .5.1.5.4v9.1c0 .3-.2.4-.5.4h-9.4c-.3.1-.5-.1-.5-.4m.4-16.5v-2.2c0-.3.2-.4.6-.4h8.8c.3 0 .5.1.5.4v2.2c0 .3-.2.4-.5.4H388c-.4 0-.6-.1-.6-.4m0 4.8v-2.2c0-.3.2-.4.6-.4h8.8c.3 0 .5.1.5.4v2.2c0 .3-.2.4-.5.4H388c-.4 0-.6-.1-.6-.4m6.5 8.9v-3.6h-3.1v3.6zm4.1-9.3v-2.5c0-.3.1-.4.4-.4h3l.7-2.9h-2.6c-.3 0-.4-.1-.4-.4v-2.5c0-.3.1-.4.4-.4h3.2l.4-2.1h-4c-.3 0-.4-.1-.4-.4V96c0-.3.1-.4.4-.4h14.7c.3 0 .4.1.4.4v2.5c0 .3-.1.4-.4.4h-6.9l-.4 2.1h6.4c.1 0 .3 0 .3.1.1.1.1.2.1.3l-.6 5.8h1.8c.3 0 .4.1.4.4v2.5c0 .3-.1.4-.4.4h-16.1c-.2 0-.4-.2-.4-.4m1.3 12.2v-9.5c0-.3.1-.4.4-.4h13.5c.3 0 .4.1.4.4v9.5c0 .3-.1.4-.4.4h-13.5c-.3 0-.4-.1-.4-.4m10.5-3v-3.7h-6.7v3.7zm-.7-12.2.4-2.9h-3.6l-.7 2.9zM422.2 122.3l-2.9-1.2q-.3-.15-.3-.3c0-.1 0-.2.1-.2q1.35-2.85 1.8-6c.3-2.1.6-5.1.7-9.1v-7.9c0-.3.1-.4.4-.4h14.9v-2c0-.3.1-.4.4-.4h2.9c.3 0 .4.1.4.4v2h2c-.3-.4-.6-.7-.8-.9-.1-.1-.2-.2-.2-.3s.1-.2.2-.3l1.8-1.1c.1-.1.2-.1.3-.1s.2 0 .3.1c1 .8 2 1.9 3.1 3.4.1.1.1.2.1.3s-.1.3-.2.3l-1.8 1.2s-.1 0-.1.1v.1c0 .3-.1.4-.4.4h-4.2c0 1.7.1 3.7.4 6.1.9-1.4 1.6-2.9 2.1-4.3q.15-.3.3-.3c.1 0 .2 0 .3.1l2.2 1.1c.2.1.3.2.3.4v.3c-.5 1.2-1.1 2.4-1.9 3.7s-1.7 2.5-2.6 3.7c.4 2.9 1 5.2 1.6 6.9.1.4.3.5.5.5s.4-.4.5-1.2.2-1.6.3-2.5q0-.3.3-.3c.1 0 .2 0 .3.1l2.4 1.5c.1.1.2.2.2.5v.3c-.2 1.6-.7 3-1.3 4-.7 1-1.5 1.6-2.4 1.6q-.9 0-1.5-.3c-.4-.2-.8-.5-1.1-.8-.5-.7-.9-1.4-1.2-2.2-.5-1.5-1-3.2-1.4-5-.7.6-1.5 1.2-2.3 1.7-.1.1-.2.1-.3.1s-.2-.1-.3-.2l-1.5-1.8c-.1-.1-.1-.2-.1-.3s0-.2.1-.3l.5-.3H432c1 .8 1.9 1.6 2.5 2.5.1.1.1.2.1.3s-.1.3-.2.4l-1.4 1.2c-.1.1-.3.2-.3.2q-.15 0-.3-.3c-.3-.5-.7-1-1.3-1.6v3.7c0 .2 0 .4.1.5s.2.2.3.2h1.1c.2 0 .4-.2.5-.5s.2-.8.2-1.5c0-.1.1-.2.1-.3s.1-.1.2-.1l.3.1 1.8.6q-.3-.75-.6-1.2s-.1-.1-.1-.2.1-.3.3-.3l1.8-.6h.2c.1 0 .3.1.4.2.7 1.2 1.4 2.8 2 4.9v.2c0 .1-.1.2-.3.2l-2 .7h-.2q-.3 0-.3-.3c-.1-.7-.3-1.6-.8-2.8-.1 1-.2 1.9-.5 2.4-.2.6-.6 1-1 1.2-.5.3-1.1.4-2 .5H431c-1 0-1.7-.3-2.2-.8s-.7-1.3-.7-2.3v-4.6c0-.3.1-.4.4-.4h2l-.6-.6c-.1-.1-.2-.2-.2-.3s.1-.2.2-.3l1-.8h-4.3c-.3 0-.4-.1-.4-.4v-6.5c0-.3.1-.4.4-.4h8.6c.3 0 .4.1.4.4v6c.7-.5 1.3-1.1 2-1.8-.4-3-.7-6.3-.9-10H425v5.7q0 5.1-.6 9.3c-.4 2.8-1 5.1-1.9 6.9-.1.2-.2.3-.4.3.2-.5.2-.6.1-.6m3.8.1-2-.7c-.2-.1-.3-.1-.3-.3 0-.1 0-.2.1-.3.3-.5.6-1.4.9-2.5s.5-2.1.6-2.8c0-.2.1-.3.2-.3h.2l1.9.3q.3 0 .3.3v.2c-.3 2.6-.7 4.6-1.3 5.9q-.15.3-.3.3c-.1-.1-.2-.1-.3-.1m.1-18.6v-1.9c0-.3.1-.4.4-.4h9.3c.3 0 .4.1.4.4v1.9c0 .3-.1.4-.4.4h-9.3c-.2.1-.4-.1-.4-.4m6.7 6.4V108h-3.4v2.2zM454.6 123l-2.3-3.3c-.1-.1-.1-.2-.1-.3s.1-.3.3-.3c3.1-1.2 5.7-3 7.7-5.4s3.3-5.1 3.9-8.2h-10.4c-.3 0-.4-.1-.4-.4v-3.2c0-.3.1-.4.4-.4h10.7V95c0-.3.1-.4.4-.4h3.6c.3 0 .4.1.4.4v6.4h10.8c.3 0 .4.1.4.4v3.2c0 .3-.1.4-.4.4H469c.8 3 2.2 5.7 4.3 8 2.1 2.4 4.5 4.2 7.4 5.4q.3.15.3.3c0 .1 0 .1-.1.3l-2.2 3.3c-.1.1-.2.2-.3.2s-.2 0-.3-.1c-2.5-1.2-4.7-2.9-6.7-4.9s-3.6-4.4-4.8-7c-1.1 2.6-2.7 4.9-4.7 7.1-2 2.1-4.3 3.8-6.8 4.9-.1 0-.2.1-.3.1 0 .2-.1.1-.2 0M487.7 111.2v-7.5l-.9.3h-.2c-.1 0-.3-.1-.4-.3l-1.2-2.9v-.2q0-.3.3-.3c2.4-.6 4.7-1.3 6.8-2.3s3.8-2 5.2-3.2c.1-.1.3-.2.5-.2h3.8c.2 0 .4.1.5.2 1.5 1.2 3.3 2.3 5.4 3.2s4.3 1.7 6.7 2.2q.3.15.3.3s0 .1-.1.2l-1.2 2.9c-.1.3-.3.3-.6.3l-.9-.3v7.6c0 .3-.1.4-.4.4h-23.2c-.3 0-.4-.1-.4-.4m1.1 11.1v-9c0-.3.1-.4.4-.4h21c.3 0 .4.1.4.4v9c0 .3-.1.4-.4.4h-21c-.2 0-.4-.1-.4-.4m16.1-21.6v1c0 .3-.1.4-.4.4h-9.4c-.3 0-.4-.1-.4-.4v-1c-1.9 1-3.8 1.8-5.7 2.5h21.7c-2.1-.7-4-1.5-5.8-2.5m-6.8 8.7v-3.8h-6.9v3.8zm-3.6-.4c-.4-.8-1-1.4-1.7-2-.1-.1-.2-.2-.2-.3s.1-.2.3-.3l1.4-.6c.1 0 .2-.1.3-.1s.2 0 .3.1c.8.7 1.4 1.4 1.9 2.1 0 .1.1.2.1.3s-.1.3-.3.3l-1.4.6c-.1 0-.1 0-.2.1-.3 0-.4-.1-.5-.2m12.3 7.6v-1.4h-14.2v1.4zm0 3.6v-1.4h-14.2v1.4zm-7.1-22.8c-1 .9-2 1.6-3.1 2.3h6.4c-1.3-.8-2.4-1.6-3.3-2.3m8.5 12v-3.8h-6.8v3.8zm-5.7-1.1c0-.1.1-.2.2-.3.8-.6 1.3-1.3 1.7-2 .1-.3.3-.3.6-.3l1.4.4c.1 0 .2.1.3.2v.4c-.5.9-1.1 1.7-1.8 2.3-.1.1-.3.2-.6.1l-1.5-.6c-.2 0-.3-.1-.3-.2M530.8 123.2c-.3 0-.4-.1-.5-.3l-1.1-2.7-.1-.2c0-.2.1-.3.4-.3h3.6c2.3 0 3.8-.1 4.7-.4s1.4-.6 1.6-1.2c.1-.3.1-.8.1-1.4H524c-.3 0-.4-.1-.4-.3v-.2c.5-1.2.9-2.7 1.3-4.3-2 .7-3.6 1.1-4.7 1.4h-.2c-.2 0-.3-.1-.4-.3l-1.4-3.1c0-.1 0-.2-.1-.2 0-.2.1-.3.4-.3 2.3-.3 4.6-.8 6.9-1.4s4.4-1.2 6.3-2h-12.2c-.3 0-.4-.1-.4-.4v-2.5c0-.3.1-.4.4-.4h10.2v-2.5h-7.6c-.3 0-.4-.1-.4-.4v-2.3c0-.3.1-.4.4-.4h7.6v-2.2c0-.3.1-.4.4-.4h3.1c.3 0 .4.1.4.4v2.2h6.3c.3 0 .4.1.4.4v1.6c.7-.8 1.4-1.7 2.2-2.8.1-.1.2-.2.3-.2l.3.1 3.1 1.6q.3.15.3.3c0 .1 0 .2-.1.3-1.1 1.5-2.5 2.9-4.1 4.3h4.2c.3 0 .4.1.4.4v2.5c0 .3-.1.4-.4.4h-8.2c-1.4.8-2.9 1.6-4.3 2.2h11.1c.3 0 .4.1.4.4v2.4c0 .3-.1.4-.4.4h-15.7l-.5 2h14.7c.3 0 .4.1.4.4 0 1.8-.1 3.3-.2 4.5s-.6 2.2-1.3 2.8c-.7.7-1.8 1.1-3.3 1.4s-3.6.4-6.4.4zm8.7-22.9h-5.7v2.5h2.7c1.1-.8 2.1-1.6 3-2.5M557.8 109l-5.1-13.8c-.1-.2-.1-.3-.1-.4s.1-.3.3-.3l2.7-1.1c.1-.1.2-.1.3-.1q.3 0 .3.3l5.5 15.1c.1.1.1.3.1.4s0 .3-.1.5l-5.5 15q-.15.3-.3.3c-.1 0-.2 0-.3-.1l-2.7-1.1q-.3-.15-.3-.3c0-.1 0-.2.1-.4zm6.1 0-5.1-13.8c-.1-.2-.1-.3-.1-.4s.1-.3.3-.3l2.7-1.1c.1-.1.2-.1.3-.1q.3 0 .3.3l5.5 15.1c.1.1.1.3.1.4s0 .3-.1.5l-5.5 15q-.15.3-.3.3c-.1 0-.2 0-.3-.1l-2.7-1.1q-.3-.15-.3-.3c0-.1 0-.2.1-.4zM2.7 154.3c.5-.5 1.2-.8 2-.8s1.4.2 1.9.7.8 1.1.8 1.9-.3 1.4-.8 1.9-1.2.7-1.9.7c-.8 0-1.4-.3-2-.8s-.7-.9-.7-1.7.2-1.4.7-1.9m10.4 3.8c-.5-.5-.8-1.1-.8-1.9s.3-1.4.8-1.9 1.2-.7 1.9-.7c.8 0 1.4.2 1.9.7s.8 1.1.8 1.9-.3 1.4-.8 1.9-1.2.7-1.9.7c-.8 0-1.4-.2-1.9-.7m10.3-3.8c.5-.5 1.2-.7 1.9-.7.8 0 1.4.3 2 .8.5.5.8 1.1.8 1.9s-.3 1.4-.8 1.9-1.2.8-2 .8-1.4-.2-1.9-.7-.8-1.1-.8-1.9c0-1 .2-1.6.8-2.1"/></svg>