<svg xmlns="http://www.w3.org/2000/svg" xml:space="preserve" width="801" height="480.5" style="overflow:visible" viewBox="0 0 801 480.5"><style>.st2{fill:#fff}</style><path d="M767.2 480.5H23.8V70.2H801v376.5z" style="fill:#df032e"/><path d="M759.2 467.4H11.8V57.1h777v380.8z" style="fill:#e6e6e6;stroke:#000;stroke-width:5;stroke-miterlimit:10"/><path d="M0 0h178.8v75.3H0z"/><path d="M180.5 2h258.8v71.3H180.5z" class="st2"/><path d="M437.4 4v67.3H182.6V4zm4-4H178.5v75.3h262.8V0zM0 75.3l9.3 8.4v-8.4z"/><path d="M16 56.5v-6.9c0-.5.3-.8.8-.8h16.6v-5.2H20.6c-.5 0-.8-.3-.8-.8v-6.6c0-.5.3-.8.8-.8h12.7v-4.7H18.2c-.5 0-.8-.3-.8-.8v-6.7c0-.5.3-.8.8-.8h22c-3.8-1.1-8.3-1.9-13.3-2.4-.4-.1-.6-.2-.6-.5 0-.1 0-.3.1-.5l3.4-5.3c.2-.3.4-.5.8-.5h.2c6.1.4 11.8 1.6 16.9 3.4.3.1.5.3.5.6 0 .1 0 .3-.1.4L45 22.4h12.9c.5 0 .8.3.8.8V30c0 .5-.3.8-.8.8H42.6v4.7h13c.5 0 .8.3.8.8v6.6c0 .5-.3.8-.8.8h-13v5.2h16.8c.5 0 .8.3.8.8v6.9c0 .5-.3.8-.8.8H16.7c-.5-.2-.7-.4-.7-.9M86.7 58.2q-.6 0-.9-.6l-2.2-5.7v-.3c0-.4.3-.6.8-.6 2.5.1 5.2.1 8 .1 3 0 4.9-.1 5.9-.3s1.5-.5 1.6-.9c.1-.3.1-.6.1-.9H76.1c-.4 0-.7-.1-.7-.4 0-.1 0-.2.1-.4.6-1.6 1.3-3.9 2-6.9-2.3.7-4.3 1.3-6.3 1.8h-.4c-.2 0-.4-.2-.6-.5l-2.5-6.1c-.1-.1-.1-.3-.1-.5s.3-.4.7-.4c6.9-.7 12.9-1.8 18.2-3.4H69.7c-.5 0-.8-.3-.8-.8v-5.1c0-.5.3-.8.8-.8h14.6v-2.3h-11c-.5 0-.8-.3-.8-.8v-4.9c0-.5.3-.8.8-.8h11v-2.6c0-.5.3-.8.8-.8h7c.5 0 .8.3.8.8V17h8.6c.5 0 .8.3.8.8v2.3l2.1-3.1c.2-.3.4-.4.6-.4.1 0 .3 0 .5.1l5.8 3c.3.1.4.3.4.6 0 .1-.1.3-.2.5-1.6 2.1-3.1 3.7-4.4 5h4.9c.5 0 .8.3.8.8v5.1c0 .5-.3.8-.8.8H99.3l-4 2h15.1c.5 0 .8.3.8.8V40c0 .5-.3.8-.8.8H85.9l-.4 2.2h22.8c.5 0 .8.3.8.8 0 2.9-.1 5.3-.3 7.3-.3 2.1-.9 3.6-2.1 4.7-1.1 1-2.9 1.8-5.3 2.2s-5.9.6-10.3.6c-2.3-.4-3.7-.4-4.4-.4m12.9-35h-6.8v2.5h4c1-.7 1.9-1.5 2.8-2.5M125.2 56.7V29.9h-3.3c-.5 0-.8-.3-.8-.8V17.6c0-.5.3-.8.8-.8h15.9c-.3-.9-.6-1.5-.7-1.8-.1-.2-.1-.3-.1-.5s.1-.3.2-.5c.1-.1.3-.2.5-.3l7.6-.6h.4c.3 0 .5 0 .7.1.1.1.3.2.4.4l.9 3h16c.5 0 .8.3.8.8v11.5c0 .5-.3.8-.8.8H159v9.6c0 .5-.3.8-.8.8h-24.6V42h27.2c.5 0 .8.3.8.8v13.9c0 .5-.3.8-.8.8h-34.9c-.5 0-.7-.3-.7-.8m30.9-31.1v-1.8h-26.6v1.8zm-5.5 8.4v-2h-16.9v2zm2.5 16.8v-2.1h-19.5v2.1z" class="st2"/><path d="M205.7 40.3c.1 0 .2 0 .5.1l7.5 3.6q.75.3.6 1.2c-1.5 7.2-3.6 13.6-6 19.4-.2.4-.4.6-.7.6-.2 0-.4 0-.5-.1l-8.4-4c-.4-.2-.6-.4-.6-.8l.1-.5c1.4-2.8 2.7-5.8 3.9-9.1s2.2-6.5 2.9-9.7c.1-.5.3-.7.7-.7m8.9-8.8c0 .1-.1.3-.2.6l-4.7 7.1c-.2.3-.4.5-.7.5q-.15 0-.6-.3-3.45-3-9-5.4c-.4-.2-.6-.4-.6-.8 0-.2.1-.4.2-.5l4.8-6.7c.3-.5.7-.7 1.1-.5 1.5.5 3.1 1.3 4.8 2.2s3.2 1.9 4.6 3c.2.3.3.6.3.8m.6-14.1c0 .2-.1.4-.2.6l-4.9 7.2c-.2.3-.4.4-.6.4-.3 0-.5-.1-.7-.3-1.1-1-2.5-2-4-2.9s-3.1-1.7-4.7-2.4c-.4-.2-.6-.4-.6-.7 0-.1 0-.2.1-.3s.1-.2.1-.2l4.9-6.5c.2-.3.4-.5.7-.5.2 0 .3 0 .4.1 3.7 1.3 6.7 2.9 9.1 4.8.2.3.4.5.4.7m12.6-5.2q0-.9.9-.9h8.8q.9 0 .9.9l.1 6h12.4q.9 0 .9.9v17.7q0 .9-.9.9H243q-.9 0-.9-.9v-8.7h-4.2q-.45 4.5-.9 7.5h3.5q.9 0 .9.9v17.2c0 .3 0 .6.1.7q.15.15.6.3h1.1c.5-.1.9-.7 1-1.9.2-1.2.3-3.6.3-7.1 0-.4.1-.7.3-.8.2-.2.4-.2.8-.1l7.1 2.8c.5.2.8.6.8 1.1 0 4.3-.2 7.5-.6 9.7-.4 2.1-1.2 3.6-2.4 4.6s-3.2 1.5-5.8 1.6l-3.8.1c-.5 0-1.5 0-2.8-.1-2.4-.2-4.1-.8-5.2-1.7s-1.7-2.7-1.7-5.2v-8.4c-1.5 3.3-3.3 6.2-5.3 8.7s-4.5 4.8-7.2 7q-.45.3-.6.3c-.2 0-.4-.1-.6-.4l-5.8-6.8q-.3-.45-.3-.6c0-.3.1-.5.4-.7 5.3-4.1 9.2-8.4 11.7-12.8s3.9-9.7 4.3-15.9h-3.4v8.7q0 .9-.9.9h-7.7q-.9 0-.9-.9V19.1q0-.9.9-.9h12.1v-6zM270 63.9V49.7c-1.5.7-2.6 1.2-3.4 1.4-.1 0-.3 0-.4.1-.3 0-.6-.2-.8-.5l-3.7-6.8c-.1-.2-.2-.4-.2-.5 0-.3.2-.6.7-.7 1.9-.4 3.6-1 5.4-1.7 1.7-.7 3.2-1.5 4.4-2.3h-8.7q-.9 0-.9-.9v-5.2q0-.9.9-.9h14.4c.5-.9.9-1.5 1.2-2h-11.6q-.9 0-.9-.9v-4.5q0-.9.9-.9h14.2l.6-1.9h-16.8q-.9 0-.9-.9v-5.3q0-.9.9-.9h18.2c.1-.8.2-1.6.2-2.3 0-.3.1-.5.3-.7s.4-.3.7-.3l8.6.1c.6 0 .9.3.9.8 0 .7-.1 1.5-.2 2.3h20q.9 0 .9.9v5.3q0 .9-.9.9h-21.6c-.1.5-.2 1.2-.5 1.9h20.2q.9 0 .9.9v4.5q0 .9-.9.9h-23c-.3.7-.6 1.3-1 2h27.8q.9 0 .9.9v5.2q0 .9-.9.9h-8.4c1.2.8 2.7 1.5 4.4 2.2s3.5 1.3 5.2 1.8c.5.1.7.4.7.8l-.1.5-3.5 6.9c-.2.4-.5.6-.8.6-.2 0-.3 0-.4-.1-1.4-.5-2.6-1.1-3.8-1.7V64q0 .9-.9.9h-37.2c-.8-.1-1.1-.4-1.1-1m29.1-13.8v-2.4H280v2.4zm0 7.7v-2.6H280v2.6zm-3.2-19.2h-12.2c-.8 1.1-1.4 1.9-2 2.5H298c-.5-.6-1.2-1.4-2.1-2.5M348.3 64.9v-4.5h-18.1q-.9 0-.9-.9v-5.2q0-.9.9-.9h18.1v-1.8h-21.5q-.9 0-.9-.9v-5.3q0-.9.9-.9h21.5V31.6h-18.6q-.9 0-.9-.9v-5.1q0-.9.9-.9H377q.9 0 .9.9v5.1q0 .9-.9.9h-18.7v12.8h21.5q.9 0 .9.9v5.3q0 .9-.9.9h-21.5v1.8h18.2q.9 0 .9.9v5.2q0 .9-.9.9h-18.2v4.5q0 .9-.9.9h-8.2c-.6.2-.9-.1-.9-.8M336 22.7V22h-7.8q-.9 0-.9-.9v-6.2q0-.9.9-.9h7.8v-1.7q0-.9.9-.9h8.4q.9 0 .9.9V14h5.2q.9 0 .9.9V21q0 .9-.9.9h-5.2v.8q0 .9-.9.9h-8.4q-.9 0-.9-.9m-3.5 19.9v-.9h-4.3q-.9 0-.9-.9v-5.6q0-.9.9-.9h4.3v-.8q0-.9.9-.9h7.4q.9 0 .9.9v.8h4.1q.9 0 .9.9v5.6q0 .9-.9.9h-4.1v.9q0 .9-.9.9h-7.4c-.5 0-.9-.3-.9-.9m28.2-19.9V22h-5.4q-.9 0-.9-.9v-6.2q0-.9.9-.9h5.4v-1.7q0-.9.9-.9h8.4q.9 0 .9.9V14h7.7q.9 0 .9.9V21q0 .9-.9.9h-7.7v.8q0 .9-.9.9h-8.4q-.9 0-.9-.9m4.1 19.9v-.9h-4.1q-.9 0-.9-.9v-5.6q0-.9.9-.9h4.1v-.8q0-.9.9-.9h7.4q.9 0 .9.9v.8h4.2q.9 0 .9.9v5.6q0 .9-.9.9H374v.9q0 .9-.9.9h-7.4c-.5 0-.9-.3-.9-.9M404.3 32.1c-1.3-1.2-1.9-2.8-1.9-4.6 0-1.9.6-3.4 1.9-4.6q1.95-1.8 4.8-1.8t4.8 1.8c1.3 1.2 1.9 2.7 1.9 4.6s-.6 3.4-1.9 4.6q-1.95 1.8-4.8 1.8t-4.8-1.8m0 12.9q1.95-1.8 4.8-1.8t4.8 1.8c1.3 1.2 1.9 2.7 1.9 4.6s-.6 3.4-1.9 4.6q-1.95 1.8-4.8 1.8t-4.8-1.8c-1.3-1.2-1.9-2.7-1.9-4.6s.6-3.4 1.9-4.6"/></svg>