<!-- Generator: Adobe Illustrator 25.0.0, SVG Export Plug-In  -->
<svg version="1.1" xmlns="http://www.w3.org/2000/svg" xmlns:xlink="http://www.w3.org/1999/xlink" x="0px" y="0px" width="801px"
	 height="480.5px" viewBox="0 0 801 480.5" style="overflow:visible;enable-background:new 0 0 801 480.5;" xml:space="preserve">
<style type="text/css">
	.st0{fill:#DF032E;}
	.st1{fill:#E6E6E6;stroke:#000000;stroke-width:5;stroke-miterlimit:10;}
	.st2{fill:#FFFFFF;}
</style>
<defs>
</defs>
<polygon class="st0" points="767.2,480.5 23.8,480.5 23.8,70.2 801,70.2 801,446.7 "/>
<polygon class="st1" points="759.2,467.4 11.8,467.4 11.8,57.1 788.8,57.1 788.8,437.9 "/>
<rect y="0" width="178.8" height="75.3"/>
<g>
	<rect x="180.5" y="2" class="st2" width="258.8" height="71.3"/>
	<path d="M437.4,4v67.3H182.6V4H437.4 M441.4,0H178.5v75.3h262.8V0L441.4,0z"/>
</g>
<polygon points="0,75.3 9.3,83.7 9.3,75.3 "/>
<g>
	<path class="st2" d="M16,56.5v-6.9c0-0.5,0.3-0.8,0.8-0.8h16.6v-5.2H20.6c-0.5,0-0.8-0.3-0.8-0.8v-6.6c0-0.5,0.3-0.8,0.8-0.8h12.7
		v-4.7H18.2c-0.5,0-0.8-0.3-0.8-0.8v-6.7c0-0.5,0.3-0.8,0.8-0.8h22c-3.8-1.1-8.3-1.9-13.3-2.4c-0.4-0.1-0.6-0.2-0.6-0.5
		c0-0.1,0-0.3,0.1-0.5l3.4-5.3c0.2-0.3,0.4-0.5,0.8-0.5h0.2c6.1,0.4,11.8,1.6,16.9,3.4c0.3,0.1,0.5,0.3,0.5,0.6c0,0.1,0,0.3-0.1,0.4
		l-3.1,4.8h12.9c0.5,0,0.8,0.3,0.8,0.8V30c0,0.5-0.3,0.8-0.8,0.8H42.6v4.7h13c0.5,0,0.8,0.3,0.8,0.8v6.6c0,0.5-0.3,0.8-0.8,0.8h-13
		v5.2h16.8c0.5,0,0.8,0.3,0.8,0.8v6.9c0,0.5-0.3,0.8-0.8,0.8H16.7C16.2,57.2,16,57,16,56.5z"/>
	<path class="st2" d="M86.7,58.2c-0.4,0-0.7-0.2-0.9-0.6l-2.2-5.7c0-0.1,0-0.2,0-0.3c0-0.4,0.3-0.6,0.8-0.6c2.5,0.1,5.2,0.1,8,0.1
		c3,0,4.9-0.1,5.9-0.3c1-0.2,1.5-0.5,1.6-0.9c0.1-0.3,0.1-0.6,0.1-0.9H76.1c-0.4,0-0.7-0.1-0.7-0.4c0-0.1,0-0.2,0.1-0.4
		c0.6-1.6,1.3-3.9,2-6.9c-2.3,0.7-4.3,1.3-6.3,1.8c-0.1,0-0.2,0-0.4,0c-0.2,0-0.4-0.2-0.6-0.5l-2.5-6.1c-0.1-0.1-0.1-0.3-0.1-0.5
		c0-0.2,0.3-0.4,0.7-0.4c6.9-0.7,12.9-1.8,18.2-3.4H69.7c-0.5,0-0.8-0.3-0.8-0.8v-5.1c0-0.5,0.3-0.8,0.8-0.8h14.6v-2.3h-11
		c-0.5,0-0.8-0.3-0.8-0.8v-4.9c0-0.5,0.3-0.8,0.8-0.8h11v-2.6c0-0.5,0.3-0.8,0.8-0.8h7c0.5,0,0.8,0.3,0.8,0.8V17h8.6
		c0.5,0,0.8,0.3,0.8,0.8v2.3l2.1-3.1c0.2-0.3,0.4-0.4,0.6-0.4c0.1,0,0.3,0,0.5,0.1l5.8,3c0.3,0.1,0.4,0.3,0.4,0.6
		c0,0.1-0.1,0.3-0.2,0.5c-1.6,2.1-3.1,3.7-4.4,5h4.9c0.5,0,0.8,0.3,0.8,0.8v5.1c0,0.5-0.3,0.8-0.8,0.8H99.3l-4,2h15.1
		c0.5,0,0.8,0.3,0.8,0.8v4.7c0,0.5-0.3,0.8-0.8,0.8H85.9l-0.4,2.2h22.8c0.5,0,0.8,0.3,0.8,0.8c0,2.9-0.1,5.3-0.3,7.3
		c-0.3,2.1-0.9,3.6-2.1,4.7c-1.1,1-2.9,1.8-5.3,2.2c-2.4,0.4-5.9,0.6-10.3,0.6C88.8,58.2,87.4,58.2,86.7,58.2z M99.6,23.2h-6.8v2.5
		h4C97.8,25,98.7,24.2,99.6,23.2z"/>
	<path class="st2" d="M125.2,56.7V29.9h-3.3c-0.5,0-0.8-0.3-0.8-0.8V17.6c0-0.5,0.3-0.8,0.8-0.8h15.9c-0.3-0.9-0.6-1.5-0.7-1.8
		c-0.1-0.2-0.1-0.3-0.1-0.5c0-0.2,0.1-0.3,0.2-0.5c0.1-0.1,0.3-0.2,0.5-0.3l7.6-0.6h0.4c0.3,0,0.5,0,0.7,0.1
		c0.1,0.1,0.3,0.2,0.4,0.4l0.9,3h16c0.5,0,0.8,0.3,0.8,0.8v11.5c0,0.5-0.3,0.8-0.8,0.8H159v9.6c0,0.5-0.3,0.8-0.8,0.8h-24.6V42h27.2
		c0.5,0,0.8,0.3,0.8,0.8v13.9c0,0.5-0.3,0.8-0.8,0.8h-34.9C125.4,57.5,125.2,57.2,125.2,56.7z M156.1,25.6v-1.8h-26.6v1.8H156.1z
		 M150.6,34v-2h-16.9v2H150.6z M153.1,50.8v-2.1h-19.5v2.1H153.1z"/>
</g>
<g>
	<path d="M205.7,40.3c0.1,0,0.2,0,0.5,0.1l7.5,3.6c0.5,0.2,0.7,0.6,0.6,1.2c-1.5,7.2-3.6,13.6-6,19.4c-0.2,0.4-0.4,0.6-0.7,0.6
		c-0.2,0-0.4,0-0.5-0.1l-8.4-4c-0.4-0.2-0.6-0.4-0.6-0.8l0.1-0.5c1.4-2.8,2.7-5.8,3.9-9.1c1.2-3.3,2.2-6.5,2.9-9.7
		C205.1,40.5,205.3,40.3,205.7,40.3z M214.6,31.5c0,0.1-0.1,0.3-0.2,0.6l-4.7,7.1c-0.2,0.3-0.4,0.5-0.7,0.5c-0.1,0-0.3-0.1-0.6-0.3
		c-2.3-2-5.3-3.8-9-5.4c-0.4-0.2-0.6-0.4-0.6-0.8c0-0.2,0.1-0.4,0.2-0.5l4.8-6.7c0.3-0.5,0.7-0.7,1.1-0.5c1.5,0.5,3.1,1.3,4.8,2.2
		c1.7,0.9,3.2,1.9,4.6,3C214.5,31,214.6,31.3,214.6,31.5z M215.2,17.4c0,0.2-0.1,0.4-0.2,0.6l-4.9,7.2c-0.2,0.3-0.4,0.4-0.6,0.4
		c-0.3,0-0.5-0.1-0.7-0.3c-1.1-1-2.5-2-4-2.9c-1.5-0.9-3.1-1.7-4.7-2.4c-0.4-0.2-0.6-0.4-0.6-0.7c0-0.1,0-0.2,0.1-0.3
		c0.1-0.1,0.1-0.2,0.1-0.2l4.9-6.5c0.2-0.3,0.4-0.5,0.7-0.5c0.2,0,0.3,0,0.4,0.1c3.7,1.3,6.7,2.9,9.1,4.8
		C215,17,215.2,17.2,215.2,17.4z M227.8,12.2c0-0.6,0.3-0.9,0.9-0.9h8.8c0.6,0,0.9,0.3,0.9,0.9l0.1,6h12.4c0.6,0,0.9,0.3,0.9,0.9
		v17.7c0,0.6-0.3,0.9-0.9,0.9H243c-0.6,0-0.9-0.3-0.9-0.9v-8.7h-4.2c-0.3,3-0.6,5.5-0.9,7.5h3.5c0.6,0,0.9,0.3,0.9,0.9v17.2
		c0,0.3,0,0.6,0.1,0.7c0.1,0.1,0.3,0.2,0.6,0.3c0.3,0,0.7,0,1.1,0c0.5-0.1,0.9-0.7,1-1.9c0.2-1.2,0.3-3.6,0.3-7.1
		c0-0.4,0.1-0.7,0.3-0.8c0.2-0.2,0.4-0.2,0.8-0.1l7.1,2.8c0.5,0.2,0.8,0.6,0.8,1.1c0,4.3-0.2,7.5-0.6,9.7c-0.4,2.1-1.2,3.6-2.4,4.6
		c-1.2,1-3.2,1.5-5.8,1.6l-3.8,0.1c-0.5,0-1.5,0-2.8-0.1c-2.4-0.2-4.1-0.8-5.2-1.7c-1.1-0.9-1.7-2.7-1.7-5.2v-8.4
		c-1.5,3.3-3.3,6.2-5.3,8.7c-2,2.5-4.5,4.8-7.2,7c-0.3,0.2-0.5,0.3-0.6,0.3c-0.2,0-0.4-0.1-0.6-0.4l-5.8-6.8
		c-0.2-0.3-0.3-0.5-0.3-0.6c0-0.3,0.1-0.5,0.4-0.7c5.3-4.1,9.2-8.4,11.7-12.8c2.5-4.4,3.9-9.7,4.3-15.9h-3.4v8.7
		c0,0.6-0.3,0.9-0.9,0.9h-7.7c-0.6,0-0.9-0.3-0.9-0.9V19.1c0-0.6,0.3-0.9,0.9-0.9h12.1V12.2z"/>
	<path d="M270,63.9V49.7c-1.5,0.7-2.6,1.2-3.4,1.4c-0.1,0-0.3,0-0.4,0.1c-0.3,0-0.6-0.2-0.8-0.5l-3.7-6.8c-0.1-0.2-0.2-0.4-0.2-0.5
		c0-0.3,0.2-0.6,0.7-0.7c1.9-0.4,3.6-1,5.4-1.7c1.7-0.7,3.2-1.5,4.4-2.3h-8.7c-0.6,0-0.9-0.3-0.9-0.9v-5.2c0-0.6,0.3-0.9,0.9-0.9
		h14.4c0.5-0.9,0.9-1.5,1.2-2h-11.6c-0.6,0-0.9-0.3-0.9-0.9v-4.5c0-0.6,0.3-0.9,0.9-0.9h14.2l0.6-1.9h-16.8c-0.6,0-0.9-0.3-0.9-0.9
		v-5.3c0-0.6,0.3-0.9,0.9-0.9h18.2c0.1-0.8,0.2-1.6,0.2-2.3c0-0.3,0.1-0.5,0.3-0.7c0.2-0.2,0.4-0.3,0.7-0.3l8.6,0.1
		c0.6,0,0.9,0.3,0.9,0.8c0,0.7-0.1,1.5-0.2,2.3H314c0.6,0,0.9,0.3,0.9,0.9v5.3c0,0.6-0.3,0.9-0.9,0.9h-21.6
		c-0.1,0.5-0.2,1.2-0.5,1.9h20.2c0.6,0,0.9,0.3,0.9,0.9v4.5c0,0.6-0.3,0.9-0.9,0.9h-23c-0.3,0.7-0.6,1.3-1,2h27.8
		c0.6,0,0.9,0.3,0.9,0.9v5.2c0,0.6-0.3,0.9-0.9,0.9h-8.4c1.2,0.8,2.7,1.5,4.4,2.2c1.7,0.7,3.5,1.3,5.2,1.8c0.5,0.1,0.7,0.4,0.7,0.8
		l-0.1,0.5l-3.5,6.9c-0.2,0.4-0.5,0.6-0.8,0.6c-0.2,0-0.3,0-0.4-0.1c-1.4-0.5-2.6-1.1-3.8-1.7v14.4c0,0.6-0.3,0.9-0.9,0.9h-37.2
		C270.3,64.8,270,64.5,270,63.9z M299.1,50.1v-2.4h-19.1v2.4H299.1z M299.1,57.8v-2.6h-19.1v2.6H299.1z M295.9,38.6h-12.2
		c-0.8,1.1-1.4,1.9-2,2.5H298C297.5,40.5,296.8,39.7,295.9,38.6z"/>
	<path d="M348.3,64.9v-4.5h-18.1c-0.6,0-0.9-0.3-0.9-0.9v-5.2c0-0.6,0.3-0.9,0.9-0.9h18.1v-1.8h-21.5c-0.6,0-0.9-0.3-0.9-0.9v-5.3
		c0-0.6,0.3-0.9,0.9-0.9h21.5V31.6h-18.6c-0.6,0-0.9-0.3-0.9-0.9v-5.1c0-0.6,0.3-0.9,0.9-0.9H377c0.6,0,0.9,0.3,0.9,0.9v5.1
		c0,0.6-0.3,0.9-0.9,0.9h-18.7v12.8h21.5c0.6,0,0.9,0.3,0.9,0.9v5.3c0,0.6-0.3,0.9-0.9,0.9h-21.5v1.8h18.2c0.6,0,0.9,0.3,0.9,0.9
		v5.2c0,0.6-0.3,0.9-0.9,0.9h-18.2v4.5c0,0.6-0.3,0.9-0.9,0.9h-8.2C348.6,65.9,348.3,65.6,348.3,64.9z M336,22.7V22h-7.8
		c-0.6,0-0.9-0.3-0.9-0.9v-6.2c0-0.6,0.3-0.9,0.9-0.9h7.8v-1.7c0-0.6,0.3-0.9,0.9-0.9h8.4c0.6,0,0.9,0.3,0.9,0.9v1.7h5.2
		c0.6,0,0.9,0.3,0.9,0.9V21c0,0.6-0.3,0.9-0.9,0.9h-5.2v0.8c0,0.6-0.3,0.9-0.9,0.9h-8.4C336.3,23.6,336,23.3,336,22.7z M332.5,42.6
		v-0.9h-4.3c-0.6,0-0.9-0.3-0.9-0.9v-5.6c0-0.6,0.3-0.9,0.9-0.9h4.3v-0.8c0-0.6,0.3-0.9,0.9-0.9h7.4c0.6,0,0.9,0.3,0.9,0.9v0.8h4.1
		c0.6,0,0.9,0.3,0.9,0.9v5.6c0,0.6-0.3,0.9-0.9,0.9h-4.1v0.9c0,0.6-0.3,0.9-0.9,0.9h-7.4C332.9,43.5,332.5,43.2,332.5,42.6z
		 M360.7,22.7V22h-5.4c-0.6,0-0.9-0.3-0.9-0.9v-6.2c0-0.6,0.3-0.9,0.9-0.9h5.4v-1.7c0-0.6,0.3-0.9,0.9-0.9h8.4
		c0.6,0,0.9,0.3,0.9,0.9v1.7h7.7c0.6,0,0.9,0.3,0.9,0.9V21c0,0.6-0.3,0.9-0.9,0.9h-7.7v0.8c0,0.6-0.3,0.9-0.9,0.9h-8.4
		C361,23.6,360.7,23.3,360.7,22.7z M364.8,42.6v-0.9h-4.1c-0.6,0-0.9-0.3-0.9-0.9v-5.6c0-0.6,0.3-0.9,0.9-0.9h4.1v-0.8
		c0-0.6,0.3-0.9,0.9-0.9h7.4c0.6,0,0.9,0.3,0.9,0.9v0.8h4.2c0.6,0,0.9,0.3,0.9,0.9v5.6c0,0.6-0.3,0.9-0.9,0.9h-4.2v0.9
		c0,0.6-0.3,0.9-0.9,0.9h-7.4C365.2,43.5,364.8,43.2,364.8,42.6z"/>
	<path d="M404.3,32.1c-1.3-1.2-1.9-2.8-1.9-4.6c0-1.9,0.6-3.4,1.9-4.6c1.3-1.2,2.9-1.8,4.8-1.8c1.9,0,3.5,0.6,4.8,1.8
		c1.3,1.2,1.9,2.7,1.9,4.6c0,1.9-0.6,3.4-1.9,4.6c-1.3,1.2-2.9,1.8-4.8,1.8C407.2,33.9,405.6,33.3,404.3,32.1z M404.3,45
		c1.3-1.2,2.9-1.8,4.8-1.8c1.9,0,3.5,0.6,4.8,1.8c1.3,1.2,1.9,2.7,1.9,4.6c0,1.9-0.6,3.4-1.9,4.6c-1.3,1.2-2.9,1.8-4.8,1.8
		c-1.9,0-3.5-0.6-4.8-1.8c-1.3-1.2-1.9-2.7-1.9-4.6C402.4,47.7,403,46.2,404.3,45z"/>
</g>
</svg>
