<svg xmlns="http://www.w3.org/2000/svg" xmlns:xlink="http://www.w3.org/1999/xlink" xml:space="preserve" width="40.1" height="36.9" style="overflow:visible" viewBox="0 0 40.1 36.9"><defs><path id="SVGID_1_" d="M0 0h40.1v36.9H0z"/></defs><clipPath id="SVGID_2_"><use xlink:href="#SVGID_1_" style="overflow:visible"/></clipPath><path d="M23 32.5q0 .3-.3.6L19 36.7c-.1.1-.4.2-.6.2s-.5-.1-.6-.2L.2 19.1c-.1-.1-.2-.5-.2-.6 0-.2.1-.5.2-.6L17.7.3c.2-.1.5-.3.6-.3.2 0 .5.1.6.2l3.7 3.6c.3.2.4.4.4.6q0 .3-.3.6l-9.8 9.8h26.3q.9 0 .9.9v5.6q0 .9-.9.9H12.9l9.8 9.8c.2.1.3.3.3.5" style="clip-path:url(#SVGID_2_)"/></svg>