<svg xmlns="http://www.w3.org/2000/svg" xml:space="preserve" width="357.3" height="17.7" style="overflow:visible" viewBox="0 0 357.3 17.7"><path d="M6.2 16.9v-1.1c-.9.2-1.8.3-2.9.5s-2 .3-2.8.3c-.1 0-.2-.1-.2-.2L0 14.9c0-.2.1-.2.2-.2l1.3-.1V8.8H.4q-.3 0-.3-.3V7.3c.1-.2.1-.3.3-.3h15.9q.3 0 .3.3v1.3q0 .3-.3.3h-8V17q0 .3-.3.3H6.4c-.1-.2-.2-.2-.2-.4M1.6 6.2V1.1q0-.3.3-.3h12.9q.3 0 .3.3v5.1q0 .3-.3.3h-1.9q-.3 0-.3-.3V2.4H4v3.8q0 .3-.3.3H1.9q-.3 0-.3-.3m4.6 3.5v-.9H3.7v.9zm0 2.3v-.9H3.7v.9zm0 2.1v-.7H3.7v1.1c.9-.2 1.7-.3 2.5-.4M4.6 4.3s-.1-.1-.1-.2v-.9s.1-.1.2-.1h7.1q.3 0 .3.3v.7c0 .1 0 .1-.1.2 0 0-.1.1-.2.1h-7c-.1-.1-.1-.1-.2-.1m0 1.8s-.1-.1-.1-.2V5h7.4q.3 0 .3.3V6c0 .1 0 .1-.1.2 0 0-.1.1-.2.1H4.8zm7.9 9.6c-.9.6-1.9 1.1-3.1 1.3h-.1c-.1 0-.2-.1-.2-.2l-.6-1.5v-.1c0-.1.1-.2.2-.2.8-.1 1.5-.3 2.2-.7q-1.05-1.35-1.5-3h-.3q-.3 0-.3-.3V9.9q0-.3.3-.3h6.4q.3 0 .3.3v1.3c0 .1 0 .2-.1.3-.2.5-.4 1-.7 1.5s-.6.9-.9 1.2c.8.3 1.6.6 2.4.7.1 0 .1 0 .1.1l.1.1v.1l-.7 1.7c-.1.1-.1.2-.2.2h-.1c-1.2-.3-2.2-.8-3.2-1.4m-.8-3.3c.2.3.5.6.7.8.3-.2.5-.5.8-.8.2-.3.4-.7.6-1h-2.6c.1.4.3.7.5 1m12.1-3.1c.2-1.2.3-2.7.4-4.7v-.9c0-.1 0-.2.1-.2 0 0 .1-.1.2-.1l.9.1c.2 0 .2.1.2.3 0 1.1 0 2.2-.1 3.1 0 .9-.1 1.9-.3 2.8 0 .2-.1.2-.3.2l-.9-.4c-.1 0-.2-.1-.2-.2m5.3 7.2v-1q0-.3.3-.3h4.5v-.6H30q-.3 0-.3-.3v-.8q0-.3.3-.3h3.9v-.6h-3.8q-.3 0-.3-.3V8q0-.3.3-.3h3.8v-.5H30c-.1 0-.2 0-.2-.1l-.8.3h-.1c-.1 0-.2-.1-.2-.2q0-.6-.3-1.5c-.1-.6-.3-1.1-.4-1.6v12.8q0 .3-.3.3h-1.5q-.3 0-.3-.3V.8q0-.3.3-.3h1.5q.3 0 .3.3v3l.1-.1.5-.3h.1c.1 0 .1.1.2.2.3.9.5 1.8.7 2.5q0-.3.3-.3h3.9v-.4c-1.2 0-2.4.1-3.3.1-.1 0-.2-.1-.3-.2l-.3-.9v-.1c-.1-.2 0-.3.1-.3h1.1V3h-1.7q-.3 0-.3-.3V1.6q0-.3.3-.3h1.7V.8q0-.3.3-.3h1.4q.3 0 .3.3v.5h1.2q.3 0 .3.3v1.2q0 .3-.3.3h-1.2V4c1.3 0 2.5-.1 3.4-.1V3h-1.3c-.1 0-.2-.1-.2-.2V1.6q0-.3.3-.3h1.3V.8q0-.3.3-.3h1.4q.3 0 .3.3v.5h1.8q.3 0 .3.3v1.2q0 .3-.3.3h-1.8v.7l.5-.1h.1c.1 0 .2.1.3.2l.5.9v.1c-.3.1-.3.1-.5.1-.9.1-2.1.2-3.7.3v.5h4.3q.3 0 .3.3V7q0 .3-.3.3h-4.3v.5h3.8q.3 0 .3.3v4.3q0 .3-.3.3h-3.8v.6h3.9q.3 0 .3.3v.8q0 .3-.3.3h-3.9v.6h4.5q.3 0 .3.3v1q0 .3-.3.3h-11c-.1-.1-.2-.2-.2-.4m4.7-6.8V9h-2v.6h2zm0 1.7v-.6h-2v.6zm4.1-1.7V9h-2.1v.6h2.1zm0 1.7v-.6h-2.1v.6zM55.4 16c-.5-.4-.7-1-.7-1.7q0-.6.3-1.2c.2-.4.4-.8.8-1.2l2-2c.8-.8 1.5-1.4 2.1-1.9h-4q-.3 0-.3-.3V6.6l-.3.3c-.1.1-.2.2-.4.3 0 0-.1.1-.2.1s-.1 0-.2-.1l-.7-1v8.2q0 .3-.3.3h-5.1q-.3 0-.3-.3V1.6q0-.3.3-.3h5.1q.3 0 .3.3v3.5c.6-.6 1.2-1.2 1.6-2s.8-1.6 1-2.4c0-.1.1-.2.3-.2h.1l1.7.3c.1 0 .1.1.2.1v.2l-.4 1.1H64q.3 0 .3.3v1.6q0 .3-.3.3h-6.8c-.2.6-.5 1.1-.9 1.6h7q.3 0 .3.3v1.5c0 .1-.1.2-.2.3-.9.6-1.9 1.5-3.1 2.5s-2.1 1.8-2.6 2.4c-.3.4-.5.7-.5.9s.1.3.2.5c.2.1.4.2.7.2.5 0 1 .1 1.6.1.5 0 .9 0 1.3-.1q.6 0 .9-.3c.2-.1.3-.4.4-.8s.2-.9.2-1.6c0-.1 0-.2.1-.2h.2l1.7.7c.1 0 .2.1.2.3v.1c-.1 1-.2 1.8-.4 2.3s-.5 1-.9 1.2c-.4.3-1 .4-1.8.5-.6 0-1.3.1-2 .1s-1.4 0-2.1-.1c-.9-.1-1.6-.4-2.1-.8m-5-12.6v9.2H52V3.4zm28.3 13h-6.1q-.3 0-.3-.3v-13q0-.3.3-.3h1.3c.4-.8.6-1.5.8-2.2 0-.1.1-.2.2-.2h.1l1.8.2c.2.2.2.3.2.4-.2.7-.5 1.4-.7 1.9h2.5c.1 0 .2.1.2.2v2.1c.4-.6.8-1.3 1.1-2.1s.6-1.6.8-2.4c0-.1.1-.2.2-.2h.1l1.7.2c.1 0 .1 0 .2.1V1c-.1.5-.3 1-.5 1.6h4.9q.15 0 .3.3v3.6c0 2.6 0 4.5-.1 5.7s-.3 2.1-.7 2.8-.9 1.2-1.6 1.5-1.6.5-2.8.5h-.4c-.1 0-.2-.1-.2-.2l-.6-1.8v-.1c0-.1.1-.2.2-.2.9 0 1.7 0 2.2-.2s.9-.4 1.1-.8.4-1 .4-1.7c.1-1.2.1-2.7.1-4.3V4.8h-3.7c-.4.9-.8 1.6-1.3 2.2h-.1s-.1 0-.2-.1L79 6.4v9.7q0 .3-.3.3M74.5 4.9v3.5h2.4V4.9zm0 5.6v3.7h2.4v-3.7zm5.7-2.3c0-.1-.1-.1-.1-.2s0-.1.1-.2l1.5-.7h.1c.1 0 .2 0 .2.1q.6.75 1.2 1.8c.6 1.05.7 1.3.9 2v.1c0 .1-.1.2-.2.2l-1.6.8h-.1c-.1 0-.1-.1-.2-.2-.4-1.3-1-2.6-1.8-3.7m17.4 8.7V8.3c-.4.5-.7.9-1.1 1.3-.1.1-.1.1-.2.1s-.2-.1-.2-.2l-.7-2.2v-.2l.1-.1c.7-.7 1.4-1.6 2-2.6.6-1.1 1.1-2.2 1.5-3.5 0-.1.1-.2.2-.2h.1l1.9.3c.1 0 .2.1.2.2v.1c-.4 1.4-.9 2.6-1.6 3.8V17q0 .3-.3.3h-1.8c-.1-.1-.1-.2-.1-.4m4.4-1.7-1.7-.8c-.1-.1-.2-.1-.2-.2 0 0 0-.1.1-.1 1-1.5 1.6-3.3 1.9-5.2 0-.1.1-.2.2-.2h.1l1.7.4c.1 0 .2.1.2.1v.1c-.2 1-.4 2-.7 3s-.7 2-1.2 2.8c0 .1-.1.1-.2.1zm8.6-6.7-1.7-.6c-.1 0-.1-.1-.2-.2v-.2c.4-1 .7-2 .7-2.9h-5.1c-.3.7-.5 1.3-.8 1.9-.3.5-.7 1.1-1.1 1.7-.1.1-.1.1-.2.1 0 0-.1 0-.2-.1l-1.5-1.4c-.1-.1-.1-.1-.1-.2s0-.1.1-.2c.8-.9 1.3-1.8 1.7-2.7.3-.9.6-1.8.7-2.9 0-.1.1-.2.1-.2h.1l1.9.2c.1 0 .2.1.2.2v.1c-.1.4-.2.9-.3 1.4h6.6q.3 0 .3.3c0 2.1-.4 3.9-.9 5.5 0 .1 0 .2-.3.2q.15 0 0 0m-6.9 8.5-.1-.1-.7-1.8V15c0-.1.1-.2.2-.2h.8c.4 0 .8 0 1-.1s.3-.2.4-.3.1-.3.1-.6V6.2q0-.3.3-.3h1.7q.3 0 .3.3v8.4c0 .9-.3 1.6-.9 2s-1.5.5-2.7.5c-.2 0-.3 0-.4-.1m6.6-1.8c-.4-.7-.8-1.5-1.1-2.6-.4-1-.7-2.1-.9-3.1v-.1c0-.1.1-.2.2-.2l1.6-.5h.1c.1 0 .2.1.2.2q.3 1.35.9 2.7c.6 1.35.7 1.7 1.1 2.4v.1c0 .1 0 .1-.1.2l-1.6.9h-.1c-.2.1-.2.1-.3 0m15.8-2.2v-.2l.9-2.8q-.3-.15-.6-.6c-.1-.2-.2-.5-.2-.8 0-.5.2-.8.5-1.1s.7-.4 1.1-.4.8.1 1.1.4.5.7.5 1.1c0 .3-.1.6-.2.9s-.3.9-.7 1.7l-.8 1.8c-.1.1-.2.2-.3.2h-1.2s-.1 0-.1-.2m17.3 3.2v-.1c.3-.6.5-1.4.7-2.1.1-.8.2-1.7.2-2.6V7.1q0-.3.3-.3h6.8q.3 0 .3.3v7.6c0 .7-.2 1.2-.5 1.6s-1 .6-1.9.7h-.9c-.1 0-.2-.1-.3-.2l-.5-1.5v-.1c0-.1.1-.2.3-.2h.9c.4 0 .7-.1.8-.2s.2-.3.2-.6v-.5h-3.2c-.1 1.2-.4 2.3-.8 3.2 0 .1-.1.1-.2.1h-.1l-1.7-.6c-.4 0-.4-.1-.4-.2m6.9-9.9-.3-.7c-1.9.3-3.9.4-5.9.5-.1 0-.1 0-.2-.1 0 0-.1-.1-.1-.2l-.3-1.1v-.4c0-.1.2-.3.4-.6.4-.4.7-.9 1.1-1.5s.7-1.1.9-1.6c.1-.1.1-.2.2-.2h.2l1.7.4c.1 0 .2.1.2.1v.2c-.4.7-1.2 1.7-2.2 2.9 1.2-.1 2.3-.2 3.2-.3-.2-.5-.4-.9-.6-1.3v-.1c0-.1.1-.2.2-.2l1.4-.4h.1c.1 0 .1.1.2.2.8 1.2 1.3 2.5 1.7 3.6v.1c0 .1-.1.2-.2.2l-1.5.5h-.1c0 .1-.1.1-.1 0m-.9 3.3v-1h-3.1v1zm0 2.5v-1h-3.1v1.1h3.1zm5.3 4.6c-.7 0-1.3-.2-1.6-.4-.3-.3-.5-.8-.5-1.5V9.1q0-.3.3-.3h1.7q.3 0 .3.3v1.4l4.6-.9h.1c.1 0 .2.1.2.2l.3 1.4v.1c0 .1-.1.2-.2.3l-4.9 1v1.5c0 .2 0 .3.1.4s.2.1.4.1h1.7c.3 0 .5-.1.7-.1.1-.1.2-.2.3-.4s.1-.6.2-1.1c0-.1 0-.2.1-.2h.2l1.6.7c.1 0 .1.1.2.2v.1c0 .9-.2 1.5-.3 1.9-.2.4-.4.7-.8.8s-.9.2-1.7.3h-1.4zm.1-16v1.5h4.6q.3 0 .3.3V4q0 .3-.3.3h-4.6v1.4c0 .3.2.5.5.5s.9.1 1.8.1 1.7 0 2.5-.1c.1 0 .2.1.2.3V8q0 .15-.3.3c-.9.1-1.9.1-3.1.1-.7 0-1.3 0-1.8-.1-.6 0-1-.1-1.3-.2q-.45-.15-.6-.6c-.1-.3-.2-.7-.2-1.2V.7q0-.3.3-.3h1.8c.2.1.2.2.2.3m14.9 10V.3q0-.3.3-.3h5q.3 0 .3.3v1.8q0 .3-.3.3h-2.7v8.3q0 .3-.3.3h-2q-.3 0-.3-.3m14.7-1.1v-2q0-.3.3-.3H200q.3 0 .3.3v2q0 .3-.3.3h-15.3q-.3 0-.3-.3m23.3 6.6v-.1c.4-.9.6-1.9.8-3.2.2-1.2.3-2.5.3-3.7 0-.1 0-.1.1-.2.1 0 .1-.1.2-.1l1.5.1c.2 0 .2.1.2.3 0 .8-.1 1.7-.1 2.5.2.4.6.9 1 1.2V7.9h-3.1q-.3 0-.3-.3V6.1q0-.3.3-.3h3V4.2H209q-.3 0-.3-.3V2.4q0-.3.3-.3h2.4V.7q0-.3.3-.3h1.6q.3 0 .3.3v1.4h2.1q.3 0 .3.3V4q0 .3-.3.3h-2.1v1.6h2.5q.3 0 .3.3v1.6q0 .3-.3.3h-2.3v1.8h2q.3 0 .3.3v1.6q0 .3-.3.3h-2v2.3c.7.2 1.4.3 2.2.3.9.1 2.1.1 3.4.1 1.7 0 3.5-.1 5.3-.3.1 0 .2.1.2.2v.1l-.5 1.8c0 .1-.1.2-.3.2-1.4.1-2.9.1-4.5.1-1.5 0-2.8 0-3.7-.1-1.3-.1-2.4-.3-3.2-.7s-1.6-.9-2.2-1.7c-.1.9-.3 1.7-.6 2.6 0 .1-.1.2-.2.2h-.1l-1.6-.7c-.3-.1-.3-.2-.3-.3m11.3-2.7c-.7 0-1.2-.2-1.6-.5s-.5-.8-.5-1.6V1.5q0-.3.3-.3h6.4q.3 0 .3.3v6.1q0 .3-.3.3h-4.5v2.8c0 .2 0 .4.1.5s.2.1.5.2h1.6c.3 0 .5-.1.6-.2.1-.2.3-.4.3-.7s.1-.8.2-1.4c0-.2.1-.3.3-.2l1.6.6c.1 0 .2.1.2.1v.2c-.1 1-.2 1.8-.4 2.3s-.5.9-.9 1.1-.9.3-1.7.3zm2.6-7.6V3.4H219v2.5zm16.7 10s-.1 0-.2-.1c-.5-.5-1-1.1-1.7-1.7-.4.5-.9 1.1-1.4 1.6s-1.1 1-1.7 1.4c0 0-.1.1-.2.1 0 0-.1 0-.2-.1l-1.2-1.6-.1-.1c0-.1 0-.1.1-.2.6-.3 1.1-.6 1.6-1.1.5-.4 1-.9 1.3-1.3-.7-.6-1.5-1.1-2.3-1.7-.1-.1-.2-.2-.1-.3.4-1.5.7-3.2 1-5.2h-1.1q-.3 0-.3-.3V3.5q0-.3.3-.3h1.4c.1-1 .1-1.9.1-2.4q0-.3.3-.3h1.7q.3 0 .3.3c0 .8-.1 1.6-.2 2.4h3.1q.3 0 .3.3c0 1.9-.1 3.5-.3 4.9s-.6 2.6-1.1 3.7c.7.6 1.3 1.2 1.8 1.7.1.1.1.1.1.2 0 0 0 .1-.1.2l-1.1 1.6zm-2.3-5.2c.3-.7.5-1.5.7-2.4s.3-1.9.3-2.9h-1.4c-.3 2-.5 3.5-.8 4.4q.3.3 1.2.9m3.6-2.9h3.4v-2c0-.1.1-.2.2-.3l1.2-.9c.4-.4.7-.7.9-1h-5.2q-.3 0-.3-.3V1.4q0-.3.3-.3h7.6q.3 0 .3.3v1.8c0 .1 0 .2-.1.3-.3.5-.6.9-1.1 1.5-.4.5-.9 1-1.4 1.4v1.4h2.9q.3 0 .3.3v1.8q0 .3-.3.3h-2.9v4.1q0 1.2-.3 1.8c-.2.4-.5.7-1.1.9s-1.3.3-2.4.3h-.5c-.2 0-.3-.1-.3-.2l-.6-1.8v-.1c0-.1 0-.1.1-.1h1.1c.5 0 .9 0 1.2-.1.2-.1.4-.2.4-.4.1-.2.1-.4.1-.8v-3.6h-3.4q-.3 0-.3-.3V8c-.1-.2 0-.2.2-.2m22.6 8.1s-.1 0-.2-.1c-.5-.5-1-1.1-1.7-1.7-.4.5-.9 1.1-1.4 1.6s-1.1 1-1.7 1.4c0 0-.1.1-.2.1 0 0-.1 0-.2-.1l-1.2-1.6-.1-.1c0-.1 0-.1.1-.2.6-.3 1.1-.6 1.6-1.1s1-.9 1.3-1.3c-.7-.6-1.5-1.1-2.3-1.7-.1-.1-.2-.2-.1-.3.4-1.5.7-3.2 1-5.2H256q-.3 0-.3-.3V3.5q0-.3.3-.3h1.4c.1-1 .1-1.9.1-2.4q0-.3.3-.3h1.7q.3 0 .3.3c0 .8-.1 1.6-.2 2.4h3.1q.3 0 .3.3c0 1.9-.1 3.5-.3 4.9s-.6 2.6-1.1 3.7c.7.6 1.3 1.2 1.8 1.7.1.1.1.1.1.2 0 0 0 .1-.1.2l-1.1 1.6s0 .1-.1.1m-2.3-5.2c.3-.7.5-1.5.7-2.4s.3-1.9.3-2.9h-1.4c-.3 2-.5 3.5-.8 4.4.2.2.7.5 1.2.9m3.6-2.9h3.5v-2c0-.1.1-.2.2-.3l1.2-.9c.4-.4.7-.7.9-1H264q-.3 0-.3-.3V1.4q0-.3.3-.3h7.6q.3 0 .3.3v1.8c0 .1 0 .2-.1.3-.3.5-.6.9-1.1 1.5-.4.5-.9 1-1.4 1.4v1.4h2.9q.3 0 .3.3v1.8q0 .3-.3.3h-2.9v4.1q0 1.2-.3 1.8c-.2.4-.5.7-1.1.9s-1.3.3-2.4.3h-.5c-.2 0-.3-.1-.3-.2l-.6-1.8v-.1c0-.1 0-.1.1-.1h1.1c.5 0 .9 0 1.2-.1.2-.1.4-.2.4-.4.1-.2.1-.4.1-.8v-3.6h-3.5q-.3 0-.3-.3V8c0-.2.1-.2.3-.2m23.7 8.2c-.5-.4-.7-1-.7-1.7q0-.6.3-1.2c.2-.4.4-.8.8-1.2l2-2c.8-.8 1.5-1.4 2.1-1.9h-4q-.3 0-.3-.3V6.6l-.3.3c-.1.1-.2.2-.4.3 0 0-.1.1-.2.1s-.1 0-.2-.1l-.7-1v8.2q0 .3-.3.3h-5.1q-.3 0-.3-.3V1.6q0-.3.3-.3h5.1q.3 0 .3.3v3.5c.6-.6 1.2-1.2 1.6-2s.8-1.6 1-2.4c0-.1.1-.2.3-.2h.1l1.7.3c.1 0 .1.1.2.1v.2l-.4 1.1h5.7q.3 0 .3.3v1.6q0 .3-.3.3H289c-.3.5-.7 1.1-1 1.5h7q.3 0 .3.3v1.5c0 .1-.1.2-.2.3-.9.6-1.9 1.5-3.1 2.5s-2.1 1.8-2.6 2.4c-.3.4-.5.7-.5.9s.1.3.2.5.4.2.7.2c.5 0 1 .1 1.6.1.5 0 .9 0 1.3-.1q.6 0 .9-.3c.2-.1.3-.4.4-.8s.2-.9.2-1.6c0-.1 0-.2.1-.2h.2l1.7.7c.1 0 .2.1.2.3v.1c-.1 1-.2 1.8-.4 2.3s-.5 1-.9 1.2c-.4.3-1 .4-1.8.5-.6 0-1.3.1-2 .1s-1.4 0-2.1-.1c-.8 0-1.5-.3-2-.7m-5-12.6v9.2h1.6V3.4zM310.6 7v10.4q0 .3-.3.3h-5q-.3 0-.3-.3v-1.8q0-.3.3-.3h2.7V7q0-.3.3-.3h2c.2.1.3.1.3.3m10 7.3V1.8q0-.3.3-.3h4.7q.3 0 .3.3v12.6q0 .3-.3.3h-4.7c-.2-.1-.3-.2-.3-.4m3.4-1.8v-9h-1.3v9zm3.1 4.5-1.3-.4c-.2-.1-.2-.2-.1-.3.3-.6.5-1.2.7-1.9s.3-1.4.4-2.1c0-.2.1-.2.3-.2l1.1.2c.2 0 .2.1.2.3 0 .7-.1 1.5-.3 2.3s-.3 1.5-.6 2.1zq.15 0 0 0m5.4 0-.3-1.2-.7.2h-.1c-.1 0-.1 0-.1-.1 0 0-.1-.1-.1-.2 0-1.2-.2-2.3-.5-3.4v-.1c0-.1.1-.2.2-.2l.7-.1h.1c.1 0 .2.1.2.2.3 1 .5 1.9.6 2.8.6 0 1-.1 1.3-.3s.5-.6.5-1.1c0-.6.1-1.4.1-2.2h-7.2c-.2 0-.2-.1-.2-.3V1.3q0-.3.3-.3h9.2q.3 0 .3.3v1.3q0 .3-.3.3h-2.9V4h2.4q.3 0 .3.3v1.1q0 .3-.3.3h-2.4v1.1h2.4q.3 0 .3.3v1.1q0 .3-.3.3h-2.4v1.1h2.8q.3 0 .3.3c0 1.9 0 3.4-.1 4.5s-.5 1.9-1 2.3c-.6.4-1.4.6-2.6.6-.4-.1-.5-.2-.5-.3m-3.6-.6v-1.2c0-1-.1-2-.1-2.8 0-.1.1-.2.2-.2l.9-.1h.1c.1 0 .2.1.2.2q.3 2.4.3 3.9c0 .2-.1.2-.2.3l-1 .1c-.3 0-.4 0-.4-.2M331.2 4V2.9h-2.1V4zm0 2.8V5.6h-2.1v1.1h2.1zm0 2.7V8.4h-2.1v1.1zm1.8 4.6c-.1-.6-.2-1.3-.5-2V12c0-.1.1-.2.2-.2l.5-.1h.1c.1 0 .2.1.2.2.2.6.4 1.3.6 1.9v.1c0 .1-.1.2-.2.2l-.6.2h-.1c-.1 0-.2 0-.2-.2m17.8-1.9-.1-3.5c0-.1 0-.1.1-.2s.1-.1.2-.1h.7c.9 0 1.7-.2 2.1-.6.5-.4.7-.9.7-1.6 0-.6-.2-1.1-.5-1.4-.4-.3-.9-.5-1.5-.5-1 0-1.8.5-2.3 1.6-.1.1-.2.1-.4.1l-2.1-.5c-.1 0-.2-.1-.2-.2v-.1c.4-1.1 1-1.9 1.9-2.5s1.9-.9 3.1-.9c.9 0 1.7.2 2.4.5s1.2.9 1.6 1.5c.4.7.6 1.4.6 2.3 0 .8-.2 1.5-.5 2.1-.3.7-.8 1.2-1.4 1.7-.6.4-1.3.7-2.2.9v1.6q0 .3-.3.3h-1.9c.1-.2 0-.3 0-.5m.1 4c-.3-.3-.5-.7-.5-1.1s.2-.8.5-1.1.7-.4 1.2-.4.8.1 1.1.4.5.7.5 1.1-.2.8-.5 1.1-.7.4-1.1.4c-.5.1-.9-.1-1.2-.4"/></svg>