<svg xmlns="http://www.w3.org/2000/svg" xml:space="preserve" width="150.8" height="276.1" style="overflow:visible" viewBox="0 0 150.8 276.1"><path d="m95.7 272.4 45.9-18.2-1.9-4.8-40.3-10.2z" style="fill:#231815"/><path d="M86.397 276.115-.026 59.519l9.287-3.706 86.424 216.596zm55.129-21.977L55.102 37.542l9.288-3.706 86.424 216.596zM45.88 41.202l-7.153-17.926 9.288-3.706 7.153 17.926zM9.3 55.815 2.145 37.89l9.288-3.706 7.153 17.925zm7.495-34.154L9.643 3.735 18.93.03l7.152 17.926z"/><path d="M38.752 23.334 11.445 34.23 4.292 16.304 31.6 5.408zm85.171 186.709-45.882 18.308L16.484 74.077l45.883-18.308z"/><path d="m62.461 55.855-9.288 3.706-3.706-9.288 9.288-3.706z"/><path d="m40.4 53.9-3.7-9.3-9.2 3.7 3.6 9.3-9.2 3.7 63.6 164.1L104 218z" style="fill:#b5b5b6"/><path d="m142.88 253.6-48.484 19.346-14.416-36.13 48.483-19.346z"/><path d="M77.9 218.9h49.4v8.6H77.9z" style="fill:#fff" transform="rotate(-21.752 102.634 223.215)"/></svg>