<!-- Generator: Adobe Illustrator 25.0.0, SVG Export Plug-In  -->
<svg version="1.1" xmlns="http://www.w3.org/2000/svg" xmlns:xlink="http://www.w3.org/1999/xlink" x="0px" y="0px" width="289px"
	 height="53.1px" viewBox="0 0 289 53.1" style="overflow:visible;enable-background:new 0 0 289 53.1;" xml:space="preserve">
<style type="text/css">
	.st0{enable-background:new    ;}
	.st1{fill:#FFFFFF;}
</style>
<defs>
</defs>
<g class="st0">
	<path class="st1" d="M6.2,53H0.8C0.3,53,0,52.7,0,52.2V2.1c0-0.5,0.3-0.8,0.8-0.8h21c0.5,0,0.8,0.3,0.8,0.8v19.3
		c0,0.5-0.3,0.8-0.8,0.8H7v30C7,52.7,6.8,53,6.2,53z M7,6.8v3h9.1v-3H7z M7,14v3.1h9.1V14H7z M9.9,39.8v-4.2c0-0.5,0.3-0.8,0.8-0.8
		h4.9l0.1-1.5v-3.1h-3.9c-0.5,0-0.8-0.3-0.8-0.8v-3.8c0-0.5,0.3-0.8,0.8-0.8h25.1c0.5,0,0.8,0.3,0.8,0.8v3.8c0,0.5-0.3,0.8-0.8,0.8
		h-3.5v4.6h4.5c0.5,0,0.8,0.3,0.8,0.8v4.2c0,0.5-0.3,0.8-0.8,0.8h-4.5V51c0,0.5-0.3,0.8-0.8,0.8h-4.7c-0.5,0-0.8-0.3-0.8-0.8V40.6
		h-5.4c-0.3,2.4-1,4.6-1.9,6.5c-0.9,1.9-2.2,3.5-3.9,4.8c0,0-0.1,0.1-0.2,0.1c-0.1,0.1-0.2,0.1-0.3,0.1c-0.2,0-0.4-0.1-0.6-0.2
		l-4.5-2.7c-0.3-0.2-0.4-0.3-0.4-0.6c0-0.2,0.1-0.4,0.4-0.5c1.5-0.9,2.7-2,3.5-3.2c0.8-1.2,1.3-2.6,1.7-4.3h-4.6
		C10.2,40.6,9.9,40.3,9.9,39.8z M22,30.1v3L22,34.7h5.1v-4.6H22z M25.8,21.4V2.1c0-0.5,0.3-0.8,0.8-0.8h21.2c0.5,0,0.8,0.3,0.8,0.8
		v41.3c0,2.4-0.2,4.2-0.7,5.5c-0.5,1.3-1.3,2.3-2.6,2.9c-1.2,0.7-3.1,1-5.5,1h-1.6c-0.5,0-0.8-0.2-0.9-0.6l-1.7-4.8
		c0-0.1,0-0.2-0.1-0.3c0-0.4,0.3-0.6,0.8-0.6c1.4,0,2.5-0.1,3.2-0.3c0.7-0.2,1.2-0.6,1.5-1.2c0.3-0.6,0.4-1.4,0.4-2.5V22.2h-15
		C26.1,22.2,25.8,21.9,25.8,21.4z M32.3,6.8v3h9.3v-3H32.3z M32.3,14v3.1h9.3V14H32.3z"/>
	<path class="st1" d="M80.2,52.5l-3.7-5.1c-0.1-0.2-0.2-0.3-0.2-0.5c0-0.3,0.1-0.5,0.4-0.6c3.4-1.7,6.3-4.2,8.7-7.3
		c-2.6-2.1-4.9-3.8-6.9-5.2c-0.4-0.3-0.5-0.6-0.4-1.1c1.4-5,2.4-10.7,3.3-17.1h-3.3c-0.5,0-0.8-0.3-0.8-0.8V9.5
		c0-0.5,0.3-0.8,0.8-0.8h4c0.3-3.2,0.4-5.8,0.4-7.9c0-0.5,0.3-0.8,0.8-0.8l5.4,0.1c0.5,0,0.8,0.3,0.8,0.8c0,2.4-0.2,5-0.5,7.8h9.3
		c0.5,0,0.8,0.3,0.8,0.8c0,5.9-0.4,11-1,15.5c-0.6,4.5-1.8,8.6-3.4,12.2c1.8,1.6,3.7,3.4,5.6,5.4c0.2,0.2,0.3,0.4,0.3,0.6
		c0,0.2-0.1,0.3-0.2,0.5l-3.4,5c-0.2,0.3-0.4,0.4-0.6,0.4c-0.2,0-0.3-0.1-0.5-0.3c-1.6-1.7-3.3-3.5-5.1-5.2
		c-2.6,3.6-5.6,6.6-9.2,9.1c-0.2,0.1-0.3,0.2-0.5,0.2C80.6,52.8,80.4,52.7,80.2,52.5z M91.4,25c0.5-3,0.8-6.1,0.8-9.5h-3.9
		c-0.9,6.4-1.7,11.2-2.6,14.5c1.1,0.7,2.3,1.6,3.6,2.7C90.2,30.5,90.9,27.9,91.4,25z M124.7,27c-0.3,0-0.5-0.2-0.7-0.6l-1-3.2
		c-6.4,1-13.3,1.8-20.8,2.4H102c-0.2,0-0.4-0.1-0.6-0.2c-0.2-0.1-0.3-0.3-0.4-0.5l-1-4c0-0.2-0.1-0.4-0.1-0.8c0-0.6,0.3-1.4,0.9-2.3
		c0.9-1.5,2.1-4.1,3.8-7.9c1.7-3.8,2.8-6.8,3.4-9.2c0.1-0.4,0.4-0.6,0.8-0.6c0.3,0,0.6,0.1,0.9,0.2l5.2,1.1c0.6,0.1,0.8,0.4,0.6,1
		c-1.6,4.5-4,9.9-7.3,16.2c1.8-0.2,4.8-0.5,9.1-1.1l3.3-0.5c-1.3-2.8-2.7-5.3-4.2-7.7C116.1,9.1,116,9,116,8.8
		c0-0.3,0.2-0.5,0.5-0.6l4.7-1.8c0.1,0,0.2-0.1,0.4-0.1c0.3,0,0.5,0.1,0.6,0.4c3.7,5.7,6.6,11.5,8.5,17.3c0,0.1,0.1,0.2,0.1,0.3
		c0,0.3-0.2,0.6-0.6,0.7l-5.2,1.8C124.9,27,124.8,27,124.7,27z M101.7,51.1V29.5c0-0.5,0.3-0.8,0.8-0.8h24.3c0.5,0,0.8,0.3,0.8,0.8
		v21.6c0,0.5-0.3,0.8-0.8,0.8h-24.3C102,52,101.7,51.7,101.7,51.1z M120.7,45.6V35h-12.2v10.6H120.7z"/>
	<path class="st1" d="M156,19.4c0-0.2,0.1-0.4,0.2-0.5l3-4.4c0.3-0.4,0.7-0.5,1.1-0.3c3.3,1.5,6.4,3.4,9.2,5.8
		c0.2,0.2,0.3,0.4,0.3,0.6c0,0.2-0.1,0.3-0.2,0.5l-3.3,4.6c-0.2,0.3-0.4,0.4-0.6,0.4c-0.2,0-0.3-0.1-0.5-0.3
		c-2.4-2.2-5.4-4.1-8.8-5.8C156.2,19.8,156,19.6,156,19.4z M156.1,47.4l0.1-0.5c1.4-2.5,2.6-5.2,3.7-8.3s2.1-6.1,2.9-9.3
		c0.1-0.3,0.2-0.5,0.4-0.6c0.2-0.1,0.4-0.1,0.7,0.1l4.8,2.4c0.4,0.2,0.6,0.6,0.5,1c-0.7,3.1-1.5,6.3-2.6,9.6s-2.3,6.1-3.6,8.6
		c-0.2,0.3-0.4,0.5-0.6,0.5c-0.1,0-0.3,0-0.4-0.1l-5.2-2.9C156.3,47.9,156.1,47.7,156.1,47.4z M156.7,5.7c0-0.2,0.1-0.3,0.2-0.5
		l3.3-4.4c0.2-0.3,0.4-0.5,0.7-0.5c0.1,0,0.3,0,0.4,0.1c1.5,0.7,3,1.6,4.5,2.6c1.5,1,2.9,2.2,4.1,3.3c0.2,0.2,0.3,0.4,0.3,0.6
		c0,0.2-0.1,0.3-0.2,0.6l-3.5,4.6c-0.2,0.2-0.3,0.3-0.5,0.3s-0.4-0.1-0.6-0.3c-1.1-1.1-2.4-2.2-3.9-3.2c-1.5-1.1-2.9-2-4.3-2.7
		C156.9,6.1,156.7,5.9,156.7,5.7z M167.7,49.4c0-0.2,0.1-0.4,0.3-0.6c2.4-1.9,4.3-4.5,5.6-7.6c0.2-0.5,0.6-0.6,1-0.4l4.5,2
		c0.5,0.2,0.6,0.6,0.4,1c-0.7,1.7-1.5,3.3-2.5,4.8s-2,2.9-3.2,4c-0.2,0.2-0.4,0.3-0.6,0.3c-0.2,0-0.3-0.1-0.5-0.2l-4.7-2.8
		C167.8,49.8,167.7,49.6,167.7,49.4z M171.8,1.6h16.6c0.5,0,0.8,0.3,0.8,0.8v37.4c0,0.5-0.3,0.8-0.8,0.8h-16.6
		c-0.5,0-0.8-0.3-0.8-0.8V2.4C171,1.8,171.3,1.6,171.8,1.6z M176.9,7.6v5.5h6.4V7.6H176.9z M176.9,18.4v5.2h6.4v-5.2H176.9z
		 M176.9,29v5.6h6.4V29H176.9z M183.6,47.8c-0.8-1.4-1.8-2.6-2.8-3.8c-0.2-0.2-0.2-0.3-0.2-0.6c0-0.3,0.2-0.5,0.5-0.6l4-2
		c0.1-0.1,0.3-0.1,0.5-0.1c0.2,0,0.4,0.1,0.6,0.3c0.9,0.9,1.9,2.1,2.8,3.4c0.9,1.4,1.7,2.7,2.4,3.9c0.1,0.2,0.1,0.3,0.1,0.4
		c0,0.2-0.2,0.4-0.5,0.6l-4.4,2.7c-0.2,0.1-0.3,0.2-0.5,0.2c-0.2,0-0.4-0.2-0.6-0.5C185.1,50.5,184.4,49.2,183.6,47.8z M192.8,3.8
		h4.5c0.5,0,0.8,0.3,0.8,0.8v34.1c0,0.5-0.3,0.8-0.8,0.8h-4.5c-0.5,0-0.8-0.3-0.8-0.8V4.6C192,4.1,192.3,3.8,192.8,3.8z M193.7,46.4
		c0-0.2,0.1-0.3,0.2-0.4c0.1-0.1,0.3-0.1,0.6-0.1L197,46c1.8,0,3-0.2,3.5-0.7c0.6-0.5,0.9-1.3,0.9-2.5V0.8c0-0.5,0.3-0.8,0.8-0.8
		h4.8c0.5,0,0.8,0.3,0.8,0.8v43.9c0,2.2-0.3,3.9-0.8,5c-0.5,1.2-1.4,2-2.7,2.6c-1.3,0.5-3.2,0.8-5.8,0.8c-0.8,0-1.5,0-1.9-0.1
		c-0.5-0.1-0.8-0.3-0.9-0.6l-2-5.6C193.8,46.7,193.7,46.6,193.7,46.4z"/>
	<path class="st1" d="M235.7,39.2v-2.2c0-0.6,0.3-0.8,0.8-0.8l2.3,0.2c0.5,0.1,0.8,0.3,0.8,0.8l0.1,3.3c0,4.1-0.2,7.7-0.6,10.7
		c-0.1,0.5-0.4,0.8-0.9,0.6l-2.7-0.7c-0.4-0.1-0.6-0.4-0.6-0.8v-0.1C235.4,46.8,235.7,43.1,235.7,39.2z M261.2,53
		c-0.2,0-0.4-0.1-0.6-0.3l-3.7-3.5c-0.6,1.4-1.5,2.3-2.6,2.9c-1.1,0.6-2.8,0.9-4.9,0.9c-0.4,0-0.7,0-0.9-0.1
		c-0.2-0.1-0.3-0.3-0.4-0.6l-1.6-4.7c0-0.1,0-0.2-0.1-0.3c0-0.2,0.1-0.3,0.2-0.5s0.3-0.2,0.6-0.1c1.5,0,2.6,0,3.3-0.2
		c0.7-0.2,1.2-0.5,1.6-1c0.3-0.5,0.6-1.3,0.7-2.4l0.2-1.5c-0.1,0.1-0.2,0.2-0.3,0.2l-0.8,0.3c-0.1,0-0.3,0.1-0.4,0.1
		c-0.3,0-0.5-0.2-0.6-0.6c-0.3-1.9-0.8-3.5-1.5-4.9c0-0.1-0.1-0.2-0.1-0.4c0-0.3,0.2-0.5,0.5-0.6l0.6-0.2c0.1,0,0.2-0.1,0.3-0.1
		c0.3,0,0.6,0.2,0.7,0.5c0.7,1.5,1.2,2.9,1.5,4.2L253,34h-15.5c-0.5,0-0.8-0.3-0.8-0.8v-31c0-0.5,0.3-0.8,0.8-0.8h20.5
		c0.5,0,0.8,0.3,0.8,0.8v4.3c0,0.5-0.3,0.8-0.8,0.8h-5.2v3.7h3.4c0.5,0,0.8,0.3,0.8,0.8c2.6-1.1,5-2.7,7.3-4.7
		c2.2-2.1,3.9-4.2,5-6.4c0.2-0.4,0.5-0.6,0.9-0.6h4.9c0.4,0,0.8,0.2,1,0.5c1.4,2.2,3.2,4.3,5.3,6.3s4.5,3.4,6.9,4.4
		c0.3,0.2,0.5,0.4,0.5,0.6c0,0.1-0.1,0.3-0.1,0.4l-2.2,5.3c-0.2,0.5-0.6,0.6-1.1,0.4c-1.5-0.8-3.1-1.8-4.7-3.1v2.2
		c0,0.5-0.3,0.8-0.8,0.8h-13.8c-0.5,0-0.8-0.3-0.8-0.8V15c-1.7,1.5-3.4,2.6-4.9,3.3c-0.1,0.1-0.2,0.1-0.4,0.1
		c-0.3,0-0.5-0.2-0.7-0.5l-2.3-4.5v1.9c0,0.5-0.3,0.8-0.8,0.8h-3.4v3.7h3.8c0.5,0,0.8,0.3,0.8,0.8V24c0,0.5-0.3,0.8-0.8,0.8h-3.8
		v3.5h4.8c0.5,0,0.8,0.3,0.8,0.8c-0.1,6.7-0.3,11.6-0.5,14.4c-0.2,1.7-0.4,3.1-0.7,4.2c1.7-1.1,3.1-2.5,4.2-4.1
		c1.1-1.6,1.8-3.4,2.1-5.1c0-0.3,0.1-0.5,0.3-0.6c0.2-0.1,0.4-0.2,0.6-0.1l4.4,0.8c0.5,0,0.7,0.3,0.7,0.6c0,0.5-0.2,1.2-0.5,2.2
		c1.2,1.8,2.8,3.3,4.9,4.3c1.8-1.9,2.9-4.3,3.3-7.2c0.1-0.5,0.4-0.8,0.9-0.7l4.4,0.6c0.3,0,0.5,0.1,0.6,0.3c0.1,0.2,0.2,0.4,0.1,0.6
		c-0.1,0.9-0.3,1.7-0.5,2.6c1.2,1.8,3,3.3,5.2,4.5c0.3,0.2,0.5,0.4,0.5,0.6c0,0.1-0.1,0.3-0.1,0.4l-2.2,4.4
		c-0.1,0.3-0.3,0.5-0.6,0.5l-0.5-0.1c-1.9-1.2-3.4-2.7-4.7-4.6c-1.2,2.1-2.6,3.7-4.2,4.9c-0.2,0.2-0.3,0.2-0.5,0.2
		c-0.2,0-0.4-0.1-0.6-0.2l-2.5-2.3l-0.5,0.8c-0.2,0.3-0.4,0.5-0.6,0.5c-0.1,0-0.3-0.1-0.5-0.2c-1.6-1.1-3-2.5-4.2-4.3
		c-1.4,2.4-3,4.3-4.9,5.6C261.5,52.9,261.4,53,261.2,53z M241.5,36.7l1.5-0.2l0.2-0.1c0.5,0,0.7,0.2,0.8,0.7c0.7,3.6,1,7.1,1,10.6
		c0,0.6-0.3,1-0.8,1l-2.1,0.3c-0.5,0-0.7-0.3-0.7-0.8l0.1-2.6c0-3.1-0.2-5.8-0.6-8.1v-0.2C240.8,36.9,241,36.7,241.5,36.7z
		 M247.3,7.4H243v3.7h4.4V7.4z M247.3,16.1H243v3.7h4.4V16.1z M247.3,24.8H243v3.5h4.4V24.8z M245.3,37.1c0-0.3,0.2-0.6,0.6-0.7
		l1-0.3h0.3c0.4,0,0.6,0.2,0.8,0.6c0.9,2.6,1.4,5.4,1.7,8.4v0.2c0,0.4-0.2,0.6-0.6,0.8l-1.6,0.4c-0.1,0-0.2,0-0.3,0.1
		c-0.4,0-0.6-0.2-0.6-0.7c-0.1-3.1-0.5-5.9-1.2-8.4C245.3,37.2,245.3,37.1,245.3,37.1z M260.8,20.4h10.8c0.5,0,0.8,0.3,0.8,0.8v15.4
		c0,0.5-0.3,0.8-0.8,0.8h-10.8c-0.5,0-0.8-0.3-0.8-0.8V21.2C260,20.6,260.3,20.4,260.8,20.4z M268,25.8h-3.3V32h3.3V25.8z M272.9,6
		c-1.1,2.1-2.7,4.2-4.7,6.3h9.7C275.7,10.1,274,8,272.9,6z M275.1,20.4h10.9c0.5,0,0.8,0.3,0.8,0.8v15.4c0,0.5-0.3,0.8-0.8,0.8
		h-10.9c-0.5,0-0.8-0.3-0.8-0.8V21.2C274.3,20.6,274.6,20.4,275.1,20.4z M282.2,25.8h-3.4V32h3.4V25.8z"/>
</g>
</svg>
