<svg xmlns="http://www.w3.org/2000/svg" xml:space="preserve" width="289" height="53.1" style="overflow:visible" viewBox="0 0 289 53.1"><path fill="#fff" d="M6.2 53H.8c-.5 0-.8-.3-.8-.8V2.1c0-.5.3-.8.8-.8h21c.5 0 .8.3.8.8v19.3c0 .5-.3.8-.8.8H7v30c0 .5-.2.8-.8.8M7 6.8v3h9.1v-3zM7 14v3.1h9.1V14zm2.9 25.8v-4.2c0-.5.3-.8.8-.8h4.9l.1-1.5v-3.1h-3.9c-.5 0-.8-.3-.8-.8v-3.8c0-.5.3-.8.8-.8h25.1c.5 0 .8.3.8.8v3.8c0 .5-.3.8-.8.8h-3.5v4.6h4.5c.5 0 .8.3.8.8v4.2c0 .5-.3.8-.8.8h-4.5V51c0 .5-.3.8-.8.8h-4.7c-.5 0-.8-.3-.8-.8V40.6h-5.4c-.3 2.4-1 4.6-1.9 6.5q-1.35 2.85-3.9 4.8s-.1.1-.2.1c-.1.1-.2.1-.3.1-.2 0-.4-.1-.6-.2l-4.5-2.7c-.3-.2-.4-.3-.4-.6 0-.2.1-.4.4-.5 1.5-.9 2.7-2 3.5-3.2s1.3-2.6 1.7-4.3h-4.6c-.7 0-1-.3-1-.8M22 30.1v4.6h5.1v-4.6zm3.8-8.7V2.1c0-.5.3-.8.8-.8h21.2c.5 0 .8.3.8.8v41.3c0 2.4-.2 4.2-.7 5.5s-1.3 2.3-2.6 2.9c-1.2.7-3.1 1-5.5 1h-1.6q-.75 0-.9-.6l-1.7-4.8c0-.1 0-.2-.1-.3 0-.4.3-.6.8-.6 1.4 0 2.5-.1 3.2-.3q1.05-.3 1.5-1.2c.3-.6.4-1.4.4-2.5V22.2h-15c-.3 0-.6-.3-.6-.8m6.5-14.6v3h9.3v-3zm0 7.2v3.1h9.3V14zm47.9 38.5-3.7-5.1c-.1-.2-.2-.3-.2-.5 0-.3.1-.5.4-.6 3.4-1.7 6.3-4.2 8.7-7.3-2.6-2.1-4.9-3.8-6.9-5.2-.4-.3-.5-.6-.4-1.1 1.4-5 2.4-10.7 3.3-17.1h-3.3c-.5 0-.8-.3-.8-.8V9.5c0-.5.3-.8.8-.8h4c.3-3.2.4-5.8.4-7.9 0-.5.3-.8.8-.8l5.4.1c.5 0 .8.3.8.8 0 2.4-.2 5-.5 7.8h9.3c.5 0 .8.3.8.8 0 5.9-.4 11-1 15.5s-1.8 8.6-3.4 12.2c1.8 1.6 3.7 3.4 5.6 5.4q.3.3.3.6c0 .2-.1.3-.2.5l-3.4 5c-.2.3-.4.4-.6.4s-.3-.1-.5-.3c-1.6-1.7-3.3-3.5-5.1-5.2-2.6 3.6-5.6 6.6-9.2 9.1-.2.1-.3.2-.5.2-.5-.1-.7-.2-.9-.4M91.4 25c.5-3 .8-6.1.8-9.5h-3.9c-.9 6.4-1.7 11.2-2.6 14.5q1.65 1.05 3.6 2.7c.9-2.2 1.6-4.8 2.1-7.7m33.3 2c-.3 0-.5-.2-.7-.6l-1-3.2c-6.4 1-13.3 1.8-20.8 2.4h-.2c-.2 0-.4-.1-.6-.2s-.3-.3-.4-.5l-1-4c0-.2-.1-.4-.1-.8 0-.6.3-1.4.9-2.3.9-1.5 2.1-4.1 3.8-7.9s2.8-6.8 3.4-9.2c.1-.4.4-.6.8-.6.3 0 .6.1.9.2l5.2 1.1c.6.1.8.4.6 1-1.6 4.5-4 9.9-7.3 16.2 1.8-.2 4.8-.5 9.1-1.1l3.3-.5c-1.3-2.8-2.7-5.3-4.2-7.7-.3-.2-.4-.3-.4-.5 0-.3.2-.5.5-.6l4.7-1.8c.1 0 .2-.1.4-.1.3 0 .5.1.6.4 3.7 5.7 6.6 11.5 8.5 17.3 0 .1.1.2.1.3 0 .3-.2.6-.6.7l-5.2 1.8c-.1.2-.2.2-.3.2m-23 24.1V29.5c0-.5.3-.8.8-.8h24.3c.5 0 .8.3.8.8v21.6c0 .5-.3.8-.8.8h-24.3c-.5.1-.8-.2-.8-.8m19-5.5V35h-12.2v10.6zM156 19.4c0-.2.1-.4.2-.5l3-4.4c.3-.4.7-.5 1.1-.3 3.3 1.5 6.4 3.4 9.2 5.8q.3.3.3.6c0 .2-.1.3-.2.5l-3.3 4.6c-.2.3-.4.4-.6.4s-.3-.1-.5-.3c-2.4-2.2-5.4-4.1-8.8-5.8-.2-.2-.4-.4-.4-.6m.1 28 .1-.5c1.4-2.5 2.6-5.2 3.7-8.3s2.1-6.1 2.9-9.3c.1-.3.2-.5.4-.6s.4-.1.7.1l4.8 2.4c.4.2.6.6.5 1-.7 3.1-1.5 6.3-2.6 9.6s-2.3 6.1-3.6 8.6c-.2.3-.4.5-.6.5-.1 0-.3 0-.4-.1l-5.2-2.9c-.5 0-.7-.2-.7-.5m.6-41.7c0-.2.1-.3.2-.5l3.3-4.4c.2-.3.4-.5.7-.5.1 0 .3 0 .4.1 1.5.7 3 1.6 4.5 2.6s2.9 2.2 4.1 3.3q.3.3.3.6c0 .2-.1.3-.2.6l-3.5 4.6c-.2.2-.3.3-.5.3s-.4-.1-.6-.3c-1.1-1.1-2.4-2.2-3.9-3.2-1.5-1.1-2.9-2-4.3-2.7-.3-.1-.5-.3-.5-.5m11 43.7q0-.3.3-.6c2.4-1.9 4.3-4.5 5.6-7.6.2-.5.6-.6 1-.4l4.5 2c.5.2.6.6.4 1-.7 1.7-1.5 3.3-2.5 4.8s-2 2.9-3.2 4q-.3.3-.6.3c-.2 0-.3-.1-.5-.2l-4.7-2.8c-.2-.1-.3-.3-.3-.5m4.1-47.8h16.6c.5 0 .8.3.8.8v37.4c0 .5-.3.8-.8.8h-16.6c-.5 0-.8-.3-.8-.8V2.4c0-.6.3-.8.8-.8m5.1 6v5.5h6.4V7.6zm0 10.8v5.2h6.4v-5.2zm0 10.6v5.6h6.4V29zm6.7 18.8c-.8-1.4-1.8-2.6-2.8-3.8-.2-.2-.2-.3-.2-.6s.2-.5.5-.6l4-2c.1-.1.3-.1.5-.1q.3 0 .6.3c.9.9 1.9 2.1 2.8 3.4q1.35 2.1 2.4 3.9c.1.2.1.3.1.4 0 .2-.2.4-.5.6l-4.4 2.7c-.2.1-.3.2-.5.2s-.4-.2-.6-.5c-.4-1.2-1.1-2.5-1.9-3.9m9.2-44h4.5c.5 0 .8.3.8.8v34.1c0 .5-.3.8-.8.8h-4.5c-.5 0-.8-.3-.8-.8V4.6c0-.5.3-.8.8-.8m.9 42.6c0-.2.1-.3.2-.4s.3-.1.6-.1l2.5.1c1.8 0 3-.2 3.5-.7.6-.5.9-1.3.9-2.5V.8c0-.5.3-.8.8-.8h4.8c.5 0 .8.3.8.8v43.9c0 2.2-.3 3.9-.8 5-.5 1.2-1.4 2-2.7 2.6-1.3.5-3.2.8-5.8.8-.8 0-1.5 0-1.9-.1q-.75-.15-.9-.6l-2-5.6c.1-.1 0-.2 0-.4m42-7.2V37c0-.6.3-.8.8-.8l2.3.2c.5.1.8.3.8.8l.1 3.3c0 4.1-.2 7.7-.6 10.7-.1.5-.4.8-.9.6l-2.7-.7c-.4-.1-.6-.4-.6-.8v-.1c.5-3.4.8-7.1.8-11M261.2 53q-.3 0-.6-.3l-3.7-3.5c-.6 1.4-1.5 2.3-2.6 2.9s-2.8.9-4.9.9c-.4 0-.7 0-.9-.1s-.3-.3-.4-.6l-1.6-4.7c0-.1 0-.2-.1-.3 0-.2.1-.3.2-.5s.3-.2.6-.1c1.5 0 2.6 0 3.3-.2s1.2-.5 1.6-1c.3-.5.6-1.3.7-2.4l.2-1.5c-.1.1-.2.2-.3.2l-.8.3c-.1 0-.3.1-.4.1q-.45 0-.6-.6c-.3-1.9-.8-3.5-1.5-4.9 0-.1-.1-.2-.1-.4 0-.3.2-.5.5-.6l.6-.2c.1 0 .2-.1.3-.1.3 0 .6.2.7.5q1.05 2.25 1.5 4.2l.1-6.1h-15.5c-.5 0-.8-.3-.8-.8v-31c0-.5.3-.8.8-.8H258c.5 0 .8.3.8.8v4.3c0 .5-.3.8-.8.8h-5.2V11h3.4c.5 0 .8.3.8.8 2.6-1.1 5-2.7 7.3-4.7 2.2-2.1 3.9-4.2 5-6.4q.3-.6.9-.6h4.9c.4 0 .8.2 1 .5 1.4 2.2 3.2 4.3 5.3 6.3s4.5 3.4 6.9 4.4c.3.2.5.4.5.6 0 .1-.1.3-.1.4l-2.2 5.3c-.2.5-.6.6-1.1.4-1.5-.8-3.1-1.8-4.7-3.1v2.2c0 .5-.3.8-.8.8h-13.8c-.5 0-.8-.3-.8-.8V15c-1.7 1.5-3.4 2.6-4.9 3.3-.1.1-.2.1-.4.1-.3 0-.5-.2-.7-.5l-2.3-4.5v1.9c0 .5-.3.8-.8.8h-3.4v3.7h3.8c.5 0 .8.3.8.8V24c0 .5-.3.8-.8.8h-3.8v3.5h4.8c.5 0 .8.3.8.8-.1 6.7-.3 11.6-.5 14.4-.2 1.7-.4 3.1-.7 4.2 1.7-1.1 3.1-2.5 4.2-4.1s1.8-3.4 2.1-5.1q0-.45.3-.6c.2-.1.4-.2.6-.1l4.4.8c.5 0 .7.3.7.6 0 .5-.2 1.2-.5 2.2 1.2 1.8 2.8 3.3 4.9 4.3q2.7-2.85 3.3-7.2c.1-.5.4-.8.9-.7l4.4.6q.45 0 .6.3c.1.2.2.4.1.6-.1.9-.3 1.7-.5 2.6 1.2 1.8 3 3.3 5.2 4.5.3.2.5.4.5.6 0 .1-.1.3-.1.4l-2.2 4.4c-.1.3-.3.5-.6.5l-.5-.1c-1.9-1.2-3.4-2.7-4.7-4.6-1.2 2.1-2.6 3.7-4.2 4.9-.2.2-.3.2-.5.2s-.4-.1-.6-.2l-2.5-2.3-.5.8c-.2.3-.4.5-.6.5-.1 0-.3-.1-.5-.2-1.6-1.1-3-2.5-4.2-4.3-1.4 2.4-3 4.3-4.9 5.6-.3.3-.4.4-.6.4m-19.7-16.3 1.5-.2.2-.1c.5 0 .7.2.8.7.7 3.6 1 7.1 1 10.6 0 .6-.3 1-.8 1l-2.1.3c-.5 0-.7-.3-.7-.8l.1-2.6q0-4.65-.6-8.1v-.2q-.15-.6.6-.6m5.8-29.3H243v3.7h4.4V7.4zm0 8.7H243v3.7h4.4v-3.7zm0 8.7H243v3.5h4.4v-3.5zm-2 12.3c0-.3.2-.6.6-.7l1-.3h.3c.4 0 .6.2.8.6.9 2.6 1.4 5.4 1.7 8.4v.2c0 .4-.2.6-.6.8l-1.6.4c-.1 0-.2 0-.3.1-.4 0-.6-.2-.6-.7q-.15-4.65-1.2-8.4c-.1-.3-.1-.4-.1-.4m15.5-16.7h10.8c.5 0 .8.3.8.8v15.4c0 .5-.3.8-.8.8h-10.8c-.5 0-.8-.3-.8-.8V21.2c0-.6.3-.8.8-.8m7.2 5.4h-3.3V32h3.3zM272.9 6c-1.1 2.1-2.7 4.2-4.7 6.3h9.7c-2.2-2.2-3.9-4.3-5-6.3m2.2 14.4H286c.5 0 .8.3.8.8v15.4c0 .5-.3.8-.8.8h-10.9c-.5 0-.8-.3-.8-.8V21.2c0-.6.3-.8.8-.8m7.1 5.4h-3.4V32h3.4z"/></svg>