<!-- Generator: Adobe Illustrator 25.0.0, SVG Export Plug-In  -->
<svg version="1.1" xmlns="http://www.w3.org/2000/svg" xmlns:xlink="http://www.w3.org/1999/xlink" x="0px" y="0px" width="173.9px"
	 height="35.2px" viewBox="0 0 173.9 35.2" style="overflow:visible;enable-background:new 0 0 173.9 35.2;" xml:space="preserve">
<style type="text/css">
	.st0{fill:#040000;}
</style>
<defs>
</defs>
<g>
	<path class="st0" d="M10.1,35.1C9.9,35,9.8,35,9.7,35c-0.1-0.1-0.2-0.2-0.2-0.3l-1.4-3.8c0-0.1,0-0.1,0-0.2c0-0.1,0-0.2,0.1-0.3
		c0.1-0.1,0.2-0.1,0.3-0.1l2.3,0.1c1.3,0,2.2-0.1,2.9-0.3s1.1-0.5,1.3-0.8c0.2-0.3,0.3-0.8,0.3-1.3v-3.3H0.5c-0.4,0-0.5-0.2-0.5-0.5
		v-3.6C0,20.2,0.2,20,0.5,20h14.7v-4.2H2.9c-0.4,0-0.5-0.2-0.5-0.5v-3.5c0-0.4,0.2-0.5,0.5-0.5h12.4V7.3c-3.3,0.2-7,0.3-11.1,0.3
		c-0.3,0-0.5-0.2-0.6-0.5L2.7,3.9C2.6,3.7,2.6,3.5,2.6,3.4c0-0.3,0.2-0.4,0.5-0.4C8,3,12.8,2.8,17.4,2.5C22.1,2.2,26,1.7,29.2,1
		c0.3-0.1,0.5-0.1,0.6-0.1c0.2,0,0.4,0.1,0.5,0.3l1.9,3.5c0.1,0.1,0.1,0.2,0.1,0.3c0,0.2-0.1,0.3-0.4,0.3C28.1,6.1,24.3,6.7,20.6,7
		v4.2H32c0.4,0,0.5,0.2,0.5,0.5v3.5c0,0.4-0.2,0.5-0.5,0.5H20.6V20h13.6c0.4,0,0.5,0.2,0.5,0.5v3.6c0,0.4-0.2,0.5-0.5,0.5H20.6v3.8
		c0,1.6-0.2,2.9-0.7,3.9c-0.5,0.9-1.4,1.6-2.7,2.1c-1.3,0.5-3.3,0.7-5.8,0.7C10.8,35.1,10.3,35.1,10.1,35.1z"/>
	<path class="st0" d="M64.7,33.2c-0.4-0.4-0.8-0.9-1.2-1.5c-2,1.5-3.9,2.6-5.8,3.3c-0.1,0-0.2,0.1-0.3,0.1c-0.2,0-0.3-0.1-0.4-0.3
		l-2-2.7c-0.1-0.1-0.1-0.2-0.1-0.3c0-0.2,0.1-0.3,0.3-0.4c2.5-0.8,4.7-1.8,6.5-3.1c-0.6-1.7-1.2-3.9-1.6-6.5h-4.3L55.7,23
		c1.2,0.6,2.7,1.5,4.2,2.8c0.2,0.1,0.2,0.2,0.2,0.4c0,0.1,0,0.2-0.1,0.3l-1.4,2.5c-0.1,0.2-0.2,0.3-0.4,0.3c-0.1,0-0.2-0.1-0.3-0.2
		c-0.9-1-1.8-1.9-2.8-2.6c-0.8,3.3-2.3,6-4.4,8c-0.1,0.1-0.3,0.2-0.4,0.2c-0.1,0-0.2-0.1-0.3-0.2l-2.8-2.2c-0.2-0.1-0.2-0.2-0.2-0.3
		c0-0.2,0.1-0.3,0.3-0.4c1.4-1.1,2.5-2.5,3.2-4.2c0.7-1.7,1.1-3.6,1.2-5.6H50c-0.4,0-0.5-0.2-0.5-0.5v-2.7c0-0.4,0.2-0.5,0.5-0.5
		h9.5l-0.2-1.8c-0.1,0.1-0.2,0.2-0.4,0.3c-1,0.2-1.6,0.3-1.6,0.3c-0.2,0-0.4-0.2-0.4-0.5l-0.1-0.7c-2.3,0.4-4.4,0.7-6.2,0.9h-0.1
		c-0.2,0-0.4-0.2-0.5-0.5l-0.4-1.9l0-0.2c0-0.2,0.1-0.3,0.3-0.5c0.9-0.8,2-2.2,3.2-4l-2.8,0.3h-0.1c-0.3,0-0.4-0.2-0.5-0.5l-0.2-1.5
		v2c0,0.4-0.2,0.5-0.5,0.5h-2.1c0.4,1,0.8,2,1.4,3.2c0.6,1.2,1.1,2.1,1.6,2.9c0.1,0.2,0.1,0.4,0,0.6l-1.4,3.2
		c-0.1,0.2-0.2,0.3-0.4,0.3c-0.2,0-0.3-0.1-0.3-0.3c-0.5-1-0.9-2.2-1.2-3.7l0.1,18c0,0.4-0.2,0.5-0.5,0.5h-3.3
		c-0.4,0-0.5-0.2-0.5-0.5l0.1-15.2c-0.5,2.3-1.2,4.4-2.1,6.2c-0.1,0.2-0.2,0.3-0.3,0.3c-0.2,0-0.3-0.1-0.4-0.3l-1.8-3.4
		c-0.1-0.2-0.1-0.3-0.1-0.4c0-0.1,0-0.2,0.1-0.3c0.9-1.5,1.7-3.3,2.4-5.2c0.8-1.9,1.4-3.9,1.9-5.9h-2.5c-0.4,0-0.5-0.2-0.5-0.5V6.5
		c0-0.4,0.2-0.5,0.5-0.5h2.7V0.8c0-0.4,0.2-0.5,0.5-0.5h3.3c0.4,0,0.5,0.2,0.5,0.5v5.2H49c0.4,0,0.5,0.2,0.5,0.5v0.8
		c0.1-0.1,0.1-0.2,0.2-0.3c0.5-0.7,1-1.7,1.6-3.1c0.6-1.4,1-2.5,1.3-3.5C52.7,0.1,52.8,0,53,0c0.1,0,0.2,0,0.3,0l2.4,0.8
		C56,1,56.1,1.2,56,1.5c-0.9,1.9-1.8,3.7-2.8,5.3l1.8-0.3l1.2-2.3C56.2,4.1,56.3,4,56.5,4c0.1,0,0.2,0.1,0.4,0.2l1.8,0.9l-0.1-4.4
		c0-0.4,0.2-0.5,0.5-0.5l3.1,0c0.4,0,0.5,0.2,0.5,0.5c0,1.3,0.1,3.6,0.2,6.7L63.2,7c0.4-0.7,0.9-1.7,1.5-3c0.6-1.3,1-2.5,1.4-3.6
		c0.1-0.3,0.2-0.4,0.4-0.4c0.1,0,0.2,0,0.3,0L69,1c0.4,0.1,0.5,0.3,0.3,0.7c-1,2.1-2,3.9-2.9,5.3l1.8-0.3l1.3-2.4
		c0.2-0.3,0.4-0.4,0.7-0.2l2,1.1c0.4,0.2,0.4,0.4,0.2,0.7c-1.1,1.8-2.8,4.2-5.1,7.1c1-0.1,1.8-0.3,2.6-0.4l-0.5-1.3
		c0-0.1-0.1-0.2-0.1-0.3c0-0.2,0.1-0.3,0.4-0.4l1.6-0.5c0.1,0,0.1,0,0.2,0c0.2,0,0.4,0.1,0.5,0.3c0.3,0.7,0.6,1.6,0.9,2.5
		c0.3,0.9,0.5,1.8,0.7,2.7v0.2c0,0.3-0.1,0.4-0.4,0.5c-1.1,0.3-1.8,0.5-1.9,0.5c-0.3,0-0.4-0.2-0.5-0.5c0-0.2-0.1-0.5-0.2-0.9
		l-1.9,0.3c0.5,0.9,0.8,1.6,1,2.2H72c0.4,0,0.5,0.2,0.5,0.5v2.7c0,0.4-0.2,0.5-0.5,0.5h-7.7c0.2,0.9,0.5,2.1,0.9,3.5
		c0.9-1,1.5-2,2-2.9c0.2-0.3,0.4-0.4,0.7-0.2l2.4,1.3c0.2,0.1,0.3,0.3,0.3,0.4c0,0.1,0,0.2-0.1,0.3c-0.9,1.5-2.1,3.1-3.7,4.7
		l0.5,0.7c0.6,0.7,1.1,1.1,1.5,1.1c0.7,0,1.3-1,1.7-2.9c0.1-0.3,0.2-0.4,0.4-0.4c0.1,0,0.2,0.1,0.3,0.2l2.3,2
		c0.2,0.1,0.2,0.3,0.2,0.5c0,0.1,0,0.2,0,0.3c-0.4,1.6-1.1,2.9-2,3.7c-0.9,0.9-1.9,1.3-3,1.3C67.3,35.1,65.9,34.5,64.7,33.2z
		 M56.4,12.7L56,11.4c0-0.1,0-0.1,0-0.2c0-0.2,0.1-0.3,0.4-0.4l1.3-0.4l0.2,0c0.3,0,0.4,0.1,0.5,0.4c0.4,1.1,0.7,2.4,0.9,3.8
		c-0.3-2.9-0.4-5.7-0.5-8.2c-0.6,1-1.3,2.2-2.3,3.6c-1,1.4-1.9,2.5-2.6,3.4C54.9,13,55.8,12.9,56.4,12.7z M63.7,10
		c-0.2,0-0.4-0.2-0.5-0.5L63,7.8c0.2,4.4,0.5,7.7,0.8,10.1h2.7c-0.2-0.5-0.5-1.1-0.8-1.8l-1.1,0.1h-0.1c-0.3,0-0.4-0.2-0.5-0.5
		l-0.3-2v-0.2c0-0.2,0.1-0.4,0.2-0.5c0.9-1,1.7-2.1,2.5-3.4L63.9,10H63.7z"/>
	<path class="st0" d="M79.5,34.6L78.3,31c0-0.1,0-0.1,0-0.2c0-0.3,0.1-0.4,0.4-0.4l1.4,0c1.5,0,2.5-0.2,3.1-0.6
		c0.6-0.4,1-1.2,1.1-2.3c0.1-0.8,0.1-1.7,0.1-2.9h-6c-0.4,0-0.5-0.2-0.4-0.6c0.6-1.7,1.1-3.7,1.5-5.8h-2.5c-0.4,0-0.5-0.2-0.5-0.5
		V15c0-0.4,0.2-0.5,0.5-0.5h13c0.4,0,0.5,0.2,0.5,0.5v2.7c0,0.4-0.2,0.5-0.5,0.5h-6c-0.1,0.8-0.3,1.8-0.7,2.8h5.2
		c0.4,0,0.5,0.2,0.5,0.5c0,3-0.1,5.4-0.3,7.2c-0.2,1.6-0.5,2.9-1.2,3.8c-0.6,0.9-1.5,1.5-2.6,1.9S82.4,35,80.8,35h-0.7
		C79.8,35,79.6,34.9,79.5,34.6z M77.4,12V2c0-0.4,0.2-0.5,0.5-0.5h11.2c0.4,0,0.5,0.2,0.5,0.5v10c0,0.4-0.2,0.5-0.5,0.5H77.9
		C77.6,12.5,77.4,12.3,77.4,12z M85.8,9.1V5.2h-4.4v3.9H85.8z M88.6,32.7c1.1-2.1,1.8-4.5,2.2-7.2c0.4-2.7,0.6-6.2,0.6-10.7l0-7.4
		c0-0.4,0.2-0.5,0.5-0.5h5.8V0.8c0-0.4,0.2-0.5,0.5-0.5h3.6c0.4,0,0.5,0.2,0.5,0.5v1.1h6.9c0.4,0,0.5,0.2,0.5,0.5v2.1
		c0,0.4-0.2,0.5-0.5,0.5h-6.9v1.8h7.8c0.4,0,0.5,0.2,0.5,0.5v7c0,0.4-0.2,0.5-0.5,0.5h-2.9c-0.4,0-0.5-0.2-0.5-0.5v-3.9h-4.4v2.5
		l3.3-0.2h0.1c0.3,0,0.4,0.2,0.5,0.5l0.1,1.8v0.1c0,0.3-0.2,0.4-0.5,0.5l-3.4,0.2v0.8c0,0.3,0,0.5,0.1,0.7c0.1,0.1,0.2,0.2,0.5,0.3
		c0.4,0.1,1.2,0.1,2.3,0.1c1.5,0,2.8-0.1,3.8-0.2h0.1c0.3,0,0.5,0.2,0.5,0.5v2.4c0,0.3-0.2,0.5-0.5,0.6c-0.9,0.2-2.1,0.2-3.8,0.2
		c-1.3,0-2.4,0-3.2-0.1c-1.4-0.1-2.4-0.4-2.9-1c-0.5-0.6-0.8-1.5-0.8-2.9v-1l-2.7,0.2c0,3.8-0.2,7.2-0.6,10.2
		c-0.4,3-1.2,5.7-2.3,8.1c-0.1,0.2-0.3,0.3-0.4,0.3L92,35l-3.1-1.6C88.5,33.2,88.5,33,88.6,32.7z M96.9,35l-2.6-1.8
		c-0.2-0.1-0.2-0.2-0.2-0.4c0-0.1,0-0.2,0.1-0.2c0.1-0.1,0.1-0.1,0.1-0.2c1.3-1.1,2.2-2.5,2.6-4c0.4-1.5,0.6-3.3,0.6-5.4
		c0-0.4,0.2-0.5,0.5-0.5h2.8c0.4,0,0.5,0.2,0.5,0.5c0,1.8-0.1,3.3-0.2,4.6c-0.2,1.3-0.5,2.6-1.1,3.8c-0.5,1.2-1.4,2.4-2.4,3.4
		c-0.1,0.1-0.3,0.2-0.4,0.2C97.2,35.1,97,35.1,96.9,35z M98.3,13.1v-2.7h-2.7v2.8L98.3,13.1z M103.6,33.5c-0.4-0.5-0.7-1.4-0.7-2.6
		v-7.8c0-0.4,0.2-0.5,0.5-0.5h2.7c0.4,0,0.5,0.2,0.5,0.5v6.2c0,0.4,0,0.6,0.1,0.7s0.2,0.2,0.4,0.2l0.4,0c0.3,0,0.6-0.1,0.7-0.2
		c0.2-0.2,0.3-0.5,0.4-1.1s0.2-1.6,0.2-2.9c0-0.2,0.1-0.4,0.2-0.5c0.1-0.1,0.3-0.1,0.5,0l2.1,1c0.3,0.1,0.4,0.3,0.4,0.7
		c-0.1,1.9-0.2,3.4-0.4,4.4s-0.6,1.7-1.1,2.2c-0.5,0.5-1.3,0.7-2.4,0.8c-0.9,0-1.8,0-2.4,0C104.8,34.3,104,34,103.6,33.5z"/>
	<path class="st0" d="M117.4,32.7V22.2l-1.3,1.7c-0.1,0.1-0.2,0.2-0.3,0.2c-0.2,0-0.3-0.1-0.3-0.4l-1.1-4.7c0-0.1,0-0.1,0-0.2
		c0-0.1,0.1-0.3,0.2-0.5c2.2-2.9,3.7-6.9,4.4-12.2h-3c-0.4,0-0.5-0.2-0.5-0.5V2.1c0-0.4,0.2-0.5,0.5-0.5H128c0.4,0,0.5,0.2,0.5,0.5
		v3.4c0,0.4-0.2,0.5-0.5,0.5h-4.4c-0.3,2.3-0.8,4.5-1.5,6.5h5.2c0.4,0,0.5,0.2,0.5,0.5v19.6c0,0.4-0.2,0.5-0.5,0.5h-9.3
		C117.6,33.3,117.4,33.1,117.4,32.7z M123.9,28.8V17h-2.7v11.8H123.9z M128,33.3c0.8-2,1.3-4.9,1.6-8.5c0.1-0.4,0.2-0.5,0.6-0.5
		l2.3,0.3c0.4,0.1,0.5,0.2,0.5,0.6c-0.1,1.6-0.3,3.2-0.6,4.9c-0.3,1.7-0.7,3.2-1.1,4.5c-0.1,0.4-0.4,0.5-0.7,0.3l-2.2-0.9
		C128,33.9,127.9,33.7,128,33.3z M140.7,34.8l-0.7-2.4l-1.2,0.3l-0.2,0c-0.2,0-0.3-0.2-0.3-0.5c-0.1-2.6-0.4-4.8-0.9-6.8l-0.1-0.5
		c0-0.2,0.2-0.4,0.5-0.4l1.2-0.2l0.4-0.1c0.2,0,0.3,0.1,0.4,0.4c0.6,2.2,0.9,4.2,1.1,6c1.1-0.1,1.9-0.3,2.5-0.7
		c0.6-0.4,0.9-1.2,1-2.2c0.1-0.9,0.1-2.5,0.1-4.8h-14.2c-0.4,0-0.5-0.2-0.5-0.5V1.9c0-0.4,0.2-0.5,0.5-0.5h18.3
		c0.4,0,0.5,0.2,0.5,0.5v2.8c0,0.4-0.2,0.5-0.5,0.5h-5.4v2.3h4.5c0.4,0,0.5,0.2,0.5,0.5v2.3c0,0.4-0.2,0.5-0.5,0.5h-4.5v2.4h4.5
		c0.4,0,0.5,0.2,0.5,0.5v2.3c0,0.4-0.2,0.5-0.5,0.5h-4.5v2.5h5.4c0.4,0,0.5,0.2,0.5,0.5c0,4.3-0.1,7.5-0.3,9.3
		c-0.2,2.3-1,3.9-2.2,4.8c-1.3,0.9-3.1,1.4-5.3,1.4C141,35.2,140.8,35.1,140.7,34.8z M133.8,33.6c0.1-0.6,0.1-1.5,0.1-2.7
		c0-1.7-0.1-3.4-0.3-5.1l0-0.4c0-0.3,0.2-0.5,0.5-0.5l1.1-0.1l0.7,0c0.3,0,0.5,0.2,0.5,0.5c0.4,2.7,0.5,5.4,0.5,8.1
		c0,0.4-0.2,0.5-0.5,0.6l-1.8,0.2l-0.4,0C133.9,34.1,133.8,33.9,133.8,33.6z M138.6,7.6V5.2h-4v2.3H138.6z M138.6,13.4V11h-4v2.4
		H138.6z M138.6,19.2v-2.5h-4v2.5H138.6z M141.9,28.8c-0.2-1.4-0.5-2.8-1-4l0-0.2c0-0.2,0.1-0.4,0.4-0.5l0.7-0.2
		c0.2-0.1,0.4-0.1,0.5-0.1c0.2,0,0.4,0.1,0.5,0.3c0.6,1.4,0.9,2.6,1.1,3.7l0,0.3c0,0.2-0.1,0.4-0.4,0.5l-1.1,0.5
		c-0.1,0.1-0.2,0.1-0.3,0.1C142.1,29.2,142,29.1,141.9,28.8z"/>
	<path class="st0" d="M168.1,12.4c-0.6-0.6-1-1.4-1-2.4c0-0.9,0.3-1.7,1-2.3c0.6-0.6,1.4-0.9,2.4-0.9c1,0,1.8,0.3,2.4,0.9
		c0.6,0.6,1,1.4,1,2.3c0,0.9-0.3,1.7-1,2.4s-1.4,0.9-2.4,0.9C169.5,13.3,168.7,13,168.1,12.4z M168.1,23.1c0.6-0.6,1.4-0.9,2.4-0.9
		c1,0,1.8,0.3,2.4,0.9c0.6,0.6,1,1.4,1,2.3c0,0.9-0.3,1.7-1,2.4c-0.6,0.6-1.4,0.9-2.4,0.9c-1,0-1.8-0.3-2.4-0.9
		c-0.6-0.6-1-1.4-1-2.4C167.1,24.5,167.5,23.7,168.1,23.1z"/>
</g>
</svg>
