<svg xmlns="http://www.w3.org/2000/svg" xml:space="preserve" width="173.9" height="35.2" style="overflow:visible" viewBox="0 0 173.9 35.2"><path fill="#040000" d="M10.1 35.1c-.2-.1-.3-.1-.4-.1-.1-.1-.2-.2-.2-.3l-1.4-3.8v-.2c0-.1 0-.2.1-.3s.2-.1.3-.1l2.3.1c1.3 0 2.2-.1 2.9-.3s1.1-.5 1.3-.8.3-.8.3-1.3v-3.3H.5c-.4 0-.5-.2-.5-.5v-3.6c0-.4.2-.6.5-.6h14.7v-4.2H2.9c-.4 0-.5-.2-.5-.5v-3.5c0-.4.2-.5.5-.5h12.4v-4q-4.95.3-11.1.3c-.3 0-.5-.2-.6-.5l-.9-3.2c-.1-.2-.1-.4-.1-.5 0-.3.2-.4.5-.4 4.9 0 9.7-.2 14.3-.5 4.7-.3 8.6-.8 11.8-1.5.3-.1.5-.1.6-.1.2 0 .4.1.5.3l1.9 3.5c.1.1.1.2.1.3 0 .2-.1.3-.4.3-3.8.8-7.6 1.4-11.3 1.7v4.2H32c.4 0 .5.2.5.5v3.5c0 .4-.2.5-.5.5H20.6V20h13.6c.4 0 .5.2.5.5v3.6c0 .4-.2.5-.5.5H20.6v3.8c0 1.6-.2 2.9-.7 3.9q-.75 1.35-2.7 2.1c-1.3.5-3.3.7-5.8.7zm54.6-1.9q-.6-.6-1.2-1.5c-2 1.5-3.9 2.6-5.8 3.3-.1 0-.2.1-.3.1-.2 0-.3-.1-.4-.3l-2-2.7c-.1-.1-.1-.2-.1-.3 0-.2.1-.3.3-.4 2.5-.8 4.7-1.8 6.5-3.1-.6-1.7-1.2-3.9-1.6-6.5h-4.3l-.1 1.2c1.2.6 2.7 1.5 4.2 2.8.2.1.2.2.2.4 0 .1 0 .2-.1.3L58.6 29c-.1.2-.2.3-.4.3-.1 0-.2-.1-.3-.2-.9-1-1.8-1.9-2.8-2.6-.8 3.3-2.3 6-4.4 8-.1.1-.3.2-.4.2s-.2-.1-.3-.2l-2.8-2.2c-.2-.1-.2-.2-.2-.3 0-.2.1-.3.3-.4 1.4-1.1 2.5-2.5 3.2-4.2s1.1-3.6 1.2-5.6H50c-.4 0-.5-.2-.5-.5v-2.7c0-.4.2-.5.5-.5h9.5l-.2-1.8c-.1.1-.2.2-.4.3-1 .2-1.6.3-1.6.3-.2 0-.4-.2-.4-.5l-.1-.7c-2.3.4-4.4.7-6.2.9h-.1c-.2 0-.4-.2-.5-.5l-.4-1.9V14c0-.2.1-.3.3-.5.9-.8 2-2.2 3.2-4l-2.8.3h-.1c-.3 0-.4-.2-.5-.5l-.2-1.5v2c0 .4-.2.5-.5.5h-2.1c.4 1 .8 2 1.4 3.2s1.1 2.1 1.6 2.9q.15.3 0 .6l-1.4 3.2c-.1.2-.2.3-.4.3q-.3 0-.3-.3c-.5-1-.9-2.2-1.2-3.7l.1 18c0 .4-.2.5-.5.5h-3.3c-.4 0-.5-.2-.5-.5l.1-15.2c-.5 2.3-1.2 4.4-2.1 6.2q-.15.3-.3.3c-.2 0-.3-.1-.4-.3l-1.8-3.4c-.1-.2-.1-.3-.1-.4s0-.2.1-.3c.9-1.5 1.7-3.3 2.4-5.2.8-1.9 1.4-3.9 1.9-5.9h-2.5c-.4 0-.5-.2-.5-.5V6.5c0-.4.2-.5.5-.5h2.7V.8c0-.4.2-.5.5-.5h3.3c.4 0 .5.2.5.5V6H49c.4 0 .5.2.5.5v.8c.1-.1.1-.2.2-.3.5-.7 1-1.7 1.6-3.1s1-2.5 1.3-3.5c.1-.3.2-.4.4-.4h.3l2.4.8c.3.2.4.4.3.7-.9 1.9-1.8 3.7-2.8 5.3l1.8-.3 1.2-2.3c0-.1.1-.2.3-.2.1 0 .2.1.4.2l1.8.9-.1-4.4c0-.4.2-.5.5-.5h3.1c.4 0 .5.2.5.5 0 1.3.1 3.6.2 6.7l.3-.4q.6-1.05 1.5-3c.6-1.3 1-2.5 1.4-3.6.1-.3.2-.4.4-.4h.3L69 1c.4.1.5.3.3.7-1 2.1-2 3.9-2.9 5.3l1.8-.3 1.3-2.4c.2-.3.4-.4.7-.2l2 1.1c.4.2.4.4.2.7-1.1 1.8-2.8 4.2-5.1 7.1 1-.1 1.8-.3 2.6-.4l-.5-1.3c0-.1-.1-.2-.1-.3 0-.2.1-.3.4-.4l1.6-.5h.2c.2 0 .4.1.5.3.3.7.6 1.6.9 2.5s.5 1.8.7 2.7v.2c0 .3-.1.4-.4.5-1.1.3-1.8.5-1.9.5-.3 0-.4-.2-.5-.5 0-.2-.1-.5-.2-.9l-1.9.3c.5.9.8 1.6 1 2.2H72c.4 0 .5.2.5.5v2.7c0 .4-.2.5-.5.5h-7.7c.2.9.5 2.1.9 3.5.9-1 1.5-2 2-2.9.2-.3.4-.4.7-.2l2.4 1.3c.2.1.3.3.3.4s0 .2-.1.3c-.9 1.5-2.1 3.1-3.7 4.7l.5.7c.6.7 1.1 1.1 1.5 1.1.7 0 1.3-1 1.7-2.9.1-.3.2-.4.4-.4.1 0 .2.1.3.2l2.3 2c.2.1.2.3.2.5v.3c-.4 1.6-1.1 2.9-2 3.7-.9.9-1.9 1.3-3 1.3-1.4-.1-2.8-.7-4-2m-8.3-20.5-.4-1.3v-.2c0-.2.1-.3.4-.4l1.3-.4h.2c.3 0 .4.1.5.4.4 1.1.7 2.4.9 3.8-.3-2.9-.4-5.7-.5-8.2-.6 1-1.3 2.2-2.3 3.6s-1.9 2.5-2.6 3.4c1-.4 1.9-.5 2.5-.7m7.3-2.7c-.2 0-.4-.2-.5-.5L63 7.8c.2 4.4.5 7.7.8 10.1h2.7c-.2-.5-.5-1.1-.8-1.8l-1.1.1h-.1c-.3 0-.4-.2-.5-.5l-.3-2v-.2c0-.2.1-.4.2-.5.9-1 1.7-2.1 2.5-3.4l-2.5.4zm15.8 24.6L78.3 31v-.2c0-.3.1-.4.4-.4h1.4c1.5 0 2.5-.2 3.1-.6s1-1.2 1.1-2.3c.1-.8.1-1.7.1-2.9h-6c-.4 0-.5-.2-.4-.6.6-1.7 1.1-3.7 1.5-5.8H77c-.4 0-.5-.2-.5-.5V15c0-.4.2-.5.5-.5h13c.4 0 .5.2.5.5v2.7c0 .4-.2.5-.5.5h-6c-.1.8-.3 1.8-.7 2.8h5.2c.4 0 .5.2.5.5q0 4.5-.3 7.2c-.2 1.6-.5 2.9-1.2 3.8-.6.9-1.5 1.5-2.6 1.9s-2.5.6-4.1.6h-.7c-.3 0-.5-.1-.6-.4M77.4 12V2c0-.4.2-.5.5-.5h11.2c.4 0 .5.2.5.5v10c0 .4-.2.5-.5.5H77.9c-.3 0-.5-.2-.5-.5m8.4-2.9V5.2h-4.4v3.9zm2.8 23.6c1.1-2.1 1.8-4.5 2.2-7.2s.6-6.2.6-10.7V7.4c0-.4.2-.5.5-.5h5.8V.8c0-.4.2-.5.5-.5h3.6c.4 0 .5.2.5.5v1.1h6.9c.4 0 .5.2.5.5v2.1c0 .4-.2.5-.5.5h-6.9v1.8h7.8c.4 0 .5.2.5.5v7c0 .4-.2.5-.5.5h-2.9c-.4 0-.5-.2-.5-.5v-3.9h-4.4v2.5l3.3-.2h.1c.3 0 .4.2.5.5l.1 1.8v.1c0 .3-.2.4-.5.5l-3.4.2v.8c0 .3 0 .5.1.7.1.1.2.2.5.3.4.1 1.2.1 2.3.1 1.5 0 2.8-.1 3.8-.2h.1c.3 0 .5.2.5.5v2.4c0 .3-.2.5-.5.6-.9.2-2.1.2-3.8.2-1.3 0-2.4 0-3.2-.1-1.4-.1-2.4-.4-2.9-1s-.8-1.5-.8-2.9v-1l-2.7.2q0 5.7-.6 10.2c-.4 3-1.2 5.7-2.3 8.1-.1.2-.3.3-.4.3H92l-3.1-1.6c-.4-.2-.4-.4-.3-.7m8.3 2.3-2.6-1.8c-.2-.1-.2-.2-.2-.4 0-.1 0-.2.1-.2.1-.1.1-.1.1-.2 1.3-1.1 2.2-2.5 2.6-4q.6-2.25.6-5.4c0-.4.2-.5.5-.5h2.8c.4 0 .5.2.5.5 0 1.8-.1 3.3-.2 4.6-.2 1.3-.5 2.6-1.1 3.8-.5 1.2-1.4 2.4-2.4 3.4-.1.1-.3.2-.4.2 0 .1-.2.1-.3 0m1.4-21.9v-2.7h-2.7v2.8zm5.3 20.4c-.4-.5-.7-1.4-.7-2.6v-7.8c0-.4.2-.5.5-.5h2.7c.4 0 .5.2.5.5v6.2c0 .4 0 .6.1.7s.2.2.4.2h.4c.3 0 .6-.1.7-.2.2-.2.3-.5.4-1.1s.2-1.6.2-2.9c0-.2.1-.4.2-.5s.3-.1.5 0l2.1 1c.3.1.4.3.4.7-.1 1.9-.2 3.4-.4 4.4s-.6 1.7-1.1 2.2-1.3.7-2.4.8h-2.4c-.9-.3-1.7-.6-2.1-1.1m13.8-.8V22.2l-1.3 1.7c-.1.1-.2.2-.3.2-.2 0-.3-.1-.3-.4l-1.1-4.7v-.2c0-.1.1-.3.2-.5 2.2-2.9 3.7-6.9 4.4-12.2h-3c-.4 0-.5-.2-.5-.5V2.1c0-.4.2-.5.5-.5h12c.4 0 .5.2.5.5v3.4c0 .4-.2.5-.5.5h-4.4c-.3 2.3-.8 4.5-1.5 6.5h5.2c.4 0 .5.2.5.5v19.6c0 .4-.2.5-.5.5H118c-.4.2-.6 0-.6-.4m6.5-3.9V17h-2.7v11.8zm4.1 4.5c.8-2 1.3-4.9 1.6-8.5.1-.4.2-.5.6-.5l2.3.3c.4.1.5.2.5.6-.1 1.6-.3 3.2-.6 4.9s-.7 3.2-1.1 4.5c-.1.4-.4.5-.7.3l-2.2-.9c-.4-.1-.5-.3-.4-.7m12.7 1.5-.7-2.4-1.2.3h-.2c-.2 0-.3-.2-.3-.5-.1-2.6-.4-4.8-.9-6.8l-.1-.5c0-.2.2-.4.5-.4l1.2-.2.4-.1c.2 0 .3.1.4.4.6 2.2.9 4.2 1.1 6 1.1-.1 1.9-.3 2.5-.7s.9-1.2 1-2.2c.1-.9.1-2.5.1-4.8h-14.2c-.4 0-.5-.2-.5-.5V1.9c0-.4.2-.5.5-.5h18.3c.4 0 .5.2.5.5v2.8c0 .4-.2.5-.5.5h-5.4v2.3h4.5c.4 0 .5.2.5.5v2.3c0 .4-.2.5-.5.5h-4.5v2.4h4.5c.4 0 .5.2.5.5V16c0 .4-.2.5-.5.5h-4.5V19h5.4c.4 0 .5.2.5.5 0 4.3-.1 7.5-.3 9.3-.2 2.3-1 3.9-2.2 4.8-1.3.9-3.1 1.4-5.3 1.4-.3.2-.5.1-.6-.2m-6.9-1.2c.1-.6.1-1.5.1-2.7q0-2.55-.3-5.1v-.4c0-.3.2-.5.5-.5l1.1-.1h.7c.3 0 .5.2.5.5.4 2.7.5 5.4.5 8.1 0 .4-.2.5-.5.6l-1.8.2h-.4c-.3-.1-.4-.3-.4-.6m4.8-26V5.2h-4v2.3h4zm0 5.8V11h-4v2.4zm0 5.8v-2.5h-4v2.5zm3.3 9.6c-.2-1.4-.5-2.8-1-4v-.2c0-.2.1-.4.4-.5l.7-.2c.2-.1.4-.1.5-.1.2 0 .4.1.5.3.6 1.4.9 2.6 1.1 3.7v.3c0 .2-.1.4-.4.5l-1.1.5c-.1.1-.2.1-.3.1-.2 0-.3-.1-.4-.4m26.2-16.4c-.6-.6-1-1.4-1-2.4 0-.9.3-1.7 1-2.3q.9-.9 2.4-.9t2.4.9c.6.6 1 1.4 1 2.3s-.3 1.7-1 2.4-1.4.9-2.4.9q-1.5 0-2.4-.9m0 10.7q.9-.9 2.4-.9t2.4.9c.6.6 1 1.4 1 2.3s-.3 1.7-1 2.4q-.9.9-2.4.9t-2.4-.9c-.6-.6-1-1.4-1-2.4 0-.9.4-1.7 1-2.3"/></svg>