<svg xmlns="http://www.w3.org/2000/svg" xml:space="preserve" width="344.3" height="45.6" style="overflow:visible" viewBox="0 0 344.3 45.6"><path fill="#df032e" d="M6.7 44.9V40h-6c-.5 0-.7-.2-.7-.7v-3.7c0-.5.2-.7.7-.7h6v-3H1.6c-.5 0-.7-.2-.7-.7V12.4c0-.5.2-.7.7-.7h5.1V8.8H.9c-.5 0-.7-.2-.7-.7V4.3c0-.5.2-.7.7-.7h5.8V.9c0-.5.2-.7.7-.7h4c.5 0 .7.2.7.7v2.7h5.5c.5 0 .7.2.7.7v3.8c0 .5-.2.7-.7.7H12v2.9h5c.5 0 .7.2.7.7v18.8c0 .5-.2.7-.7.7h-5v3h5.5c.5 0 .7.2.7.7v3.7c0 .5-.2.7-.7.7H12v4.9c0 .5-.2.7-.7.7h-4c-.4 0-.6-.2-.6-.7m.8-25.1V16H5v3.7h2.5zm0 7.7v-4H5v4zm6.2-7.7V16h-2.5v3.7h2.5zm0 7.7v-4h-2.5v4zm29.2-12c-1.3-.7-2.7-1.5-4.1-2.6v1.6c0 .5-.2.7-.6.7H24.7c-.4 0-.6-.2-.6-.7V13c-1.1 1-2.3 1.7-3.5 2.3l-.4.1c-.2 0-.4-.1-.5-.4l-2.4-4.7V10c0-.3.1-.5.4-.6 2.2-.9 4.3-2.1 6.3-3.8q3-2.55 4.5-4.8c.2-.3.5-.5.8-.5h4c.4 0 .7.1.9.4 1.5 1.8 3.2 3.5 5.3 5.1 2 1.5 4.2 2.7 6.4 3.6.3.1.4.2.4.4s0 .4-.1.5L44 15.2c-.1.3-.2.4-.4.4-.4-.1-.6-.1-.7-.1m-17.7 30c-.1-.1-.1-.2-.2-.4l-.9-3.7v-.2c0-.4.2-.5.5-.5 1.1 0 1.8-.1 2.2-.4.3-.3.5-.8.5-1.6v-2.9h-3.9c-.3 3.7-1 6.8-2.1 9.4-.1.2-.2.3-.4.3s-.3 0-.4-.1l-2.7-1.5c-.3-.1-.4-.3-.4-.5 0-.1 0-.3.1-.4.8-1.6 1.4-3.7 1.7-6.3s.4-5.9.4-9.9v-8.3c0-.5.2-.7.6-.7h10.7c.5 0 .7.2.7.7v20.9c0 1.5-.2 2.7-.5 3.6s-.9 1.6-1.7 2-2.1.7-3.7.7c-.1-.1-.3-.1-.5-.2m2.1-13.8v-2.9h-3.5v2.9zm0-6.7v-3h-3.5v3zm4.2-19.7c-1.7 2.3-3.3 4-4.7 5.3h9.6c-1.9-1.6-3.5-3.3-4.9-5.3m1.9 31.4V19.6c0-.5.2-.7.7-.7h2.8c.4 0 .6.2.6.7v17.1c0 .5-.2.7-.6.7h-2.8c-.4 0-.7-.3-.7-.7m2.1 8.7c-.1-.1-.2-.3-.2-.4L34 40.8v-.2c0-.2.1-.3.2-.4h1.2c1.6 0 2.7-.3 3.2-.8s.8-1.4.8-2.5V18.3c0-.5.2-.7.6-.7h3.4c.4 0 .6.2.6.7v19.6c0 2.1-.2 3.6-.5 4.6s-1.1 1.8-2.2 2.3-2.9.7-5.4.8c-.1 0-.3-.1-.4-.2m27.9-.4L60 40.1c-.1-.2-.1-.3-.1-.4 0-.2.1-.4.4-.5 6-2.8 10.6-6.9 13.9-12.2s5.1-11.6 5.5-18.8h-12c-.5 0-.7-.2-.7-.7V2.3c0-.5.2-.7.7-.7h18c.5 0 .7.2.7.7C86.4 19.8 92.6 32 105 39c.3.2.4.4.4.6 0 .1 0 .2-.1.4l-3.5 5c-.2.2-.3.3-.5.3-.1 0-.2 0-.4-.1-4.4-2.7-8.1-6.1-11-10.1-3-4-5.2-8.5-6.6-13.6-1.5 5.4-3.9 10.2-7.1 14.3s-7.1 7.2-11.6 9.4c-.2.1-.3.1-.4.1-.5.1-.7 0-.8-.3m75.5.5c-.4 0-.7-.2-.8-.5l-1.7-4.2-.1-.3c0-.3.2-.5.7-.5h5.7q5.4 0 7.5-.6c1.4-.4 2.2-1 2.5-1.8.1-.5.2-1.2.2-2.1h-24.5c-.4 0-.6-.2-.6-.5v-.3c.7-2 1.4-4.2 2-6.7-3.2 1-5.7 1.8-7.5 2.2h-.2c-.3 0-.5-.1-.6-.4l-2.2-4.9c0-.1-.1-.2-.1-.3 0-.3.2-.5.6-.5q5.4-.75 10.8-2.1c3.6-.9 6.9-1.9 9.9-3.1h-19.3c-.5 0-.7-.2-.7-.7V14c0-.5.2-.7.7-.7h16.2V9.4h-11.9c-.5 0-.7-.2-.7-.7V5c0-.5.2-.7.7-.7h11.9V.8c0-.5.2-.7.7-.7h4.9c.5 0 .7.2.7.7v3.5h9.9c.5 0 .7.2.7.7v2.6c1.1-1.2 2.2-2.7 3.4-4.4.1-.2.3-.3.5-.3l.4.1 4.9 2.6c.3.2.4.3.4.5s-.1.3-.2.4c-1.8 2.3-4 4.6-6.5 6.7h6.6c.5 0 .7.2.7.7v3.9c0 .5-.2.7-.7.7h-12.9c-2.3 1.3-4.6 2.5-6.9 3.5h17.5c.5 0 .7.2.7.7v3.8c0 .5-.2.7-.7.7h-24.8l-.8 3.1h23.2c.5 0 .7.2.7.6 0 2.9-.1 5.2-.3 7.1s-.9 3.4-2 4.5-2.8 1.8-5.2 2.3c-2.4.4-5.7.7-10.1.7zm13.8-36.2h-9.1v4h4.3c1.9-1.3 3.4-2.6 4.8-4m31.6 13.5c-.1 0-.3 0-.4-.1l-4.2-3.2c-.2-.2-.3-.3-.3-.5 0-.1 0-.2.1-.3 0-.1.1-.1.1-.2 2-2.2 3.6-4.7 5.1-7.7 1.4-3 2.5-5.9 3.2-8.8.1-.4.4-.6.8-.5l4.8.7c.2 0 .4.1.5.3s.1.4 0 .6c-.5 2-1 3.9-1.6 5.7h6.8v-8c0-.5.2-.7.7-.7h5.3c.5 0 .7.2.7.7v8h15.3c.5 0 .7.2.7.7v4.8c0 .5-.2.7-.7.7h-15.3v7.8H219c.5 0 .7.2.7.7v4.8c0 .5-.2.7-.7.7h-13.1v8.7h17.9c.5 0 .7.2.7.7v4.9c0 .5-.2.7-.7.7h-43.4c-.5 0-.7-.2-.7-.7v-4.9c0-.5.2-.7.7-.7h18.8V29h-13.3c-.5 0-.7-.2-.7-.7v-4.8c0-.5.2-.7.7-.7h13.3V15h-9.4c-1.5 3-3.2 5.5-5 7.5-.1.3-.3.3-.5.3m56.5 22.3-1.7-3.7c-.1-.1-.1-.3-.1-.4 0-.3.2-.4.6-.4 5.3-.2 9.8-.9 13.5-1.9H244c-.5 0-.7-.2-.7-.7V20.2c0-.5.2-.7.7-.7h34.7c-2.3-.5-4.3-1.2-5.9-2.1q-2.55-1.35-4.5-3.3c-1.6 1.5-3.5 2.6-5.5 3.4s-4.4 1.4-7.2 1.7h-.2c-.3 0-.6-.1-.7-.4l-1.8-3.7c-.1-.2-.1-.3-.1-.3-3.1 1.4-6.8 2.6-11 3.6h-.3c-.3 0-.4-.2-.5-.5l-1.5-4.4v-.3c0-.3.2-.4.5-.5 2.6-.5 4.8-1 6.7-1.5s3.8-1.2 5.6-1.9l.3-.1c.3 0 .5.2.5.5l.8 3.9v.3c0 .1 0 .2-.1.3 2.6-.2 4.8-.7 6.7-1.3 1.8-.6 3.2-1.4 4-2.3.4-.5.7-1.1.9-1.7.1-.4.3-.6.7-.6h4.2c.5 0 .7.2.7.7 0 .2 0 .5-.1.9 2.6 2.6 6.9 4.2 12.8 4.9.4 0 .6.2.6.5 0 .1 0 .2-.1.3l-1.6 4c-.1.2-.2.3-.3.4s-.3.1-.5.1l-1.8-.3c.1.1.1.2.1.4V38c0 .5-.2.7-.7.7h-8.7c3.8 1 8.2 1.6 13 1.8.4 0 .6.2.6.5 0 .1-.1.2-.1.3l-1.7 3.8c-.1.3-.4.5-.8.5-2.6-.1-5.4-.5-8.3-1.2-3-.6-5.5-1.4-7.7-2.2-.3-.1-.4-.3-.4-.5s0-.3.1-.4l2-2.6H256l2.1 2.7c.1.1.1.3.1.4 0 .2-.1.3-.4.4-2.4.9-5.1 1.6-7.9 2.3-2.8.6-5.6 1-8.3 1.1-.4 0-.6-.1-.8-.5m.3-39.4c-.4-.1-.5-.2-.5-.5l.1-.4 1.8-3.7c.1-.3.3-.4.6-.4h.2c1.5.3 3 .7 4.8 1.2 1.7.5 3.3 1.1 4.7 1.8.3.1.4.3.4.5l-.1.4-1.7 3.8q-.3.6-.9.3c-3.1-1.3-6.2-2.3-9.4-3M273.6 25v-1.8h-24.1V25zm0 5v-1.8h-24.1V30zm0 4.9V33h-24.1v1.8h24.1zm1.2-24.6c0-.2.1-.3.2-.4.8-.9 1.4-1.8 1.7-2.7h-14.2c-1.6 1.9-3.2 3.3-5 4.3-.1.1-.2.1-.4.1s-.4-.1-.6-.2l-3.1-3.3c-.2-.2-.2-.3-.2-.5s.1-.3.4-.4c1.6-.7 2.9-1.7 4.1-2.8 1.2-1.2 2-2.4 2.5-3.6.2-.4.4-.5.6-.5h.2l4.5.5c.6.1.7.3.5.7l-.6 1.3h17.2c.5 0 .7.2.7.7s0 1.2-.1 2.1c-.2 1-.5 2.1-1.1 3.3s-1.2 2.2-1.9 3.1q-.45.45-.9.3l-4.1-1.3c-.3-.4-.4-.5-.4-.7m37.6 35.3h-4.7c-.5 0-.7-.2-.7-.7l.2-16c-1.5 4-3.3 7.5-5.4 10.3-.1.2-.3.3-.4.3s-.3-.1-.5-.4l-2.5-5.4c0-.1-.1-.2-.1-.3q0-.3.3-.6c1.5-1.6 2.9-3.4 4.2-5.5q1.95-3.15 3.3-6.6h-5.9c-.5 0-.7-.2-.7-.7v-4.2c0-.5.2-.7.7-.7h6.9l-.1-14c0-.5.2-.7.7-.7h4.6c.5 0 .7.2.7.7l-.1 14h6c.5 0 .7.2.7.7V20c0 .5-.2.7-.7.7h-5.2c.8 1.6 1.8 3.1 2.9 4.7 1.1 1.5 2.3 2.8 3.5 4 3.6-.6 8-1.4 13.1-2.4V.8c0-.5.2-.7.7-.7h4.8c.5 0 .7.2.7.7v24.5l3.8-.7h.2q.6.15.6.6l.2 4.4v.1c0 .3-.2.5-.5.6l-4.4.9v13.6c0 .5-.2.7-.7.7h-4.8c-.5 0-.7-.2-.7-.7V32.4L320.6 35h-.2c-.3 0-.5-.2-.5-.6l-.2-2.8-1.4 3.6c-.1.3-.3.4-.5.4-.1 0-.3-.1-.4-.3q-2.7-3.6-4.5-8.1l.3 17.7c-.1.5-.3.7-.8.7m-13-41.3V4c0-.3.2-.5.5-.5l3.4-.9h.2c.3 0 .5.2.6.5q1.5 4.35 2.1 8.7v.1c0 .4-.2.6-.5.7l-3.2.9h-.2q-.45 0-.6-.6c-.6-2.9-1.3-5.8-2.3-8.6m14.2 7.2c1-2.3 1.7-5.2 2.1-8.6 0-.2.1-.4.3-.5s.3-.1.6 0l3.3.8c.4.1.6.4.5.9-.5 3-1.3 5.9-2.4 8.8-.2.4-.4.5-.8.4l-3.2-.9c-.5-.1-.6-.4-.4-.9m6.4 6.1c0-.1 0-.3.1-.4l2.7-3.3c.2-.2.3-.3.5-.3s.3 0 .4.1c1.3.8 2.6 1.7 4 2.8s2.5 2.1 3.4 3.1c.1.1.2.3.2.4 0 .2-.1.3-.2.5l-2.7 3.6c-.1.2-.3.3-.4.3-.2 0-.3-.1-.5-.3-.9-1.1-2-2.2-3.3-3.2-1.3-1.1-2.5-2-3.8-2.7-.3-.2-.4-.3-.4-.6m1.3-11.4c0-.1 0-.3.1-.4l2.7-3.3q.3-.3.6-.3c.2 0 .3 0 .4.1q1.95 1.2 3.9 2.7c1.3 1.1 2.5 2.1 3.5 3.2.1.1.2.3.2.4 0 .2-.1.3-.2.5l-2.8 3.6c-.2.2-.3.3-.5.3-.1 0-.3-.1-.4-.3-1-1.1-2.1-2.2-3.4-3.4-1.3-1.1-2.5-2-3.7-2.8-.2.1-.4-.1-.4-.3"/></svg>