<svg xmlns="http://www.w3.org/2000/svg" xml:space="preserve" width="174.4" height="35" style="overflow:visible" viewBox="0 0 174.4 35"><path fill="#040000" d="M4.4 34.5V16.3c-.8 1.1-1.5 2-2.2 2.6-.1.1-.2.2-.3.2-.2 0-.3-.1-.3-.4L0 14.1v-.5l.2-.2c1.5-1.5 2.9-3.3 4.2-5.5C5.6 5.7 6.7 3.3 7.5.6c.1-.3.2-.4.4-.4h.3l4 .7c.3 0 .4.2.5.4v.2c-.9 2.8-2 5.5-3.5 7.9v25c0 .4-.2.6-.5.6H4.9c-.4 0-.5-.2-.5-.5m9.3-3.6-3.5-1.7c-.2-.2-.4-.3-.4-.5 0-.1 0-.2.1-.3 2-3.2 3.4-6.8 4-10.8.1-.3.2-.4.3-.5h.3l3.5.8c.2 0 .3.1.4.3v.3c-.3 2.1-.8 4.2-1.6 6.3-.7 2.2-1.6 4.1-2.5 5.8q-.15.3-.3.3zm18.1-14.2-3.6-1.3q-.3-.15-.3-.3v-.3c.9-2.2 1.4-4.2 1.5-6.2H18.8q-.75 2.25-1.8 3.9c-.6 1.1-1.4 2.3-2.4 3.5-.1.2-.3.3-.4.3s-.2-.1-.3-.2l-3.1-3c-.1-.1-.2-.3-.2-.4s.1-.2.2-.3c1.6-1.9 2.8-3.8 3.5-5.6S15.5 3 15.8.7c0-.2.1-.4.3-.5h.2l4 .4c.3.1.4.2.5.4v.3c-.2.9-.4 1.9-.6 2.9h13.7c.4 0 .5.2.5.7-.1 4.3-.8 8.2-2 11.6-.1.3-.2.4-.5.4.1-.2 0-.2-.1-.2M17.3 34.8q-.15 0-.3-.3l-1.5-3.7v-.2c0-.2.1-.4.3-.4h1.6c.9 0 1.6-.1 2-.2s.7-.3.8-.6.2-.7.2-1.2V11.9c0-.4.2-.5.5-.5h3.6c.4 0 .5.2.5.5v17.7c0 2-.6 3.3-1.9 4.1-1.2.8-3.1 1.1-5.6 1.1zm13.8-4q-1.2-2.1-2.4-5.4c-.8-2.2-1.4-4.3-1.9-6.4v-.2c0-.2.1-.4.4-.5l3.3-1h.2c.2 0 .3.1.4.4.5 1.8 1.1 3.7 1.8 5.6.8 2 1.6 3.6 2.4 5.1.1.1.1.2.1.3 0 .2-.1.3-.3.4L31.8 31c-.1.1-.2.1-.3.1s-.3-.1-.4-.3m22.2 2.5H40.6c-.4 0-.5-.2-.5-.5V5.6c0-.4.2-.5.5-.5h2.7C44 3.5 44.5 2 44.9.5c.1-.3.2-.4.5-.4h.1l3.7.4c.4.1.5.3.4.6q-.75 2.25-1.5 3.9h5.2c.4 0 .5.2.5.5v4.3c.9-1.3 1.7-2.7 2.4-4.3s1.2-3.3 1.6-5c.1-.3.2-.4.5-.4h.2l3.6.4c.2 0 .3.1.4.2s.1.2.1.4c-.2 1-.6 2.1-1 3.3h10.3c.3 0 .5.2.5.5v7.6q0 8.25-.3 12c-.2 2.5-.7 4.4-1.4 5.9s-1.8 2.5-3.3 3.2-3.4 1-5.9 1h-.8c-.3-.1-.4-.2-.5-.4l-1.4-3.8v-.2c0-.2.2-.3.5-.3 2 .1 3.5-.1 4.6-.4q1.65-.45 2.4-1.8.75-1.2.9-3.6c.2-2.6.3-5.6.3-9.1 0-1.9 0-3.9-.1-6.1h-7.7c-.8 1.8-1.8 3.3-2.8 4.5-.1.2-.2.2-.4.2-.1 0-.2 0-.3-.1l-2.3-1.3v20.4c0 .5-.2.7-.6.7m-8.8-24v7.4h4.9V9.3zm0 11.8v7.8h4.9v-7.8zm11.9-4.8c-.1-.2-.2-.3-.2-.4 0-.2.1-.3.3-.4l3.1-1.5c.1-.1.2-.1.3-.1.2 0 .3.1.4.2.9 1.1 1.7 2.4 2.5 3.8s1.4 2.8 1.9 4.2v.2c0 .2-.1.4-.3.5l-3.3 1.6-.3.1c-.2 0-.3-.1-.4-.3-1-3-2.3-5.6-4-7.9M78.3 1.9h8.8c.4 0 .5.2.5.5v28.8c0 .4-.2.5-.5.5h-8.8c-.4 0-.5-.2-.5-.5V2.5c0-.4.2-.6.5-.6m3.3 4.4v8.2h2.3V6.3zm0 12.2v8.9h2.3v-8.9zM94 29.2c.2.4.7.6 1.2.7 1.2.3 3.4.4 6.6.4 3.3 0 6.4-.1 9.4-.3h.1c.3 0 .5.2.5.5v3.1c0 .3-.2.5-.5.5q-4.65.3-9.6.3c-3.8 0-6.5-.1-8-.4-1.1-.2-2-.5-2.6-.9s-1-1-1.3-1.8-.4-1.9-.4-3.3V1.6c0-.4.2-.5.5-.5h20.9c.4 0 .5.2.5.5v3c0 .4-.2.5-.5.5H93.6v22.3c0 .9.2 1.4.4 1.8m.4-12v-2.3c0-.4.2-.5.5-.5h5.3c.2-.6.4-1.1.5-1.6.1-.4.3-.5.6-.5l2.7.3c.4 0 .5.2.4.7l-.4 1.2h6.8c.4 0 .5.2.5.5v2.3c0 .4-.2.5-.5.5h-8.2c-.3.6-.8 1.3-1.3 2h8.2c.4 0 .5.2.5.5v8c0 .4-.2.5-.5.5H97.7c-.4 0-.5-.2-.5-.5v-3.7L96 25.7c-.1.1-.2.2-.3.2-.2 0-.4-.1-.5-.3L93.8 23l-.1-.3c0-.2.1-.3.3-.5.9-.5 1.7-1.2 2.5-1.9.8-.8 1.5-1.6 2.1-2.5h-3.7c-.4-.1-.5-.3-.5-.6m2.3-4.6v-1.5H95c-.4 0-.5-.2-.5-.5V8.5c-.1-.4.1-.5.5-.5h1.7V6.6c0-.4.2-.5.6-.5h2.4c.4 0 .5.2.5.5V8h1.5c.4 0 .5.2.5.5v2.1c0 .4-.2.5-.5.5h-1.5v1.5c0 .4-.2.5-.5.5h-2.4c-.4.1-.6-.1-.6-.5m9.5 13v-3h-5.3v3zm-1.2-13v-1.5h-1.5c-.4 0-.5-.2-.5-.5V8.5c0-.4.2-.5.5-.5h1.5V6.6c0-.4.2-.5.5-.5h2.5c.4 0 .6.2.6.5V8h1.8c.4 0 .5.2.5.5v2.1c0 .4-.2.5-.5.5h-1.8v1.5c0 .4-.2.5-.6.5h-2.5c-.3.1-.5-.1-.5-.5m15.4 21.9.2-13.2c-.8 3-1.8 5.5-2.8 7.6-.1.2-.2.3-.4.3s-.3-.1-.4-.3l-1.9-3.6c-.1-.1-.1-.2-.1-.3s.1-.2.2-.4c2-2.8 3.6-6.1 4.8-9.8h-3.5c-.4 0-.5-.2-.5-.5V11c0-.4.2-.5.5-.5h4V6.2c-1 .1-2.1.2-3.1.2-.3 0-.5-.2-.6-.5l-.8-3.3v-.3c0-.2.2-.3.5-.3 3.7-.1 6.9-.6 9.7-1.5h.2c.2 0 .4.1.5.3l1.4 3.1.1.3q0 .3-.3.3-1.05.45-3.3.9v4.8h3.1c.4 0 .5.2.5.5V14c0 .4-.2.5-.5.5H125c1 1.9 2.2 3.6 3.7 4.9.1.1.2.2.2.3s0 .2-.1.4l-1.7 3.7c-.1.2-.3.3-.4.3s-.2-.1-.3-.3c-.7-1.1-1.3-2.4-1.8-3.8l.2 14.2c0 .4-.2.5-.5.5H121c-.5.3-.6.1-.6-.2m9.4-.1v-6.2H128c-.4 0-.5-.2-.5-.5v-2.9c0-.4.2-.5.5-.5h1.8V13.4c0-.4.2-.5.5-.5h6.7v-1.5c0-.4.2-.5.5-.5h3.3c.4 0 .5.2.5.5v1.5h6.7c.4 0 .5.2.5.5v10.9h1.3c.4 0 .5.2.5.5v2.9c0 .4-.2.5-.5.5h-1.3v1.1c0 1.5-.2 2.7-.5 3.5s-1 1.3-1.8 1.6c-.9.3-2.2.5-4 .5-.3 0-.4 0-.6-.1l-.3-.3-1-2.8v-.2c0-.3.2-.4.5-.4 1 0 1.8 0 2.3-.1s.8-.3 1-.6.2-.7.2-1.3v-.8H134v6.2c0 .4-.2.5-.5.5h-3.1q-.6 0-.6-.6m-.4-29.5-1.2-3v-.2c0-.2.2-.3.5-.3 1.3.1 2.7.1 4.3.1 2.5 0 5-.2 7.4-.4s4.6-.6 6.5-1h.2c.2 0 .4.1.5.4l1.5 2.7c0 .1.1.2.1.3 0 .2-.1.3-.4.4-1.4.4-3.3.7-5.9 1s-5.5.5-8.8.7H130c-.2-.2-.4-.4-.6-.7m2.6 7.2c-.2 0-.4-.1-.5-.4-.5-1.4-1.2-2.8-2-4.2-.1-.1-.1-.2-.1-.3 0-.2.1-.3.4-.4l3.1-.8h.2c.2 0 .4.1.5.3.7 1.3 1.2 2.7 1.7 4.2v.2c0 .2-.1.4-.4.5l-2.7.8zm5.2 6.7v-2.6H134v2.6zm0 5.7v-2.6H134v2.6zm1.3-13.9c-.2 0-.4-.1-.5-.3q-.6-1.95-1.5-3.3c0-.1-.1-.2-.1-.3 0-.2.1-.3.4-.4l2.9-.7h.2c.2 0 .3.1.4.3.6 1 1.1 2.2 1.4 3.4v.3c0 .3-.1.4-.4.5l-2.8.6zm5.9 8.2v-2.6H141v2.6zm0 5.7v-2.6H141v2.6zm-1.4-14c-.1-.1 0-.3.1-.4.9-1.7 1.5-3.3 1.8-4.6 0-.2.1-.3.2-.4s.3-.1.4 0l3.1 1c.2.1.3.1.3.2.1.1.1.3 0 .4-.8 2.2-1.6 3.8-2.4 5-.2.2-.4.3-.6.2l-2.8-1.1c.1 0 0-.1-.1-.3m25.6 1.7c-.6-.6-1-1.4-1-2.4 0-.9.3-1.7 1-2.3q.9-.9 2.4-.9t2.4.9c.6.6 1 1.4 1 2.3s-.3 1.7-1 2.4-1.4.9-2.4.9q-1.5 0-2.4-.9m0 10.7q.9-.9 2.4-.9t2.4.9c.6.6 1 1.4 1 2.3s-.3 1.7-1 2.4q-.9.9-2.4.9t-2.4-.9c-.6-.6-1-1.4-1-2.4 0-.9.4-1.7 1-2.3"/></svg>