<!-- Generator: Adobe Illustrator 25.0.0, SVG Export Plug-In  -->
<svg version="1.1" xmlns="http://www.w3.org/2000/svg" xmlns:xlink="http://www.w3.org/1999/xlink" x="0px" y="0px" width="214.6px"
	 height="40.8px" viewBox="0 0 214.6 40.8" style="overflow:visible;enable-background:new 0 0 214.6 40.8;" xml:space="preserve">
<style type="text/css">
	.st0{fill:#FFFFFF;}
</style>
<defs>
</defs>
<g>
	<path class="st0" d="M1.9,16.2l-1.8-4.3L0,11.6c0-0.2,0.1-0.4,0.3-0.5c1.5-1.1,2.9-2.6,4.3-4.5C6,4.7,7.1,2.8,7.9,0.8
		C8,0.4,8.3,0.3,8.6,0.3h4.5c0.3,0,0.6,0.1,0.8,0.4c1,2.1,2.1,4,3.3,5.6c1.1,1.6,2.4,3.1,3.8,4.2c0.1,0.1,0.2,0.3,0.3,0.4
		c0,0.1,0,0.2-0.1,0.4l-1.9,4.2c-0.1,0.2-0.3,0.4-0.4,0.4c-0.1,0-0.3-0.1-0.4-0.2c-0.8-0.8-1.5-1.6-2.1-2.5v2.1
		c0,0.4-0.2,0.6-0.6,0.6H6.3c-0.4,0-0.6-0.2-0.6-0.6v-1.9c-0.8,1-1.8,1.9-2.9,2.9c-0.2,0.1-0.3,0.2-0.4,0.2
		C2.2,16.6,2,16.4,1.9,16.2z M14.1,40.2c-1.3-1.5-3.1-3.1-5.3-4.9C6.6,33.5,5,32.4,4,31.9c-0.1-0.1-0.2-0.2-0.2-0.4
		c0-0.2,0-0.3,0.1-0.4l2.2-2.8c0.1-0.1,0.3-0.3,0.4-0.3c0.1,0,0.3,0,0.4,0.1c0.9,0.5,1.9,1.2,3.3,2.1c1-1.1,1.7-2.2,2.3-3.3
		c0.6-1.1,1-2.1,1.2-2.8H2.9c-0.3,0-0.4-0.2-0.4-0.6v-3.7c0-0.4,0.1-0.6,0.4-0.6h15.6c0.3,0,0.4,0.2,0.4,0.6v3.3
		c0,0.5,0,0.9-0.1,1.1c-0.4,1.3-0.9,2.8-1.7,4.4c-0.8,1.6-1.8,3.2-3.1,4.8c1.5,1.3,2.6,2.4,3.4,3.3c0.1,0.1,0.2,0.3,0.2,0.4
		c0,0.1,0,0.2-0.1,0.3L15,40.1c-0.1,0.1-0.3,0.2-0.4,0.2C14.4,40.4,14.2,40.3,14.1,40.2z M11,5.1c-0.9,2.1-2.2,4.3-3.8,6.5h7.7
		C13.2,9.2,11.9,7.1,11,5.1z M39.2,40.5c-1.4-0.4-2.8-1-4.1-1.7c-1.3-0.7-2.5-1.5-3.6-2.4c-0.2-0.2-0.3-0.3-0.3-0.5
		c0-0.1,0-0.3,0.1-0.4l1.9-2.8h-5.7l2,2.8c0.1,0.1,0.2,0.3,0.2,0.4c0,0.1,0,0.2-0.1,0.3c-1,0.9-2.2,1.8-3.6,2.5
		c-1.4,0.7-2.9,1.3-4.5,1.7c-0.1,0-0.1,0-0.2,0c-0.2,0-0.4-0.1-0.6-0.4l-1.9-3.5l-0.1-0.4c0-0.2,0.2-0.4,0.5-0.4
		c2.6-0.4,4.9-1.5,7.1-3.1h-3.8c-0.4,0-0.6-0.2-0.6-0.6V9.2c0-0.4,0.2-0.6,0.6-0.6h4.1c0.5-0.9,0.9-1.8,1.3-2.8h-6.9
		c-0.4,0-0.6-0.2-0.6-0.6V1.9c0-0.4,0.2-0.6,0.6-0.6h19.6c0.4,0,0.6,0.2,0.6,0.6v3.3c0,0.4-0.2,0.6-0.6,0.6h-7.2
		c-0.4,1.1-0.8,2.1-1.2,2.8h7.1c0.4,0,0.6,0.2,0.6,0.6v22.8c0,0.4-0.2,0.6-0.6,0.6h-4.6c1,0.7,2.1,1.3,3.3,1.9s2.4,0.9,3.5,1.2
		c0.2,0.1,0.4,0.2,0.4,0.4c0,0.2,0,0.3-0.1,0.4L40,40.1c-0.1,0.3-0.3,0.4-0.5,0.4C39.4,40.5,39.3,40.5,39.2,40.5z M34.7,15.4v-2.9
		h-8.1v2.9H34.7z M34.7,21.9v-2.7h-8.1v2.7H34.7z M34.7,28.8v-2.9h-8.1v2.9H34.7z"/>
	<path class="st0" d="M93,29.6c1,1.1,2.1,2.1,3.3,3c1.2,0.9,2.3,1.6,3.2,2.1c0.2,0.1,0.4,0.3,0.4,0.5c0,0.1,0,0.2-0.1,0.4l-2.9,4.2
		c-0.1,0.2-0.3,0.3-0.4,0.3c-0.1,0-0.3,0-0.4-0.1c-0.8-0.5-1.8-1.3-3-2.3c-1.2-1-2.3-2.2-3.3-3.4c-1.1,1.2-2.2,2.4-3.5,3.3
		s-2.4,1.8-3.5,2.4c-0.1,0.1-0.2,0.1-0.4,0.1c-0.2,0-0.4-0.1-0.5-0.3l-2.7-4.1c-0.1-0.1-0.1-0.3-0.1-0.4c0-0.2,0.1-0.4,0.4-0.4
		c2.9-1.4,5.2-3.2,7-5.4c-1.6-2.7-2.8-5.8-3.6-9.1s-1.3-7-1.5-11.1h-0.8c-0.4,0-0.6-0.2-0.6-0.6V6.5h-1.2v33.7
		c0,0.4-0.2,0.6-0.6,0.6h-4.1c-0.4,0-0.6-0.2-0.6-0.6V34c-2,0.4-4.3,0.9-6.7,1.3C64.3,35.7,62,36,60,36.3h-0.1
		c-0.3,0-0.5-0.2-0.6-0.5l-0.8-4.3v-0.1c0-0.3,0.2-0.5,0.6-0.6l3-0.2v-24h-2.3c-0.4,0-0.6-0.2-0.6-0.6V1.9c0-0.4,0.2-0.6,0.6-0.6
		h21.2c0.4,0,0.6,0.2,0.6,0.6v2h15.9c0.4,0,0.6,0.2,0.6,0.6v4.3c-0.5,8.5-2.1,15.4-5,20.6L93,29.6z M67.4,6.5V11h6.1V6.5H67.4z
		 M67.4,15.7V20h6.1v-4.3H67.4z M73.4,28.9v-4.2h-6.1v5.1L73.4,28.9z M89.7,24.3c1.8-4.1,2.8-9,2.9-14.9h-5.8
		C86.9,15.4,87.9,20.4,89.7,24.3z"/>
	<path class="st0" d="M118.3,40.2l-1.6-3.9c0-0.1,0-0.1,0-0.3c0-0.3,0.2-0.4,0.5-0.4c8.1-0.3,13.2-1.8,15.2-4.3L118,31.3
		c-0.4,0-0.6-0.2-0.6-0.6v-3.2c0-0.4,0.2-0.6,0.6-0.6h15.8c0.1-0.9,0.1-1.8,0.1-2.8c0-0.5,0.2-0.7,0.6-0.7l4.7,0
		c0.4,0,0.6,0.2,0.6,0.6c0,0.4,0,0.9-0.1,1.4c0,0.5-0.1,1-0.2,1.5h6.6c-0.6-0.9-1.3-1.7-2-2.4c-0.2-0.2-0.3-0.3-0.2-0.4
		c0-0.1,0.1-0.2,0.3-0.3c0.2-0.1,0.3-0.2,0.5-0.3l-0.8-1.8l-2.8,1.7c-0.1,0.1-0.2,0.1-0.4,0.1c-0.2,0-0.4-0.1-0.5-0.3
		c-1-1.3-2.3-2.4-3.8-3.4c-0.2-0.1-0.3-0.3-0.3-0.4s0.1-0.3,0.3-0.4l2.5-1.3h-4.4c-0.4,0-0.6-0.2-0.6-0.6v-2.4
		c0-0.4,0.2-0.6,0.6-0.6h0.5l-0.2-0.3l-1.4-2.3l-0.1-0.4c0-0.3,0.2-0.4,0.5-0.4c1.8-0.2,3.2-0.3,4.2-0.4c-0.5-0.6-0.9-1-1.2-1.2
		c-0.1-0.2-0.2-0.4-0.2-0.4c0-0.2,0.1-0.3,0.4-0.4l2.1-0.8c0.1,0,0.2-0.1,0.3-0.1c0.2,0,0.3,0.1,0.5,0.2c0.7,0.5,1.3,1.2,1.9,2
		c0.7-0.1,1.4-0.3,2-0.5c-0.4-0.5-1-1-1.7-1.6c-0.1-0.2-0.2-0.4-0.2-0.4c0-0.2,0.1-0.3,0.4-0.4l2.1-0.9c0.1,0,0.2,0,0.4,0
		c0.2,0,0.3,0.1,0.5,0.2c0.7,0.5,1.4,1.1,2.1,1.9c1.5-0.7,2.6-1.5,3.5-2.4h-8.3c-2,0.9-4.2,1.6-6.7,2.1h-0.2c-0.2,0-0.4-0.1-0.6-0.4
		l-1.5-2.5c-0.1-0.1-0.1-0.3-0.1-0.4c0-0.3,0.2-0.4,0.5-0.4c2.1-0.3,4-0.7,5.6-1.3s2.9-1.3,3.8-2.1c0.1-0.1,0.3-0.2,0.5-0.2h0.3
		l3.8,0.7c0.3,0.1,0.5,0.2,0.5,0.4c0,0.1-0.1,0.3-0.2,0.4L147.8,2h7.9c0.4,0,0.6,0.2,0.6,0.6v2c0,0.3,0,0.5-0.1,0.7
		c-1.5,2.1-4,4-7.4,5.5c-3.4,1.5-7.4,2.6-12,3.2h11.5v-1.9c0-0.4,0.2-0.6,0.6-0.6h4.1c0.4,0,0.6,0.2,0.6,0.6V14h2.9
		c0.4,0,0.6,0.2,0.6,0.6V17c0,0.4-0.2,0.6-0.6,0.6h-2.9v1.4c0,1.6-0.3,2.8-0.8,3.5s-1.5,1.3-3,1.6c0.5,0.6,1.1,1.5,1.7,2.6h4.6
		c0.4,0,0.6,0.2,0.6,0.6v3.2c0,0.4-0.2,0.6-0.6,0.6l-14.9-0.1c1.6,1.3,3.7,2.3,6.4,3s5.8,1.1,9.3,1.1c0.4,0,0.5,0.1,0.5,0.4
		c0,0.1,0,0.2,0,0.3l-1.6,4c-0.1,0.3-0.4,0.5-0.8,0.5c-8.6-0.5-14.6-2.8-18.1-6.9c-2.9,3.8-8.9,6.2-18,7h-0.1
		C118.6,40.6,118.4,40.5,118.3,40.2z M121.2,25.1l-3.7-1.7c-0.2-0.1-0.4-0.2-0.4-0.4c0-0.1,0-0.2,0.1-0.3c0.1-0.1,0.1-0.1,0.1-0.2
		c1.4-1.3,2.2-3.2,2.5-5.6h-2c-0.4,0-0.6-0.2-0.6-0.6v-3.1c0-0.4,0.2-0.6,0.6-0.6h9.5v-2.3h-7.6c-0.4,0-0.6-0.2-0.6-0.6V1.5
		c0-0.4,0.2-0.6,0.6-0.6h3.8c0.4,0,0.6,0.2,0.6,0.6V6h3.3V0.7c0-0.4,0.2-0.6,0.6-0.6h4.2c0.4,0,0.6,0.2,0.6,0.6v23.6
		c0,0.4-0.2,0.6-0.6,0.6H128c-0.4,0-0.6-0.2-0.6-0.6V17H125c-0.3,3.4-1.3,6.1-3,8c-0.1,0.1-0.3,0.2-0.5,0.2
		C121.4,25.2,121.3,25.2,121.2,25.1z M144.6,20.6c1.5,0,2.6-0.2,3.1-0.5s0.7-0.9,0.7-1.7v-0.8H140c1.4,0.7,2.7,1.7,3.9,3H144.6z"/>
	<path class="st0" d="M193.4,40.1l-0.8-2.2c0-0.1,0-0.1,0-0.2c0-0.3,0.2-0.5,0.6-0.5c0.1,0,0.3,0,0.3,0l-0.1-0.8
		c-2.1,0.5-4.3,0.9-6.9,1c-0.3,0-0.5-0.2-0.6-0.5l-0.3-2.3v-0.1c0-0.3,0.2-0.5,0.5-0.5c0.6,0,1.4,0,2.5-0.1v-2.9h-3.6V40
		c0,0.4-0.2,0.6-0.6,0.6h-2.8c-0.4,0-0.6-0.2-0.6-0.6V27.9c0-0.4,0.2-0.6,0.6-0.6h7v-1.4H183c-0.4,0-0.6-0.2-0.6-0.6V13.8
		c0-0.4,0.2-0.6,0.6-0.6h1v-1.8h-2.7v3.2c0,5.4-0.2,10.4-0.6,15c-0.4,4.6-1,8-1.8,10.4c-0.1,0.3-0.2,0.4-0.4,0.4
		c-0.1,0-0.2,0-0.4-0.1l-3.5-2.2c-0.2-0.1-0.3-0.3-0.3-0.5c0-0.1,0-0.3,0-0.4c0.9-2.1,1.5-5.1,1.9-8.8c0.4-3.7,0.6-8.3,0.6-13.9V1.8
		c0-0.4,0.2-0.6,0.6-0.6h21.8c0.4,0,0.6,0.2,0.6,0.6v3c0,0.4-0.2,0.6-0.6,0.6h-2.3v2.2h2c0.4,0,0.6,0.2,0.6,0.6v2.5
		c0,0.4-0.2,0.6-0.6,0.6h-2v1.8h1.2c0.4,0,0.6,0.2,0.6,0.6v11.4c0,0.4-0.2,0.6-0.6,0.6h-5.9v1.4h6.8c0.4,0,0.6,0.2,0.6,0.6v6.8
		c1.1-2.4,1.9-5.2,2.4-8.6c0.5-3.4,0.8-7.5,0.8-12.4h-2.1c-0.4,0-0.6-0.2-0.6-0.6V9c0-0.4,0.2-0.6,0.6-0.6h2.1V0.7
		c0-0.4,0.2-0.6,0.6-0.6h3.6c0.4,0,0.6,0.2,0.6,0.6v7.7h6.3c0.4,0,0.6,0.2,0.6,0.6v6.9c0,5.6-0.1,10.3-0.3,14
		c-0.1,3-0.5,5.3-1.1,6.7c-0.6,1.5-1.5,2.5-2.5,3s-2.6,0.7-4.6,0.7c-0.4,0-0.6-0.2-0.7-0.5l-1.1-2.9c-0.6,1.5-1.2,2.6-1.6,3.4
		c-0.1,0.2-0.3,0.3-0.4,0.3c-0.1,0-0.3,0-0.4-0.1l-2.7-2c-0.3,0.7-0.9,1.2-1.6,1.6c-0.7,0.3-1.8,0.5-3.3,0.6
		C193.8,40.7,193.6,40.5,193.4,40.1z M183.9,7.7V5.5h-2.7v2.2H183.9z M188.7,18.2v-1.9h-2.5v1.9H188.7z M188.7,22.9v-2h-2.5v2H188.7
		z M193,13.2v-1.8h-1.3c-0.4,0-0.6-0.2-0.6-0.6V8.3c0-0.4,0.2-0.6,0.6-0.6h1.3V5.5h-5v2.2h1.6c0.4,0,0.6,0.2,0.6,0.6v2.5
		c0,0.4-0.2,0.6-0.6,0.6h-1.6v1.8H193z M195.8,35.4v-4.5h-4v2.5l0.9-0.1l-0.3-0.9c0-0.1,0-0.1,0-0.3c0-0.3,0.1-0.4,0.4-0.5l0.7-0.2
		c0.1,0,0.1,0,0.3,0c0.2,0,0.4,0.1,0.5,0.4c0.5,1.4,0.9,2.9,1.3,4.6C195.7,36.1,195.8,35.8,195.8,35.4z M194.8,18.2v-1.9h-2.7v1.9
		H194.8z M194.8,22.9v-2h-2.7v2H194.8z M207.6,34.7c0.6-0.3,1-0.8,1.3-1.5c0.3-0.7,0.5-1.9,0.7-3.4c0.2-2,0.3-4.8,0.3-8.4l-0.1-7.7
		h-2.3c-0.1,4.6-0.3,8.6-0.7,12.1c-0.4,3.5-1,6.6-1.8,9.2C206.1,35,207,34.9,207.6,34.7z"/>
</g>
</svg>
