<svg xmlns="http://www.w3.org/2000/svg" xml:space="preserve" width="273.6" height="41" style="overflow:visible" viewBox="0 0 273.6 41"><path fill="#fff" d="M1.9 16.2.1 11.9l-.1-.3c0-.2.1-.4.3-.5C1.8 10 3.2 8.5 4.6 6.6S7.1 2.8 7.9.8c.1-.4.4-.5.7-.5h4.5c.3 0 .6.1.8.4 1 2.1 2.1 4 3.3 5.6 1.1 1.6 2.4 3.1 3.8 4.2.1.1.2.3.3.4 0 .1 0 .2-.1.4l-1.9 4.2c-.1.2-.3.4-.4.4s-.3-.1-.4-.2c-.8-.8-1.5-1.6-2.1-2.5v2.1q0 .6-.6.6H6.2q-.6 0-.6-.6v-1.9c-.8 1-1.8 1.9-2.9 2.9-.2.1-.3.2-.4.2-.1.1-.3-.1-.4-.3m12.2 24c-1.3-1.5-3.1-3.1-5.3-4.9S5 32.4 4 31.9c-.1-.1-.2-.2-.2-.4s0-.3.1-.4l2.2-2.8c.1-.1.3-.3.4-.3s.3 0 .4.1c.9.5 1.9 1.2 3.3 2.1 1-1.1 1.7-2.2 2.3-3.3s1-2.1 1.2-2.8H2.9c-.3 0-.4-.2-.4-.6v-3.7c0-.4.1-.6.4-.6h15.6c.3 0 .4.2.4.6v3.3c0 .5 0 .9-.1 1.1-.4 1.3-.9 2.8-1.7 4.4s-1.8 3.2-3.1 4.8c1.5 1.3 2.6 2.4 3.4 3.3.1.1.2.3.2.4s0 .2-.1.3L15 40.1c-.1.1-.3.2-.4.2-.2.1-.4 0-.5-.1M11 5.1c-.9 2.1-2.2 4.3-3.8 6.5h7.7c-1.7-2.4-3-4.5-3.9-6.5m28.2 35.4c-1.4-.4-2.8-1-4.1-1.7q-1.95-1.05-3.6-2.4c-.2-.2-.3-.3-.3-.5 0-.1 0-.3.1-.4l1.9-2.8h-5.7l2 2.8c.1.1.2.3.2.4s0 .2-.1.3c-1 .9-2.2 1.8-3.6 2.5s-2.9 1.3-4.5 1.7h-.2c-.2 0-.4-.1-.6-.4l-1.9-3.5-.1-.4c0-.2.2-.4.5-.4 2.6-.4 4.9-1.5 7.1-3.1h-3.8q-.6 0-.6-.6V9.2q0-.6.6-.6h4.1c.5-.9.9-1.8 1.3-2.8H21q-.6 0-.6-.6V1.9q0-.6.6-.6h19.6q.6 0 .6.6v3.3q0 .6-.6.6h-7.2c-.4 1.1-.8 2.1-1.2 2.8h7.1q.6 0 .6.6V32q0 .6-.6.6h-4.6c1 .7 2.1 1.3 3.3 1.9s2.4.9 3.5 1.2c.2.1.4.2.4.4s0 .3-.1.4L40 40.1c-.1.3-.3.4-.5.4zm-4.5-25.1v-2.9h-8.1v2.9zm0 6.5v-2.7h-8.1v2.7zm0 6.9v-2.9h-8.1v2.9zm58.3.8q1.5 1.65 3.3 3c1.2.9 2.3 1.6 3.2 2.1.2.1.4.3.4.5 0 .1 0 .2-.1.4l-2.9 4.2c-.1.2-.3.3-.4.3s-.3 0-.4-.1c-.8-.5-1.8-1.3-3-2.3s-2.3-2.2-3.3-3.4c-1.1 1.2-2.2 2.4-3.5 3.3-1.2 1-2.4 1.8-3.5 2.4-.1.1-.2.1-.4.1s-.4-.1-.5-.3l-2.7-4.1c-.1-.1-.1-.3-.1-.4 0-.2.1-.4.4-.4 2.9-1.4 5.2-3.2 7-5.4-1.6-2.7-2.8-5.8-3.6-9.1s-1.3-7-1.5-11.1h-.8q-.6 0-.6-.6V6.5h-1.2v33.7q0 .6-.6.6h-4.1q-.6 0-.6-.6V34c-2 .4-4.3.9-6.7 1.3-2.5.4-4.8.7-6.8 1h-.1c-.3 0-.5-.2-.6-.5l-.8-4.3v-.1q0-.45.6-.6l3-.2v-24h-2.3q-.6 0-.6-.6V1.9q0-.6.6-.6H81q.6 0 .6.6v2h15.9q.6 0 .6.6v4.3c-.5 8.5-2.1 15.4-5 20.6zM67.4 6.5V11h6.1V6.5zm0 9.2V20h6.1v-4.3zm6 13.2v-4.2h-6.1v5.1zm16.3-4.6c1.8-4.1 2.8-9 2.9-14.9h-5.8c.1 6 1.1 11 2.9 14.9m55.8-.5c-3.3-1.4-6.1-2.9-8.4-4.6-2 1.5-4.6 2.9-8 4.2-3.3 1.3-6.7 2.2-10 2.7h-.1c-.3 0-.5-.1-.6-.4l-1.7-3.6c0-.1-.1-.2-.1-.3 0-.3.2-.4.5-.5q4.5-.45 8.7-1.5c2.8-.7 5.1-1.5 6.9-2.5 0-.1-.1-.3-.3-.7-5.2.8-9.7 1.3-13.6 1.5h-.1c-.3 0-.5-.2-.6-.5l-.5-2c-.1-.3-.1-.5-.1-.5q0-.3.6-.9c.5-.5 1.1-1.2 1.8-2 .7-.9 1.3-1.6 1.7-2.2.2-.4.5-.5.8-.4l3.6.7c.2 0 .4.1.4.3.1.2 0 .4-.1.5-1.1 1.4-2 2.4-2.7 2.9 3.7-.4 6-.6 7-.8-.4-.6-.6-1-.8-1.3-.1-.1-.1-.3-.1-.4 0-.2.1-.4.4-.4l2.7-.8h.3c.2 0 .4.1.5.3 1.7 1.8 2.9 3.5 3.7 5.1h.5l-.2-.9c0-.2.1-.4.2-.6s.3-.4.5-.6.4-.4.6-.7c.7-.8 1.3-1.7 2-2.6l.6-.8q.3-.45.9-.3l3.3.8c.2.1.4.2.5.3s.1.3-.1.5c-.3.4-.7.9-1.1 1.4-.5.5-.9 1-1.4 1.5 2.5-.1 4.6-.3 6.4-.6l-.9-1.2c-.2-.2-.3-.3-.3-.5s.1-.4.4-.4l2.8-1 .4-.1c.2 0 .4.1.5.3 1.9 1.9 3.4 3.9 4.5 5.9 0 .1.1.2.1.3 0 .2-.1.3-.4.5l-3.1 1.5c-.1 0-.2.1-.3.1-.2 0-.3-.1-.5-.4-.1-.1-.3-.6-.8-1.4-2.6.4-5.9.7-9.9.8q2.7 1.5 6.6 2.4c3.9.9 5.3 1.2 8.2 1.5.4 0 .5.2.5.5v.3l-1.5 4.2c-.1.4-.4.5-.8.4-3.5-.7-6.8-1.6-10-3m-24.6 16.8-1.8-3.4c-.1-.2-.1-.3-.1-.4 0-.3.2-.4.5-.4 6.9 0 12.9-.7 18.1-2s9.3-3.4 12.4-6.2c.1-.1.3-.2.4-.2s.3.1.4.2l2.7 2.5c.2.1.3.3.3.4s0 .2-.1.3c-3.7 3.2-8.2 5.6-13.6 7.1s-11.6 2.3-18.6 2.5c-.2 0-.5-.1-.6-.4m1.8-6.2-1.5-2.5c-.1-.1-.1-.3-.1-.4 0-.2.2-.4.5-.4 4.9-.2 9.3-.9 13-1.9 3.8-1 6.8-2.4 9.1-4.3.1-.1.3-.2.4-.2.2 0 .3.1.4.2l2.3 1.9c.2.1.3.3.3.4s0 .3-.2.4c-2.7 2-6.1 3.7-10.3 5s-8.6 2-13.3 2.3c-.2-.1-.4-.3-.6-.5m27-24.9q-.3 0-.6-.3c-.3-.4-.7-.9-1.2-1.4-2.5.3-6.4.6-11.5.8s-9.2.4-12.1.4h-1.5c-.4 0-.6-.2-.7-.5l-.4-2.4v-.4c0-.3.2-.5.5-.7.6-.3 1.3-.7 2-1.2 2.1-1.4 3.7-2.5 4.7-3.5.2-.2.5-.3.7-.3h.4l4.6.8c.3 0 .5.2.5.5 0 .1-.1.3-.3.4Q132.55 3.5 130 5c4-.1 8.6-.3 13.9-.7l-2.2-1.5c-.2-.1-.3-.3-.3-.4 0-.2.1-.3.4-.4l3.3-1.1h.4c.2 0 .4 0 .5.1 1.2.6 2.6 1.5 4 2.7s2.8 2.3 3.9 3.5c.1.1.2.3.2.4 0 .2-.1.3-.4.4L150 9.5zm-24.9 19.9c-.3 0-.5-.1-.6-.4l-1.4-2.2c-.1-.1-.1-.3-.1-.4 0-.3.2-.4.5-.4q4.5-.3 8.4-1.5c2.6-.8 4.8-1.7 6.5-2.8.1-.1.3-.1.4-.1.2 0 .3.1.4.2l2 1.6c.2.1.3.3.3.4s-.1.3-.3.4c-4.3 2.8-9.6 4.6-16 5.3h-.1zm50.1-17.5V7.8q0-.6.6-.6h5V.8q0-.6.6-.6h4.4q.6 0 .6.6v6.4h8.7q.6 0 .6.6v1.6l.1 10.7c0 2.3 0 4.4-.1 6.2-.1 4-.5 6.9-1 8.9s-1.4 3.3-2.7 4c-1.2.7-3.1 1.1-5.6 1.1-.5 0-.8-.2-.8-.5l-1.5-4.6v-.3c0-.3.2-.4.6-.4 1.6.1 2.8-.1 3.5-.5s1.3-1.2 1.6-2.5c.3-1.2.5-3.2.6-5.9.1-1.7.1-4.4.1-7.9v-5.2H186c-.1 6-.7 11.4-1.6 16.2s-2.5 8.7-4.6 11.8c-.1.2-.3.3-.4.3s-.3 0-.4-.1l-4.2-2.6c-.2-.1-.3-.3-.3-.4s0-.3.1-.4q3.15-4.35 4.5-10.5c.8-4 1.3-8.8 1.4-14.2h-4.9c-.5-.1-.7-.3-.7-.7M198.7 4h15.2q.6 0 .6.6v34q0 .6-.6.6h-15.2q-.6 0-.6-.6v-34c-.1-.4.2-.6.6-.6m4.9 5.3V34h5.4V9.3zm30.7 30.9-1.6-3.9V36c0-.3.2-.4.5-.4 8.1-.3 13.2-1.8 15.2-4.3l-14.4.1q-.6 0-.6-.6v-3.2q0-.6.6-.6h15.8c.1-.9.1-1.8.1-2.8 0-.5.2-.7.6-.7h4.7q.6 0 .6.6c0 .4 0 .9-.1 1.4 0 .5-.1 1-.2 1.5h6.6c-.6-.9-1.3-1.7-2-2.4-.2-.2-.3-.3-.2-.4q0-.15.3-.3c.2-.1.3-.2.5-.3l-.8-1.8-2.8 1.7c-.1.1-.2.1-.4.1s-.4-.1-.5-.3c-1-1.3-2.3-2.4-3.8-3.4-.2-.1-.3-.3-.3-.4s.1-.3.3-.4l2.5-1.3h-4.4q-.6 0-.6-.6v-2.4q0-.6.6-.6h.5l-.2-.3-1.4-2.3-.1-.4c0-.3.2-.4.5-.4 1.8-.2 3.2-.3 4.2-.4q-.75-.9-1.2-1.2l-.2-.4c0-.2.1-.3.4-.4l2.1-.8c.1 0 .2-.1.3-.1.2 0 .3.1.5.2.7.5 1.3 1.2 1.9 2 .7-.1 1.4-.3 2-.5-.4-.5-1-1-1.7-1.6l-.2-.4c0-.2.1-.3.4-.4l2.1-.9h.4c.2 0 .3.1.5.2.7.5 1.4 1.1 2.1 1.9 1.5-.7 2.6-1.5 3.5-2.4h-8.3c-2 .9-4.2 1.6-6.7 2.1h-.2c-.2 0-.4-.1-.6-.4l-1.5-2.5c-.1-.1-.1-.3-.1-.4 0-.3.2-.4.5-.4 2.1-.3 4-.7 5.6-1.3 1.7-.6 2.9-1.3 3.8-2.1.1-.1.3-.2.5-.2h.3l3.8.7c.3.1.5.2.5.4 0 .1-.1.3-.2.4l-.4.1h7.9q.6 0 .6.6v2c0 .3 0 .5-.1.7-1.5 2.1-4 4-7.4 5.5s-7.4 2.6-12 3.2h11.5v-1.9q0-.6.6-.6h4.1q.6 0 .6.6V14h2.9q.6 0 .6.6V17q0 .6-.6.6h-2.9V19c0 1.6-.3 2.8-.8 3.5s-1.5 1.3-3 1.6c.5.6 1.1 1.5 1.7 2.6h4.6q.6 0 .6.6v3.2q0 .6-.6.6l-14.9-.1c1.6 1.3 3.7 2.3 6.4 3s5.8 1.1 9.3 1.1c.4 0 .5.1.5.4v.3l-1.6 4c-.1.3-.4.5-.8.5-8.6-.5-14.6-2.8-18.1-6.9-2.9 3.8-8.9 6.2-18 7-.3.2-.5.1-.7-.2m2.9-15.1-3.7-1.7c-.2-.1-.4-.2-.4-.4 0-.1 0-.2.1-.3s.1-.1.1-.2c1.4-1.3 2.2-3.2 2.5-5.6h-2q-.6 0-.6-.6v-3.1q0-.6.6-.6h9.5v-2.3h-7.6q-.6 0-.6-.6V1.5q0-.6.6-.6h3.8q.6 0 .6.6V6h3.3V.7q0-.6.6-.6h4.2q.6 0 .6.6v23.6q0 .6-.6.6H244q-.6 0-.6-.6V17h-2.3c-.3 3.4-1.3 6.1-3 8-.2.1-.3.2-.5.2-.1 0-.3 0-.4-.1m23.4-4.5c1.5 0 2.6-.2 3.1-.5s.7-.9.7-1.7v-.8h-8.3q2.1 1.05 3.9 3z"/></svg>