<!-- Generator: Adobe Illustrator 25.0.0, SVG Export Plug-In  -->
<svg version="1.1" xmlns="http://www.w3.org/2000/svg" xmlns:xlink="http://www.w3.org/1999/xlink" x="0px" y="0px" width="824.9px"
	 height="1018.9px" viewBox="0 0 824.9 1018.9" style="overflow:visible;enable-background:new 0 0 824.9 1018.9;"
	 xml:space="preserve">
<style type="text/css">
	.st0{fill:#DF032E;}
</style>
<defs>
</defs>
<path d="M783.3,1018.9H41.6v-6.1c0-19.5-15.9-35.4-35.4-35.4H0V42.7h6.1c19.5,0,35.4-15.9,35.4-35.4c0-0.2,0-0.4,0-0.6L41.4,0h742.2
	l-0.2,6.7c0,0.2,0,0.4,0,0.6c0,19.5,15.9,35.4,35.4,35.4h6.1v934.6h-6.1c-19.5,0-35.4,15.9-35.4,35.4V1018.9z"/>
<path class="st0" d="M774.9,1010.3h-725v-6c0-19.1-15.5-34.6-34.6-34.6h-6V50.3h6c19.1,0,34.6-15.5,34.6-34.6c0-0.2,0-0.4,0-0.6
	l-0.2-6.5h725.4l-0.2,6.5c0,0.2,0,0.4,0,0.6c0,19.1,15.5,34.6,34.6,34.6h6v919.4h-6c-19.1,0-34.6,15.5-34.6,34.6V1010.3z
	 M61.5,998.3h701.8c2.7-20.9,19.3-37.5,40.2-40.2V61.9c-21.3-2.7-38.1-19.9-40.4-41.4H61.7C59.4,42,42.6,59.2,21.3,61.9v896.2
	C42.2,960.8,58.8,977.4,61.5,998.3z"/>
</svg>
