<svg xmlns="http://www.w3.org/2000/svg" xml:space="preserve" id="圖層_1" x="0" y="0" viewBox="0 0 824.9 1018.9"><path d="M783.3 1018.9H41.6v-6.1c0-19.5-15.9-35.4-35.4-35.4H0V42.7h6.1c19.5 0 35.4-15.9 35.4-35.4v-.6L41.4 0h742.2l-.2 6.7v.6c0 19.5 15.9 35.4 35.4 35.4h6.1v934.6h-6.1c-19.5 0-35.4 15.9-35.4 35.4v6.2z"/><path d="M774.9 1010.3h-725v-6c0-19.1-15.5-34.6-34.6-34.6h-6V50.3h6c19.1 0 34.6-15.5 34.6-34.6v-.6l-.2-6.5h725.4l-.2 6.5v.6c0 19.1 15.5 34.6 34.6 34.6h6v919.4h-6c-19.1 0-34.6 15.5-34.6 34.6z" style="fill:#df032e"/></svg>