<!-- Generator: Adobe Illustrator 25.0.0, SVG Export Plug-In  -->
<svg version="1.1" xmlns="http://www.w3.org/2000/svg" xmlns:xlink="http://www.w3.org/1999/xlink" x="0px" y="0px" width="215.1px"
	 height="40.6px" viewBox="0 0 215.1 40.6" style="overflow:visible;enable-background:new 0 0 215.1 40.6;" xml:space="preserve">
<style type="text/css">
	.st0{fill:#FFFFFF;}
</style>
<defs>
</defs>
<g>
	<path class="st0" d="M0,30.6v-3.5c0-0.4,0.2-0.6,0.6-0.6h3.5V10.2c0-0.4,0.2-0.6,0.6-0.6h13V6.3H2c-0.4,0-0.6-0.2-0.6-0.6V1.9
		c0-0.4,0.2-0.6,0.6-0.6h37c0.4,0,0.6,0.2,0.6,0.6v3.8c0,0.4-0.2,0.6-0.6,0.6H23.3v3.3h13.1c0.4,0,0.6,0.2,0.6,0.6v16.3h3.4
		c0.4,0,0.6,0.2,0.6,0.6v3.5c0,0.4-0.2,0.6-0.6,0.6H37v2.1c0,1.9-0.2,3.4-0.7,4.4s-1.4,1.7-2.6,2.2s-3.1,0.6-5.5,0.6h-1.5
		c-0.4,0-0.6-0.2-0.8-0.5l-1.5-3.6c0-0.1,0-0.1,0-0.3c0-0.3,0.2-0.4,0.6-0.4l1.6,0c1.5,0,2.6-0.1,3.3-0.3s1.2-0.4,1.4-0.8
		c0.2-0.3,0.3-0.8,0.3-1.5v-2.1H9.6V40c0,0.4-0.2,0.6-0.6,0.6H4.7c-0.4,0-0.6-0.2-0.6-0.6v-8.8H0.6C0.2,31.3,0,31,0,30.6z M9.6,14.3
		v3.8h8.1v-3.8H9.6z M9.6,22.5v4h8.1v-4H9.6z M23.3,14.3v3.8h8.3v-3.8H23.3z M23.3,22.5v4h8.3v-4H23.3z"/>
	<path class="st0" d="M59.1,36c-0.3,0-0.5-0.2-0.5-0.5l-0.7-4.2l0-0.1c0-0.3,0.2-0.5,0.5-0.6c1.5-0.2,3.2-0.6,5-1v-9.6h-3.7
		c-0.4,0-0.6-0.2-0.6-0.6v-3.8c0-0.4,0.2-0.6,0.6-0.6h3.7V7.1h-4.1c-0.4,0-0.6-0.2-0.6-0.6V2.6c0-0.4,0.2-0.6,0.6-0.6h13.3
		c0.4,0,0.6,0.2,0.6,0.6v3.8c0,0.4-0.2,0.6-0.6,0.6h-3.8v7.8H72c0.4,0,0.6,0.2,0.6,0.6v3.8c0,0.4-0.2,0.6-0.6,0.6h-3.2V28
		c0.4-0.1,1.5-0.5,3-1l0.9-0.3l0.3-0.1c0.3,0,0.4,0.2,0.4,0.6v4c0,0.4-0.1,0.6-0.4,0.7c-2.1,0.8-4.3,1.5-6.8,2.2
		c-2.5,0.7-4.8,1.3-7,1.8L59.1,36z M69.1,36.5c0-0.2,0.1-0.4,0.4-0.4c3.1-1.3,5.3-3.1,6.7-5.4c1.4-2.2,2.1-5.1,2.3-8.8l0-2.9h-4.2
		c-0.4,0-0.6-0.2-0.6-0.6v-4c0-0.4,0.2-0.6,0.6-0.6h23.2c0.4,0,0.6,0.2,0.6,0.6v4c0,0.4-0.2,0.6-0.6,0.6h-5.8v14.3
		c0,0.7,0.3,1.1,0.8,1.2c0.1,0,0.3,0,0.4,0c0.1,0,0.3,0,0.4,0c0.4,0,0.8-0.2,1-0.6c0.2-0.4,0.3-1,0.4-1.9c0.1-0.9,0.1-2.2,0.2-4
		c0-0.2,0.1-0.4,0.2-0.5c0.1-0.1,0.3-0.1,0.5,0l3.3,1.2c0.3,0.1,0.5,0.3,0.5,0.7c-0.1,2.7-0.3,4.8-0.6,6.3c-0.3,1.5-0.9,2.5-1.7,3.2
		c-0.8,0.7-1.9,1-3.3,1.1h-2.7c-1.8-0.1-3-0.5-3.6-1.2c-0.6-0.7-0.9-1.9-0.9-3.3V19.1h-2.9l0,2.9c-0.2,4.5-1,8.3-2.6,11.2
		s-3.9,5.4-7.2,7.2c-0.1,0.1-0.2,0.1-0.4,0.1c-0.2,0-0.3-0.1-0.5-0.2l-3.6-3.4C69.1,36.8,69.1,36.6,69.1,36.5z M75.8,1.8h19.8
		c0.4,0,0.6,0.2,0.6,0.6v4.1c0,0.4-0.2,0.6-0.6,0.6H75.8c-0.4,0-0.6-0.2-0.6-0.6V2.5C75.1,2,75.3,1.8,75.8,1.8z"/>
	<path class="st0" d="M117.3,22.2v-4.8c0-0.4,0.2-0.6,0.6-0.6h37.4c0.4,0,0.6,0.2,0.6,0.6v4.8c0,0.4-0.2,0.6-0.6,0.6h-37.4
		C117.5,22.8,117.3,22.6,117.3,22.2z"/>
	<path class="st0" d="M174.5,33.6c0-0.1,0.1-0.3,0.2-0.4c1.5-1.6,3-3.6,4.4-6c1.4-2.4,2.6-4.7,3.5-7.1c0.2-0.4,0.4-0.5,0.8-0.3
		l4,2.4c0.2,0.1,0.3,0.3,0.3,0.5c0,0.1,0,0.2-0.1,0.4c-1,2.5-2.2,4.9-3.6,7.3c-1.4,2.4-2.8,4.5-4.2,6.1c-0.2,0.2-0.3,0.3-0.5,0.3
		c-0.1,0-0.2,0-0.4-0.1l-4.2-2.7C174.6,33.9,174.5,33.8,174.5,33.6z M178.8,9.3c-1.2-1.3-2.3-2.5-3.5-3.4c-0.2-0.1-0.3-0.3-0.3-0.4
		c0-0.2,0.1-0.3,0.3-0.4l3.5-2.6c0.1-0.1,0.3-0.2,0.4-0.2c0.2,0,0.3,0.1,0.4,0.2c1.2,1,2.4,2.1,3.7,3.4c1.2,1.3,2.3,2.6,3.1,3.9
		c0.1,0.1,0.1,0.2,0.1,0.4c0,0.2-0.1,0.3-0.3,0.5l-3.8,2.9c-0.1,0.1-0.3,0.1-0.4,0.1c-0.2,0-0.4-0.1-0.5-0.3
		C180.9,12,179.9,10.7,178.8,9.3z M195.2,34.9c-2.1,2.3-4.6,4.1-7.6,5.5c-0.1,0.1-0.2,0.1-0.4,0.1c-0.2,0-0.4-0.1-0.5-0.3l-3-4.3
		c-0.1-0.1-0.1-0.3-0.1-0.4c0-0.2,0.1-0.4,0.4-0.5c4.3-1.7,7.5-4.1,9.6-7.3c2.1-3.2,3.1-7.4,3.1-12.5v-2.3c0-0.4,0.2-0.6,0.6-0.6
		h4.5c0.4,0,0.6,0.2,0.6,0.6l0,4.1c0.3,4,1.5,7.5,3.7,10.5c2.2,3.1,5.1,5.5,8.6,7.4c0.2,0.1,0.4,0.3,0.4,0.5c0,0.1,0,0.2-0.1,0.4
		L212,40c-0.1,0.2-0.3,0.3-0.5,0.3c-0.1,0-0.3,0-0.4-0.1c-2.5-1.5-4.8-3.4-6.8-5.8c-2-2.4-3.5-4.8-4.5-7.3
		C198.8,30.1,197.3,32.7,195.2,34.9z M213.9,5.3c-0.1,2.8-0.3,5.6-0.8,8.5c-0.5,2.9-1.2,5.4-2.1,7.6c-0.1,0.2-0.2,0.3-0.3,0.4
		c-0.1,0.1-0.3,0.1-0.5,0l-4.6-1.5c-0.3-0.1-0.4-0.2-0.4-0.4l0.1-0.4c0.7-1.4,1.3-3,1.7-4.8c0.5-1.8,0.7-3.4,0.8-4.8h-12
		c-1.8,4.1-3.8,7.4-6,9.6c-0.1,0.1-0.3,0.2-0.4,0.2c-0.1,0-0.3-0.1-0.4-0.2l-3.9-3.2c-0.2-0.1-0.3-0.3-0.3-0.4
		c0-0.2,0.1-0.3,0.3-0.4c2.1-1.9,3.8-4.2,5.1-6.8c1.3-2.6,2.1-5.3,2.5-8.1c0.1-0.4,0.3-0.5,0.6-0.5h0.1l4.6,0.5
		c0.4,0.1,0.6,0.3,0.5,0.7c-0.2,1.2-0.5,2.3-0.8,3.4h15.6C213.7,4.6,213.9,4.8,213.9,5.3z"/>
</g>
</svg>
