<svg xmlns="http://www.w3.org/2000/svg" xml:space="preserve" width="215.1" height="40.6" style="overflow:visible" viewBox="0 0 215.1 40.6"><path fill="#fff" d="M0 30.6v-3.5q0-.6.6-.6h3.5V10.2q0-.6.6-.6h13V6.3H2q-.6 0-.6-.6V1.9q0-.6.6-.6h37q.6 0 .6.6v3.8q0 .6-.6.6H23.3v3.3h13.1q.6 0 .6.6v16.3h3.4q.6 0 .6.6v3.5q0 .6-.6.6H37v2.1c0 1.9-.2 3.4-.7 4.4s-1.4 1.7-2.6 2.2-3.1.6-5.5.6h-1.5c-.4 0-.6-.2-.8-.5l-1.5-3.6v-.3c0-.3.2-.4.6-.4h1.6q2.25 0 3.3-.3c1.05-.3 1.2-.4 1.4-.8q.3-.45.3-1.5V31h-22v9q0 .6-.6.6H4.7q-.6 0-.6-.6v-8.8H.6c-.4.1-.6-.2-.6-.6m9.6-16.3v3.8h8.1v-3.8zm0 8.2v4h8.1v-4zm13.7-8.2v3.8h8.3v-3.8zm0 8.2v4h8.3v-4zM59.1 36c-.3 0-.5-.2-.5-.5l-.7-4.2v-.1c0-.3.2-.5.5-.6 1.5-.2 3.2-.6 5-1V20h-3.7q-.6 0-.6-.6v-3.8q0-.6.6-.6h3.7V7.1h-4.1q-.6 0-.6-.6V2.6q0-.6.6-.6h13.3q.6 0 .6.6v3.8q0 .6-.6.6h-3.8v7.8H72q.6 0 .6.6v3.8q0 .6-.6.6h-3.2V28c.4-.1 1.5-.5 3-1l.9-.3.3-.1c.3 0 .4.2.4.6v4c0 .4-.1.6-.4.7-2.1.8-4.3 1.5-6.8 2.2s-4.8 1.3-7 1.8zm10 .5c0-.2.1-.4.4-.4 3.1-1.3 5.3-3.1 6.7-5.4 1.4-2.2 2.1-5.1 2.3-8.8V19h-4.2q-.6 0-.6-.6v-4q0-.6.6-.6h23.2q.6 0 .6.6v4q0 .6-.6.6h-5.8v14.3c0 .7.3 1.1.8 1.2h.8c.4 0 .8-.2 1-.6s.3-1 .4-1.9.1-2.2.2-4c0-.2.1-.4.2-.5s.3-.1.5 0l3.3 1.2c.3.1.5.3.5.7q-.15 4.05-.6 6.3c-.3 1.5-.9 2.5-1.7 3.2s-1.9 1-3.3 1.1h-2.7q-2.7-.15-3.6-1.2c-.6-.7-.9-1.9-.9-3.3V19.1h-2.9V22c-.2 4.5-1 8.3-2.6 11.2s-3.9 5.4-7.2 7.2c-.1.1-.2.1-.4.1s-.3-.1-.5-.2l-3.6-3.4c-.3-.1-.3-.3-.3-.4m6.7-34.7h19.8q.6 0 .6.6v4.1q0 .6-.6.6H75.8q-.6 0-.6-.6v-4c-.1-.5.1-.7.6-.7m41.5 20.4v-4.8q0-.6.6-.6h37.4q.6 0 .6.6v4.8q0 .6-.6.6h-37.4q-.6 0-.6-.6m57.2 11.4c0-.1.1-.3.2-.4 1.5-1.6 3-3.6 4.4-6s2.6-4.7 3.5-7.1c.2-.4.4-.5.8-.3l4 2.4c.2.1.3.3.3.5 0 .1 0 .2-.1.4-1 2.5-2.2 4.9-3.6 7.3s-2.8 4.5-4.2 6.1c-.2.2-.3.3-.5.3-.1 0-.2 0-.4-.1l-4.2-2.7c-.1-.1-.2-.2-.2-.4m4.3-24.3c-1.2-1.3-2.3-2.5-3.5-3.4-.2-.1-.3-.3-.3-.4 0-.2.1-.3.3-.4l3.5-2.6c.1-.1.3-.2.4-.2.2 0 .3.1.4.2 1.2 1 2.4 2.1 3.7 3.4 1.2 1.3 2.3 2.6 3.1 3.9.1.1.1.2.1.4s-.1.3-.3.5l-3.8 2.9c-.1.1-.3.1-.4.1-.2 0-.4-.1-.5-.3-.6-1.4-1.6-2.7-2.7-4.1m16.4 25.6c-2.1 2.3-4.6 4.1-7.6 5.5-.1.1-.2.1-.4.1s-.4-.1-.5-.3l-3-4.3c-.1-.1-.1-.3-.1-.4 0-.2.1-.4.4-.5 4.3-1.7 7.5-4.1 9.6-7.3s3.1-7.4 3.1-12.5v-2.3q0-.6.6-.6h4.5q.6 0 .6.6V17c.3 4 1.5 7.5 3.7 10.5 2.2 3.1 5.1 5.5 8.6 7.4.2.1.4.3.4.5 0 .1 0 .2-.1.4l-3 4.2c-.1.2-.3.3-.5.3-.1 0-.3 0-.4-.1-2.5-1.5-4.8-3.4-6.8-5.8s-3.5-4.8-4.5-7.3c-1 3-2.5 5.6-4.6 7.8m18.7-29.6c-.1 2.8-.3 5.6-.8 8.5s-1.2 5.4-2.1 7.6c-.1.2-.2.3-.3.4s-.3.1-.5 0l-4.6-1.5c-.3-.1-.4-.2-.4-.4l.1-.4c.7-1.4 1.3-3 1.7-4.8.5-1.8.7-3.4.8-4.8h-12c-1.8 4.1-3.8 7.4-6 9.6-.1.1-.3.2-.4.2s-.3-.1-.4-.2l-3.9-3.2c-.2-.1-.3-.3-.3-.4 0-.2.1-.3.3-.4 2.1-1.9 3.8-4.2 5.1-6.8s2.1-5.3 2.5-8.1c.1-.4.3-.5.6-.5h.1l4.6.5c.4.1.6.3.5.7-.2 1.2-.5 2.3-.8 3.4h15.6q.6-.15.6.6"/></svg>