<svg xmlns="http://www.w3.org/2000/svg" xmlns:xlink="http://www.w3.org/1999/xlink" xml:space="preserve" width="1098.2" height="296.1" style="overflow:visible" viewBox="0 0 1098.2 296.1"><defs><path id="SVGID_1_" d="M0 0h1098.2v296.1H0z"/></defs><clipPath id="SVGID_2_"><use xlink:href="#SVGID_1_" style="overflow:visible"/></clipPath><path fill="#878787" d="M824 237.2h4.7l-.2 3.4.1.1q2.4-3.9 10.5-3.9c4.8 0 8 1 9.8 3q2.7 3 2.7 11.1 0 7.5-2.7 10.5c-1.8 1.9-5 2.9-9.7 2.9-5.3 0-8.8-1.2-10.5-3.5h-.1v35.3H824zm13.8 2.9c-3.8 0-6.2.7-7.4 2-1.1 1.4-1.7 4.3-1.7 8.7 0 4.1.6 6.9 1.8 8.2 1.2 1.4 3.7 2.1 7.4 2.1 3.5 0 5.9-.7 7-2s1.7-4.1 1.7-8.2c0-4.5-.6-7.5-1.7-8.8-.9-1.4-3.3-2-7.1-2" clip-path="url(#SVGID_2_)"/><path fill="#878787" d="M856 237.2h3.9l-.4 3.1.1.1c1.5-2.5 4.1-3.8 7.7-3.8 4.9 0 7.4 2.5 7.4 7.6v1.8h-3.9l.1-.7c.1-.7.1-1.2.1-1.4 0-2.7-1.5-4.1-4.5-4.1q-6.6 0-6.6 8.1v16H856z" clip-path="url(#SVGID_2_)"/><path fill="#878787" d="M878.5 237.2h3.9V264h-3.9z" clip-path="url(#SVGID_2_)"/><path fill="#878787" d="M889.3 237.2h3.9l-.1 4 .1.1q2.25-4.5 8.7-4.5c4.5 0 7.3 1.5 8.3 4.5h.1c1.7-3 4.7-4.5 9.2-4.5 6.3 0 9.5 3.2 9.5 9.7V264h-4v-17.9c0-2.4-.4-4-1.3-4.8-.8-.8-2.4-1.3-4.8-1.3q-4.65 0-6.3 1.8c-1.1 1.2-1.7 3.4-1.7 6.7V264H907v-17.5l-.1-1.2c0-3.5-2-5.2-5.9-5.2-5.3 0-8 2.9-8 8.7V264h-3.9v-26.8z" clip-path="url(#SVGID_2_)"/><path fill="#878787" d="M955.2 255.9h4v1c0 2.8-.8 4.7-2.5 5.8s-4.7 1.7-8.9 1.7c-4.9 0-8.2-.9-9.7-2.7s-2.3-5.6-2.3-11.4c0-5.3.8-8.9 2.3-10.8 1.5-1.8 4.6-2.7 9.1-2.7 4.9 0 8.2.8 9.7 2.4s2.3 4.9 2.3 10.1v2.1H940c0 4.2.5 6.9 1.4 8 .9 1.2 3 1.7 6.3 1.7 3.2 0 5.2-.3 6.1-.8s1.4-1.7 1.4-3.6zm0-7.6V247c0-2.9-.5-4.8-1.4-5.7-1-.9-3-1.3-6.2-1.3s-5.2.5-6.2 1.5c-.9 1-1.4 3.2-1.4 6.7h15.2z" clip-path="url(#SVGID_2_)"/><path fill="#fff" d="m815.2 235.4-7.8 29.5h-4.7l-7.7-22.8-7.6 22.8h-4.7l-7.8-29.5h5.2l5.5 22.9 7.5-22.9h4.1l7.7 22.9 5.2-22.9z" clip-path="url(#SVGID_2_)"/><path fill="#fff" d="m739.7 235.4-7.8 29.5h-4.7l-7.7-22.8-7.6 22.8h-4.6l-7.9-29.5h5.2l5.5 22.9 7.5-22.9h4.2l7.6 22.9 5.2-22.9z" clip-path="url(#SVGID_2_)"/><path fill="#fff" d="M742.1 250.2c0 8.4 6.9 15.3 15.3 15.3s15.3-6.9 15.3-15.3-6.9-15.3-15.3-15.3-15.3 6.8-15.3 15.3m4.1 0c0-6.2 5-11.2 11.2-11.2s11.2 5 11.2 11.2-5 11.2-11.2 11.2-11.2-5-11.2-11.2" clip-path="url(#SVGID_2_)"/><path fill="#fff" d="M884.9 224.8c0 2.5-2.1 4.6-4.6 4.6s-4.6-2.1-4.6-4.6 2.1-4.6 4.6-4.6c2.5-.1 4.6 2 4.6 4.6" clip-path="url(#SVGID_2_)"/><path fill="#fff" d="M501.8 241.2h-10.9l-2.8.5c-.3.2-.5.1-.5-.2l-.5-1.8c0-.3.1-.3.5-.2l3.3.4h10.9v-17.3h-13.1l-2.8.4c-.3.2-.5.1-.5-.1l-.5-1.9c-.1-.2.1-.3.5-.2l3.3.3h25.6c.4 0 .7-.2 1-.5l2.7-3.8c.3-.4.6-.4 1-.1 2 1.3 3.6 2.8 5 4.7.2.3.3.5.2.7-.2.3-.4.4-.8.4h-16.3v17.3h4.6c.4 0 .7-.2 1-.5l2.7-3.8c.3-.4.6-.4 1-.1 2 1.2 3.6 2.8 5 4.7.2.3.2.5.1.7-.1.3-.3.4-.8.4h-13.8v19.1H517c.4 0 .7-.1 1-.5l2.8-3.8c.2-.3.6-.3 1-.1 2 1.3 3.7 2.8 5 4.7.2.3.3.5.2.7-.1.3-.4.4-.8.4H486l-2.9.5c-.3.2-.5.1-.6-.2l-.5-1.8c0-.3.1-.3.5-.2l3.4.3h15.6v-19.1z" clip-path="url(#SVGID_2_)"/><path fill="#fff" d="M544.8 261.8c0 .9-.3 1.6-.9 2-.7.5-1.5.7-2.5.7-.7 0-1.2-.2-1.7-.5-.2-.2-.4-.7-.3-1.4v-21.8c0-.3.1-.5.2-.4 2.6.7 4.5 1.5 5.6 2.3h5.1c.7 0 1.2-.1 1.3-.5l1.3-1.9c.2-.3.5-.3.8-.2 2 .7 3.5 1.5 4.7 2.5 1 .8.8 1.6-.6 2.1-.3.1-.5.4-.5.7v16.5c0 .8-.4 1.4-1.2 1.9-.8.4-1.5.6-2.2.6-.6 0-1.1-.2-1.5-.5s-.5-.9-.5-1.7v-1.6h-7.2v1.2zm7.2-2.5v-14.9q-.15-.6-.6-.3h-6.6v15.2zm-.3-24.3c0 .9-.2 1.6-.8 2-.7.5-1.5.7-2.5.7-.7 0-1.2-.2-1.7-.5-.2-.2-.4-.7-.4-1.4v-18.7c0-.4.1-.5.2-.5 2.6.7 4.6 1.6 5.9 2.5h13.2c.7.1 1.2-.1 1.4-.5l1.2-1.9c.2-.3.5-.3.8-.2 1.9.7 3.5 1.6 4.7 2.5 1 .8.8 1.6-.5 2.1-.4.2-.6.4-.6.8v12.8c0 .8-.3 1.4-1.1 1.9-.8.4-1.5.6-2.2.6s-1.1-.2-1.5-.5-.5-.8-.5-1.7v-.6h-15.7v.6zm15.7-1.9v-12.2c-.2-.4-.3-.5-.7-.3h-15v12.5zm-.8 29c0 .9-.3 1.6-.9 2-.7.5-1.5.6-2.5.7-.7 0-1.2-.1-1.7-.5-.3-.2-.4-.7-.3-1.4v-22c0-.3 0-.5.3-.4 2.6.7 4.5 1.5 5.6 2.3h5.1c.7 0 1.1-.1 1.3-.5l1.2-1.9c.2-.3.5-.3.8-.2 1.9.7 3.5 1.5 4.7 2.5 1 .8.8 1.6-.5 2.1-.3.1-.5.4-.5.7v16.3c0 .8-.4 1.4-1.1 1.9-.9.4-1.5.6-2.2.6-.6 0-1.2-.2-1.5-.5-.4-.3-.5-.9-.5-1.7v-1.4h-7.3zm7.2-2.8v-14.9q-.15-.6-.6-.3h-6.6v15.2z" clip-path="url(#SVGID_2_)"/><path fill="#fff" d="M604.3 244.5c0 .8-.4 1.5-1.2 1.8-1.1.5-2.2.5-3.4-.1-.5-.4-.8-.9-.8-1.8v-14.8q-3.45 3.45-6.9 5.1c-.2.1-.4.1-.4-.1s0-.4.1-.6c4.3-4.7 7.2-10.8 8.6-18.1 0-.3.3-.4.5-.4q2.7.45 5.4 1.5c.7.3 1.1.7 1 1.2 0 .4-.5.6-1.1.7-.2 0-.5.2-.6.5l-1.3 2.5v.7h9.8c.8-2.4 1.3-4.7 1.6-6.9 0-.4.2-.5.5-.5 1.6.4 3.2.8 4.8 1.3.8.3 1.3.7 1.2 1.2 0 .5-.4.7-1 .8-.3.1-.7.3-1.1.8-1.1 1.3-2.4 2.4-3.7 3.3h10.5c.4 0 .7-.2.9-.5l2.8-3.8c.3-.4.6-.4 1-.1 2 1.2 3.7 2.8 5 4.7.2.3.3.5.2.7-.1.3-.4.4-.8.4h-17.2v5h2.8c.4 0 .7-.2 1-.5l2.7-3.8c.2-.4.6-.4 1-.1 2 1.2 3.6 2.8 5 4.7.2.2.3.5.2.7-.1.3-.4.4-.8.4h-12v5h3c.4 0 .7-.2 1-.5l2.7-3.8c.2-.4.6-.4 1-.1 2 1.2 3.6 2.8 5 4.7.3.3.3.5.2.7-.1.3-.3.4-.8.4h-12.2v4.8h7.5c.5 0 .7-.2 1-.5l2.7-3.8c.2-.4.6-.4 1-.1 2 1.2 3.6 2.8 5 4.7.2.3.3.5.2.7s-.4.3-.8.3H604v1.6zm14.4 19.1c0 .9-.5 1.6-1.3 2-1.1.5-2.2.4-3.3-.2-.5-.4-.8-.9-.8-1.6V254c-5.1 4.6-11.6 7.7-19.3 9-.4.1-.6.1-.6-.2-.1-.3.1-.4.4-.6 3.2-1.1 6.6-2.8 10-5.1 3.2-2.3 5.6-4.7 7-7.2h-15.1l-2.9.5c-.3.2-.5.1-.5-.2l-.4-1.8c-.1-.3.1-.3.5-.2l3.4.4h17.7v-3.5q0-.3.3-.3l5.4.7c.9.3 1.4.6 1.4 1.2s-.4.9-1.2 1.2c-.3.1-.4.3-.5.7h9.6c.4 0 .7-.2 1-.5l2.7-3.8c.3-.4.6-.4 1-.1 2 1.2 3.6 2.8 5 4.7.2.3.3.5.2.7-.1.3-.4.4-.8.4h-17.8c1.7 2 4.1 3.8 7.1 5.1 3.5 1.6 7 2.4 10.4 2.2.3 0 .5.1.5.4 0 .2 0 .4-.2.5-1 .5-1.7 1.3-2.2 2.3-.4 1.1-.7 2-.6 2.9 0 .4-.2.6-.8.5-3.3-.9-6.3-2.6-8.8-5.1-2.7-2.7-4.8-5.4-6.3-8.3v13.1zm-5.4-39.4h-9v5h9zm0 6.4h-9v5h9zm0 6.3h-9v4.8h9z" clip-path="url(#SVGID_2_)"/><path fill="#fff" d="M652.5 265c-.6.5-1.4.8-2.5.8q-.9 0-1.5-.6c-.3-.3-.5-.7-.5-1.4V216l.1-.4h.5c1.6.5 3.4 1.2 5.4 2.3h29.4c.4.1.8-.1.9-.3l1.4-1.6c.3-.5.6-.6 1-.4 2 .8 3.6 1.5 4.6 2.4 1.1.9 1 1.7-.5 2.3-.3.2-.4.4-.4.6v42.3c0 .7-.3 1.3-.9 1.7q-.9.6-2.4.6c-.7 0-1.1-.2-1.5-.6-.3-.3-.4-.6-.4-1.1v-.8h-32.1c0 .9-.2 1.6-.6 2m32.7-3.4v-42c-.1-.3-.2-.4-.5-.2h-31.5v42.2zm-27-11.6-3.1.4c-.2.1-.3.1-.4-.2l-.4-1.8c-.1-.2.1-.3.4-.2l3.5.4h14v-3.5c0-.3.1-.3.4-.3 1.5 0 3.1.1 4.8.4.8.2 1.2.5 1.2 1s-.3.8-.8 1c-.3 0-.4.3-.4.7v.7h.2c.3 0 .5-.1.7-.4l1.9-2.8c.2-.5.6-.5 1-.2 1.1.8 1.9 1.9 2.7 3.3.3.4.4.7.3 1s-.4.4-.7.4h-6.1v5.8c.1 1.2-.3 2.3-1.1 3.2-.9.9-2.2 1.5-4.2 1.6-.2 0-.4-.1-.3-.3.1-1.9-.7-3.5-2.6-4.6q-.3-.15-.3-.6c.1-.3.2-.4.4-.3l1.5.1c1 .1 1.5-.2 1.5-1V250zm14.5-6.6c-3.8.9-8.1 1.8-13 2.7-.7.2-1.1.3-1.2.6-.2.4-.4.5-.6.6q-.45 0-.6-.6c-.5-1.7-.9-3.3-1.1-4.5 0-.3.1-.4.4-.4 1.6.2 4.5.2 8.7.2h1.4v-3.4h-5.3c-.1.5-.3.9-.7 1.2-.7.4-1.4.6-2.3.7-.6 0-1.1-.2-1.6-.5-.2-.2-.3-.6-.3-1.3v-11.3c-.1-.3.1-.5.2-.4 1.6.4 3.2 1 4.7 1.9h5.3V226h-8.1l-3.2.4c-.2.1-.3.1-.4-.2l-.4-1.8c0-.2.1-.3.4-.2l3.5.4h8.1v-3.9c0-.2 0-.2.3-.2 1.8.1 3.5.3 5.1.7.6.2 1 .5 1 .8 0 .5-.3.8-.9 1-.3.1-.5.3-.4.6v1h5c.3 0 .6-.2.7-.4l1.9-2.9c.3-.4.6-.5 1-.2 1.1.9 2 2.1 2.9 3.5.3.4.4.7.3 1s-.4.4-.7.4h-11.1v2.9h4.4c.2 0 .4-.1.5-.4l1.2-1.3c.1-.2.2-.2.5 0 1.6.5 3 1.3 4.4 2.4 1 .6.9 1.3-.4 1.9-.3.2-.4.4-.4.8v5.7c0 .6-.3 1.1-.8 1.5q-.75.45-2.4.6c-.7 0-1.1-.2-1.4-.6l-.3-.8h-5.3v3.2l3.2-.3c-.6-.5-1.2-.8-1.9-.9l-.3-.3q-.15-.3.3-.3c2.8-.7 5.1-.3 7.1 1.4q.75.9.9 2.1c.1.8-.2 1.4-.7 1.8-.5.5-1.1.6-1.7.3-.6-.2-.9-.6-1.4-1.4l-1-1.4zm-13.7 7.7c.1-.2.2-.3.4-.2h.1q4.05 1.05 5.4 3.6c.3.9.2 1.7-.1 2.7-.3.8-.8 1.3-1.6 1.4-1.7.3-2.6-.6-2.7-2.8.1-1.7-.4-3.1-1.3-4.3zm7.5-21h-4.4l-.8.2v2.6h5.2zm0 4.1h-5.2v2.9h5.2zm5.1-1.3h5.3v-2.5c-.1-.3-.3-.4-.5-.3h-4.7v2.8zm0 4.3h5.3v-2.9h-5.3z" clip-path="url(#SVGID_2_)"/><path fill="#fff" d="m719.4 130.4.2-.4c15.4-22.8 17.6-46.1 17.9-49.6l-14 1.6c-1.2 14.5-6.6 27.4-16 38.4l-.3.4-.3-.4c-7.7-10.4-7-24.1-5.3-35.1 16.8-6.5 40.1-19 55-27.1l-13.9-16.7C731 50.8 718.8 60.2 705 67.7c6.9-24.6 7-44.6 7-47.2l-18.1-3.1c2.1 13.1-1 33.3-4.6 56.6-.1.4-.1.8-.2 1.1-9.3 3.6-19.3 6.2-30.3 7.3-3.3.3-8.9-.8-9.4-4.9-1.4-9.4 15.6-17.4 8.5-23.5-2.5-2.8-7.7-5.9-10.3-4-18.2 12-30.9 19.9-45.6 25.5-.6-.6-1.2-1.1-1.8-1.6-.4-.4-.7-.8-1-1.2-4.6-5.3-6.3-9.5 14.5-32.7 4.5-5.2 10.4-12.5 13-16.3 2.2-3.2 3.6-7.9 1.6-10.8-1.7-2.5-5.7-3.1-11.6-1.8C596 14.7 565 27.7 562 28.9v16.5c4.8-2.1 37.5-16.2 42.4-17.1l1-.2-.7.8c-.1.1-12.4 14.9-17.9 23.9l-.5.8c-3.7 6.8-8.3 15.2 1 25.3.3.3.6.6.9 1-11.9 3.2-26.1 5.4-45.2 7.4 0 0 8.5 12.4 12.2 19 16.9-2.8 29.9-6.5 42.7-11.7 2.3 5.5 3.5 11.8 2.2 18.6-2.9 14.1-16.3 26.4-40 36.6v22.1c2.7-.9 16.5-5.6 29.7-15 13.5-9.7 29.1-26.5 27-51.5-.7-6.9-2.6-12.5-5-17.1 7.8-3.9 15.9-8.4 25.2-13.8-2.4 27.1 30.2 21.3 49.9 15.7-.3 2-.6 4-.9 6.1-1.7 14 1.2 26.1 8.5 35.8l.2.3-.3.2c-14.9 11-30.6 15.3-33.4 16.1l8 20.4c15.2-5.6 28.2-13.8 38.8-24.5l.2-.2.3.2c14.5 9.1 31.1 11.3 33.6 11.6l4.8-19.3c-10.9-.6-20-2.6-27-5.9z" clip-path="url(#SVGID_2_)"/><path fill="#fff" d="m855 78-4.1-15.8c-9 6-21.2 11.2-36.2 15.5l-.2.1-.2-.2q-2.55-3-5.7-5.7c-.4-.4-.7-.8-1-1.2-4.7-5.4-6.4-9.6 14.8-33.3 4.5-5.3 10.6-12.7 13.2-16.6 2.2-3.3 3.7-8.1 1.7-11-1.7-2.5-5.8-3.2-11.8-1.8-21.1 3.5-52.8 16.8-55.7 18.1v16.8c4.8-2.1 38.2-16.5 43.2-17.5l1-.2-.7.8c-.1.1-12.6 15.2-18.3 24.3l-.5.9c-3.8 6.9-8.5 15.5 1 25.9 1.3 1.3 2.4 2.7 3.6 4.1l.4.5-.6.1c-21.3 4.7-40.4 6.5-44.2 6.8l13.9 17.2c10.4-.4 23.5-3.1 38.9-8.1l.4-.1.1.4c6.8 25.1-18.1 41.8-40.3 51.4V172c2.8-.9 16.8-5.7 30.3-15.3 13.8-9.9 29.7-27 27.5-52.6-.4-4-1.3-7.8-2.6-11.4l-.1-.3.3-.1C839.8 85.6 852.9 79 855 78" clip-path="url(#SVGID_2_)"/><path fill="#fff" d="m1032.6 11.7-66.7 19.2.7-.9c4.7-6.4 7.6-24.5 8.1-27.6H958c-.3 15.7-5 24.6-8.8 29.3-3.6 4.3-7.1 6-8.2 6.5l4.4 12.1 87.7-19.6z" clip-path="url(#SVGID_2_)"/><path fill="#fff" d="M922.3 56.7c-15.4-.7-25.4 7.7-27.3 9.4l-.1.1-19.1.8c.9 3.7 2.2 16.9 3.8 39.3v.6h-.6q-3.6-.15-6.9-.6l6.2 17h1.9c2.7-.1 8.5-.5 16.6-2.2 5.8-1.2 11.9-2.8 18-4.8 5.5-1.8 11.1-4 16.7-6.5l.3-3.3.3-4c.2-2.9.4-5.5.5-8.1.9-15.5 1-24.6-1.3-31-1.4-4-4.9-6.6-9-6.7m-3.8 43.1-.1.9-.3.1c-5.9 1.8-14.1 3.6-21.6 4.8l-.6.1-.9-23.9.2-.2c2.6-2.4 6.8-5.8 11.3-8.6 3.7-1.8 6.7-2.1 8.8-.9s3.3 4 3.6 8.1c0 2.5-.4 18.9-.4 19.6" clip-path="url(#SVGID_2_)"/><path fill="#fff" d="M1096.4 150.5c-27.3 4.2-60.1 7.3-89.1 3.3-18-2.5-29-7.3-32.6-14.3-2.3-4.3-1.1-8.4.2-11.1 3-6.1 15.2-20.3 26.9-34 7.7-9 14.9-17.5 19.4-23.5 4.1-5.7 5.5-10 4.1-12.4-1.7-2.8-6.9-2.2-7-2.2l-68.5 13.5 1.9 16.2 46.8-10.4-.9 1.1c-.1.1-10.1 12.6-31.7 36-8.7 9.5-12.4 18.3-11.1 26.1 1.3 7.9 7.7 14.9 19.4 21.4 39.3 20.8 97.8 19.2 124.1 17.1z" clip-path="url(#SVGID_2_)"/><path fill="#fff" d="m508.1 117.6-.4-.2.3-.4c14.5-20 21.6-42.7 21.1-67.5v-.2l.2-.1c5.9-2.7 11.8-5.7 17.7-8.8l-.7-16.8c-3.5 1.7-24.4 11.4-49.7 18.1l-.6.1.1-.6c2.8-16.4 2.2-29.4 2-31.5L478.9 8c2.1 9.9 1 23.8-.5 37.4v.3h-.3c-17.2 3-32.3 3.2-45 .6l7.2 23.8c1.9.1 14.9.8 35.1-3.2l.5-.1-.1.5c-.8 6.7-1.5 12.4-2.2 18.2-1.1 12.3 1.6 23 8 31.7l.2.3-.3.2c-13.9 12.4-32 23.1-53.8 31.7l10.7 19.4c3.3-1.2 33.6-12.8 58.1-38.2l.2-.2.3.1c16.3 9.5 35.8 11.1 38.5 11.3l4.3-19.1c-13 .2-23.6-1.5-31.7-5.1m-14.3-12.5-.3.4-.3-.4c-7.9-12.9-4.5-29.8-2.5-39.9l.4-1.9.2-.1c7.2-2 14.5-4.4 21.8-7.2l.5-.2v.5c.1 2.5.5 24.2-19.8 48.8" clip-path="url(#SVGID_2_)"/><path fill="#fff" d="M323.4 158.8c-13.9-2.8-26-6.1-37.1-10.2l-.3-.1v-.3c.3-5.2.7-12.6 1-21.8v-.3l.2-.1c8.4-2.9 16.9-6.5 25.2-10.5v-15.1c-5.7 2.4-14.3 5.7-24.4 8.8l-.5.2v-.5c.2-7.6.5-15.6.7-23.7V85l.2-.1c9-3.6 18-7.8 26.8-12.5l-.6-14.6c-2.3 1.1-12.1 5.6-25.4 10.3l-.5.2v-.5c.2-6.7.3-13.3.5-19.5V48l.2-.1c6.1-2.1 12.3-4.5 18.4-7.2V26.9c-5.9 2.3-11.9 4.4-17.8 6.1l-.5.1v-.5c.4-17.3.6-30 .7-32.3L268.6 0c1.1 4.3 1.7 16.8 2 37.3v.3l-.3.1c-12.7 2.1-23.8 2.3-33.2.4l5.3 17.6c1.7.1 12 .6 27.9-2.8l.4-.1v20.9l-.3.1c-22.7 6-41.9 7.5-57.2 4.5l6.3 20.8c2.4.1 22.1.7 50.6-7.8l.5-.1v.5c-.2 18.6-.6 37.5-1 49.2v.6l-.5-.3c-7.6-3.7-14.8-8.1-22.1-13.2l-.3-.2.2-.3c3.2-5.7 5.9-11.7 8.3-18.1l-12.1-4.7c-18 30-46.4 45.8-55.4 50.2l15.7 18.5c15.2-10 27.7-22 37.2-35.7l.2-.3.3.3c17.3 15.1 81.1 62.6 177.6 37.7l-1.6-22.4c-13.2 4.2-47.9 12.7-93.7 5.8" clip-path="url(#SVGID_2_)"/><path fill="#fff" d="M335.9 132.5c2.8 2.8 7.6 6.1 14.8 5.9 10.6-.4 26.6-1.1 47.3-7l-1.6-19.6-2 .8c-15.4 6.3-38.6 15.8-47.5 10-2.3-1.5-3.5-4-3.6-7.4l.5-13.6.2-.1c10.1-3.4 20.4-8 33.3-15l1.2-.6c.4-3 1-6.3 1.6-9.8 2-12.3 4.4-26.3 2.4-32.8-1.2-3.9-4.5-6.7-8.6-7.1-15.1-1.6-25.6 6.2-27.5 7.7l-.1.1-19-.3c1.8 8.6 2.3 73.8 2.3 76.6.1 3 2.3 8.2 6.3 12.2m9.5-72.6.1-.1c2.8-2.2 7.1-5.4 11.9-8.1 3.6-1.5 6.2-1.7 7.9-.5 2.3 1.6 2.2 5.4 2.1 7.4v.8c0 2.2-1.1 14.9-1.4 18.8v.2l-.2.1c-7 2.7-14 5.1-20.8 7.1l-.5.1z" clip-path="url(#SVGID_2_)"/><path fill="#fff" d="m0 89 6 28s99.4 6.1 170.8-12.2V85.4C149.5 90.5 72.1 102.3 0 89" clip-path="url(#SVGID_2_)"/></svg>