<!-- Generator: Adobe Illustrator 25.0.0, SVG Export Plug-In  -->
<svg version="1.1" xmlns="http://www.w3.org/2000/svg" xmlns:xlink="http://www.w3.org/1999/xlink" x="0px" y="0px"
	 width="1098.2px" height="296.1px" viewBox="0 0 1098.2 296.1" style="overflow:visible;enable-background:new 0 0 1098.2 296.1;"
	 xml:space="preserve">
<style type="text/css">
	.st0{clip-path:url(#SVGID_2_);fill:#878787;}
	.st1{clip-path:url(#SVGID_2_);fill:#FFFFFF;}
	.st2{clip-path:url(#SVGID_4_);fill:#878787;}
	.st3{clip-path:url(#SVGID_4_);fill:#FFFFFF;}
</style>
<defs>
</defs>
<g>
	<defs>
		<rect id="SVGID_1_" width="1098.2" height="296.1"/>
	</defs>
	<clipPath id="SVGID_2_">
		<use xlink:href="#SVGID_1_"  style="overflow:visible;"/>
	</clipPath>
	<path class="st0" d="M824,237.2h4.7l-0.2,3.4l0.1,0.1c1.6-2.6,5.1-3.9,10.5-3.9c4.8,0,8,1,9.8,3c1.8,2,2.7,5.7,2.7,11.1
		c0,5-0.9,8.5-2.7,10.5c-1.8,1.9-5,2.9-9.7,2.9c-5.3,0-8.8-1.2-10.5-3.5h-0.1v35.3H824V237.2z M837.8,240.1c-3.8,0-6.2,0.7-7.4,2
		c-1.1,1.4-1.7,4.3-1.7,8.7c0,4.1,0.6,6.9,1.8,8.2c1.2,1.4,3.7,2.1,7.4,2.1c3.5,0,5.9-0.7,7-2c1.1-1.3,1.7-4.1,1.7-8.2
		c0-4.5-0.6-7.5-1.7-8.8C844,240.7,841.6,240.1,837.8,240.1"/>
	<path class="st0" d="M856,237.2h3.9l-0.4,3.1l0.1,0.1c1.5-2.5,4.1-3.8,7.7-3.8c4.9,0,7.4,2.5,7.4,7.6l0,1.8h-3.9l0.1-0.7
		c0.1-0.7,0.1-1.2,0.1-1.4c0-2.7-1.5-4.1-4.5-4.1c-4.4,0-6.6,2.7-6.6,8.1v16H856V237.2z"/>
	<rect x="878.5" y="237.2" class="st0" width="3.9" height="26.8"/>
	<path class="st0" d="M889.3,237.2h3.9l-0.1,4l0.1,0.1c1.5-3,4.4-4.5,8.7-4.5c4.5,0,7.3,1.5,8.3,4.5h0.1c1.7-3,4.7-4.5,9.2-4.5
		c6.3,0,9.5,3.2,9.5,9.7V264H925v-17.9c0-2.4-0.4-4-1.3-4.8c-0.8-0.8-2.4-1.3-4.8-1.3c-3.1,0-5.2,0.6-6.3,1.8
		c-1.1,1.2-1.7,3.4-1.7,6.7V264h-3.9v-17.5l-0.1-1.2c0-3.5-2-5.2-5.9-5.2c-5.3,0-8,2.9-8,8.7V264h-3.9V237.2z"/>
	<path class="st0" d="M955.2,255.9h4l0,1c0,2.8-0.8,4.7-2.5,5.8c-1.7,1.1-4.7,1.7-8.9,1.7c-4.9,0-8.2-0.9-9.7-2.7
		c-1.5-1.8-2.3-5.6-2.3-11.4c0-5.3,0.8-8.9,2.3-10.8c1.5-1.8,4.6-2.7,9.1-2.7c4.9,0,8.2,0.8,9.7,2.4c1.5,1.6,2.3,4.9,2.3,10.1v2.1
		H940c0,4.2,0.5,6.9,1.4,8c0.9,1.2,3,1.7,6.3,1.7c3.2,0,5.2-0.3,6.1-0.8c0.9-0.5,1.4-1.7,1.4-3.6V255.9z M955.2,248.3l0-1.3
		c0-2.9-0.5-4.8-1.4-5.7c-1-0.9-3-1.3-6.2-1.3c-3.2,0-5.2,0.5-6.2,1.5c-0.9,1-1.4,3.2-1.4,6.7H955.2z"/>
	<polygon class="st1" points="815.2,235.4 807.4,264.9 802.7,264.9 795,242.1 787.4,264.9 782.7,264.9 774.9,235.4 780.1,235.4 
		785.6,258.3 793.1,235.4 797.2,235.4 804.9,258.3 810.1,235.4 	"/>
	<polygon class="st1" points="739.7,235.4 731.9,264.9 727.2,264.9 719.5,242.1 711.9,264.9 707.3,264.9 699.4,235.4 704.6,235.4 
		710.1,258.3 717.6,235.4 721.8,235.4 729.4,258.3 734.6,235.4 	"/>
	<path class="st1" d="M742.1,250.2c0,8.4,6.9,15.3,15.3,15.3c8.4,0,15.3-6.9,15.3-15.3c0-8.4-6.9-15.3-15.3-15.3
		C749,234.9,742.1,241.7,742.1,250.2 M746.2,250.2c0-6.2,5-11.2,11.2-11.2c6.2,0,11.2,5,11.2,11.2c0,6.2-5,11.2-11.2,11.2
		C751.2,261.4,746.2,256.4,746.2,250.2"/>
	<path class="st1" d="M884.9,224.8c0,2.5-2.1,4.6-4.6,4.6c-2.5,0-4.6-2.1-4.6-4.6c0-2.5,2.1-4.6,4.6-4.6
		C882.8,220.1,884.9,222.2,884.9,224.8"/>
	<path class="st1" d="M501.8,241.2h-10.9l-2.8,0.5c-0.3,0.2-0.5,0.1-0.5-0.2l-0.5-1.8c0-0.3,0.1-0.3,0.5-0.2l3.3,0.4h10.9v-17.3
		h-13.1l-2.8,0.4c-0.3,0.2-0.5,0.1-0.5-0.1l-0.5-1.9c-0.1-0.2,0.1-0.3,0.5-0.2l3.3,0.3h25.6c0.4,0,0.7-0.2,1-0.5l2.7-3.8
		c0.3-0.4,0.6-0.4,1-0.1c2,1.3,3.6,2.8,5,4.7c0.2,0.3,0.3,0.5,0.2,0.7c-0.2,0.3-0.4,0.4-0.8,0.4h-16.3v17.3h4.6c0.4,0,0.7-0.2,1-0.5
		l2.7-3.8c0.3-0.4,0.6-0.4,1-0.1c2,1.2,3.6,2.8,5,4.7c0.2,0.3,0.2,0.5,0.1,0.7c-0.1,0.3-0.3,0.4-0.8,0.4h-13.8v19.1h10.1
		c0.4,0,0.7-0.1,1-0.5l2.8-3.8c0.2-0.3,0.6-0.3,1-0.1c2,1.3,3.7,2.8,5,4.7c0.2,0.3,0.3,0.5,0.2,0.7c-0.1,0.3-0.4,0.4-0.8,0.4h-40.2
		l-2.9,0.5c-0.3,0.2-0.5,0.1-0.6-0.2l-0.5-1.8c0-0.3,0.1-0.3,0.5-0.2l3.4,0.3h15.6V241.2z"/>
	<path class="st1" d="M544.8,261.8c0,0.9-0.3,1.6-0.9,2c-0.7,0.5-1.5,0.7-2.5,0.7c-0.7,0-1.2-0.2-1.7-0.5c-0.2-0.2-0.4-0.7-0.3-1.4
		v-21.8c0-0.3,0.1-0.5,0.2-0.4c2.6,0.7,4.5,1.5,5.6,2.3h5.1c0.7,0,1.2-0.1,1.3-0.5l1.3-1.9c0.2-0.3,0.5-0.3,0.8-0.2
		c2,0.7,3.5,1.5,4.7,2.5c1,0.8,0.8,1.6-0.6,2.1c-0.3,0.1-0.5,0.4-0.5,0.7v16.5c0,0.8-0.4,1.4-1.2,1.9c-0.8,0.4-1.5,0.6-2.2,0.6
		c-0.6,0-1.1-0.2-1.5-0.5c-0.4-0.3-0.5-0.9-0.5-1.7v-1.6h-7.2V261.8z M552,259.3v-14.9c-0.1-0.4-0.3-0.5-0.6-0.3h-6.6v15.2H552z
		 M551.7,235c0,0.9-0.2,1.6-0.8,2c-0.7,0.5-1.5,0.7-2.5,0.7c-0.7,0-1.2-0.2-1.7-0.5c-0.2-0.2-0.4-0.7-0.4-1.4v-18.7
		c0-0.4,0.1-0.5,0.2-0.5c2.6,0.7,4.6,1.6,5.9,2.5h13.2c0.7,0.1,1.2-0.1,1.4-0.5l1.2-1.9c0.2-0.3,0.5-0.3,0.8-0.2
		c1.9,0.7,3.5,1.6,4.7,2.5c1,0.8,0.8,1.6-0.5,2.1c-0.4,0.2-0.6,0.4-0.6,0.8v12.8c0,0.8-0.3,1.4-1.1,1.9c-0.8,0.4-1.5,0.6-2.2,0.6
		c-0.7,0-1.1-0.2-1.5-0.5c-0.4-0.3-0.5-0.8-0.5-1.7v-0.6h-15.7V235z M567.4,233.1v-12.2c-0.2-0.4-0.3-0.5-0.7-0.3h-15v12.5H567.4z
		 M566.6,262.1c0,0.9-0.3,1.6-0.9,2c-0.7,0.5-1.5,0.6-2.5,0.7c-0.7,0-1.2-0.1-1.7-0.5c-0.3-0.2-0.4-0.7-0.3-1.4v-22
		c0-0.3,0-0.5,0.3-0.4c2.6,0.7,4.5,1.5,5.6,2.3h5.1c0.7,0,1.1-0.1,1.3-0.5l1.2-1.9c0.2-0.3,0.5-0.3,0.8-0.2c1.9,0.7,3.5,1.5,4.7,2.5
		c1,0.8,0.8,1.6-0.5,2.1c-0.3,0.1-0.5,0.4-0.5,0.7v16.3c0,0.8-0.4,1.4-1.1,1.9c-0.9,0.4-1.5,0.6-2.2,0.6c-0.6,0-1.2-0.2-1.5-0.5
		c-0.4-0.3-0.5-0.9-0.5-1.7v-1.4h-7.3V262.1z M573.8,259.3v-14.9c-0.1-0.4-0.3-0.5-0.6-0.3h-6.6v15.2H573.8z"/>
	<path class="st1" d="M604.3,244.5c0,0.8-0.4,1.5-1.2,1.8c-1.1,0.5-2.2,0.5-3.4-0.1c-0.5-0.4-0.8-0.9-0.8-1.8v-14.8
		c-2.3,2.3-4.6,4-6.9,5.1c-0.2,0.1-0.4,0.1-0.4-0.1c0-0.2,0-0.4,0.1-0.6c4.3-4.7,7.2-10.8,8.6-18.1c0-0.3,0.3-0.4,0.5-0.4
		c1.8,0.3,3.6,0.8,5.4,1.5c0.7,0.3,1.1,0.7,1,1.2c0,0.4-0.5,0.6-1.1,0.7c-0.2,0-0.5,0.2-0.6,0.5l-1.3,2.5v0.7h9.8
		c0.8-2.4,1.3-4.7,1.6-6.9c0-0.4,0.2-0.5,0.5-0.5c1.6,0.4,3.2,0.8,4.8,1.3c0.8,0.3,1.3,0.7,1.2,1.2c0,0.5-0.4,0.7-1,0.8
		c-0.3,0.1-0.7,0.3-1.1,0.8c-1.1,1.3-2.4,2.4-3.7,3.3h10.5c0.4,0,0.7-0.2,0.9-0.5l2.8-3.8c0.3-0.4,0.6-0.4,1-0.1
		c2,1.2,3.7,2.8,5,4.7c0.2,0.3,0.3,0.5,0.2,0.7c-0.1,0.3-0.4,0.4-0.8,0.4h-17.2v5h2.8c0.4,0,0.7-0.2,1-0.5l2.7-3.8
		c0.2-0.4,0.6-0.4,1-0.1c2,1.2,3.6,2.8,5,4.7c0.2,0.2,0.3,0.5,0.2,0.7c-0.1,0.3-0.4,0.4-0.8,0.4h-12v5h3c0.4,0,0.7-0.2,1-0.5
		l2.7-3.8c0.2-0.4,0.6-0.4,1-0.1c2,1.2,3.6,2.8,5,4.7c0.3,0.3,0.3,0.5,0.2,0.7c-0.1,0.3-0.3,0.4-0.8,0.4h-12.2v4.8h7.5
		c0.5,0,0.7-0.2,1-0.5l2.7-3.8c0.2-0.4,0.6-0.4,1-0.1c2,1.2,3.6,2.8,5,4.7c0.2,0.3,0.3,0.5,0.2,0.7c-0.1,0.2-0.4,0.3-0.8,0.3h-31.1
		V244.5z M618.7,263.6c0,0.9-0.5,1.6-1.3,2c-1.1,0.5-2.2,0.4-3.3-0.2c-0.5-0.4-0.8-0.9-0.8-1.6V254c-5.1,4.6-11.6,7.7-19.3,9
		c-0.4,0.1-0.6,0.1-0.6-0.2c-0.1-0.3,0.1-0.4,0.4-0.6c3.2-1.1,6.6-2.8,10-5.1c3.2-2.3,5.6-4.7,7-7.2h-15.1l-2.9,0.5
		c-0.3,0.2-0.5,0.1-0.5-0.2l-0.4-1.8c-0.1-0.3,0.1-0.3,0.5-0.2l3.4,0.4h17.7v-2.9v-0.6c0-0.2,0.1-0.3,0.3-0.3l5.4,0.7
		c0.9,0.3,1.4,0.6,1.4,1.2c0,0.6-0.4,0.9-1.2,1.2c-0.3,0.1-0.4,0.3-0.5,0.7h9.6c0.4,0,0.7-0.2,1-0.5l2.7-3.8c0.3-0.4,0.6-0.4,1-0.1
		c2,1.2,3.6,2.8,5,4.7c0.2,0.3,0.3,0.5,0.2,0.7c-0.1,0.3-0.4,0.4-0.8,0.4h-17.8c1.7,2,4.1,3.8,7.1,5.1c3.5,1.6,7,2.4,10.4,2.2
		c0.3,0,0.5,0.1,0.5,0.4c0,0.2,0,0.4-0.2,0.5c-1,0.5-1.7,1.3-2.2,2.3c-0.4,1.1-0.7,2-0.6,2.9c0,0.4-0.2,0.6-0.8,0.5
		c-3.3-0.9-6.3-2.6-8.8-5.1c-2.7-2.7-4.8-5.4-6.3-8.3V263.6z M613.3,224.2h-9v5h9V224.2z M613.3,230.6h-9v5h9V230.6z M613.3,236.9
		h-9v4.8h9V236.9z"/>
	<path class="st1" d="M652.5,265c-0.6,0.5-1.4,0.8-2.5,0.8c-0.6,0-1.1-0.2-1.5-0.6c-0.3-0.3-0.5-0.7-0.5-1.4v-47.8l0.1-0.4h0.5
		c1.6,0.5,3.4,1.2,5.4,2.3h29.4c0.4,0.1,0.8-0.1,0.9-0.3l1.4-1.6c0.3-0.5,0.6-0.6,1-0.4c2,0.8,3.6,1.5,4.6,2.4
		c1.1,0.9,1,1.7-0.5,2.3c-0.3,0.2-0.4,0.4-0.4,0.6v42.3c0,0.7-0.3,1.3-0.9,1.7c-0.6,0.4-1.4,0.6-2.4,0.6c-0.7,0-1.1-0.2-1.5-0.6
		c-0.3-0.3-0.4-0.6-0.4-1.1v-0.8h-32.1C653.1,263.9,652.9,264.6,652.5,265 M685.2,261.6v-42c-0.1-0.3-0.2-0.4-0.5-0.2h-31.5v42.2
		H685.2z M658.2,250l-3.1,0.4c-0.2,0.1-0.3,0.1-0.4-0.2l-0.4-1.8c-0.1-0.2,0.1-0.3,0.4-0.2l3.5,0.4h14v-3.5c0-0.3,0.1-0.3,0.4-0.3
		c1.5,0,3.1,0.1,4.8,0.4c0.8,0.2,1.2,0.5,1.2,1c0,0.5-0.3,0.8-0.8,1c-0.3,0-0.4,0.3-0.4,0.7v0.7h0.2c0.3,0,0.5-0.1,0.7-0.4l1.9-2.8
		c0.2-0.5,0.6-0.5,1-0.2c1.1,0.8,1.9,1.9,2.7,3.3c0.3,0.4,0.4,0.7,0.3,1c-0.1,0.3-0.4,0.4-0.7,0.4h-6.1v5.8c0.1,1.2-0.3,2.3-1.1,3.2
		c-0.9,0.9-2.2,1.5-4.2,1.6c-0.2,0-0.4-0.1-0.3-0.3c0.1-1.9-0.7-3.5-2.6-4.6c-0.2-0.1-0.3-0.3-0.3-0.6c0.1-0.3,0.2-0.4,0.4-0.3
		l1.5,0.1c1,0.1,1.5-0.2,1.5-1V250H658.2z M672.7,243.4c-3.8,0.9-8.1,1.8-13,2.7c-0.7,0.2-1.1,0.3-1.2,0.6c-0.2,0.4-0.4,0.5-0.6,0.6
		c-0.3,0-0.5-0.2-0.6-0.6c-0.5-1.7-0.9-3.3-1.1-4.5c0-0.3,0.1-0.4,0.4-0.4c1.6,0.2,4.5,0.2,8.7,0.2h1.4v-3.4h-5.3
		c-0.1,0.5-0.3,0.9-0.7,1.2c-0.7,0.4-1.4,0.6-2.3,0.7c-0.6,0-1.1-0.2-1.6-0.5c-0.2-0.2-0.3-0.6-0.3-1.3v-11.3
		c-0.1-0.3,0.1-0.5,0.2-0.4c1.6,0.4,3.2,1,4.7,1.9h5.3v-2.9h-8.1l-3.2,0.4c-0.2,0.1-0.3,0.1-0.4-0.2l-0.4-1.8c0-0.2,0.1-0.3,0.4-0.2
		l3.5,0.4h8.1v-3.9c0-0.2,0-0.2,0.3-0.2c1.8,0.1,3.5,0.3,5.1,0.7c0.6,0.2,1,0.5,1,0.8c0,0.5-0.3,0.8-0.9,1c-0.3,0.1-0.5,0.3-0.4,0.6
		v1h5c0.3,0,0.6-0.2,0.7-0.4l1.9-2.9c0.3-0.4,0.6-0.5,1-0.2c1.1,0.9,2,2.1,2.9,3.5c0.3,0.4,0.4,0.7,0.3,1c-0.1,0.3-0.4,0.4-0.7,0.4
		h-11.1v2.9h4.4c0.2,0,0.4-0.1,0.5-0.4l1.2-1.3c0.1-0.2,0.2-0.2,0.5,0c1.6,0.5,3,1.3,4.4,2.4c1,0.6,0.9,1.3-0.4,1.9
		c-0.3,0.2-0.4,0.4-0.4,0.8v5.7c0,0.6-0.3,1.1-0.8,1.5c-0.5,0.3-1.3,0.5-2.4,0.6c-0.7,0-1.1-0.2-1.4-0.6l-0.3-0.8h-5.3v3.2l3.2-0.3
		c-0.6-0.5-1.2-0.8-1.9-0.9l-0.3-0.3c-0.1-0.2,0-0.3,0.3-0.3c2.8-0.7,5.1-0.3,7.1,1.4c0.5,0.6,0.8,1.3,0.9,2.1
		c0.1,0.8-0.2,1.4-0.7,1.8c-0.5,0.5-1.1,0.6-1.7,0.3c-0.6-0.2-0.9-0.6-1.4-1.4l-1-1.4L672.7,243.4z M659,251.1
		c0.1-0.2,0.2-0.3,0.4-0.2h0.1c2.7,0.7,4.5,1.9,5.4,3.6c0.3,0.9,0.2,1.7-0.1,2.7c-0.3,0.8-0.8,1.3-1.6,1.4c-1.7,0.3-2.6-0.6-2.7-2.8
		c0.1-1.7-0.4-3.1-1.3-4.3L659,251.1z M666.5,230.1h-4.4l-0.8,0.2v2.6h5.2V230.1z M666.5,234.2h-5.2v2.9h5.2V234.2z M671.6,232.9
		h5.3v-2.5c-0.1-0.3-0.3-0.4-0.5-0.3h-4.7V232.9z M671.6,237.2h5.3v-2.9h-5.3V237.2z"/>
	<path class="st1" d="M719.4,130.4l0.2-0.4c15.4-22.8,17.6-46.1,17.9-49.6l-14,1.6c-1.2,14.5-6.6,27.4-16,38.4l-0.3,0.4l-0.3-0.4
		c-7.7-10.4-7-24.1-5.3-35.1c16.8-6.5,40.1-19,55-27.1l-13.9-16.7C731,50.8,718.8,60.2,705,67.7c6.9-24.6,7-44.6,7-47.2l-18.1-3.1
		c2.1,13.1-1,33.3-4.6,56.6c-0.1,0.4-0.1,0.8-0.2,1.1c-9.3,3.6-19.3,6.2-30.3,7.3c-3.3,0.3-8.9-0.8-9.4-4.9
		C648,68.1,665,60.1,657.9,54c-2.5-2.8-7.7-5.9-10.3-4c-18.2,12-30.9,19.9-45.6,25.5c-0.6-0.6-1.2-1.1-1.8-1.6
		c-0.4-0.4-0.7-0.8-1-1.2c-4.6-5.3-6.3-9.5,14.5-32.7c4.5-5.2,10.4-12.5,13-16.3c2.2-3.2,3.6-7.9,1.6-10.8
		c-1.7-2.5-5.7-3.1-11.6-1.8C596,14.7,565,27.7,562,28.9c0,0.8,0,3.9,0,16.5c4.8-2.1,37.5-16.2,42.4-17.1l1-0.2l-0.7,0.8
		c-0.1,0.1-12.4,14.9-17.9,23.9l-0.5,0.8c-3.7,6.8-8.3,15.2,1,25.3c0.3,0.3,0.6,0.6,0.9,1c-11.9,3.2-26.1,5.4-45.2,7.4
		c0,0,8.5,12.4,12.2,19c16.9-2.8,29.9-6.5,42.7-11.7c2.3,5.5,3.5,11.8,2.2,18.6c-2.9,14.1-16.3,26.4-40,36.6v22.1
		c2.7-0.9,16.5-5.6,29.7-15c13.5-9.7,29.1-26.5,27-51.5c-0.7-6.9-2.6-12.5-5-17.1c7.8-3.9,15.9-8.4,25.2-13.8
		c-2.4,27.1,30.2,21.3,49.9,15.7c-0.3,2-0.6,4-0.9,6.1c-1.7,14,1.2,26.1,8.5,35.8l0.2,0.3l-0.3,0.2c-14.9,11-30.6,15.3-33.4,16.1
		l8,20.4c15.2-5.6,28.2-13.8,38.8-24.5l0.2-0.2l0.3,0.2c14.5,9.1,31.1,11.3,33.6,11.6l4.8-19.3c-10.9-0.6-20-2.6-27-5.9L719.4,130.4
		z"/>
	<path class="st1" d="M855,78l-4.1-15.8c-9,6-21.2,11.2-36.2,15.5l-0.2,0.1l-0.2-0.2c-1.7-2-3.6-3.9-5.7-5.7c-0.4-0.4-0.7-0.8-1-1.2
		c-4.7-5.4-6.4-9.6,14.8-33.3c4.5-5.3,10.6-12.7,13.2-16.6c2.2-3.3,3.7-8.1,1.7-11c-1.7-2.5-5.8-3.2-11.8-1.8
		c-21.1,3.5-52.8,16.8-55.7,18.1c0,0.8,0,4,0,16.8c4.8-2.1,38.2-16.5,43.2-17.5l1-0.2l-0.7,0.8c-0.1,0.1-12.6,15.2-18.3,24.3
		l-0.5,0.9c-3.8,6.9-8.5,15.5,1,25.9c1.3,1.3,2.4,2.7,3.6,4.1l0.4,0.5l-0.6,0.1c-21.3,4.7-40.4,6.5-44.2,6.8l13.9,17.2
		c10.4-0.4,23.5-3.1,38.9-8.1l0.4-0.1l0.1,0.4c6.8,25.1-18.1,41.8-40.3,51.4v22.6c2.8-0.9,16.8-5.7,30.3-15.3
		c13.8-9.9,29.7-27,27.5-52.6c-0.4-4-1.3-7.8-2.6-11.4l-0.1-0.3l0.3-0.1C839.8,85.6,852.9,79,855,78"/>
	<path class="st1" d="M1032.6,11.7l-66.7,19.2l0.7-0.9c4.7-6.4,7.6-24.5,8.1-27.6L958,2.4c-0.3,15.7-5,24.6-8.8,29.3
		c-3.6,4.3-7.1,6-8.2,6.5l4.4,12.1l87.7-19.6L1032.6,11.7z"/>
	<path class="st1" d="M922.3,56.7c-15.4-0.7-25.4,7.7-27.3,9.4l-0.1,0.1L875.8,67c0.9,3.7,2.2,16.9,3.8,39.3l0,0.6l-0.6,0
		c-2.4-0.1-4.7-0.3-6.9-0.6l6.2,17c0.4,0,1,0,1.9,0c2.7-0.1,8.5-0.5,16.6-2.2c5.8-1.2,11.9-2.8,18-4.8c5.5-1.8,11.1-4,16.7-6.5
		l0.3-3.3l0.3-4c0.2-2.9,0.4-5.5,0.5-8.1c0.9-15.5,1-24.6-1.3-31C929.9,59.4,926.4,56.8,922.3,56.7 M918.5,99.8l-0.1,0.9l-0.3,0.1
		c-5.9,1.8-14.1,3.6-21.6,4.8l-0.6,0.1L895,81.8l0.2-0.2c2.6-2.4,6.8-5.8,11.3-8.6c3.7-1.8,6.7-2.1,8.8-0.9c2.1,1.2,3.3,4,3.6,8.1
		C918.9,82.7,918.5,99.1,918.5,99.8"/>
	<path class="st1" d="M1096.4,150.5c-27.3,4.2-60.1,7.3-89.1,3.3c-18-2.5-29-7.3-32.6-14.3c-2.3-4.3-1.1-8.4,0.2-11.1
		c3-6.1,15.2-20.3,26.9-34c7.7-9,14.9-17.5,19.4-23.5c4.1-5.7,5.5-10,4.1-12.4c-1.7-2.8-6.9-2.2-7-2.2l-68.5,13.5l1.9,16.2
		l46.8-10.4l-0.9,1.1c-0.1,0.1-10.1,12.6-31.7,36c-8.7,9.5-12.4,18.3-11.1,26.1c1.3,7.9,7.7,14.9,19.4,21.4
		c39.3,20.8,97.8,19.2,124.1,17.1L1096.4,150.5z"/>
	<path class="st1" d="M508.1,117.6l-0.4-0.2l0.3-0.4c14.5-20,21.6-42.7,21.1-67.5l0-0.2l0.2-0.1c5.9-2.7,11.8-5.7,17.7-8.8
		l-0.7-16.8c-3.5,1.7-24.4,11.4-49.7,18.1l-0.6,0.1l0.1-0.6c2.8-16.4,2.2-29.4,2-31.5l-19.2-1.7c2.1,9.9,1,23.8-0.5,37.4l0,0.3
		l-0.3,0c-17.2,3-32.3,3.2-45,0.6l7.2,23.8c1.9,0.1,14.9,0.8,35.1-3.2l0.5-0.1l-0.1,0.5c-0.8,6.7-1.5,12.4-2.2,18.2
		c-1.1,12.3,1.6,23,8,31.7l0.2,0.3l-0.3,0.2c-13.9,12.4-32,23.1-53.8,31.7l10.7,19.4c3.3-1.2,33.6-12.8,58.1-38.2l0.2-0.2l0.3,0.1
		c16.3,9.5,35.8,11.1,38.5,11.3l4.3-19.1C526.8,122.9,516.2,121.2,508.1,117.6 M493.8,105.1l-0.3,0.4l-0.3-0.4
		c-7.9-12.9-4.5-29.8-2.5-39.9l0.4-1.9l0.2-0.1c7.2-2,14.5-4.4,21.8-7.2l0.5-0.2l0,0.5C513.7,58.8,514.1,80.5,493.8,105.1"/>
	<path class="st1" d="M323.4,158.8c-13.9-2.8-26-6.1-37.1-10.2l-0.3-0.1l0-0.3c0.3-5.2,0.7-12.6,1-21.8l0-0.3l0.2-0.1
		c8.4-2.9,16.9-6.5,25.2-10.5v-15.1c-5.7,2.4-14.3,5.7-24.4,8.8l-0.5,0.2l0-0.5c0.2-7.6,0.5-15.6,0.7-23.7l0-0.2l0.2-0.1
		c9-3.6,18-7.8,26.8-12.5l-0.6-14.6c-2.3,1.1-12.1,5.6-25.4,10.3l-0.5,0.2l0-0.5c0.2-6.7,0.3-13.3,0.5-19.5l0-0.3l0.2-0.1
		c6.1-2.1,12.3-4.5,18.4-7.2V26.9c-5.9,2.3-11.9,4.4-17.8,6.1l-0.5,0.1l0-0.5c0.4-17.3,0.6-30,0.7-32.3L268.6,0
		c1.1,4.3,1.7,16.8,2,37.3l0,0.3l-0.3,0.1c-12.7,2.1-23.8,2.3-33.2,0.4l5.3,17.6c1.7,0.1,12,0.6,27.9-2.8l0.4-0.1l0,0.5
		c0,6.2,0,13,0,20.1l0,0.3l-0.3,0.1c-22.7,6-41.9,7.5-57.2,4.5l6.3,20.8c2.4,0.1,22.1,0.7,50.6-7.8l0.5-0.1l0,0.5
		c-0.2,18.6-0.6,37.5-1,49.2l0,0.6l-0.5-0.3c-7.6-3.7-14.8-8.1-22.1-13.2l-0.3-0.2l0.2-0.3c3.2-5.7,5.9-11.7,8.3-18.1l-12.1-4.7
		c-18,30-46.4,45.8-55.4,50.2l15.7,18.5c15.2-10,27.7-22,37.2-35.7l0.2-0.3l0.3,0.3c17.3,15.1,81.1,62.6,177.6,37.7l-1.6-22.4
		C403.9,157.2,369.2,165.7,323.4,158.8"/>
	<path class="st1" d="M335.9,132.5c2.8,2.8,7.6,6.1,14.8,5.9c10.6-0.4,26.6-1.1,47.3-7l-1.6-19.6l-2,0.8
		c-15.4,6.3-38.6,15.8-47.5,10c-2.3-1.5-3.5-4-3.6-7.4l0.5-13.6l0.2-0.1c10.1-3.4,20.4-8,33.3-15c0.6-0.3,1-0.5,1.2-0.6
		c0.4-3,1-6.3,1.6-9.8c2-12.3,4.4-26.3,2.4-32.8c-1.2-3.9-4.5-6.7-8.6-7.1c-15.1-1.6-25.6,6.2-27.5,7.7l-0.1,0.1l-19-0.3
		c1.8,8.6,2.3,73.8,2.3,76.6C329.7,123.3,331.9,128.5,335.9,132.5 M345.4,59.9l0.1-0.1c2.8-2.2,7.1-5.4,11.9-8.1
		c3.6-1.5,6.2-1.7,7.9-0.5c2.3,1.6,2.2,5.4,2.1,7.4c0,0.3,0,0.6,0,0.8c0,2.2-1.1,14.9-1.4,18.8l0,0.2l-0.2,0.1
		c-7,2.7-14,5.1-20.8,7.1l-0.5,0.1L345.4,59.9z"/>
	<path class="st1" d="M0,89l6,28c0,0,99.4,6.1,170.8-12.2V85.4C149.5,90.5,72.1,102.3,0,89"/>
</g>
</svg>
