<svg xmlns="http://www.w3.org/2000/svg" xml:space="preserve" width="215.1" height="41.3" style="overflow:visible" viewBox="0 0 215.1 41.3"><path fill="#fff" d="M3.6 21.9c-.2 0-.3-.1-.5-.3l-3-4.3c-.1-.1-.1-.2-.1-.4s.1-.4.3-.5c4.6-2.9 8-7.3 10.4-13.2.1-.4.4-.5.8-.4l4.3 1.7c.4.2.5.4.4.8-.7 1.9-1.6 3.8-2.7 5.8-1.2 2-2.4 3.8-3.8 5.5h22c-1.1-1.3-2.2-2.8-3.1-4.4q-1.5-2.4-3-5.4h-7.2q-.6 0-.6-.6V1.9q0-.6.6-.6h10.5c.4 0 .6.2.8.5C32.3 8.3 36 13 40.8 16c.2.1.3.3.3.5 0 .1 0 .3-.1.4l-2.9 4.6c-.1.2-.3.4-.5.4-.1 0-.2 0-.4-.1q-1.95-1.35-3.3-2.7c-.1 4.7-.2 8.8-.4 12.1-.1 2.5-.6 4.4-1.3 5.8-.8 1.4-1.9 2.4-3.4 2.9q-2.25.9-6.3.9H21c-.4-.1-.6-.2-.7-.5l-1.7-4.6v-.3c0-.3.2-.4.6-.4l2 .1c1.6 0 2.9-.1 3.8-.4s1.5-.8 1.9-1.5.6-1.6.8-2.8c.2-1.8.3-4.1.3-7v-1.2h-7.2c-.4 5-2 9.1-4.6 12.3S9.7 40 4.6 41.4h-.2c-.2 0-.4-.1-.6-.4L1 36.8c-.1-.1-.1-.3-.1-.4 0-.2.2-.4.5-.4q6.45-1.5 9.6-4.8c2.1-2.2 3.4-5.2 3.8-9.1H8.7q-.6 0-.6-.6v-3c-1.4 1.4-2.7 2.5-4 3.3-.2 0-.3.1-.5.1m55.2 6.9H77V28q0-.6.6-.6c2.9-.4 5.4-1 7.3-1.9H62.5q-.6 0-.6-.6V22q0-.6.6-.6h31.1q.6 0 .6.6v2.9c0 .3-.1.6-.4.7-2.1 1.1-4.9 2.2-8.1 3.3H98q.6 0 .6.6v3.3q0 .6-.6.6H82.5V35c0 1.6-.3 2.9-1 3.8s-1.8 1.6-3.3 1.9q-2.25.6-6.3.6h-1.4c-.4 0-.6-.2-.8-.5l-1.4-3.7v-.3c0-.3.2-.4.6-.4h2.8c1.5 0 2.7-.1 3.4-.2.8-.1 1.3-.4 1.5-.7.3-.3.4-.8.4-1.4v-.8H58.8q-.6 0-.6-.6v-3.3q0-.6.6-.6m.6-25.7h16.2l-1.1-1.6c-.1-.1-.1-.2-.1-.3 0-.3.2-.5.5-.5l4.8-.4h.1c.3 0 .6.2.8.5l1.2 2.4h15.8q.6 0 .6.6v3.3q0 .6-.6.6H59.4q-.6 0-.6-.6V3.7q0-.6.6-.6m3.5 15.8v-8.8q0-.6.6-.6h30q.6 0 .6.6v8.8q0 .6-.6.6h-30q-.6 0-.6-.6m25.7-5.8H68.4v2.7h20.2zM116 38.8c0-.1 0-.2.1-.4q1.2-3.15 1.8-8.1.15-.6.6-.6h.4l2.9.4q.6 0 .6.6c-.1 1.3-.2 2.9-.5 4.6s-.5 3.2-.8 4.3c-.1.3-.2.5-.5.5h-.3l-3.8-.8c-.3-.1-.5-.3-.5-.5m2-11.3-.8-2.8v-.4c0-.3.2-.6.5-.8 1.8-1.5 3.7-3.8 5.7-7-1.8.4-3.6.7-5.6.9h-.1c-.1 0-.2-.1-.3-.2s-.2-.2-.2-.4l-.8-2.7c-.1-.3-.1-.6-.1-.7 0-.2.1-.5.3-.8 1-1.1 2.1-3 3.3-5.6s2.1-4.8 2.7-6.7c.1-.3.3-.4.6-.4.1 0 .2 0 .4.1l3.8 1.4c.3.1.4.3.4.5v.3c-.7 1.6-1.6 3.4-2.7 5.5s-2 3.6-2.8 4.5l3.9-.7c1-2 1.8-3.6 2.3-4.9.1-.2.3-.3.5-.3.1 0 .2 0 .4.1l3.6 1.7q.3.15.3.6c0 .1 0 .3-.1.4-1.4 2.4-2.9 4.9-4.5 7.4s-3 4.5-4.3 5.9c1.8-.4 3.3-.7 4.5-1-.3-.9-.6-1.6-.8-2.1V19c0-.3.1-.4.4-.5l2.9-1h.3c.3 0 .5.1.6.4.5 1.1 1 2.4 1.4 3.9s.8 2.8 1.1 4v.3c0 .2-.1.4-.4.4l-3.3 1h-.3c-.3 0-.4-.2-.4-.5l-.3-1.3c-4.4 1.1-8 1.8-10.9 2.2h-.3c-.5.2-.7 0-.9-.4m6.5 11.2c-.1-1.2-.3-2.5-.5-4-.2-1.4-.5-2.8-.8-4v-.2c0-.2.1-.3.3-.4l3.2-.7h.3c.3 0 .4.1.5.4.3.7.6 1.8 1 3.4.4 1.5.7 2.9 1 4.2v.4c0 .3-.2.4-.5.5l-3.5.9h-.4c-.4 0-.6-.2-.6-.5m6.6-2.3c-.6-2.6-1.3-4.7-2-6.2 0-.1-.1-.2-.1-.3 0-.2.1-.3.3-.4l2.7-.9c.1 0 .2-.1.3-.1.2 0 .4.1.5.3.8 1.6 1.6 3.6 2.3 6v.4c0 .2-.1.4-.3.5l-3 1.1h-.3c-.2.1-.3-.1-.4-.4m2.7-26.7v-4q0-.6.6-.6h7.9V1.2q0-.6.6-.6h4.3q.6 0 .6.6v3.9h8.4q.6 0 .6.6v4q0 .6-.6.6h-8.4v4.8h7.5q.6 0 .6.6v3.8q0 .6-.6.6H135q-.6 0-.6-.6v-3.8q0-.6.6-.6h7.2v-4.8h-7.9c-.3.1-.5-.2-.5-.6m2.4 14h18.4q.6 0 .6.6v15.4q0 .6-.6.6h-18.4q-.6 0-.6-.6V24.3c-.1-.4.2-.6.6-.6m13.7 4.7h-9.1v7.1h9.1zm27.8-7.9V2.4q0-.6.6-.6h32.5q.6 0 .6.6v18.2q0 .6-.6.6h-13.5v2.6h16.4q.6 0 .6.6v3.9q0 .6-.6.6l-13.3-.2c1.9 1.2 4 2.4 6.5 3.4s5 1.9 7.7 2.5c.3.1.5.3.5.5 0 .1 0 .2-.1.3l-2.1 4.4c-.1.3-.3.4-.5.4h-.3c-2.8-1-5.5-2.1-8.1-3.5s-4.9-2.9-6.7-4.5l.1 8.5q0 .6-.6.6h-4.4q-.6 0-.6-.6l.1-8.5c-3.8 3.5-8.8 6.1-14.8 8.1h-.3c-.2 0-.3-.1-.5-.4l-2-4.4c-.1-.1-.1-.2-.1-.3 0-.3.1-.4.4-.5 5.8-1.4 10.6-3.4 14.2-6l-13.3.2q-.6 0-.6-.6v-3.9q0-.6.6-.6h16.3v-2.6h-13.4c-.5 0-.7-.2-.7-.7m14.1-13.9h-8.4v2.9h8.4zm0 7h-8.4v2.9h8.4zm14-7h-8.5v2.9h8.5zm0 7h-8.5v2.9h8.5z"/></svg>