<svg xmlns="http://www.w3.org/2000/svg" xml:space="preserve" width="720.9" height="278.9" style="overflow:visible"><style>.st0{fill:none;stroke:#d7a685;stroke-width:6;stroke-linecap:round;stroke-linejoin:round;stroke-miterlimit:10}.st1{fill:#fff}.st2{fill:none;stroke:#595757;stroke-width:6;stroke-linecap:round;stroke-miterlimit:10}.st3{fill:#595757}.st4{fill:none;stroke:#df032e;stroke-width:6;stroke-linecap:round;stroke-miterlimit:10}.st6{fill:#d7a685}</style><path d="M639.2 60.1c25.1 0 45.4 20.3 45.4 45.4" class="st0"/><path d="m450.6 228.9 14-24.3 14 24.3z" class="st1"/><path d="M229.6 105.5c-8.9 0-14.7-4.5-16.3-11-4.9-19.8-22.8-34.4-44.1-34.4" class="st2"/><path d="M137.7 105.5c0 17.4 14.1 31.6 31.6 31.6s31.6-14.1 31.6-31.6c0-17.4-14.1-31.6-31.6-31.6s-31.6 14.2-31.6 31.6" class="st3"/><path d="M108.8 105.5c-8.9 0-14.7-4.5-16.3-11-4.9-19.8-22.8-34.4-44.1-34.4M48.4 60.1C23.3 60.1 3 80.4 3 105.5" class="st2"/><path d="M16.9 105.5c0 17.4 14.1 31.6 31.6 31.6S80 123 80 105.5C80 88.1 65.9 74 48.4 74s-31.5 14.1-31.5 31.5" class="st3"/><path d="M290.1 60.1h0c-21.3 0-39.2 14.7-44.1 34.4-1.6 6.5-7.4 11-16.3 11M169.2 60.1h0c-21.3 0-39.2 14.7-44.1 34.4-1.6 6.5-7.4 11-16.3 11" class="st2"/><path d="M580.9 105.5c6.7 0 12.6-4.5 14.2-11 4.9-19.8 22.8-34.4 44.1-34.4" class="st0"/><path d="M464.6 3c52.3 0 95.4 39.1 101.7 89.7.9 7.3 7.1 12.8 14.5 12.8M464.6 3c-52.3 0-95.4 39.1-101.7 89.7-.9 7.3-7.1 12.8-14.5 12.8" class="st4"/><path d="M550 105.5c0 47.2-38.3 85.4-85.4 85.4s-85.4-38.3-85.4-85.4c0-47.2 38.3-85.4 85.4-85.4S550 58.3 550 105.5" style="fill:#df032e"/><path d="M670.7 105.5c0 17.4-14.1 31.6-31.6 31.6s-31.6-14.1-31.6-31.6c0-17.4 14.1-31.6 31.6-31.6s31.6 14.2 31.6 31.6" class="st6"/><path d="M348.3 105.5h0c-6.7 0-12.6-4.5-14.2-11-4.9-19.8-22.8-34.4-44.1-34.4" class="st2"/><path d="M258.5 105.5c0 17.4 14.1 31.6 31.6 31.6s31.6-14.1 31.6-31.6c0-17.4-14.1-31.6-31.6-31.6s-31.6 14.2-31.6 31.6" class="st3"/><path d="M417.6 103.5c-.2-.1-.2-.2-.2-.4 0-.1.1-.3.2-.5l9-12.7c-1 .2-2 .4-2.8.4q-3.6 0-6.6-1.8c-2-1.2-3.5-2.8-4.6-4.9s-1.6-4.4-1.6-7.1c0-2.8.7-5.3 2-7.5s3.2-3.9 5.5-5.1q3.6-1.8 8.1-1.8c4.5 0 5.7.6 8.1 1.9s4.2 3 5.6 5.3c1.3 2.2 2 4.7 2 7.5 0 2.5-.6 5.1-1.7 7.8q-1.8 4.05-6 10.2l-5.8 8.2c-.2.4-.6.6-1.1.6h-9.5c-.3.1-.5 0-.6-.1m5.1-22.4c1 1.1 2.4 1.6 4 1.6s2.9-.5 4-1.6c1.1-1 1.6-2.4 1.6-4 0-1.7-.5-3-1.6-4s-2.4-1.6-4-1.6-2.9.5-4 1.6-1.6 2.4-1.6 4 .5 2.9 1.6 4M454.3 101.9c-2.5-1.7-4.4-4.1-5.7-7.3s-2-7-2-11.4.7-8.2 2-11.4 3.2-5.6 5.7-7.3 5.4-2.5 8.8-2.5 6.4.8 8.9 2.5 4.4 4.1 5.7 7.3 2 7 2 11.4-.7 8.2-2 11.4-3.2 5.6-5.7 7.3-5.4 2.5-8.9 2.5c-3.4.1-6.3-.8-8.8-2.5m4.3-10.1q1.65 2.7 4.5 2.7c2.85 0 3.4-.9 4.5-2.7s1.6-4.6 1.6-8.5-.5-6.7-1.6-8.5-2.6-2.7-4.5-2.7-3.4.9-4.5 2.7-1.6 4.6-1.6 8.5.5 6.7 1.6 8.5M492.2 101.9c-2.5-1.7-4.4-4.1-5.7-7.3s-2-7-2-11.4.7-8.2 2-11.4 3.2-5.6 5.7-7.3 5.4-2.5 8.8-2.5 6.4.8 8.9 2.5 4.4 4.1 5.7 7.3 2 7 2 11.4-.7 8.2-2 11.4-3.2 5.6-5.7 7.3-5.4 2.5-8.9 2.5c-3.4.1-6.4-.8-8.8-2.5m4.3-10.1q1.65 2.7 4.5 2.7c2.85 0 3.4-.9 4.5-2.7s1.6-4.6 1.6-8.5-.5-6.7-1.6-8.5-2.6-2.7-4.5-2.7-3.4.9-4.5 2.7-1.6 4.6-1.6 8.5.5 6.7 1.6 8.5M443.4 153.4v-.3c.5-1 .8-2.1 1.1-3.5s.5-2.7.6-4c.1-.4.3-.6.7-.5l3.1.5c.4.1.6.3.6.7-.1 1.4-.3 2.8-.5 4.3-.3 1.5-.6 2.8-1 4-.1.3-.3.5-.5.5s-.3-.1-.5-.1l-3.2-.9c-.2-.3-.4-.5-.4-.7m1.4-14.1h7.7v-2H446q-.6 0-.6-.6v-2.9q0-.6.6-.6h6.5v-2h-7.1q-.6 0-.6-.6v-15.1q0-.6.6-.6H464q.6 0 .6.6v15.1q0 .6-.6.6h-7v2h6.5q.6 0 .6.6v2.9q0 .6-.6.6H457v2h7.4q.6 0 .6.6v3q0 .6-.6.6h-19.5q-.6 0-.6-.6v-3c-.1-.4.1-.6.5-.6m8-20.4h-4v8.3h4zm-3.8 2.3c0-.2.2-.4.5-.5l1.2-.4h.3c.2 0 .3.2.5.5.5 1.2.8 2.6 1.1 4.2v.1c0 .3-.2.5-.5.6l-1.3.4c-.1.1-.2.1-.3.1-.3 0-.4-.2-.5-.5-.1-1.4-.5-2.7-1-4.1.1-.2.1-.3 0-.4m2 32.9c-.1-.1-.1-.3-.1-.5.1-.5.1-1.4.1-2.4 0-1.7-.1-3.2-.2-4.8 0-.4.2-.6.6-.7l2.5-.2h.1c.4 0 .6.2.6.5.4 2.2.6 4.5.6 7.1 0 .4-.2.6-.6.7l-3.1.4h-.1c-.2.1-.3 0-.4-.1m5.7-1.2c-.2-2.7-.5-4.8-.9-6.5v-.3c0-.2.2-.4.5-.5l2.3-.5h.2c.3 0 .5.2.6.5q.45 1.5.9 3.6c.3 1.4.4 2.3.4 2.7v.1c0 .3-.2.5-.5.6l-2.8.7h-.2c-.2.1-.4-.1-.5-.4m3.9-34h-4v8.3h4zm-2.8 1.9c0-.4.3-.6.7-.5l1.4.4c.4.1.6.3.5.7-.2 1.7-.6 3.1-1.2 4.4-.1.2-.2.3-.3.4-.2.1-.3.1-.5 0l-1.2-.5c-.4-.1-.5-.4-.4-.8.5-1.1.8-2.5 1-4.1m4.2 30.7c-.3-2.2-.8-4-1.4-5.5 0-.1-.1-.2-.1-.3 0-.2.2-.4.5-.5l2-.6h.3c.2 0 .4.1.5.4.8 1.7 1.4 3.5 1.8 5.3v.3c0 .1 0 .2-.1.3s-.2.1-.4.2l-2.3.9h-.3c-.2 0-.4-.2-.5-.5m4.4 2v-19.2q0-.6.6-.6h4.8v-19.2q0-.6.6-.6h4.2q.6 0 .6.6v6.8h7.4q.6 0 .6.6v4.2q0 .6-.6.6h-7.4v7h6.1q.6 0 .6.6v19.2q0 .6-.6.6H467q-.6 0-.6-.6m12.3-14.8h-7.1V149h7.1z"/><path d="M563.7 228.8v-23.2l-5.2 2.3c-.1 0-.2.1-.2.1-.1 0-.3-.1-.4-.4l-.7-1.5c0-.1-.1-.2-.1-.3 0-.2.1-.3.2-.5l7.5-7.1q.3-.3.6-.3h3c.3 0 .5.2.5.6v30.4c0 .4-.2.6-.5.6h-4.2c-.3-.1-.5-.3-.5-.7M573.8 203.2c-.1-.1-.1-.2-.1-.4v-4.4c0-.4.2-.6.5-.6h18.9c.3 0 .5.2.5.6v1.5c0 .2 0 .5-.1.7L582.6 229c-.1.3-.3.4-.6.4h-4.8c-.2 0-.3-.1-.4-.2s-.1-.3 0-.5l10-25.4h-12.6c-.2.1-.3 0-.4-.1M596.6 235.9l.1-.4 1.9-6.2c-.5-.3-.8-.7-1.1-1.2s-.4-1.1-.4-1.7q0-1.5.9-2.4c.6-.6 1.3-1 2.2-1s1.7.3 2.2 1q.9.9.9 2.4c0 .6-.1 1.3-.3 2s-.7 2-1.4 3.6l-1.5 3.8c-.1.3-.3.4-.6.4h-2.4c-.3.1-.5 0-.5-.3M612.3 228c-1.7-1.3-2.9-3.2-3.8-5.6-.9-2.5-1.3-5.4-1.3-8.7 0-3.4.4-6.3 1.3-8.8s2.1-4.3 3.8-5.6 3.6-1.9 5.9-1.9 4.2.6 5.9 1.9c1.6 1.3 2.9 3.2 3.8 5.6.9 2.5 1.3 5.4 1.3 8.8s-.4 6.3-1.3 8.7c-.9 2.5-2.1 4.3-3.8 5.6s-3.6 1.9-5.9 1.9c-2.3.1-4.2-.6-5.9-1.9m1.8-6.3c1 1.8 2.3 2.7 4.1 2.7s3.2-.9 4.1-2.7c1-1.8 1.5-4.4 1.5-8s-.5-6.2-1.5-8-2.4-2.7-4.1-2.7c-1.8 0-3.2.9-4.1 2.7-1 1.8-1.4 4.4-1.4 8 0 3.5.4 6.2 1.4 8M638.2 228c-1.7-1.3-2.9-3.2-3.8-5.6-.9-2.5-1.3-5.4-1.3-8.7 0-3.4.4-6.3 1.3-8.8s2.1-4.3 3.8-5.6 3.6-1.9 5.9-1.9 4.2.6 5.9 1.9c1.6 1.3 2.9 3.2 3.8 5.6.9 2.5 1.3 5.4 1.3 8.8s-.4 6.3-1.3 8.7c-.9 2.5-2.1 4.3-3.8 5.6s-3.6 1.9-5.9 1.9c-2.3.1-4.3-.6-5.9-1.9m1.7-6.3c1 1.8 2.3 2.7 4.1 2.7s3.2-.9 4.1-2.7c1-1.8 1.5-4.4 1.5-8s-.5-6.2-1.5-8-2.4-2.7-4.1-2.7c-1.8 0-3.2.9-4.1 2.7-1 1.8-1.4 4.4-1.4 8 0 3.5.5 6.2 1.4 8M664 228c-1.7-1.3-2.9-3.2-3.8-5.6-.9-2.5-1.3-5.4-1.3-8.7 0-3.4.4-6.3 1.3-8.8s2.1-4.3 3.8-5.6 3.6-1.9 5.9-1.9 4.2.6 5.9 1.9c1.6 1.3 2.9 3.2 3.8 5.6.9 2.5 1.3 5.4 1.3 8.8s-.4 6.3-1.3 8.7c-.9 2.5-2.1 4.3-3.8 5.6s-3.6 1.9-5.9 1.9c-2.3.1-4.3-.6-5.9-1.9m1.8-6.3c1 1.8 2.3 2.7 4.1 2.7s3.2-.9 4.1-2.7c1-1.8 1.5-4.4 1.5-8s-.5-6.2-1.5-8-2.4-2.7-4.1-2.7c-1.8 0-3.2.9-4.1 2.7-1 1.8-1.4 4.4-1.4 8-.1 3.5.4 6.2 1.4 8M684 229.5v-.2c.4-.8.7-1.9 1-3.1s.4-2.4.6-3.5c.1-.4.3-.5.6-.5l2.7.4c.4.1.5.3.5.6-.1 1.2-.2 2.5-.5 3.8-.2 1.3-.5 2.5-.9 3.5-.1.3-.2.4-.5.4-.1 0-.3-.1-.4-.1l-2.8-.8c-.2-.1-.3-.3-.3-.5m1.2-12.3h6.7v-1.7h-5.7q-.6 0-.6-.6v-2.6q0-.6.6-.6h5.7V210h-6.2q-.6 0-.6-.6v-13.2q0-.6.6-.6H702q.6 0 .6.6v13.2q0 .6-.6.6h-6.2v1.7h5.7q.6 0 .6.6v2.6q0 .6-.6.6h-5.7v1.7h6.5q.6 0 .6.6v2.7q0 .6-.6.6h-17.1q-.6 0-.6-.6v-2.7c.1-.4.2-.6.6-.6m7.1-17.9h-3.5v7.2h3.5zm-3.4 2c0-.2.1-.4.4-.4l1.1-.4h.3c.2 0 .3.1.4.4.4 1.1.7 2.3 1 3.7v.1c0 .3-.1.5-.4.6l-1.1.4c-.1.1-.2.1-.2.1-.2 0-.4-.2-.4-.5q-.15-1.8-.9-3.6c-.1-.2-.1-.3-.2-.4m1.8 28.9c-.1-.1-.1-.2-.1-.4.1-.5.1-1.2.1-2.1 0-1.5-.1-2.8-.2-4.2 0-.3.2-.5.5-.6l2.2-.2h.1c.3 0 .5.2.6.5.3 1.9.5 4 .5 6.3 0 .3-.2.5-.5.6l-2.7.3h-.2c-.1-.1-.2-.1-.3-.2m5-1.1c-.2-2.3-.5-4.2-.8-5.7v-.2c0-.2.1-.3.4-.4l2-.4h.2c.3 0 .4.1.5.4.3.9.6 1.9.8 3.1s.4 2 .4 2.4v.1c0 .3-.1.4-.4.5l-2.4.6h-.2c-.3 0-.4-.1-.5-.4m3.4-29.8h-3.5v7.2h3.5zm-2.4 1.6c0-.4.2-.5.6-.4l1.2.3c.3.1.5.3.4.6-.2 1.5-.5 2.7-1.1 3.9-.1.2-.1.3-.3.3s-.3.1-.4 0l-1-.4c-.3-.1-.4-.3-.3-.7q.6-1.35.9-3.6m3.6 26.9q-.45-2.85-1.2-4.8c0-.1-.1-.2-.1-.3 0-.2.1-.4.4-.4l1.8-.5h.3c.2 0 .3.1.4.4.7 1.5 1.2 3.1 1.5 4.7v.2c0 .1 0 .2-.1.3s-.2.1-.3.2l-2.1.8h-.2c-.2-.1-.3-.3-.4-.6m3.8 1.8v-16.9q0-.6.6-.6h4.2v-16.9q0-.6.6-.6h3.7q.6 0 .6.6v5.9h6.5q.6 0 .6.6v3.6q0 .6-.6.6h-6.5v6.2h5.3q.6 0 .6.6v16.9q0 .6-.6.6h-14.3c-.5 0-.7-.2-.7-.6m10.8-13h-6.3v9.1h6.3zM602.5 162.9l-2.3-1.9c-.1-.1-.2-.2-.2-.3s.1-.2.2-.3c1-.7 1.9-1.5 2.6-2.4s1.3-1.8 1.7-2.8c.1-.2.2-.3.4-.3h.1l3.2.3c.4 0 .5.2.3.5l-.5 1h6.3c.3 0 .4.1.4.4v2.1c1.1-1.2 1.9-2.5 2.4-4 .1-.2.2-.3.4-.3h.1l3 .2c.2 0 .3.1.3.1q.15.15 0 .3l-.6 1.1h7.5c.3 0 .4.1.4.4v2.4c0 .3-.1.4-.4.4h-3.6l.9 1.4c.1.1.1.2.1.3q0 .3-.3.3l-2.9.6h-.1c-.2 0-.3-.1-.4-.3-.3-.8-.7-1.5-1.1-2.2h-2c-.7 1-1.3 1.8-1.9 2.3-.1.1-.2.2-.3.2s-.2 0-.3-.1l-2.5-1.4c-.1-.1-.2-.2-.2-.3s.1-.2.2-.3l.5-.4h-2.8c.3.5.6.9.8 1.4 0 .1 0 .1.1.2q0 .3-.3.3l-2.9.5h-.1c-.2 0-.3-.1-.4-.3-.3-.8-.5-1.5-.9-2.2H606c-.9 1.2-1.9 2.2-2.9 2.9-.1.1-.2.1-.3.1-.1.2-.2.1-.3.1m10.4 20.4.1-5c-1.4 1.2-2.9 2.2-4.8 3.1s-3.8 1.5-5.8 1.9h-.2c-.2 0-.3-.1-.4-.3l-1.4-2.6c0-.1 0-.2-.1-.2 0-.2.1-.3.4-.3 1.9-.3 3.8-.7 5.6-1.4 1.8-.6 3.3-1.4 4.5-2.3H602c-.3 0-.4-.2-.4-.5.5-2.2.9-4.5 1.2-7.1 0-.3.2-.4.4-.4h9.7v-2h-10.6c-.3 0-.4-.1-.4-.4v-2.3c0-.3.1-.4.4-.4h24.2c.3 0 .4.1.4.4v7.2c0 .3-.1.4-.4.4h-9.7v2h10.8c.3 0 .4.1.4.4 0 2 0 3.5-.1 4.5-.1 1.4-.6 2.5-1.5 3.1s-2.1 1-3.8 1.1c-.5 0-1.2.1-2.3.1-.3 0-.5-.1-.5-.3l-1-2.5v-.2c0-.2.1-.3.4-.3h1.2c1.4 0 2.3-.1 2.8-.3s.8-.6.8-1.2c.1-.5.1-1 .1-1.4h-7.3v7.1c0 .3-.1.4-.4.4h-3c-.3.1-.5 0-.5-.3m0-10.2v-2h-6.5c-.1 1.2-.2 1.9-.3 2zm10.2-4.9v-2h-6.3v2zM637.2 182.1v-18.5l-4.6 1.8c-.1 0-.1 0-.2.1-.1 0-.3-.1-.4-.3l-.6-1.2c0-.1-.1-.1-.1-.3 0-.1.1-.3.2-.4l6.6-5.7c.1-.1.3-.2.5-.2h2.7c.3 0 .4.1.4.4v24.3c0 .3-.1.4-.4.4h-3.7c-.3 0-.4-.1-.4-.4M649.2 166.3c-.2 0-.3-.1-.4-.2l-2-3c-.1-.1-.1-.2-.1-.3s.1-.3.3-.3c2.2-.7 4.2-1.8 6.1-3.1 1.9-1.4 3.4-2.8 4.4-4.2q.15-.3.6-.3l3.6.5q.3.15.3.3c0 .15 0 .1-.1.3l-1 1.3H672c.3 0 .4.1.4.4v2.8c0 .2 0 .4-.1.5-2.5 3.7-6.2 6.8-10.9 9.4H673c.3 0 .4.1.4.4v11.9c0 .3-.1.4-.4.4h-20.3c-.3 0-.4-.1-.4-.4v-8.6c-.8.3-2 .6-3.7 1.1h-.2c-.2 0-.3-.1-.4-.3l-1.5-3.2c0-.1 0-.2-.1-.2q0-.3.3-.3c3.8-.7 7.2-1.6 10.3-2.9-1.4-1.3-2.9-2.5-4.6-3.6-.9.5-2 1.1-3.2 1.6q.15 0 0 0m11.6.1c2.8-1.6 5-3.4 6.8-5.5h-10c-.4.4-1 .9-1.9 1.6q3 1.8 5.1 3.9m8.6 7.5h-13.1v5.5h13.1zM606.6 41.8V20.3c0-.3.1-.4.4-.4h3.5c.2 0 .4.1.5.3l9.9 15.2V20.3c0-.3.1-.4.4-.4h3.2c.3 0 .4.1.4.4v21.5c0 .3-.1.4-.4.4H621c-.2 0-.4-.1-.5-.3l-9.9-15.2v15.1c0 .3-.1.4-.4.4H607c-.2 0-.4-.1-.4-.4M632.2 41.5c-1.2-.7-2.1-1.7-2.8-2.9-.6-1.2-1-2.6-1-4.2s.3-3 1-4.2c.6-1.2 1.6-2.2 2.8-2.9s2.6-1 4.2-1c2.4 0 4.2.8 5.5 2.4s1.9 3.7 1.9 6.5c0 .3-.1.5-.4.5h-10.8c.2 1.1.6 1.9 1.2 2.5s1.5.9 2.5.9c1.6 0 2.7-.6 3.4-1.8.1-.2.3-.2.5-.2l2.7.9q.3.15.3.3c0 .15 0 .2-.1.3-.7 1.3-1.6 2.3-2.8 3s-2.6 1-4.1 1c-1.4-.1-2.8-.5-4-1.1m6.3-11.1c-.6-.5-1.3-.8-2.1-.8-.9 0-1.7.3-2.4.8-.6.5-1.1 1.2-1.3 2.2h6.9c-.2-.9-.5-1.6-1.1-2.2M644.8 41.9c0-.1 0-.1.1-.2l5.3-7.6-5-7.2c-.1-.1-.1-.2-.1-.2q0-.3.3-.3h3.6c.2 0 .4.1.5.3l3.2 4.6 3.2-4.6c.1-.2.3-.3.5-.3h3.4c.2 0 .3.1.3.2s0 .2-.1.3l-5 7.2 5.3 7.6c.1.1.1.2.1.2 0 .1 0 .1-.1.2-.1 0-.1.1-.2.1h-3.6c-.2 0-.4-.1-.5-.3l-3.4-5.1-3.5 5.1c-.1.2-.3.3-.5.3h-3.4c-.3 0-.4-.1-.4-.3M665.4 40.9c-.9-1.1-1.3-2.7-1.3-4.8V30h-2.3c-.1 0-.2 0-.3-.1s-.1-.2-.1-.3v-2.7c0-.3.1-.4.4-.4h2.3v-4.2c0-.1 0-.2.1-.3s.2-.1.3-.1h3.1c.1 0 .2 0 .3.1s.1.2.1.3v4.2h3.7c.3 0 .4.1.4.4v2.7c0 .1 0 .2-.1.3s-.2.1-.3.1H668v6.4c0 .9.1 1.5.4 1.9s.7.6 1.3.6c.5 0 .9-.3 1.2-.8.1-.2.3-.3.5-.2l2.4 1.1c.1.1.2.2.2.3s0 .2-.1.3c-1 1.9-2.6 2.8-4.6 2.8q-2.55.15-3.9-1.5" class="st6"/><path d="M389.1 278.4v-18c-.8 1.1-1.5 2-2.2 2.6-.1.1-.2.2-.3.2-.2 0-.3-.1-.3-.4l-1.4-4.6v-.5l.2-.2c1.5-1.5 2.9-3.3 4.1-5.5s2.3-4.6 3.1-7.2c.1-.3.2-.4.4-.4h.3l4 .7c.3 0 .4.2.5.4v.2c-.8 2.8-1.9 5.4-3.3 7.9v24.8c0 .4-.2.5-.5.5h-3.8c-.5 0-.8-.2-.8-.5m9.3-3.6-3.5-1.7c-.2-.1-.3-.3-.3-.4s0-.2.1-.3c2-3.2 3.4-6.8 4-10.7.1-.3.2-.4.3-.5h.3l3.5.8c.2 0 .3.1.4.3v.3q-.45 3-1.5 6.3c-.7 2.1-1.5 4.1-2.5 5.8q-.15.3-.3.3c-.3-.1-.4-.1-.5-.2m18-14-3.5-1.3q-.3-.15-.3-.3v-.3c.9-2.2 1.4-4.2 1.5-6.1h-10.6c-.5 1.4-1.1 2.7-1.7 3.9-.6 1.1-1.4 2.3-2.4 3.5-.1.2-.3.3-.4.3s-.2-.1-.3-.2l-3.1-3c-.1-.1-.2-.3-.2-.4s.1-.2.2-.3c1.6-1.9 2.7-3.8 3.5-5.6q1.05-2.7 1.5-6c0-.2.1-.4.3-.5h.2l4 .4c.3.1.4.2.5.4v.3c-.2.9-.4 1.8-.6 2.8h13.6c.4 0 .5.2.5.7-.1 4.3-.7 8.1-1.9 11.5-.1.3-.2.4-.5.4-.2-.2-.3-.2-.3-.2M402 278.7q-.15 0-.3-.3l-1.5-3.7v-.2c0-.2.1-.4.3-.4h1.6c.9 0 1.6-.1 2-.2s.7-.3.8-.6.2-.7.2-1.2V256c0-.4.2-.5.5-.5h3.6c.4 0 .5.2.5.5v17.5c0 1.9-.6 3.3-1.8 4.1s-3.1 1.1-5.6 1.1c-.1.1-.2 0-.3 0m13.6-3.9c-.8-1.4-1.6-3.2-2.3-5.4s-1.4-4.3-1.9-6.4v-.2c0-.2.1-.4.4-.5l3.2-.9h.2c.2 0 .3.1.4.4.5 1.8 1.1 3.7 1.8 5.6s1.5 3.6 2.4 5c.1.1.1.2.1.3 0 .2-.1.3-.3.4l-3.3 1.8c-.1.1-.2.1-.3.1-.1.1-.1 0-.4-.2M441.5 277.3h-12.6c-.4 0-.5-.2-.5-.5v-27c0-.4.2-.5.5-.5h2.7c.7-1.6 1.3-3.1 1.6-4.5.1-.3.2-.4.5-.4h.1l3.7.4c.4.1.5.3.4.6q-.75 2.25-1.5 3.9h5.1c.4 0 .5.2.5.5v4.3c.9-1.3 1.7-2.7 2.3-4.3.7-1.6 1.2-3.3 1.6-5 .1-.3.2-.4.5-.4h.2l3.5.4c.2 0 .3.1.4.2s.1.2.1.4c-.2 1-.6 2.1-1 3.3h10.2c.3 0 .5.2.5.5v7.6c0 5.4-.1 9.4-.3 11.9s-.7 4.4-1.4 5.9-1.8 2.5-3.2 3.2-3.4 1-5.8 1h-.8c-.3-.1-.4-.2-.5-.4l-1.4-3.8v-.2c0-.2.2-.3.5-.3 2 .1 3.5-.1 4.6-.4s1.9-.9 2.4-1.8c.5-.8.8-2 .9-3.5q.3-3.9.3-9c0-1.8 0-3.9-.1-6h-7.7c-.8 1.8-1.8 3.3-2.8 4.5-.1.2-.2.2-.4.2-.1 0-.2 0-.3-.1l-2.3-1.3V277c0 .1-.1.3-.5.3m-8.7-23.8v7.3h4.9v-7.3zm0 11.7v7.7h4.9v-7.7zm11.7-4.8c-.1-.2-.2-.3-.2-.4 0-.2.1-.3.3-.4l3.1-1.5c.1-.1.2-.1.3-.1.2 0 .3.1.4.2.9 1.1 1.7 2.4 2.4 3.7.7 1.4 1.4 2.8 1.9 4.1v.2c0 .2-.1.4-.3.5l-3.2 1.7-.3.1c-.2 0-.3-.1-.4-.3-1-3-2.3-5.6-4-7.8M484.9 250.5h-3.5v1.4c0 .4-.2.5-.5.5h-3.6c-.4 0-.5-.2-.5-.5v-1.4h-6.9c-.4 0-.5-.2-.5-.5v-3c0-.4.2-.5.5-.5h6.9v-1.6c0-.4.2-.5.5-.5h3.5c.4 0 .5.2.5.5v1.6h3.5c.4 0 .5.2.5.5v3c.1.3-.2.5-.4.5m-13.3 8.3h.2c1 .3 2.1.7 3.2 1.2s2.1 1 3 1.6c.2.1.3.2.3.4l-.1.3-1.6 2.8c-.1.2-.3.3-.4.3s-.2 0-.3-.1c-1.8-1.2-3.8-2.2-5.9-2.8-.3-.1-.4-.2-.4-.4l.1-.3 1.5-2.7c0-.2.2-.3.4-.3m2.8 7.8c.1-.4.4-.4.7-.3l3.1 1.6c.3.2.4.4.3.7-1.3 3.8-2.8 7-4.4 9.5-.1.2-.2.3-.4.3l-.3-.1-3.3-1.8c-.2-.1-.3-.3-.3-.4s0-.2.1-.3c1.5-2.3 3-5.3 4.5-9.2m-1.4-14.4h.2c2.1.6 4.1 1.6 6 2.8.2.2.2.3.2.4s0 .2-.1.3l-1.7 2.7c-.1.2-.2.3-.4.3-.1 0-.2 0-.3-.1-1.7-1.2-3.6-2.2-5.8-3-.3-.1-.4-.2-.4-.4 0-.1 0-.2.1-.3l1.6-2.5c.4-.1.5-.2.6-.2m5.4 12.7c0-.3.2-.4.5-.4 2.5-.2 5.1-.7 7.8-1.7-1.1-.8-2-1.6-2.8-2.4-.7.6-1.5 1.2-2.4 1.7-.1.1-.2.1-.3.1-.2 0-.3-.1-.4-.2l-2-2.5c-.1-.1-.2-.2-.2-.3 0-.2.1-.3.3-.4q2.25-1.2 3.9-3c1.1-1.1 2-2.3 2.5-3.4.1-.2.3-.3.5-.3h.2l3.6.4c.2 0 .3.1.4.2s.1.3 0 .4l-.5.8h10.1c.4 0 .5.2.5.5v2.7c0 .2-.1.4-.2.6-1.2 1.9-2.8 3.5-4.6 5 2.4.8 5 1.4 7.9 1.7.3.1.5.2.5.4 0 .1 0 .1-.1.2l-1.3 3.2c-.1.3-.3.4-.6.4-.6-.1-1.1-.2-1.6-.3v9.5c0 .4-.2.5-.5.5h-17.4c-.4 0-.5-.2-.5-.5v-9.4c-.5.1-.9.2-1.4.2h-.1c-.2 0-.3 0-.3-.1-.1-.1-.1-.1-.2-.3l-1.3-3.1zm12.5.5c-2 1-4.4 1.9-7.2 2.6H498c-2.5-.7-4.9-1.6-7.1-2.6m4.6 6H486v3.5h9.5zm-4.6-10.7c1.6-1 2.8-2 3.8-3.3h-7.9c1.1 1.4 2.4 2.4 4.1 3.3m-3.5-14.2h3.5v-1.6c0-.4.2-.5.5-.5h3.5c.4 0 .5.2.5.5v1.6h6.9c.4 0 .5.2.5.5v3c0 .4-.2.5-.5.5h-6.9v1.3c0 .4-.2.5-.5.5h-3.5c-.4 0-.5-.2-.5-.5v-1.3h-3.5c-.4 0-.5-.2-.5-.5v-3c0-.4 0-.5.5-.5M510 277.6v-.2q.6-1.2.9-3c.3-1.2.4-2.3.5-3.4.1-.4.3-.5.6-.5l2.6.4c.4.1.5.2.5.6-.1 1.2-.2 2.4-.5 3.6-.2 1.2-.5 2.4-.9 3.3-.1.3-.2.4-.5.4-.1 0-.3-.1-.4-.1l-2.7-.7s-.1-.2-.1-.4m1.2-11.8h6.5v-1.7h-5.5c-.4 0-.5-.2-.5-.5v-2.5c0-.4.2-.5.5-.5h5.5v-1.7h-6c-.4 0-.5-.2-.5-.5v-12.7c0-.4.2-.5.5-.5h15.7c.4 0 .5.2.5.5v12.7c0 .4-.2.5-.5.5h-5.9v1.7h5.5c.4 0 .5.2.5.5v2.5c0 .4-.2.5-.5.5h-5.5v1.7h6.2c.4 0 .5.2.5.5v2.5c0 .4-.2.5-.5.5h-16.5c-.4 0-.5-.2-.5-.5v-2.5c-.1-.3.2-.5.5-.5m6.8-17.2h-3.3v6.9h3.3zm-3.2 1.9c0-.2.1-.3.4-.4l1-.3h.3c.2 0 .3.1.4.4.4 1 .7 2.2.9 3.5v.1c0 .3-.1.5-.4.5l-1.1.3c-.1.1-.2.1-.2.1-.2 0-.4-.2-.4-.5-.1-1.1-.4-2.3-.8-3.5-.1 0-.1-.1-.1-.2m1.7 27.7c-.1-.1-.1-.2-.1-.4.1-.5.1-1.1.1-2 0-1.4-.1-2.7-.2-4 0-.3.2-.5.5-.6l2.1-.2h.1c.3 0 .5.2.5.5.3 1.8.5 3.8.5 6 0 .3-.2.5-.5.6l-2.6.3h-.1c-.2 0-.3-.1-.3-.2m4.7-1c-.2-2.3-.4-4.1-.8-5.4v-.2c0-.2.1-.3.4-.4l1.9-.4h.2c.3 0 .4.1.5.4.3.9.5 1.9.8 3 .2 1.2.4 1.9.4 2.3v.1c0 .3-.1.4-.4.5l-2.3.6h-.2c-.2-.1-.4-.2-.5-.5m3.3-28.6h-3.3v6.9h3.3zm-2.4 1.6c0-.4.2-.5.6-.4l1.2.3c.3.1.5.3.4.6-.2 1.4-.5 2.6-1 3.7-.1.2-.1.3-.3.3-.1.1-.3.1-.4 0l-1-.4c-.3-.1-.4-.3-.3-.7.5-.9.7-2 .8-3.4m3.7 25.8c-.3-1.8-.7-3.4-1.2-4.6 0-.1-.1-.2-.1-.3 0-.2.1-.3.4-.4l1.7-.5h.3c.2 0 .3.1.4.3q1.05 2.25 1.5 4.5v.2c0 .1 0 .2-.1.2-.1.1-.2.1-.3.2l-2 .8h-.2c-.2 0-.4-.1-.4-.4m3.5 1.7v-16.2c0-.4.2-.5.5-.5h4v-16.2c0-.4.2-.5.5-.5h3.5c.4 0 .5.2.5.5v5.7h6.2c.4 0 .5.2.5.5v3.5c0 .4-.2.5-.5.5h-6.2v5.9h5.1c.4 0 .5.2.5.5v16.2c0 .4-.2.5-.5.5h-13.7c-.2.1-.4 0-.4-.4m10.5-12.4h-6v8.7h6z" class="st1"/></svg>