<svg xmlns="http://www.w3.org/2000/svg" xml:space="preserve" width="689" height="279.5" style="overflow:visible"><style>.st1{fill:#fff}.st2{fill:none;stroke:#595757;stroke-width:6;stroke-linecap:round;stroke-miterlimit:10}.st3{fill:#595757}</style><path d="M686 105.5C686 48.9 640.1 3 583.4 3 531.2 3 488 42.1 481.7 92.7c-.9 7.3-7.1 12.8-14.5 12.8" style="fill:none;stroke:#df032e;stroke-width:6;stroke-linecap:round;stroke-miterlimit:10"/><path d="m569.5 228.9 13.9-24.3 14 24.3z" class="st1"/><path d="M348.5 105.5c-8.9 0-14.7-4.5-16.3-11-4.9-19.8-22.8-34.4-44.1-34.4h0" class="st2"/><circle cx="288.1" cy="105.5" r="31.6" class="st3"/><path d="M108.8 105.5c-8.9 0-14.7-4.5-16.3-11-4.9-19.8-22.8-34.4-44.1-34.4h0M48.4 60.1C23.3 60.1 3 80.4 3 105.5" class="st2"/><circle cx="48.4" cy="105.5" r="31.6" class="st3"/><path d="M408.9 60.1h0c-21.3 0-39.2 14.7-44.1 34.4-1.6 6.5-7.4 11-16.3 11M288.1 60.1h0c-21.3 0-39.2 14.7-44.1 34.4-1.6 6.5-7.4 11-16.3 11M227.7 105.5c-8.9 0-14.7-4.5-16.3-11-4.9-19.8-22.8-34.4-44.1-34.4h0" class="st2"/><circle cx="167.3" cy="105.5" r="31.6" class="st3"/><path d="M167.3 60.1h0c-21.3 0-39.2 14.7-44.1 34.4-1.6 6.5-7.4 11-16.3 11" class="st2"/><circle cx="583.4" cy="105.5" r="85.4" style="fill:#df032e"/><path d="M467.2 105.5h0c-6.7 0-12.6-4.5-14.2-11-4.9-19.8-22.8-34.4-44.1-34.4" class="st2"/><circle cx="408.9" cy="105.5" r="31.6" class="st3"/><path d="M507.4 279v-18c-.8 1.1-1.5 2-2.2 2.6-.1.1-.2.2-.3.2-.2 0-.3-.1-.3-.4l-1.4-4.6v-.5l.2-.2c1.5-1.5 2.9-3.3 4.1-5.5s2.3-4.6 3.1-7.2c.1-.3.2-.4.4-.4h.3l4 .7c.3 0 .4.2.5.4v.2c-.8 2.8-1.9 5.4-3.3 7.9V279c0 .4-.2.5-.5.5h-3.8c-.6 0-.8-.1-.8-.5m9.2-3.6-3.5-1.7c-.2-.1-.3-.3-.3-.4s0-.2.1-.3c2-3.2 3.4-6.8 4-10.7.1-.3.2-.4.3-.5h.3l3.5.8c.2 0 .3.1.4.3v.3q-.45 3-1.5 6.3c-.7 2.1-1.5 4.1-2.5 5.8q-.15.3-.3.3c-.2-.1-.4-.1-.5-.2m18-14-3.5-1.3q-.3-.15-.3-.3v-.3c.9-2.2 1.4-4.2 1.5-6.1h-10.6c-.5 1.4-1.1 2.7-1.7 3.9-.6 1.1-1.4 2.3-2.4 3.5-.1.2-.3.3-.4.3s-.2-.1-.3-.2l-3.1-3c-.1-.1-.2-.3-.2-.4s.1-.2.2-.3c1.6-1.9 2.7-3.8 3.5-5.6s1.2-3.8 1.5-6c0-.2.1-.4.3-.5h.2l4 .4c.3.1.4.2.5.4v.3c-.2.9-.4 1.8-.6 2.8h13.6c.4 0 .5.2.5.7-.1 4.3-.7 8.1-1.9 11.5-.1.3-.2.4-.5.4-.1-.2-.2-.2-.3-.2m-14.4 17.9q-.15 0-.3-.3l-1.5-3.7v-.2c0-.2.1-.4.3-.4h1.6c.9 0 1.6-.1 2-.2s.7-.3.8-.6.2-.7.2-1.2v-16.1c0-.4.2-.5.5-.5h3.6c.4 0 .5.2.5.5v17.5c0 1.9-.6 3.3-1.8 4.1s-3.1 1.1-5.6 1.1q0 .15-.3 0m13.7-3.9c-.8-1.4-1.6-3.2-2.3-5.4s-1.4-4.3-1.9-6.4v-.2c0-.2.1-.4.4-.5l3.2-.9h.2c.2 0 .3.1.4.4.5 1.8 1.1 3.7 1.8 5.6s1.5 3.6 2.4 5c.1.1.1.2.1.3 0 .2-.1.3-.3.4l-3.3 1.8c-.1.1-.2.1-.3.1-.1.1-.3 0-.4-.2M559.8 277.9h-12.6c-.4 0-.5-.2-.5-.5v-27c0-.4.2-.5.5-.5h2.7c.7-1.6 1.3-3.1 1.6-4.5.1-.3.2-.4.5-.4h.1l3.7.4c.4.1.5.3.4.6q-.75 2.25-1.5 3.9h5.1c.4 0 .5.2.5.5v4.3c.9-1.3 1.7-2.7 2.3-4.3.7-1.6 1.2-3.3 1.6-5 .1-.3.2-.4.5-.4h.2l3.5.4c.2 0 .3.1.4.2s.1.2.1.4c-.2 1-.6 2.1-1 3.3h10.2c.3 0 .5.2.5.5v7.6c0 5.4-.1 9.4-.3 11.9s-.7 4.4-1.4 5.9-1.8 2.5-3.2 3.2-3.4 1-5.8 1h-.8c-.3-.1-.4-.2-.5-.4l-1.4-3.8v-.2c0-.2.2-.3.5-.3 2 .1 3.5-.1 4.6-.4q1.65-.45 2.4-1.8c.5-.8.8-2 .9-3.5q.3-3.9.3-9c0-1.8 0-3.9-.1-6h-7.7c-.8 1.8-1.8 3.3-2.8 4.5-.1.2-.2.2-.4.2-.1 0-.2 0-.3-.1l-2.3-1.3v20.3c0 .1-.2.3-.5.3m-8.8-23.8v7.3h4.9v-7.3zm0 11.7v7.7h4.9v-7.7zm11.8-4.8c-.1-.2-.2-.3-.2-.4 0-.2.1-.3.3-.4l3.1-1.5c.1-.1.2-.1.3-.1.2 0 .3.1.4.2.9 1.1 1.7 2.4 2.4 3.7s1.4 2.8 1.9 4.1v.2c0 .2-.1.4-.3.5l-3.3 1.6-.3.1c-.2 0-.3-.1-.4-.3-.9-2.9-2.2-5.5-3.9-7.7M603 251.1h-3.5v1.4c0 .4-.2.5-.5.5h-3.5c-.4 0-.5-.2-.5-.5v-1.4h-6.9c-.4 0-.5-.2-.5-.5v-3c0-.4.2-.5.5-.5h6.9v-1.6c0-.4.2-.5.5-.5h3.5c.4 0 .5.2.5.5v1.6h3.5c.4 0 .5.2.5.5v3c.1.3-.1.5-.5.5m-13.2 8.3h.2c1 .3 2.1.7 3.2 1.2s2.1 1 3 1.6c.2.1.3.2.3.4l-.1.3-1.6 2.8c-.1.2-.3.3-.4.3s-.2 0-.3-.1c-1.8-1.2-3.8-2.2-5.9-2.8-.3-.1-.4-.2-.4-.4l.1-.3 1.5-2.7c.1-.2.2-.3.4-.3m2.8 7.8c.1-.4.4-.4.7-.3l3.1 1.6c.3.2.4.4.3.7-1.3 3.8-2.8 7-4.4 9.5-.1.2-.2.3-.4.3l-.3-.1-3.3-1.8c-.2-.1-.3-.3-.3-.4s0-.2.1-.3c1.6-2.3 3.1-5.3 4.5-9.2m-1.3-14.4h.2c2.1.6 4.1 1.6 6 2.8.2.2.2.3.2.4s0 .2-.1.3l-1.7 2.7c-.1.2-.2.3-.4.3-.1 0-.2 0-.3-.1-1.7-1.2-3.6-2.2-5.8-3-.3-.1-.4-.2-.4-.4 0-.1 0-.2.1-.3l1.6-2.5c.2-.1.4-.2.6-.2m5.2 12.7c0-.3.2-.4.5-.4 2.5-.2 5.1-.7 7.8-1.7-1.1-.8-2-1.6-2.8-2.4-.7.6-1.5 1.2-2.4 1.7-.1.1-.2.1-.3.1-.2 0-.3-.1-.4-.2l-2-2.5c-.1-.1-.2-.2-.2-.3 0-.2.1-.3.3-.4q2.25-1.2 3.9-3c1.1-1.1 2-2.3 2.5-3.4.1-.2.3-.3.5-.3h.2l3.6.4c.2 0 .3.1.4.2s.1.3 0 .4l-.5.8h10.1c.4 0 .5.2.5.5v2.7c0 .2-.1.4-.2.6-1.2 1.9-2.8 3.5-4.6 5 2.4.8 5 1.4 7.9 1.7.3.1.5.2.5.4 0 .1 0 .1-.1.2l-1.3 3.2c-.1.3-.3.4-.6.4-.6-.1-1.1-.2-1.6-.3v9.5c0 .4-.2.5-.5.5h-17.4c-.4 0-.5-.2-.5-.5V269c-.5.1-.9.2-1.4.2h-.1c-.2 0-.3 0-.3-.1s-.1-.1-.2-.3l-1.3-3.1zm12.6.5c-2 1-4.4 1.9-7.2 2.6h14.3c-2.5-.7-4.9-1.6-7.1-2.6m4.7 6h-9.5v3.5h9.5zm-4.7-10.7c1.6-1 2.8-2 3.8-3.3H605c1.1 1.4 2.4 2.4 4.1 3.3m-3.6-14.2h3.5v-1.6c0-.4.2-.5.5-.5h3.5c.4 0 .5.2.5.5v1.6h6.9c.4 0 .5.2.5.5v3c0 .4-.2.5-.5.5h-6.9v1.3c0 .4-.2.5-.5.5h-3.5c-.4 0-.5-.2-.5-.5v-1.3h-3.5c-.4 0-.5-.2-.5-.5v-3c0-.4.2-.5.5-.5M628.3 278.2v-.2q.6-1.2.9-3c.3-1.2.4-2.3.5-3.4.1-.4.3-.5.6-.5l2.6.4c.4.1.5.2.5.6-.1 1.2-.2 2.4-.5 3.6s-.5 2.4-.9 3.3c-.1.3-.2.4-.5.4-.1 0-.3-.1-.4-.1l-2.7-.7s-.1-.2-.1-.4m1.1-11.8h6.5v-1.7h-5.5c-.4 0-.5-.2-.5-.5v-2.5c0-.4.2-.5.5-.5h5.5v-1.7h-6c-.4 0-.5-.2-.5-.5v-12.7c0-.4.2-.5.5-.5h15.7c.4 0 .5.2.5.5V259c0 .4-.2.5-.5.5h-5.9v1.7h5.5c.4 0 .5.2.5.5v2.5c0 .4-.2.5-.5.5h-5.5v1.7h6.2c.4 0 .5.2.5.5v2.5c0 .4-.2.5-.5.5h-16.4c-.4 0-.5-.2-.5-.5v-2.5c-.1-.3.1-.5.4-.5m6.8-17.2h-3.3v6.9h3.3zm-3.2 1.9c0-.2.1-.3.4-.4l1-.3h.3c.2 0 .3.1.4.4.4 1 .7 2.2.9 3.5v.1c0 .3-.1.5-.4.5l-1.1.3c-.1.1-.2.1-.2.1-.2 0-.4-.2-.4-.5-.1-1.1-.4-2.3-.8-3.5-.1 0-.1-.1-.1-.2m1.7 27.7c-.1-.1-.1-.2-.1-.4.1-.5.1-1.1.1-2 0-1.4-.1-2.7-.2-4 0-.3.2-.5.5-.6l2.1-.2h.1c.3 0 .5.2.5.5.3 1.8.5 3.8.5 6 0 .3-.2.5-.5.6l-2.6.3h-.1c-.1 0-.3-.1-.3-.2m4.8-1c-.2-2.3-.4-4.1-.8-5.4v-.2c0-.2.1-.3.4-.4l1.9-.4h.2c.3 0 .4.1.5.4.3.9.5 1.9.8 3 .2 1.2.4 1.9.4 2.3v.1c0 .3-.1.4-.4.5l-2.3.6h-.2c-.3-.1-.5-.2-.5-.5m3.3-28.6h-3.3v6.9h3.3zm-2.4 1.6c0-.4.2-.5.6-.4l1.2.3c.3.1.5.3.4.6-.2 1.4-.5 2.6-1 3.7-.1.2-.1.3-.3.3-.1.1-.3.1-.4 0l-1-.4c-.3-.1-.4-.3-.3-.7.4-.9.6-2 .8-3.4m3.5 25.8c-.3-1.8-.7-3.4-1.2-4.6 0-.1-.1-.2-.1-.3 0-.2.1-.3.4-.4l1.7-.5h.3c.2 0 .3.1.4.3q1.05 2.25 1.5 4.5v.2c0 .1 0 .2-.1.2-.1.1-.2.1-.3.2l-2 .8h-.2c-.2 0-.3-.1-.4-.4m3.7 1.7v-16.2c0-.4.2-.5.5-.5h4v-16.2c0-.4.2-.5.5-.5h3.5c.4 0 .5.2.5.5v5.7h6.2c.4 0 .5.2.5.5v3.5c0 .4-.2.5-.5.5h-6.2v5.9h5.1c.4 0 .5.2.5.5v16.2c0 .4-.2.5-.5.5H648c-.2.1-.4 0-.4-.4m10.3-12.4h-6v8.7h6z" class="st1"/><path d="M518.6 102.8V75.5l-5.9 2.2h-.3c-.3 0-.5-.2-.6-.5l-1.2-2.8c0-.2-.1-.3-.1-.5 0-.3.1-.5.3-.7l9.7-9.9c.3-.3.6-.4.9-.4h5.2c.2 0 .4.1.6.2.1.2.2.4.2.6v38.9c0 .3-.1.5-.2.6-.1.2-.3.2-.6.2h-7.3c-.4.3-.7 0-.7-.6M536.1 103.4c-.1-.2-.1-.4 0-.7l10.4-29.9h-13.6c-.2 0-.4-.1-.6-.2-.1-.1-.2-.3-.2-.6v-8c0-.3.1-.5.2-.6.1-.2.3-.2.6-.2h23.9c.2 0 .4.1.6.2.1.2.2.4.2.6v2.7c0 .3 0 .7-.1 1l-12 35.3c-.1.2-.2.4-.3.5-.2.1-.3.2-.5.2h-8q-.45 0-.6-.3M553.3 113c-.1-.2-.1-.4 0-.7l2.5-8.6c-.8-.5-1.5-1.1-2-2s-.7-1.9-.7-3c0-1.6.5-2.9 1.4-4 .9-1 2.1-1.6 3.5-1.6s2.6.5 3.5 1.5 1.4 2.4 1.4 4c0 1.2-.2 2.4-.5 3.6s-1 3-2 5.6l-1.8 4.7c-.1.4-.4.7-.8.7H554c-.4.1-.6 0-.7-.2M571 101.9c-2.1-1.7-3.7-4.1-4.8-7.3s-1.7-6.9-1.7-11.3.6-8.2 1.7-11.3c1.1-3.2 2.7-5.6 4.8-7.3s4.6-2.5 7.5-2.5 5.4.8 7.5 2.5 3.7 4.1 4.8 7.3 1.7 6.9 1.7 11.3-.6 8.2-1.7 11.3c-1.1 3.2-2.7 5.6-4.8 7.3s-4.6 2.5-7.5 2.5c-2.9.1-5.4-.8-7.5-2.5m3.7-10.1c.9 1.8 2.2 2.7 3.8 2.7s2.9-.9 3.8-2.7 1.4-4.6 1.4-8.5-.5-6.7-1.4-8.5-2.2-2.7-3.8-2.7-2.9.9-3.8 2.7-1.4 4.6-1.4 8.5.5 6.7 1.4 8.5M602.3 101.9c-2.1-1.7-3.7-4.1-4.8-7.3s-1.7-6.9-1.7-11.3.6-8.2 1.7-11.3c1.1-3.2 2.7-5.6 4.8-7.3s4.6-2.5 7.5-2.5 5.4.8 7.5 2.5 3.7 4.1 4.8 7.3 1.7 6.9 1.7 11.3-.6 8.2-1.7 11.3c-1.1 3.2-2.7 5.6-4.8 7.3s-4.6 2.5-7.5 2.5c-2.9.1-5.4-.8-7.5-2.5m3.7-10.1c.9 1.8 2.2 2.7 3.8 2.7s2.9-.9 3.8-2.7 1.4-4.6 1.4-8.5-.5-6.7-1.4-8.5-2.2-2.7-3.8-2.7-2.9.9-3.8 2.7-1.4 4.6-1.4 8.5.5 6.7 1.4 8.5M633.6 101.9c-2.1-1.7-3.7-4.1-4.8-7.3s-1.7-6.9-1.7-11.3.6-8.2 1.7-11.3c1.1-3.2 2.7-5.6 4.8-7.3s4.6-2.5 7.5-2.5 5.4.8 7.5 2.5 3.7 4.1 4.8 7.3 1.7 6.9 1.7 11.3-.6 8.2-1.7 11.3c-1.1 3.2-2.7 5.6-4.8 7.3s-4.6 2.5-7.5 2.5c-2.9.1-5.4-.8-7.5-2.5m3.7-10.1c.9 1.8 2.2 2.7 3.8 2.7s2.9-.9 3.8-2.7 1.4-4.6 1.4-8.5-.5-6.7-1.4-8.5-2.2-2.7-3.8-2.7-2.9.9-3.8 2.7-1.4 4.6-1.4 8.5.5 6.7 1.4 8.5M562.3 153.4v-.3c.5-1 .8-2.1 1.1-3.5s.5-2.7.6-4c.1-.4.3-.6.7-.5l3.1.5c.4.1.6.3.6.7-.1 1.4-.3 2.8-.5 4.3-.3 1.5-.6 2.8-1 4-.1.3-.3.5-.5.5s-.3-.1-.5-.1l-3.2-.9c-.3-.3-.4-.5-.4-.7m1.3-14.1h7.7v-2h-6.5q-.6 0-.6-.6v-2.9q0-.6.6-.6h6.5v-2h-7.1q-.6 0-.6-.6v-15.1q0-.6.6-.6h18.6q.6 0 .6.6v15.1q0 .6-.6.6h-7v2h6.5q.6 0 .6.6v2.9q0 .6-.6.6h-6.5v2h7.4q.6 0 .6.6v3q0 .6-.6.6h-19.5q-.6 0-.6-.6v-3c-.1-.4.1-.6.5-.6m8.1-20.4h-4v8.3h4zm-3.8 2.3c0-.2.2-.4.5-.5l1.2-.4h.3c.2 0 .3.2.5.5.5 1.2.8 2.6 1.1 4.2v.1c0 .3-.2.5-.5.6l-1.3.4c-.1.1-.2.1-.3.1-.3 0-.4-.2-.5-.5-.1-1.4-.5-2.7-1-4.1zm1.9 32.9c-.1-.1-.1-.3-.1-.5.1-.5.1-1.4.1-2.4 0-1.7-.1-3.2-.2-4.8 0-.4.2-.6.6-.7l2.5-.2h.1c.4 0 .6.2.6.5.4 2.2.6 4.5.6 7.1 0 .4-.2.6-.6.7l-3.1.4h-.1c-.1.1-.3 0-.4-.1m5.8-1.2c-.2-2.7-.5-4.8-.9-6.5v-.3c0-.2.2-.4.5-.5l2.3-.5h.2c.3 0 .5.2.6.5q.45 1.5.9 3.6c.3 1.4.4 2.3.4 2.7v.1c0 .3-.2.5-.5.6l-2.8.7h-.2c-.3.1-.4-.1-.5-.4m3.9-34h-4v8.3h4zm-2.8 1.9c0-.4.3-.6.7-.5l1.4.4c.4.1.6.3.5.7-.2 1.7-.6 3.1-1.2 4.4-.1.2-.2.3-.3.4-.2.1-.3.1-.5 0l-1.2-.5c-.4-.1-.5-.4-.4-.8.5-1.1.8-2.5 1-4.1m4.2 30.7c-.3-2.2-.8-4-1.4-5.5 0-.1-.1-.2-.1-.3 0-.2.2-.4.5-.5l2-.6h.3c.2 0 .4.1.5.4.8 1.7 1.4 3.5 1.8 5.3v.3c0 .1 0 .2-.1.3s-.2.1-.4.2l-2.3.9h-.3c-.3 0-.5-.2-.5-.5m4.3 2v-19.2q0-.6.6-.6h4.8v-19.2q0-.6.6-.6h4.2q.6 0 .6.6v6.8h7.4q.6 0 .6.6v4.2q0 .6-.6.6H596v7h6.1q.6 0 .6.6v19.2q0 .6-.6.6h-16.3q-.6 0-.6-.6m12.3-14.8h-7.1V149h7.1z"/></svg>