<!-- Generator: Adobe Illustrator 25.0.0, SVG Export Plug-In  -->
<svg version="1.1" xmlns="http://www.w3.org/2000/svg" xmlns:xlink="http://www.w3.org/1999/xlink" x="0px" y="0px" width="687.4px"
	 height="279.5px" viewBox="0 0 687.4 279.5" style="overflow:visible;enable-background:new 0 0 687.4 279.5;"
	 xml:space="preserve">
<style type="text/css">
	.st0{fill:none;stroke:#595757;stroke-width:6;stroke-linecap:round;stroke-miterlimit:10;}
	.st1{fill:#595757;}
	.st2{fill:#FFFFFF;}
	.st3{fill:none;stroke:#D7A685;stroke-width:6;stroke-linecap:round;stroke-linejoin:round;stroke-miterlimit:10;}
	.st4{fill:none;stroke:#DF032E;stroke-width:6;stroke-linecap:round;stroke-miterlimit:10;}
	.st5{fill:#DF032E;}
	.st6{fill:#D7A685;}
</style>
<defs>
</defs>
<path class="st0" d="M578.6,105.5c8.9,0,14.7-4.5,16.3-11c4.9-19.8,22.8-34.4,44.1-34.4"/>
<path class="st0" d="M639,60.1c25.1,0,45.4,20.3,45.4,45.4"/>
<path class="st1" d="M670.6,105.5c0,17.4-14.1,31.6-31.6,31.6s-31.6-14.1-31.6-31.6c0-17.4,14.1-31.6,31.6-31.6
	S670.6,88.1,670.6,105.5"/>
<path class="st0" d="M48.4,60.1C23.3,60.1,3,80.4,3,105.5"/>
<polygon class="st2" points="209,228.9 223,204.6 237,228.9 "/>
<path class="st0" d="M457.8,105.5c8.9,0,14.7-4.5,16.3-11c4.9-19.8,22.8-34.4,44.1-34.4s39.2,14.7,44.1,34.4c1.6,6.5,7.4,11,16.3,11
	"/>
<path class="st3" d="M397.5,60.1c21.3,0,39.2,14.7,44.1,34.4c1.6,6.5,7.4,11,16.3,11"/>
<path class="st3" d="M339.3,105.5L339.3,105.5c6.7,0,12.6-4.5,14.2-11c4.9-19.8,22.8-34.4,44.1-34.4"/>
<path class="st4" d="M223,3c52.3,0,95.4,39.1,101.7,89.7c0.9,7.3,7.1,12.8,14.5,12.8"/>
<path class="st4" d="M223,3c-52.3,0-95.4,39.1-101.7,89.7c-0.9,7.3-7.1,12.8-14.5,12.8"/>
<path class="st5" d="M308.4,105.5c0,47.2-38.3,85.4-85.4,85.4s-85.4-38.3-85.4-85.4c0-47.2,38.3-85.4,85.4-85.4
	S308.4,58.3,308.4,105.5"/>
<path class="st6" d="M429.1,105.5c0,17.4-14.1,31.6-31.6,31.6c-17.4,0-31.6-14.1-31.6-31.6c0-17.4,14.1-31.6,31.6-31.6
	C415,74,429.1,88.1,429.1,105.5"/>
<path class="st0" d="M106.7,105.5L106.7,105.5c-6.7,0-12.6-4.5-14.2-11c-4.9-19.8-22.8-34.4-44.1-34.4"/>
<path class="st1" d="M16.9,105.5c0,17.4,14.1,31.6,31.6,31.6S80,123,80,105.5C80,88.1,65.9,74,48.4,74S16.9,88.1,16.9,105.5"/>
<path class="st1" d="M549.8,105.5c0,17.4-14.1,31.6-31.6,31.6s-31.6-14.1-31.6-31.6c0-17.4,14.1-31.6,31.6-31.6
	S549.8,88.1,549.8,105.5"/>
<g>
	<path class="st2" d="M146.9,279v-18c-0.8,1.1-1.5,2-2.2,2.6c-0.1,0.1-0.2,0.2-0.3,0.2c-0.2,0-0.3-0.1-0.3-0.4l-1.4-4.6l0-0.2
		c0-0.2,0-0.3,0-0.3l0.2-0.2c1.5-1.5,2.9-3.3,4.1-5.5c1.2-2.2,2.3-4.6,3.1-7.2c0.1-0.3,0.2-0.4,0.4-0.4c0.1,0,0.2,0,0.3,0l4,0.7
		c0.3,0,0.4,0.2,0.5,0.4c0,0.1,0,0.2,0,0.2c-0.8,2.8-1.9,5.4-3.3,7.9V279c0,0.4-0.2,0.5-0.5,0.5h-3.8
		C147.1,279.5,146.9,279.3,146.9,279z M156.2,275.4l-3.5-1.7c-0.2-0.1-0.3-0.3-0.3-0.4c0-0.1,0-0.2,0.1-0.3c2-3.2,3.4-6.8,4-10.7
		c0.1-0.3,0.2-0.4,0.3-0.5c0.1,0,0.2,0,0.3,0l3.5,0.8c0.2,0,0.3,0.1,0.4,0.3v0.3c-0.3,2-0.8,4.1-1.5,6.3c-0.7,2.1-1.5,4.1-2.5,5.8
		c-0.1,0.2-0.2,0.3-0.3,0.3C156.4,275.5,156.3,275.5,156.2,275.4z M174.2,261.4l-3.5-1.3c-0.2-0.1-0.3-0.2-0.3-0.3
		c0-0.2,0-0.3,0-0.3c0.9-2.2,1.4-4.2,1.5-6.1h-10.6c-0.5,1.4-1.1,2.7-1.7,3.9c-0.6,1.1-1.4,2.3-2.4,3.5c-0.1,0.2-0.3,0.3-0.4,0.3
		c-0.1,0-0.2-0.1-0.3-0.2l-3.1-3c-0.1-0.1-0.2-0.3-0.2-0.4s0.1-0.2,0.2-0.3c1.6-1.9,2.7-3.8,3.5-5.6c0.7-1.8,1.2-3.8,1.5-6
		c0-0.2,0.1-0.4,0.3-0.5h0.2l4,0.4c0.3,0.1,0.4,0.2,0.5,0.4v0.3c-0.2,0.9-0.4,1.8-0.6,2.8h13.6c0.4,0,0.5,0.2,0.5,0.7
		c-0.1,4.3-0.7,8.1-1.9,11.5c-0.1,0.3-0.2,0.4-0.5,0.4C174.3,261.4,174.2,261.4,174.2,261.4z M159.8,279.3c-0.1,0-0.2-0.1-0.3-0.3
		l-1.5-3.7c0,0,0-0.1,0-0.2c0-0.2,0.1-0.4,0.3-0.4h0.2c0.4,0,0.8,0,1.4,0c0.9,0,1.6-0.1,2-0.2c0.4-0.1,0.7-0.3,0.8-0.6
		s0.2-0.7,0.2-1.2v-16.1c0-0.4,0.2-0.5,0.5-0.5h3.6c0.4,0,0.5,0.2,0.5,0.5v17.5c0,1.9-0.6,3.3-1.8,4.1c-1.2,0.8-3.1,1.1-5.6,1.1
		C160,279.4,159.9,279.3,159.8,279.3z M173.4,275.4c-0.8-1.4-1.6-3.2-2.3-5.4c-0.7-2.2-1.4-4.3-1.9-6.4l0-0.2c0-0.2,0.1-0.4,0.4-0.5
		l3.2-0.9c0.1,0,0.1,0,0.2,0c0.2,0,0.3,0.1,0.4,0.4c0.5,1.8,1.1,3.7,1.8,5.6s1.5,3.6,2.4,5c0.1,0.1,0.1,0.2,0.1,0.3
		c0,0.2-0.1,0.3-0.3,0.4l-3.3,1.8c-0.1,0.1-0.2,0.1-0.3,0.1C173.7,275.7,173.6,275.6,173.4,275.4z"/>
	<path class="st2" d="M199.3,277.9h-12.6c-0.4,0-0.5-0.2-0.5-0.5v-27c0-0.4,0.2-0.5,0.5-0.5h2.7c0.7-1.6,1.3-3.1,1.6-4.5
		c0.1-0.3,0.2-0.4,0.5-0.4h0.1l3.7,0.4c0.4,0.1,0.5,0.3,0.4,0.6c-0.5,1.5-1,2.8-1.5,3.9h5.1c0.4,0,0.5,0.2,0.5,0.5v4.3
		c0.9-1.3,1.7-2.7,2.3-4.3c0.7-1.6,1.2-3.3,1.6-5c0.1-0.3,0.2-0.4,0.5-0.4h0.2l3.5,0.4c0.2,0,0.3,0.1,0.4,0.2
		c0.1,0.1,0.1,0.2,0.1,0.4c-0.2,1-0.6,2.1-1,3.3h10.2c0.3,0,0.5,0.2,0.5,0.5c0,0.3,0,2.8,0,7.6c0,5.4-0.1,9.4-0.3,11.9
		c-0.2,2.5-0.7,4.4-1.4,5.9c-0.7,1.5-1.8,2.5-3.2,3.2s-3.4,1-5.8,1c-0.3,0-0.5,0-0.8,0c-0.3-0.1-0.4-0.2-0.5-0.4l-1.4-3.8
		c0-0.1,0-0.1,0-0.2c0-0.2,0.2-0.3,0.5-0.3c2,0.1,3.5-0.1,4.6-0.4c1.1-0.3,1.9-0.9,2.4-1.8c0.5-0.8,0.8-2,0.9-3.5
		c0.2-2.6,0.3-5.6,0.3-9c0-1.8,0-3.9-0.1-6h-7.7c-0.8,1.8-1.8,3.3-2.8,4.5c-0.1,0.2-0.2,0.2-0.4,0.2c-0.1,0-0.2,0-0.3-0.1l-2.3-1.3
		v20.3C199.8,277.7,199.7,277.9,199.3,277.9z M190.5,254.1v7.3h4.9v-7.3H190.5z M190.5,265.8v7.7h4.9v-7.7H190.5z M202.3,261
		c-0.1-0.2-0.2-0.3-0.2-0.4c0-0.2,0.1-0.3,0.3-0.4l3.1-1.5c0.1-0.1,0.2-0.1,0.3-0.1c0.2,0,0.3,0.1,0.4,0.2c0.9,1.1,1.7,2.4,2.4,3.7
		c0.7,1.4,1.4,2.8,1.9,4.1c0,0.1,0,0.1,0,0.2c0,0.2-0.1,0.4-0.3,0.5L207,269l-0.3,0.1c-0.2,0-0.3-0.1-0.4-0.3
		C205.3,265.8,204,263.2,202.3,261z"/>
	<path class="st2" d="M242.6,251.1h-3.5v1.4c0,0.4-0.2,0.5-0.5,0.5H235c-0.4,0-0.5-0.2-0.5-0.5v-1.4h-6.9c-0.4,0-0.5-0.2-0.5-0.5v-3
		c0-0.4,0.2-0.5,0.5-0.5h6.9v-1.6c0-0.4,0.2-0.5,0.5-0.5h3.5c0.4,0,0.5,0.2,0.5,0.5v1.6h3.5c0.4,0,0.5,0.2,0.5,0.5v3
		C243.1,250.9,242.9,251.1,242.6,251.1z M229.4,259.4l0.2,0c1,0.3,2.1,0.7,3.2,1.2c1.1,0.5,2.1,1,3,1.6c0.2,0.1,0.3,0.2,0.3,0.4
		l-0.1,0.3l-1.6,2.8c-0.1,0.2-0.3,0.3-0.4,0.3c-0.1,0-0.2,0-0.3-0.1c-1.8-1.2-3.8-2.2-5.9-2.8c-0.3-0.1-0.4-0.2-0.4-0.4l0.1-0.3
		l1.5-2.7C229,259.5,229.2,259.4,229.4,259.4z M232.2,267.2c0.1-0.4,0.4-0.4,0.7-0.3l3.1,1.6c0.3,0.2,0.4,0.4,0.3,0.7
		c-1.3,3.8-2.8,7-4.4,9.5c-0.1,0.2-0.2,0.3-0.4,0.3l-0.3-0.1l-3.3-1.8c-0.2-0.1-0.3-0.3-0.3-0.4c0-0.1,0-0.2,0.1-0.3
		C229.2,274.1,230.7,271.1,232.2,267.2z M230.8,252.8c0.1,0,0.2,0,0.2,0c2.1,0.6,4.1,1.6,6,2.8c0.2,0.2,0.2,0.3,0.2,0.4
		c0,0.1,0,0.2-0.1,0.3l-1.7,2.7c-0.1,0.2-0.2,0.3-0.4,0.3c-0.1,0-0.2,0-0.3-0.1c-1.7-1.2-3.6-2.2-5.8-3c-0.3-0.1-0.4-0.2-0.4-0.4
		c0-0.1,0-0.2,0.1-0.3l1.6-2.5C230.5,252.9,230.6,252.8,230.8,252.8z M236.1,265.5c0-0.3,0.2-0.4,0.5-0.4c2.5-0.2,5.1-0.7,7.8-1.7
		c-1.1-0.8-2-1.6-2.8-2.4c-0.7,0.6-1.5,1.2-2.4,1.7c-0.1,0.1-0.2,0.1-0.3,0.1c-0.2,0-0.3-0.1-0.4-0.2l-2-2.5
		c-0.1-0.1-0.2-0.2-0.2-0.3c0-0.2,0.1-0.3,0.3-0.4c1.5-0.8,2.8-1.8,3.9-3c1.1-1.1,2-2.3,2.5-3.4c0.1-0.2,0.3-0.3,0.5-0.3h0.2
		l3.6,0.4c0.2,0,0.3,0.1,0.4,0.2c0.1,0.1,0.1,0.3,0,0.4l-0.5,0.8h10.1c0.4,0,0.5,0.2,0.5,0.5v2.7c0,0.2-0.1,0.4-0.2,0.6
		c-1.2,1.9-2.8,3.5-4.6,5c2.4,0.8,5,1.4,7.9,1.7c0.3,0.1,0.5,0.2,0.5,0.4c0,0.1,0,0.1-0.1,0.2l-1.3,3.2c-0.1,0.3-0.3,0.4-0.6,0.4
		c-0.6-0.1-1.1-0.2-1.6-0.3v9.5c0,0.4-0.2,0.5-0.5,0.5h-17.4c-0.4,0-0.5-0.2-0.5-0.5V269c-0.5,0.1-0.9,0.2-1.4,0.2h-0.1
		c-0.2,0-0.3,0-0.3-0.1c-0.1-0.1-0.1-0.1-0.2-0.3l-1.3-3.1C236.1,265.6,236.1,265.6,236.1,265.5z M248.7,266c-2,1-4.4,1.9-7.2,2.6
		h14.3C253.3,267.9,250.9,267,248.7,266z M253.3,272h-9.5v3.5h9.5V272z M248.6,261.3c1.6-1,2.8-2,3.8-3.3h-7.9v0
		C245.6,259.4,247,260.4,248.6,261.3z M245.1,247.1h3.5v-1.6c0-0.4,0.2-0.5,0.5-0.5h3.5c0.4,0,0.5,0.2,0.5,0.5v1.6h6.9
		c0.4,0,0.5,0.2,0.5,0.5v3c0,0.4-0.2,0.5-0.5,0.5h-6.9v1.3c0,0.4-0.2,0.5-0.5,0.5h-3.5c-0.4,0-0.5-0.2-0.5-0.5v-1.3h-3.5
		c-0.4,0-0.5-0.2-0.5-0.5v-3C244.6,247.2,244.7,247.1,245.1,247.1z"/>
	<path class="st2" d="M267.8,278.2l0-0.2c0.4-0.8,0.7-1.8,0.9-3c0.3-1.2,0.4-2.3,0.5-3.4c0.1-0.4,0.3-0.5,0.6-0.5l2.6,0.4
		c0.4,0.1,0.5,0.2,0.5,0.6c-0.1,1.2-0.2,2.4-0.5,3.6c-0.2,1.2-0.5,2.4-0.9,3.3c-0.1,0.3-0.2,0.4-0.5,0.4c-0.1,0-0.3-0.1-0.4-0.1
		l-2.7-0.7C267.9,278.6,267.8,278.4,267.8,278.2z M269,266.4h6.5v-1.7h-5.5c-0.4,0-0.5-0.2-0.5-0.5v-2.5c0-0.4,0.2-0.5,0.5-0.5h5.5
		v-1.7h-6c-0.4,0-0.5-0.2-0.5-0.5v-12.7c0-0.4,0.2-0.5,0.5-0.5h15.7c0.4,0,0.5,0.2,0.5,0.5V259c0,0.4-0.2,0.5-0.5,0.5h-5.9v1.7h5.5
		c0.4,0,0.5,0.2,0.5,0.5v2.5c0,0.4-0.2,0.5-0.5,0.5h-5.5v1.7h6.2c0.4,0,0.5,0.2,0.5,0.5v2.5c0,0.4-0.2,0.5-0.5,0.5H269
		c-0.4,0-0.5-0.2-0.5-0.5v-2.5C268.4,266.6,268.6,266.4,269,266.4z M275.7,249.2h-3.3v6.9h3.3V249.2z M272.5,251.1
		c0-0.2,0.1-0.3,0.4-0.4l1-0.3l0.2,0h0.1c0.2,0,0.3,0.1,0.4,0.4c0.4,1,0.7,2.2,0.9,3.5l0,0.1c0,0.3-0.1,0.5-0.4,0.5l-1.1,0.3
		c-0.1,0.1-0.2,0.1-0.2,0.1c-0.2,0-0.4-0.2-0.4-0.5c-0.1-1.1-0.4-2.3-0.8-3.5C272.6,251.3,272.6,251.2,272.5,251.1z M274.2,278.8
		c-0.1-0.1-0.1-0.2-0.1-0.4c0.1-0.5,0.1-1.1,0.1-2c0-1.4-0.1-2.7-0.2-4c0-0.3,0.2-0.5,0.5-0.6l2.1-0.2h0.1c0.3,0,0.5,0.2,0.5,0.5
		c0.3,1.8,0.5,3.8,0.5,6c0,0.3-0.2,0.5-0.5,0.6l-2.6,0.3h-0.1C274.4,279,274.3,278.9,274.2,278.8z M279,277.8
		c-0.2-2.3-0.4-4.1-0.8-5.4l0-0.2c0-0.2,0.1-0.3,0.4-0.4l1.9-0.4h0.2c0.3,0,0.4,0.1,0.5,0.4c0.3,0.9,0.5,1.9,0.8,3
		c0.2,1.2,0.4,1.9,0.4,2.3v0.1c0,0.3-0.1,0.4-0.4,0.5l-2.3,0.6h-0.2C279.2,278.2,279.1,278.1,279,277.8z M282.3,249.2H279v6.9h3.3
		V249.2z M279.9,250.8c0-0.4,0.2-0.5,0.6-0.4l1.2,0.3c0.3,0.1,0.5,0.3,0.4,0.6c-0.2,1.4-0.5,2.6-1,3.7c-0.1,0.2-0.1,0.3-0.3,0.3
		c-0.1,0.1-0.3,0.1-0.4,0l-1-0.4c-0.3-0.1-0.4-0.3-0.3-0.7C279.5,253.3,279.8,252.2,279.9,250.8z M283.5,276.6
		c-0.3-1.8-0.7-3.4-1.2-4.6c0-0.1-0.1-0.2-0.1-0.3c0-0.2,0.1-0.3,0.4-0.4l1.7-0.5l0.2,0h0.1c0.2,0,0.3,0.1,0.4,0.3
		c0.7,1.5,1.2,3,1.5,4.5l0,0.2c0,0.1,0,0.2-0.1,0.2c-0.1,0.1-0.2,0.1-0.3,0.2l-2,0.8c-0.1,0-0.1,0-0.2,0
		C283.7,277,283.5,276.9,283.5,276.6z M287.1,278.3v-16.2c0-0.4,0.2-0.5,0.5-0.5h4v-16.2c0-0.4,0.2-0.5,0.5-0.5h3.5
		c0.4,0,0.5,0.2,0.5,0.5v5.7h6.2c0.4,0,0.5,0.2,0.5,0.5v3.5c0,0.4-0.2,0.5-0.5,0.5h-6.2v5.9h5.1c0.4,0,0.5,0.2,0.5,0.5v16.2
		c0,0.4-0.2,0.5-0.5,0.5h-13.7C287.3,278.8,287.1,278.7,287.1,278.3z M297.5,265.9h-6v8.7h6V265.9z"/>
</g>
<g>
	<path d="M170.7,102.8v-2.6c0-0.4,0.1-0.7,0.4-1l10.4-11.6c2.7-3.1,4.6-5.4,5.6-7.1c1-1.7,1.5-3.2,1.5-4.8c0-1.2-0.4-2.1-1.2-2.8
		c-0.8-0.7-1.8-1-3.1-1c-2.5,0-4.3,1.4-5.4,4.4c-0.2,0.5-0.6,0.7-1.1,0.6l-7.4-2c-0.4-0.1-0.6-0.3-0.6-0.7c0-0.2,0-0.3,0-0.3
		c1-3.6,2.9-6.4,5.5-8.5c2.7-2.1,5.9-3.1,9.6-3.1c2.8,0,5.2,0.5,7.3,1.5c2.1,1,3.8,2.5,4.9,4.4c1.2,1.9,1.8,4,1.8,6.5
		c0,2-0.3,3.8-1,5.5c-0.6,1.7-1.7,3.6-3.3,5.6c-1.6,2-3.7,4.3-6.6,6.9l-1.5,1.4h12.5c0.3,0,0.5,0.1,0.6,0.2s0.2,0.4,0.2,0.6v8
		c0,0.6-0.3,0.9-0.9,0.9h-27.7C170.9,103.7,170.7,103.4,170.7,102.8z"/>
	<path d="M212.6,101.9c-2.5-1.7-4.4-4.1-5.7-7.3c-1.3-3.2-2-7-2-11.4s0.7-8.2,2-11.4c1.3-3.2,3.2-5.6,5.7-7.3
		c2.5-1.7,5.4-2.5,8.8-2.5c3.4,0,6.4,0.8,8.9,2.5c2.5,1.7,4.4,4.1,5.7,7.3c1.3,3.2,1.9,7,1.9,11.4s-0.6,8.2-1.9,11.4
		c-1.3,3.2-3.2,5.6-5.7,7.3c-2.5,1.7-5.4,2.5-8.9,2.5C218,104.5,215,103.6,212.6,101.9z M216.9,91.8c1.1,1.8,2.6,2.7,4.5,2.7
		c1.9,0,3.4-0.9,4.5-2.7c1.1-1.8,1.6-4.6,1.6-8.5c0-3.9-0.5-6.7-1.6-8.5c-1.1-1.8-2.6-2.7-4.5-2.7c-1.9,0-3.4,0.9-4.5,2.7
		c-1.1,1.8-1.6,4.6-1.6,8.5C215.3,87.2,215.8,90,216.9,91.8z"/>
	<path d="M250.4,101.9c-2.5-1.7-4.4-4.1-5.7-7.3c-1.3-3.2-2-7-2-11.4s0.7-8.2,2-11.4c1.3-3.2,3.2-5.6,5.7-7.3
		c2.5-1.7,5.4-2.5,8.8-2.5c3.4,0,6.4,0.8,8.9,2.5c2.5,1.7,4.4,4.1,5.7,7.3c1.3,3.2,1.9,7,1.9,11.4s-0.6,8.2-1.9,11.4
		c-1.3,3.2-3.2,5.6-5.7,7.3c-2.5,1.7-5.4,2.5-8.9,2.5C255.8,104.5,252.9,103.6,250.4,101.9z M254.7,91.8c1.1,1.8,2.6,2.7,4.5,2.7
		c1.9,0,3.4-0.9,4.5-2.7c1.1-1.8,1.6-4.6,1.6-8.5c0-3.9-0.5-6.7-1.6-8.5c-1.1-1.8-2.6-2.7-4.5-2.7c-1.9,0-3.4,0.9-4.5,2.7
		c-1.1,1.8-1.6,4.6-1.6,8.5C253.1,87.2,253.7,90,254.7,91.8z"/>
</g>
<g>
	<path d="M201.8,153.4l0-0.3c0.5-1,0.8-2.1,1.1-3.5c0.3-1.4,0.5-2.7,0.6-4c0.1-0.4,0.3-0.6,0.7-0.5l3.1,0.5c0.4,0.1,0.6,0.3,0.6,0.7
		c-0.1,1.4-0.3,2.8-0.5,4.3c-0.3,1.5-0.6,2.8-1,4c-0.1,0.3-0.3,0.5-0.5,0.5c-0.2,0-0.3-0.1-0.5-0.1l-3.2-0.9
		C202,153.8,201.8,153.6,201.8,153.4z M203.2,139.3h7.7v-2h-6.5c-0.4,0-0.6-0.2-0.6-0.6v-2.9c0-0.4,0.2-0.6,0.6-0.6h6.5v-2h-7.1
		c-0.4,0-0.6-0.2-0.6-0.6v-15.1c0-0.4,0.2-0.6,0.6-0.6h18.6c0.4,0,0.6,0.2,0.6,0.6v15.1c0,0.4-0.2,0.6-0.6,0.6h-7v2h6.5
		c0.4,0,0.6,0.2,0.6,0.6v2.9c0,0.4-0.2,0.6-0.6,0.6h-6.5v2h7.4c0.4,0,0.6,0.2,0.6,0.6v3c0,0.4-0.2,0.6-0.6,0.6h-19.5
		c-0.4,0-0.6-0.2-0.6-0.6v-3C202.5,139.5,202.8,139.3,203.2,139.3z M211.2,118.9h-4v8.3h4V118.9z M207.4,121.2
		c0-0.2,0.1-0.4,0.5-0.5l1.2-0.4l0.2,0h0.1c0.2,0,0.3,0.2,0.5,0.5c0.5,1.2,0.8,2.6,1.1,4.2l0,0.1c0,0.3-0.2,0.5-0.5,0.6l-1.3,0.4
		c-0.1,0.1-0.2,0.1-0.3,0.1c-0.3,0-0.4-0.2-0.5-0.5c-0.1-1.4-0.5-2.7-1-4.1C207.5,121.4,207.4,121.3,207.4,121.2z M209.4,154.1
		c-0.1-0.1-0.1-0.3-0.1-0.5c0.1-0.5,0.1-1.4,0.1-2.4c0-1.7-0.1-3.2-0.2-4.8c0-0.4,0.2-0.6,0.6-0.7l2.5-0.2h0.1
		c0.4,0,0.6,0.2,0.6,0.5c0.4,2.2,0.6,4.5,0.6,7.1c0,0.4-0.2,0.6-0.6,0.7l-3.1,0.4h-0.1C209.6,154.3,209.5,154.2,209.4,154.1z
		 M215.1,152.9c-0.2-2.7-0.5-4.8-0.9-6.5l0-0.3c0-0.2,0.2-0.4,0.5-0.5l2.3-0.5h0.2c0.3,0,0.5,0.2,0.6,0.5c0.3,1,0.6,2.2,0.9,3.6
		c0.3,1.4,0.4,2.3,0.4,2.7v0.1c0,0.3-0.2,0.5-0.5,0.6l-2.8,0.7h-0.2C215.4,153.4,215.2,153.2,215.1,152.9z M219,118.9h-4v8.3h4
		V118.9z M216.2,120.8c0-0.4,0.3-0.6,0.7-0.5l1.4,0.4c0.4,0.1,0.6,0.3,0.5,0.7c-0.2,1.7-0.6,3.1-1.2,4.4c-0.1,0.2-0.2,0.3-0.3,0.4
		c-0.2,0.1-0.3,0.1-0.5,0l-1.2-0.5c-0.4-0.1-0.5-0.4-0.4-0.8C215.7,123.8,216,122.4,216.2,120.8z M220.4,151.5
		c-0.3-2.2-0.8-4-1.4-5.5c0-0.1-0.1-0.2-0.1-0.3c0-0.2,0.2-0.4,0.5-0.5l2-0.6l0.2,0h0.1c0.2,0,0.4,0.1,0.5,0.4
		c0.8,1.7,1.4,3.5,1.8,5.3l0,0.3c0,0.1,0,0.2-0.1,0.3c-0.1,0.1-0.2,0.1-0.4,0.2l-2.3,0.9c-0.1,0-0.2,0-0.3,0
		C220.6,152,220.5,151.8,220.4,151.5z M224.7,153.5v-19.2c0-0.4,0.2-0.6,0.6-0.6h4.8v-19.2c0-0.4,0.2-0.6,0.6-0.6h4.2
		c0.4,0,0.6,0.2,0.6,0.6v6.8h7.4c0.4,0,0.6,0.2,0.6,0.6v4.2c0,0.4-0.2,0.6-0.6,0.6h-7.4v7h6.1c0.4,0,0.6,0.2,0.6,0.6v19.2
		c0,0.4-0.2,0.6-0.6,0.6h-16.3C225,154.1,224.7,153.9,224.7,153.5z M237.1,138.7h-7.1V149h7.1V138.7z"/>
</g>
<g>
	<path class="st6" d="M345.3,204.1c-0.9,0.7-1.6,1.7-2.1,3c-0.1,0.2-0.2,0.3-0.3,0.4c-0.1,0.1-0.2,0.1-0.4,0l-4.3-1.2
		c-0.4-0.1-0.5-0.3-0.4-0.7c0.8-2.6,2.1-4.6,4-6.1c1.9-1.5,4.2-2.2,6.9-2.2c2,0,3.8,0.4,5.4,1.1c1.6,0.7,2.9,1.8,3.8,3
		c0.9,1.3,1.4,2.7,1.4,4.4c0,1.5-0.4,2.9-1.3,4.2c-0.9,1.2-2.1,2.2-3.6,2.9c1.8,0.6,3.2,1.6,4.2,2.9c1,1.3,1.5,2.9,1.5,4.8
		c0,1.8-0.5,3.5-1.4,4.9c-1,1.4-2.3,2.5-4,3.3c-1.7,0.8-3.7,1.2-5.9,1.2c-2.8,0-5.2-0.7-7.1-2.2c-2-1.5-3.3-3.5-4.1-6.1v-0.2
		c0-0.3,0.1-0.4,0.4-0.5l4.5-1.2c0.2,0,0.4,0.1,0.5,0.4c0.4,1.3,1.1,2.3,2.1,3c0.9,0.7,2.2,1.1,3.6,1.1c1.6,0,2.9-0.4,3.9-1.2
		s1.5-1.9,1.5-3.3c0-1.3-0.5-2.4-1.6-3.1c-1-0.7-2.4-1.1-4.2-1.1h-1.3c-0.4,0-0.6-0.2-0.6-0.6v-3.8c0-0.4,0.2-0.6,0.6-0.6h1.3
		c1.5,0,2.6-0.3,3.6-1s1.4-1.6,1.4-2.7c0-1.1-0.4-2.1-1.3-2.8c-0.9-0.8-2-1.1-3.4-1.1C347.3,203,346.2,203.4,345.3,204.1z"/>
	<path class="st6" d="M370.1,228c-1.8-1.3-3.2-3.2-4.2-5.6c-1-2.5-1.4-5.4-1.4-8.7c0-3.4,0.5-6.3,1.4-8.8c1-2.5,2.4-4.3,4.2-5.6
		c1.8-1.3,4-1.9,6.6-1.9s4.7,0.6,6.5,1.9c1.8,1.3,3.2,3.2,4.2,5.6c1,2.5,1.4,5.4,1.4,8.8c0,3.4-0.5,6.3-1.4,8.7
		c-1,2.5-2.4,4.3-4.2,5.6c-1.8,1.3-4,1.9-6.5,1.9S371.9,229.3,370.1,228z M372,221.7c1.1,1.8,2.6,2.7,4.6,2.7c2,0,3.5-0.9,4.6-2.7
		c1.1-1.8,1.6-4.4,1.6-8c0-3.6-0.5-6.2-1.6-8s-2.6-2.7-4.6-2.7c-2,0-3.5,0.9-4.6,2.7c-1.1,1.8-1.6,4.4-1.6,8
		C370.4,217.2,371,219.9,372,221.7z"/>
	<path class="st6" d="M398.8,228c-1.8-1.3-3.2-3.2-4.2-5.6c-1-2.5-1.4-5.4-1.4-8.7c0-3.4,0.5-6.3,1.4-8.8c1-2.5,2.4-4.3,4.2-5.6
		c1.8-1.3,4-1.9,6.6-1.9s4.7,0.6,6.5,1.9c1.8,1.3,3.2,3.2,4.2,5.6c1,2.5,1.4,5.4,1.4,8.8c0,3.4-0.5,6.3-1.4,8.7
		c-1,2.5-2.4,4.3-4.2,5.6c-1.8,1.3-4,1.9-6.5,1.9S400.6,229.3,398.8,228z M400.7,221.7c1.1,1.8,2.6,2.7,4.6,2.7c2,0,3.5-0.9,4.6-2.7
		c1.1-1.8,1.6-4.4,1.6-8c0-3.6-0.5-6.2-1.6-8s-2.6-2.7-4.6-2.7c-2,0-3.5,0.9-4.6,2.7c-1.1,1.8-1.6,4.4-1.6,8
		C399.1,217.2,399.7,219.9,400.7,221.7z"/>
	<path class="st6" d="M420.9,229.5l0-0.2c0.4-0.8,0.7-1.9,1-3.1s0.4-2.4,0.6-3.5c0.1-0.4,0.3-0.5,0.6-0.5l2.7,0.4
		c0.4,0.1,0.5,0.3,0.5,0.6c-0.1,1.2-0.2,2.5-0.5,3.8c-0.2,1.3-0.5,2.5-0.9,3.5c-0.1,0.3-0.2,0.4-0.5,0.4c-0.1,0-0.3-0.1-0.4-0.1
		l-2.8-0.8C421,229.9,420.9,229.7,420.9,229.5z M422.1,217.2h6.7v-1.7h-5.7c-0.4,0-0.6-0.2-0.6-0.6v-2.6c0-0.4,0.2-0.6,0.6-0.6h5.7
		V210h-6.2c-0.4,0-0.6-0.2-0.6-0.6v-13.2c0-0.4,0.2-0.6,0.6-0.6H439c0.4,0,0.6,0.2,0.6,0.6v13.2c0,0.4-0.2,0.6-0.6,0.6h-6.2v1.7h5.7
		c0.4,0,0.6,0.2,0.6,0.6v2.6c0,0.4-0.2,0.6-0.6,0.6h-5.7v1.7h6.5c0.4,0,0.6,0.2,0.6,0.6v2.7c0,0.4-0.2,0.6-0.6,0.6h-17.1
		c-0.4,0-0.6-0.2-0.6-0.6v-2.7C421.5,217.4,421.7,217.2,422.1,217.2z M429.1,199.3h-3.5v7.2h3.5V199.3z M425.8,201.3
		c0-0.2,0.1-0.4,0.4-0.4l1.1-0.4l0.2,0h0.1c0.2,0,0.3,0.1,0.4,0.4c0.4,1.1,0.7,2.3,1,3.7l0,0.1c0,0.3-0.1,0.5-0.4,0.6l-1.1,0.4
		c-0.1,0.1-0.2,0.1-0.2,0.1c-0.2,0-0.4-0.2-0.4-0.5c-0.1-1.2-0.4-2.4-0.9-3.6C425.9,201.5,425.8,201.4,425.8,201.3z M427.5,230.2
		c-0.1-0.1-0.1-0.2-0.1-0.4c0.1-0.5,0.1-1.2,0.1-2.1c0-1.5-0.1-2.8-0.2-4.2c0-0.3,0.2-0.5,0.5-0.6l2.2-0.2h0.1
		c0.3,0,0.5,0.2,0.6,0.5c0.3,1.9,0.5,4,0.5,6.3c0,0.3-0.2,0.5-0.5,0.6l-2.7,0.3h-0.1C427.8,230.3,427.6,230.3,427.5,230.2z
		 M432.6,229.1c-0.2-2.3-0.5-4.2-0.8-5.7l0-0.2c0-0.2,0.1-0.3,0.4-0.4l2-0.4h0.2c0.3,0,0.4,0.1,0.5,0.4c0.3,0.9,0.6,1.9,0.8,3.1
		c0.2,1.2,0.4,2,0.4,2.4v0.1c0,0.3-0.1,0.4-0.4,0.5l-2.4,0.6H433C432.8,229.5,432.6,229.4,432.6,229.1z M436,199.3h-3.5v7.2h3.5
		V199.3z M433.5,200.9c0-0.4,0.2-0.5,0.6-0.4l1.2,0.3c0.3,0.1,0.5,0.3,0.4,0.6c-0.2,1.5-0.5,2.7-1.1,3.9c-0.1,0.2-0.1,0.3-0.3,0.3
		s-0.3,0.1-0.4,0l-1-0.4c-0.3-0.1-0.4-0.3-0.3-0.7C433.1,203.6,433.4,202.4,433.5,200.9z M437.2,227.8c-0.3-1.9-0.7-3.5-1.2-4.8
		c0-0.1-0.1-0.2-0.1-0.3c0-0.2,0.1-0.4,0.4-0.4l1.8-0.5l0.2,0h0.1c0.2,0,0.3,0.1,0.4,0.4c0.7,1.5,1.2,3.1,1.5,4.7l0,0.2
		c0,0.1,0,0.2-0.1,0.3c-0.1,0.1-0.2,0.1-0.3,0.2l-2.1,0.8c-0.1,0-0.1,0-0.2,0C437.4,228.3,437.3,228.1,437.2,227.8z M441,229.6
		v-16.9c0-0.4,0.2-0.6,0.6-0.6h4.2v-16.9c0-0.4,0.2-0.6,0.6-0.6h3.7c0.4,0,0.6,0.2,0.6,0.6v5.9h6.5c0.4,0,0.6,0.2,0.6,0.6v3.6
		c0,0.4-0.2,0.6-0.6,0.6h-6.5v6.2h5.3c0.4,0,0.6,0.2,0.6,0.6v16.9c0,0.4-0.2,0.6-0.6,0.6h-14.3C441.2,230.2,441,230,441,229.6z
		 M451.8,216.6h-6.3v9.1h6.3V216.6z"/>
</g>
<g>
	<path class="st6" d="M342.4,182.1v-18.5l-4.6,1.8c-0.1,0-0.1,0-0.2,0.1c-0.1,0-0.3-0.1-0.4-0.3l-0.6-1.2c0-0.1-0.1-0.1-0.1-0.3
		c0-0.1,0.1-0.3,0.2-0.4l6.6-5.7c0.1-0.1,0.3-0.2,0.5-0.2h2.7c0.3,0,0.4,0.1,0.4,0.4v24.3c0,0.3-0.1,0.4-0.4,0.4h-3.7
		C342.5,182.5,342.4,182.4,342.4,182.1z"/>
	<path class="st6" d="M357.1,182.1v-18.5l-4.6,1.8c-0.1,0-0.1,0-0.2,0.1c-0.1,0-0.3-0.1-0.4-0.3l-0.6-1.2c0-0.1-0.1-0.1-0.1-0.3
		c0-0.1,0.1-0.3,0.2-0.4l6.6-5.7c0.1-0.1,0.3-0.2,0.5-0.2h2.7c0.3,0,0.4,0.1,0.4,0.4v24.3c0,0.3-0.1,0.4-0.4,0.4h-3.7
		C357.3,182.5,357.1,182.4,357.1,182.1z"/>
	<path class="st6" d="M367.3,174v-3.4c0-0.3,0.1-0.4,0.4-0.4H378c0.1,0,0.2,0,0.3,0.1c0.1,0.1,0.1,0.2,0.1,0.3v3.4
		c0,0.1,0,0.3-0.1,0.3c-0.1,0.1-0.2,0.1-0.3,0.1h-10.3C367.5,174.5,367.3,174.3,367.3,174z"/>
	<path class="st6" d="M385.9,181.2c-1.6-1.2-2.7-2.8-3.4-4.9c0,0,0-0.1,0-0.2c0-0.2,0.1-0.3,0.3-0.4l3.5-0.9c0.2,0,0.3,0.1,0.4,0.3
		c0.4,1.1,1,1.9,1.8,2.4c0.8,0.6,1.8,0.9,2.9,0.9c1.3,0,2.4-0.4,3.2-1.1c0.8-0.7,1.2-1.7,1.2-3c0-1.3-0.4-2.3-1.2-3.1
		c-0.8-0.8-1.9-1.1-3.2-1.1c-0.9,0-1.7,0.1-2.5,0.4c-0.8,0.3-1.6,0.8-2.5,1.5c-0.1,0.1-0.2,0.1-0.3,0.1c-0.1,0-0.2,0-0.3-0.1l-2-0.9
		c-0.3-0.1-0.4-0.3-0.3-0.6l1.2-12.8c0-0.3,0.2-0.4,0.4-0.4h13.8c0.1,0,0.2,0,0.3,0.1s0.1,0.2,0.1,0.3v3.5c0,0.1,0,0.2-0.1,0.3
		c-0.1,0.1-0.2,0.1-0.3,0.1h-10.7l-0.6,6.2c1.5-1.2,3.2-1.8,5.3-1.8c1.5,0,2.9,0.3,4.1,1c1.2,0.7,2.1,1.7,2.8,2.9
		c0.7,1.2,1,2.7,1,4.3c0,1.7-0.4,3.2-1.1,4.5c-0.8,1.3-1.8,2.3-3.2,3c-1.4,0.7-2.9,1.1-4.7,1.1C389.5,183,387.5,182.4,385.9,181.2z"
		/>
	<path class="st6" d="M408.3,181.5c-1.5-1-2.6-2.5-3.4-4.5c-0.8-2-1.2-4.3-1.2-7c0-2.7,0.4-5.1,1.2-7c0.8-2,1.9-3.5,3.4-4.5
		c1.5-1,3.2-1.6,5.2-1.6c2,0,3.8,0.5,5.2,1.6c1.5,1,2.6,2.5,3.4,4.5c0.8,2,1.2,4.3,1.2,7c0,2.7-0.4,5-1.2,7c-0.8,2-1.9,3.5-3.4,4.5
		c-1.5,1-3.2,1.6-5.2,1.6C411.5,183,409.7,182.5,408.3,181.5z M409.8,176.4c0.9,1.4,2.1,2.1,3.7,2.1c1.6,0,2.8-0.7,3.7-2.1
		c0.9-1.4,1.3-3.5,1.3-6.4s-0.4-5-1.3-6.4s-2.1-2.1-3.7-2.1c-1.6,0-2.8,0.7-3.7,2.1s-1.3,3.6-1.3,6.4
		C408.6,172.8,409,175,409.8,176.4z"/>
	<path class="st6" d="M429.1,166.3c-0.2,0-0.3-0.1-0.4-0.2l-2-3c-0.1-0.1-0.1-0.2-0.1-0.3c0-0.1,0.1-0.3,0.3-0.3
		c2.2-0.7,4.2-1.8,6.1-3.1c1.9-1.4,3.4-2.8,4.4-4.2c0.1-0.2,0.3-0.3,0.6-0.3l3.6,0.5c0.2,0.1,0.3,0.2,0.3,0.3c0,0.1,0,0.1-0.1,0.3
		l-1,1.3h11.1c0.3,0,0.4,0.1,0.4,0.4v2.8c0,0.2,0,0.4-0.1,0.5c-2.5,3.7-6.2,6.8-10.9,9.4h11.5c0.3,0,0.4,0.1,0.4,0.4v11.9
		c0,0.3-0.1,0.4-0.4,0.4h-20.3c-0.3,0-0.4-0.1-0.4-0.4v-8.6c-0.8,0.3-2,0.6-3.7,1.1h-0.2c-0.2,0-0.3-0.1-0.4-0.3l-1.5-3.2
		c0-0.1,0-0.2-0.1-0.2c0-0.2,0.1-0.3,0.3-0.3c3.8-0.7,7.2-1.6,10.3-2.9c-1.4-1.3-2.9-2.5-4.6-3.6c-0.9,0.5-2,1.1-3.2,1.6
		C429.3,166.3,429.2,166.3,429.1,166.3z M440.8,166.4c2.8-1.6,5-3.4,6.8-5.5h-10c-0.4,0.4-1,0.9-1.9,1.6
		C437.6,163.7,439.3,165,440.8,166.4z M449.3,173.9h-13.1v5.5h13.1V173.9z"/>
</g>
<g>
	<path class="st6" d="M365,41.8V20.3c0-0.3,0.1-0.4,0.4-0.4h3.5c0.2,0,0.4,0.1,0.5,0.3l9.9,15.2V20.3c0-0.3,0.1-0.4,0.4-0.4h3.2
		c0.3,0,0.4,0.1,0.4,0.4v21.5c0,0.3-0.1,0.4-0.4,0.4h-3.5c-0.2,0-0.4-0.1-0.5-0.3l-9.9-15.2v15.1c0,0.3-0.1,0.4-0.4,0.4h-3.2
		C365.2,42.2,365,42.1,365,41.8z"/>
	<path class="st6" d="M390.6,41.5c-1.2-0.7-2.1-1.7-2.8-2.9c-0.6-1.2-1-2.6-1-4.2c0-1.6,0.3-3,1-4.2c0.6-1.2,1.6-2.2,2.8-2.9
		c1.2-0.7,2.6-1,4.2-1c2.4,0,4.2,0.8,5.5,2.4c1.3,1.6,1.9,3.7,1.9,6.5c0,0.3-0.1,0.5-0.4,0.5H391c0.2,1.1,0.6,1.9,1.2,2.5
		c0.6,0.6,1.5,0.9,2.5,0.9c1.6,0,2.7-0.6,3.4-1.8c0.1-0.2,0.3-0.2,0.5-0.2l2.7,0.9c0.2,0.1,0.3,0.2,0.3,0.3c0,0.1,0,0.2-0.1,0.3
		c-0.7,1.3-1.6,2.3-2.8,3c-1.2,0.7-2.6,1-4.1,1C393.2,42.5,391.8,42.1,390.6,41.5z M396.9,30.4c-0.6-0.5-1.3-0.8-2.1-0.8
		c-0.9,0-1.7,0.3-2.4,0.8c-0.6,0.5-1.1,1.2-1.3,2.2h6.9C397.8,31.7,397.5,31,396.9,30.4z"/>
	<path class="st6" d="M403.2,41.9c0-0.1,0-0.1,0.1-0.2l5.3-7.6l-5-7.2c-0.1-0.1-0.1-0.2-0.1-0.2c0-0.2,0.1-0.3,0.3-0.3h3.6
		c0.2,0,0.4,0.1,0.5,0.3l3.2,4.6l3.2-4.6c0.1-0.2,0.3-0.3,0.5-0.3h3.4c0.2,0,0.3,0.1,0.3,0.2c0,0.1,0,0.2-0.1,0.3l-5,7.2l5.3,7.6
		c0.1,0.1,0.1,0.2,0.1,0.2c0,0.1,0,0.1-0.1,0.2c-0.1,0-0.1,0.1-0.2,0.1h-3.6c-0.2,0-0.4-0.1-0.5-0.3l-3.4-5.1l-3.5,5.1
		c-0.1,0.2-0.3,0.3-0.5,0.3h-3.4C403.3,42.2,403.2,42.1,403.2,41.9z"/>
	<path class="st6" d="M423.8,40.9c-0.9-1.1-1.3-2.7-1.3-4.8V30h-2.3c-0.1,0-0.2,0-0.3-0.1c-0.1-0.1-0.1-0.2-0.1-0.3v-2.7
		c0-0.3,0.1-0.4,0.4-0.4h2.3v-4.2c0-0.1,0-0.2,0.1-0.3c0.1-0.1,0.2-0.1,0.3-0.1h3.1c0.1,0,0.2,0,0.3,0.1c0.1,0.1,0.1,0.2,0.1,0.3
		v4.2h3.7c0.3,0,0.4,0.1,0.4,0.4v2.7c0,0.1,0,0.2-0.1,0.3s-0.2,0.1-0.3,0.1h-3.7v6.4c0,0.9,0.1,1.5,0.4,1.9c0.3,0.4,0.7,0.6,1.3,0.6
		c0.5,0,0.9-0.3,1.2-0.8c0.1-0.2,0.3-0.3,0.5-0.2l2.4,1.1c0.1,0.1,0.2,0.2,0.2,0.3c0,0.1,0,0.2-0.1,0.3c-1,1.9-2.6,2.8-4.6,2.8
		C426,42.5,424.7,42,423.8,40.9z"/>
</g>
</svg>
