<!-- Generator: Adobe Illustrator 25.0.0, SVG Export Plug-In  -->
<svg version="1.1" xmlns="http://www.w3.org/2000/svg" xmlns:xlink="http://www.w3.org/1999/xlink" x="0px" y="0px" width="273.6px"
	 height="41px" viewBox="0 0 273.6 41" style="overflow:visible;enable-background:new 0 0 273.6 41;" xml:space="preserve">
<style type="text/css">
	.st0{fill:#FFFFFF;}
</style>
<defs>
</defs>
<g>
	<path class="st0" d="M1.9,16.2l-1.8-4.3L0,11.6c0-0.2,0.1-0.4,0.3-0.5c1.5-1.1,2.9-2.6,4.3-4.5C6,4.7,7.1,2.8,7.9,0.8
		C8,0.4,8.3,0.3,8.6,0.3h4.5c0.3,0,0.6,0.1,0.8,0.4c1,2.1,2.1,4,3.3,5.6c1.1,1.6,2.4,3.1,3.8,4.2c0.1,0.1,0.2,0.3,0.3,0.4
		c0,0.1,0,0.2-0.1,0.4l-1.9,4.2c-0.1,0.2-0.3,0.4-0.4,0.4s-0.3-0.1-0.4-0.2c-0.8-0.8-1.5-1.6-2.1-2.5v2.1c0,0.4-0.2,0.6-0.6,0.6H6.2
		c-0.4,0-0.6-0.2-0.6-0.6v-1.9c-0.8,1-1.8,1.9-2.9,2.9c-0.2,0.1-0.3,0.2-0.4,0.2C2.2,16.6,2,16.4,1.9,16.2z M14.1,40.2
		c-1.3-1.5-3.1-3.1-5.3-4.9C6.6,33.5,5,32.4,4,31.9c-0.1-0.1-0.2-0.2-0.2-0.4c0-0.2,0-0.3,0.1-0.4l2.2-2.8c0.1-0.1,0.3-0.3,0.4-0.3
		c0.1,0,0.3,0,0.4,0.1c0.9,0.5,1.9,1.2,3.3,2.1c1-1.1,1.7-2.2,2.3-3.3c0.6-1.1,1-2.1,1.2-2.8H2.9c-0.3,0-0.4-0.2-0.4-0.6v-3.7
		c0-0.4,0.1-0.6,0.4-0.6h15.6c0.3,0,0.4,0.2,0.4,0.6v3.3c0,0.5,0,0.9-0.1,1.1c-0.4,1.3-0.9,2.8-1.7,4.4c-0.8,1.6-1.8,3.2-3.1,4.8
		c1.5,1.3,2.6,2.4,3.4,3.3c0.1,0.1,0.2,0.3,0.2,0.4c0,0.1,0,0.2-0.1,0.3L15,40.1c-0.1,0.1-0.3,0.2-0.4,0.2
		C14.4,40.4,14.2,40.3,14.1,40.2z M11,5.1c-0.9,2.1-2.2,4.3-3.8,6.5h7.7C13.2,9.2,11.9,7.1,11,5.1z M39.2,40.5
		c-1.4-0.4-2.8-1-4.1-1.7c-1.3-0.7-2.5-1.5-3.6-2.4c-0.2-0.2-0.3-0.3-0.3-0.5c0-0.1,0-0.3,0.1-0.4l1.9-2.8h-5.7l2,2.8
		c0.1,0.1,0.2,0.3,0.2,0.4c0,0.1,0,0.2-0.1,0.3c-1,0.9-2.2,1.8-3.6,2.5c-1.4,0.7-2.9,1.3-4.5,1.7c-0.1,0-0.1,0-0.2,0
		c-0.2,0-0.4-0.1-0.6-0.4l-1.9-3.5l-0.1-0.4c0-0.2,0.2-0.4,0.5-0.4c2.6-0.4,4.9-1.5,7.1-3.1h-3.8c-0.4,0-0.6-0.2-0.6-0.6V9.2
		c0-0.4,0.2-0.6,0.6-0.6h4.1c0.5-0.9,0.9-1.8,1.3-2.8h-6.9c-0.4,0-0.6-0.2-0.6-0.6V1.9c0-0.4,0.2-0.6,0.6-0.6h19.6
		c0.4,0,0.6,0.2,0.6,0.6v3.3c0,0.4-0.2,0.6-0.6,0.6h-7.2c-0.4,1.1-0.8,2.1-1.2,2.8h7.1c0.4,0,0.6,0.2,0.6,0.6v22.8
		c0,0.4-0.2,0.6-0.6,0.6h-4.6c1,0.7,2.1,1.3,3.3,1.9s2.4,0.9,3.5,1.2c0.2,0.1,0.4,0.2,0.4,0.4c0,0.2,0,0.3-0.1,0.4L40,40.1
		c-0.1,0.3-0.3,0.4-0.5,0.4C39.4,40.5,39.3,40.5,39.2,40.5z M34.7,15.4v-2.9h-8.1v2.9H34.7z M34.7,21.9v-2.7h-8.1v2.7H34.7z
		 M34.7,28.8v-2.9h-8.1v2.9H34.7z"/>
	<path class="st0" d="M93,29.6c1,1.1,2.1,2.1,3.3,3c1.2,0.9,2.3,1.6,3.2,2.1c0.2,0.1,0.4,0.3,0.4,0.5c0,0.1,0,0.2-0.1,0.4l-2.9,4.2
		c-0.1,0.2-0.3,0.3-0.4,0.3c-0.1,0-0.3,0-0.4-0.1c-0.8-0.5-1.8-1.3-3-2.3c-1.2-1-2.3-2.2-3.3-3.4c-1.1,1.2-2.2,2.4-3.5,3.3
		c-1.2,1-2.4,1.8-3.5,2.4c-0.1,0.1-0.2,0.1-0.4,0.1c-0.2,0-0.4-0.1-0.5-0.3l-2.7-4.1c-0.1-0.1-0.1-0.3-0.1-0.4
		c0-0.2,0.1-0.4,0.4-0.4c2.9-1.4,5.2-3.2,7-5.4c-1.6-2.7-2.8-5.8-3.6-9.1s-1.3-7-1.5-11.1h-0.8c-0.4,0-0.6-0.2-0.6-0.6V6.5h-1.2
		v33.7c0,0.4-0.2,0.6-0.6,0.6h-4.1c-0.4,0-0.6-0.2-0.6-0.6V34c-2,0.4-4.3,0.9-6.7,1.3C64.3,35.7,62,36,60,36.3h-0.1
		c-0.3,0-0.5-0.2-0.6-0.5l-0.8-4.3v-0.1c0-0.3,0.2-0.5,0.6-0.6l3-0.2v-24h-2.3c-0.4,0-0.6-0.2-0.6-0.6V1.9c0-0.4,0.2-0.6,0.6-0.6
		h21.2c0.4,0,0.6,0.2,0.6,0.6v2h15.9c0.4,0,0.6,0.2,0.6,0.6v4.3c-0.5,8.5-2.1,15.4-5,20.6L93,29.6z M67.4,6.5V11h6.1V6.5H67.4z
		 M67.4,15.7V20h6.1v-4.3H67.4z M73.4,28.9v-4.2h-6.1v5.1L73.4,28.9z M89.7,24.3c1.8-4.1,2.8-9,2.9-14.9h-5.8
		C86.9,15.4,87.9,20.4,89.7,24.3z"/>
	<path class="st0" d="M145.5,23.8c-3.3-1.4-6.1-2.9-8.4-4.6c-2,1.5-4.6,2.9-8,4.2c-3.3,1.3-6.7,2.2-10,2.7H119
		c-0.3,0-0.5-0.1-0.6-0.4l-1.7-3.6c0-0.1-0.1-0.2-0.1-0.3c0-0.3,0.2-0.4,0.5-0.5c3-0.3,5.9-0.8,8.7-1.5c2.8-0.7,5.1-1.5,6.9-2.5
		c0-0.1-0.1-0.3-0.3-0.7c-5.2,0.8-9.7,1.3-13.6,1.5h-0.1c-0.3,0-0.5-0.2-0.6-0.5l-0.5-2c-0.1-0.3-0.1-0.5-0.1-0.5
		c0-0.2,0.2-0.5,0.6-0.9c0.5-0.5,1.1-1.2,1.8-2c0.7-0.9,1.3-1.6,1.7-2.2c0.2-0.4,0.5-0.5,0.8-0.4l3.6,0.7c0.2,0,0.4,0.1,0.4,0.3
		c0.1,0.2,0,0.4-0.1,0.5c-1.1,1.4-2,2.4-2.7,2.9c3.7-0.4,6-0.6,7-0.8c-0.4-0.6-0.6-1-0.8-1.3c-0.1-0.1-0.1-0.3-0.1-0.4
		c0-0.2,0.1-0.4,0.4-0.4l2.7-0.8c0.1,0,0.1,0,0.3,0c0.2,0,0.4,0.1,0.5,0.3c1.7,1.8,2.9,3.5,3.7,5.1h0.5l-0.2-0.9
		c0-0.2,0.1-0.4,0.2-0.6c0.1-0.2,0.3-0.4,0.5-0.6c0.2-0.2,0.4-0.4,0.6-0.7c0.7-0.8,1.3-1.7,2-2.6l0.6-0.8c0.2-0.3,0.5-0.4,0.9-0.3
		l3.3,0.8c0.2,0.1,0.4,0.2,0.5,0.3c0.1,0.1,0.1,0.3-0.1,0.5c-0.3,0.4-0.7,0.9-1.1,1.4c-0.5,0.5-0.9,1-1.4,1.5
		c2.5-0.1,4.6-0.3,6.4-0.6l-0.9-1.2c-0.2-0.2-0.3-0.3-0.3-0.5c0-0.2,0.1-0.4,0.4-0.4l2.8-1l0.4-0.1c0.2,0,0.4,0.1,0.5,0.3
		c1.9,1.9,3.4,3.9,4.5,5.9c0,0.1,0.1,0.2,0.1,0.3c0,0.2-0.1,0.3-0.4,0.5l-3.1,1.5c-0.1,0-0.2,0.1-0.3,0.1c-0.2,0-0.3-0.1-0.5-0.4
		c-0.1-0.1-0.3-0.6-0.8-1.4c-2.6,0.4-5.9,0.7-9.9,0.8c1.8,1,4,1.8,6.6,2.4s5.3,1.2,8.2,1.5c0.4,0,0.5,0.2,0.5,0.5c0,0.1,0,0.2,0,0.3
		l-1.5,4.2c-0.1,0.4-0.4,0.5-0.8,0.4C152,26.1,148.7,25.2,145.5,23.8z M120.9,40.6l-1.8-3.4c-0.1-0.2-0.1-0.3-0.1-0.4
		c0-0.3,0.2-0.4,0.5-0.4c6.9,0,12.9-0.7,18.1-2c5.2-1.3,9.3-3.4,12.4-6.2c0.1-0.1,0.3-0.2,0.4-0.2s0.3,0.1,0.4,0.2l2.7,2.5
		c0.2,0.1,0.3,0.3,0.3,0.4c0,0.1,0,0.2-0.1,0.3c-3.7,3.2-8.2,5.6-13.6,7.1c-5.4,1.5-11.6,2.3-18.6,2.5C121.3,41,121,40.9,120.9,40.6
		z M122.7,34.4l-1.5-2.5c-0.1-0.1-0.1-0.3-0.1-0.4c0-0.2,0.2-0.4,0.5-0.4c4.9-0.2,9.3-0.9,13-1.9c3.8-1,6.8-2.4,9.1-4.3
		c0.1-0.1,0.3-0.2,0.4-0.2c0.2,0,0.3,0.1,0.4,0.2l2.3,1.9c0.2,0.1,0.3,0.3,0.3,0.4c0,0.1,0,0.3-0.2,0.4c-2.7,2-6.1,3.7-10.3,5
		c-4.2,1.3-8.6,2-13.3,2.3C123.1,34.8,122.9,34.6,122.7,34.4z M149.7,9.5c-0.2,0-0.4-0.1-0.6-0.3c-0.3-0.4-0.7-0.9-1.2-1.4
		c-2.5,0.3-6.4,0.6-11.5,0.8c-5.1,0.2-9.2,0.4-12.1,0.4h-1.5c-0.4,0-0.6-0.2-0.7-0.5l-0.4-2.4c0-0.1,0-0.2,0-0.4
		c0-0.3,0.2-0.5,0.5-0.7c0.6-0.3,1.3-0.7,2-1.2c2.1-1.4,3.7-2.5,4.7-3.5c0.2-0.2,0.5-0.3,0.7-0.3c0.1,0,0.3,0,0.4,0l4.6,0.8
		c0.3,0,0.5,0.2,0.5,0.5c0,0.1-0.1,0.3-0.3,0.4C133.3,2.9,131.7,4,130,5c4-0.1,8.6-0.3,13.9-0.7l-2.2-1.5c-0.2-0.1-0.3-0.3-0.3-0.4
		c0-0.2,0.1-0.3,0.4-0.4l3.3-1.1c0.1,0,0.2,0,0.4,0c0.2,0,0.4,0,0.5,0.1c1.2,0.6,2.6,1.5,4,2.7s2.8,2.3,3.9,3.5
		c0.1,0.1,0.2,0.3,0.2,0.4c0,0.2-0.1,0.3-0.4,0.4l-3.7,1.5C149.9,9.5,149.8,9.5,149.7,9.5z M124.8,29.4c-0.3,0-0.5-0.1-0.6-0.4
		l-1.4-2.2c-0.1-0.1-0.1-0.3-0.1-0.4c0-0.3,0.2-0.4,0.5-0.4c3-0.2,5.8-0.7,8.4-1.5c2.6-0.8,4.8-1.7,6.5-2.8c0.1-0.1,0.3-0.1,0.4-0.1
		c0.2,0,0.3,0.1,0.4,0.2l2,1.6c0.2,0.1,0.3,0.3,0.3,0.4c0,0.1-0.1,0.3-0.3,0.4c-4.3,2.8-9.6,4.6-16,5.3H124.8z"/>
	<path class="st0" d="M174.9,11.9V7.8c0-0.4,0.2-0.6,0.6-0.6h5l0-4.2l0-2.2c0-0.4,0.2-0.6,0.6-0.6h4.4c0.4,0,0.6,0.2,0.6,0.6l0,6.4
		h8.7c0.4,0,0.6,0.2,0.6,0.6v1.6l0.1,10.7c0,2.3,0,4.4-0.1,6.2c-0.1,4-0.5,6.9-1,8.9c-0.5,2-1.4,3.3-2.7,4c-1.2,0.7-3.1,1.1-5.6,1.1
		c-0.5,0-0.8-0.2-0.8-0.5l-1.5-4.6c0-0.1,0-0.1,0-0.3c0-0.3,0.2-0.4,0.6-0.4c1.6,0.1,2.8-0.1,3.5-0.5s1.3-1.2,1.6-2.5
		c0.3-1.2,0.5-3.2,0.6-5.9c0.1-1.7,0.1-4.4,0.1-7.9v-5.2h-4.2c-0.1,6-0.7,11.4-1.6,16.2c-0.9,4.8-2.5,8.7-4.6,11.8
		c-0.1,0.2-0.3,0.3-0.4,0.3c-0.1,0-0.3,0-0.4-0.1l-4.2-2.6c-0.2-0.1-0.3-0.3-0.3-0.4c0-0.1,0-0.3,0.1-0.4c2.1-2.9,3.6-6.4,4.5-10.5
		c0.8-4,1.3-8.8,1.4-14.2h-4.9C175.1,12.5,174.9,12.3,174.9,11.9z M198.7,4h15.2c0.4,0,0.6,0.2,0.6,0.6v34c0,0.4-0.2,0.6-0.6,0.6
		h-15.2c-0.4,0-0.6-0.2-0.6-0.6v-34C198,4.2,198.3,4,198.7,4z M203.6,9.3V34h5.4V9.3H203.6z"/>
	<path class="st0" d="M234.3,40.2l-1.6-3.9c0-0.1,0-0.1,0-0.3c0-0.3,0.2-0.4,0.5-0.4c8.1-0.3,13.2-1.8,15.2-4.3l-14.4,0.1
		c-0.4,0-0.6-0.2-0.6-0.6v-3.2c0-0.4,0.2-0.6,0.6-0.6h15.8c0.1-0.9,0.1-1.8,0.1-2.8c0-0.5,0.2-0.7,0.6-0.7l4.7,0
		c0.4,0,0.6,0.2,0.6,0.6c0,0.4,0,0.9-0.1,1.4c0,0.5-0.1,1-0.2,1.5h6.6c-0.6-0.9-1.3-1.7-2-2.4c-0.2-0.2-0.3-0.3-0.2-0.4
		c0-0.1,0.1-0.2,0.3-0.3c0.2-0.1,0.3-0.2,0.5-0.3l-0.8-1.8l-2.8,1.7c-0.1,0.1-0.2,0.1-0.4,0.1c-0.2,0-0.4-0.1-0.5-0.3
		c-1-1.3-2.3-2.4-3.8-3.4c-0.2-0.1-0.3-0.3-0.3-0.4s0.1-0.3,0.3-0.4l2.5-1.3h-4.4c-0.4,0-0.6-0.2-0.6-0.6v-2.4
		c0-0.4,0.2-0.6,0.6-0.6h0.5l-0.2-0.3l-1.4-2.3l-0.1-0.4c0-0.3,0.2-0.4,0.5-0.4c1.8-0.2,3.2-0.3,4.2-0.4c-0.5-0.6-0.9-1-1.2-1.2
		c-0.1-0.2-0.2-0.4-0.2-0.4c0-0.2,0.1-0.3,0.4-0.4l2.1-0.8c0.1,0,0.2-0.1,0.3-0.1c0.2,0,0.3,0.1,0.5,0.2c0.7,0.5,1.3,1.2,1.9,2
		c0.7-0.1,1.4-0.3,2-0.5c-0.4-0.5-1-1-1.7-1.6c-0.1-0.2-0.2-0.4-0.2-0.4c0-0.2,0.1-0.3,0.4-0.4l2.1-0.9c0.1,0,0.2,0,0.4,0
		c0.2,0,0.3,0.1,0.5,0.2c0.7,0.5,1.4,1.1,2.1,1.9c1.5-0.7,2.6-1.5,3.5-2.4h-8.3c-2,0.9-4.2,1.6-6.7,2.1h-0.2c-0.2,0-0.4-0.1-0.6-0.4
		l-1.5-2.5c-0.1-0.1-0.1-0.3-0.1-0.4c0-0.3,0.2-0.4,0.5-0.4c2.1-0.3,4-0.7,5.6-1.3c1.7-0.6,2.9-1.3,3.8-2.1c0.1-0.1,0.3-0.2,0.5-0.2
		h0.3l3.8,0.7c0.3,0.1,0.5,0.2,0.5,0.4c0,0.1-0.1,0.3-0.2,0.4L263.9,2h7.9c0.4,0,0.6,0.2,0.6,0.6v2c0,0.3,0,0.5-0.1,0.7
		c-1.5,2.1-4,4-7.4,5.5c-3.4,1.5-7.4,2.6-12,3.2h11.5v-1.9c0-0.4,0.2-0.6,0.6-0.6h4.1c0.4,0,0.6,0.2,0.6,0.6V14h2.9
		c0.4,0,0.6,0.2,0.6,0.6V17c0,0.4-0.2,0.6-0.6,0.6h-2.9v1.4c0,1.6-0.3,2.8-0.8,3.5s-1.5,1.3-3,1.6c0.5,0.6,1.1,1.5,1.7,2.6h4.6
		c0.4,0,0.6,0.2,0.6,0.6v3.2c0,0.4-0.2,0.6-0.6,0.6l-14.9-0.1c1.6,1.3,3.7,2.3,6.4,3s5.8,1.1,9.3,1.1c0.4,0,0.5,0.1,0.5,0.4
		c0,0.1,0,0.2,0,0.3l-1.6,4c-0.1,0.3-0.4,0.5-0.8,0.5c-8.6-0.5-14.6-2.8-18.1-6.9c-2.9,3.8-8.9,6.2-18,7H235
		C234.7,40.6,234.5,40.5,234.3,40.2z M237.2,25.1l-3.7-1.7c-0.2-0.1-0.4-0.2-0.4-0.4c0-0.1,0-0.2,0.1-0.3c0.1-0.1,0.1-0.1,0.1-0.2
		c1.4-1.3,2.2-3.2,2.5-5.6h-2c-0.4,0-0.6-0.2-0.6-0.6v-3.1c0-0.4,0.2-0.6,0.6-0.6h9.5v-2.3h-7.6c-0.4,0-0.6-0.2-0.6-0.6V1.5
		c0-0.4,0.2-0.6,0.6-0.6h3.8c0.4,0,0.6,0.2,0.6,0.6V6h3.3V0.7c0-0.4,0.2-0.6,0.6-0.6h4.2c0.4,0,0.6,0.2,0.6,0.6v23.6
		c0,0.4-0.2,0.6-0.6,0.6h-4.2c-0.4,0-0.6-0.2-0.6-0.6V17h-2.3c-0.3,3.4-1.3,6.1-3,8c-0.2,0.1-0.3,0.2-0.5,0.2
		C237.5,25.2,237.3,25.2,237.2,25.1z M260.6,20.6c1.5,0,2.6-0.2,3.1-0.5c0.5-0.3,0.7-0.9,0.7-1.7v-0.8h-8.3c1.4,0.7,2.7,1.7,3.9,3
		H260.6z"/>
</g>
</svg>
