<?xml version="1.0" encoding="utf-8"?>
<!-- Generator: Adobe Illustrator 25.0.0, SVG Export Plug-In . SVG Version: 6.00 Build 0)  -->
<svg version="1.1" id="圖層_1" xmlns="http://www.w3.org/2000/svg" xmlns:xlink="http://www.w3.org/1999/xlink" x="0px" y="0px"
	 viewBox="0 0 824.9 1018.9" style="enable-background:new 0 0 824.9 1018.9;" xml:space="preserve">
<style type="text/css">
	.st0{fill:#DF032E;}
</style>
<path d="M783.3,1018.9H41.6v-6.1c0-19.5-15.9-35.4-35.4-35.4H0V42.7h6.1c19.5,0,35.4-15.9,35.4-35.4c0-0.2,0-0.4,0-0.6L41.4,0h742.2
	l-0.2,6.7c0,0.2,0,0.4,0,0.6c0,19.5,15.9,35.4,35.4,35.4h6.1v934.6h-6.1c-19.5,0-35.4,15.9-35.4,35.4v6.2H783.3z"/>
<path class="st0" d="M774.9,1010.3h-725v-6c0-19.1-15.5-34.6-34.6-34.6h-6V50.3h6c19.1,0,34.6-15.5,34.6-34.6c0-0.2,0-0.4,0-0.6
	l-0.2-6.5h725.4l-0.2,6.5c0,0.2,0,0.4,0,0.6c0,19.1,15.5,34.6,34.6,34.6h6v919.4h-6c-19.1,0-34.6,15.5-34.6,34.6V1010.3z"/>
</svg>
