<!-- Generator: Adobe Illustrator 25.0.0, SVG Export Plug-In  -->
<svg version="1.1" xmlns="http://www.w3.org/2000/svg" xmlns:xlink="http://www.w3.org/1999/xlink" x="0px" y="0px" width="225px"
	 height="45.8px" viewBox="0 0 225 45.8" style="overflow:visible;enable-background:new 0 0 225 45.8;" xml:space="preserve">
<style type="text/css">
	.st0{fill:#DF032E;}
</style>
<defs>
</defs>
<g>
	<path class="st0" d="M17.3,34.6V17c-0.3,0.6-0.9,1.3-1.7,2.3c-0.2,0.2-0.3,0.2-0.5,0.2c-0.2,0-0.3-0.1-0.5-0.2l-1.4-1.7
		c-0.3,0.6-0.8,1.5-1.6,2.6c-0.8,1.1-1.6,2.3-2.4,3.4h4.6c0.5,0,0.7,0.3,0.7,0.8v0.4V26c0,0.8,0,1.4-0.1,1.8c-0.3,2.3-1,4.7-2.2,7.2
		c0.5,0.5,1,0.9,1.5,1.3c1.8,1.3,4.3,2,7.5,2.3c1.5,0.2,2.9,0.2,4.2,0.2h4c3.8,0,7-0.1,9.7-0.4c2.6-0.3,4.6-0.6,6-0.8l0.8-0.1
		c0.4,0,0.6,0.1,0.6,0.4c0,0.1,0,0.2,0,0.3L45,43.4c-0.2,0.4-0.5,0.6-0.9,0.6c-3.9,0.4-8.9,0.6-15,0.6c-3.8,0-6.7-0.1-8.8-0.3
		c-1.8-0.2-3.2-0.4-4.4-0.7c-1.1-0.3-2.2-0.7-3.2-1.2c-1.2-0.6-2.3-1.5-3.5-2.5c-1.2,1.7-2.6,3.2-4,4.4c-0.1,0.1-0.2,0.1-0.3,0.2
		s-0.2,0.1-0.4,0.1c-0.2,0-0.3,0-0.4-0.1l-3.9-3.3C0.1,40.9,0,40.8,0,40.6s0.1-0.4,0.2-0.5c2.1-1.7,3.9-3.6,5.3-5.5
		c1.4-2,2.3-3.9,2.8-5.9H2.5c-0.5,0-0.7-0.2-0.7-0.6v-3.5c0-0.4,0.1-0.7,0.3-0.9c1.5-1.6,3-3.5,4.4-5.6H1.6c-0.2,0-0.3-0.1-0.4-0.2
		C1.1,17.6,1,17.5,1,17.3v-4.1c0-0.2,0.1-0.4,0.2-0.5c0.1-0.1,0.3-0.2,0.4-0.2h11.1c0.4,0,0.6,0.1,0.7,0.3c3.2-3.4,5.6-7.4,7.4-12.1
		c0.1-0.2,0.2-0.4,0.4-0.4c0.1,0,0.2,0,0.4,0l4.8,0.7c0.3,0,0.4,0.2,0.5,0.4l-0.1,0.4c-0.5,1.3-1.1,2.5-1.8,3.6h5.7
		c-0.5-1.3-1.1-2.5-1.8-3.6c-0.1-0.1-0.1-0.2-0.1-0.4c0-0.3,0.2-0.5,0.6-0.5l4.5-0.3H34c0.4,0,0.7,0.2,0.9,0.5
		c0.7,1.3,1.3,2.7,1.8,4.4h6.7c0.5,0,0.7,0.2,0.7,0.7V10c0,0.5-0.2,0.7-0.7,0.7h-8.3V14h7.1c0.4,0,0.6,0.2,0.6,0.7v3.4
		c0,0.5-0.2,0.7-0.6,0.7h-7.1V22h7.1c0.4,0,0.6,0.2,0.6,0.7v3.5c0,0.5-0.2,0.7-0.6,0.7h-7.1v3.2h8.9c0.5,0,0.7,0.2,0.7,0.7v3.9
		c0,0.5-0.2,0.7-0.7,0.7H18C17.5,35.3,17.3,35.1,17.3,34.6z M7.6,10.5C6.7,9.2,5.8,8.1,5,7.1c-0.8-0.9-1.9-1.9-3.1-3
		C1.7,4,1.6,3.8,1.6,3.6c0-0.2,0.1-0.3,0.3-0.5l3.8-2.7C6,0.3,6.1,0.2,6.3,0.2c0.1,0,0.3,0.1,0.5,0.2c0.9,0.8,1.9,1.8,3,3
		c1.1,1.2,2,2.4,2.7,3.6c0.1,0.1,0.1,0.3,0.1,0.4c0,0.2-0.1,0.4-0.3,0.6l-3.8,2.6c-0.1,0.1-0.2,0.1-0.3,0.1
		C7.9,10.8,7.7,10.7,7.6,10.5z M29.3,14.1v-3.4h-6.2v3.4H29.3z M29.3,22v-3.2h-6.2V22H29.3z M29.3,30.1v-3.3h-6.2v3.3H29.3z"/>
	<path class="st0" d="M63.6,44.9L60.2,40c-0.1-0.2-0.1-0.3-0.1-0.4c0-0.2,0.1-0.4,0.4-0.5c6-2.8,10.6-6.9,13.9-12.2
		c3.3-5.3,5.1-11.6,5.5-18.8h-12c-0.5,0-0.7-0.2-0.7-0.7V2.2c0-0.5,0.2-0.7,0.7-0.7h18c0.5,0,0.7,0.2,0.7,0.7
		c0,17.5,6.2,29.7,18.6,36.7c0.3,0.2,0.4,0.4,0.4,0.6c0,0.1,0,0.2-0.1,0.4l-3.5,5c-0.2,0.2-0.3,0.3-0.5,0.3c-0.1,0-0.2,0-0.4-0.1
		c-4.4-2.7-8.1-6.1-11-10.1c-3-4-5.2-8.5-6.6-13.6c-1.5,5.4-3.9,10.2-7.1,14.3c-3.2,4.1-7.1,7.2-11.6,9.4c-0.2,0.1-0.3,0.1-0.4,0.1
		C63.9,45.3,63.7,45.2,63.6,44.9z"/>
	<path class="st0" d="M139.2,45.4c-0.4,0-0.7-0.2-0.8-0.5l-1.7-4.2l-0.1-0.3c0-0.3,0.2-0.5,0.7-0.5l4.5,0h1.2c3.6,0,6.1-0.2,7.5-0.6
		c1.4-0.4,2.2-1,2.5-1.8c0.1-0.5,0.2-1.2,0.2-2.1h-24.5c-0.4,0-0.6-0.2-0.6-0.5c0-0.1,0-0.2,0-0.3c0.7-2,1.4-4.2,2-6.7
		c-3.2,1-5.7,1.8-7.5,2.2c-0.1,0-0.1,0-0.2,0c-0.3,0-0.5-0.1-0.6-0.4l-2.2-4.9c0-0.1-0.1-0.2-0.1-0.3c0-0.3,0.2-0.5,0.6-0.5
		c3.6-0.5,7.2-1.2,10.8-2.1c3.6-0.9,6.9-1.9,9.9-3.1h-19.3c-0.5,0-0.7-0.2-0.7-0.7v-3.9c0-0.5,0.2-0.7,0.7-0.7h16.2V9.3h-11.9
		c-0.5,0-0.7-0.2-0.7-0.7V4.9c0-0.5,0.2-0.7,0.7-0.7h11.9V0.7c0-0.5,0.2-0.7,0.7-0.7h4.9c0.5,0,0.7,0.2,0.7,0.7v3.5h9.9
		c0.5,0,0.7,0.2,0.7,0.7v2.6c1.1-1.2,2.2-2.7,3.4-4.4c0.1-0.2,0.3-0.3,0.5-0.3l0.4,0.1l4.9,2.6c0.3,0.2,0.4,0.3,0.4,0.5
		c0,0.2-0.1,0.3-0.2,0.4c-1.8,2.3-4,4.6-6.5,6.7h6.6c0.5,0,0.7,0.2,0.7,0.7v3.9c0,0.5-0.2,0.7-0.7,0.7h-12.9
		c-2.3,1.3-4.6,2.5-6.9,3.5h17.5c0.5,0,0.7,0.2,0.7,0.7v3.8c0,0.5-0.2,0.7-0.7,0.7h-24.8l-0.8,3.1h23.2c0.5,0,0.7,0.2,0.7,0.6
		c0,2.9-0.1,5.2-0.3,7.1c-0.2,1.9-0.9,3.4-2,4.5c-1.1,1.1-2.8,1.8-5.2,2.3c-2.4,0.4-5.7,0.7-10.1,0.7L139.2,45.4z M153,9.2h-9.1v4
		h4.3C150,11.9,151.6,10.6,153,9.2z"/>
	<path class="st0" d="M180.3,17.4v-4.5c0-0.5,0.2-0.7,0.7-0.7h3.9V1.7c0-0.5,0.2-0.7,0.7-0.7h4.8c0.5,0,0.7,0.2,0.7,0.7v10.4h3.3
		c0.5,0,0.7,0.2,0.7,0.7v4.5c0,0.5-0.2,0.7-0.7,0.7h-3.3v10.8c1.3-0.7,2.3-1.2,2.9-1.6c0.2-0.1,0.3-0.1,0.4-0.1
		c0.3,0,0.4,0.2,0.4,0.6v1c2.5-1,4.5-2.4,5.9-4.2h-4.7c-0.5,0-0.7-0.2-0.7-0.7v-3.1c0-0.5,0.2-0.7,0.7-0.7h28.4
		c0.5,0,0.7,0.2,0.7,0.7v3.1c0,0.5-0.2,0.7-0.7,0.7h-17.5c-0.5,0.8-1,1.6-1.5,2.2h17.8c0.5,0,0.7,0.2,0.7,0.7c0,4.3-0.1,7.5-0.2,9.5
		c-0.1,2.4-0.5,4.1-1.2,5.4c-0.7,1.2-1.7,2-3.1,2.5c-1.4,0.4-3.3,0.6-5.8,0.6c-0.4,0-0.6-0.2-0.8-0.6l-1.5-4.5
		c-2.2,2.4-4.5,4.2-7,5.3c-0.1,0.1-0.3,0.1-0.4,0.1c-0.1,0-0.3-0.1-0.5-0.2l-3.2-2.9c-0.2-0.2-0.2-0.3-0.2-0.4
		c0-0.2,0.1-0.4,0.4-0.5c2.7-1,4.9-2.4,6.8-4.2c1.9-1.8,3.3-3.8,4.3-6h-2.5c-1.2,2.1-2.7,3.9-4.7,5.6c-2,1.7-4.2,3-6.6,4
		c-0.1,0-0.2,0-0.3,0c-0.2,0-0.4-0.1-0.6-0.3l-2.5-3c-0.1-0.1-0.2-0.3-0.2-0.4c0-0.3,0.2-0.4,0.5-0.5c2-0.5,3.7-1.3,5.3-2.3
		c1.5-1,2.7-2,3.6-3.2h-2.7c-1.3,1.1-2.7,2-4.2,2.7c-0.1,0-0.2,0.1-0.3,0.1c-0.2,0-0.4-0.1-0.5-0.4l-0.5-0.9c0,0.2-0.1,0.4-0.3,0.5
		c-1.6,1-3.6,2.1-6,3.1c-2.4,1-4.7,1.9-7,2.7c-0.1,0-0.2,0-0.3,0c-0.3,0-0.5-0.2-0.6-0.5l-1.3-5l0-0.2c0-0.3,0.2-0.5,0.5-0.6
		c1.4-0.3,3.1-0.8,5-1.5V18.1H181C180.5,18.1,180.3,17.8,180.3,17.4z M197.9,1.3h23.9c0.5,0,0.7,0.2,0.7,0.7v15.6
		c0,0.5-0.2,0.7-0.7,0.7h-23.9c-0.5,0-0.7-0.2-0.7-0.7V2C197.2,1.5,197.4,1.3,197.9,1.3z M203.4,5.4V8h12.8V5.4H203.4z M203.4,11.7
		v2.6h12.8v-2.6H203.4z M212,39.4c2,0.1,3.3-0.1,4.1-0.6c0.7-0.5,1.2-1.4,1.3-2.7c0.1-1.5,0.2-3,0.2-4.6h-1.1
		C215.4,34.5,213.9,37.1,212,39.4z"/>
</g>
</svg>
