<!-- Generator: Adobe Illustrator 25.0.0, SVG Export Plug-In  -->
<svg version="1.1" xmlns="http://www.w3.org/2000/svg" xmlns:xlink="http://www.w3.org/1999/xlink" x="0px" y="0px" width="215.3px"
	 height="40.8px" viewBox="0 0 215.3 40.8" style="overflow:visible;enable-background:new 0 0 215.3 40.8;" xml:space="preserve">
<style type="text/css">
	.st0{fill:#FFFFFF;}
</style>
<defs>
</defs>
<g>
	<path class="st0" d="M3.8,39.8l-3.5-3C0.1,36.6,0,36.4,0,36.3c0-0.1,0.1-0.3,0.2-0.4c1.8-1.5,3.3-3.1,4.5-4.9
		c1.2-1.8,2-3.6,2.4-5.4h-5c-0.4,0-0.6-0.2-0.6-0.6v-3.2c0-0.4,0.1-0.6,0.3-0.8c1.6-1.8,2.9-3.5,3.9-5H1.3c-0.1,0-0.3-0.1-0.4-0.2
		c-0.1-0.1-0.2-0.2-0.2-0.4v-3.7c0-0.2,0.1-0.3,0.2-0.4c0.1-0.1,0.2-0.2,0.4-0.2h9.6c0.3,0,0.4,0,0.5,0.1c0.1,0.1,0.1,0.2,0.1,0.4v3
		c0,0.3,0,0.5-0.1,0.7c-0.1,0.4-0.6,1.1-1.3,2.2c-0.7,1.1-1.6,2.3-2.5,3.5h3.9c0.4,0,0.6,0.2,0.6,0.7v2c0,0.2,0,0.6-0.1,1.1
		c-0.2,2.1-0.7,4.2-1.6,6.4c0.5,0.5,1,0.9,1.6,1.3c0.8,0.5,1.8,1,2.8,1.3c1,0.3,2.3,0.6,3.8,0.7c1.1,0.1,2.4,0.2,4.1,0.2h2.9
		c3.4,0,6.1-0.1,8.1-0.2c2.1-0.1,3.6-0.3,4.6-0.4c1-0.1,1.8-0.3,2.4-0.4h0.2c0.1,0,0.2,0,0.3,0.1c0.1,0.1,0.1,0.1,0.1,0.2
		c0,0.1,0,0.2,0,0.3l-1.2,4.5c-0.1,0.1-0.1,0.3-0.3,0.4c-0.1,0.1-0.3,0.1-0.5,0.2c-3.5,0.4-8,0.6-13.5,0.6c-3.4,0-6-0.1-7.9-0.3
		c-1.6-0.2-2.9-0.4-3.9-0.6c-1-0.2-1.9-0.6-2.8-1.1c-1-0.5-2-1.3-3.1-2.3c-1.1,1.6-2.2,2.9-3.5,3.9c-0.2,0.1-0.4,0.2-0.5,0.2
		C4,39.9,3.9,39.9,3.8,39.8z M6.7,9.3c-0.8-1.2-1.5-2.2-2.3-3S2.6,4.5,1.5,3.6C1.3,3.5,1.2,3.3,1.2,3.2c0-0.1,0.1-0.3,0.3-0.4
		l3.2-2.5c0.2-0.1,0.3-0.1,0.4-0.1c0.1,0,0.3,0.1,0.4,0.2c0.8,0.6,1.7,1.5,2.7,2.5c1,1.1,1.8,2.2,2.5,3.3c0.1,0.1,0.1,0.2,0.1,0.4
		c0,0.2-0.1,0.4-0.3,0.5L7.4,9.5C7.3,9.6,7.2,9.6,7.1,9.6C6.9,9.6,6.8,9.5,6.7,9.3z M28.7,33.1c-0.2,0-0.3-0.1-0.5-0.4l-2.1-3.5
		c-0.3,1.4-0.8,2.3-1.7,2.9c-0.8,0.6-2.1,0.9-3.8,0.9h-0.4c-0.3,0-0.6-0.2-0.7-0.5l-1-2.5c0-0.1,0-0.1,0-0.3c0-0.3,0.2-0.4,0.6-0.4
		h0.2c1,0,1.7-0.1,2-0.4s0.6-0.6,0.7-1.2c0.1-0.5,0.1-1.1,0.1-1.9H19c-0.5,2.4-1.4,4.6-2.9,6.6c-0.1,0.2-0.3,0.3-0.4,0.3
		c-0.1,0-0.3,0-0.4-0.1l-2.9-2.3c-0.2-0.1-0.3-0.3-0.3-0.4c0-0.1,0.1-0.3,0.2-0.4c1-1,1.7-2.2,2.2-3.6c0.5-1.4,0.7-3,0.8-4.8h-2.5
		c-0.4,0-0.6-0.2-0.6-0.6v-2.7c0-0.4,0.2-0.6,0.6-0.6h5.1c-0.1-0.4-0.4-1-0.8-1.7h-3.5c-0.4,0-0.6-0.2-0.6-0.6V3.1
		c0-0.4,0.2-0.6,0.6-0.6h3.1c0.4-0.8,0.7-1.4,0.8-1.9c0.1-0.4,0.3-0.5,0.6-0.5h0.1l3.4,0.2c0.5,0.1,0.7,0.3,0.5,0.7
		c-0.2,0.5-0.4,1-0.7,1.5h4.3c0.4,0,0.6,0.2,0.6,0.6v9.6c0.8-1.6,1.5-3.5,2-5.6c0.5-2.1,0.9-4.2,1.2-6.4c0.1-0.4,0.3-0.5,0.6-0.5
		h0.1L34,0.6c0.4,0.1,0.6,0.3,0.5,0.7L33.8,5H40c0.4,0,0.6,0.2,0.6,0.6v3.8c0,0.4-0.2,0.6-0.6,0.6h-0.7c-0.3,5.2-1.1,9.5-2.4,12.7
		c1.4,2.4,2.6,4.6,3.7,6.8c0.1,0.1,0.1,0.2,0.1,0.4c0,0.2-0.1,0.4-0.3,0.5l-3.2,2.2c-0.1,0.1-0.3,0.1-0.4,0.1
		c-0.2,0-0.4-0.1-0.4-0.4l-2.2-4.7c-1.5,2.2-3.2,4-5.1,5.3C28.9,33,28.8,33.1,28.7,33.1z M22,7.4V5.5h-4.8v1.9H22z M22,12.3v-2.1
		h-4.8v2.1H22z M25.8,22.3c0.4,0,0.6,0.2,0.6,0.6c0,1.6-0.1,3.1-0.2,4.7l0,0.5c2.4-1.2,4.2-2.9,5.5-5.1c-0.9-1.5-1.8-3-2.7-4.3
		C29,18.5,29,18.3,29,18.2c0-0.2,0.1-0.3,0.3-0.5l2.6-1.7c0.1-0.1,0.3-0.1,0.4-0.1c0.2,0,0.4,0.1,0.5,0.3l1.1,1.7
		c0.7-2.3,1-4.9,1.2-7.8h-2.8c-0.4,1.4-0.9,2.7-1.5,3.9c-0.6,1.2-1.3,2.5-2.1,3.9c-0.1,0.2-0.2,0.3-0.4,0.3S28,18,27.9,17.8L26,15.2
		c-0.1,0.1-0.2,0.1-0.4,0.1h-4.1l0.7,1.7h4.2c0.4,0,0.6,0.2,0.6,0.6v2.7c0,0.4-0.2,0.6-0.6,0.6h-6.8c0,0.6,0,1,0,1.3H25.8z"/>
	<path class="st0" d="M58.1,8.9V5.3c0-0.4,0.2-0.6,0.7-0.6h5c-0.4-1-0.8-1.9-1.2-2.8c-0.1-0.2-0.2-0.3-0.2-0.5
		c0-0.2,0.2-0.4,0.5-0.5l3.7-0.8c0.1,0,0.3-0.1,0.4-0.1c0.3,0,0.5,0.1,0.6,0.4c0.4,1,0.9,2.4,1.5,4.3h4.2c0.5,0,0.7,0.2,0.7,0.6v3.6
		c0,0.4-0.2,0.6-0.7,0.6H58.8C58.4,9.5,58.1,9.3,58.1,8.9z M59.3,39.2V26.3c0-0.4,0.2-0.6,0.7-0.6h12.6c0.4,0,0.7,0.2,0.7,0.6v12.9
		c0,0.4-0.2,0.6-0.7,0.6H60C59.6,39.9,59.3,39.7,59.3,39.2z M59.8,15.8v-3.2c0-0.4,0.3-0.6,0.8-0.6h11.8c0.4,0,0.7,0.2,0.7,0.6v3.2
		c0,0.4-0.2,0.6-0.7,0.6H60.5C60,16.4,59.8,16.2,59.8,15.8z M59.8,22.6v-3.1c0-0.4,0.3-0.6,0.8-0.6h11.8c0.4,0,0.7,0.2,0.7,0.6v3.1
		c0,0.4-0.2,0.6-0.7,0.6H60.5C60,23.2,59.8,23,59.8,22.6z M68.6,35.2v-5.1h-4.4v5.1H68.6z M97,20v14.3c0,1.5-0.2,2.7-0.6,3.6
		c-0.4,0.9-1.2,1.6-2.3,2c-1.2,0.5-2.9,0.7-5.2,0.7c-0.3,0-0.5,0-0.6,0c-0.2,0-0.4-0.1-0.5-0.2c-0.1-0.1-0.2-0.2-0.2-0.4l-1.1-3.2
		c0-0.1,0-0.2,0-0.2c0-0.1,0.1-0.3,0.2-0.4c0.1-0.1,0.3-0.1,0.5-0.1l1.1,0c1,0,1.7-0.1,2.2-0.3c0.5-0.2,0.8-0.4,0.9-0.7
		c0.1-0.3,0.2-0.7,0.2-1.2v-0.3H81c-0.4,2.6-1.2,4.8-2.4,6.8c-0.1,0.1-0.2,0.2-0.4,0.2c-0.1,0-0.1,0-0.2,0l-3.9-2
		c-0.3-0.1-0.4-0.3-0.4-0.5c0-0.1,0-0.2,0.1-0.4c1-1.7,1.6-3.4,1.9-5.2c0.3-1.8,0.4-4.1,0.4-6.8v-1.4V20c0-0.4,0.2-0.6,0.6-0.6h19.7
		C96.8,19.3,97,19.5,97,20z M75.9,11.1V9.1c0-0.4,0.2-0.6,0.6-0.6h7.1V6.6h-8.3c-0.4,0-0.6-0.2-0.6-0.6V3.3c0-0.4,0.2-0.6,0.6-0.6
		h8.3v-2c0-0.4,0.2-0.6,0.6-0.6h4.3c0.4,0,0.6,0.2,0.6,0.6v2h8.6c0.4,0,0.6,0.2,0.6,0.6v2.7c0,0.4-0.2,0.6-0.6,0.6h-8.6v1.9h7.4
		c0.4,0,0.6,0.2,0.6,0.6v2.1c0,0.4-0.2,0.6-0.6,0.6h-7.4v2h9.2c0.4,0,0.6,0.2,0.6,0.6V17c0,0.4-0.2,0.6-0.6,0.6H74.8
		c-0.4,0-0.6-0.2-0.6-0.6v-2.6c0-0.4,0.2-0.6,0.6-0.6h8.8v-2h-7.1C76.1,11.7,75.9,11.5,75.9,11.1z M91.5,30.6v-2.1h-10l-0.1,2.1
		H91.5z M91.5,25.3V23h-10v2.3H91.5z"/>
	<path class="st0" d="M121.1,40.1c-0.1,0.2-0.3,0.4-0.4,0.4l-0.4-0.1l-4.1-2c-0.2-0.1-0.4-0.3-0.4-0.5c0-0.1,0.1-0.2,0.1-0.3
		c1.1-2.4,1.8-5.1,2.2-8.1c0.4-3,0.6-7,0.6-12.1V1.9c0-0.4,0.2-0.6,0.6-0.6h15.2c0.4,0,0.6,0.2,0.6,0.6v30.8c0,2-0.2,3.5-0.6,4.6
		c-0.4,1-1.1,1.8-2.1,2.2c-1,0.4-2.5,0.6-4.5,0.6h-0.4c-0.3,0-0.6-0.2-0.7-0.5l-1.5-4.2c0-0.1,0-0.1,0-0.3c0-0.3,0.2-0.4,0.6-0.4
		c1.2,0,2.1,0,2.6-0.2c0.6-0.1,0.9-0.4,1.1-0.7s0.3-0.9,0.3-1.5v-4.9h-6C123.5,32.5,122.6,36.7,121.1,40.1z M124,6.4V12h5.8V6.4H124
		z M124,16.7v4.6v1.3h5.8v-5.9H124z M142.5,34.4c-0.5,2.1-1.2,4-2,5.7c-0.1,0.2-0.3,0.4-0.5,0.4c-0.1,0-0.2,0-0.4-0.1l-4.2-2.1
		c-0.4-0.2-0.4-0.5-0.3-0.8c1.3-2.4,2.2-5,2.7-7.8c0.5-2.9,0.7-6.9,0.7-12.2V1.9c0-0.4,0.2-0.6,0.6-0.6h15.7c0.4,0,0.6,0.2,0.6,0.6
		v31.2c0,2.4-0.3,4.1-1,5.2c-0.6,1.1-1.9,1.8-3.7,2c-0.8,0.1-1.9,0.2-3.3,0.2c-0.4,0-0.6-0.2-0.7-0.5l-1.5-4.2c0-0.1,0-0.1,0-0.3
		c0-0.1,0.1-0.3,0.2-0.3s0.3-0.1,0.5-0.1l1.1,0c1.3,0,2.1-0.2,2.5-0.5c0.4-0.4,0.6-1,0.6-1.9v-5.4h-6.6
		C143.3,30,143,32.3,142.5,34.4z M143.9,16.7v1.7l-0.1,4.2h6.3v-5.9H143.9z M143.9,6.4V12h6.2V6.4H143.9z"/>
	<path class="st0" d="M184,40.3l-2.6-4.5l-0.1-0.2c-1.1,1.3-2.1,2.4-3,3.3c0,0-0.1,0.1-0.2,0.1c-0.1,0-0.2,0.1-0.3,0.1
		c-0.2,0-0.3-0.1-0.4-0.2l-3.3-3.7c-0.1-0.1-0.2-0.3-0.2-0.4s0.1-0.3,0.2-0.4c3.2-3,5.7-6.5,7.5-10.4c1.8-4,3.1-8.3,3.9-13.2h-9.1
		c-0.4,0-0.6-0.2-0.6-0.6V5.9c0-0.4,0.2-0.6,0.6-0.6h9.8l0.4-4.7c0.1-0.4,0.3-0.6,0.6-0.6h4.7c0.4,0,0.6,0.2,0.6,0.6
		c-0.1,1.5-0.2,3.1-0.4,4.7h21.6c0.4,0,0.6,0.2,0.6,0.6v4.2c0,0.4-0.2,0.6-0.6,0.6h-22.3c-0.3,1.6-0.6,3.2-0.9,4.8h18.8
		c0.4,0,0.6,0.2,0.6,0.6v3.2c0,0.1,0,0.4-0.1,0.7c-1.5,4.7-3.6,8.6-6.5,11.6c3.3,1.4,7.1,2.4,11.4,3c0.3,0.1,0.5,0.2,0.5,0.4
		l-0.1,0.4l-1.9,4.7c-0.1,0.3-0.3,0.4-0.5,0.4l-0.5,0c-5.5-1-10.2-2.5-13.9-4.7c-3.7,2.4-8.2,4-13.6,5h-0.2
		C184.3,40.7,184.1,40.6,184,40.3z M193.2,31.9c-2.1-2-3.9-4.5-5.4-7.6c-1.6,4.1-3.6,7.7-6,10.8C186.2,34.6,190,33.5,193.2,31.9z
		 M203.3,20.8h-11.4c1.2,3.1,3.3,5.7,6.3,7.9C200.5,26.5,202.2,23.9,203.3,20.8z"/>
</g>
</svg>
