<!-- Generator: Adobe Illustrator 25.0.0, SVG Export Plug-In  -->
<svg version="1.1" xmlns="http://www.w3.org/2000/svg" xmlns:xlink="http://www.w3.org/1999/xlink" x="0px" y="0px" width="198.1px"
	 height="79.6px" viewBox="0 0 198.1 79.6" style="overflow:visible;enable-background:new 0 0 198.1 79.6;" xml:space="preserve">
<style type="text/css">
	.st0{enable-background:new    ;}
</style>
<defs>
</defs>
<g class="st0">
	<path d="M3.3,21.1v-7.8c-0.4,0.1-0.6,0.1-0.8,0.1c-0.2,0-0.6,0.1-1,0.2l-0.1,0c-0.2,0-0.3-0.1-0.3-0.2l-1-2.4l0-0.1v0
		c0-0.1,0.1-0.2,0.3-0.2c2.8-0.3,5.4-0.9,7.8-1.7C7,8.1,6,7.2,5.1,6.4C4.2,7.1,3.3,7.8,2.5,8.3c-0.1,0-0.1,0.1-0.2,0.1
		C2.2,8.3,2.1,8.3,2,8.2l-1.5-2c0,0,0,0-0.1-0.1c0,0,0-0.1,0-0.1c0-0.1,0.1-0.2,0.2-0.2C1.9,5,3.1,4.2,4.3,3.1c1.1-1,2-2,2.7-2.9
		C7,0.2,7,0.1,7.1,0c0.1,0,0.2,0,0.3,0l2.5,0.3c0.1,0,0.2,0.1,0.3,0.1c0,0.1,0,0.2,0,0.3c-0.3,0.4-0.5,0.8-0.7,1h9.3
		c0.2,0,0.3,0.1,0.3,0.3V4c0,0.2,0,0.3-0.1,0.4c-1.1,1.7-2.6,3.2-4.6,4.6c2.1,0.8,4.7,1.3,7.6,1.7c0.2,0,0.3,0.1,0.3,0.2
		c0,0,0,0.1,0,0.2l-1,2.4c-0.1,0.2-0.2,0.3-0.4,0.2c-0.5-0.1-1.1-0.2-1.7-0.3l0,0.1v7.7c0,0.2-0.1,0.3-0.3,0.3H3.6
		C3.4,21.5,3.3,21.3,3.3,21.1z M11.3,10.7c-2,1-4.3,1.8-6.7,2.4H18C15.5,12.5,13.3,11.7,11.3,10.7z M16.1,18.9v-3.2H6.4v3.2H16.1z
		 M15,4.4H7.4c1,1.2,2.3,2.3,3.8,3.1C12.9,6.6,14.2,5.6,15,4.4z"/>
	<path d="M26.2,12c-0.1,0-0.2-0.1-0.2-0.2l-0.9-3l0-0.1c0-0.1,0-0.2,0.1-0.3c1-1,1.8-2.2,2.6-3.6c0.8-1.4,1.3-2.9,1.7-4.3
		c0-0.2,0.1-0.3,0.3-0.3H30l2.4,0.5c0.2,0,0.3,0.2,0.3,0.4c-0.5,1.6-1,3-1.6,4.3v16.2c0,0.2-0.1,0.3-0.3,0.3h-2.3
		c-0.2,0-0.3-0.1-0.3-0.3V9.9c-0.5,0.8-1.1,1.4-1.6,1.9C26.4,11.9,26.3,12,26.2,12z M32.5,18.3h7.5c0.5-1.5,1-3.2,1.4-5.1
		c0.4-1.9,0.8-3.8,1-5.6c0-0.2,0.1-0.3,0.4-0.3l2.4,0.5c0.2,0,0.3,0.2,0.3,0.4c-0.7,4.1-1.6,7.4-2.5,10.1h4c0.2,0,0.3,0.1,0.3,0.3
		v2.2c0,0.2-0.1,0.3-0.3,0.3H32.5c-0.2,0-0.3-0.1-0.3-0.3v-2.2C32.2,18.4,32.3,18.3,32.5,18.3z M33,3.5h5.1
		c-0.2-0.9-0.5-1.9-0.8-2.8l0-0.1c0-0.1,0.1-0.2,0.3-0.2L40.1,0h0c0.2,0,0.3,0.1,0.3,0.3c0.3,0.8,0.5,1.8,0.8,3.2h5.4
		c0.2,0,0.3,0.1,0.3,0.3V6c0,0.2-0.1,0.3-0.3,0.3H33c-0.2,0-0.3-0.1-0.3-0.3V3.8C32.6,3.6,32.7,3.5,33,3.5z M33.7,8.3
		c0-0.1,0.1-0.2,0.3-0.3l2.3-0.5h0.1c0.1,0,0.2,0.1,0.3,0.2c0.4,1.3,0.8,2.8,1.2,4.3c0.4,1.5,0.6,3,0.8,4.3c0,0,0,0,0,0.1
		c0,0.2-0.1,0.3-0.3,0.3l-2.2,0.6l-0.1,0c-0.2,0-0.3-0.1-0.3-0.3c-0.2-1.4-0.5-2.9-0.8-4.4c-0.4-1.5-0.8-2.9-1.2-4.2
		C33.8,8.4,33.7,8.4,33.7,8.3z"/>
	<path d="M60.1,21.9c-0.2,0-0.3-0.1-0.4-0.3l-0.8-2l0-0.1c0-0.2,0.1-0.2,0.3-0.2l2.2,0h0.6c1.7,0,2.9-0.1,3.6-0.3
		c0.7-0.2,1.1-0.5,1.2-0.9c0.1-0.3,0.1-0.6,0.1-1H55c-0.2,0-0.3-0.1-0.3-0.2c0-0.1,0-0.1,0-0.1c0.4-0.9,0.7-2,1-3.2
		c-1.5,0.5-2.7,0.8-3.6,1.1c0,0-0.1,0-0.1,0c-0.1,0-0.2-0.1-0.3-0.2l-1.1-2.4c0-0.1,0-0.1,0-0.2c0-0.2,0.1-0.2,0.3-0.3
		c1.7-0.3,3.5-0.6,5.2-1c1.8-0.4,3.3-0.9,4.8-1.5h-9.3c-0.2,0-0.3-0.1-0.3-0.3V6.7c0-0.2,0.1-0.3,0.3-0.3h7.8V4.5h-5.8
		c-0.2,0-0.3-0.1-0.3-0.3V2.4c0-0.2,0.1-0.3,0.3-0.3h5.8V0.3c0-0.2,0.1-0.3,0.3-0.3H62c0.2,0,0.3,0.1,0.3,0.3V2h4.8
		c0.2,0,0.3,0.1,0.3,0.3v1.2C68,3,68.5,2.3,69.1,1.5c0.1-0.1,0.2-0.2,0.3-0.2l0.2,0l2.4,1.2c0.1,0.1,0.2,0.2,0.2,0.3
		c0,0.1,0,0.2-0.1,0.2c-0.9,1.1-1.9,2.2-3.1,3.2h3.2c0.2,0,0.3,0.1,0.3,0.3v1.9c0,0.2-0.1,0.3-0.3,0.3h-6.2
		c-1.1,0.6-2.2,1.2-3.3,1.7H71c0.2,0,0.3,0.1,0.3,0.3v1.8c0,0.2-0.1,0.3-0.3,0.3H59l-0.4,1.5h11.2c0.2,0,0.3,0.1,0.3,0.3
		c0,1.4-0.1,2.5-0.2,3.4c-0.1,0.9-0.4,1.6-1,2.2c-0.5,0.5-1.4,0.9-2.5,1.1c-1.2,0.2-2.8,0.3-4.8,0.3L60.1,21.9z M66.7,4.4h-4.4v1.9
		h2.1C65.3,5.8,66.1,5.1,66.7,4.4z"/>
	<path d="M78.3,11c-0.1,0-0.1,0-0.2-0.1l-2-1.5C76,9.3,76,9.2,76,9.1c0,0,0-0.1,0-0.1s0-0.1,0.1-0.1c0.9-1,1.8-2.3,2.4-3.7
		C79.2,3.8,79.7,2.4,80,1c0-0.2,0.2-0.3,0.4-0.3l2.3,0.4c0.1,0,0.2,0.1,0.2,0.1c0,0.1,0.1,0.2,0,0.3c-0.2,1-0.5,1.9-0.8,2.7h3.3V0.4
		c0-0.2,0.1-0.3,0.3-0.3h2.6c0.2,0,0.3,0.1,0.3,0.3v3.8h7.4c0.2,0,0.3,0.1,0.3,0.3v2.3c0,0.2-0.1,0.3-0.3,0.3h-7.4V11h6.3
		c0.2,0,0.3,0.1,0.3,0.3v2.3c0,0.2-0.1,0.3-0.3,0.3h-6.3v4.2h8.6c0.2,0,0.3,0.1,0.3,0.3v2.4c0,0.2-0.1,0.3-0.3,0.3H76.5
		c-0.2,0-0.3-0.1-0.3-0.3v-2.4c0-0.2,0.1-0.3,0.3-0.3h9V14h-6.4c-0.2,0-0.3-0.1-0.3-0.3v-2.3c0-0.2,0.1-0.3,0.3-0.3h6.4V7.2H81
		c-0.7,1.4-1.5,2.6-2.4,3.6C78.5,10.9,78.4,11,78.3,11z"/>
	<path d="M103.6,21.6V10.2c-0.5,0.7-1,1.2-1.4,1.7C102.1,12,102,12,102,12c-0.1,0-0.2-0.1-0.2-0.2l-0.9-2.9l0-0.1c0-0.1,0-0.2,0-0.2
		l0.1-0.1c1-0.9,1.8-2.1,2.6-3.5c0.8-1.4,1.4-2.9,1.9-4.6c0-0.2,0.1-0.2,0.2-0.3c0.1,0,0.1,0,0.2,0l2.5,0.4c0.2,0,0.3,0.1,0.3,0.3
		c0,0.1,0,0.1,0,0.1c-0.5,1.8-1.2,3.4-2.1,5v15.7c0,0.2-0.1,0.3-0.3,0.3h-2.4C103.7,21.9,103.6,21.8,103.6,21.6z M109.4,19.3
		l-2.2-1.1c-0.1-0.1-0.2-0.2-0.2-0.3c0-0.1,0-0.1,0.1-0.2c1.3-2,2.1-4.3,2.5-6.8c0-0.2,0.1-0.3,0.2-0.3c0.1,0,0.1,0,0.2,0l2.2,0.5
		c0.1,0,0.2,0.1,0.3,0.2v0.2c-0.2,1.3-0.5,2.6-1,4c-0.4,1.4-1,2.6-1.6,3.6c0,0.1-0.1,0.2-0.2,0.2C109.5,19.4,109.5,19.4,109.4,19.3z
		 M120.8,10.5l-2.2-0.8c-0.1,0-0.2-0.1-0.2-0.2c0-0.1,0-0.2,0-0.2c0.6-1.4,0.9-2.7,1-3.9h-6.7c-0.3,0.9-0.7,1.7-1.1,2.4
		c-0.4,0.7-0.9,1.4-1.5,2.2c-0.1,0.1-0.2,0.2-0.2,0.2c-0.1,0-0.1,0-0.2-0.1l-2-1.9c-0.1-0.1-0.1-0.2-0.1-0.2s0-0.2,0.1-0.2
		c1-1.2,1.7-2.4,2.2-3.5c0.4-1.1,0.8-2.4,1-3.8c0-0.1,0.1-0.2,0.2-0.3h0.1l2.5,0.3c0.2,0,0.3,0.1,0.3,0.2v0.2
		c-0.1,0.6-0.2,1.2-0.4,1.8h8.6c0.2,0,0.3,0.2,0.3,0.5c-0.1,2.7-0.5,5.1-1.2,7.2c0,0.2-0.2,0.2-0.3,0.2
		C120.9,10.5,120.8,10.5,120.8,10.5z M111.7,21.8c-0.1,0-0.1-0.1-0.2-0.2l-0.9-2.3c0,0,0-0.1,0-0.1c0-0.1,0.1-0.2,0.2-0.2h0.1
		c0.2,0,0.5,0,0.9,0c0.6,0,1,0,1.3-0.1c0.3-0.1,0.4-0.2,0.5-0.4c0.1-0.2,0.1-0.4,0.1-0.8V7.5c0-0.2,0.1-0.3,0.3-0.3h2.3
		c0.2,0,0.3,0.1,0.3,0.3v11.1c0,1.2-0.4,2.1-1.2,2.6c-0.8,0.5-2,0.7-3.5,0.7C111.8,21.8,111.8,21.8,111.7,21.8z M120.3,19.3
		c-0.5-0.9-1-2-1.5-3.4c-0.5-1.4-0.9-2.7-1.2-4l0-0.1c0-0.1,0.1-0.2,0.3-0.3l2-0.6c0,0,0.1,0,0.1,0c0.1,0,0.2,0.1,0.3,0.3
		c0.3,1.1,0.7,2.3,1.1,3.5c0.5,1.2,1,2.3,1.5,3.2c0,0,0,0.1,0,0.2c0,0.1-0.1,0.2-0.2,0.3l-2.1,1.2c-0.1,0-0.1,0-0.2,0
		C120.5,19.5,120.4,19.4,120.3,19.3z"/>
	<path d="M131.1,21.9h-2.2c-0.2,0-0.3-0.1-0.3-0.3V10.5c-0.4,0.6-0.9,1.2-1.3,1.6c-0.1,0.1-0.2,0.1-0.2,0.1c-0.1,0-0.2-0.1-0.2-0.2
		l-0.9-3c0,0,0-0.1,0-0.1c0-0.1,0-0.2,0.1-0.3c0.9-0.9,1.7-2.1,2.4-3.6c0.7-1.5,1.1-3,1.4-4.5c0-0.2,0.2-0.3,0.3-0.3h0.1l2.3,0.4
		c0.1,0,0.2,0.1,0.2,0.1c0,0.1,0.1,0.2,0,0.3c-0.3,1.7-0.8,3.3-1.4,4.8v16C131.5,21.8,131.3,21.9,131.1,21.9z M135.4,21.9h-2
		c-0.2,0-0.3-0.1-0.3-0.3V0.9c0-0.2,0.1-0.3,0.3-0.3h6.1c0.2,0,0.3,0.1,0.3,0.3v9.8c0,0.2-0.1,0.3-0.3,0.3h-3.7v10.5
		C135.8,21.8,135.7,21.9,135.4,21.9z M135.7,2.9v1.8h1.7V2.9H135.7z M135.7,6.9v1.9h1.7V6.9H135.7z M140.8,10.7V0.9
		c0-0.2,0.1-0.3,0.3-0.3h6.1c0.2,0,0.3,0.1,0.3,0.3v16.8c0,1.2-0.1,2-0.3,2.6c-0.2,0.6-0.6,1-1.1,1.2c-0.5,0.2-1.4,0.3-2.4,0.3h-0.6
		c-0.2,0-0.3-0.1-0.4-0.3l-0.8-2.2c0,0,0-0.1,0-0.1c0-0.2,0.1-0.2,0.3-0.2l0.7,0c0.8,0,1.3-0.1,1.6-0.3c0.3-0.2,0.4-0.5,0.4-1v-6.8
		h-3.8C140.9,11.1,140.8,11,140.8,10.7z M145,2.9h-1.8v1.8h1.8V2.9z M143.2,6.9v1.9h1.8V6.9H143.2z"/>
	<path d="M160,20.3c-0.1,0-0.1,0-0.2-0.1c-0.6-0.7-1.4-1.5-2.2-2.3c-0.5,0.7-1.2,1.4-1.9,2.1c-0.7,0.7-1.5,1.3-2.3,1.8
		c-0.1,0-0.1,0.1-0.2,0.1c-0.1,0-0.2-0.1-0.3-0.2l-1.6-2.1c-0.1-0.1-0.1-0.1-0.1-0.2c0-0.1,0.1-0.2,0.2-0.3c0.8-0.4,1.5-0.8,2.1-1.4
		s1.3-1.1,1.7-1.8c-0.9-0.8-1.9-1.5-3-2.2c-0.2-0.1-0.2-0.3-0.2-0.5c0.5-2,1-4.2,1.3-6.8H152c-0.2,0-0.3-0.1-0.3-0.3V3.9
		c0-0.2,0.1-0.3,0.3-0.3h1.8c0.1-1.4,0.2-2.4,0.2-3.2c0-0.2,0.1-0.3,0.3-0.3l2.3,0c0.2,0,0.3,0.1,0.3,0.3c0,1.1-0.1,2.2-0.2,3.2h4
		c0.2,0,0.3,0.1,0.3,0.3c0,2.5-0.2,4.6-0.4,6.5c-0.3,1.8-0.7,3.4-1.4,4.9c0.9,0.8,1.7,1.5,2.4,2.3c0.1,0.1,0.1,0.2,0.1,0.3
		c0,0.1,0,0.1-0.1,0.2l-1.4,2C160.1,20.2,160.1,20.3,160,20.3z M156.9,13.5c0.4-0.9,0.7-2,0.9-3.2s0.3-2.5,0.3-3.8h-1.9
		c-0.4,2.6-0.7,4.5-1.1,5.8C155.7,12.6,156.2,13,156.9,13.5z M161.7,9.6h4.5V6.9c0-0.2,0.1-0.3,0.2-0.4c0.5-0.4,1.1-0.8,1.5-1.2
		c0.5-0.5,0.9-0.9,1.1-1.4h-6.8c-0.2,0-0.3-0.1-0.3-0.3V1.2c0-0.2,0.1-0.3,0.3-0.3h10.1c0.2,0,0.3,0.1,0.3,0.3v2.3
		c0,0.1,0,0.3-0.1,0.4c-0.4,0.6-0.8,1.2-1.4,1.9c-0.6,0.7-1.2,1.3-1.9,1.9v1.9h3.8c0.2,0,0.3,0.1,0.3,0.3v2.4c0,0.2-0.1,0.3-0.3,0.3
		h-3.8V18c0,1.1-0.1,1.9-0.4,2.4s-0.7,1-1.4,1.2c-0.7,0.2-1.7,0.4-3.1,0.4l-0.7,0c-0.2,0-0.3-0.1-0.4-0.3l-0.8-2.3l0-0.1
		c0-0.1,0-0.1,0.1-0.2c0.1,0,0.1-0.1,0.3,0l1.2,0c0.7,0,1.2-0.1,1.5-0.2c0.3-0.1,0.5-0.3,0.6-0.5s0.1-0.5,0.1-1v-4.8h-4.5
		c-0.2,0-0.3-0.1-0.3-0.3V9.9C161.3,9.7,161.4,9.6,161.7,9.6z"/>
	<path d="M185.3,16.5l0-0.2l1.2-3.7c-0.3-0.2-0.6-0.4-0.8-0.7c-0.2-0.3-0.3-0.7-0.3-1.1c0-0.6,0.2-1.1,0.6-1.5
		c0.4-0.4,0.9-0.6,1.5-0.6s1.1,0.2,1.5,0.6c0.4,0.4,0.6,0.9,0.6,1.5c0,0.4-0.1,0.8-0.2,1.2s-0.5,1.2-0.9,2.2l-1,2.3
		c-0.1,0.2-0.2,0.2-0.4,0.2h-1.6C185.4,16.8,185.3,16.7,185.3,16.5z"/>
</g>
<g class="st0">
	<path d="M17.1,50.2c-0.6-0.4-1.1-1-1.6-1.7c-0.2-0.3-0.4-0.6-0.5-1c-1.3,1.2-2.7,2.2-4.1,2.8c0,0-0.1,0-0.2,0c-0.1,0-0.2,0-0.3-0.1
		l-1.7-1.9c0,0,0,0-0.1-0.1s0-0.1,0-0.1c0-0.1,0.1-0.2,0.2-0.2c1.8-0.7,3.4-1.8,5-3.2c-0.5-1.8-1-4.1-1.2-6.8H8.2v2.7
		c1.2-0.3,2.2-0.6,3-0.9c0,0,0.1,0,0.1,0c0.2,0,0.2,0.1,0.2,0.3v2.2c0,0.2-0.1,0.3-0.2,0.4c-0.8,0.3-1.8,0.6-3.1,0.9v2.7
		c0,1.2-0.1,2.2-0.4,2.8c-0.3,0.6-0.8,1.1-1.4,1.4c-0.7,0.3-1.7,0.4-3,0.4H2.7c-0.2,0-0.3-0.1-0.4-0.3l-0.8-2.3c0,0,0-0.1,0-0.1
		c0-0.2,0.1-0.3,0.3-0.3l0.8,0c1,0,1.7-0.1,2.1-0.3c0.4-0.2,0.6-0.6,0.6-1.2v-2.1c-1,0.2-2.4,0.5-4,0.7H1.2c-0.2,0-0.3-0.1-0.3-0.3
		l-0.4-2.4l0-0.1c0-0.1,0.1-0.2,0.3-0.3c1.2-0.1,2.8-0.4,4.5-0.7v-3.3H1c-0.2,0-0.3-0.1-0.3-0.3v-2.2C0.7,35.1,0.8,35,1,35h4.2v-2.2
		C3.9,32.9,2.8,33,1.8,33c-0.2,0-0.3-0.1-0.4-0.3l-0.4-2.2v-0.1c0-0.2,0.1-0.3,0.3-0.3c1.6,0,3.2-0.1,4.8-0.3c1.6-0.2,3-0.5,4.2-0.8
		l0.1,0c0.2,0,0.3,0.1,0.3,0.2l0.9,2c0,0,0,0.1,0,0.2c0,0.1-0.1,0.2-0.2,0.3c-0.9,0.3-2,0.5-3.1,0.6V35h4.2
		c-0.1-1.3-0.2-3.2-0.2-5.8c0-0.2,0.1-0.3,0.3-0.3h2.3c0.2,0,0.4,0.1,0.4,0.3c0,2.3,0.1,4.2,0.2,5.8h6.1c0.2,0,0.3,0.1,0.3,0.3v2.2
		c0,0.2-0.1,0.3-0.3,0.3h-5.8c0.2,1.6,0.4,3,0.7,4.2c0.8-1.1,1.4-2.2,1.8-3.4c0.1-0.2,0.2-0.3,0.4-0.2l2,1c0.2,0.1,0.2,0.2,0.2,0.5
		c-0.8,2-1.9,3.8-3.4,5.4c0.2,0.4,0.4,0.8,0.5,1c0.3,0.5,0.6,0.8,0.9,0.8c0.3,0,0.6-0.3,0.8-0.8c0.2-0.5,0.4-1.2,0.5-2
		c0-0.2,0.1-0.3,0.2-0.3c0.1,0,0.2,0,0.2,0.1l1.7,1.8c0.1,0.1,0.1,0.2,0.1,0.3v0.1c-0.2,1.3-0.6,2.4-1.3,3.2
		c-0.7,0.8-1.4,1.2-2.3,1.2C18.2,50.8,17.7,50.6,17.1,50.2z M18.5,34.3c-0.2-0.6-0.6-1.2-1-1.9c-0.4-0.7-0.9-1.3-1.3-1.8
		c-0.1-0.1-0.1-0.1-0.1-0.2c0-0.1,0.1-0.2,0.2-0.2l1.9-0.8c0.1,0,0.1,0,0.2,0c0.1,0,0.2,0,0.3,0.1c1.1,1.2,2,2.5,2.6,3.7
		c0,0,0,0.1,0,0.2c0,0.1-0.1,0.2-0.2,0.3l-2.1,0.9c0,0-0.1,0-0.2,0C18.6,34.6,18.5,34.5,18.5,34.3z"/>
	<path d="M26,41.5v-1.9c0-0.2,0.1-0.3,0.3-0.3h20.2c0.2,0,0.3,0.1,0.3,0.3v1.9c0,0.2-0.1,0.3-0.3,0.3h-8.4v1.4h7
		c0.2,0,0.3,0.1,0.3,0.3v1.7c0,0.2-0.1,0.3-0.3,0.3h-7v1.8c0.6,0,1.6,0,2.9,0c2.4,0,4.4-0.1,6-0.2h0c0.2,0,0.3,0.1,0.3,0.2
		c0,0,0,0.1,0,0.1l-0.7,2.2c0,0.2-0.2,0.3-0.4,0.3c-1.8,0.1-3.3,0.2-4.7,0.2c-1.8,0-3.4-0.1-4.7-0.2c-1.6-0.2-2.9-0.4-3.9-0.8
		c-1-0.4-1.9-0.9-2.6-1.7c-0.7,1.2-1.5,2.2-2.3,3c0,0,0,0-0.1,0.1c0,0-0.1,0-0.1,0c-0.1,0-0.1,0-0.2-0.1l-2.1-1.4
		c-0.1-0.1-0.2-0.2-0.2-0.2c0-0.1,0-0.2,0.1-0.2c0.9-0.8,1.7-1.7,2.4-2.7s1-2.1,1.3-3.3c0-0.2,0.2-0.3,0.4-0.3l2.4,0.4
		c0.1,0,0.2,0.1,0.2,0.1c0,0.1,0.1,0.2,0,0.3c-0.1,0.5-0.3,1.2-0.6,1.8c0.4,0.5,0.8,1,1.4,1.3c0.5,0.3,1.2,0.6,2,0.8v-5.2h-8.7
		C26.1,41.8,26,41.7,26,41.5z M28.1,29.4h16.7c0.2,0,0.3,0.1,0.3,0.3v8.1c0,0.2-0.1,0.3-0.3,0.3H28.1c-0.2,0-0.3-0.1-0.3-0.3v-8.1
		C27.8,29.5,27.9,29.4,28.1,29.4z M30.9,31.7v1.2h11.2v-1.2H30.9z M30.9,34.7V36h11.2v-1.3H30.9z"/>
	<path d="M53.2,50.4V39c-0.5,0.7-1,1.2-1.4,1.7c-0.1,0.1-0.2,0.1-0.2,0.1c-0.1,0-0.2-0.1-0.2-0.2l-0.9-2.9l0-0.1c0-0.1,0-0.2,0-0.2
		l0.1-0.1c1-0.9,1.8-2.1,2.6-3.5c0.8-1.4,1.4-2.9,1.9-4.6c0-0.2,0.1-0.2,0.2-0.3c0.1,0,0.1,0,0.2,0l2.5,0.4c0.2,0,0.3,0.1,0.3,0.3
		c0,0.1,0,0.1,0,0.1c-0.5,1.8-1.2,3.4-2.1,5v15.7c0,0.2-0.1,0.3-0.3,0.3h-2.4C53.3,50.7,53.2,50.6,53.2,50.4z M59,48.1l-2.2-1.1
		c-0.1-0.1-0.2-0.2-0.2-0.3c0-0.1,0-0.1,0.1-0.2c1.3-2,2.1-4.3,2.5-6.8c0-0.2,0.1-0.3,0.2-0.3c0.1,0,0.1,0,0.2,0l2.2,0.5
		c0.1,0,0.2,0.1,0.3,0.2v0.2c-0.2,1.3-0.5,2.6-1,4c-0.4,1.4-1,2.6-1.6,3.6c0,0.1-0.1,0.2-0.2,0.2C59.1,48.2,59.1,48.2,59,48.1z
		 M70.4,39.3l-2.2-0.8c-0.1,0-0.2-0.1-0.2-0.2c0-0.1,0-0.2,0-0.2c0.6-1.4,0.9-2.7,1-3.9h-6.7c-0.3,0.9-0.7,1.7-1.1,2.4
		c-0.4,0.7-0.9,1.4-1.5,2.2c-0.1,0.1-0.2,0.2-0.2,0.2c-0.1,0-0.1,0-0.2-0.1l-2-1.9c-0.1-0.1-0.1-0.2-0.1-0.2s0-0.2,0.1-0.2
		c1-1.2,1.7-2.4,2.2-3.5c0.4-1.1,0.8-2.4,1-3.8c0-0.1,0.1-0.2,0.2-0.3h0.1l2.5,0.3c0.2,0,0.3,0.1,0.3,0.2v0.2
		c-0.1,0.6-0.2,1.2-0.4,1.8h8.6c0.2,0,0.3,0.2,0.3,0.5c-0.1,2.7-0.5,5.1-1.2,7.2c0,0.2-0.2,0.2-0.3,0.2
		C70.5,39.3,70.4,39.3,70.4,39.3z M61.3,50.6c-0.1,0-0.1-0.1-0.2-0.2l-0.9-2.3c0,0,0-0.1,0-0.1c0-0.1,0.1-0.2,0.2-0.2h0.1
		c0.2,0,0.5,0,0.9,0c0.6,0,1,0,1.3-0.1c0.3-0.1,0.4-0.2,0.5-0.4c0.1-0.2,0.1-0.4,0.1-0.8V36.3c0-0.2,0.1-0.3,0.3-0.3h2.3
		c0.2,0,0.3,0.1,0.3,0.3v11.1c0,1.2-0.4,2.1-1.2,2.6c-0.8,0.5-2,0.7-3.5,0.7C61.4,50.6,61.4,50.6,61.3,50.6z M69.9,48.1
		c-0.5-0.9-1-2-1.5-3.4c-0.5-1.4-0.9-2.7-1.2-4l0-0.1c0-0.1,0.1-0.2,0.3-0.3l2-0.6c0,0,0.1,0,0.1,0c0.1,0,0.2,0.1,0.3,0.3
		c0.3,1.1,0.7,2.3,1.1,3.5c0.5,1.2,1,2.3,1.5,3.2c0,0,0,0.1,0,0.2c0,0.1-0.1,0.2-0.2,0.3l-2.1,1.2c-0.1,0-0.1,0-0.2,0
		C70.1,48.3,70,48.2,69.9,48.1z"/>
	<path d="M80.7,50.7h-2.2c-0.2,0-0.3-0.1-0.3-0.3V39.3c-0.4,0.6-0.9,1.2-1.3,1.6C76.8,41,76.7,41,76.7,41c-0.1,0-0.2-0.1-0.2-0.2
		l-0.9-3c0,0,0-0.1,0-0.1c0-0.1,0-0.2,0.1-0.3c0.9-0.9,1.7-2.1,2.4-3.6c0.7-1.5,1.1-3,1.4-4.5c0-0.2,0.2-0.3,0.3-0.3h0.1l2.3,0.4
		c0.1,0,0.2,0.1,0.2,0.1c0,0.1,0.1,0.2,0,0.3c-0.3,1.7-0.8,3.3-1.4,4.8v16C81.1,50.6,80.9,50.7,80.7,50.7z M85,50.7h-2
		c-0.2,0-0.3-0.1-0.3-0.3V29.7c0-0.2,0.1-0.3,0.3-0.3h6.1c0.2,0,0.3,0.1,0.3,0.3v9.8c0,0.2-0.1,0.3-0.3,0.3h-3.7v10.5
		C85.4,50.6,85.3,50.7,85,50.7z M85.3,31.7v1.8h1.7v-1.8H85.3z M85.3,35.7v1.9h1.7v-1.9H85.3z M90.4,39.5v-9.8
		c0-0.2,0.1-0.3,0.3-0.3h6.1c0.2,0,0.3,0.1,0.3,0.3v16.8c0,1.2-0.1,2-0.3,2.6c-0.2,0.6-0.6,1-1.1,1.2c-0.5,0.2-1.4,0.3-2.4,0.3h-0.6
		c-0.2,0-0.3-0.1-0.4-0.3l-0.8-2.2c0,0,0-0.1,0-0.1c0-0.2,0.1-0.2,0.3-0.2l0.7,0c0.8,0,1.3-0.1,1.6-0.3c0.3-0.2,0.4-0.5,0.4-1v-6.8
		h-3.8C90.5,39.9,90.4,39.8,90.4,39.5z M94.6,31.7h-1.8v1.8h1.8V31.7z M92.8,35.7v1.9h1.8v-1.9H92.8z"/>
	<path d="M110.3,49.7h-8c-0.2,0-0.3-0.1-0.3-0.3v-17c0-0.2,0.1-0.3,0.3-0.3h1.7c0.5-1,0.8-1.9,1-2.8c0-0.2,0.2-0.3,0.3-0.3h0.1
		l2.3,0.3c0.3,0,0.3,0.2,0.3,0.4c-0.3,1-0.6,1.8-0.9,2.4h3.2c0.2,0,0.3,0.1,0.3,0.3V35c0.6-0.8,1.1-1.7,1.5-2.7c0.4-1,0.8-2.1,1-3.1
		c0-0.2,0.2-0.3,0.3-0.3h0.1l2.2,0.3c0.1,0,0.2,0.1,0.2,0.1s0.1,0.2,0,0.3c-0.1,0.6-0.4,1.3-0.6,2.1h6.4c0.2,0,0.3,0.1,0.3,0.3
		c0,0.2,0,1.8,0,4.8c0,3.4-0.1,6-0.2,7.5c-0.1,1.6-0.4,2.8-0.9,3.7c-0.5,0.9-1.1,1.6-2.1,2s-2.1,0.6-3.7,0.6c-0.2,0-0.3,0-0.5,0
		c-0.2,0-0.3-0.1-0.3-0.3l-0.9-2.4c0,0,0-0.1,0-0.1c0-0.1,0.1-0.2,0.3-0.2c1.2,0,2.2,0,2.9-0.3c0.7-0.2,1.2-0.6,1.5-1.1
		c0.3-0.5,0.5-1.3,0.6-2.2c0.1-1.6,0.2-3.5,0.2-5.7c0-1.2,0-2.4,0-3.8h-4.8c-0.5,1.2-1.1,2.1-1.8,2.8c-0.1,0.1-0.1,0.1-0.2,0.1
		c-0.1,0-0.1,0-0.2-0.1l-1.5-0.8v12.8C110.6,49.6,110.5,49.7,110.3,49.7z M104.7,34.7v4.6h3.1v-4.6H104.7z M104.7,42v4.9h3.1V42
		H104.7z M112.2,39c-0.1-0.1-0.1-0.2-0.1-0.2c0-0.1,0.1-0.2,0.2-0.2l1.9-1c0,0,0.1,0,0.2,0c0.1,0,0.2,0,0.3,0.1
		c0.6,0.7,1.1,1.5,1.5,2.4c0.5,0.9,0.9,1.7,1.2,2.6c0,0,0,0.1,0,0.1c0,0.1-0.1,0.2-0.2,0.3l-2.1,1l-0.2,0c-0.1,0-0.2-0.1-0.2-0.2
		C114.1,42.1,113.2,40.4,112.2,39z"/>
	<path d="M128.6,42.6v-2.2c0-0.2,0.1-0.3,0.3-0.3h6.7v-3.7h-7.9c-0.2,0-0.3-0.1-0.3-0.3v-2.2c0-0.2,0.1-0.3,0.3-0.3h11.5
		c-1-0.5-2.1-0.9-3.3-1.3c-1.2-0.4-2.4-0.7-3.5-0.9c-0.2,0-0.3-0.1-0.3-0.2c0-0.1,0-0.1,0.1-0.2l1.3-1.9c0.1-0.1,0.2-0.2,0.3-0.2
		h0.1c2.6,0.5,5,1.2,7.2,2.2c0.1,0,0.2,0.1,0.2,0.2c0,0.1,0,0.1-0.1,0.2l-1.3,2h6.9c0.2,0,0.3,0.1,0.3,0.3V36c0,0.2-0.1,0.3-0.3,0.3
		h-8v3.7h6.9c0.2,0,0.3,0.1,0.3,0.3v2.2c0,0.2-0.1,0.3-0.3,0.3h-6.9v4.2h8.9c0.2,0,0.3,0.1,0.3,0.3v2.2c0,0.2-0.1,0.3-0.3,0.3h-21
		c-0.2,0-0.3-0.1-0.3-0.3v-2.2c0-0.2,0.1-0.3,0.3-0.3h8.8v-4.2h-6.7C128.7,42.9,128.6,42.8,128.6,42.6z"/>
	<path d="M160.9,50.7c-0.2,0-0.3-0.1-0.4-0.3l-0.8-2l0-0.1c0-0.2,0.1-0.2,0.3-0.2l2.2,0h0.6c1.7,0,2.9-0.1,3.6-0.3
		c0.7-0.2,1.1-0.5,1.2-0.9c0.1-0.3,0.1-0.6,0.1-1h-11.8c-0.2,0-0.3-0.1-0.3-0.2c0-0.1,0-0.1,0-0.1c0.4-0.9,0.7-2,1-3.2
		c-1.5,0.5-2.7,0.8-3.6,1.1c0,0-0.1,0-0.1,0c-0.1,0-0.2-0.1-0.3-0.2l-1.1-2.4c0-0.1,0-0.1,0-0.2c0-0.2,0.1-0.2,0.3-0.3
		c1.7-0.3,3.5-0.6,5.2-1c1.8-0.4,3.3-0.9,4.8-1.5h-9.3c-0.2,0-0.3-0.1-0.3-0.3v-1.9c0-0.2,0.1-0.3,0.3-0.3h7.8v-1.9h-5.8
		c-0.2,0-0.3-0.1-0.3-0.3v-1.8c0-0.2,0.1-0.3,0.3-0.3h5.8v-1.7c0-0.2,0.1-0.3,0.3-0.3h2.4c0.2,0,0.3,0.1,0.3,0.3v1.7h4.8
		c0.2,0,0.3,0.1,0.3,0.3v1.2c0.5-0.6,1.1-1.3,1.7-2.1c0.1-0.1,0.2-0.2,0.3-0.2l0.2,0l2.4,1.2c0.1,0.1,0.2,0.2,0.2,0.3
		c0,0.1,0,0.2-0.1,0.2c-0.9,1.1-1.9,2.2-3.1,3.2h3.2c0.2,0,0.3,0.1,0.3,0.3v1.9c0,0.2-0.1,0.3-0.3,0.3h-6.2
		c-1.1,0.6-2.2,1.2-3.3,1.7h8.4c0.2,0,0.3,0.1,0.3,0.3v1.8c0,0.2-0.1,0.3-0.3,0.3h-12l-0.4,1.5h11.2c0.2,0,0.3,0.1,0.3,0.3
		c0,1.4-0.1,2.5-0.2,3.4c-0.1,0.9-0.4,1.6-1,2.2c-0.5,0.5-1.4,0.9-2.5,1.1c-1.2,0.2-2.8,0.3-4.8,0.3L160.9,50.7z M167.5,33.2h-4.4
		v1.9h2.1C166.1,34.6,166.9,33.9,167.5,33.2z"/>
	<path d="M179.5,49.9V36.5h-1.9c-0.2,0-0.3-0.1-0.3-0.3v-5.1c0-0.2,0.1-0.3,0.3-0.3h8.4c-0.2-0.4-0.4-0.8-0.8-1.3c0,0,0-0.1,0-0.1
		s0-0.1,0.1-0.2c0-0.1,0.1-0.1,0.2-0.1l2.8-0.2h0.1c0.2,0,0.3,0.1,0.4,0.2c0.2,0.4,0.4,0.9,0.7,1.8h8.4c0.2,0,0.3,0.1,0.3,0.3v5.1
		c0,0.2-0.1,0.3-0.3,0.3h-2.4v4.7c0,0.2-0.1,0.3-0.3,0.3h-12.5v1.5h13.8c0.2,0,0.3,0.1,0.3,0.3v6.5c0,0.2-0.1,0.3-0.3,0.3h-16.5
		C179.6,50.2,179.5,50.1,179.5,49.9z M195.1,34.8v-1.5h-14.8v1.5H195.1z M192.3,39.1v-2h-9.8v2H192.3z M193.6,47.6v-2.1h-11.1v2.1
		H193.6z"/>
</g>
<g class="st0">
	<path d="M3.8,78.8v-6.3c-0.8,0.4-1.5,0.8-2.1,1c0,0-0.1,0-0.1,0c-0.1,0-0.2-0.1-0.3-0.2L0,71.1c0,0,0-0.1,0-0.2
		c0-0.1,0.1-0.2,0.2-0.2c1.8-0.6,3.3-1.4,4.5-2.3h-4c-0.2,0-0.3-0.1-0.3-0.3v-1.9c0-0.2,0.1-0.3,0.3-0.3H7l0.6-1H2.4
		c-0.2,0-0.3-0.1-0.3-0.3v-1.7c0-0.2,0.1-0.3,0.3-0.3h6.1c0-0.1,0.1-0.4,0.3-1H1.6c-0.2,0-0.3-0.1-0.3-0.3v-1.8
		c0-0.2,0.1-0.3,0.3-0.3h7.7c0-0.2,0-0.4,0-0.6c0-0.2,0-0.4,0-0.6c0-0.2,0.1-0.3,0.4-0.3l2.5,0c0.2,0,0.3,0.1,0.3,0.3
		c0,0.2,0,0.6-0.1,1.1h8.4c0.2,0,0.3,0.1,0.3,0.3v1.8c0,0.2-0.1,0.3-0.3,0.3H12l-0.3,1h8.3c0.2,0,0.3,0.1,0.3,0.3v1.7
		c0,0.2-0.1,0.3-0.3,0.3h-9.2c-0.1,0.2-0.2,0.3-0.3,0.5c-0.1,0.2-0.2,0.3-0.3,0.5h11.4c0.2,0,0.3,0.1,0.3,0.3v1.9
		c0,0.2-0.1,0.3-0.3,0.3H18c1.2,1,2.6,1.8,4.3,2.3c0.2,0,0.2,0.1,0.2,0.2c0,0.1,0,0.1,0,0.2l-1.2,2.2c-0.1,0.2-0.2,0.2-0.4,0.1
		c-0.9-0.4-1.6-0.7-2.2-1.1v6.5c0,0.2-0.1,0.3-0.3,0.3H4.2C4,79.1,3.8,79,3.8,78.8z M15.7,73.4v-1.2H6.8v1.2H15.7z M15.7,76.7v-1.2
		H6.8v1.2H15.7z M14.3,68.4H8.8c-0.3,0.4-0.8,0.9-1.4,1.5h8.2C15.2,69.5,14.7,68.9,14.3,68.4z"/>
	<path d="M34.9,79.3v-2.2h-7.7c-0.2,0-0.3-0.1-0.3-0.3V75c0-0.2,0.1-0.3,0.3-0.3h7.7v-1.1h-9.1c-0.2,0-0.3-0.1-0.3-0.3v-1.9
		c0-0.2,0.1-0.3,0.3-0.3h9.1v-5.7h-7.8c-0.2,0-0.3-0.1-0.3-0.3v-1.7c0-0.2,0.1-0.3,0.3-0.3h18.6c0.2,0,0.3,0.1,0.3,0.3V65
		c0,0.2-0.1,0.3-0.3,0.3h-7.9V71H47c0.2,0,0.3,0.1,0.3,0.3v1.9c0,0.2-0.1,0.3-0.3,0.3h-9.1v1.1h7.7c0.2,0,0.3,0.1,0.3,0.3v1.7
		c0,0.2-0.1,0.3-0.3,0.3h-7.7v2.2c0,0.2-0.1,0.3-0.3,0.3h-2.3C35,79.6,34.9,79.5,34.9,79.3z M30.3,62.1v-0.8h-4
		c-0.2,0-0.3-0.1-0.3-0.3v-1.9c0-0.2,0.1-0.3,0.3-0.3h4V58c0-0.2,0.1-0.3,0.3-0.3H33c0.2,0,0.3,0.1,0.3,0.3v0.8h2.4
		c0.2,0,0.3,0.1,0.3,0.3V61c0,0.2-0.1,0.3-0.3,0.3h-2.4v0.8c0,0.2-0.1,0.3-0.3,0.3h-2.4C30.4,62.5,30.3,62.3,30.3,62.1z M28.8,70.3
		v-0.9h-2.3c-0.2,0-0.3-0.1-0.3-0.3v-1.8c0-0.2,0.1-0.3,0.3-0.3h2.3v-0.8c0-0.2,0.1-0.3,0.3-0.3h2.2c0.2,0,0.3,0.1,0.3,0.3v0.8h2.2
		c0.2,0,0.3,0.1,0.3,0.3v1.8c0,0.2-0.1,0.3-0.3,0.3h-2.2v0.9c0,0.2-0.1,0.3-0.3,0.3h-2.2C28.9,70.7,28.8,70.5,28.8,70.3z M39.5,62.1
		v-0.8h-2.2c-0.2,0-0.3-0.1-0.3-0.3v-1.9c0-0.2,0.1-0.3,0.3-0.3h2.2V58c0-0.2,0.1-0.3,0.3-0.3h2.4c0.2,0,0.3,0.1,0.3,0.3v0.8h4
		c0.2,0,0.3,0.1,0.3,0.3V61c0,0.2-0.1,0.3-0.3,0.3h-4v0.8c0,0.2-0.1,0.3-0.3,0.3h-2.4C39.6,62.5,39.5,62.3,39.5,62.1z M41.1,70.3
		v-0.9h-2.2c-0.2,0-0.3-0.1-0.3-0.3v-1.8c0-0.2,0.1-0.3,0.3-0.3h2.2v-0.8c0-0.2,0.1-0.3,0.3-0.3h2.2c0.2,0,0.3,0.1,0.3,0.3v0.8h2.3
		c0.2,0,0.3,0.1,0.3,0.3v1.8c0,0.2-0.1,0.3-0.3,0.3H44v0.9c0,0.2-0.1,0.3-0.3,0.3h-2.2C41.2,70.7,41.1,70.5,41.1,70.3z"/>
	<path d="M50.5,77c0-0.1,0.1-0.2,0.2-0.3c0.7-0.4,1.4-0.9,2-1.4c0.6-0.6,1.2-1.1,1.7-1.8c-0.9-0.7-1.9-1.4-2.9-2.1
		c-0.2-0.1-0.2-0.3-0.2-0.4c0.5-2,1-4.3,1.3-6.9h-1.4c-0.2,0-0.3-0.1-0.3-0.3v-2.2c0-0.2,0.1-0.3,0.3-0.3h1.7
		c0.1-1.6,0.1-2.6,0.1-3.2c0-0.2,0.1-0.3,0.3-0.3l2.2,0c0.2,0,0.3,0.1,0.3,0.3l0,0.9c0,1-0.1,1.7-0.1,2.3h3.7c0.2,0,0.3,0.1,0.3,0.3
		c0,2.5-0.1,4.6-0.4,6.4s-0.6,3.4-1.2,4.8c0.8,0.7,1.5,1.3,2.1,1.8c0.1,0.1,0.1,0.2,0.1,0.3c0,0.1,0,0.1-0.1,0.2l-1.5,2.1
		c-0.1,0.1-0.1,0.2-0.2,0.2c-0.1,0-0.1,0-0.2-0.1c-0.5-0.6-1.1-1.2-1.8-1.8c-0.5,0.7-1.1,1.4-1.8,2.1c-0.7,0.7-1.4,1.3-2.2,1.8
		c-0.1,0-0.1,0.1-0.2,0.1c-0.1,0-0.2-0.1-0.3-0.2l-1.5-2.1C50.5,77.1,50.5,77,50.5,77z M55.8,71c0.4-0.9,0.6-1.9,0.8-3.2
		s0.3-2.5,0.3-3.8h-1.6c-0.3,2.4-0.6,4.3-1.1,5.9C54.8,70.3,55.3,70.6,55.8,71z M59.6,78.5v-2.2c0-0.2,0.1-0.3,0.3-0.3h1.2V58.7
		c0-0.2,0.1-0.3,0.3-0.3H71c0.2,0,0.3,0.1,0.3,0.3V76h1c0.2,0,0.3,0.1,0.3,0.3v2.2c0,0.2-0.1,0.3-0.3,0.3H59.9
		C59.7,78.9,59.6,78.8,59.6,78.5z M68.5,61.1h-4.6v3.1h4.6V61.1z M68.5,66.8h-4.6V70h4.6V66.8z M68.5,72.6h-4.6V76h4.6V72.6z"/>
	<path d="M75.7,77c0-0.1,0.1-0.2,0.2-0.3c0.7-0.4,1.4-0.9,2-1.4c0.6-0.6,1.2-1.1,1.7-1.8c-0.9-0.7-1.9-1.4-2.9-2.1
		c-0.2-0.1-0.2-0.3-0.2-0.4c0.5-2,1-4.3,1.3-6.9h-1.4c-0.2,0-0.3-0.1-0.3-0.3v-2.2c0-0.2,0.1-0.3,0.3-0.3h1.7
		c0.1-1.6,0.1-2.6,0.1-3.2c0-0.2,0.1-0.3,0.3-0.3l2.2,0c0.2,0,0.3,0.1,0.3,0.3l0,0.9c0,1-0.1,1.7-0.1,2.3h3.7c0.2,0,0.3,0.1,0.3,0.3
		c0,2.5-0.1,4.6-0.4,6.4s-0.6,3.4-1.2,4.8c0.8,0.7,1.5,1.3,2.1,1.8c0.1,0.1,0.1,0.2,0.1,0.3c0,0.1,0,0.1-0.1,0.2L84,77.2
		c-0.1,0.1-0.1,0.2-0.2,0.2c-0.1,0-0.1,0-0.2-0.1c-0.5-0.6-1.1-1.2-1.8-1.8c-0.5,0.7-1.1,1.4-1.8,2.1c-0.7,0.7-1.4,1.3-2.2,1.8
		c-0.1,0-0.1,0.1-0.2,0.1c-0.1,0-0.2-0.1-0.3-0.2l-1.5-2.1C75.7,77.1,75.7,77,75.7,77z M81,71c0.4-0.9,0.6-1.9,0.8-3.2
		s0.3-2.5,0.3-3.8h-1.6c-0.3,2.4-0.6,4.3-1.1,5.9C80,70.3,80.5,70.6,81,71z M84.8,78.5v-2.2c0-0.2,0.1-0.3,0.3-0.3h1.2V58.7
		c0-0.2,0.1-0.3,0.3-0.3h9.6c0.2,0,0.3,0.1,0.3,0.3V76h1c0.2,0,0.3,0.1,0.3,0.3v2.2c0,0.2-0.1,0.3-0.3,0.3H85.1
		C84.9,78.9,84.8,78.8,84.8,78.5z M93.7,61.1h-4.6v3.1h4.6V61.1z M93.7,66.8h-4.6V70h4.6V66.8z M93.7,72.6h-4.6V76h4.6V72.6z"/>
	<path d="M102.7,67.2c0.4-0.4,0.9-0.6,1.5-0.6s1.1,0.2,1.5,0.6c0.4,0.4,0.6,0.9,0.6,1.5s-0.2,1.1-0.6,1.5c-0.4,0.4-0.9,0.6-1.5,0.6
		s-1.1-0.2-1.5-0.6s-0.6-0.9-0.6-1.4S102.3,67.6,102.7,67.2z M110.6,70.1c-0.4-0.4-0.6-0.9-0.6-1.5s0.2-1.1,0.6-1.5
		c0.4-0.4,0.9-0.6,1.5-0.6s1.1,0.2,1.5,0.6c0.4,0.4,0.6,0.9,0.6,1.5s-0.2,1.1-0.6,1.5s-0.9,0.6-1.5,0.6S111,70.4,110.6,70.1z
		 M118.4,67.2c0.4-0.4,0.9-0.6,1.5-0.6c0.6,0,1.1,0.2,1.5,0.6c0.4,0.4,0.6,0.9,0.6,1.4s-0.2,1.1-0.6,1.4s-0.9,0.6-1.5,0.6
		c-0.6,0-1.1-0.2-1.5-0.6c-0.4-0.4-0.6-0.9-0.6-1.5S118,67.5,118.4,67.2z"/>
</g>
</svg>
