<!-- Generator: Adobe Illustrator 25.0.0, SVG Export Plug-In  -->
<svg version="1.1" xmlns="http://www.w3.org/2000/svg" xmlns:xlink="http://www.w3.org/1999/xlink" x="0px" y="0px" width="135px"
	 height="106px" viewBox="0 0 135 106" style="overflow:visible;enable-background:new 0 0 135 106;" xml:space="preserve">
<defs>
</defs>
<g>
	<path d="M62.6,1L23.3,29.3H6.2c-3.4,0-6.2,2.8-6.2,6.2v35c0,3.4,2.8,6.2,6.2,6.2h17.2L62.6,105c3.4,2.5,8.2,0,8.2-4.2V5.2
		C70.7,1,66-1.5,62.6,1z"/>
	<path d="M94.9,19.6c-2.6-1.6-5.9-0.8-7.5,1.8c-1.6,2.6-0.8,5.9,1.7,7.6c0.4,0.3,10.2,6.8,10.2,24s-9.8,23.7-10.2,24
		c-2.6,1.6-3.4,5-1.8,7.6c1,1.7,2.9,2.6,4.7,2.6c1,0,2-0.3,2.9-0.8c0.6-0.4,15.5-9.7,15.5-33.4S95.6,20,94.9,19.6z"/>
	<path d="M112.1,2.9c-2.6-1.6-5.9-0.8-7.5,1.8c-1.6,2.6-0.8,6,1.8,7.6C107,12.8,124,23.8,124,53c0,29.2-16.9,40.2-17.6,40.7
		c-2.6,1.6-3.4,5-1.8,7.6c1,1.7,2.9,2.6,4.7,2.6c1,0,2-0.3,2.9-0.8C113,102.5,135,88.7,135,53S113,3.5,112.1,2.9z"/>
</g>
</svg>
