<!-- Generator: Adobe Illustrator 25.0.0, SVG Export Plug-In  -->
<svg version="1.1" xmlns="http://www.w3.org/2000/svg" xmlns:xlink="http://www.w3.org/1999/xlink" x="0px" y="0px" width="300.4px"
	 height="18.5px" viewBox="0 0 300.4 18.5" style="overflow:visible;enable-background:new 0 0 300.4 18.5;" xml:space="preserve">
<defs>
</defs>
<g>
	<path d="M0,4.2V2.6c0-0.2,0.1-0.3,0.3-0.3h2.2C2.4,1.9,2.2,1.4,2,1C1.9,1,1.9,0.9,1.9,0.8c0-0.1,0.1-0.2,0.2-0.2l1.7-0.4
		c0.1,0,0.1,0,0.2,0c0.1,0,0.2,0.1,0.3,0.2c0.2,0.4,0.4,1.1,0.7,1.9h1.9c0.2,0,0.3,0.1,0.3,0.3v1.6c0,0.2-0.1,0.3-0.3,0.3H0.3
		C0.1,4.5,0,4.4,0,4.2z M0.5,17.8V12c0-0.2,0.1-0.3,0.3-0.3h5.7c0.2,0,0.3,0.1,0.3,0.3v5.8c0,0.2-0.1,0.3-0.3,0.3H0.9
		C0.6,18.1,0.5,18,0.5,17.8z M0.7,7.3V5.9c0-0.2,0.1-0.3,0.3-0.3h5.3c0.2,0,0.3,0.1,0.3,0.3v1.4c0,0.2-0.1,0.3-0.3,0.3H1.1
		C0.9,7.6,0.7,7.5,0.7,7.3z M0.7,10.3V8.9c0-0.2,0.1-0.3,0.3-0.3h5.3c0.2,0,0.3,0.1,0.3,0.3v1.4c0,0.2-0.1,0.3-0.3,0.3H1.1
		C0.9,10.6,0.7,10.5,0.7,10.3z M4.7,16v-2.3h-2V16H4.7z M17.4,9.1v6.4c0,0.7-0.1,1.2-0.3,1.6s-0.5,0.7-1,0.9
		c-0.5,0.2-1.3,0.3-2.3,0.3c-0.1,0-0.2,0-0.3,0c-0.1,0-0.2,0-0.2-0.1c0,0-0.1-0.1-0.1-0.2l-0.5-1.4c0,0,0-0.1,0-0.1
		c0-0.1,0-0.1,0.1-0.2s0.1-0.1,0.2-0.1l0.5,0c0.4,0,0.8,0,1-0.1s0.4-0.2,0.4-0.3s0.1-0.3,0.1-0.5v-0.1h-4.7
		c-0.2,1.1-0.5,2.2-1.1,3.1c0,0.1-0.1,0.1-0.2,0.1c0,0-0.1,0-0.1,0l-1.8-0.9C7,17.5,7,17.5,7,17.4c0,0,0-0.1,0.1-0.2
		c0.4-0.7,0.7-1.5,0.8-2.3C8,14,8,13,8,11.8v-0.6V9.1C8,9,8.1,8.9,8.3,8.9h8.8C17.3,8.9,17.4,9,17.4,9.1z M8,5.2V4.3
		C8,4.1,8.1,4,8.2,4h3.2V3.1H7.7C7.5,3.1,7.4,3,7.4,2.9V1.7c0-0.2,0.1-0.3,0.3-0.3h3.7V0.5c0-0.2,0.1-0.3,0.3-0.3h1.9
		c0.2,0,0.3,0.1,0.3,0.3v0.9h3.8c0.2,0,0.3,0.1,0.3,0.3v1.2c0,0.2-0.1,0.3-0.3,0.3h-3.8V4h3.3c0.2,0,0.3,0.1,0.3,0.3v0.9
		c0,0.2-0.1,0.3-0.3,0.3h-3.3v0.9H18c0.2,0,0.3,0.1,0.3,0.3v1.2c0,0.2-0.1,0.3-0.3,0.3H7.5C7.3,8.1,7.2,8,7.2,7.8V6.6
		c0-0.2,0.1-0.3,0.3-0.3h3.9V5.5H8.2C8.1,5.5,8,5.4,8,5.2z M14.9,13.9V13h-4.5l0,0.9H14.9z M14.9,11.5v-1h-4.5v1H14.9z"/>
	<path d="M23.3,18.2v-6.5c-0.7,0.6-1.3,1-1.7,1.3c-0.1,0-0.1,0.1-0.2,0.1c-0.1,0-0.2-0.1-0.2-0.2l-1.1-1.9c0-0.1,0-0.1,0-0.2
		c0-0.1,0.1-0.2,0.2-0.2c1.1-0.6,2.1-1.4,3.1-2.3c0.9-0.9,1.7-2,2.4-3.1H21c-0.2,0-0.3-0.1-0.3-0.3V2.9c0-0.2,0.1-0.3,0.3-0.3h5.8
		c0.3-0.7,0.5-1.4,0.6-2.1c0-0.1,0.1-0.2,0.2-0.2c0,0,0.1,0,0.2,0l2.4,0.2c0.1,0,0.2,0.1,0.2,0.2c0,0.1,0,0.1,0,0.1
		C30.2,1.4,30,2,29.8,2.6h8c0.2,0,0.3,0.1,0.3,0.3v1.9c0,0.2-0.1,0.3-0.3,0.3h-9.1C28,6.5,27,7.9,25.9,9.2v9c0,0.2-0.1,0.3-0.3,0.3
		h-2C23.4,18.4,23.3,18.3,23.3,18.2z M26.7,17.6v-1.8c0-0.2,0.1-0.3,0.3-0.3h4v-3.8h-3.5c-0.2,0-0.3-0.1-0.3-0.3V9.6
		c0-0.2,0.1-0.3,0.3-0.3H31v-3C31,6.1,31.1,6,31.2,6h2c0.2,0,0.3,0.1,0.3,0.3v3h3.6c0.2,0,0.3,0.1,0.3,0.3v1.8
		c0,0.2-0.1,0.3-0.3,0.3h-3.6v3.8h4.3c0.2,0,0.3,0.1,0.3,0.3v1.8c0,0.2-0.1,0.3-0.3,0.3H27C26.8,17.9,26.7,17.8,26.7,17.6z"/>
	<path d="M48.2,18.2v-2.9h-7.5c-0.2,0-0.3-0.1-0.3-0.3v-1.7c0-0.2,0.1-0.3,0.3-0.3h7.5v-1.2h-0.8c-0.2,0-0.3-0.1-0.3-0.3V5.9
		c-0.3,0.4-0.6,0.8-0.8,1C46.2,7,46.2,7,46.1,7c-0.1,0-0.2,0-0.2-0.1l-0.8-1.3l-0.8,1.6c-0.1,0.1-0.1,0.2-0.2,0.2c0,0-0.1,0-0.2-0.1
		c-0.9-0.5-1.9-0.9-3-1.2c-0.1,0-0.2-0.1-0.2-0.2l0-0.2l0.8-1.6c0.1-0.1,0.2-0.2,0.3-0.2c1.1,0.3,2.2,0.7,3.1,1.2c0-0.1,0-0.1,0-0.1
		c0-0.1,0-0.2,0.1-0.2c0.7-0.6,1.4-1.4,2-2.2C47.5,1.8,48,1,48.3,0.2C48.4,0.1,48.5,0,48.6,0h0.1l1.9,0.3c0.1,0,0.2,0.1,0.2,0.1
		c0,0.1,0,0.1,0,0.2L50,1.9l2.1,0c-0.1-0.2-0.3-0.6-0.6-1.1c0-0.1-0.1-0.1-0.1-0.1c0-0.1,0.1-0.2,0.2-0.2l1.9-0.3h0
		c0.1,0,0.2,0.1,0.3,0.2c0.2,0.5,0.4,1,0.6,1.6h3.2c0.2,0,0.3,0.1,0.3,0.3v1.3c0,0.2-0.1,0.3-0.3,0.3h-3.3v0.9h2.9
		c0.2,0,0.3,0.1,0.3,0.3V6c0,0.2-0.1,0.3-0.3,0.3h-2.9v0.9h2.9c0.2,0,0.3,0.1,0.3,0.3v1.1c0,0.2-0.1,0.3-0.3,0.3h-2.9v0.9H58
		c0.2,0,0.3,0.1,0.3,0.3v1.3c0,0.2-0.1,0.3-0.3,0.3h-7.2v1.2h7.6c0.2,0,0.3,0.1,0.3,0.3V15c0,0.2-0.1,0.3-0.3,0.3h-7.6v2.9
		c0,0.2-0.1,0.3-0.3,0.3h-2C48.3,18.4,48.2,18.3,48.2,18.2z M41.7,12.2l-1-1.8c0,0,0-0.1,0-0.2c0-0.1,0.1-0.2,0.2-0.2
		c0.7-0.3,1.4-0.8,2.2-1.3c0.8-0.5,1.4-1.1,1.9-1.6C45,7,45.1,7,45.2,7c0.1,0,0.2,0.1,0.2,0.2l0.7,1.7c0,0.1,0,0.1,0,0.2
		c0,0.1,0,0.1-0.1,0.2c-0.5,0.5-1.1,1.1-1.9,1.7c-0.8,0.6-1.5,1.1-2.1,1.4c0,0-0.1,0-0.2,0C41.8,12.3,41.8,12.3,41.7,12.2z
		 M44.7,3.8c-0.4-0.3-0.9-0.5-1.4-0.8c-0.5-0.2-1.1-0.4-1.6-0.6c-0.1,0-0.2-0.1-0.2-0.2c0-0.1,0-0.1,0-0.2l0.8-1.5
		c0.1-0.1,0.1-0.2,0.2-0.2l0.1,0c1.1,0.3,2.2,0.7,3.2,1.3c0.1,0.1,0.1,0.1,0.1,0.2l0,0.2l-0.9,1.6c-0.1,0.1-0.1,0.1-0.2,0.1
		C44.9,3.8,44.8,3.8,44.7,3.8z M52.1,4.7v-1h-2.6v1H52.1z M52.1,7.3V6.3h-2.6v0.9H52.1z M52.1,9.9v-1h-2.6v1H52.1z"/>
	<path d="M69,17.8v-6.7c-0.2,0.2-0.4,0.3-0.6,0.5c-0.1,0.1-0.1,0.1-0.2,0.1c-0.1,0-0.2-0.1-0.2-0.2l-0.6-1.4v7.1
		c0,0.2-0.1,0.3-0.3,0.3h-4.9c-0.2,0-0.3-0.1-0.3-0.3v-5.8c-0.2,0.3-0.5,0.7-0.7,1c-0.1,0.1-0.1,0.1-0.2,0.1c-0.1,0-0.2-0.1-0.2-0.2
		L60.2,10c0,0,0-0.1,0-0.1c0-0.1,0-0.2,0.1-0.3c0.6-0.8,1.1-1.8,1.6-2.9c0.5-1.1,0.8-2.3,1-3.5h-1.7c-0.2,0-0.3-0.1-0.3-0.3V1.2
		c0-0.2,0.1-0.3,0.3-0.3h6.5c0.2,0,0.3,0.1,0.3,0.3v0.6c0.1,0,0.1,0,0.1,0h3.7c0.1-0.3,0.2-0.7,0.3-1.3c0-0.2,0.1-0.2,0.2-0.2h0.1
		l2,0.1c0.2,0,0.3,0.1,0.2,0.3c-0.1,0.5-0.2,0.8-0.3,1.1h3.9c0.2,0,0.3,0.1,0.3,0.3v3.4c0,0.2-0.1,0.3-0.3,0.3h-1.7
		c-0.1,0-0.1,0-0.2-0.1c-0.1-0.1-0.1-0.1-0.1-0.2V3.9h-2.7c-0.4,1.1-0.8,2-1.3,2.9h1.6c0-0.1-0.2-0.4-0.4-0.8l-0.3-0.5
		c0,0,0,0,0-0.1c0-0.1,0.1-0.2,0.2-0.3L75,4.9h0.1c0.2,0,0.3,0.1,0.4,0.2c0.3,0.5,0.5,1.1,0.7,1.7h2.1c0.2,0,0.3,0.1,0.3,0.3v1.4
		c0,0.2-0.1,0.3-0.3,0.3h-2.5V10h2.1c0.2,0,0.3,0.1,0.3,0.3v1.2c0,0.2-0.1,0.3-0.3,0.3h-2.1v1.1h2.1c0.2,0,0.3,0.1,0.3,0.3v1.3
		c0,0.2-0.1,0.3-0.3,0.3h-2.1V16h2.8c0.2,0,0.3,0.1,0.3,0.3v1.5c0,0.2-0.1,0.3-0.3,0.3h-9.3C69.1,18.1,69,18,69,17.8z M65.4,15.1v-6
		h-1.3v6H65.4z M71.2,3.9h-1.3v1.7c0,0.2-0.1,0.3-0.3,0.3h-1.6c-0.2,0-0.3-0.1-0.3-0.3V3.3c-0.1,0-0.1,0-0.1,0h-2.3
		c-0.2,1-0.5,2.2-0.9,3.5h2.9c0.2,0,0.3,0.1,0.3,0.3v2.1C69,7.9,70.3,6.1,71.2,3.9z M73.6,10V8.8h-2.2V10H73.6z M73.6,12.9v-1.1
		h-2.2v1.1H73.6z M73.6,16v-1.3h-2.2V16H73.6z"/>
	<path d="M88.5,17.6h-6.7c-0.2,0-0.3-0.1-0.3-0.3V3.1c0-0.2,0.1-0.3,0.3-0.3h1.4c0.4-0.8,0.7-1.6,0.9-2.4c0-0.1,0.1-0.2,0.3-0.2h0.1
		l1.9,0.2c0.2,0,0.3,0.1,0.2,0.3c-0.3,0.8-0.5,1.5-0.8,2h2.7c0.2,0,0.3,0.1,0.3,0.3v2.3c0.5-0.7,0.9-1.4,1.2-2.3
		c0.4-0.8,0.6-1.7,0.9-2.6c0-0.1,0.1-0.2,0.3-0.2h0.1L93,0.5c0.1,0,0.2,0,0.2,0.1c0,0.1,0.1,0.1,0,0.2c-0.1,0.5-0.3,1.1-0.5,1.7h5.4
		c0.2,0,0.3,0.1,0.3,0.3c0,0.2,0,1.5,0,4c0,2.9,0,5-0.1,6.3c-0.1,1.3-0.3,2.3-0.7,3.1c-0.4,0.8-0.9,1.3-1.7,1.7
		c-0.8,0.4-1.8,0.5-3.1,0.5c-0.1,0-0.3,0-0.4,0c-0.1,0-0.2-0.1-0.3-0.2l-0.7-2c0,0,0-0.1,0-0.1c0-0.1,0.1-0.2,0.3-0.2
		c1,0,1.8,0,2.4-0.2c0.6-0.2,1-0.5,1.2-0.9c0.3-0.4,0.4-1.1,0.5-1.9c0.1-1.3,0.2-2.9,0.2-4.7c0-1,0-2,0-3.2h-4
		c-0.4,1-0.9,1.7-1.5,2.4c-0.1,0.1-0.1,0.1-0.2,0.1c-0.1,0-0.1,0-0.2-0.1l-1.2-0.7v10.7C88.7,17.5,88.6,17.6,88.5,17.6z M83.8,5v3.8
		h2.6V5H83.8z M83.8,11.2v4.1h2.6v-4.1H83.8z M90,8.7C90,8.6,90,8.5,90,8.5c0-0.1,0.1-0.2,0.2-0.2l1.6-0.8c0,0,0.1,0,0.2,0
		c0.1,0,0.2,0,0.2,0.1c0.5,0.6,0.9,1.2,1.3,2c0.4,0.7,0.7,1.5,1,2.2c0,0,0,0.1,0,0.1c0,0.1-0.1,0.2-0.2,0.3l-1.7,0.8l-0.2,0
		c-0.1,0-0.2-0.1-0.2-0.2C91.6,11.2,90.9,9.9,90,8.7z"/>
	<path d="M101.5,16.5V1.4c0-0.2,0.1-0.3,0.3-0.3h5.5c0.2,0,0.3,0.1,0.3,0.3v15.1c0,0.2-0.1,0.3-0.3,0.3h-5.5
		C101.6,16.8,101.5,16.7,101.5,16.5z M105.4,7.7V3.5h-1.7v4.2H105.4z M105.4,14.5V9.9h-1.7v4.5H105.4z M112.8,18.2l-0.7-1.8
		c0,0,0-0.1,0-0.1c0-0.1,0.1-0.2,0.3-0.2c0.7,0,1.2,0,1.5-0.1c0.3-0.1,0.6-0.2,0.7-0.3c0.1-0.2,0.2-0.4,0.2-0.7V12h-6.4
		c-0.2,0-0.3-0.1-0.3-0.3V10c0-0.2,0.1-0.3,0.3-0.3h6.4V8.2h-5.7c-0.2,0-0.3-0.1-0.3-0.3V6.2c0-0.2,0.1-0.3,0.3-0.3h3.3V4.2h-4
		c-0.2,0-0.3-0.1-0.3-0.3V2.2c0-0.2,0.1-0.3,0.3-0.3h4V0.5c0-0.2,0.1-0.3,0.3-0.3h2c0.2,0,0.3,0.1,0.3,0.3v1.4h3.8
		c0.2,0,0.3,0.1,0.3,0.3v1.7c0,0.2-0.1,0.3-0.3,0.3h-3.8v1.7h3.5c0.2,0,0.3,0.1,0.3,0.3v1.7c0,0.2-0.1,0.3-0.3,0.3h-1.1v1.5h1.8
		c0.2,0,0.3,0.1,0.3,0.3v1.8c0,0.2-0.1,0.3-0.3,0.3h-1.8v3.4c0,0.8-0.1,1.4-0.2,1.8c-0.2,0.4-0.5,0.7-1,0.9
		c-0.5,0.2-1.3,0.3-2.3,0.3h-0.6C113,18.4,112.9,18.4,112.8,18.2z M111.2,16.3c-0.2-0.5-0.5-1-0.9-1.5s-0.7-1-1.1-1.3
		c-0.1-0.1-0.1-0.1-0.1-0.2c0-0.1,0.1-0.1,0.2-0.2l1.6-0.9c0,0,0.1,0,0.2,0c0.1,0,0.2,0,0.2,0.1c0.4,0.4,0.8,0.9,1.2,1.4
		s0.7,1,0.9,1.5c0,0,0,0.1,0,0.1c0,0.1-0.1,0.2-0.2,0.2l-1.7,1c-0.1,0-0.1,0.1-0.2,0.1C111.3,16.5,111.2,16.4,111.2,16.3z"/>
	<path d="M124.2,18.4h-1.9c-0.2,0-0.3-0.1-0.3-0.3V1c0-0.2,0.1-0.3,0.3-0.3h7.1c0.2,0,0.3,0.1,0.3,0.3v7c0,0.2-0.1,0.3-0.3,0.3h-4.9
		v9.9C124.5,18.3,124.4,18.4,124.2,18.4z M124.5,2.6v1.2h3V2.6H124.5z M124.5,5.3v1.2h3V5.3H124.5z M130.9,8V1
		c0-0.2,0.1-0.3,0.3-0.3h7.2c0.2,0,0.3,0.1,0.3,0.3v14.3c0,0.8-0.1,1.4-0.3,1.9c-0.2,0.4-0.5,0.8-1.1,1c-0.5,0.2-1.3,0.3-2.3,0.3
		h-0.2c-0.1,0-0.3-0.1-0.3-0.2l-0.4-1.1l-0.1,0h-7.5c-0.2,0-0.3-0.1-0.3-0.3V9.5c0-0.2,0.1-0.3,0.3-0.3h7.5c0.2,0,0.3,0.1,0.3,0.3
		V16h0.2c0.5,0,0.9,0,1.1-0.1c0.2-0.1,0.4-0.2,0.5-0.3s0.1-0.4,0.1-0.6V8.3h-5C131,8.3,130.9,8.2,130.9,8z M128.5,11.1v1.2h3.7v-1.2
		H128.5z M128.5,13.9v1.3h3.7v-1.3H128.5z M133.1,2.6v1.2h3.1V2.6H133.1z M133.1,5.3v1.2h3.1V5.3H133.1z"/>
	<path d="M141.2,17.7l0-0.1c0.2-0.4,0.4-0.9,0.5-1.6c0.1-0.6,0.2-1.2,0.3-1.8c0-0.2,0.1-0.3,0.3-0.2l1.4,0.2c0.2,0,0.3,0.1,0.3,0.3
		c0,0.6-0.1,1.2-0.2,1.9c-0.1,0.7-0.3,1.2-0.5,1.8c0,0.1-0.1,0.2-0.2,0.2c-0.1,0-0.1,0-0.2,0l-1.4-0.4
		C141.2,17.9,141.2,17.9,141.2,17.7z M141.8,11.5h3.4v-0.9h-2.9c-0.2,0-0.3-0.1-0.3-0.3V9.1c0-0.2,0.1-0.3,0.3-0.3h2.9V7.9H142
		c-0.2,0-0.3-0.1-0.3-0.3V0.9c0-0.2,0.1-0.3,0.3-0.3h8.3c0.2,0,0.3,0.1,0.3,0.3v6.7c0,0.2-0.1,0.3-0.3,0.3h-3.1v0.9h2.9
		c0.2,0,0.3,0.1,0.3,0.3v1.3c0,0.2-0.1,0.3-0.3,0.3h-2.9v0.9h3.3c0.2,0,0.3,0.1,0.3,0.3v1.3c0,0.2-0.1,0.3-0.3,0.3h-8.7
		c-0.2,0-0.3-0.1-0.3-0.3v-1.3C141.5,11.6,141.6,11.5,141.8,11.5z M145.3,2.5h-1.8v3.7h1.8V2.5z M143.6,3.5c0-0.1,0.1-0.2,0.2-0.2
		l0.5-0.2l0.1,0h0c0.1,0,0.2,0.1,0.2,0.2c0.2,0.5,0.4,1.2,0.5,1.9l0,0.1c0,0.1-0.1,0.2-0.2,0.3l-0.6,0.2c-0.1,0-0.1,0-0.1,0
		c-0.1,0-0.2-0.1-0.2-0.2c-0.1-0.6-0.2-1.2-0.4-1.8C143.7,3.6,143.7,3.5,143.6,3.5z M144.5,18.1c0,0-0.1-0.1-0.1-0.2
		c0-0.2,0-0.6,0-1.1c0-0.7,0-1.4-0.1-2.1c0-0.2,0.1-0.3,0.3-0.3l1.1-0.1h0c0.2,0,0.3,0.1,0.3,0.2c0.2,1,0.3,2,0.3,3.2
		c0,0.2-0.1,0.3-0.3,0.3l-1.4,0.2h0C144.6,18.1,144.6,18.1,144.5,18.1z M147.1,17.5c-0.1-1.2-0.2-2.1-0.4-2.9l0-0.1
		c0-0.1,0.1-0.2,0.2-0.2l1-0.2h0.1c0.1,0,0.2,0.1,0.3,0.2c0.1,0.5,0.3,1,0.4,1.6c0.1,0.6,0.2,1,0.2,1.2v0.1c0,0.1-0.1,0.2-0.2,0.3
		l-1.2,0.3h-0.1C147.2,17.8,147.1,17.7,147.1,17.5z M148.8,2.5H147v3.7h1.8V2.5z M147.5,3.3c0-0.2,0.1-0.3,0.3-0.2l0.6,0.2
		c0.2,0,0.2,0.1,0.2,0.3c-0.1,0.7-0.3,1.4-0.5,2c0,0.1-0.1,0.1-0.1,0.2c-0.1,0-0.1,0-0.2,0l-0.5-0.2c-0.2-0.1-0.2-0.2-0.2-0.4
		C147.3,4.6,147.4,4,147.5,3.3z M149.4,16.9c-0.1-1-0.4-1.8-0.6-2.4c0-0.1,0-0.1,0-0.1c0-0.1,0.1-0.2,0.2-0.2l0.9-0.3l0.1,0h0
		c0.1,0,0.2,0.1,0.2,0.2c0.3,0.8,0.6,1.6,0.8,2.4l0,0.1c0,0.1,0,0.1-0.1,0.1c0,0-0.1,0.1-0.2,0.1l-1,0.4c0,0-0.1,0-0.1,0
		C149.5,17.1,149.4,17,149.4,16.9z M151.3,17.8V9.3c0-0.2,0.1-0.3,0.3-0.3h2.1V0.5c0-0.2,0.1-0.3,0.3-0.3h1.9c0.2,0,0.3,0.1,0.3,0.3
		v3h3.3c0.2,0,0.3,0.1,0.3,0.3v1.8c0,0.2-0.1,0.3-0.3,0.3h-3.3V9h2.7c0.2,0,0.3,0.1,0.3,0.3v8.5c0,0.2-0.1,0.3-0.3,0.3h-7.2
		C151.4,18.1,151.3,18,151.3,17.8z M156.8,11.2h-3.2v4.6h3.2V11.2z"/>
	<path d="M168.8,13.9l0-0.2l1-3.1c-0.3-0.2-0.5-0.4-0.6-0.6c-0.2-0.3-0.2-0.5-0.2-0.9c0-0.5,0.2-0.9,0.5-1.2
		c0.3-0.3,0.8-0.5,1.3-0.5c0.5,0,0.9,0.2,1.3,0.5c0.3,0.3,0.5,0.7,0.5,1.2c0,0.3-0.1,0.6-0.2,1c-0.1,0.4-0.4,1-0.8,1.9l-0.9,1.9
		c-0.1,0.1-0.2,0.2-0.3,0.2H169C168.9,14.1,168.8,14.1,168.8,13.9z"/>
	<path d="M187,16.8l0-0.2c0.1-0.3,0.3-0.7,0.5-1.2h-5c-0.2,0-0.3-0.1-0.3-0.3V1.6c0-0.2,0.1-0.3,0.3-0.3h5c0.2,0,0.3,0.1,0.3,0.3
		v12.8c0.1-0.5,0.2-1.1,0.3-1.7c0-0.2,0.1-0.3,0.3-0.2l1.5,0.4c0.2,0,0.2,0.2,0.2,0.3c-0.3,1.8-0.6,3.2-1.1,4.2
		c-0.1,0.1-0.1,0.2-0.2,0.2c0,0-0.1,0-0.1,0l-1.5-0.5C187,17,187,16.9,187,16.8z M185.7,13.3v-10h-1.3v10H185.7z M188.7,6.3
		l-0.8-1.9c0,0,0-0.1,0-0.1c0-0.1,0.1-0.2,0.2-0.2c0.9-0.4,1.7-0.9,2.5-1.5s1.4-1.3,1.9-2.1c0.1-0.1,0.2-0.2,0.3-0.2h2
		c0.2,0,0.3,0.1,0.3,0.2c0.6,0.7,1.3,1.4,2.1,2c0.9,0.6,1.8,1.2,2.8,1.6c0.1,0.1,0.2,0.1,0.2,0.2l0,0.2l-0.8,1.8
		c-0.1,0.2-0.2,0.2-0.4,0.1c-0.7-0.3-1.4-0.8-2.2-1.3v0.7c0,0.2-0.1,0.3-0.3,0.3h-5.1c-0.2,0-0.3-0.1-0.3-0.3V5.1
		c-0.7,0.5-1.4,1-2.1,1.4c0,0-0.1,0-0.1,0C188.8,6.5,188.8,6.4,188.7,6.3z M192.8,18.1c-0.6,0-1.1-0.1-1.5-0.3
		c-0.3-0.2-0.6-0.4-0.7-0.7s-0.2-0.8-0.2-1.4v-3.2c0-0.2,0.1-0.3,0.3-0.3h1.1l-0.9-1.5c0,0,0-0.1,0-0.2c0-0.1,0.1-0.2,0.2-0.2
		c1-0.1,2-0.3,2.8-0.6c0.9-0.3,1.6-0.7,2.1-1.1l-6.6,0c-0.2,0-0.3-0.1-0.3-0.3V7.1c0-0.2,0.1-0.3,0.3-0.3h9.1c0.2,0,0.3,0.1,0.3,0.3
		v1.3c0,0.1,0,0.2-0.1,0.3c-0.7,1.1-1.9,2-3.6,2.7c0.5,0.5,0.9,1.1,1.2,1.7c0,0.1,0,0.1,0,0.2c0,0.1-0.1,0.2-0.2,0.2l-1.5,0.7
		c0,0-0.1,0-0.1,0c-0.1,0-0.2-0.1-0.2-0.2c-0.3-0.7-0.7-1.4-1.1-2l-0.6,0.2c0.1,0,0.1,0.1,0.1,0.2V15c0,0.3,0,0.5,0.1,0.6
		c0.1,0.1,0.2,0.2,0.5,0.2l0.7,0c0.4,0,0.7,0,0.9-0.1c0.2-0.1,0.3-0.2,0.4-0.4s0.2-0.5,0.2-1c0-0.2,0.1-0.3,0.3-0.2l1.5,0.5
		c0.2,0.1,0.2,0.2,0.2,0.3c-0.1,0.8-0.2,1.4-0.4,1.8c-0.2,0.4-0.4,0.7-0.8,0.9c-0.3,0.2-0.8,0.3-1.5,0.4l-1,0L192.8,18.1z
		 M193.9,2.3c-0.5,0.7-1.1,1.3-1.8,2h3.9C195.1,3.6,194.4,3,193.9,2.3z M198.1,16.9c-0.1-0.7-0.3-1.4-0.5-2.2
		c-0.2-0.7-0.5-1.4-0.8-2c0,0,0-0.1,0-0.2c0-0.1,0.1-0.2,0.2-0.2l1.5-0.5c0,0,0.1,0,0.1,0c0.1,0,0.2,0.1,0.2,0.2
		c0.3,0.6,0.6,1.3,0.9,2c0.3,0.7,0.5,1.4,0.6,2.1l0,0.1c0,0.1-0.1,0.2-0.2,0.3l-1.6,0.6c-0.1,0-0.1,0-0.1,0
		C198.2,17.2,198.1,17.1,198.1,16.9z"/>
	<path d="M203.4,8.8V1.9c0-0.2,0.1-0.3,0.3-0.3h2.1c0.2,0,0.3,0.1,0.3,0.3v4.8h3.7V0.5c0-0.2,0.1-0.3,0.3-0.3h2.2
		c0.2,0,0.3,0.1,0.3,0.3v6.2h3.7V1.9c0-0.2,0.1-0.3,0.3-0.3h2.1c0.2,0,0.3,0.1,0.3,0.3v6.9c0,0.2-0.1,0.3-0.3,0.3h-6.1v6.2h4.4v-4.7
		c0-0.2,0.1-0.3,0.3-0.3h2.1c0.2,0,0.3,0.1,0.3,0.3v6.9c0,0.2-0.1,0.3-0.3,0.3h-16.1c-0.2,0-0.3-0.1-0.3-0.3v-6.9
		c0-0.2,0.1-0.3,0.3-0.3h2.1c0.2,0,0.3,0.1,0.3,0.3v4.7h4.3V9.1h-6C203.5,9.1,203.4,9,203.4,8.8z"/>
	<path d="M222.5,16.4h17.6c0.2,0,0.3,0.1,0.3,0.3v1.1c0,0.2-0.1,0.3-0.3,0.3h-17.6c-0.2,0-0.3-0.1-0.3-0.3v-1.1
		C222.2,16.5,222.3,16.4,222.5,16.4z M223.3,8V7.3c0-0.2,0.1-0.3,0.3-0.3h6.4V6.5h-5.8c-0.2,0-0.3-0.1-0.3-0.3V5.4
		c0-0.2,0.1-0.3,0.3-0.3h5.8V4.5h-7.3c-0.2,0-0.3-0.1-0.3-0.3V3.3c0-0.2,0.1-0.3,0.3-0.3h7.3V2.4h-5.8c-0.2,0-0.3-0.1-0.3-0.3V1.3
		c0-0.2,0.1-0.3,0.3-0.3h5.8V0.5c0-0.2,0.1-0.3,0.3-0.3h2c0.2,0,0.3,0.1,0.3,0.3V1h5.9c0.2,0,0.3,0.1,0.3,0.3V3h1.4
		c0.2,0,0.3,0.1,0.3,0.3v1.1c0,0.2-0.1,0.3-0.3,0.3h-1.4v1.6c0,0.2-0.1,0.3-0.3,0.3h-5.9V7h6.5c0.2,0,0.3,0.1,0.3,0.3V8
		c0,0.2-0.1,0.3-0.3,0.3h-6.5v0.6h7.6c0.2,0,0.3,0.1,0.3,0.3v0.9c0,0.2-0.1,0.3-0.3,0.3h-17.5c-0.2,0-0.3-0.1-0.3-0.3V9.2
		c0-0.2,0.1-0.3,0.3-0.3h7.4V8.3h-6.4C223.4,8.3,223.3,8.2,223.3,8z M224.1,11h14.6c0.2,0,0.3,0.1,0.3,0.3v4.2
		c0,0.2-0.1,0.3-0.3,0.3h-14.6c-0.2,0-0.3-0.1-0.3-0.3v-4.2C223.8,11.1,223.9,11,224.1,11z M226.4,12.1v0.7h3.7v-0.7H226.4z
		 M226.4,13.9v0.8h3.7v-0.8H226.4z M232.5,12.1v0.7h3.8v-0.7H232.5z M232.5,13.9v0.8h3.8v-0.8H232.5z M232.5,2.4v0.7h3.6V2.4H232.5z
		 M232.5,4.4v0.8h3.6V4.4H232.5z"/>
	<path d="M243.5,17.7V5.2c0-0.2,0.1-0.3,0.3-0.3h5.4c0.3-0.6,0.6-1.2,0.8-1.8h-7.2c-0.2,0-0.3-0.1-0.3-0.3V1.2
		c0-0.2,0.1-0.3,0.3-0.3h17.4c0.2,0,0.3,0.1,0.3,0.3v1.6c0,0.2-0.1,0.3-0.3,0.3h-7.5c-0.2,0.7-0.5,1.3-0.7,1.8h7.2
		c0.2,0,0.3,0.1,0.3,0.3v12.5c0,0.2-0.1,0.3-0.3,0.3h-15.5C243.6,18,243.5,17.9,243.5,17.7z M247.9,15.8V7.1h-2v8.8H247.9z
		 M252.9,8.8V7.1h-2.8v1.8H252.9z M252.9,12.3v-1.8h-2.8v1.8H252.9z M252.9,15.8V14h-2.8v1.9H252.9z M257.1,15.8V7.1h-2v8.8H257.1z"
		/>
	<path d="M263.4,13.3V3.6c0-0.2,0.1-0.3,0.3-0.3h6.6V0.5c0-0.2,0.1-0.3,0.3-0.3h2.2c0.2,0,0.3,0.1,0.3,0.3v2.8h6.7
		c0.2,0,0.3,0.1,0.3,0.3v9.7c0,0.2-0.1,0.3-0.3,0.3h-6.7v4.6c0,0.2-0.1,0.3-0.3,0.3h-2.2c-0.2,0-0.3-0.1-0.3-0.3v-4.6h-6.6
		C263.5,13.6,263.4,13.5,263.4,13.3z M266,5.8v5.3h4.3V5.8H266z M273.1,5.8v5.3h4.4V5.8H273.1z"/>
	<path d="M290.5,17.6h-6.7c-0.2,0-0.3-0.1-0.3-0.3V3.1c0-0.2,0.1-0.3,0.3-0.3h1.4c0.4-0.8,0.7-1.6,0.9-2.4c0-0.1,0.1-0.2,0.3-0.2
		h0.1l1.9,0.2c0.2,0,0.3,0.1,0.2,0.3c-0.3,0.8-0.5,1.5-0.8,2h2.7c0.2,0,0.3,0.1,0.3,0.3v2.3c0.5-0.7,0.9-1.4,1.2-2.3
		c0.4-0.8,0.6-1.7,0.9-2.6c0-0.1,0.1-0.2,0.3-0.2h0.1l1.9,0.2c0.1,0,0.2,0,0.2,0.1c0,0.1,0.1,0.1,0,0.2c-0.1,0.5-0.3,1.1-0.5,1.7
		h5.4c0.2,0,0.3,0.1,0.3,0.3c0,0.2,0,1.5,0,4c0,2.9,0,5-0.1,6.3c-0.1,1.3-0.3,2.3-0.7,3.1c-0.4,0.8-0.9,1.3-1.7,1.7
		c-0.8,0.4-1.8,0.5-3.1,0.5c-0.1,0-0.3,0-0.4,0c-0.1,0-0.2-0.1-0.3-0.2l-0.7-2c0,0,0-0.1,0-0.1c0-0.1,0.1-0.2,0.3-0.2
		c1,0,1.8,0,2.4-0.2c0.6-0.2,1-0.5,1.2-0.9c0.3-0.4,0.4-1.1,0.5-1.9c0.1-1.3,0.2-2.9,0.2-4.7c0-1,0-2,0-3.2h-4
		c-0.4,1-0.9,1.7-1.5,2.4c-0.1,0.1-0.1,0.1-0.2,0.1c-0.1,0-0.1,0-0.2-0.1l-1.2-0.7v10.7C290.7,17.5,290.6,17.6,290.5,17.6z M285.8,5
		v3.8h2.6V5H285.8z M285.8,11.2v4.1h2.6v-4.1H285.8z M292,8.7C292,8.6,292,8.5,292,8.5c0-0.1,0.1-0.2,0.2-0.2l1.6-0.8
		c0,0,0.1,0,0.2,0c0.1,0,0.2,0,0.2,0.1c0.5,0.6,0.9,1.2,1.3,2c0.4,0.7,0.7,1.5,1,2.2c0,0,0,0.1,0,0.1c0,0.1-0.1,0.2-0.2,0.3
		l-1.7,0.8l-0.2,0c-0.1,0-0.2-0.1-0.2-0.2C293.6,11.2,292.9,9.9,292,8.7z"/>
</g>
</svg>
