<!-- Generator: Adobe Illustrator 25.0.0, SVG Export Plug-In  -->
<svg version="1.1" xmlns="http://www.w3.org/2000/svg" xmlns:xlink="http://www.w3.org/1999/xlink" x="0px" y="0px" width="874.6px"
	 height="1439.2px" viewBox="0 0 874.6 1439.2" style="overflow:visible;enable-background:new 0 0 874.6 1439.2;"
	 xml:space="preserve">
<style type="text/css">
	.st0{fill:#FFFFFF;}
</style>
<defs>
</defs>
<rect x="60.4" width="753.8" height="20.2"/>
<rect y="60.9" width="20.2" height="1317.5"/>
<rect x="40.2" y="20.4" width="20.2" height="20.2"/>
<rect x="19.9" y="40.6" width="20.2" height="20.2"/>
<rect x="854.4" y="60.9" width="20.2" height="1317.5"/>
<rect x="814.2" y="20.4" width="20.2" height="20.2"/>
<rect x="834.4" y="40.6" width="20.2" height="20.2"/>
<rect x="60.4" y="1419" width="753.8" height="20.2"/>
<rect x="40.2" y="1398.6" width="20.2" height="20.2"/>
<rect x="19.9" y="1378.4" width="20.2" height="20.2"/>
<rect x="814.2" y="1398.6" width="20.2" height="20.2"/>
<rect x="834.4" y="1378.4" width="20.2" height="20.2"/>
<polygon class="st0" points="854.7,60.9 834.4,60.9 834.4,40.6 814.2,40.6 814.2,20.4 60.4,20.4 60.4,40.6 40.2,40.6 40.2,60.9 
	19.9,60.9 19.9,1378.4 40.2,1378.4 40.2,1398.6 60.4,1398.6 60.4,1418.8 814.2,1418.8 814.2,1398.6 834.4,1398.6 834.4,1378.4 
	854.7,1378.4 "/>
<rect x="84.3" y="1391.5" width="706" height="7.1"/>
</svg>
