<!-- Generator: Adobe Illustrator 25.0.0, SVG Export Plug-In  -->
<svg version="1.1" xmlns="http://www.w3.org/2000/svg" xmlns:xlink="http://www.w3.org/1999/xlink" x="0px" y="0px" width="329px"
	 height="55.7px" viewBox="0 0 329 55.7" style="overflow:visible;enable-background:new 0 0 329 55.7;" xml:space="preserve">
<style type="text/css">
	.st0{clip-path:url(#SVGID_2_);fill:#888888;}
	.st1{clip-path:url(#SVGID_2_);fill:#FFFFFF;}
	.st2{clip-path:url(#SVGID_4_);fill:#888888;}
	.st3{clip-path:url(#SVGID_4_);fill:#FFFFFF;}
</style>
<defs>
</defs>
<g>
	<defs>
		<rect id="SVGID_1_" x="0" y="0" width="329" height="55.7"/>
	</defs>
	<clipPath id="SVGID_2_">
		<use xlink:href="#SVGID_1_"  style="overflow:visible;"/>
	</clipPath>
	<path class="st0" d="M235.7,15h3.2l-0.2,2.3l0.1,0.1c1.1-1.8,3.6-2.7,7.3-2.7c3.3,0,5.6,0.7,6.8,2.1c1.2,1.4,1.9,4,1.9,7.7
		c0,3.5-0.6,5.9-1.9,7.2c-1.3,1.3-3.5,2-6.7,2c-3.6,0-6.1-0.8-7.2-2.4H239v24.3h-3.2V15z M245.2,17c-2.6,0-4.3,0.5-5.1,1.4
		c-0.8,0.9-1.2,2.9-1.2,6c0,2.8,0.4,4.7,1.3,5.7c0.8,0.9,2.6,1.4,5.1,1.4c2.4,0,4-0.5,4.8-1.4c0.8-0.9,1.2-2.8,1.2-5.7
		c0-3.1-0.4-5.2-1.1-6.1C249.5,17.5,247.8,17,245.2,17"/>
	<path class="st0" d="M257.8,15h2.7l-0.3,2.1l0.1,0.1c1.1-1.7,2.8-2.6,5.3-2.6c3.4,0,5.1,1.8,5.1,5.3l0,1.3H268l0.1-0.5
		c0-0.5,0.1-0.8,0.1-1c0-1.9-1-2.8-3.1-2.8c-3,0-4.5,1.9-4.5,5.6v11.1h-2.7V15z"/>
	<rect x="273.3" y="15" class="st0" width="2.7" height="18.5"/>
	<path class="st0" d="M280.7,15h2.7l-0.1,2.8l0.1,0.1c1-2.1,3.1-3.1,6-3.1c3.1,0,5,1,5.7,3.1h0.1c1.2-2.1,3.3-3.1,6.4-3.1
		c4.4,0,6.5,2.2,6.5,6.7v12.1h-2.7V21.2c0-1.6-0.3-2.7-0.9-3.3c-0.6-0.6-1.7-0.9-3.3-0.9c-2.1,0-3.6,0.4-4.3,1.2
		c-0.8,0.8-1.1,2.3-1.1,4.6v10.7h-2.7V21.4l0-0.8c0-2.4-1.4-3.6-4.1-3.6c-3.7,0-5.5,2-5.5,6v10.5h-2.7V15z"/>
	<path class="st0" d="M326.2,27.9h2.8l0,0.7c0,1.9-0.6,3.3-1.8,4c-1.2,0.8-3.2,1.2-6.1,1.2c-3.4,0-5.6-0.6-6.7-1.9
		c-1.1-1.2-1.6-3.9-1.6-7.8c0-3.7,0.5-6.2,1.6-7.4c1.1-1.3,3.2-1.9,6.3-1.9c3.4,0,5.6,0.5,6.7,1.6c1.1,1.1,1.6,3.4,1.6,6.9v1.5
		h-13.3c0,2.9,0.3,4.7,0.9,5.5c0.6,0.8,2.1,1.2,4.4,1.2c2.2,0,3.6-0.2,4.2-0.6c0.7-0.4,1-1.2,1-2.5V27.9z M326.2,22.7l0-0.9
		c0-2-0.3-3.3-1-3.9c-0.7-0.6-2.1-0.9-4.2-0.9c-2.2,0-3.6,0.4-4.3,1.1c-0.6,0.7-1,2.2-1,4.6H326.2z"/>
	<path class="st1" d="M229.6,13.8l-5.4,20.4H221l-5.3-15.7l-5.3,15.7h-3.2l-5.4-20.4h3.6l3.8,15.8l5.2-15.8h2.9l5.3,15.8l3.6-15.8
		H229.6z M177.6,13.8l-5.4,20.4H169l-5.3-15.7l-5.3,15.7h-3.2l-5.4-20.4h3.6l3.8,15.8l5.2-15.8h2.9l5.3,15.8l3.6-15.8H177.6z
		 M179.2,24c0,5.8,4.7,10.5,10.5,10.5c5.8,0,10.5-4.7,10.5-10.5s-4.7-10.5-10.5-10.5C184,13.4,179.2,18.1,179.2,24 M182,24
		c0-4.3,3.5-7.8,7.8-7.8c4.3,0,7.8,3.5,7.8,7.8c0,4.3-3.5,7.8-7.8,7.8C185.5,31.7,182,28.2,182,24 M274.5,3.3
		c-1.8,0-3.2,1.4-3.2,3.2c0,1.8,1.4,3.2,3.2,3.2s3.2-1.4,3.2-3.2C277.7,4.7,276.3,3.3,274.5,3.3 M13.5,17.8H5.9l-2,0.3
		c-0.2,0.1-0.3,0.1-0.4-0.1l-0.3-1.3c0-0.2,0.1-0.2,0.4-0.1l2.3,0.3h7.5V4.9h-9l-2,0.3C2.3,5.3,2.1,5.3,2.1,5.1L1.8,3.8
		c0-0.1,0.1-0.2,0.4-0.1L4.4,4h17.7c0.3,0,0.5-0.1,0.7-0.3L24.7,1c0.2-0.3,0.4-0.3,0.7-0.1c1.4,0.9,2.5,2,3.4,3.3
		C29,4.4,29,4.5,29,4.7c-0.1,0.2-0.3,0.3-0.6,0.3H17.2v11.9h3.2c0.3,0,0.5-0.1,0.7-0.4l1.9-2.6c0.2-0.3,0.4-0.3,0.7-0.1
		c1.4,0.8,2.5,2,3.5,3.3c0.1,0.2,0.2,0.3,0.1,0.5c-0.1,0.2-0.2,0.3-0.6,0.3h-9.5V31h7c0.3,0,0.5-0.1,0.7-0.3l1.9-2.6
		c0.2-0.2,0.4-0.2,0.7-0.1c1.4,0.9,2.5,2,3.5,3.3c0.2,0.2,0.2,0.4,0.1,0.5c-0.1,0.2-0.3,0.3-0.6,0.3H2.7l-2,0.3
		c-0.2,0.1-0.3,0.1-0.4-0.1L0,30.9c0-0.2,0.1-0.2,0.4-0.1L2.7,31h10.7V17.8z M43.1,32c0,0.6-0.2,1.1-0.6,1.4
		c-0.5,0.3-1.1,0.5-1.7,0.5c-0.5,0-0.9-0.1-1.2-0.4c-0.2-0.1-0.3-0.5-0.2-1v-15c0-0.2,0-0.3,0.2-0.3c1.8,0.5,3.1,1,3.9,1.6h3.5
		c0.5,0,0.8-0.1,0.9-0.3l0.9-1.3c0.2-0.2,0.3-0.2,0.5-0.1c1.4,0.5,2.4,1,3.3,1.7c0.7,0.5,0.6,1.1-0.4,1.5c-0.2,0.1-0.3,0.3-0.3,0.5
		v11.4c0,0.5-0.3,1-0.8,1.3c-0.6,0.3-1.1,0.4-1.5,0.4c-0.4,0-0.8-0.1-1.1-0.4c-0.2-0.2-0.4-0.6-0.3-1.2v-1.1h-5V32z M48.1,30.3V20
		c-0.1-0.3-0.2-0.3-0.4-0.2h-4.6v10.5H48.1z M47.9,13.5c0,0.7-0.2,1.1-0.6,1.4c-0.5,0.3-1.1,0.5-1.7,0.5c-0.5,0-0.9-0.1-1.2-0.4
		c-0.2-0.1-0.3-0.5-0.2-0.9V1.1c0-0.3,0-0.4,0.2-0.3c1.8,0.5,3.2,1.1,4.1,1.7h9.1c0.5,0,0.8-0.1,0.9-0.3l0.9-1.3
		c0.2-0.2,0.3-0.2,0.6-0.1c1.3,0.5,2.4,1.1,3.3,1.7c0.7,0.6,0.5,1.1-0.4,1.5c-0.2,0.1-0.4,0.3-0.4,0.5v8.8c0,0.6-0.2,1-0.8,1.3
		C61,14.9,60.6,15,60.1,15c-0.4,0-0.8-0.1-1.1-0.4c-0.2-0.2-0.4-0.6-0.3-1.2v-0.4H47.9V13.5z M58.7,12.2V3.7
		c-0.1-0.3-0.2-0.3-0.5-0.2H47.9v8.6H58.7z M58.1,32.2c0,0.6-0.2,1.1-0.6,1.4C57,33.9,56.5,34,55.8,34c-0.5,0-0.9-0.1-1.2-0.3
		c-0.2-0.1-0.3-0.5-0.2-1V17.5c0-0.2,0-0.3,0.2-0.3c1.8,0.5,3.1,1,3.9,1.6H62c0.5,0,0.8-0.1,0.9-0.3l0.9-1.3
		c0.2-0.2,0.3-0.2,0.6-0.1c1.3,0.5,2.4,1,3.3,1.7c0.7,0.5,0.6,1.1-0.4,1.5c-0.2,0.1-0.4,0.3-0.4,0.5V32c0,0.5-0.3,1-0.8,1.3
		c-0.6,0.3-1.1,0.4-1.5,0.4c-0.4,0-0.8-0.1-1.1-0.4c-0.2-0.2-0.4-0.6-0.3-1.2v-1h-5V32.2z M63.1,30.3V20c-0.1-0.3-0.2-0.3-0.4-0.2
		h-4.6v10.5H63.1z M84.1,20.1c0,0.6-0.3,1-0.8,1.3c-0.8,0.4-1.5,0.4-2.4,0c-0.4-0.3-0.6-0.7-0.5-1.2V9.9c-1.6,1.6-3.2,2.8-4.7,3.5
		c-0.1,0.1-0.2,0.1-0.3,0c0-0.1,0-0.3,0.1-0.4c3-3.2,5-7.4,6-12.5c0-0.2,0.2-0.3,0.3-0.3c1.2,0.2,2.5,0.5,3.7,1
		c0.5,0.2,0.8,0.5,0.7,0.8c0,0.3-0.3,0.4-0.8,0.5c-0.2,0-0.3,0.1-0.4,0.4l-0.9,1.7v0.5h6.7c0.6-1.7,0.9-3.3,1.1-4.8
		C92,0.1,92.1,0,92.3,0c1.1,0.3,2.2,0.5,3.3,0.9c0.6,0.2,0.9,0.5,0.9,0.8c0,0.3-0.3,0.5-0.7,0.6c-0.2,0-0.5,0.2-0.8,0.5
		c-0.8,0.9-1.7,1.6-2.6,2.2h7.2c0.3,0,0.5-0.1,0.7-0.4l1.9-2.6c0.2-0.3,0.4-0.3,0.7-0.1c1.4,0.8,2.5,1.9,3.5,3.2
		c0.2,0.2,0.2,0.4,0.1,0.5c-0.1,0.2-0.3,0.3-0.6,0.3H94.1v3.4H96c0.3,0,0.5-0.1,0.7-0.4l1.9-2.6c0.2-0.3,0.4-0.3,0.7-0.1
		c1.4,0.8,2.5,1.9,3.5,3.3c0.1,0.1,0.2,0.3,0.1,0.5c-0.1,0.2-0.2,0.3-0.5,0.3h-8.3v3.4h2.1c0.3,0,0.5-0.1,0.7-0.4l1.9-2.6
		c0.2-0.3,0.4-0.3,0.7-0.1c1.4,0.8,2.5,2,3.4,3.3c0.2,0.2,0.2,0.3,0.1,0.5c-0.1,0.2-0.2,0.3-0.5,0.3h-8.4v3.3h5.2
		c0.3,0,0.5-0.1,0.7-0.4l1.9-2.6c0.2-0.3,0.4-0.3,0.7-0.1c1.4,0.8,2.5,2,3.4,3.3c0.2,0.2,0.2,0.4,0.1,0.5c-0.1,0.1-0.3,0.2-0.6,0.2
		H84.1V20.1z M94.1,33.3c0,0.7-0.3,1.1-0.9,1.4c-0.8,0.3-1.5,0.3-2.3-0.1c-0.4-0.3-0.6-0.6-0.6-1.1v-6.8c-3.5,3.2-8,5.3-13.3,6.2
		c-0.2,0.1-0.4,0-0.4-0.1c0-0.2,0.1-0.3,0.3-0.4c2.2-0.8,4.5-2,6.9-3.6c2.2-1.6,3.9-3.3,4.8-5H78.1l-2,0.3c-0.2,0.1-0.3,0.1-0.4-0.1
		l-0.3-1.3c0-0.2,0.1-0.2,0.3-0.1l2.3,0.3h12.2v-2v-0.4c0-0.1,0.1-0.2,0.2-0.2l3.7,0.5c0.7,0.2,1,0.4,1,0.8c0,0.4-0.3,0.7-0.9,0.8
		c-0.2,0-0.3,0.2-0.3,0.5h6.6c0.3,0,0.5-0.1,0.7-0.4l1.9-2.6c0.2-0.3,0.4-0.3,0.7-0.1c1.4,0.8,2.5,2,3.4,3.3
		c0.2,0.2,0.2,0.4,0.1,0.5c-0.1,0.2-0.3,0.3-0.5,0.3H94.8c1.2,1.4,2.8,2.6,4.9,3.5c2.4,1.1,4.8,1.6,7.2,1.5c0.2,0,0.3,0.1,0.3,0.3
		c0,0.1,0,0.3-0.1,0.4c-0.7,0.4-1.2,0.9-1.5,1.6c-0.3,0.7-0.5,1.4-0.4,2c0,0.3-0.2,0.4-0.5,0.3c-2.3-0.6-4.3-1.8-6.1-3.5
		c-1.9-1.8-3.3-3.7-4.4-5.7V33.3z M90.4,6.1h-6.2v3.4h6.2V6.1z M90.4,10.4h-6.2v3.4h6.2V10.4z M90.4,14.8h-6.2v3.3h6.2V14.8z
		 M117.4,34.2c-0.4,0.4-1,0.5-1.8,0.6c-0.4,0-0.8-0.1-1-0.4c-0.2-0.2-0.3-0.5-0.3-0.9v-33l0.1-0.3h0.3c1.1,0.3,2.3,0.8,3.7,1.6h20.3
		c0.3,0,0.5,0,0.7-0.2l1-1.1c0.2-0.3,0.4-0.4,0.7-0.3c1.4,0.5,2.5,1.1,3.2,1.7c0.8,0.6,0.7,1.2-0.3,1.6c-0.2,0.1-0.3,0.3-0.3,0.4
		v29.2c0,0.5-0.2,0.9-0.7,1.2c-0.4,0.3-1,0.4-1.7,0.4c-0.5,0-0.8-0.1-1-0.4c-0.2-0.2-0.2-0.4-0.2-0.8v-0.6h-22.1
		C117.8,33.5,117.7,33.9,117.4,34.2 M140,31.8v-29c-0.1-0.2-0.2-0.3-0.3-0.1h-21.7v29.1H140z M121.3,23.9l-2.2,0.3
		c-0.1,0.1-0.2,0-0.3-0.1l-0.3-1.2c0-0.1,0.1-0.2,0.3-0.1l2.4,0.3h9.6v-2.4c0-0.2,0.1-0.2,0.2-0.2c1,0,2.1,0.1,3.3,0.3
		c0.6,0.1,0.8,0.4,0.8,0.7c0,0.3-0.2,0.5-0.6,0.7c-0.2,0-0.3,0.2-0.3,0.5v0.5h0.2c0.2,0,0.4-0.1,0.5-0.3l1.3-2
		c0.2-0.3,0.4-0.4,0.7-0.1c0.7,0.6,1.3,1.3,1.9,2.3c0.2,0.3,0.3,0.5,0.2,0.7c-0.1,0.2-0.2,0.3-0.5,0.3h-4.2v4
		c0.1,0.8-0.2,1.6-0.8,2.2c-0.6,0.7-1.5,1-2.9,1.1c-0.1,0-0.2-0.1-0.2-0.2c0.1-1.3-0.5-2.4-1.8-3.2c-0.2-0.1-0.2-0.2-0.2-0.4
		c0-0.2,0.1-0.3,0.3-0.2l1,0.1c0.7,0.1,1-0.1,1-0.7v-2.7H121.3z M131.3,19.3c-2.6,0.7-5.6,1.2-9,1.8c-0.5,0.1-0.8,0.2-0.8,0.4
		c-0.1,0.3-0.3,0.4-0.4,0.4c-0.2,0-0.4-0.1-0.4-0.4c-0.4-1.2-0.7-2.2-0.8-3.1c0-0.2,0.1-0.3,0.3-0.3c1.1,0.1,3.1,0.1,6,0.1h1v-2.4
		h-3.7c-0.1,0.3-0.2,0.6-0.5,0.8c-0.5,0.3-1,0.4-1.6,0.5c-0.4,0-0.8-0.1-1.1-0.3c-0.2-0.1-0.2-0.4-0.2-0.9V8.2c0-0.2,0-0.3,0.1-0.3
		c1.1,0.3,2.2,0.7,3.3,1.3h3.7v-2h-5.6l-2.2,0.3c-0.1,0.1-0.2,0-0.2-0.1l-0.3-1.2c0-0.1,0.1-0.2,0.3-0.1l2.4,0.3h5.6V3.5
		c0-0.1,0-0.1,0.2-0.1c1.3,0,2.4,0.2,3.5,0.5c0.4,0.1,0.7,0.3,0.7,0.6c0,0.3-0.2,0.5-0.6,0.7c-0.2,0.1-0.3,0.2-0.3,0.4v0.7h3.5
		c0.2,0,0.4-0.1,0.5-0.3l1.3-2c0.2-0.3,0.4-0.4,0.7-0.1c0.8,0.6,1.4,1.4,2,2.4c0.2,0.3,0.3,0.5,0.2,0.7c-0.1,0.2-0.2,0.3-0.5,0.3
		h-7.7v2h3.1c0.1,0,0.3-0.1,0.4-0.3l0.9-0.9c0.1-0.1,0.2-0.1,0.3,0c1.1,0.4,2.1,0.9,3,1.7c0.7,0.4,0.7,0.9-0.2,1.3
		c-0.2,0.1-0.3,0.3-0.3,0.6v3.9c0,0.4-0.2,0.8-0.6,1c-0.4,0.2-0.9,0.4-1.7,0.4c-0.5,0-0.8-0.1-1-0.4l-0.2-0.6h-3.7v2.2l2.2-0.2
		c-0.4-0.3-0.8-0.5-1.3-0.6l-0.2-0.2c0-0.1,0-0.2,0.2-0.2c1.9-0.5,3.5-0.2,4.9,0.9c0.3,0.4,0.6,0.9,0.6,1.4c0.1,0.5-0.1,0.9-0.5,1.2
		c-0.3,0.3-0.8,0.4-1.2,0.2c-0.4-0.1-0.7-0.4-1-0.9l-0.7-1L131.3,19.3z M121.9,24.6c0-0.1,0.1-0.2,0.3-0.1h0
		c1.9,0.5,3.1,1.3,3.7,2.5c0.2,0.6,0.2,1.2-0.1,1.9c-0.2,0.5-0.6,0.9-1.1,1c-1.2,0.2-1.8-0.4-1.9-2c0.1-1.2-0.3-2.1-0.9-2.9
		L121.9,24.6z M127.1,10.1H124l-0.5,0.1V12h3.6V10.1z M127.1,13h-3.6v2h3.6V13z M130.6,12h3.6v-1.7c-0.1-0.2-0.2-0.3-0.4-0.2h-3.3
		V12z M130.6,15h3.6v-2h-3.6V15z"/>
</g>
</svg>
