<!-- Generator: Adobe Illustrator 25.0.0, SVG Export Plug-In  -->
<svg version="1.1" xmlns="http://www.w3.org/2000/svg" xmlns:xlink="http://www.w3.org/1999/xlink" x="0px" y="0px" width="874.6px"
	 height="1521.4px" viewBox="0 0 874.6 1521.4" style="overflow:visible;enable-background:new 0 0 874.6 1521.4;"
	 xml:space="preserve">
<style type="text/css">
	.st0{fill:#FFFFFF;}
	.st1{fill:#949495;}
</style>
<defs>
</defs>
<g>
	<rect x="60.4" width="753.8" height="20.2"/>
	
		<rect x="-702.8" y="763.6" transform="matrix(-1.836970e-16 1 -1 -1.836970e-16 783.8387 763.6042)" width="1425.7" height="20.2"/>
	<rect x="40.2" y="20.4" width="20.2" height="20.2"/>
	<rect x="19.9" y="40.6" width="20.2" height="20.2"/>
	
		<rect x="151.6" y="763.6" transform="matrix(-2.273933e-11 1 -1 -2.273933e-11 1638.2053 -90.7624)" width="1425.7" height="20.2"/>
	<rect x="814.2" y="20.4" transform="matrix(-1 -4.494772e-11 4.494772e-11 -1 1648.6254 60.9988)" width="20.2" height="20.2"/>
	<rect x="834.4" y="40.6" transform="matrix(-1 -4.494772e-11 4.494772e-11 -1 1689.0944 101.4678)" width="20.2" height="20.2"/>
	<rect x="60.4" y="1225.4" width="753.8" height="296"/>
	<rect x="40.2" y="1204.4" width="20.2" height="296.7"/>
	<rect x="19.9" y="1184.2" width="20.2" height="296.7"/>
	<rect x="814.2" y="1204.4" width="20.2" height="296.7"/>
	<rect x="834.4" y="1184.2" width="20.2" height="296.7"/>
	<polygon class="st0" points="854.7,60.9 834.4,60.9 834.4,40.6 814.2,40.6 814.2,20.4 60.4,20.4 60.4,40.6 40.2,40.6 40.2,60.9 
		19.9,60.9 19.9,1184.2 40.2,1184.2 40.2,1204.4 60.4,1204.4 60.4,1224.6 814.2,1224.6 814.2,1204.4 834.4,1204.4 834.4,1184.2 
		854.7,1184.2 	"/>
</g>
<polygon class="st1" points="834.4,1204.4 834.4,1224.6 814.2,1224.6 814.2,1245.7 60.4,1245.7 60.4,1224.6 40.2,1224.6 
	40.2,1204.4 19.9,1204.4 19.9,1460.5 40.2,1460.5 40.2,1480.8 60.4,1480.8 60.4,1501.1 814.2,1501.1 814.2,1480.8 834.4,1480.8 
	834.4,1460.5 854.7,1460.5 854.7,1204.4 "/>
</svg>
