<!-- Generator: Adobe Illustrator 25.0.0, SVG Export Plug-In  -->
<svg version="1.1" xmlns="http://www.w3.org/2000/svg" xmlns:xlink="http://www.w3.org/1999/xlink" x="0px" y="0px" width="344.3px"
	 height="45.6px" viewBox="0 0 344.3 45.6" style="overflow:visible;enable-background:new 0 0 344.3 45.6;" xml:space="preserve">
<style type="text/css">
	.st0{fill:#DF032E;}
</style>
<defs>
</defs>
<g>
	<path class="st0" d="M6.7,44.9V40h-6C0.2,40,0,39.8,0,39.3v-3.7c0-0.5,0.2-0.7,0.7-0.7h6v-3H1.6c-0.5,0-0.7-0.2-0.7-0.7V12.4
		c0-0.5,0.2-0.7,0.7-0.7h5.1V8.8H0.9c-0.5,0-0.7-0.2-0.7-0.7V4.3c0-0.5,0.2-0.7,0.7-0.7h5.8V0.9c0-0.5,0.2-0.7,0.7-0.7h4
		c0.5,0,0.7,0.2,0.7,0.7v2.7h5.5c0.5,0,0.7,0.2,0.7,0.7v3.8c0,0.5-0.2,0.7-0.7,0.7H12v2.9H17c0.5,0,0.7,0.2,0.7,0.7v18.8
		c0,0.5-0.2,0.7-0.7,0.7H12v3h5.5c0.5,0,0.7,0.2,0.7,0.7v3.7c0,0.5-0.2,0.7-0.7,0.7H12v4.9c0,0.5-0.2,0.7-0.7,0.7h-4
		C6.9,45.6,6.7,45.4,6.7,44.9z M7.5,19.8V16H5v3.7H7.5z M7.5,27.5v-4H5v4H7.5z M13.7,19.8V16h-2.5v3.7H13.7z M13.7,27.5v-4h-2.5v4
		H13.7z M42.9,15.5c-1.3-0.7-2.7-1.5-4.1-2.6v1.6c0,0.5-0.2,0.7-0.6,0.7H24.7c-0.4,0-0.6-0.2-0.6-0.7v-1.5c-1.1,1-2.3,1.7-3.5,2.3
		l-0.4,0.1c-0.2,0-0.4-0.1-0.5-0.4l-2.4-4.7c0-0.1,0-0.2,0-0.3c0-0.3,0.1-0.5,0.4-0.6c2.2-0.9,4.3-2.1,6.3-3.8
		c2-1.7,3.5-3.3,4.5-4.8c0.2-0.3,0.5-0.5,0.8-0.5h4c0.4,0,0.7,0.1,0.9,0.4c1.5,1.8,3.2,3.5,5.3,5.1c2,1.5,4.2,2.7,6.4,3.6
		c0.3,0.1,0.4,0.2,0.4,0.4c0,0.2,0,0.4-0.1,0.5l-2.2,4.9c-0.1,0.3-0.2,0.4-0.4,0.4C43.2,15.5,43,15.5,42.9,15.5z M25.2,45.5
		c-0.1-0.1-0.1-0.2-0.2-0.4l-0.9-3.7l0-0.2c0-0.4,0.2-0.5,0.5-0.5c1.1,0,1.8-0.1,2.2-0.4c0.3-0.3,0.5-0.8,0.5-1.6v-2.9h-3.9
		c-0.3,3.7-1,6.8-2.1,9.4c-0.1,0.2-0.2,0.3-0.4,0.3c-0.2,0-0.3,0-0.4-0.1l-2.7-1.5c-0.3-0.1-0.4-0.3-0.4-0.5c0-0.1,0-0.3,0.1-0.4
		c0.8-1.6,1.4-3.7,1.7-6.3c0.3-2.6,0.4-5.9,0.4-9.9v-8.3c0-0.5,0.2-0.7,0.6-0.7h10.7c0.5,0,0.7,0.2,0.7,0.7v20.9
		c0,1.5-0.2,2.7-0.5,3.6c-0.3,0.9-0.9,1.6-1.7,2c-0.8,0.4-2.1,0.7-3.7,0.7C25.6,45.6,25.4,45.6,25.2,45.5z M27.3,31.7v-2.9h-3.5
		l0,2.9H27.3z M27.3,25v-3h-3.5v3H27.3z M31.5,5.3c-1.7,2.3-3.3,4-4.7,5.3h9.6C34.5,9,32.9,7.3,31.5,5.3z M33.4,36.7V19.6
		c0-0.5,0.2-0.7,0.7-0.7h2.8c0.4,0,0.6,0.2,0.6,0.7v17.1c0,0.5-0.2,0.7-0.6,0.7h-2.8C33.7,37.4,33.4,37.1,33.4,36.7z M35.5,45.4
		c-0.1-0.1-0.2-0.3-0.2-0.4L34,40.8v-0.2c0-0.2,0.1-0.3,0.2-0.4c0.1,0,0.2,0,0.3,0h0.9c1.6,0,2.7-0.3,3.2-0.8
		c0.5-0.5,0.8-1.4,0.8-2.5V18.3c0-0.5,0.2-0.7,0.6-0.7h3.4c0.4,0,0.6,0.2,0.6,0.7v19.6c0,2.1-0.2,3.6-0.5,4.6
		c-0.3,1-1.1,1.8-2.2,2.3c-1.1,0.5-2.9,0.7-5.4,0.8C35.8,45.6,35.6,45.5,35.5,45.4z"/>
	<path class="st0" d="M63.4,45l-3.4-4.9c-0.1-0.2-0.1-0.3-0.1-0.4c0-0.2,0.1-0.4,0.4-0.5c6-2.8,10.6-6.9,13.9-12.2
		c3.3-5.3,5.1-11.6,5.5-18.8h-12c-0.5,0-0.7-0.2-0.7-0.7V2.3c0-0.5,0.2-0.7,0.7-0.7h18c0.5,0,0.7,0.2,0.7,0.7
		c0,17.5,6.2,29.7,18.6,36.7c0.3,0.2,0.4,0.4,0.4,0.6c0,0.1,0,0.2-0.1,0.4l-3.5,5c-0.2,0.2-0.3,0.3-0.5,0.3c-0.1,0-0.2,0-0.4-0.1
		c-4.4-2.7-8.1-6.1-11-10.1c-3-4-5.2-8.5-6.6-13.6c-1.5,5.4-3.9,10.2-7.1,14.3c-3.2,4.1-7.1,7.2-11.6,9.4c-0.2,0.1-0.3,0.1-0.4,0.1
		C63.7,45.4,63.5,45.3,63.4,45z"/>
	<path class="st0" d="M138.9,45.5c-0.4,0-0.7-0.2-0.8-0.5l-1.7-4.2l-0.1-0.3c0-0.3,0.2-0.5,0.7-0.5l4.5,0h1.2c3.6,0,6.1-0.2,7.5-0.6
		c1.4-0.4,2.2-1,2.5-1.8c0.1-0.5,0.2-1.2,0.2-2.1h-24.5c-0.4,0-0.6-0.2-0.6-0.5c0-0.1,0-0.2,0-0.3c0.7-2,1.4-4.2,2-6.7
		c-3.2,1-5.7,1.8-7.5,2.2c-0.1,0-0.1,0-0.2,0c-0.3,0-0.5-0.1-0.6-0.4l-2.2-4.9c0-0.1-0.1-0.2-0.1-0.3c0-0.3,0.2-0.5,0.6-0.5
		c3.6-0.5,7.2-1.2,10.8-2.1c3.6-0.9,6.9-1.9,9.9-3.1h-19.3c-0.5,0-0.7-0.2-0.7-0.7V14c0-0.5,0.2-0.7,0.7-0.7h16.2V9.4h-11.9
		c-0.5,0-0.7-0.2-0.7-0.7V5c0-0.5,0.2-0.7,0.7-0.7h11.9V0.8c0-0.5,0.2-0.7,0.7-0.7h4.9c0.5,0,0.7,0.2,0.7,0.7v3.5h9.9
		c0.5,0,0.7,0.2,0.7,0.7v2.6c1.1-1.2,2.2-2.7,3.4-4.4c0.1-0.2,0.3-0.3,0.5-0.3l0.4,0.1l4.9,2.6c0.3,0.2,0.4,0.3,0.4,0.5
		c0,0.2-0.1,0.3-0.2,0.4c-1.8,2.3-4,4.6-6.5,6.7h6.6c0.5,0,0.7,0.2,0.7,0.7v3.9c0,0.5-0.2,0.7-0.7,0.7h-12.9
		c-2.3,1.3-4.6,2.5-6.9,3.5h17.5c0.5,0,0.7,0.2,0.7,0.7v3.8c0,0.5-0.2,0.7-0.7,0.7h-24.8l-0.8,3.1h23.2c0.5,0,0.7,0.2,0.7,0.6
		c0,2.9-0.1,5.2-0.3,7.1c-0.2,1.9-0.9,3.4-2,4.5c-1.1,1.1-2.8,1.8-5.2,2.3c-2.4,0.4-5.7,0.7-10.1,0.7L138.9,45.5z M152.7,9.3h-9.1v4
		h4.3C149.8,12,151.3,10.7,152.7,9.3z"/>
	<path class="st0" d="M184.3,22.8c-0.1,0-0.3,0-0.4-0.1l-4.2-3.2c-0.2-0.2-0.3-0.3-0.3-0.5c0-0.1,0-0.2,0.1-0.3
		c0-0.1,0.1-0.1,0.1-0.2c2-2.2,3.6-4.7,5.1-7.7c1.4-3,2.5-5.9,3.2-8.8c0.1-0.4,0.4-0.6,0.8-0.5l4.8,0.7c0.2,0,0.4,0.1,0.5,0.3
		s0.1,0.4,0,0.6c-0.5,2-1,3.9-1.6,5.7h6.8v-8c0-0.5,0.2-0.7,0.7-0.7h5.3c0.5,0,0.7,0.2,0.7,0.7v8h15.3c0.5,0,0.7,0.2,0.7,0.7v4.8
		c0,0.5-0.2,0.7-0.7,0.7h-15.3v7.8H219c0.5,0,0.7,0.2,0.7,0.7v4.8c0,0.5-0.2,0.7-0.7,0.7h-13.1v8.7h17.9c0.5,0,0.7,0.2,0.7,0.7v4.9
		c0,0.5-0.2,0.7-0.7,0.7h-43.4c-0.5,0-0.7-0.2-0.7-0.7v-4.9c0-0.5,0.2-0.7,0.7-0.7h18.8v-8.7h-13.3c-0.5,0-0.7-0.2-0.7-0.7v-4.8
		c0-0.5,0.2-0.7,0.7-0.7h13.3v-7.8h-9.4c-1.5,3-3.2,5.5-5,7.5C184.7,22.8,184.5,22.8,184.3,22.8z"/>
	<path class="st0" d="M240.8,45.1l-1.7-3.7c-0.1-0.1-0.1-0.3-0.1-0.4c0-0.3,0.2-0.4,0.6-0.4c5.3-0.2,9.8-0.9,13.5-1.9H244
		c-0.5,0-0.7-0.2-0.7-0.7V20.2c0-0.5,0.2-0.7,0.7-0.7h34.7c-2.3-0.5-4.3-1.2-5.9-2.1c-1.7-0.9-3.2-2-4.5-3.3
		c-1.6,1.5-3.5,2.6-5.5,3.4c-2,0.8-4.4,1.4-7.2,1.7h-0.2c-0.3,0-0.6-0.1-0.7-0.4l-1.8-3.7c-0.1-0.2-0.1-0.3-0.1-0.3
		c-3.1,1.4-6.8,2.6-11,3.6l-0.3,0c-0.3,0-0.4-0.2-0.5-0.5l-1.5-4.4c0-0.1,0-0.2,0-0.3c0-0.3,0.2-0.4,0.5-0.5c2.6-0.5,4.8-1,6.7-1.5
		c1.9-0.5,3.8-1.2,5.6-1.9l0.3-0.1c0.3,0,0.5,0.2,0.5,0.5l0.8,3.9c0,0.1,0,0.2,0,0.3c0,0.1,0,0.2-0.1,0.3c2.6-0.2,4.8-0.7,6.7-1.3
		c1.8-0.6,3.2-1.4,4-2.3c0.4-0.5,0.7-1.1,0.9-1.7c0.1-0.4,0.3-0.6,0.7-0.6h4.2c0.5,0,0.7,0.2,0.7,0.7c0,0.2,0,0.5-0.1,0.9
		c2.6,2.6,6.9,4.2,12.8,4.9c0.4,0,0.6,0.2,0.6,0.5c0,0.1,0,0.2-0.1,0.3l-1.6,4c-0.1,0.2-0.2,0.3-0.3,0.4c-0.1,0.1-0.3,0.1-0.5,0.1
		l-1.8-0.3c0.1,0.1,0.1,0.2,0.1,0.4V38c0,0.5-0.2,0.7-0.7,0.7h-8.7c3.8,1,8.2,1.6,13,1.8c0.4,0,0.6,0.2,0.6,0.5
		c0,0.1-0.1,0.2-0.1,0.3l-1.7,3.8c-0.1,0.3-0.4,0.5-0.8,0.5c-2.6-0.1-5.4-0.5-8.3-1.2c-3-0.6-5.5-1.4-7.7-2.2
		c-0.3-0.1-0.4-0.3-0.4-0.5c0-0.2,0-0.3,0.1-0.4l2-2.6H256l2.1,2.7c0.1,0.1,0.1,0.3,0.1,0.4c0,0.2-0.1,0.3-0.4,0.4
		c-2.4,0.9-5.1,1.6-7.9,2.3c-2.8,0.6-5.6,1-8.3,1.1C241.2,45.6,241,45.5,240.8,45.1z M241.1,5.7c-0.4-0.1-0.5-0.2-0.5-0.5l0.1-0.4
		l1.8-3.7c0.1-0.3,0.3-0.4,0.6-0.4h0.2c1.5,0.3,3,0.7,4.8,1.2c1.7,0.5,3.3,1.1,4.7,1.8c0.3,0.1,0.4,0.3,0.4,0.5l-0.1,0.4l-1.7,3.8
		c-0.2,0.4-0.5,0.5-0.9,0.3C247.4,7.4,244.3,6.4,241.1,5.7z M273.6,25v-1.8h-24.1V25H273.6z M273.6,30v-1.8h-24.1V30H273.6z
		 M273.6,34.9V33h-24.1v1.8H273.6z M274.8,10.3c0-0.2,0.1-0.3,0.2-0.4c0.8-0.9,1.4-1.8,1.7-2.7h-14.2c-1.6,1.9-3.2,3.3-5,4.3
		c-0.1,0.1-0.2,0.1-0.4,0.1c-0.2,0-0.4-0.1-0.6-0.2l-3.1-3.3c-0.2-0.2-0.2-0.3-0.2-0.5c0-0.2,0.1-0.3,0.4-0.4
		c1.6-0.7,2.9-1.7,4.1-2.8c1.2-1.2,2-2.4,2.5-3.6c0.2-0.4,0.4-0.5,0.6-0.5h0.2l4.5,0.5c0.6,0.1,0.7,0.3,0.5,0.7l-0.6,1.3h17.2
		c0.5,0,0.7,0.2,0.7,0.7c0,0.5,0,1.2-0.1,2.1c-0.2,1-0.5,2.1-1.1,3.3c-0.6,1.2-1.2,2.2-1.9,3.1c-0.3,0.3-0.6,0.4-0.9,0.3l-4.1-1.3
		C274.9,10.6,274.8,10.5,274.8,10.3z"/>
	<path class="st0" d="M312.4,45.6h-4.7c-0.5,0-0.7-0.2-0.7-0.7l0.2-16c-1.5,4-3.3,7.5-5.4,10.3c-0.1,0.2-0.3,0.3-0.4,0.3
		s-0.3-0.1-0.5-0.4l-2.5-5.4c0-0.1-0.1-0.2-0.1-0.3c0-0.2,0.1-0.4,0.3-0.6c1.5-1.6,2.9-3.4,4.2-5.5c1.3-2.1,2.4-4.3,3.3-6.6h-5.9
		c-0.5,0-0.7-0.2-0.7-0.7v-4.2c0-0.5,0.2-0.7,0.7-0.7h6.9l-0.1-14c0-0.5,0.2-0.7,0.7-0.7h4.6c0.5,0,0.7,0.2,0.7,0.7l-0.1,14h6
		c0.5,0,0.7,0.2,0.7,0.7v4.2c0,0.5-0.2,0.7-0.7,0.7h-5.2c0.8,1.6,1.8,3.1,2.9,4.7c1.1,1.5,2.3,2.8,3.5,4c3.6-0.6,8-1.4,13.1-2.4V0.8
		c0-0.5,0.2-0.7,0.7-0.7h4.8c0.5,0,0.7,0.2,0.7,0.7l0,24.5l3.8-0.7l0.2,0c0.4,0.1,0.6,0.3,0.6,0.6l0.2,4.4v0.1
		c0,0.3-0.2,0.5-0.5,0.6l-4.4,0.9v13.6c0,0.5-0.2,0.7-0.7,0.7h-4.8c-0.5,0-0.7-0.2-0.7-0.7l0-12.4L320.6,35h-0.2
		c-0.3,0-0.5-0.2-0.5-0.6l-0.2-2.8l-1.4,3.6c-0.1,0.3-0.3,0.4-0.5,0.4c-0.1,0-0.3-0.1-0.4-0.3c-1.8-2.4-3.3-5.1-4.5-8.1l0.3,17.7
		C313.1,45.4,312.9,45.6,312.4,45.6z M299.4,4.3c0-0.1,0-0.2,0-0.3c0-0.3,0.2-0.5,0.5-0.5l3.4-0.9l0.2,0c0.3,0,0.5,0.2,0.6,0.5
		c1,2.9,1.7,5.8,2.1,8.7v0.1c0,0.4-0.2,0.6-0.5,0.7l-3.2,0.9c-0.1,0-0.1,0-0.2,0c-0.3,0-0.5-0.2-0.6-0.6
		C301.1,10,300.4,7.1,299.4,4.3z M313.6,11.5c1-2.3,1.7-5.2,2.1-8.6c0-0.2,0.1-0.4,0.3-0.5s0.3-0.1,0.6,0l3.3,0.8
		c0.4,0.1,0.6,0.4,0.5,0.9c-0.5,3-1.3,5.9-2.4,8.8c-0.2,0.4-0.4,0.5-0.8,0.4l-3.2-0.9C313.5,12.3,313.4,12,313.6,11.5z M320,17.6
		c0-0.1,0-0.3,0.1-0.4l2.7-3.3c0.2-0.2,0.3-0.3,0.5-0.3c0.2,0,0.3,0,0.4,0.1c1.3,0.8,2.6,1.7,4,2.8c1.4,1.1,2.5,2.1,3.4,3.1
		c0.1,0.1,0.2,0.3,0.2,0.4c0,0.2-0.1,0.3-0.2,0.5l-2.7,3.6c-0.1,0.2-0.3,0.3-0.4,0.3c-0.2,0-0.3-0.1-0.5-0.3c-0.9-1.1-2-2.2-3.3-3.2
		c-1.3-1.1-2.5-2-3.8-2.7C320.1,18,320,17.9,320,17.6z M321.3,6.2c0-0.1,0-0.3,0.1-0.4l2.7-3.3c0.2-0.2,0.4-0.3,0.6-0.3
		c0.2,0,0.3,0,0.4,0.1c1.3,0.8,2.6,1.7,3.9,2.7c1.3,1.1,2.5,2.1,3.5,3.2c0.1,0.1,0.2,0.3,0.2,0.4c0,0.2-0.1,0.3-0.2,0.5l-2.8,3.6
		c-0.2,0.2-0.3,0.3-0.5,0.3c-0.1,0-0.3-0.1-0.4-0.3c-1-1.1-2.1-2.2-3.4-3.4c-1.3-1.1-2.5-2-3.7-2.8C321.5,6.6,321.3,6.4,321.3,6.2z"
		/>
</g>
</svg>
