<!-- Generator: Adobe Illustrator 25.0.0, SVG Export Plug-In  -->
<svg version="1.1" xmlns="http://www.w3.org/2000/svg" xmlns:xlink="http://www.w3.org/1999/xlink" x="0px" y="0px" width="405.9px"
	 height="50.8px" viewBox="0 0 405.9 50.8" style="overflow:visible;enable-background:new 0 0 405.9 50.8;" xml:space="preserve">
<style type="text/css">
	.st0{fill:#FFFFFF;}
</style>
<defs>
</defs>
<g>
	<path class="st0" d="M3.3,50.4c-0.4,0-0.6-0.2-0.9-0.5l-2.4-4.3C0,45.5,0,45.3,0,45.1c0-0.4,0.3-0.6,0.9-0.6
		c3.5-0.2,6.9-0.7,9.9-1.6H4.4c-0.6,0-0.9-0.3-0.9-0.9V26.7c0-0.6,0.3-0.9,0.9-0.9h24.5c0.6,0,0.9,0.3,0.9,0.9v15.4
		c0,0.6-0.3,0.9-0.9,0.9h-5.4c3.8,0.5,6.9,1.1,9.4,1.8c0.4,0.1,0.6,0.3,0.6,0.6c0,0.1,0,0.3-0.1,0.4l-2,4.2
		c-0.2,0.4-0.4,0.5-0.7,0.5c-0.1,0-0.2,0-0.4-0.1c-1.6-0.6-3.3-1.1-5.1-1.6c-1.8-0.5-4-1-6.6-1.6c-0.4-0.1-0.6-0.3-0.6-0.6
		c0-0.1,0.1-0.3,0.2-0.5l2.3-3.2l0.2-0.2h-7.4l2.8,3.3c0.2,0.2,0.3,0.4,0.3,0.6c0,0.2-0.2,0.4-0.5,0.6c-1.8,0.7-3.7,1.4-6,1.9
		c-2.2,0.6-4.3,0.9-6.3,1.1H3.3z M37.6,48.7c-1.5-1.3-2.6-3.2-3.4-5.7c-1.3-4.1-2.3-10.3-3.1-18.6H2.2c-0.6,0-0.9-0.3-0.9-0.9v-3.3
		c0-0.6,0.3-0.9,0.9-0.9h28.6c-0.3-3-0.4-5.6-0.4-7.8H1.9c-0.6,0-0.9-0.3-0.9-0.9V5.2c0-0.6,0.3-0.9,0.9-0.9h28.3V1.3
		c0-0.6,0.3-0.9,0.9-0.9h7.9c0.6,0,0.9,0.3,0.9,0.8c0,0.5,0,1-0.1,1.3l-0.1,1.9h2.3c-0.2-0.8-0.4-1.4-0.5-1.7c0-0.1-0.1-0.2-0.1-0.4
		c0-0.3,0.2-0.5,0.6-0.6l5.2-1l0.3-0.1c0.4,0,0.6,0.2,0.8,0.5c0.6,1.6,1.3,3.6,1.9,6c0.6,2.3,1,4.5,1.3,6.5v0.2
		c0,0.4-0.2,0.6-0.7,0.7l-6.1,1.6c-0.1,0-0.2,0.1-0.3,0.1c-0.4,0-0.6-0.2-0.7-0.8L43,11.7h-3.4c0.1,5.2,0.4,10.1,0.8,14.8
		c0.4,4.7,1,8.4,1.9,11.1c0.3,1,0.7,1.6,1,1.6c0.5,0,0.9-0.7,1.4-2.1c0.4-1.4,0.8-2.9,1-4.5c0-0.2,0.1-0.4,0.2-0.5
		c0.1-0.1,0.2-0.2,0.3-0.2c0.2,0,0.4,0.1,0.6,0.4l5,6.3c0.2,0.3,0.3,0.5,0.3,0.9l-0.1,0.4c-0.8,3.6-2,6.3-3.8,8.2
		c-1.8,1.9-3.7,2.8-5.8,2.8C40.7,50.7,39.1,50.1,37.6,48.7z M4.7,17.2v-3.1c0-0.6,0.3-0.9,0.9-0.9h21.9c0.6,0,0.9,0.3,0.9,0.9v3.1
		c0,0.6-0.3,0.9-0.9,0.9H5.6C5,18,4.7,17.7,4.7,17.2z M20.7,31.2v-1.6h-8.5v1.6H20.7z M20.7,35.2v-1.6h-8.5v1.6H20.7z M20.7,39.2
		v-1.7h-8.5v1.7H20.7z"/>
	<path class="st0" d="M86.9,34.5c-0.3,0-0.5-0.2-0.8-0.5c-1.4-1.9-3-3.8-4.8-5.6c-1.8-1.8-3.7-3.4-5.5-4.7c-0.3-0.2-0.4-0.4-0.4-0.7
		c0-0.2,0.1-0.5,0.3-0.7l5-5.2c0.2-0.2,0.5-0.4,0.8-0.4c0.2,0,0.4,0.1,0.5,0.2c4.7,3.1,8.6,6.7,11.8,10.7c0.2,0.3,0.3,0.5,0.3,0.6
		c0,0.3-0.1,0.6-0.4,0.8l-6.1,5.2C87.3,34.4,87.1,34.5,86.9,34.5z"/>
	<path class="st0" d="M130.6,49.9V28.2c-3.4,0.4-7.3,0.7-11.7,0.9c-0.1,0-0.3,0-0.4-0.1s-0.2-0.1-0.3-0.1c-0.1-0.1-0.2-0.3-0.3-0.6
		l-0.5-5.3c0-0.2,0.1-0.4,0.2-0.6c0.1,0,0.2-0.1,0.3-0.2c0.1-0.1,0.2-0.1,0.3-0.1c0.8-0.1,1.4-0.1,1.9-0.1V8.7h-1.1
		c-0.6,0-0.9-0.3-0.9-0.9V2.3c0-0.6,0.3-0.9,0.9-0.9h19.6c0.6,0,0.9,0.3,0.9,0.9v0.6c0.1-0.1,0.3-0.1,0.4-0.1h8.9V1.2
		c0-0.6,0.3-0.9,0.9-0.9h7.9c0.6,0,0.9,0.3,0.9,0.9v1.6h9.7c0.6,0,0.9,0.3,0.9,0.9v5.5c0,0.6-0.3,0.9-0.9,0.9h-9.7v1.6h8.7
		c0.6,0,0.9,0.3,0.9,0.9v12.5c0,0.6-0.3,0.9-0.9,0.9h-26.7c-0.6,0-0.9-0.3-0.9-0.9V12.5c0-0.6,0.3-0.9,0.9-0.9h8.3V10H140
		c-0.6,0-0.9-0.3-0.9-0.9V8.6c-0.1,0-0.2,0.1-0.4,0.1h-0.4v34.8c0.6-2.4,1-4.7,1.2-6.9c0-0.3,0.1-0.5,0.3-0.6
		c0.2-0.1,0.4-0.2,0.7-0.1l4.2,0.8c0.4,0.1,0.6,0.2,0.7,0.4c0,0.1,0.1,0.3,0.1,0.5c-0.1,1.7-0.3,3.6-0.6,5.6c-0.3,2-0.7,3.7-1.2,5.1
		c-0.1,0.4-0.3,0.6-0.7,0.6c-0.1,0-0.2,0-0.4-0.1l-4.3-1.4v2.5c0,0.6-0.3,0.9-0.9,0.9h-6C130.9,50.8,130.6,50.5,130.6,49.9z
		 M118.3,49.1l-0.5-4c0-0.2,0-0.4,0.1-0.4c0.1-0.3,0.3-0.5,0.8-0.5l2.8-0.1v-2.2H120c-0.6,0-0.9-0.3-0.9-0.9v-3
		c0-0.6,0.3-0.9,0.9-0.9h1.4v-1.7h-1.9c-0.6,0-0.9-0.3-0.9-0.9v-3.5c0-0.6,0.3-0.9,0.9-0.9h9.4c0.6,0,0.9,0.3,0.9,0.9v3.5
		c0,0.6-0.3,0.9-0.9,0.9h-1.5v1.7h1.1c0.6,0,0.9,0.3,0.9,0.9v3c0,0.6-0.3,0.9-0.9,0.9h-1.1v1.8c0.5,0,1.1-0.1,1.6-0.1
		c0.2,0,0.4,0,0.5,0.1c0.3,0.1,0.4,0.4,0.4,0.8v3.6c0,0.6-0.2,0.9-0.6,0.9c-2.7,0.4-6,0.6-10,0.9C118.6,49.9,118.3,49.6,118.3,49.1z
		 M130.9,10.9V8.7h-3.3v2.2H130.9z M130.9,16.7v-2.3h-3.3v2.3H130.9z M130.9,22.4v-2.3h-3.3v2.5L130.9,22.4z M151.6,50.1
		c-1.6-0.1-2.8-0.4-3.6-0.9s-1.3-1.2-1.5-2.1c-0.2-0.8-0.3-1.9-0.3-3.1v-7.9c0-0.6,0.3-0.9,0.9-0.9h5.5l-0.6-0.6
		c-0.2-0.2-0.3-0.4-0.3-0.6c0-0.1,0-0.2,0.1-0.3h-11.8c-0.6,0-0.9-0.3-0.9-0.9v-4.7c0-0.6,0.3-0.9,0.9-0.9h28c0.6,0,0.9,0.3,0.9,0.9
		v4.7c0,0.6-0.3,0.9-0.9,0.9h-8.8c0.6,0.6,1.2,1.4,1.8,2.3l0.2,0.3l4-1.2c0.1,0,0.2-0.1,0.3-0.1c0.3,0,0.6,0.2,0.8,0.5
		c0.8,1.4,1.5,3,2.1,4.8c0.7,1.8,1.2,3.5,1.5,5.2c0,0.1,0.1,0.2,0.1,0.4c-0.1,0.3-0.3,0.5-0.6,0.6l-5,2c-0.1,0-0.2,0.1-0.4,0.1
		c-0.4,0-0.6-0.2-0.6-0.7c-0.2-1.3-0.4-2.5-0.7-3.6c-0.2,1.3-0.5,2.4-0.9,3.1c-0.4,0.8-1,1.4-1.9,1.8c-0.8,0.4-2,0.7-3.5,0.8
		c-0.4,0-1.2,0.1-2.4,0.1L151.6,50.1z M148.9,20.5V17h-2.3v3.5H148.9z M155.2,20.5V17h-2.5v3.5H155.2z M155.7,43.1h0.3
		c0.3,0,0.5-0.2,0.6-0.5c0.1-0.3,0.2-0.7,0.2-1.4c0-0.2,0.1-0.4,0.2-0.6c0.1-0.1,0.2-0.2,0.4-0.2c0.2,0,0.3,0,0.4,0.1l4.1,1.7
		c-0.6-1.8-1.3-3.3-1.9-4.6l-3.4,2.2c-0.1,0.1-0.3,0.2-0.5,0.2c-0.3,0-0.6-0.2-0.7-0.5c-0.4-0.8-0.9-1.6-1.3-2.3v5.1
		c0,0.3,0.1,0.5,0.2,0.6c0.1,0.1,0.3,0.2,0.6,0.2H155.7z M161.1,20.5V17h-2.3v3.5H161.1z"/>
	<path class="st0" d="M183.5,50.2l-5.7-8.3c-0.1-0.2-0.2-0.4-0.2-0.5c0-0.3,0.2-0.5,0.5-0.6c5.2-2.5,9-5.6,11.5-9.3
		c2.5-3.7,4.1-8,4.7-13.1h-13.3c-0.6,0-0.9-0.3-0.9-0.9V9.3c0-0.6,0.3-0.9,0.9-0.9h13.7V3.6V1.2c0-0.6,0.3-0.9,0.9-0.9h9
		c0.6,0,0.9,0.3,0.9,0.9v7.3h19.6c0.6,0,0.9,0.3,0.9,0.9v5.9c0,7.9-0.1,14.1-0.4,18.6c-0.3,4.2-1,7.5-2.1,9.8
		c-1.2,2.3-3,3.9-5.4,4.9c-2.4,1-5.8,1.4-10.1,1.4l-2.3-0.1c-0.3,0-0.5-0.1-0.6-0.2c-0.1-0.1-0.3-0.3-0.3-0.5l-2.9-8.2
		c0-0.1-0.1-0.2-0.1-0.3c0-0.4,0.2-0.6,0.8-0.6l3.6,0.1c2.4,0,4.2-0.2,5.5-0.6c1.3-0.4,2.2-1.1,2.7-2.1c0.6-1,0.9-2.5,1-4.4
		c0.2-3.2,0.4-8,0.4-14.5H205c-1.5,14.8-8.2,25.5-20.2,32.1c-0.1,0.1-0.3,0.2-0.5,0.2C184,50.7,183.7,50.5,183.5,50.2z"/>
	<path class="st0" d="M236.6,12.2V6.9c0-0.6,0.3-0.9,0.9-0.9h5.3c-0.6-1.1-1.2-2.2-1.8-3.1c-0.1-0.2-0.2-0.4-0.2-0.6
		c0-0.2,0.1-0.3,0.2-0.5c0.1-0.1,0.3-0.2,0.5-0.2l6.9-1.2c0.1,0,0.3-0.1,0.4-0.1c0.5,0,0.8,0.2,1,0.6c0.9,1.7,1.6,3.4,2.2,5h4.8
		c0.3,0,0.5,0.1,0.7,0.2c0.2,0.2,0.3,0.4,0.3,0.6v5.3c0,0.3-0.1,0.5-0.3,0.6c-0.2,0.2-0.4,0.2-0.7,0.2h-19.3
		C236.9,13,236.6,12.8,236.6,12.2z M238.2,49.4c-0.2-0.2-0.2-0.4-0.2-0.6V32.5c0-0.2,0.1-0.5,0.2-0.6c0.2-0.2,0.4-0.2,0.7-0.2h17.2
		c0.6,0,0.9,0.3,0.9,0.9v16.3c0,0.6-0.3,0.9-0.9,0.9h-17.2C238.6,49.6,238.4,49.5,238.2,49.4z M238.7,20.4v-4.5
		c0-0.6,0.3-0.9,0.9-0.9h16c0.3,0,0.5,0.1,0.7,0.2c0.2,0.2,0.2,0.4,0.2,0.6v4.5c0,0.3-0.1,0.5-0.2,0.6s-0.4,0.2-0.7,0.2h-16
		C239,21.3,238.7,21,238.7,20.4z M238.7,28.7v-4.5c0-0.6,0.3-0.9,0.9-0.9h16c0.3,0,0.5,0.1,0.7,0.2c0.2,0.2,0.2,0.4,0.2,0.6v4.5
		c0,0.3-0.1,0.5-0.2,0.6s-0.4,0.2-0.7,0.2h-16C239,29.6,238.7,29.3,238.7,28.7z M249.5,42.8v-4.5h-3.6v4.5H249.5z M257.7,28.4v-5.9
		c0-0.6,0.3-0.9,0.9-0.9h4.1l0.6-3.1h-3.3c-0.6,0-0.9-0.3-0.9-0.9v-5.4c0-0.6,0.3-0.9,0.9-0.9h4.6l0.4-2.3h-5.7
		c-0.6,0-0.9-0.3-0.9-0.9V2.4c0-0.6,0.3-0.9,0.9-0.9h26.3c0.6,0,0.9,0.3,0.9,0.9v5.9c0,0.6-0.3,0.9-0.9,0.9h-11.8l-0.4,2.3h11
		c0.4,0,0.7,0.2,0.8,0.6v0.3l-1.1,9.3h2.4c0.6,0,0.9,0.3,0.9,0.9v5.9c0,0.6-0.3,0.9-0.9,0.9h-27.9C258,29.3,257.7,29,257.7,28.4z
		 M259.1,48.9V32.1c0-0.6,0.3-0.9,0.9-0.9h24.9c0.6,0,0.9,0.3,0.9,0.9v16.9c0,0.6-0.3,0.9-0.9,0.9h-24.9
		C259.4,49.8,259.1,49.5,259.1,48.9z M276.5,42.2v-3.6h-8.3v3.6H276.5z M275.6,21.6l0.4-3.1h-4l-0.6,3.1H275.6z"/>
	<path class="st0" d="M297.2,44.9c-0.5,0-0.7-0.2-0.8-0.7l-1.1-7.4l-0.1-0.6c0-0.4,0.2-0.7,0.7-0.8c1.5-0.3,3-0.6,4.5-1v-12h-3.1
		c-0.6,0-0.9-0.3-0.9-0.9v-7.4c0-0.6,0.3-0.9,0.9-0.9h3.1V2.8c0-0.6,0.3-0.9,0.9-0.9h7.4c0.6,0,0.9,0.3,0.9,0.9v10.6h2.2
		c0.6,0,0.9,0.3,0.9,0.9v7.4c0,0.6-0.3,0.9-0.9,0.9h-2.2v9.2l2.7-1.2l0.4-0.1c0.4,0,0.6,0.3,0.6,0.8v7.7c0,0.5-0.2,0.8-0.6,1
		c-5.3,2-10.3,3.6-15,4.9L297.2,44.9z M312.3,50.8c-0.3,0-0.6-0.2-0.9-0.5l-4.5-6.3c-0.1-0.2-0.2-0.4-0.2-0.5c0-0.3,0.3-0.5,0.8-0.5
		c6-0.4,9.6-2,10.8-4.9h-2.6c-0.6,0-0.9-0.3-0.9-0.9V20.8c0-0.6,0.3-0.9,0.9-0.9h27.6c0.6,0,0.9,0.3,0.9,0.9v16.4
		c0,0.6-0.3,0.9-0.9,0.9h-6.1v3.4c0,0.4,0.2,0.7,0.6,0.8c0.2,0,0.5,0,0.7,0.1c0.7,0,1.2-0.2,1.4-0.6c0.3-0.4,0.4-1.2,0.4-2.3
		c0-0.3,0.1-0.6,0.3-0.7c0.2-0.1,0.4-0.2,0.7-0.1l5.1,1.7c0.5,0.1,0.7,0.5,0.7,1c-0.1,2.4-0.3,4.2-0.8,5.3s-1.3,2-2.4,2.4
		c-1.1,0.5-2.8,0.8-5,0.9l-1.8,0.1l-2-0.1c-2.3-0.1-4-0.5-5-1.2c-1-0.7-1.5-2-1.5-3.8V38h-1.3c-0.4,3.2-1.8,5.9-4.1,8.2
		c-2.3,2.2-5.8,3.8-10.3,4.6L312.3,50.8z M313.5,17.4v-4.5c0-0.6,0.3-0.9,0.9-0.9h4l-0.7-2.6h-2.5c-0.6,0-0.9-0.3-0.9-0.9V3.8
		c0-0.6,0.3-0.9,0.9-0.9h9l-0.6-1.3c-0.1-0.2-0.2-0.3-0.2-0.4c0-0.3,0.2-0.5,0.8-0.6l7.5-0.6h0.3c0.4,0,0.7,0.2,0.8,0.5
		c0.4,1.1,0.7,1.9,0.9,2.4h10c0.6,0,0.9,0.3,0.9,0.9v4.8c0,0.6-0.3,0.9-0.9,0.9h-2.8l-0.5,2.6h4.8c0.6,0,0.9,0.3,0.9,0.9v4.5
		c0,0.6-0.3,0.9-0.9,0.9h-30.8C313.7,18.2,313.5,18,313.5,17.4z M335.1,27.2v-1.9h-11.3v1.9H335.1z M335.1,32.7v-2h-11.3v2H335.1z
		 M327.1,12h4.3l0.5-2.6h-5.5C326.7,10.2,327,11.1,327.1,12z"/>
	<path class="st0" d="M360.3,50.2l-5.7-3.1c-0.3-0.2-0.4-0.4-0.5-0.6c0-0.2,0-0.3,0.1-0.4c0.8-1.9,1.4-4.1,1.8-6.6
		c0.4-2.5,0.7-5,0.8-7.4c0-0.4,0.1-0.6,0.3-0.7c0.1-0.1,0.3-0.2,0.6-0.2l5.4,0.5c0.4,0.1,0.6,0.2,0.8,0.4c0,0.1,0.1,0.2,0.1,0.5
		c-0.1,1.3-0.2,2.4-0.3,3.5c0.5,0.7,1,1.3,1.6,1.8v-8h-8.6c-0.6,0-0.9-0.3-0.9-0.9v-5.7c0-0.6,0.3-0.9,0.9-0.9h21.6
		c0.6,0,0.9,0.3,0.9,0.9v5.6c0,0.6-0.3,0.9-0.9,0.9h-4.9v2.1h4.4c0.6,0,0.9,0.3,0.9,0.9v2.8c2.5-0.4,4.6-1.1,6.5-2.1h-3.7
		c-0.6,0-0.9-0.3-0.9-0.9V11.1c0-0.6,0.3-0.9,0.9-0.9h4.2l0.7-1.7h-6c-0.6,0-0.9-0.3-0.9-0.9V2.4c0-0.6,0.3-0.9,0.9-0.9h23.2
		c0.6,0,0.9,0.3,0.9,0.9v5.3c0,0.6-0.3,0.9-0.9,0.9h-7.9c-0.1,0.4-0.3,0.9-0.7,1.7h7.2c0.6,0,0.9,0.3,0.9,0.9v21.8
		c0,0.6-0.3,0.9-0.9,0.9h-3.7c1.8,0.9,3.9,1.6,6.2,2.1c0.5,0.1,0.7,0.3,0.7,0.6c0,0.1,0,0.3-0.1,0.5l-1.9,3.9c0.5,0,1.1,0,1.9-0.1
		h0.3c0.4,0.1,0.5,0.3,0.5,0.5l-0.1,0.4l-2.5,7.4c-0.2,0.5-0.5,0.8-0.9,0.8c-2.5,0.1-6.9,0.2-13.3,0.2c-6.2,0-10.8-0.1-13.8-0.2
		c-3.1-0.1-5.7-0.5-7.6-1.3c-2-0.8-3.6-1.9-4.9-3.4c-0.4,1.8-0.8,3.4-1.4,4.8c-0.1,0.3-0.3,0.5-0.6,0.5
		C360.7,50.4,360.5,50.3,360.3,50.2z M356.7,20.3v-18c0-0.6,0.3-0.9,0.9-0.9h19.7c0.6,0,0.9,0.3,0.9,0.9v18c0,0.6-0.3,0.9-0.9,0.9
		h-19.7C357,21.2,356.7,20.9,356.7,20.3z M370.1,9.8V7.6h-5.4v2.1H370.1z M370.1,15.7v-2.1h-5.4v2.1H370.1z M377.6,38.5h-4.4v2.6
		l2.3,0.2l4.2,0.1l-1.6-3C377.9,38.4,377.8,38.5,377.6,38.5z M397.3,41.1c-1.9-0.9-3.5-1.8-4.7-3c-0.2-0.2-0.3-0.4-0.3-0.6
		c0-0.1,0.1-0.3,0.3-0.6l2.6-3.2h-7.4l2.6,3.3c0.1,0.2,0.2,0.4,0.2,0.6c0,0.4-0.7,1.1-2.1,1.9c-1.4,0.8-2.6,1.4-3.5,1.8L397.3,41.1z
		 M394.4,17.3v-2.1h-5.7v2.1H394.4z M394.4,23.2V21h-5.7v2.2H394.4z M394.4,28.7v-2.1h-5.7v2.1H394.4z"/>
</g>
</svg>
