<!-- Generator: Adobe Illustrator 25.0.0, SVG Export Plug-In  -->
<svg version="1.1" xmlns="http://www.w3.org/2000/svg" xmlns:xlink="http://www.w3.org/1999/xlink" x="0px" y="0px" width="357.3px"
	 height="17.7px" viewBox="0 0 357.3 17.7" style="overflow:visible;enable-background:new 0 0 357.3 17.7;" xml:space="preserve">
<style type="text/css">
	.st0{enable-background:new    ;}
</style>
<defs>
</defs>
<g class="st0">
	<path d="M6.2,16.9v-1.1c-0.9,0.2-1.8,0.3-2.9,0.5c-1.1,0.2-2,0.3-2.8,0.3h0c-0.1,0-0.2-0.1-0.2-0.2L0,14.9v0c0-0.2,0.1-0.2,0.2-0.2
		l1.3-0.1V8.8H0.4c-0.2,0-0.3-0.1-0.3-0.3V7.3C0.2,7.1,0.2,7,0.4,7h15.9c0.2,0,0.3,0.1,0.3,0.3v1.3c0,0.2-0.1,0.3-0.3,0.3h-8v8.1
		c0,0.2-0.1,0.3-0.3,0.3H6.4C6.3,17.1,6.2,17.1,6.2,16.9z M1.6,6.2V1.1c0-0.2,0.1-0.3,0.3-0.3h12.9c0.2,0,0.3,0.1,0.3,0.3v5.1
		c0,0.2-0.1,0.3-0.3,0.3h-1.9c-0.2,0-0.3-0.1-0.3-0.3V2.4H4v3.8c0,0.2-0.1,0.3-0.3,0.3H1.9C1.7,6.5,1.6,6.4,1.6,6.2z M6.2,9.7V8.8
		H3.7v0.9H6.2z M6.2,12v-0.9H3.7V12H6.2z M6.2,14.1v-0.7H3.7v1.1C4.6,14.3,5.4,14.2,6.2,14.1z M4.6,4.3c0,0-0.1-0.1-0.1-0.2V3.4
		c0-0.1,0-0.2,0-0.2c0,0,0.1-0.1,0.2-0.1h7.1c0.2,0,0.3,0.1,0.3,0.3v0.7c0,0.1,0,0.1-0.1,0.2c0,0-0.1,0.1-0.2,0.1H4.8
		C4.7,4.3,4.7,4.3,4.6,4.3z M4.6,6.1c0,0-0.1-0.1-0.1-0.2V5.2c0-0.1,0-0.2,0-0.2C4.6,5,4.7,5,4.8,5h7.1c0.2,0,0.3,0.1,0.3,0.3v0.7
		c0,0.1,0,0.1-0.1,0.2c0,0-0.1,0.1-0.2,0.1H4.8C4.7,6.2,4.7,6.2,4.6,6.1z M12.5,15.7c-0.9,0.6-1.9,1.1-3.1,1.3l-0.1,0
		c-0.1,0-0.2-0.1-0.2-0.2l-0.6-1.5c0,0,0-0.1,0-0.1c0-0.1,0.1-0.2,0.2-0.2c0.8-0.1,1.5-0.3,2.2-0.7c-0.7-0.9-1.2-1.9-1.5-3H9.1
		c-0.2,0-0.3-0.1-0.3-0.3V9.9c0-0.2,0.1-0.3,0.3-0.3h6.4c0.2,0,0.3,0.1,0.3,0.3v1.3c0,0.1,0,0.2-0.1,0.3c-0.2,0.5-0.4,1-0.7,1.5
		s-0.6,0.9-0.9,1.2c0.8,0.3,1.6,0.6,2.4,0.7c0.1,0,0.1,0,0.1,0.1c0,0,0.1,0.1,0.1,0.1c0,0,0,0.1,0,0.1L16,16.9
		c-0.1,0.1-0.1,0.2-0.2,0.2c-0.1,0-0.1,0-0.1,0C14.5,16.8,13.5,16.3,12.5,15.7z M11.7,12.4c0.2,0.3,0.5,0.6,0.7,0.8
		c0.3-0.2,0.5-0.5,0.8-0.8c0.2-0.3,0.4-0.7,0.6-1h-2.6C11.3,11.8,11.5,12.1,11.7,12.4z"/>
	<path d="M23.8,9.3L23.8,9.3c0.2-1.2,0.3-2.7,0.4-4.7V3.7c0-0.1,0-0.2,0.1-0.2c0,0,0.1-0.1,0.2-0.1l0.9,0.1c0.2,0,0.2,0.1,0.2,0.3
		c0,1.1,0,2.2-0.1,3.1c0,0.9-0.1,1.9-0.3,2.8c0,0.2-0.1,0.2-0.3,0.2L24,9.5C23.9,9.5,23.8,9.4,23.8,9.3z M29.1,16.5v-1
		c0-0.2,0.1-0.3,0.3-0.3h4.5v-0.6h-3.9c-0.2,0-0.3-0.1-0.3-0.3v-0.8c0-0.2,0.1-0.3,0.3-0.3h3.9v-0.6h-3.8c-0.2,0-0.3-0.1-0.3-0.3V8
		c0-0.2,0.1-0.3,0.3-0.3h3.8V7.2H30c-0.1,0-0.2,0-0.2-0.1h0L29,7.4c0,0-0.1,0-0.1,0c-0.1,0-0.2-0.1-0.2-0.2c0-0.4-0.1-0.9-0.3-1.5
		c-0.1-0.6-0.3-1.1-0.4-1.6v12.8c0,0.2-0.1,0.3-0.3,0.3h-1.5c-0.2,0-0.3-0.1-0.3-0.3V0.8c0-0.2,0.1-0.3,0.3-0.3h1.5
		c0.2,0,0.3,0.1,0.3,0.3v3c0,0,0.1-0.1,0.1-0.1l0.5-0.3c0,0,0.1,0,0.1,0c0.1,0,0.1,0.1,0.2,0.2c0.3,0.9,0.5,1.8,0.7,2.5v0
		c0-0.2,0.1-0.3,0.3-0.3h3.9V5.4c-1.2,0-2.4,0.1-3.3,0.1c-0.1,0-0.2-0.1-0.3-0.2l-0.3-0.9c0,0,0-0.1,0-0.1C29.8,4.1,29.9,4,30,4h1.1
		c0,0,0-0.1,0-0.1V3h-1.7c-0.2,0-0.3-0.1-0.3-0.3V1.6c0-0.2,0.1-0.3,0.3-0.3h1.7V0.8c0-0.2,0.1-0.3,0.3-0.3h1.4
		c0.2,0,0.3,0.1,0.3,0.3v0.5h1.2c0.2,0,0.3,0.1,0.3,0.3v1.2c0,0.2-0.1,0.3-0.3,0.3h-1.2v0.9V4c1.3,0,2.5-0.1,3.4-0.1V3h-1.3
		C35.1,3,35,2.9,35,2.8V1.6c0-0.2,0.1-0.3,0.3-0.3h1.3V0.8c0-0.2,0.1-0.3,0.3-0.3h1.4c0.2,0,0.3,0.1,0.3,0.3v0.5h1.8
		c0.2,0,0.3,0.1,0.3,0.3v1.2c0,0.2-0.1,0.3-0.3,0.3h-1.8v0.7l0.5-0.1h0.1c0.1,0,0.2,0.1,0.3,0.2l0.5,0.9c0,0,0,0.1,0,0.1
		C39.7,5,39.7,5,39.5,5c-0.9,0.1-2.1,0.2-3.7,0.3v0.5h4.3c0.2,0,0.3,0.1,0.3,0.3V7c0,0.2-0.1,0.3-0.3,0.3h-4.3v0.5h3.8
		c0.2,0,0.3,0.1,0.3,0.3v4.3c0,0.2-0.1,0.3-0.3,0.3h-3.8v0.6h3.9c0.2,0,0.3,0.1,0.3,0.3v0.8c0,0.2-0.1,0.3-0.3,0.3h-3.9v0.6h4.5
		c0.2,0,0.3,0.1,0.3,0.3v1c0,0.2-0.1,0.3-0.3,0.3h-11C29.2,16.8,29.1,16.7,29.1,16.5z M33.8,9.7V9h-2v0.6H33.8z M33.8,11.4v-0.6h-2
		v0.6H33.8z M37.9,9.7V9h-2.1v0.6H37.9z M37.9,11.4v-0.6h-2.1v0.6H37.9z"/>
	<path d="M55.4,16c-0.5-0.4-0.7-1-0.7-1.7c0-0.4,0.1-0.8,0.3-1.2c0.2-0.4,0.4-0.8,0.8-1.2c0.5-0.5,1.2-1.2,2-2
		c0.8-0.8,1.5-1.4,2.1-1.9h-4c-0.2,0-0.3-0.1-0.3-0.3V6.6c-0.1,0.1-0.2,0.2-0.3,0.3c-0.1,0.1-0.2,0.2-0.4,0.3c0,0-0.1,0.1-0.2,0.1
		c-0.1,0-0.1,0-0.2-0.1l-0.7-1v8.2c0,0.2-0.1,0.3-0.3,0.3h-5.1c-0.2,0-0.3-0.1-0.3-0.3V1.6c0-0.2,0.1-0.3,0.3-0.3h5.1
		c0.2,0,0.3,0.1,0.3,0.3v3.5c0.6-0.6,1.2-1.2,1.6-2s0.8-1.6,1-2.4c0-0.1,0.1-0.2,0.3-0.2h0.1l1.7,0.3c0.1,0,0.1,0.1,0.2,0.1
		c0,0,0,0.1,0,0.2l-0.4,1.1h5.7c0.2,0,0.3,0.1,0.3,0.3v1.6c0,0.2-0.1,0.3-0.3,0.3h-6.8C57,5,56.7,5.5,56.3,6h7
		c0.2,0,0.3,0.1,0.3,0.3v1.5c0,0.1-0.1,0.2-0.2,0.3c-0.9,0.6-1.9,1.5-3.1,2.5c-1.2,1-2.1,1.8-2.6,2.4c-0.3,0.4-0.5,0.7-0.5,0.9
		c0,0.2,0.1,0.3,0.2,0.5c0.2,0.1,0.4,0.2,0.7,0.2c0.5,0,1,0.1,1.6,0.1c0.5,0,0.9,0,1.3-0.1c0.4,0,0.7-0.1,0.9-0.3
		c0.2-0.1,0.3-0.4,0.4-0.8c0.1-0.4,0.2-0.9,0.2-1.6c0-0.1,0-0.2,0.1-0.2c0.1,0,0.1,0,0.2,0l1.7,0.7c0.1,0,0.2,0.1,0.2,0.3v0.1
		c-0.1,1-0.2,1.8-0.4,2.3s-0.5,1-0.9,1.2c-0.4,0.3-1,0.4-1.8,0.5c-0.6,0-1.3,0.1-2,0.1c-0.7,0-1.4,0-2.1-0.1
		C56.6,16.7,55.9,16.4,55.4,16z M50.4,3.4v9.2h1.6V3.4H50.4z"/>
	<path d="M78.7,16.4h-6.1c-0.2,0-0.3-0.1-0.3-0.3v-13c0-0.2,0.1-0.3,0.3-0.3h1.3c0.4-0.8,0.6-1.5,0.8-2.2c0-0.1,0.1-0.2,0.2-0.2H75
		l1.8,0.2C77,0.8,77,0.9,77,1c-0.2,0.7-0.5,1.4-0.7,1.9h2.5C78.9,2.9,79,3,79,3.1v2.1c0.4-0.6,0.8-1.3,1.1-2.1
		c0.3-0.8,0.6-1.6,0.8-2.4c0-0.1,0.1-0.2,0.2-0.2h0.1l1.7,0.2c0.1,0,0.1,0,0.2,0.1c0,0,0,0.1,0,0.2c-0.1,0.5-0.3,1-0.5,1.6h4.9
		c0.1,0,0.2,0.1,0.3,0.3c0,0.2,0,1.4,0,3.6c0,2.6,0,4.5-0.1,5.7c-0.1,1.2-0.3,2.1-0.7,2.8s-0.9,1.2-1.6,1.5s-1.6,0.5-2.8,0.5
		c-0.1,0-0.2,0-0.4,0c-0.1,0-0.2-0.1-0.2-0.2L81.4,15c0,0,0-0.1,0-0.1c0-0.1,0.1-0.2,0.2-0.2c0.9,0,1.7,0,2.2-0.2
		c0.5-0.2,0.9-0.4,1.1-0.8c0.2-0.4,0.4-1,0.4-1.7c0.1-1.2,0.1-2.7,0.1-4.3c0-0.9,0-1.9,0-2.9h-3.7c-0.4,0.9-0.8,1.6-1.3,2.2
		C80.4,7,80.3,7,80.3,7c0,0-0.1,0-0.2-0.1L79,6.4v9.7C79,16.3,78.9,16.4,78.7,16.4z M74.5,4.9v3.5h2.4V4.9H74.5z M74.5,10.5v3.7h2.4
		v-3.7H74.5z M80.2,8.2c0-0.1-0.1-0.1-0.1-0.2c0-0.1,0-0.1,0.1-0.2l1.5-0.7c0,0,0.1,0,0.1,0c0.1,0,0.2,0,0.2,0.1
		c0.4,0.5,0.8,1.1,1.2,1.8s0.7,1.3,0.9,2c0,0,0,0.1,0,0.1c0,0.1-0.1,0.2-0.2,0.2l-1.6,0.8l-0.1,0c-0.1,0-0.1-0.1-0.2-0.2
		C81.6,10.6,81,9.3,80.2,8.2z"/>
	<path d="M97.6,16.9V8.3c-0.4,0.5-0.7,0.9-1.1,1.3c-0.1,0.1-0.1,0.1-0.2,0.1c-0.1,0-0.2-0.1-0.2-0.2l-0.7-2.2l0-0.1
		c0-0.1,0-0.1,0-0.1l0.1-0.1c0.7-0.7,1.4-1.6,2-2.6c0.6-1.1,1.1-2.2,1.5-3.5c0-0.1,0.1-0.2,0.2-0.2c0,0,0.1,0,0.1,0l1.9,0.3
		c0.1,0,0.2,0.1,0.2,0.2c0,0,0,0.1,0,0.1c-0.4,1.4-0.9,2.6-1.6,3.8v11.9c0,0.2-0.1,0.3-0.3,0.3h-1.8C97.6,17.2,97.6,17.1,97.6,16.9z
		 M102,15.2l-1.7-0.8c-0.1-0.1-0.2-0.1-0.2-0.2c0,0,0-0.1,0.1-0.1c1-1.5,1.6-3.3,1.9-5.2c0-0.1,0.1-0.2,0.2-0.2c0,0,0.1,0,0.1,0
		l1.7,0.4c0.1,0,0.2,0.1,0.2,0.1v0.1c-0.2,1-0.4,2-0.7,3c-0.3,1-0.7,2-1.2,2.8c0,0.1-0.1,0.1-0.2,0.1C102.1,15.2,102,15.2,102,15.2z
		 M110.6,8.5l-1.7-0.6c-0.1,0-0.1-0.1-0.2-0.2c0-0.1,0-0.1,0-0.2c0.4-1,0.7-2,0.7-2.9h-5.1c-0.3,0.7-0.5,1.3-0.8,1.9
		c-0.3,0.5-0.7,1.1-1.1,1.7c-0.1,0.1-0.1,0.1-0.2,0.1c0,0-0.1,0-0.2-0.1l-1.5-1.4c-0.1-0.1-0.1-0.1-0.1-0.2c0-0.1,0-0.1,0.1-0.2
		c0.8-0.9,1.3-1.8,1.7-2.7c0.3-0.9,0.6-1.8,0.7-2.9c0-0.1,0.1-0.2,0.1-0.2h0.1l1.9,0.2c0.1,0,0.2,0.1,0.2,0.2v0.1
		c-0.1,0.4-0.2,0.9-0.3,1.4h6.6c0.2,0,0.3,0.1,0.3,0.3c0,2.1-0.4,3.9-0.9,5.5C110.9,8.4,110.9,8.5,110.6,8.5
		C110.7,8.5,110.7,8.5,110.6,8.5z M103.7,17c0,0-0.1-0.1-0.1-0.1l-0.7-1.8c0,0,0-0.1,0-0.1c0-0.1,0.1-0.2,0.2-0.2h0.1
		c0.2,0,0.4,0,0.7,0c0.4,0,0.8,0,1-0.1c0.2-0.1,0.3-0.2,0.4-0.3c0.1-0.1,0.1-0.3,0.1-0.6V6.2c0-0.2,0.1-0.3,0.3-0.3h1.7
		c0.2,0,0.3,0.1,0.3,0.3v8.4c0,0.9-0.3,1.6-0.9,2c-0.6,0.4-1.5,0.5-2.7,0.5C103.9,17.1,103.8,17.1,103.7,17z M110.3,15.2
		c-0.4-0.7-0.8-1.5-1.1-2.6c-0.4-1-0.7-2.1-0.9-3.1l0-0.1c0-0.1,0.1-0.2,0.2-0.2l1.6-0.5c0,0,0.1,0,0.1,0c0.1,0,0.2,0.1,0.2,0.2
		c0.2,0.9,0.5,1.8,0.9,2.7s0.7,1.7,1.1,2.4c0,0,0,0.1,0,0.1c0,0.1,0,0.1-0.1,0.2l-1.6,0.9c0,0-0.1,0-0.1,0
		C110.4,15.3,110.4,15.3,110.3,15.2z"/>
	<path d="M126.1,13l0-0.2l0.9-2.8c-0.2-0.1-0.4-0.3-0.6-0.6c-0.1-0.2-0.2-0.5-0.2-0.8c0-0.5,0.2-0.8,0.5-1.1s0.7-0.4,1.1-0.4
		s0.8,0.1,1.1,0.4c0.3,0.3,0.5,0.7,0.5,1.1c0,0.3-0.1,0.6-0.2,0.9c-0.1,0.3-0.3,0.9-0.7,1.7l-0.8,1.8c-0.1,0.1-0.2,0.2-0.3,0.2h-1.2
		C126.2,13.2,126.1,13.2,126.1,13z"/>
	<path d="M143.4,16.2l0-0.1c0.3-0.6,0.5-1.4,0.7-2.1c0.1-0.8,0.2-1.7,0.2-2.6l0-1.5V7.1c0-0.2,0.1-0.3,0.3-0.3h6.8
		c0.2,0,0.3,0.1,0.3,0.3v7.6c0,0.7-0.2,1.2-0.5,1.6c-0.3,0.4-1,0.6-1.9,0.7l-0.9,0c-0.1,0-0.2-0.1-0.3-0.2l-0.5-1.5c0,0,0-0.1,0-0.1
		c0-0.1,0.1-0.2,0.3-0.2c0.3,0,0.5,0,0.9,0c0.4,0,0.7-0.1,0.8-0.2c0.1-0.1,0.2-0.3,0.2-0.6v-0.5h-3.2c-0.1,1.2-0.4,2.3-0.8,3.2
		c0,0.1-0.1,0.1-0.2,0.1c0,0-0.1,0-0.1,0l-1.7-0.6C143.4,16.4,143.4,16.3,143.4,16.2z M150.3,6.3L150,5.6c-1.9,0.3-3.9,0.4-5.9,0.5
		c-0.1,0-0.1,0-0.2-0.1c0,0-0.1-0.1-0.1-0.2l-0.3-1.1l0-0.2c0-0.1,0-0.1,0-0.2c0-0.1,0.2-0.3,0.4-0.6c0.4-0.4,0.7-0.9,1.1-1.5
		c0.4-0.6,0.7-1.1,0.9-1.6c0.1-0.1,0.1-0.2,0.2-0.2c0.1,0,0.1,0,0.2,0l1.7,0.4c0.1,0,0.2,0.1,0.2,0.1c0,0.1,0,0.1,0,0.2
		c-0.4,0.7-1.2,1.7-2.2,2.9c1.2-0.1,2.3-0.2,3.2-0.3c-0.2-0.5-0.4-0.9-0.6-1.3c0-0.1,0-0.1,0-0.1c0-0.1,0.1-0.2,0.2-0.2l1.4-0.4
		c0,0,0.1,0,0.1,0c0.1,0,0.1,0.1,0.2,0.2c0.8,1.2,1.3,2.5,1.7,3.6c0,0,0,0.1,0,0.1c0,0.1-0.1,0.2-0.2,0.2l-1.5,0.5c0,0-0.1,0-0.1,0
		C150.4,6.4,150.3,6.4,150.3,6.3z M149.4,9.6v-1h-3.1v1H149.4z M149.4,12.1v-1h-3.1v0.7v0.4H149.4z M154.7,16.7
		c-0.7,0-1.3-0.2-1.6-0.4c-0.3-0.3-0.5-0.8-0.5-1.5V9.1c0-0.2,0.1-0.3,0.3-0.3h1.7c0.2,0,0.3,0.1,0.3,0.3v1.4l4.6-0.9h0.1
		c0.1,0,0.2,0.1,0.2,0.2l0.3,1.4v0.1c0,0.1-0.1,0.2-0.2,0.3l-4.9,1v1.5c0,0.2,0,0.3,0.1,0.4c0.1,0.1,0.2,0.1,0.4,0.1
		c0.1,0,0.4,0,0.7,0l1,0c0.3,0,0.5-0.1,0.7-0.1c0.1-0.1,0.2-0.2,0.3-0.4s0.1-0.6,0.2-1.1c0-0.1,0-0.2,0.1-0.2c0.1,0,0.1,0,0.2,0
		l1.6,0.7c0.1,0,0.1,0.1,0.2,0.2c0,0,0,0.1,0,0.1c0,0.9-0.2,1.5-0.3,1.9c-0.2,0.4-0.4,0.7-0.8,0.8c-0.4,0.1-0.9,0.2-1.7,0.3l-1.4,0
		L154.7,16.7z M154.8,0.7v1.5h4.6c0.2,0,0.3,0.1,0.3,0.3V4c0,0.2-0.1,0.3-0.3,0.3h-4.6v1.4c0,0.3,0.2,0.5,0.5,0.5
		c0.3,0,0.9,0.1,1.8,0.1c0.9,0,1.7,0,2.5-0.1h0c0.1,0,0.2,0.1,0.2,0.3V8c0,0.1-0.1,0.2-0.3,0.3c-0.9,0.1-1.9,0.1-3.1,0.1
		c-0.7,0-1.3,0-1.8-0.1c-0.6,0-1-0.1-1.3-0.2c-0.3-0.1-0.5-0.3-0.6-0.6c-0.1-0.3-0.2-0.7-0.2-1.2V0.7c0-0.2,0.1-0.3,0.3-0.3h1.8
		C154.8,0.5,154.8,0.6,154.8,0.7z"/>
	<path d="M169.7,10.7V0.3c0-0.2,0.1-0.3,0.3-0.3h5c0.2,0,0.3,0.1,0.3,0.3v1.8c0,0.2-0.1,0.3-0.3,0.3h-2.7v8.3c0,0.2-0.1,0.3-0.3,0.3
		h-2C169.8,11,169.7,10.9,169.7,10.7z"/>
	<path d="M184.4,9.6v-2c0-0.2,0.1-0.3,0.3-0.3H200c0.2,0,0.3,0.1,0.3,0.3v2c0,0.2-0.1,0.3-0.3,0.3h-15.3
		C184.5,9.9,184.4,9.8,184.4,9.6z"/>
	<path d="M207.7,16.2c0,0,0-0.1,0-0.1c0.4-0.9,0.6-1.9,0.8-3.2c0.2-1.2,0.3-2.5,0.3-3.7c0-0.1,0-0.1,0.1-0.2c0.1,0,0.1-0.1,0.2-0.1
		l1.5,0.1c0.2,0,0.2,0.1,0.2,0.3c0,0.8-0.1,1.7-0.1,2.5c0.2,0.4,0.6,0.9,1,1.2V7.9h-3.1c-0.2,0-0.3-0.1-0.3-0.3V6.1
		c0-0.2,0.1-0.3,0.3-0.3h3V4.2H209c-0.2,0-0.3-0.1-0.3-0.3V2.4c0-0.2,0.1-0.3,0.3-0.3h2.4V0.7c0-0.2,0.1-0.3,0.3-0.3h1.6
		c0.2,0,0.3,0.1,0.3,0.3v1.4h2.1c0.2,0,0.3,0.1,0.3,0.3v1.6c0,0.2-0.1,0.3-0.3,0.3h-2.1v1.6h2.5c0.2,0,0.3,0.1,0.3,0.3v1.6
		c0,0.2-0.1,0.3-0.3,0.3h-2.3v1.8h2c0.2,0,0.3,0.1,0.3,0.3v1.6c0,0.2-0.1,0.3-0.3,0.3h-2v2.3c0.7,0.2,1.4,0.3,2.2,0.3
		c0.9,0.1,2.1,0.1,3.4,0.1c1.7,0,3.5-0.1,5.3-0.3h0c0.1,0,0.2,0.1,0.2,0.2l0,0.1l-0.5,1.8c0,0.1-0.1,0.2-0.3,0.2
		c-1.4,0.1-2.9,0.1-4.5,0.1c-1.5,0-2.8,0-3.7-0.1c-1.3-0.1-2.4-0.3-3.2-0.7s-1.6-0.9-2.2-1.7c-0.1,0.9-0.3,1.7-0.6,2.6
		c0,0.1-0.1,0.2-0.2,0.2c0,0-0.1,0-0.1,0l-1.6-0.7C207.7,16.4,207.7,16.3,207.7,16.2z M219,13.5c-0.7,0-1.2-0.2-1.6-0.5
		c-0.4-0.3-0.5-0.8-0.5-1.6V1.5c0-0.2,0.1-0.3,0.3-0.3h6.4c0.2,0,0.3,0.1,0.3,0.3v6.1c0,0.2-0.1,0.3-0.3,0.3h-4.5v2.8
		c0,0.2,0,0.4,0.1,0.5c0.1,0.1,0.2,0.1,0.5,0.2l0.8,0l0.8,0c0.3,0,0.5-0.1,0.6-0.2c0.1-0.2,0.3-0.4,0.3-0.7s0.1-0.8,0.2-1.4
		c0-0.2,0.1-0.3,0.3-0.2l1.6,0.6c0.1,0,0.2,0.1,0.2,0.1c0,0,0,0.1,0,0.2c-0.1,1-0.2,1.8-0.4,2.3c-0.2,0.5-0.5,0.9-0.9,1.1
		s-0.9,0.3-1.7,0.3l-1.4,0L219,13.5z M221.6,5.9V3.4h-2.6v2.5H221.6z"/>
	<path d="M238.3,15.9c0,0-0.1,0-0.2-0.1c-0.5-0.5-1-1.1-1.7-1.7c-0.4,0.5-0.9,1.1-1.4,1.6c-0.5,0.5-1.1,1-1.7,1.4
		c0,0-0.1,0.1-0.2,0.1c0,0-0.1,0-0.2-0.1l-1.2-1.6c0,0-0.1-0.1-0.1-0.1c0-0.1,0-0.1,0.1-0.2c0.6-0.3,1.1-0.6,1.6-1.1
		c0.5-0.4,1-0.9,1.3-1.3c-0.7-0.6-1.5-1.1-2.3-1.7c-0.1-0.1-0.2-0.2-0.1-0.3c0.4-1.5,0.7-3.2,1-5.2h-1.1c-0.2,0-0.3-0.1-0.3-0.3V3.5
		c0-0.2,0.1-0.3,0.3-0.3h1.4c0.1-1,0.1-1.9,0.1-2.4c0-0.2,0.1-0.3,0.3-0.3l1.7,0c0.2,0,0.3,0.1,0.3,0.3c0,0.8-0.1,1.6-0.2,2.4h3.1
		c0.2,0,0.3,0.1,0.3,0.3c0,1.9-0.1,3.5-0.3,4.9c-0.2,1.4-0.6,2.6-1.1,3.7c0.7,0.6,1.3,1.2,1.8,1.7c0.1,0.1,0.1,0.1,0.1,0.2
		c0,0,0,0.1-0.1,0.2l-1.1,1.6C238.4,15.8,238.3,15.9,238.3,15.9z M236,10.7c0.3-0.7,0.5-1.5,0.7-2.4c0.2-0.9,0.3-1.9,0.3-2.9h-1.4
		c-0.3,2-0.5,3.5-0.8,4.4C235,10,235.4,10.3,236,10.7z M239.6,7.8h3.4v-2c0-0.1,0.1-0.2,0.2-0.3c0.4-0.3,0.8-0.6,1.2-0.9
		c0.4-0.4,0.7-0.7,0.9-1h-5.2c-0.2,0-0.3-0.1-0.3-0.3V1.4c0-0.2,0.1-0.3,0.3-0.3h7.6c0.2,0,0.3,0.1,0.3,0.3v1.8c0,0.1,0,0.2-0.1,0.3
		c-0.3,0.5-0.6,0.9-1.1,1.5c-0.4,0.5-0.9,1-1.4,1.4v1.4h2.9c0.2,0,0.3,0.1,0.3,0.3v1.8c0,0.2-0.1,0.3-0.3,0.3h-2.9v4.1
		c0,0.8-0.1,1.4-0.3,1.8c-0.2,0.4-0.5,0.7-1.1,0.9s-1.3,0.3-2.4,0.3l-0.5,0c-0.2,0-0.3-0.1-0.3-0.2l-0.6-1.8l0-0.1
		c0-0.1,0-0.1,0.1-0.1s0.1,0,0.2,0l0.9,0c0.5,0,0.9,0,1.2-0.1c0.2-0.1,0.4-0.2,0.4-0.4c0.1-0.2,0.1-0.4,0.1-0.8v-3.6h-3.4
		c-0.2,0-0.3-0.1-0.3-0.3V8C239.3,7.8,239.4,7.8,239.6,7.8z"/>
	<path d="M262.2,15.9c0,0-0.1,0-0.2-0.1c-0.5-0.5-1-1.1-1.7-1.7c-0.4,0.5-0.9,1.1-1.4,1.6c-0.5,0.5-1.1,1-1.7,1.4
		c0,0-0.1,0.1-0.2,0.1c0,0-0.1,0-0.2-0.1l-1.2-1.6c0,0-0.1-0.1-0.1-0.1c0-0.1,0-0.1,0.1-0.2c0.6-0.3,1.1-0.6,1.6-1.1s1-0.9,1.3-1.3
		c-0.7-0.6-1.5-1.1-2.3-1.7c-0.1-0.1-0.2-0.2-0.1-0.3c0.4-1.5,0.7-3.2,1-5.2h-1.1c-0.2,0-0.3-0.1-0.3-0.3V3.5c0-0.2,0.1-0.3,0.3-0.3
		h1.4c0.1-1,0.1-1.9,0.1-2.4c0-0.2,0.1-0.3,0.3-0.3l1.7,0c0.2,0,0.3,0.1,0.3,0.3c0,0.8-0.1,1.6-0.2,2.4h3.1c0.2,0,0.3,0.1,0.3,0.3
		c0,1.9-0.1,3.5-0.3,4.9s-0.6,2.6-1.1,3.7c0.7,0.6,1.3,1.2,1.8,1.7c0.1,0.1,0.1,0.1,0.1,0.2c0,0,0,0.1-0.1,0.2l-1.1,1.6
		C262.3,15.8,262.3,15.9,262.2,15.9z M259.9,10.7c0.3-0.7,0.5-1.5,0.7-2.4s0.3-1.9,0.3-2.9h-1.4c-0.3,2-0.5,3.5-0.8,4.4
		C258.9,10,259.4,10.3,259.9,10.7z M263.5,7.8h3.5v-2c0-0.1,0.1-0.2,0.2-0.3c0.4-0.3,0.8-0.6,1.2-0.9c0.4-0.4,0.7-0.7,0.9-1H264
		c-0.2,0-0.3-0.1-0.3-0.3V1.4c0-0.2,0.1-0.3,0.3-0.3h7.6c0.2,0,0.3,0.1,0.3,0.3v1.8c0,0.1,0,0.2-0.1,0.3c-0.3,0.5-0.6,0.9-1.1,1.5
		c-0.4,0.5-0.9,1-1.4,1.4v1.4h2.9c0.2,0,0.3,0.1,0.3,0.3v1.8c0,0.2-0.1,0.3-0.3,0.3h-2.9v4.1c0,0.8-0.1,1.4-0.3,1.8
		c-0.2,0.4-0.5,0.7-1.1,0.9s-1.3,0.3-2.4,0.3l-0.5,0c-0.2,0-0.3-0.1-0.3-0.2l-0.6-1.8l0-0.1c0-0.1,0-0.1,0.1-0.1c0,0,0.1,0,0.2,0
		l0.9,0c0.5,0,0.9,0,1.2-0.1c0.2-0.1,0.4-0.2,0.4-0.4c0.1-0.2,0.1-0.4,0.1-0.8v-3.6h-3.5c-0.2,0-0.3-0.1-0.3-0.3V8
		C263.2,7.8,263.3,7.8,263.5,7.8z"/>
	<path d="M287.2,16c-0.5-0.4-0.7-1-0.7-1.7c0-0.4,0.1-0.8,0.3-1.2c0.2-0.4,0.4-0.8,0.8-1.2c0.5-0.5,1.2-1.2,2-2
		c0.8-0.8,1.5-1.4,2.1-1.9h-4c-0.2,0-0.3-0.1-0.3-0.3V6.6c-0.1,0.1-0.2,0.2-0.3,0.3c-0.1,0.1-0.2,0.2-0.4,0.3c0,0-0.1,0.1-0.2,0.1
		s-0.1,0-0.2-0.1l-0.7-1v8.2c0,0.2-0.1,0.3-0.3,0.3h-5.1c-0.2,0-0.3-0.1-0.3-0.3V1.6c0-0.2,0.1-0.3,0.3-0.3h5.1
		c0.2,0,0.3,0.1,0.3,0.3v3.5c0.6-0.6,1.2-1.2,1.6-2s0.8-1.6,1-2.4c0-0.1,0.1-0.2,0.3-0.2h0.1l1.7,0.3c0.1,0,0.1,0.1,0.2,0.1
		c0,0,0,0.1,0,0.2l-0.4,1.1h5.7c0.2,0,0.3,0.1,0.3,0.3v1.6c0,0.2-0.1,0.3-0.3,0.3h-6.8c-0.3,0.5-0.7,1.1-1,1.5h7
		c0.2,0,0.3,0.1,0.3,0.3v1.5c0,0.1-0.1,0.2-0.2,0.3c-0.9,0.6-1.9,1.5-3.1,2.5c-1.2,1-2.1,1.8-2.6,2.4c-0.3,0.4-0.5,0.7-0.5,0.9
		c0,0.2,0.1,0.3,0.2,0.5s0.4,0.2,0.7,0.2c0.5,0,1,0.1,1.6,0.1c0.5,0,0.9,0,1.3-0.1c0.4,0,0.7-0.1,0.9-0.3c0.2-0.1,0.3-0.4,0.4-0.8
		c0.1-0.4,0.2-0.9,0.2-1.6c0-0.1,0-0.2,0.1-0.2s0.1,0,0.2,0l1.7,0.7c0.1,0,0.2,0.1,0.2,0.3v0.1c-0.1,1-0.2,1.8-0.4,2.3
		c-0.2,0.5-0.5,1-0.9,1.2c-0.4,0.3-1,0.4-1.8,0.5c-0.6,0-1.3,0.1-2,0.1c-0.7,0-1.4,0-2.1-0.1C288.4,16.7,287.7,16.4,287.2,16z
		 M282.2,3.4v9.2h1.6V3.4H282.2z"/>
	<path d="M310.6,7v10.4c0,0.2-0.1,0.3-0.3,0.3h-5c-0.2,0-0.3-0.1-0.3-0.3v-1.8c0-0.2,0.1-0.3,0.3-0.3h2.7V7c0-0.2,0.1-0.3,0.3-0.3h2
		C310.5,6.8,310.6,6.8,310.6,7z"/>
	<path d="M320.6,14.3V1.8c0-0.2,0.1-0.3,0.3-0.3h4.7c0.2,0,0.3,0.1,0.3,0.3v12.6c0,0.2-0.1,0.3-0.3,0.3h-4.7
		C320.7,14.6,320.6,14.5,320.6,14.3z M324,12.5v-9h-1.3v9H324z M327.1,17l-1.3-0.4c-0.2-0.1-0.2-0.2-0.1-0.3
		c0.3-0.6,0.5-1.2,0.7-1.9c0.2-0.7,0.3-1.4,0.4-2.1c0-0.2,0.1-0.2,0.3-0.2l1.1,0.2c0.2,0,0.2,0.1,0.2,0.3c0,0.7-0.1,1.5-0.3,2.3
		s-0.3,1.5-0.6,2.1C327.4,17,327.4,17,327.1,17C327.2,17,327.2,17,327.1,17z M332.5,17l-0.3-1.2l-0.7,0.2l-0.1,0
		c-0.1,0-0.1,0-0.1-0.1c0,0-0.1-0.1-0.1-0.2c0-1.2-0.2-2.3-0.5-3.4l0-0.1c0-0.1,0.1-0.2,0.2-0.2l0.7-0.1h0.1c0.1,0,0.2,0.1,0.2,0.2
		c0.3,1,0.5,1.9,0.6,2.8c0.6,0,1-0.1,1.3-0.3s0.5-0.6,0.5-1.1c0-0.6,0.1-1.4,0.1-2.2h-7.2c-0.2,0-0.2-0.1-0.2-0.3V1.3
		c0-0.2,0.1-0.3,0.3-0.3h9.2c0.2,0,0.3,0.1,0.3,0.3v1.3c0,0.2-0.1,0.3-0.3,0.3h-2.9V4h2.4c0.2,0,0.3,0.1,0.3,0.3v1.1
		c0,0.2-0.1,0.3-0.3,0.3h-2.4v1.1h2.4c0.2,0,0.3,0.1,0.3,0.3v1.1c0,0.2-0.1,0.3-0.3,0.3h-2.4v1.1h2.8c0.2,0,0.3,0.1,0.3,0.3
		c0,1.9,0,3.4-0.1,4.5c-0.1,1.1-0.5,1.9-1,2.3c-0.6,0.4-1.4,0.6-2.6,0.6C332.6,17.2,332.5,17.1,332.5,17z M328.9,16.4l0-1.2
		c0-1-0.1-2-0.1-2.8c0-0.1,0.1-0.2,0.2-0.2l0.9-0.1h0.1c0.1,0,0.2,0.1,0.2,0.2c0.2,1.6,0.3,2.9,0.3,3.9c0,0.2-0.1,0.2-0.2,0.3
		l-1,0.1h0C329,16.6,328.9,16.6,328.9,16.4z M331.2,4V2.9h-2.1V4H331.2z M331.2,6.8V5.6h-2.1v1.1H331.2z M331.2,9.5V8.4h-2.1v1.1
		H331.2z M333,14.1c-0.1-0.6-0.2-1.3-0.5-2c0,0,0-0.1,0-0.1c0-0.1,0.1-0.2,0.2-0.2l0.5-0.1l0.1,0c0.1,0,0.2,0.1,0.2,0.2
		c0.2,0.6,0.4,1.3,0.6,1.9l0,0.1c0,0.1-0.1,0.2-0.2,0.2l-0.6,0.2c0,0-0.1,0-0.1,0C333.1,14.3,333,14.3,333,14.1z"/>
	<path d="M350.8,12.2l-0.1-3.5c0-0.1,0-0.1,0.1-0.2s0.1-0.1,0.2-0.1h0.7c0.9,0,1.7-0.2,2.1-0.6c0.5-0.4,0.7-0.9,0.7-1.6
		c0-0.6-0.2-1.1-0.5-1.4c-0.4-0.3-0.9-0.5-1.5-0.5c-1,0-1.8,0.5-2.3,1.6C350.1,6,350,6,349.8,6l-2.1-0.5c-0.1,0-0.2-0.1-0.2-0.2
		l0-0.1c0.4-1.1,1-1.9,1.9-2.5s1.9-0.9,3.1-0.9c0.9,0,1.7,0.2,2.4,0.5s1.2,0.9,1.6,1.5c0.4,0.7,0.6,1.4,0.6,2.3
		c0,0.8-0.2,1.5-0.5,2.1c-0.3,0.7-0.8,1.2-1.4,1.7c-0.6,0.4-1.3,0.7-2.2,0.9l0,1.6c0,0.2-0.1,0.3-0.3,0.3h-1.9
		C350.9,12.5,350.8,12.4,350.8,12.2z M350.9,16.2c-0.3-0.3-0.5-0.7-0.5-1.1s0.2-0.8,0.5-1.1c0.3-0.3,0.7-0.4,1.2-0.4
		c0.5,0,0.8,0.1,1.1,0.4c0.3,0.3,0.5,0.7,0.5,1.1s-0.2,0.8-0.5,1.1s-0.7,0.4-1.1,0.4C351.6,16.7,351.2,16.5,350.9,16.2z"/>
</g>
</svg>
