<!--Generator: Adobe Illustrator 25.0.0, SVG Export Plug-In-->
<svg version="1.1" xmlns="http://www.w3.org/2000/svg" xmlns:xlink="http://www.w3.org/1999/xlink" x="0px" y="0px" width="740px" height="281.4px" viewBox="0 0 740 281.4" style="overflow:visible;enable-background:new 0 0 740 281.4;" xml:space="preserve">
    <style type="text/css">
        .st0{clip-path:url(#SVGID_2_);fill:#DF032E;}
	.st1{clip-path:url(#SVGID_2_);}
	.st2{clip-path:url(#SVGID_2_);fill:#FFFFFF;}
	.st3{clip-path:url(#SVGID_4_);fill:#DF032E;}
	.st4{clip-path:url(#SVGID_4_);}
	.st5{clip-path:url(#SVGID_4_);fill:#FFFFFF;}
    </style>
    <defs/>
    <g>
        <defs>
            <rect id="SVGID_1_" y="0" width="740" height="281.4"/>
        </defs>
        <clipPath id="SVGID_2_">
            <use xlink:href="#SVGID_1_" style="overflow:visible;"/>
        </clipPath>
        <path class="st0" d="M485,170.2c4.7,2.2,10.9,3.6,18.2,4l-3.3,13c-1.7-0.2-12.9-1.7-22.6-7.8l-0.2-0.1l-0.1,0.1
		c-7.1,7.2-15.9,12.7-26.1,16.5l-5.4-13.8c1.9-0.5,12.5-3.4,22.5-10.8l0.2-0.2L468,171c-4.9-6.5-6.9-14.6-5.8-24.1
		c0.2-1.4,0.4-2.7,0.6-4.1c-13.3,3.8-35.2,7.7-33.6-10.6c-6.3,3.6-11.8,6.7-17,9.3c1.6,3.1,2.9,6.9,3.4,11.5
		c1.4,16.9-9.1,28.2-18.2,34.7c-8.9,6.4-18.2,9.5-20,10.1v-14.9c16-6.9,25-15.2,27-24.7c0.9-4.5,0.1-8.8-1.5-12.5
		c-8.6,3.6-17.4,6-28.8,7.9c-2.5-4.4-8.2-12.8-8.2-12.8c12.9-1.3,22.4-2.8,30.5-5c-0.2-0.2-0.4-0.4-0.6-0.7
		c-6.2-6.8-3.1-12.5-0.6-17.1l0.3-0.6c3.8-6.1,12-16,12.1-16.1l0.5-0.5l-0.7,0.1c-3.3,0.6-25.4,10.2-28.6,11.5c0-8.5,0-10.6,0-11.1
		c2-0.8,22.9-9.6,36.8-11.9c4-0.9,6.7-0.5,7.8,1.2c1.3,1.9,0.3,5.1-1.1,7.3c-1.7,2.5-5.7,7.5-8.7,11c-14,15.7-12.9,18.4-9.8,22
		c0.2,0.2,0.4,0.5,0.7,0.8c0.4,0.3,0.8,0.7,1.2,1.1c9.9-3.8,18.5-9.1,30.8-17.2c1.8-1.3,5.2,0.7,7,2.7c4.8,4.1-6.7,9.5-5.7,15.8
		c0.3,2.8,4.1,3.5,6.3,3.3c7.4-0.8,14.2-2.5,20.4-4.9c0-0.3,0.1-0.5,0.1-0.8c2.4-15.7,4.5-29.3,3.1-38.2l12.2,2.1
		c0,1.8-0.1,15.2-4.7,31.8c9.3-5.1,17.5-11.4,25.4-17.6l9.4,11.2c-10,5.5-25.7,13.9-37,18.2c-1.1,7.4-1.6,16.6,3.6,23.7l0.2,0.3
		l0.2-0.2c6.4-7.4,10-16.1,10.8-25.8l9.5-1.1c-0.2,2.3-1.7,18.1-12,33.4l-0.2,0.2L485,170.2z M576.1,134.8l-2.7-10.6
		c-6,4-14.3,7.5-24.4,10.5l-0.2,0l-0.1-0.1c-1.2-1.3-2.4-2.6-3.9-3.8c-0.2-0.3-0.5-0.6-0.7-0.8c-3.2-3.7-4.3-6.5,10-22.5
		c3.1-3.6,7.2-8.6,8.9-11.2c1.5-2.2,2.5-5.4,1.1-7.4c-1.2-1.7-3.9-2.1-8-1.2c-14.2,2.4-35.5,11.3-37.6,12.2c0,0.5,0,2.7,0,11.4
		c3.2-1.4,25.8-11.1,29.1-11.8l0.7-0.1l-0.5,0.5c-0.1,0.1-8.5,10.2-12.3,16.4l-0.3,0.6c-2.5,4.7-5.7,10.5,0.7,17.4
		c0.9,0.9,1.6,1.8,2.4,2.7l0.3,0.3l-0.4,0.1c-14.4,3.2-27.2,4.4-29.8,4.6l9.4,11.6c7-0.2,15.8-2.1,26.2-5.5l0.3-0.1l0.1,0.3
		c4.6,16.9-12.2,28.2-27.1,34.6V198c1.9-0.6,11.3-3.8,20.4-10.3c9.3-6.6,20-18.2,18.6-35.4c-0.3-2.7-0.9-5.3-1.7-7.7l-0.1-0.2
		l0.2-0.1C565.8,139.9,574.7,135.5,576.1,134.8 M695.8,90.1L650.8,103l0.5-0.6c3.2-4.3,5.2-16.5,5.5-18.6l-11.3,0
		c-0.2,10.6-3.4,16.6-6,19.8c-2.4,2.9-4.8,4.1-5.5,4.4l2.9,8.1l59.1-13.2L695.8,90.1z M627.5,124.8c1.6,4.3,1.5,10.4,0.9,20.9
		c-0.1,1.7-0.2,3.5-0.3,5.4l-0.2,2.7l-0.2,2.2c-3.8,1.7-7.5,3.1-11.3,4.4c-4.1,1.4-8.2,2.5-12.1,3.3c-5.4,1.1-9.3,1.4-11.2,1.5
		c-0.6,0-1,0-1.3,0l-4.2-11.4c1.5,0.2,3,0.3,4.6,0.4l0.4,0l0-0.4c-1.1-15.1-2-24-2.6-26.5l12.9-0.5l0.1-0.1c1.3-1.1,8-6.8,18.4-6.3
		C624.2,120.5,626.6,122.3,627.5,124.8 M619.1,136.2c-0.2-2.8-1-4.6-2.4-5.4c-1.4-0.8-3.4-0.6-5.9,0.6c-3.1,1.9-5.8,4.2-7.6,5.8
		l-0.1,0.1l0.6,16.1l0.4-0.1c5-0.8,10.6-2,14.6-3.3l0.2-0.1l0-0.6C618.9,149,619.2,137.9,619.1,136.2 M738.7,183.6
		c-18.4,2.8-40.5,4.9-60,2.2c-12.1-1.7-19.5-4.9-22-9.6c-1.5-2.9-0.8-5.7,0.1-7.5c2-4.1,10.2-13.7,18.1-22.9
		c5.2-6.1,10.1-11.8,13.1-15.8c2.8-3.9,3.7-6.8,2.8-8.4c-1.1-1.9-4.7-1.5-4.7-1.5l-46.2,9.1l1.2,10.9l31.5-7l-0.6,0.7
		c-0.1,0.1-6.8,8.5-21.4,24.2c-5.8,6.4-8.3,12.3-7.5,17.6c0.9,5.3,5.2,10.1,13.1,14.4c26.5,14,65.9,12.9,83.6,11.5L738.7,183.6z
		 M363.7,165l-2.9,12.9c-1.8-0.1-15-1.2-26-7.6l-0.2-0.1l-0.1,0.1c-16.5,17.2-36.9,24.9-39.1,25.8l-7.2-13.1
		c14.7-5.8,26.9-13,36.2-21.4l0.2-0.2l-0.1-0.2c-4.3-5.8-6.1-13-5.4-21.3c0.4-3.9,0.9-7.8,1.5-12.3l0-0.3l-0.3,0.1
		c-13.6,2.7-22.3,2.2-23.6,2.1l-4.8-16c8.6,1.7,18.8,1.6,30.3-0.4l0.2,0l0-0.2c1-9.2,1.7-18.5,0.4-25.2l12.9,1.2
		c0.1,1.5,0.5,10.2-1.4,21.2l-0.1,0.4l0.4-0.1c17.1-4.5,31.1-11.1,33.5-12.2l0.5,11.3c-3.9,2.1-7.9,4.1-11.9,5.9l-0.1,0.1l0,0.2
		c0.3,16.7-4.5,32-14.2,45.5l-0.2,0.3l0.3,0.1C347.8,163.8,355,165,363.7,165 M346,120.2l0-0.3l-0.3,0.1c-4.9,1.9-9.8,3.5-14.7,4.8
		l-0.2,0l-0.2,1.3c-1.3,6.8-3.6,18.2,1.7,26.9l0.2,0.3l0.2-0.3C346.4,136.5,346.1,121.8,346,120.2 M217.9,189.2
		c-9.4-1.9-17.5-4.1-25-6.9l-0.2-0.1l0-0.2c0.2-3.5,0.5-8.5,0.7-14.7l0-0.2l0.2-0.1c5.7-2,11.4-4.3,17-7.1v-10.2
		c-3.8,1.6-9.7,3.9-16.4,5.9l-0.3,0.1l0-0.4c0.2-5.1,0.3-10.5,0.5-16l0-0.2l0.2-0.1c6-2.4,12.1-5.2,18-8.4l-0.4-9.9
		c-1.6,0.7-8.2,3.8-17.1,6.9l-0.3,0.1l0-0.4c0.1-4.5,0.2-8.9,0.3-13.2l0-0.2l0.2-0.1c4.1-1.4,8.3-3,12.4-4.9v-9.1
		c-4,1.6-8,2.9-12,4.1l-0.3,0.1l0-0.3c0.3-11.7,0.4-20.2,0.5-21.8L181,82.2c0.7,2.9,1.2,11.3,1.4,25.1l0,0.2l-0.2,0
		c-8.5,1.4-16.1,1.5-22.4,0.3l3.6,11.8c1.2,0.1,8.1,0.4,18.8-1.9l0.3-0.1l0,0.3c0,4.2,0,8.7,0,13.5l0,0.2l-0.2,0
		c-15.3,4.1-28.3,5.1-38.5,3l4.2,14c1.6,0.1,14.9,0.5,34.1-5.2l0.3-0.1l0,0.3c-0.1,12.6-0.4,25.3-0.6,33.2l0,0.4l-0.4-0.2
		c-5.1-2.5-10-5.4-14.9-8.9l-0.2-0.1l0.1-0.2c2.2-3.9,4-7.9,5.6-12.2l-8.2-3.2c-12.2,20.2-31.3,30.8-37.3,33.8l10.5,12.5
		c10.2-6.8,18.7-14.9,25-24.1l0.2-0.2l0.2,0.2c11.6,10.2,54.6,42.2,119.7,25.4l-1.1-15.1C272.1,188.1,248.8,193.9,217.9,189.2
		 M222.1,163.3c0-1.9-0.4-45.8-1.6-51.6l12.8,0.2l0.1-0.1c1.3-1.1,8.3-6.3,18.5-5.2c2.7,0.3,5,2.2,5.8,4.8
		c1.3,4.4-0.2,13.8-1.6,22.1c-0.4,2.4-0.8,4.6-1,6.6c-0.1,0.1-0.4,0.2-0.8,0.4c-8.7,4.7-15.6,7.8-22.4,10.1l-0.2,0.1l-0.3,9.2
		c0.1,2.3,0.9,4,2.4,5c6,3.9,21.6-2.5,32-6.8l1.4-0.6l1.1,13.2c-14,4-24.8,4.4-31.9,4.7c-4.8,0.1-8.1-2.1-10-4
		C223.6,168.8,222.1,165.3,222.1,163.3 M232.1,139.9l0.3-0.1c4.6-1.3,9.3-2.9,14-4.8l0.1-0.1l0-0.2c0.2-2.6,0.9-11.1,0.9-12.6
		c0-0.2,0-0.3,0-0.6c0.1-1.4,0.2-3.9-1.4-5c-1.1-0.8-2.9-0.7-5.3,0.4c-3.2,1.8-6.1,3.9-8,5.4l-0.1,0.1L232.1,139.9z M0,142.2l4,18.9
		c0,0,66.9,4.1,115.1-8.2v-13.1C100.7,143.2,48.6,151.2,0,142.2"/>
        <g class="st1">
            <path d="M356.7,234.4v-4c0-0.5,0.3-0.7,0.9-0.7h5.8c-0.5-1.2-1-2.2-1.5-3.2c-0.1-0.2-0.2-0.4-0.2-0.6c0-0.3,0.2-0.5,0.6-0.6
			l4.2-0.9c0.2,0,0.4-0.1,0.6-0.1c0.4,0,0.6,0.2,0.8,0.5c0.5,1,1.1,2.6,1.8,4.8h5.4c0.6,0,0.9,0.2,0.9,0.7v4c0,0.5-0.3,0.7-0.9,0.7
			h-17.4C357,235.1,356.7,234.9,356.7,234.4z M358.2,268.5V254c0-0.5,0.3-0.7,0.9-0.7h14.9c0.5,0,0.8,0.2,0.8,0.7v14.5
			c0,0.5-0.3,0.7-0.8,0.7H359C358.5,269.2,358.2,269,358.2,268.5z M358.7,242.2v-3.6c0-0.5,0.3-0.7,0.9-0.7h14
			c0.5,0,0.8,0.2,0.8,0.7v3.6c0,0.5-0.3,0.7-0.8,0.7h-14C359,242.9,358.7,242.7,358.7,242.2z M358.7,249.8v-3.5
			c0-0.5,0.3-0.7,0.9-0.7h14c0.5,0,0.8,0.2,0.8,0.7v3.5c0,0.5-0.3,0.7-0.8,0.7h-14C359,250.5,358.7,250.3,358.7,249.8z M369,264
			v-5.7h-5v5.7H369z M375.6,249.1v-4c0-0.5,0.2-0.7,0.7-0.7h4.7l1.1-4.6H378c-0.5,0-0.7-0.2-0.7-0.7v-4c0-0.5,0.2-0.7,0.7-0.7h5.1
			l0.6-3.3h-6.4c-0.5,0-0.7-0.2-0.7-0.7v-4c0-0.5,0.2-0.7,0.7-0.7h23.4c0.5,0,0.7,0.2,0.7,0.7v4c0,0.5-0.2,0.7-0.7,0.7h-11l-0.6,3.3
			h10.1c0.2,0,0.4,0.1,0.6,0.2c0.1,0.1,0.2,0.3,0.2,0.5l-1,9.3h2.8c0.5,0,0.7,0.2,0.7,0.7v4c0,0.5-0.2,0.7-0.7,0.7h-25.5
			C375.8,249.8,375.6,249.6,375.6,249.1z M377.6,268.5v-15.2c0-0.5,0.2-0.7,0.7-0.7h21.5c0.5,0,0.7,0.2,0.7,0.7v15.2
			c0,0.5-0.2,0.7-0.7,0.7h-21.5C377.8,269.2,377.6,269,377.6,268.5z M394.4,263.9v-6h-10.6v6H394.4z M393.3,244.4l0.6-4.6h-5.8
			l-1.1,4.6H393.3z"/>
            <path d="M426.6,268.6l-4.6-2c-0.3-0.1-0.5-0.3-0.5-0.6c0-0.1,0.1-0.2,0.1-0.4c1.4-3,2.3-6.2,2.8-9.5c0.5-3.4,0.9-8.2,1.1-14.5
			l0-4.4c0-4.7,0-7.5,0-8.3c0-0.5,0.2-0.7,0.7-0.7h23.6l0-3.2c0-0.5,0.2-0.7,0.7-0.7h4.6c0.5,0,0.7,0.2,0.7,0.7v3.2h3.2
			c-0.5-0.7-1-1.2-1.3-1.4c-0.2-0.2-0.3-0.3-0.3-0.5c0-0.2,0.1-0.3,0.4-0.5l2.8-1.7c0.2-0.1,0.4-0.2,0.5-0.2c0.2,0,0.3,0,0.5,0.2
			c1.6,1.2,3.3,3,5,5.4c0.1,0.1,0.2,0.3,0.2,0.4c0,0.2-0.1,0.4-0.4,0.6l-2.9,2c0,0-0.1,0.1-0.2,0.1v0.1c0,0.5-0.2,0.7-0.7,0.7h-6.6
			c0,2.6,0.2,5.9,0.6,9.7c1.4-2.3,2.5-4.6,3.3-6.9c0.1-0.3,0.3-0.4,0.6-0.5c0.2,0,0.3,0,0.4,0.1l3.6,1.8c0.3,0.2,0.4,0.4,0.4,0.6
			c0,0.2,0,0.3,0,0.4c-0.8,1.9-1.8,3.9-3,5.9c-1.3,2-2.6,4-4.2,5.8c0.7,4.7,1.6,8.3,2.6,11c0.2,0.6,0.5,0.9,0.8,0.9
			c0.3,0,0.6-0.6,0.8-1.9c0.2-1.2,0.4-2.6,0.5-4c0.1-0.4,0.2-0.6,0.5-0.6c0.1,0,0.2,0.1,0.5,0.2l3.8,2.4c0.2,0.1,0.2,0.4,0.2,0.8
			l0,0.6c-0.4,2.6-1.1,4.7-2.1,6.4c-1,1.7-2.3,2.5-3.9,2.5c-0.9,0-1.8-0.2-2.5-0.5c-0.7-0.3-1.3-0.7-1.7-1.3c-0.8-1.1-1.5-2.2-2-3.5
			c-0.9-2.4-1.6-5.1-2.3-8c-1.2,1-2.4,1.9-3.7,2.7c-0.2,0.1-0.3,0.2-0.4,0.2c-0.2,0-0.3-0.1-0.5-0.3l-2.4-2.9
			c-0.1-0.2-0.2-0.4-0.2-0.6s0.1-0.3,0.2-0.5l0.8-0.5h-4.3c1.6,1.3,3,2.6,4,4c0.1,0.1,0.2,0.3,0.2,0.4c0,0.2-0.1,0.4-0.3,0.6
			l-2.2,1.9c-0.2,0.2-0.4,0.2-0.5,0.2c-0.1,0-0.3-0.1-0.5-0.4c-0.5-0.8-1.2-1.7-2-2.6v6c0,0.3,0,0.6,0.2,0.7
			c0.1,0.1,0.3,0.2,0.6,0.3c0.2,0,0.5,0,0.9,0c0.3,0,0.6,0,0.9,0c0.4-0.1,0.6-0.3,0.8-0.8c0.2-0.4,0.3-1.3,0.3-2.5
			c0-0.2,0.1-0.4,0.2-0.5c0.1-0.1,0.2-0.2,0.4-0.2l0.4,0.1l2.9,0.9c-0.3-0.8-0.7-1.4-1-2c-0.1-0.1-0.1-0.2-0.1-0.3
			c0-0.2,0.1-0.4,0.4-0.5l2.9-0.9l0.2-0.1c0.2,0,0.4,0.1,0.6,0.4c1.1,1.9,2.2,4.5,3.2,7.7l0,0.2c0,0.1-0.2,0.3-0.5,0.4l-3.2,1.1
			l-0.2,0c-0.3,0-0.5-0.2-0.6-0.5c-0.1-1.1-0.6-2.6-1.3-4.5c-0.1,1.7-0.4,3-0.7,3.9c-0.4,0.9-0.9,1.6-1.6,2s-1.8,0.7-3.1,0.8
			c-0.4,0-0.8,0-1.4,0h-1.1c-1.5,0-2.7-0.4-3.5-1.2c-0.8-0.8-1.2-2-1.2-3.6v-7.3c0-0.5,0.2-0.7,0.7-0.7h3.3l-1-0.9
			c-0.2-0.2-0.2-0.4-0.2-0.6c0-0.2,0.1-0.3,0.3-0.5l1.7-1.3h-6.8c-0.5,0-0.7-0.2-0.7-0.7v-10.3c0-0.5,0.2-0.7,0.7-0.7h13.7
			c0.5,0,0.7,0.2,0.7,0.7v9.6c1-0.8,2.1-1.7,3.2-2.8c-0.7-4.8-1.1-10.1-1.4-15.9h-18.6v9.1c0,5.4-0.3,10.4-1,14.8
			c-0.7,4.4-1.7,8.1-3,10.9c-0.1,0.3-0.3,0.5-0.7,0.5C426.8,268.7,426.7,268.7,426.6,268.6z M432.7,268.7l-3.3-1.2
			c-0.3-0.1-0.5-0.2-0.5-0.4c0-0.2,0-0.4,0.1-0.5c0.5-0.8,1-2.2,1.5-4c0.5-1.8,0.8-3.3,0.9-4.4c0.1-0.3,0.2-0.4,0.3-0.5
			c0.1,0,0.2,0,0.3,0l3.1,0.5c0.3,0,0.5,0.2,0.6,0.4c0,0.1,0,0.1,0,0.2c-0.5,4.1-1.2,7.2-2.1,9.4c-0.1,0.3-0.2,0.4-0.5,0.4
			C432.9,268.8,432.8,268.8,432.7,268.7z M432.8,239.2v-3c0-0.5,0.2-0.7,0.7-0.7h14.7c0.5,0,0.7,0.2,0.7,0.7v3
			c0,0.5-0.2,0.7-0.7,0.7h-14.7C433.1,239.9,432.8,239.7,432.8,239.2z M443.5,249.4v-3.5H438v3.5H443.5z"/>
            <path d="M490.6,269.6l-3.7-5.2c-0.1-0.2-0.2-0.3-0.2-0.4c0-0.2,0.2-0.4,0.5-0.6c4.9-1.9,9-4.8,12.2-8.6c3.2-3.8,5.2-8.2,6.1-13
			h-16.5c-0.5,0-0.7-0.2-0.7-0.7V236c0-0.5,0.2-0.7,0.7-0.7h17.1v-10.2c0-0.5,0.2-0.7,0.7-0.7h5.7c0.5,0,0.7,0.2,0.7,0.7v10.2h17.2
			c0.5,0,0.7,0.2,0.7,0.7v5.2c0,0.5-0.2,0.7-0.7,0.7h-16.8c1.3,4.8,3.6,9,6.9,12.8s7.2,6.6,11.8,8.7c0.3,0.1,0.5,0.3,0.5,0.5
			c0,0.1,0,0.2-0.2,0.4l-3.5,5.3c-0.1,0.2-0.3,0.4-0.6,0.4c-0.1,0-0.3,0-0.4-0.1c-4-2-7.5-4.6-10.7-7.8c-3.1-3.2-5.7-6.9-7.6-11.1
			c-1.8,4.1-4.3,7.8-7.5,11.2s-6.8,6-10.8,7.8c-0.1,0.1-0.3,0.1-0.4,0.1C491,270,490.8,269.9,490.6,269.6z"/>
            <path d="M555.7,250.9V239l-1.5,0.5c-0.1,0-0.2,0-0.3,0c-0.2,0-0.4-0.2-0.6-0.5l-1.9-4.7c0-0.1,0-0.2-0.1-0.4
			c0-0.3,0.2-0.5,0.5-0.6c3.8-0.9,7.5-2.1,10.8-3.7s6.1-3.2,8.2-5.1c0.2-0.2,0.5-0.3,0.9-0.3h6.1c0.4,0,0.7,0.1,0.9,0.3
			c2.4,2,5.2,3.7,8.5,5.1c3.3,1.5,6.8,2.6,10.6,3.5c0.4,0.1,0.6,0.3,0.6,0.6c0,0.1,0,0.2-0.1,0.3l-1.9,4.7c-0.2,0.4-0.5,0.6-0.9,0.5
			l-1.5-0.5v12c0,0.5-0.2,0.7-0.7,0.7h-36.9C555.9,251.6,555.7,251.4,555.7,250.9z M557.5,268.5v-14.4c0-0.5,0.2-0.7,0.7-0.7h33.3
			c0.5,0,0.7,0.2,0.7,0.7v14.4c0,0.5-0.2,0.7-0.7,0.7h-33.3C557.7,269.2,557.5,269,557.5,268.5z M583.1,234.3v1.6
			c0,0.5-0.2,0.7-0.7,0.7h-14.9c-0.5,0-0.7-0.2-0.7-0.7v-1.6c-3,1.6-6,2.9-9.1,4h34.5C589,237.1,585.9,235.8,583.1,234.3z
			 M572.3,248V242h-10.9v6.1H572.3z M566.5,247.4c-0.7-1.2-1.6-2.3-2.7-3.1c-0.2-0.2-0.4-0.3-0.4-0.5s0.2-0.3,0.5-0.5l2.3-1
			c0.2-0.1,0.3-0.1,0.4-0.1c0.2,0,0.4,0.1,0.6,0.2c1.2,1,2.2,2.2,3,3.4c0.1,0.2,0.1,0.3,0.1,0.4c0,0.2-0.2,0.4-0.5,0.5l-2.3,1
			c-0.1,0-0.2,0.1-0.4,0.1C566.8,247.8,566.6,247.6,566.5,247.4z M586.1,259.5v-2.2h-22.6v2.2H586.1z M586.1,265.2V263h-22.6v2.3
			H586.1z M574.8,229c-1.6,1.4-3.3,2.6-5,3.6H580C578,231.4,576.3,230.2,574.8,229z M588.3,248V242h-10.8v6.1H588.3z M579.2,246.3
			c0-0.2,0.1-0.4,0.3-0.5c1.2-1,2.1-2,2.7-3.1c0.2-0.4,0.5-0.5,0.9-0.4l2.3,0.7c0.2,0,0.4,0.1,0.5,0.3c0.1,0.2,0,0.4-0.1,0.6
			c-0.8,1.5-1.7,2.7-2.8,3.6c-0.2,0.2-0.5,0.3-0.9,0.2l-2.5-0.9C579.4,246.7,579.2,246.5,579.2,246.3z"/>
            <path d="M636.7,270c-0.4,0-0.7-0.2-0.8-0.6l-1.7-4.3l-0.1-0.3c0-0.3,0.2-0.5,0.7-0.5l4.5,0.1h1.3c3.6,0,6.1-0.2,7.5-0.6
			c1.4-0.4,2.2-1,2.5-1.9c0.1-0.5,0.2-1.3,0.2-2.2h-24.6c-0.4,0-0.7-0.2-0.7-0.5c0-0.1,0-0.2,0-0.3c0.7-2,1.4-4.2,2.1-6.8
			c-3.2,1-5.7,1.8-7.5,2.2c-0.1,0-0.2,0-0.3,0c-0.3,0-0.5-0.2-0.7-0.5l-2.3-5c0-0.1-0.1-0.2-0.1-0.4c0-0.3,0.2-0.5,0.6-0.6
			c3.6-0.5,7.2-1.3,10.9-2.2c3.7-0.9,7-2,9.9-3.2h-19.4c-0.5,0-0.7-0.2-0.7-0.7v-3.9c0-0.5,0.2-0.7,0.7-0.7h16.3v-3.9h-12
			c-0.5,0-0.7-0.2-0.7-0.7v-3.7c0-0.5,0.2-0.7,0.7-0.7h12v-3.6c0-0.5,0.2-0.7,0.7-0.7h5c0.5,0,0.7,0.2,0.7,0.7v3.6h10
			c0.5,0,0.7,0.2,0.7,0.7v2.6c1.1-1.2,2.2-2.7,3.5-4.4c0.1-0.2,0.3-0.4,0.6-0.4l0.4,0.1l4.9,2.6c0.3,0.2,0.4,0.4,0.4,0.6
			c0,0.2-0.1,0.3-0.2,0.5c-1.8,2.3-4,4.6-6.6,6.8h6.7c0.5,0,0.7,0.2,0.7,0.7v3.9c0,0.5-0.2,0.7-0.7,0.7h-13
			c-2.3,1.3-4.6,2.5-6.9,3.6h17.6c0.5,0,0.7,0.2,0.7,0.7v3.9c0,0.5-0.2,0.7-0.7,0.7h-24.9l-0.8,3.1h23.3c0.5,0,0.7,0.2,0.7,0.7
			c0,2.9-0.1,5.2-0.4,7.1c-0.2,1.9-0.9,3.4-2,4.5c-1.1,1.1-2.9,1.8-5.3,2.3c-2.4,0.5-5.8,0.7-10.1,0.7L636.7,270z M650.6,233.6h-9.1
			v4h4.4C647.6,236.4,649.2,235,650.6,233.6z"/>
        </g>
        <path class="st0" d="M164.5,36.4c6.3,26.8-19.8,54.8-58.3,62.7s-74.7-7.6-80.9-34.4S45.1,9.8,83.5,2S158.2,9.6,164.5,36.4"/>
        <path class="st2" d="M92.7,65.5l1.3,5.8c-11.7,6.8-27.5,10-38.7,9.7l-0.2-8.4c3.4,0.1,8.1-0.2,13-0.9c-0.1-2.6-0.3-5.2-0.5-7.8
		C61.2,65.2,57,65.1,57,65.1l-1.1-7.5c3.5,0.1,7.2-0.2,11-0.9c-0.2-2.2-0.5-4.4-0.8-6.6c0-0.2,0-0.3,0-0.4
		c-6.7,1.3-12.4,1.6-12.4,1.6l0.2-2.2C50,52.3,41.7,59,37.3,60.2L29.7,54c7.1-1.9,26.3-17.3,29.4-24.5c-5.1-2.2-7.9-3.9-7.9-3.9
		l4.9-5.9c13.1,8.4,28.4,10.6,40.8,11.4l-3.2,8.2c-11.3-1.7-20.9-4.5-28-7.1c0,0.2-0.1,0.3-0.2,0.5c-1.3,3.5-3.4,7.1-6.1,10.4
		c7.5-0.3,16-2.4,21.2-4.3l1.8,5c-2.3,1.6-5.3,2.8-8.5,3.8c0.3,2.2,0.6,4.7,1,7.2c4.4-1.3,8.5-2.8,11.6-4.5l2,6.2
		c-4.5,2.4-8.8,4.1-12.8,5.3c0.3,2.9,0.6,5.8,0.8,8.5C82.9,69.2,88.8,67.5,92.7,65.5"/>
        <path class="st2" d="M134,54.8c3.8-1.9,7.4-4.2,10.2-6.9l-2.8-6c-2.8,1.9-6.6,4-10.8,5.7c-1.1-1.9-1.9-4-2.5-6.3
		c1.3-0.3,2.4-0.6,3.2-0.8c0,0,5.6-5.2,5.4-12.8c-0.4-13.2-16.7-5.9-27.4-2.7l-7.9-0.7c0,0-2.8,27.2-0.8,39.4
		c2.3,14.2,13.5,17.6,21.9,11.9l-2.9-5.8c-11,6.4-11.6-10-10.5-25c1.3,0,2.7-0.1,3.9-0.2c2-0.2,8.2-1.6,9.5-1.9
		c0.6,2.3,1.3,4.3,2.3,7.1c-4.9,1.7-9.7,2.8-13,2.7l0.9,9.7c0,0,7.2-1.4,15.2-4.6c5.2,11.3,13.6,20.6,25.7,21.5l4.5-8.7
		C148.6,70.3,139.8,64.8,134,54.8 M109.6,37.8c0.2-2.3,0.5-4.5,0.7-6.4c6.5-3.2,22.7-10,18.7,2.9c0,0-10.2,2.4-12.8,2.7
		C115.7,37,111.4,37.8,109.6,37.8"/>
        <path class="st0" d="M57.1,96.2c0,0,30,12.3,73.8,10.5c2.3-0.1,3-2.9,1-3.9c-5.6-2.8-9.8-7.3,1.2-13.4c21.4-11.9-52-0.2-52-0.2
		L57.1,96.2z"/>
    </g>
</svg>
