<!--Generator: Adobe Illustrator 25.0.0, SVG Export Plug-In-->
<svg version="1.1" xmlns="http://www.w3.org/2000/svg" xmlns:xlink="http://www.w3.org/1999/xlink" x="0px" y="0px" width="386.1px" height="140.9px" viewBox="0 0 386.1 140.9" style="overflow:visible;enable-background:new 0 0 386.1 140.9;" xml:space="preserve">
    <style type="text/css">
        .st0{fill:#FFFFFF;}
	.st1{fill:#DF032E;}
    </style>
    <defs/>
    <path class="st0" d="M253,88.8c2.5,1.2,5.7,1.9,9.5,2.1l-1.7,6.8c-0.9-0.1-6.7-0.9-11.8-4.1l-0.1-0.1l-0.1,0.1
	c-3.7,3.8-8.3,6.7-13.6,8.6l-2.8-7.2c1-0.2,6.5-1.8,11.7-5.6l0.1-0.1l-0.1-0.1c-2.6-3.4-3.6-7.6-3-12.6c0.1-0.7,0.2-1.4,0.3-2.1
	c-6.9,2-18.4,4-17.5-5.5c-3.3,1.9-6.1,3.5-8.9,4.9c0.8,1.6,1.5,3.6,1.8,6c0.7,8.8-4.8,14.7-9.5,18.1c-4.6,3.3-9.5,5-10.4,5.3v-7.8
	c8.3-3.6,13.1-7.9,14.1-12.9c0.5-2.4,0-4.6-0.8-6.5c-4.5,1.9-9.1,3.1-15,4.1c-1.3-2.3-4.3-6.7-4.3-6.7c6.7-0.7,11.7-1.5,15.9-2.6
	c-0.1-0.1-0.2-0.2-0.3-0.3c-3.3-3.6-1.6-6.5-0.3-8.9l0.2-0.3c2-3.2,6.3-8.3,6.3-8.4l0.2-0.3l-0.4,0.1c-1.7,0.3-13.2,5.3-14.9,6
	c0-4.4,0-5.5,0-5.8c1-0.4,11.9-5,19.2-6.2c2.1-0.5,3.5-0.3,4.1,0.6c0.7,1,0.2,2.7-0.6,3.8c-0.9,1.3-3,3.9-4.6,5.7
	c-7.3,8.2-6.7,9.6-5.1,11.5c0.1,0.1,0.2,0.3,0.4,0.4c0.2,0.2,0.4,0.4,0.6,0.6c5.2-2,9.6-4.7,16-9c0.9-0.7,2.7,0.4,3.6,1.4
	c2.5,2.1-3.5,5-3,8.3c0.2,1.5,2.1,1.8,3.3,1.7c3.9-0.4,7.4-1.3,10.7-2.6c0-0.1,0-0.3,0.1-0.4c1.3-8.2,2.4-15.3,1.6-19.9l6.4,1.1
	c0,0.9,0,8-2.5,16.6c4.8-2.6,9.1-5.9,13.2-9.2l4.9,5.9c-5.2,2.9-13.4,7.2-19.3,9.5c-0.6,3.9-0.9,8.7,1.9,12.4l0.1,0.1l0.1-0.1
	c3.3-3.8,5.2-8.4,5.6-13.5l4.9-0.6c-0.1,1.2-0.9,9.4-6.3,17.4l-0.1,0.1L253,88.8z M300.5,70.3l-1.4-5.5c-3.2,2.1-7.4,3.9-12.7,5.5
	l-0.1,0l-0.1-0.1c-0.6-0.7-1.3-1.4-2-2c-0.1-0.2-0.2-0.3-0.4-0.4c-1.7-1.9-2.2-3.4,5.2-11.7c1.6-1.9,3.7-4.5,4.7-5.8
	c0.8-1.1,1.3-2.8,0.6-3.9c-0.6-0.9-2-1.1-4.2-0.6c-7.4,1.2-18.5,5.9-19.6,6.3c0,0.3,0,1.4,0,5.9c1.7-0.7,13.4-5.8,15.2-6.1l0.4-0.1
	l-0.2,0.3c0,0.1-4.4,5.3-6.4,8.6l-0.2,0.3c-1.3,2.4-3,5.5,0.3,9.1c0.4,0.5,0.9,0.9,1.3,1.4l0.1,0.2l-0.2,0
	c-7.5,1.7-14.2,2.3-15.6,2.4l4.9,6c3.7-0.1,8.3-1.1,13.7-2.9l0.1,0l0,0.1c2.4,8.8-6.4,14.7-14.2,18.1v7.9c1-0.3,5.9-2,10.7-5.4
	c4.8-3.5,10.4-9.5,9.7-18.5c-0.2-1.4-0.5-2.8-0.9-4l0-0.1l0.1,0C295.2,73,299.8,70.7,300.5,70.3 M363,47l-23.4,6.7l0.2-0.3
	c1.7-2.2,2.7-8.6,2.9-9.7l-5.9,0c-0.1,5.5-1.7,8.7-3.1,10.3c-1.3,1.5-2.5,2.1-2.9,2.3l1.5,4.3l30.8-6.9L363,47z M327.4,65.1
	c0.8,2.3,0.8,5.4,0.5,10.9c-0.1,0.9-0.1,1.8-0.2,2.8l-0.1,1.4l-0.1,1.2c-2,0.9-3.9,1.6-5.9,2.3c-2.1,0.7-4.3,1.3-6.3,1.7
	c-2.8,0.6-4.9,0.7-5.8,0.8c-0.3,0-0.5,0-0.7,0l-2.2-6c0.8,0.1,1.6,0.2,2.4,0.2l0.2,0l0-0.2c-0.6-7.9-1-12.5-1.3-13.8l6.7-0.3l0,0
	c0.7-0.6,4.2-3.5,9.6-3.3C325.6,62.9,326.9,63.8,327.4,65.1 M323,71.1c-0.1-1.4-0.5-2.4-1.3-2.8c-0.7-0.4-1.8-0.3-3.1,0.3
	c-1.6,1-3,2.2-4,3l-0.1,0.1l0.3,8.4l0.2,0c2.6-0.4,5.5-1.1,7.6-1.7l0.1,0l0-0.3C322.9,77.7,323,72,323,71.1 M385.4,95.8
	c-9.6,1.5-21.1,2.6-31.3,1.2c-6.3-0.9-10.2-2.6-11.5-5c-0.8-1.5-0.4-3,0.1-3.9c1.1-2.1,5.3-7.1,9.4-12c2.7-3.2,5.2-6.2,6.8-8.3
	c1.4-2,1.9-3.5,1.4-4.4c-0.6-1-2.4-0.8-2.5-0.8l-24.1,4.7l0.7,5.7l16.4-3.7l-0.3,0.4c0,0-3.6,4.4-11.1,12.6c-3,3.3-4.4,6.4-3.9,9.2
	c0.5,2.8,2.7,5.2,6.8,7.5c13.8,7.3,34.4,6.7,43.6,6L385.4,95.8z M189.7,86.1l-1.5,6.7c-0.9-0.1-7.8-0.6-13.5-4l-0.1-0.1l-0.1,0.1
	c-8.6,9-19.2,13-20.4,13.4l-3.7-6.8c7.7-3,14-6.8,18.9-11.2l0.1-0.1l-0.1-0.1c-2.3-3-3.2-6.8-2.8-11.1c0.2-2.1,0.5-4.1,0.8-6.4
	l0-0.2l-0.2,0c-7.1,1.4-11.6,1.2-12.3,1.1l-2.5-8.4c4.5,0.9,9.8,0.8,15.8-0.2l0.1,0l0-0.1c0.5-4.8,0.9-9.7,0.2-13.1l6.8,0.6
	c0,0.8,0.2,5.3-0.7,11.1l0,0.2l0.2-0.1c8.9-2.3,16.2-5.8,17.5-6.4l0.2,5.9c-2,1.1-4.1,2.2-6.2,3.1l-0.1,0l0,0.1
	c0.2,8.7-2.3,16.7-7.4,23.7l-0.1,0.1l0.1,0.1C181.5,85.5,185.2,86.1,189.7,86.1 M180.5,62.7l0-0.2l-0.2,0.1c-2.6,1-5.1,1.8-7.7,2.5
	l-0.1,0l-0.1,0.7c-0.7,3.6-1.9,9.5,0.9,14l0.1,0.2l0.1-0.1C180.7,71.2,180.6,63.5,180.5,62.7 M113.7,98.7c-4.9-1-9.2-2.2-13-3.6
	l-0.1,0l0-0.1c0.1-1.8,0.2-4.4,0.4-7.7l0-0.1l0.1,0c3-1,5.9-2.3,8.9-3.7v-5.3c-2,0.8-5,2-8.6,3.1l-0.2,0.1l0-0.2
	c0.1-2.7,0.2-5.5,0.2-8.3l0-0.1l0.1,0c3.2-1.3,6.3-2.7,9.4-4.4l-0.2-5.1c-0.8,0.4-4.3,2-8.9,3.6l-0.2,0.1l0-0.2
	c0.1-2.4,0.1-4.7,0.2-6.9l0-0.1l0.1,0c2.2-0.7,4.3-1.6,6.5-2.5v-4.7c-2.1,0.8-4.2,1.5-6.3,2.1l-0.2,0.1l0-0.2
	c0.1-6.1,0.2-10.5,0.2-11.4l-7.7-0.1c0.4,1.5,0.6,5.9,0.7,13.1l0,0.1l-0.1,0c-4.4,0.8-8.4,0.8-11.7,0.2l1.9,6.2c0.6,0,4.2,0.2,9.8-1
	l0.2,0v0.2c0,2.2,0,4.6,0,7l0,0.1l-0.1,0c-8,2.1-14.7,2.6-20.1,1.6l2.2,7.3c0.9,0,7.8,0.3,17.8-2.7l0.2-0.1l0,0.2
	c-0.1,6.6-0.2,13.2-0.3,17.3l0,0.2l-0.2-0.1c-2.7-1.3-5.2-2.8-7.8-4.6l-0.1-0.1l0.1-0.1c1.1-2,2.1-4.1,2.9-6.4l-4.3-1.7
	C79.1,90.3,69.1,95.8,66,97.3l5.5,6.5c5.3-3.5,9.7-7.8,13.1-12.5l0.1-0.1l0.1,0.1c6.1,5.3,28.5,22,62.4,13.3l-0.6-7.9
	C142,98.1,129.8,101.1,113.7,98.7 M115.9,85.2c0-1-0.2-23.9-0.8-26.9l6.7,0.1l0,0c0.7-0.6,4.3-3.3,9.7-2.7c1.4,0.1,2.6,1.1,3,2.5
	c0.7,2.3-0.1,7.2-0.8,11.5c-0.2,1.2-0.4,2.4-0.5,3.4c-0.1,0-0.2,0.1-0.4,0.2c-4.5,2.4-8.1,4.1-11.7,5.3l-0.1,0l-0.2,4.8
	c0,1.2,0.5,2.1,1.3,2.6c3.1,2,11.3-1.3,16.7-3.5l0.7-0.3l0.6,6.9c-7.3,2.1-12.9,2.3-16.6,2.5c-2.5,0.1-4.2-1.1-5.2-2.1
	C116.7,88.1,115.9,86.2,115.9,85.2 M121.1,73l0.2,0c2.4-0.7,4.9-1.5,7.3-2.5l0.1,0l0-0.1c0.1-1.4,0.5-5.8,0.5-6.6c0-0.1,0-0.2,0-0.3
	c0-0.7,0.1-2-0.7-2.6c-0.6-0.4-1.5-0.3-2.8,0.2c-1.7,0.9-3.2,2.1-4.2,2.8l0,0L121.1,73z M0,74.2L2.1,84c0,0,34.9,2.1,60-4.3v-6.8
	C52.6,74.7,25.3,78.9,0,74.2"/>
    <g>
        <path class="st0" d="M186.1,122.3v-2.1c0-0.2,0.1-0.4,0.4-0.4h3c-0.3-0.6-0.5-1.2-0.8-1.6c-0.1-0.1-0.1-0.2-0.1-0.3
		c0-0.1,0.1-0.2,0.3-0.3l2.2-0.5c0.1,0,0.2,0,0.3-0.1c0.2,0,0.3,0.1,0.4,0.2c0.3,0.5,0.6,1.4,0.9,2.5h2.8c0.3,0,0.4,0.1,0.4,0.4v2.1
		c0,0.2-0.1,0.4-0.4,0.4h-9.1C186.3,122.7,186.1,122.6,186.1,122.3z M186.9,140.1v-7.6c0-0.2,0.1-0.4,0.4-0.4h7.8
		c0.3,0,0.4,0.1,0.4,0.4v7.6c0,0.2-0.1,0.4-0.4,0.4h-7.8C187,140.4,186.9,140.3,186.9,140.1z M187.1,126.4v-1.9
		c0-0.2,0.2-0.4,0.5-0.4h7.3c0.3,0,0.4,0.1,0.4,0.4v1.9c0,0.2-0.1,0.4-0.4,0.4h-7.3C187.3,126.7,187.1,126.6,187.1,126.4z
		 M187.1,130.3v-1.8c0-0.2,0.2-0.4,0.5-0.4h7.3c0.3,0,0.4,0.1,0.4,0.4v1.8c0,0.2-0.1,0.4-0.4,0.4h-7.3
		C187.3,130.7,187.1,130.6,187.1,130.3z M192.5,137.7v-3h-2.6v3H192.5z M196,130v-2.1c0-0.2,0.1-0.4,0.4-0.4h2.5l0.6-2.4h-2.1
		c-0.2,0-0.4-0.1-0.4-0.4v-2.1c0-0.2,0.1-0.4,0.4-0.4h2.7l0.3-1.7h-3.3c-0.2,0-0.4-0.1-0.4-0.4v-2.1c0-0.2,0.1-0.4,0.4-0.4h12.2
		c0.2,0,0.4,0.1,0.4,0.4v2.1c0,0.2-0.1,0.4-0.4,0.4h-5.7l-0.3,1.7h5.3c0.1,0,0.2,0,0.3,0.1c0.1,0.1,0.1,0.2,0.1,0.3l-0.5,4.8h1.5
		c0.2,0,0.4,0.1,0.4,0.4v2.1c0,0.2-0.1,0.4-0.4,0.4h-13.3C196.1,130.3,196,130.2,196,130z M197,140.1v-7.9c0-0.2,0.1-0.4,0.4-0.4
		h11.2c0.2,0,0.4,0.1,0.4,0.4v7.9c0,0.2-0.1,0.4-0.4,0.4h-11.2C197.1,140.5,197,140.3,197,140.1z M205.7,137.7v-3.1h-5.5v3.1H205.7z
		 M205.2,127.5l0.3-2.4h-3l-0.5,2.4H205.2z"/>
        <path class="st0" d="M222.5,140.1l-2.4-1c-0.2-0.1-0.2-0.2-0.2-0.3c0-0.1,0-0.1,0.1-0.2c0.7-1.6,1.2-3.2,1.5-5
		c0.3-1.8,0.5-4.3,0.6-7.6l0-2.3c0-2.5,0-3.9,0-4.3c0-0.2,0.1-0.4,0.4-0.4h12.3l0-1.6c0-0.2,0.1-0.4,0.4-0.4h2.4
		c0.2,0,0.4,0.1,0.4,0.4v1.6h1.6c-0.3-0.4-0.5-0.6-0.7-0.7c-0.1-0.1-0.2-0.2-0.2-0.3s0.1-0.2,0.2-0.2l1.5-0.9
		c0.1-0.1,0.2-0.1,0.3-0.1c0.1,0,0.2,0,0.2,0.1c0.8,0.6,1.7,1.6,2.6,2.8c0.1,0.1,0.1,0.1,0.1,0.2c0,0.1-0.1,0.2-0.2,0.3l-1.5,1
		c0,0,0,0-0.1,0.1v0.1c0,0.2-0.1,0.4-0.4,0.4h-3.4c0,1.4,0.1,3.1,0.3,5c0.7-1.2,1.3-2.4,1.7-3.6c0.1-0.1,0.1-0.2,0.3-0.3
		c0.1,0,0.2,0,0.2,0.1l1.9,0.9c0.1,0.1,0.2,0.2,0.2,0.3c0,0.1,0,0.2,0,0.2c-0.4,1-0.9,2-1.6,3.1c-0.7,1.1-1.4,2.1-2.2,3
		c0.4,2.4,0.8,4.4,1.3,5.7c0.1,0.3,0.3,0.4,0.4,0.4c0.2,0,0.3-0.3,0.4-1s0.2-1.3,0.2-2.1c0-0.2,0.1-0.3,0.2-0.3c0.1,0,0.1,0,0.2,0.1
		l2,1.2c0.1,0.1,0.1,0.2,0.1,0.4l0,0.3c-0.2,1.4-0.6,2.5-1.1,3.3c-0.5,0.9-1.2,1.3-2,1.3c-0.5,0-0.9-0.1-1.3-0.2
		c-0.4-0.2-0.7-0.4-0.9-0.7c-0.4-0.6-0.8-1.2-1-1.8c-0.5-1.3-0.8-2.6-1.2-4.2c-0.6,0.5-1.2,1-1.9,1.4c-0.1,0.1-0.2,0.1-0.2,0.1
		c-0.1,0-0.2-0.1-0.3-0.2l-1.3-1.5c-0.1-0.1-0.1-0.2-0.1-0.3s0-0.2,0.1-0.2l0.4-0.2h-2.2c0.9,0.7,1.5,1.3,2.1,2.1
		c0.1,0.1,0.1,0.1,0.1,0.2c0,0.1-0.1,0.2-0.2,0.3l-1.1,1c-0.1,0.1-0.2,0.1-0.3,0.1c-0.1,0-0.1-0.1-0.2-0.2c-0.3-0.4-0.6-0.9-1-1.3
		v3.1c0,0.2,0,0.3,0.1,0.4c0.1,0.1,0.1,0.1,0.3,0.1c0.1,0,0.3,0,0.4,0c0.2,0,0.3,0,0.5,0c0.2,0,0.3-0.2,0.4-0.4s0.1-0.7,0.2-1.3
		c0-0.1,0-0.2,0.1-0.2c0-0.1,0.1-0.1,0.2-0.1l0.2,0.1l1.5,0.5c-0.2-0.4-0.3-0.7-0.5-1c0,0-0.1-0.1-0.1-0.2c0-0.1,0.1-0.2,0.2-0.3
		l1.5-0.5l0.1,0c0.1,0,0.2,0.1,0.3,0.2c0.6,1,1.1,2.3,1.6,4l0,0.1c0,0.1-0.1,0.1-0.2,0.2l-1.7,0.6l-0.1,0c-0.2,0-0.3-0.1-0.3-0.3
		c-0.1-0.6-0.3-1.3-0.7-2.3c-0.1,0.9-0.2,1.5-0.4,2c-0.2,0.5-0.5,0.8-0.8,1c-0.4,0.2-0.9,0.3-1.6,0.4c-0.2,0-0.4,0-0.7,0h-0.6
		c-0.8,0-1.4-0.2-1.8-0.6c-0.4-0.4-0.6-1-0.6-1.9v-3.8c0-0.2,0.1-0.4,0.4-0.4h1.7l-0.5-0.5c-0.1-0.1-0.1-0.2-0.1-0.3
		c0-0.1,0.1-0.2,0.2-0.3l0.9-0.7h-3.5c-0.2,0-0.4-0.1-0.4-0.4v-5.4c0-0.2,0.1-0.4,0.4-0.4h7.2c0.2,0,0.4,0.1,0.4,0.4v5
		c0.5-0.4,1.1-0.9,1.6-1.5c-0.3-2.5-0.6-5.3-0.7-8.3h-9.7v4.7c0,2.8-0.2,5.4-0.5,7.7c-0.3,2.3-0.9,4.2-1.6,5.7
		c-0.1,0.2-0.2,0.2-0.3,0.2C222.7,140.2,222.6,140.2,222.5,140.1z M225.7,140.2l-1.7-0.6c-0.2-0.1-0.3-0.1-0.3-0.2
		c0-0.1,0-0.2,0.1-0.2c0.3-0.4,0.5-1.1,0.8-2.1c0.3-0.9,0.4-1.7,0.5-2.3c0-0.1,0.1-0.2,0.1-0.3c0,0,0.1,0,0.2,0l1.6,0.3
		c0.2,0,0.3,0.1,0.3,0.2c0,0,0,0.1,0,0.1c-0.2,2.1-0.6,3.8-1.1,4.9c-0.1,0.1-0.1,0.2-0.2,0.2C225.9,140.2,225.8,140.2,225.7,140.2z
		 M225.8,124.8v-1.6c0-0.2,0.1-0.4,0.4-0.4h7.7c0.2,0,0.4,0.1,0.4,0.4v1.6c0,0.2-0.1,0.4-0.4,0.4h-7.7
		C225.9,125.2,225.8,125,225.8,124.8z M231.4,130.1v-1.8h-2.8v1.8H231.4z"/>
        <path class="st0" d="M256,140.7l-1.9-2.7c-0.1-0.1-0.1-0.2-0.1-0.2c0-0.1,0.1-0.2,0.2-0.3c2.6-1,4.7-2.5,6.4-4.5
		c1.7-2,2.7-4.3,3.2-6.8h-8.6c-0.2,0-0.4-0.1-0.4-0.4v-2.7c0-0.2,0.1-0.4,0.4-0.4h8.9v-5.3c0-0.2,0.1-0.4,0.4-0.4h3
		c0.2,0,0.4,0.1,0.4,0.4v5.3h9c0.2,0,0.4,0.1,0.4,0.4v2.7c0,0.2-0.1,0.4-0.4,0.4H268c0.7,2.5,1.9,4.7,3.6,6.7c1.7,2,3.8,3.5,6.1,4.5
		c0.2,0.1,0.2,0.2,0.2,0.3c0,0.1,0,0.1-0.1,0.2l-1.8,2.7c-0.1,0.1-0.2,0.2-0.3,0.2c-0.1,0-0.1,0-0.2-0.1c-2.1-1-3.9-2.4-5.6-4.1
		c-1.6-1.7-3-3.6-3.9-5.8c-0.9,2.1-2.2,4.1-3.9,5.9c-1.7,1.8-3.5,3.1-5.7,4.1c-0.1,0-0.1,0.1-0.2,0.1
		C256.1,140.9,256,140.8,256,140.7z"/>
        <path class="st0" d="M289.9,130.9v-6.2l-0.8,0.2c0,0-0.1,0-0.2,0c-0.1,0-0.2-0.1-0.3-0.2l-1-2.4c0-0.1,0-0.1,0-0.2
		c0-0.1,0.1-0.2,0.3-0.3c2-0.5,3.9-1.1,5.7-1.9c1.8-0.8,3.2-1.7,4.3-2.7c0.1-0.1,0.3-0.2,0.4-0.2h3.2c0.2,0,0.3,0.1,0.4,0.2
		c1.3,1,2.7,1.9,4.5,2.7c1.7,0.8,3.6,1.4,5.5,1.8c0.2,0.1,0.3,0.1,0.3,0.3c0,0,0,0.1-0.1,0.2l-1,2.4c-0.1,0.2-0.3,0.3-0.5,0.2
		l-0.8-0.2v6.3c0,0.2-0.1,0.4-0.4,0.4h-19.3C290,131.3,289.9,131.2,289.9,130.9z M290.9,140.1v-7.5c0-0.2,0.1-0.4,0.4-0.4h17.4
		c0.2,0,0.4,0.1,0.4,0.4v7.5c0,0.2-0.1,0.4-0.4,0.4h-17.4C291,140.5,290.9,140.3,290.9,140.1z M304.2,122.2v0.8
		c0,0.2-0.1,0.4-0.4,0.4h-7.8c-0.2,0-0.4-0.1-0.4-0.4v-0.8c-1.6,0.8-3.1,1.5-4.7,2.1h18C307.3,123.7,305.7,123,304.2,122.2z
		 M298.6,129.4v-3.2h-5.7v3.2H298.6z M295.5,129.1c-0.4-0.6-0.8-1.2-1.4-1.6c-0.1-0.1-0.2-0.2-0.2-0.3s0.1-0.2,0.2-0.2l1.2-0.5
		c0.1,0,0.2-0.1,0.2-0.1c0.1,0,0.2,0,0.3,0.1c0.6,0.5,1.2,1.1,1.6,1.8c0,0.1,0.1,0.2,0.1,0.2c0,0.1-0.1,0.2-0.2,0.3l-1.2,0.5
		c-0.1,0-0.1,0-0.2,0.1C295.7,129.3,295.6,129.2,295.5,129.1z M305.8,135.4v-1.1H294v1.1H305.8z M305.8,138.4v-1.2H294v1.2H305.8z
		 M299.9,119.5c-0.8,0.7-1.7,1.3-2.6,1.9h5.3C301.6,120.7,300.6,120.1,299.9,119.5z M306.9,129.4v-3.2h-5.6v3.2H306.9z M302.2,128.5
		c0-0.1,0.1-0.2,0.2-0.3c0.6-0.5,1.1-1,1.4-1.6c0.1-0.2,0.3-0.3,0.5-0.2l1.2,0.4c0.1,0,0.2,0.1,0.2,0.2s0,0.2,0,0.3
		c-0.4,0.8-0.9,1.4-1.5,1.9c-0.1,0.1-0.3,0.1-0.5,0.1l-1.3-0.5C302.3,128.7,302.2,128.6,302.2,128.5z"/>
        <path class="st0" d="M332.2,140.9c-0.2,0-0.3-0.1-0.4-0.3l-0.9-2.2l-0.1-0.2c0-0.2,0.1-0.3,0.4-0.3l2.4,0h0.7
		c1.9,0,3.2-0.1,3.9-0.3s1.2-0.5,1.3-1c0.1-0.3,0.1-0.7,0.1-1.1h-12.9c-0.2,0-0.3-0.1-0.3-0.3c0-0.1,0-0.1,0-0.2
		c0.4-1,0.7-2.2,1.1-3.5c-1.7,0.5-3,0.9-3.9,1.1c0,0-0.1,0-0.1,0c-0.1,0-0.3-0.1-0.3-0.2l-1.2-2.6c0-0.1,0-0.1-0.1-0.2
		c0-0.2,0.1-0.3,0.3-0.3c1.9-0.3,3.8-0.7,5.7-1.1c1.9-0.5,3.6-1,5.2-1.6h-10.1c-0.2,0-0.4-0.1-0.4-0.4v-2c0-0.2,0.1-0.4,0.4-0.4h8.5
		v-2h-6.3c-0.2,0-0.4-0.1-0.4-0.4v-1.9c0-0.2,0.1-0.4,0.4-0.4h6.3v-1.9c0-0.2,0.1-0.4,0.4-0.4h2.6c0.2,0,0.4,0.1,0.4,0.4v1.9h5.2
		c0.2,0,0.4,0.1,0.4,0.4v1.4c0.6-0.6,1.2-1.4,1.8-2.3c0.1-0.1,0.2-0.2,0.3-0.2l0.2,0.1l2.6,1.4c0.1,0.1,0.2,0.2,0.2,0.3
		c0,0.1,0,0.2-0.1,0.2c-0.9,1.2-2.1,2.4-3.4,3.5h3.5c0.2,0,0.4,0.1,0.4,0.4v2c0,0.2-0.1,0.4-0.4,0.4h-6.8c-1.2,0.7-2.4,1.3-3.6,1.9
		h9.2c0.2,0,0.4,0.1,0.4,0.4v2c0,0.2-0.1,0.4-0.4,0.4h-13l-0.4,1.6h12.2c0.2,0,0.4,0.1,0.4,0.3c0,1.5-0.1,2.7-0.2,3.7
		c-0.1,1-0.5,1.8-1,2.4c-0.6,0.6-1.5,1-2.7,1.2c-1.3,0.2-3,0.4-5.3,0.4L332.2,140.9z M339.4,121.9h-4.8v2.1h2.3
		C337.9,123.3,338.7,122.6,339.4,121.9z"/>
    </g>
    <path class="st0" d="M85.8,19c3.3,14-10.4,28.6-30.4,32.7c-20.1,4.1-39-3.9-42.2-17.9S23.5,5.1,43.6,1.1C63.6-3,82.5,5,85.8,19"/>
    <path class="st1" d="M48.4,34.2l0.7,3c-6.1,3.6-14.3,5.2-20.2,5.1l-0.1-4.4c1.8,0,4.2-0.1,6.8-0.5c-0.1-1.4-0.2-2.7-0.3-4.1
	C31.9,34,29.7,34,29.7,34L29.2,30c1.8,0.1,3.8-0.1,5.7-0.5c-0.1-1.2-0.3-2.3-0.4-3.5c0-0.1,0-0.2,0-0.2C31,26.5,28,26.7,28,26.7
	l0.1-1.2c-2,1.8-6.3,5.2-8.6,5.9l-4-3.2c3.7-1,13.7-9,15.3-12.8c-2.7-1.2-4.1-2-4.1-2l2.6-3.1c6.9,4.4,14.8,5.5,21.3,5.9l-1.6,4.3
	c-5.9-0.9-10.9-2.3-14.6-3.7c0,0.1-0.1,0.2-0.1,0.3c-0.7,1.8-1.8,3.7-3.2,5.4c3.9-0.2,8.4-1.2,11.1-2.3l0.9,2.6
	c-1.2,0.8-2.8,1.5-4.4,2c0.2,1.2,0.3,2.4,0.5,3.8c2.3-0.7,4.4-1.5,6.1-2.4l1.1,3.3c-2.3,1.2-4.6,2.1-6.7,2.8c0.2,1.5,0.3,3,0.4,4.4
	C43.2,36.1,46.4,35.2,48.4,34.2"/>
    <path class="st1" d="M69.9,28.6c2-1,3.8-2.2,5.3-3.6l-1.5-3.1c-1.4,1-3.5,2.1-5.6,3c-0.6-1-1-2.1-1.3-3.3c0.7-0.2,1.2-0.3,1.7-0.4
	c0,0,2.9-2.7,2.8-6.7C71.1,7.5,62.6,11.3,57,13l-4.1-0.3c0,0-1.4,14.2-0.4,20.6c1.2,7.4,7,9.2,11.4,6.2l-1.5-3
	c-5.8,3.4-6.1-5.2-5.5-13c0.7,0,1.4-0.1,2-0.1c1-0.1,4.3-0.8,5-1c0.3,1.2,0.7,2.2,1.2,3.7c-2.6,0.9-5.1,1.4-6.8,1.4l0.5,5
	c0,0,3.7-0.7,7.9-2.4c2.7,5.9,7.1,10.8,13.4,11.2l2.4-4.5C77.5,36.7,72.9,33.8,69.9,28.6 M57.2,19.7c0.1-1.2,0.3-2.4,0.4-3.4
	c3.4-1.7,11.9-5.2,9.8,1.5c0,0-5.3,1.2-6.7,1.4C60.4,19.3,58.1,19.7,57.2,19.7"/>
    <path class="st0" d="M29.8,50.2c0,0,15.6,6.4,38.5,5.5c1.2-0.1,1.6-1.5,0.5-2c-2.9-1.5-5.1-3.8,0.6-7c11.2-6.2-27.1-0.1-27.1-0.1
	L29.8,50.2z"/>
</svg>
