<!-- Generator: Adobe Illustrator 25.0.0, SVG Export Plug-In  -->
<svg version="1.1" xmlns="http://www.w3.org/2000/svg" xmlns:xlink="http://www.w3.org/1999/xlink" x="0px" y="0px" width="174.4px"
	 height="35px" viewBox="0 0 174.4 35" style="overflow:visible;enable-background:new 0 0 174.4 35;" xml:space="preserve">
<style type="text/css">
	.st0{fill:#040000;}
</style>
<defs>
</defs>
<g>
	<path class="st0" d="M4.4,34.5V16.3c-0.8,1.1-1.5,2-2.2,2.6c-0.1,0.1-0.2,0.2-0.3,0.2c-0.2,0-0.3-0.1-0.3-0.4L0,14.1l0-0.2
		c0-0.2,0-0.3,0-0.3l0.2-0.2c1.5-1.5,2.9-3.3,4.2-5.5c1.2-2.2,2.3-4.6,3.1-7.3c0.1-0.3,0.2-0.4,0.4-0.4c0.1,0,0.2,0,0.3,0l4,0.7
		c0.3,0,0.4,0.2,0.5,0.4c0,0.1,0,0.2,0,0.2C11.8,4.3,10.7,7,9.2,9.4v25C9.2,34.8,9,35,8.7,35H4.9C4.5,35,4.4,34.8,4.4,34.5z
		 M13.7,30.9l-3.5-1.7C10,29,9.8,28.9,9.8,28.7c0-0.1,0-0.2,0.1-0.3c2-3.2,3.4-6.8,4-10.8c0.1-0.3,0.2-0.4,0.3-0.5
		c0.1,0,0.2,0,0.3,0l3.5,0.8c0.2,0,0.3,0.1,0.4,0.3v0.3c-0.3,2.1-0.8,4.2-1.6,6.3c-0.7,2.2-1.6,4.1-2.5,5.8
		c-0.1,0.2-0.2,0.3-0.3,0.3C13.9,30.9,13.8,30.9,13.7,30.9z M31.8,16.7l-3.6-1.3c-0.2-0.1-0.3-0.2-0.3-0.3c0-0.2,0-0.3,0-0.3
		c0.9-2.2,1.4-4.2,1.5-6.2H18.8c-0.5,1.5-1.1,2.8-1.8,3.9c-0.6,1.1-1.4,2.3-2.4,3.5c-0.1,0.2-0.3,0.3-0.4,0.3
		c-0.1,0-0.2-0.1-0.3-0.2l-3.1-3c-0.1-0.1-0.2-0.3-0.2-0.4c0-0.1,0.1-0.2,0.2-0.3c1.6-1.9,2.8-3.8,3.5-5.6c0.7-1.8,1.2-3.8,1.5-6.1
		c0-0.2,0.1-0.4,0.3-0.5h0.2l4,0.4c0.3,0.1,0.4,0.2,0.5,0.4v0.3c-0.2,0.9-0.4,1.9-0.6,2.9h13.7c0.4,0,0.5,0.2,0.5,0.7
		c-0.1,4.3-0.8,8.2-2,11.6c-0.1,0.3-0.2,0.4-0.5,0.4C32,16.7,31.9,16.7,31.8,16.7z M17.3,34.8c-0.1,0-0.2-0.1-0.3-0.3l-1.5-3.7
		c0-0.1,0-0.1,0-0.2c0-0.2,0.1-0.4,0.3-0.4H16c0.4,0,0.8,0,1.4,0c0.9,0,1.6-0.1,2-0.2c0.4-0.1,0.7-0.3,0.8-0.6
		c0.1-0.3,0.2-0.7,0.2-1.2V11.9c0-0.4,0.2-0.5,0.5-0.5h3.6c0.4,0,0.5,0.2,0.5,0.5v17.7c0,2-0.6,3.3-1.9,4.1
		c-1.2,0.8-3.1,1.1-5.6,1.1C17.6,34.8,17.5,34.8,17.3,34.8z M31.1,30.8c-0.8-1.4-1.6-3.2-2.4-5.4c-0.8-2.2-1.4-4.3-1.9-6.4l0-0.2
		c0-0.2,0.1-0.4,0.4-0.5l3.3-1c0.1,0,0.1,0,0.2,0c0.2,0,0.3,0.1,0.4,0.4c0.5,1.8,1.1,3.7,1.8,5.6c0.8,2,1.6,3.6,2.4,5.1
		c0.1,0.1,0.1,0.2,0.1,0.3c0,0.2-0.1,0.3-0.3,0.4L31.8,31c-0.1,0.1-0.2,0.1-0.3,0.1C31.4,31.1,31.2,31,31.1,30.8z"/>
	<path class="st0" d="M53.3,33.3H40.6c-0.4,0-0.5-0.2-0.5-0.5V5.6c0-0.4,0.2-0.5,0.5-0.5h2.7C44,3.5,44.5,2,44.9,0.5
		c0.1-0.3,0.2-0.4,0.5-0.4h0.1l3.7,0.4c0.4,0.1,0.5,0.3,0.4,0.6c-0.5,1.5-1,2.8-1.5,3.9h5.2c0.4,0,0.5,0.2,0.5,0.5v4.3
		c0.9-1.3,1.7-2.7,2.4-4.3c0.7-1.6,1.2-3.3,1.6-5c0.1-0.3,0.2-0.4,0.5-0.4h0.2l3.6,0.4c0.2,0,0.3,0.1,0.4,0.2s0.1,0.2,0.1,0.4
		c-0.2,1-0.6,2.1-1,3.3h10.3c0.3,0,0.5,0.2,0.5,0.5c0,0.3,0,2.9,0,7.6c0,5.5-0.1,9.5-0.3,12c-0.2,2.5-0.7,4.4-1.4,5.9
		c-0.7,1.5-1.8,2.5-3.3,3.2c-1.5,0.7-3.4,1-5.9,1c-0.3,0-0.5,0-0.8,0c-0.3-0.1-0.4-0.2-0.5-0.4l-1.4-3.8c0-0.1,0-0.1,0-0.2
		c0-0.2,0.2-0.3,0.5-0.3c2,0.1,3.5-0.1,4.6-0.4c1.1-0.3,1.9-0.9,2.4-1.8c0.5-0.8,0.8-2,0.9-3.6c0.2-2.6,0.3-5.6,0.3-9.1
		c0-1.9,0-3.9-0.1-6.1h-7.7c-0.8,1.8-1.8,3.3-2.8,4.5c-0.1,0.2-0.2,0.2-0.4,0.2c-0.1,0-0.2,0-0.3-0.1l-2.3-1.3v20.4
		C53.9,33.1,53.7,33.3,53.3,33.3z M44.5,9.3v7.4h4.9V9.3H44.5z M44.5,21.1v7.8h4.9v-7.8H44.5z M56.4,16.3c-0.1-0.2-0.2-0.3-0.2-0.4
		c0-0.2,0.1-0.3,0.3-0.4l3.1-1.5c0.1-0.1,0.2-0.1,0.3-0.1c0.2,0,0.3,0.1,0.4,0.2c0.9,1.1,1.7,2.4,2.5,3.8c0.8,1.4,1.4,2.8,1.9,4.2
		c0,0.1,0,0.1,0,0.2c0,0.2-0.1,0.4-0.3,0.5l-3.3,1.6l-0.3,0.1c-0.2,0-0.3-0.1-0.4-0.3C59.4,21.2,58.1,18.6,56.4,16.3z"/>
	<path class="st0" d="M78.3,1.9h8.8c0.4,0,0.5,0.2,0.5,0.5v28.8c0,0.4-0.2,0.5-0.5,0.5h-8.8c-0.4,0-0.5-0.2-0.5-0.5V2.5
		C77.8,2.1,78,1.9,78.3,1.9z M81.6,6.3v8.2h2.3V6.3H81.6z M81.6,18.5v8.9h2.3v-8.9H81.6z M94,29.2c0.2,0.4,0.7,0.6,1.2,0.7
		c1.2,0.3,3.4,0.4,6.6,0.4c3.3,0,6.4-0.1,9.4-0.3h0.1c0.3,0,0.5,0.2,0.5,0.5v3.1c0,0.3-0.2,0.5-0.5,0.5c-3.1,0.2-6.3,0.3-9.6,0.3
		c-3.8,0-6.5-0.1-8-0.4c-1.1-0.2-2-0.5-2.6-0.9s-1-1-1.3-1.8c-0.3-0.8-0.4-1.9-0.4-3.3V1.6c0-0.4,0.2-0.5,0.5-0.5h20.9
		c0.4,0,0.5,0.2,0.5,0.5v3c0,0.4-0.2,0.5-0.5,0.5H93.6v22.3C93.6,28.3,93.8,28.8,94,29.2z M94.4,17.2v-2.3c0-0.4,0.2-0.5,0.5-0.5
		h5.3c0.2-0.6,0.4-1.1,0.5-1.6c0.1-0.4,0.3-0.5,0.6-0.5l2.7,0.3c0.4,0,0.5,0.2,0.4,0.7l-0.4,1.2h6.8c0.4,0,0.5,0.2,0.5,0.5v2.3
		c0,0.4-0.2,0.5-0.5,0.5h-8.2c-0.3,0.6-0.8,1.3-1.3,2h8.2c0.4,0,0.5,0.2,0.5,0.5v8c0,0.4-0.2,0.5-0.5,0.5H97.7
		c-0.4,0-0.5-0.2-0.5-0.5v-3.7l-1.2,1.1c-0.1,0.1-0.2,0.2-0.3,0.2c-0.2,0-0.4-0.1-0.5-0.3l-1.4-2.6l-0.1-0.3c0-0.2,0.1-0.3,0.3-0.5
		c0.9-0.5,1.7-1.2,2.5-1.9c0.8-0.8,1.5-1.6,2.1-2.5h-3.7C94.5,17.7,94.4,17.5,94.4,17.2z M96.7,12.6v-1.5H95c-0.4,0-0.5-0.2-0.5-0.5
		V8.5C94.4,8.1,94.6,8,95,8h1.7V6.6c0-0.4,0.2-0.5,0.6-0.5h2.4c0.4,0,0.5,0.2,0.5,0.5V8h1.5c0.4,0,0.5,0.2,0.5,0.5v2.1
		c0,0.4-0.2,0.5-0.5,0.5h-1.5v1.5c0,0.4-0.2,0.5-0.5,0.5h-2.4C96.9,13.2,96.7,13,96.7,12.6z M106.2,25.6v-3h-5.3v3H106.2z M105,12.6
		v-1.5h-1.5c-0.4,0-0.5-0.2-0.5-0.5V8.5c0-0.4,0.2-0.5,0.5-0.5h1.5V6.6c0-0.4,0.2-0.5,0.5-0.5h2.5c0.4,0,0.6,0.2,0.6,0.5V8h1.8
		c0.4,0,0.5,0.2,0.5,0.5v2.1c0,0.4-0.2,0.5-0.5,0.5h-1.8v1.5c0,0.4-0.2,0.5-0.6,0.5h-2.5C105.2,13.2,105,13,105,12.6z"/>
	<path class="st0" d="M120.4,34.5l0.2-13.2c-0.8,3-1.8,5.5-2.8,7.6c-0.1,0.2-0.2,0.3-0.4,0.3c-0.2,0-0.3-0.1-0.4-0.3l-1.9-3.6
		c-0.1-0.1-0.1-0.2-0.1-0.3c0-0.1,0.1-0.2,0.2-0.4c2-2.8,3.6-6.1,4.8-9.8h-3.5c-0.4,0-0.5-0.2-0.5-0.5v-3.3c0-0.4,0.2-0.5,0.5-0.5h4
		V6.2c-1,0.1-2.1,0.2-3.1,0.2c-0.3,0-0.5-0.2-0.6-0.5l-0.8-3.3l0-0.3c0-0.2,0.2-0.3,0.5-0.3c3.7-0.1,6.9-0.6,9.7-1.5
		c0.1,0,0.1,0,0.2,0c0.2,0,0.4,0.1,0.5,0.3l1.4,3.1l0.1,0.3c0,0.2-0.1,0.3-0.3,0.3c-0.7,0.3-1.8,0.6-3.3,0.9v4.8h3.1
		c0.4,0,0.5,0.2,0.5,0.5v3.3c0,0.4-0.2,0.5-0.5,0.5H125c1,1.9,2.2,3.6,3.7,4.9c0.1,0.1,0.2,0.2,0.2,0.3s0,0.2-0.1,0.4l-1.7,3.7
		c-0.1,0.2-0.3,0.3-0.4,0.3s-0.2-0.1-0.3-0.3c-0.7-1.1-1.3-2.4-1.8-3.8l0.2,14.2c0,0.4-0.2,0.5-0.5,0.5h-3.3
		C120.5,35,120.4,34.8,120.4,34.5z M129.8,34.4v-6.2H128c-0.4,0-0.5-0.2-0.5-0.5v-2.9c0-0.4,0.2-0.5,0.5-0.5h1.8V13.4
		c0-0.4,0.2-0.5,0.5-0.5h6.7v-1.5c0-0.4,0.2-0.5,0.5-0.5h3.3c0.4,0,0.5,0.2,0.5,0.5v1.5h6.7c0.4,0,0.5,0.2,0.5,0.5v10.9h1.3
		c0.4,0,0.5,0.2,0.5,0.5v2.9c0,0.4-0.2,0.5-0.5,0.5h-1.3v1.1c0,1.5-0.2,2.7-0.5,3.5c-0.3,0.8-1,1.3-1.8,1.6c-0.9,0.3-2.2,0.5-4,0.5
		c-0.3,0-0.4,0-0.6-0.1c-0.1-0.1-0.2-0.2-0.3-0.3l-1-2.8c0-0.1,0-0.1,0-0.2c0-0.3,0.2-0.4,0.5-0.4c1,0,1.8,0,2.3-0.1
		c0.5-0.1,0.8-0.3,1-0.6c0.2-0.3,0.2-0.7,0.2-1.3v-0.8H134v6.2c0,0.4-0.2,0.5-0.5,0.5h-3.1C130,35,129.8,34.8,129.8,34.4z
		 M129.4,4.9l-1.2-3c0-0.1,0-0.1,0-0.2c0-0.2,0.2-0.3,0.5-0.3c1.3,0.1,2.7,0.1,4.3,0.1c2.5,0,5-0.2,7.4-0.4c2.4-0.2,4.6-0.6,6.5-1
		l0.2,0c0.2,0,0.4,0.1,0.5,0.4l1.5,2.7c0,0.1,0.1,0.2,0.1,0.3c0,0.2-0.1,0.3-0.4,0.4c-1.4,0.4-3.3,0.7-5.9,1
		c-2.6,0.3-5.5,0.5-8.8,0.7h-1.6c-1.3,0-2.1,0-2.5,0C129.8,5.4,129.6,5.2,129.4,4.9z M132,12.1c-0.2,0-0.4-0.1-0.5-0.4
		c-0.5-1.4-1.2-2.8-2-4.2c-0.1-0.1-0.1-0.2-0.1-0.3c0-0.2,0.1-0.3,0.4-0.4l3.1-0.8l0.2,0c0.2,0,0.4,0.1,0.5,0.3
		c0.7,1.3,1.2,2.7,1.7,4.2c0,0.1,0,0.1,0,0.2c0,0.2-0.1,0.4-0.4,0.5l-2.7,0.8L132,12.1z M137.2,18.8v-2.6H134v2.6H137.2z
		 M137.2,24.5v-2.6H134v2.6H137.2z M138.5,10.6c-0.2,0-0.4-0.1-0.5-0.3c-0.4-1.3-0.9-2.4-1.5-3.3c0-0.1-0.1-0.2-0.1-0.3
		c0-0.2,0.1-0.3,0.4-0.4l2.9-0.7l0.2,0c0.2,0,0.3,0.1,0.4,0.3c0.6,1,1.1,2.2,1.4,3.4c0,0.1,0,0.2,0,0.3c0,0.3-0.1,0.4-0.4,0.5
		l-2.8,0.6L138.5,10.6z M144.4,18.8v-2.6H141v2.6H144.4z M144.4,24.5v-2.6H141v2.6H144.4z M143,10.5c-0.1-0.1,0-0.3,0.1-0.4
		c0.9-1.7,1.5-3.3,1.8-4.6c0-0.2,0.1-0.3,0.2-0.4c0.1-0.1,0.3-0.1,0.4,0l3.1,1c0.2,0.1,0.3,0.1,0.3,0.2c0.1,0.1,0.1,0.3,0,0.4
		c-0.8,2.2-1.6,3.8-2.4,5c-0.2,0.2-0.4,0.3-0.6,0.2l-2.8-1.1C143.2,10.8,143.1,10.7,143,10.5z"/>
	<path class="st0" d="M168.6,12.2c-0.6-0.6-1-1.4-1-2.4c0-0.9,0.3-1.7,1-2.3c0.6-0.6,1.4-0.9,2.4-0.9c1,0,1.8,0.3,2.4,0.9
		c0.6,0.6,1,1.4,1,2.3c0,0.9-0.3,1.7-1,2.4s-1.4,0.9-2.4,0.9C170,13.1,169.2,12.8,168.6,12.2z M168.6,22.9c0.6-0.6,1.4-0.9,2.4-0.9
		c1,0,1.8,0.3,2.4,0.9c0.6,0.6,1,1.4,1,2.3c0,0.9-0.3,1.7-1,2.4c-0.6,0.6-1.4,0.9-2.4,0.9c-1,0-1.8-0.3-2.4-0.9
		c-0.6-0.6-1-1.4-1-2.4C167.6,24.3,168,23.5,168.6,22.9z"/>
</g>
</svg>
