<!--Generator: Adobe Illustrator 25.0.0, SVG Export Plug-In-->
<svg version="1.1" xmlns="http://www.w3.org/2000/svg" xmlns:xlink="http://www.w3.org/1999/xlink" x="0px" y="0px" width="150.8px" height="276.1px" viewBox="0 0 150.8 276.1" style="overflow:visible;enable-background:new 0 0 150.8 276.1;" xml:space="preserve">
    <style type="text/css">
        .st0{fill:#231815;}
	.st1{fill:#9FA0A0;}
	.st2{fill:#B5B5B6;}
	.st3{fill:#FFFFFF;}
    </style>
    <defs/>
    <g>
        <polygon class="st0" points="95.7,272.4 141.6,254.2 139.7,249.4 99.4,239.2 	"/>
        <rect x="-68.7" y="161" transform="matrix(-0.3706 -0.9288 0.9288 -0.3706 -88.5996 271.9728)" width="233.2" height="10"/>
        <rect x="-13.6" y="139" transform="matrix(-0.3706 -0.9288 0.9288 -0.3706 7.3828 293.0202)" width="233.2" height="10"/>
        <rect x="37.3" y="25.5" transform="matrix(-0.3706 -0.9288 0.9288 -0.3706 36.0187 85.2963)" width="19.3" height="10"/>
        <rect x="0.7" y="40.1" transform="matrix(-0.3706 -0.9288 0.9288 -0.3706 -27.6864 71.3267)" width="19.3" height="10"/>
        <rect x="8.2" y="5.8" transform="matrix(-0.3706 -0.9288 0.9288 -0.3706 14.4472 31.4269)" width="19.3" height="10"/>
        <rect x="6.7" y="10.1" transform="matrix(-0.9288 0.3706 -0.3706 -0.9288 48.7178 30.232)" width="29.4" height="19.3"/>
        <rect x="45.6" y="59.1" transform="matrix(-0.9288 0.3706 -0.3706 -0.9288 188.179 248.0357)" class="st1" width="49.4" height="166.1"/>
        <rect x="50.9" y="48" transform="matrix(-0.9288 0.3706 -0.3706 -0.9288 127.5261 81.5736)" class="st1" width="10" height="10"/>
        <polygon class="st2" points="40.4,53.9 36.7,44.6 27.5,48.3 31.1,57.6 21.9,61.3 85.5,225.4 104,218 	"/>
        <rect x="85.3" y="225.8" transform="matrix(-0.9288 0.3706 -0.3706 -0.9288 305.7878 431.7114)" width="52.2" height="38.9"/>
        <rect x="77.9" y="218.9" transform="matrix(0.9288 -0.3706 0.3706 0.9288 -75.4147 53.9303)" class="st3" width="49.4" height="8.6"/>
    </g>
</svg>
