<!-- Generator: Adobe Illustrator 25.0.0, SVG Export Plug-In  -->
<svg version="1.1" xmlns="http://www.w3.org/2000/svg" xmlns:xlink="http://www.w3.org/1999/xlink" x="0px" y="0px" width="23.5px"
	 height="20.6px" viewBox="0 0 23.5 20.6" style="overflow:visible;enable-background:new 0 0 23.5 20.6;" xml:space="preserve">
<style type="text/css">
	.st0{fill:#040000;}
</style>
<defs>
</defs>
<path class="st0" d="M17.2,0.1C17.4,0,17.6,0,17.7,0h4.5c0.4,0,0.7,0.1,0.9,0.3c0.2,0.2,0.3,0.5,0.3,0.8c0,0.3-0.1,0.6-0.3,0.9
	L10,20.1c-0.1,0.1-0.2,0.3-0.4,0.4c-0.2,0.1-0.3,0.2-0.5,0.2H1.4c-0.4,0-0.8-0.1-1-0.3C0.1,20.1,0,19.8,0,19.4
	c0-0.3,0.2-0.6,0.5-1.1L16.9,0.4C16.9,0.3,17,0.2,17.2,0.1z"/>
</svg>
