<!-- Generator: Adobe Illustrator 25.0.0, SVG Export Plug-In  -->
<svg version="1.1" xmlns="http://www.w3.org/2000/svg" xmlns:xlink="http://www.w3.org/1999/xlink" x="0px" y="0px" width="23.5px"
	 height="20.6px" viewBox="0 0 23.5 20.6" style="overflow:visible;enable-background:new 0 0 23.5 20.6;" xml:space="preserve">
<style type="text/css">
	.st0{fill:#040000;}
</style>
<defs>
</defs>
<path class="st0" d="M0,1.2c0-0.3,0.1-0.6,0.4-0.9C0.6,0.1,1,0,1.4,0h7.8c0.1,0,0.3,0,0.5,0.1C9.8,0.2,9.9,0.3,10,0.4l13.3,18.1
	c0.2,0.2,0.3,0.5,0.3,0.8c0,0.4-0.1,0.7-0.3,0.9c-0.2,0.2-0.5,0.3-0.9,0.3h-4.5c-0.4,0-0.6-0.1-0.8-0.4L0.4,2.3C0.1,1.9,0,1.6,0,1.2
	z"/>
</svg>
