<!-- Generator: Adobe Illustrator 25.0.0, SVG Export Plug-In  -->
<svg version="1.1" xmlns="http://www.w3.org/2000/svg" xmlns:xlink="http://www.w3.org/1999/xlink" x="0px" y="0px" width="690.5px"
	 height="279.5px" viewBox="0 0 690.5 279.5" style="overflow:visible;enable-background:new 0 0 690.5 279.5;"
	 xml:space="preserve">
<style type="text/css">
	.st0{fill:none;stroke:#595757;stroke-width:6;stroke-linecap:round;stroke-miterlimit:10;}
	.st1{fill:#595757;}
	.st2{fill:#FFFFFF;}
	.st3{fill:none;stroke:#D7A685;stroke-width:6;stroke-linecap:round;stroke-linejoin:round;stroke-miterlimit:10;}
	.st4{fill:none;stroke:#DF032E;stroke-width:6;stroke-linecap:round;stroke-miterlimit:10;}
	.st5{fill:#DF032E;}
	.st6{fill:#D7A685;}
</style>
<defs>
</defs>
<path class="st0" d="M581.7,105.5c8.9,0,14.7-4.5,16.3-11c4.9-19.8,22.8-34.4,44.1-34.4"/>
<path class="st0" d="M642.1,60.1c25.1,0,45.4,20.3,45.4,45.4"/>
<path class="st1" d="M673.6,105.5c0,17.4-14.1,31.6-31.6,31.6s-31.6-14.1-31.6-31.6c0-17.4,14.1-31.6,31.6-31.6
	S673.6,88.1,673.6,105.5"/>
<polygon class="st2" points="91.5,228.9 105.5,204.6 119.5,228.9 "/>
<path class="st0" d="M340.3,105.5c8.9,0,14.7-4.5,16.3-11c4.9-19.8,22.8-34.4,44.1-34.4c21.3,0,39.2,14.7,44.1,34.4
	c1.6,6.5,7.4,11,16.3,11"/>
<path class="st0" d="M461,105.5c8.9,0,14.7-4.5,16.3-11c4.9-19.8,22.8-34.4,44.1-34.4s39.2,14.7,44.1,34.4c1.6,6.5,7.4,11,16.3,11"
	/>
<path class="st3" d="M221.8,105.5L221.8,105.5c6.7,0,12.6-4.5,14.2-11c4.9-19.8,22.8-34.4,44.1-34.4s39.2,14.7,44.1,34.4
	c1.6,6.5,7.4,11,16.3,11"/>
<path class="st4" d="M3,105.5C3,48.9,48.9,3,105.5,3c52.3,0,95.4,39.1,101.7,89.7c0.9,7.3,7.1,12.8,14.5,12.8"/>
<path class="st5" d="M191,105.5c0,47.2-38.3,85.4-85.4,85.4s-85.4-38.3-85.4-85.4c0-47.2,38.3-85.4,85.4-85.4S191,58.3,191,105.5"/>
<path class="st6" d="M311.6,105.5c0,17.4-14.1,31.6-31.6,31.6s-31.6-14.1-31.6-31.6c0-17.4,14.1-31.6,31.6-31.6
	S311.6,88.1,311.6,105.5"/>
<path class="st1" d="M432.3,105.5c0,17.4-14.1,31.6-31.6,31.6c-17.4,0-31.6-14.1-31.6-31.6c0-17.4,14.1-31.6,31.6-31.6
	C418.2,74,432.3,88.1,432.3,105.5"/>
<path class="st1" d="M553,105.5c0,17.4-14.1,31.6-31.6,31.6s-31.6-14.1-31.6-31.6c0-17.4,14.1-31.6,31.6-31.6S553,88.1,553,105.5"/>
<g>
	<path class="st2" d="M29.5,279v-18c-0.8,1.1-1.5,2-2.2,2.6c-0.1,0.1-0.2,0.2-0.3,0.2c-0.2,0-0.3-0.1-0.3-0.4l-1.4-4.6l0-0.2
		c0-0.2,0-0.3,0-0.3l0.2-0.2c1.5-1.5,2.9-3.3,4.1-5.5c1.2-2.2,2.3-4.6,3.1-7.2c0.1-0.3,0.2-0.4,0.4-0.4c0.1,0,0.2,0,0.3,0l4,0.7
		c0.3,0,0.4,0.2,0.5,0.4c0,0.1,0,0.2,0,0.2c-0.8,2.8-1.9,5.4-3.3,7.9V279c0,0.4-0.2,0.5-0.5,0.5H30C29.7,279.5,29.5,279.4,29.5,279z
		 M38.7,275.4l-3.5-1.7c-0.2-0.1-0.3-0.3-0.3-0.4c0-0.1,0-0.2,0.1-0.3c2-3.2,3.4-6.8,4-10.7c0.1-0.3,0.2-0.4,0.3-0.5
		c0.1,0,0.2,0,0.3,0l3.5,0.8c0.2,0,0.3,0.1,0.4,0.3v0.3c-0.3,2-0.8,4.1-1.5,6.3c-0.7,2.1-1.5,4.1-2.5,5.8c-0.1,0.2-0.2,0.3-0.3,0.3
		C38.9,275.5,38.8,275.5,38.7,275.4z M56.7,261.4l-3.5-1.3c-0.2-0.1-0.3-0.2-0.3-0.3c0-0.2,0-0.3,0-0.3c0.9-2.2,1.4-4.2,1.5-6.1
		H43.8c-0.5,1.4-1.1,2.7-1.7,3.9c-0.6,1.1-1.4,2.3-2.4,3.5c-0.1,0.2-0.3,0.3-0.4,0.3c-0.1,0-0.2-0.1-0.3-0.2l-3.1-3
		c-0.1-0.1-0.2-0.3-0.2-0.4s0.1-0.2,0.2-0.3c1.6-1.9,2.7-3.8,3.5-5.6c0.7-1.8,1.2-3.8,1.5-6c0-0.2,0.1-0.4,0.3-0.5h0.2l4,0.4
		c0.3,0.1,0.4,0.2,0.5,0.4v0.3c-0.2,0.9-0.4,1.8-0.6,2.8h13.6c0.4,0,0.5,0.2,0.5,0.7c-0.1,4.3-0.7,8.1-1.9,11.5
		c-0.1,0.3-0.2,0.4-0.5,0.4C56.8,261.4,56.8,261.4,56.7,261.4z M42.3,279.3c-0.1,0-0.2-0.1-0.3-0.3l-1.5-3.7c0,0,0-0.1,0-0.2
		c0-0.2,0.1-0.4,0.3-0.4h0.2c0.4,0,0.8,0,1.4,0c0.9,0,1.6-0.1,2-0.2c0.4-0.1,0.7-0.3,0.8-0.6s0.2-0.7,0.2-1.2v-16.1
		c0-0.4,0.2-0.5,0.5-0.5h3.6c0.4,0,0.5,0.2,0.5,0.5v17.5c0,1.9-0.6,3.3-1.8,4.1c-1.2,0.8-3.1,1.1-5.6,1.1
		C42.6,279.4,42.5,279.4,42.3,279.3z M56,275.4c-0.8-1.4-1.6-3.2-2.3-5.4c-0.7-2.2-1.4-4.3-1.9-6.4l0-0.2c0-0.2,0.1-0.4,0.4-0.5
		l3.2-0.9c0.1,0,0.1,0,0.2,0c0.2,0,0.3,0.1,0.4,0.4c0.5,1.8,1.1,3.7,1.8,5.6s1.5,3.6,2.4,5c0.1,0.1,0.1,0.2,0.1,0.3
		c0,0.2-0.1,0.3-0.3,0.4l-3.3,1.8c-0.1,0.1-0.2,0.1-0.3,0.1C56.3,275.7,56.1,275.6,56,275.4z"/>
	<path class="st2" d="M81.8,277.9H69.2c-0.4,0-0.5-0.2-0.5-0.5v-27c0-0.4,0.2-0.5,0.5-0.5h2.7c0.7-1.6,1.3-3.1,1.6-4.5
		c0.1-0.3,0.2-0.4,0.5-0.4h0.1l3.7,0.4c0.4,0.1,0.5,0.3,0.4,0.6c-0.5,1.5-1,2.8-1.5,3.9h5.1c0.4,0,0.5,0.2,0.5,0.5v4.3
		c0.9-1.3,1.7-2.7,2.3-4.3c0.7-1.6,1.2-3.3,1.6-5c0.1-0.3,0.2-0.4,0.5-0.4H87l3.5,0.4c0.2,0,0.3,0.1,0.4,0.2
		c0.1,0.1,0.1,0.2,0.1,0.4c-0.2,1-0.6,2.1-1,3.3h10.2c0.3,0,0.5,0.2,0.5,0.5c0,0.3,0,2.8,0,7.6c0,5.4-0.1,9.4-0.3,11.9
		c-0.2,2.5-0.7,4.4-1.4,5.9c-0.7,1.5-1.8,2.5-3.2,3.2s-3.4,1-5.8,1c-0.3,0-0.5,0-0.8,0c-0.3-0.1-0.4-0.2-0.5-0.4l-1.4-3.8
		c0-0.1,0-0.1,0-0.2c0-0.2,0.2-0.3,0.5-0.3c2,0.1,3.5-0.1,4.6-0.4c1.1-0.3,1.9-0.9,2.4-1.8c0.5-0.8,0.8-2,0.9-3.5
		c0.2-2.6,0.3-5.6,0.3-9c0-1.8,0-3.9-0.1-6h-7.7c-0.8,1.8-1.8,3.3-2.8,4.5c-0.1,0.2-0.2,0.2-0.4,0.2c-0.1,0-0.2,0-0.3-0.1l-2.3-1.3
		v20.3C82.4,277.7,82.2,277.9,81.8,277.9z M73.1,254.1v7.3H78v-7.3H73.1z M73.1,265.8v7.7H78v-7.7H73.1z M84.8,261
		c-0.1-0.2-0.2-0.3-0.2-0.4c0-0.2,0.1-0.3,0.3-0.4l3.1-1.5c0.1-0.1,0.2-0.1,0.3-0.1c0.2,0,0.3,0.1,0.4,0.2c0.9,1.1,1.7,2.4,2.4,3.7
		c0.7,1.4,1.4,2.8,1.9,4.1c0,0.1,0,0.1,0,0.2c0,0.2-0.1,0.4-0.3,0.5l-3.3,1.6l-0.3,0.1c-0.2,0-0.3-0.1-0.4-0.3
		C87.9,265.8,86.6,263.2,84.8,261z"/>
	<path class="st2" d="M125.1,251.1h-3.5v1.4c0,0.4-0.2,0.5-0.5,0.5h-3.5c-0.4,0-0.5-0.2-0.5-0.5v-1.4h-6.9c-0.4,0-0.5-0.2-0.5-0.5
		v-3c0-0.4,0.2-0.5,0.5-0.5h6.9v-1.6c0-0.4,0.2-0.5,0.5-0.5h3.5c0.4,0,0.5,0.2,0.5,0.5v1.6h3.5c0.4,0,0.5,0.2,0.5,0.5v3
		C125.7,250.9,125.5,251.1,125.1,251.1z M111.9,259.4l0.2,0c1,0.3,2.1,0.7,3.2,1.2c1.1,0.5,2.1,1,3,1.6c0.2,0.1,0.3,0.2,0.3,0.4
		l-0.1,0.3l-1.6,2.8c-0.1,0.2-0.3,0.3-0.4,0.3c-0.1,0-0.2,0-0.3-0.1c-1.8-1.2-3.8-2.2-5.9-2.8c-0.3-0.1-0.4-0.2-0.4-0.4l0.1-0.3
		l1.5-2.7C111.5,259.5,111.7,259.4,111.9,259.4z M114.7,267.2c0.1-0.4,0.4-0.4,0.7-0.3l3.1,1.6c0.3,0.2,0.4,0.4,0.3,0.7
		c-1.3,3.8-2.8,7-4.4,9.5c-0.1,0.2-0.2,0.3-0.4,0.3l-0.3-0.1l-3.3-1.8c-0.2-0.1-0.3-0.3-0.3-0.4c0-0.1,0-0.2,0.1-0.3
		C111.7,274.1,113.3,271.1,114.7,267.2z M113.4,252.8c0.1,0,0.2,0,0.2,0c2.1,0.6,4.1,1.6,6,2.8c0.2,0.2,0.2,0.3,0.2,0.4
		c0,0.1,0,0.2-0.1,0.3l-1.7,2.7c-0.1,0.2-0.2,0.3-0.4,0.3c-0.1,0-0.2,0-0.3-0.1c-1.7-1.2-3.6-2.2-5.8-3c-0.3-0.1-0.4-0.2-0.4-0.4
		c0-0.1,0-0.2,0.1-0.3l1.6-2.5C113,252.9,113.2,252.8,113.4,252.8z M118.6,265.5c0-0.3,0.2-0.4,0.5-0.4c2.5-0.2,5.1-0.7,7.8-1.7
		c-1.1-0.8-2-1.6-2.8-2.4c-0.7,0.6-1.5,1.2-2.4,1.7c-0.1,0.1-0.2,0.1-0.3,0.1c-0.2,0-0.3-0.1-0.4-0.2l-2-2.5
		c-0.1-0.1-0.2-0.2-0.2-0.3c0-0.2,0.1-0.3,0.3-0.4c1.5-0.8,2.8-1.8,3.9-3c1.1-1.1,2-2.3,2.5-3.4c0.1-0.2,0.3-0.3,0.5-0.3h0.2
		l3.6,0.4c0.2,0,0.3,0.1,0.4,0.2c0.1,0.1,0.1,0.3,0,0.4l-0.5,0.8h10.1c0.4,0,0.5,0.2,0.5,0.5v2.7c0,0.2-0.1,0.4-0.2,0.6
		c-1.2,1.9-2.8,3.5-4.6,5c2.4,0.8,5,1.4,7.9,1.7c0.3,0.1,0.5,0.2,0.5,0.4c0,0.1,0,0.1-0.1,0.2l-1.3,3.2c-0.1,0.3-0.3,0.4-0.6,0.4
		c-0.6-0.1-1.1-0.2-1.6-0.3v9.5c0,0.4-0.2,0.5-0.5,0.5h-17.4c-0.4,0-0.5-0.2-0.5-0.5V269c-0.5,0.1-0.9,0.2-1.4,0.2h-0.1
		c-0.2,0-0.3,0-0.3-0.1c-0.1-0.1-0.1-0.1-0.2-0.3l-1.3-3.1C118.6,265.6,118.6,265.6,118.6,265.5z M131.2,266c-2,1-4.4,1.9-7.2,2.6
		h14.3C135.8,267.9,133.4,267,131.2,266z M135.9,272h-9.5v3.5h9.5V272z M131.2,261.3c1.6-1,2.8-2,3.8-3.3h-7.9v0
		C128.2,259.4,129.5,260.4,131.2,261.3z M127.6,247.1h3.5v-1.6c0-0.4,0.2-0.5,0.5-0.5h3.5c0.4,0,0.5,0.2,0.5,0.5v1.6h6.9
		c0.4,0,0.5,0.2,0.5,0.5v3c0,0.4-0.2,0.5-0.5,0.5h-6.9v1.3c0,0.4-0.2,0.5-0.5,0.5h-3.5c-0.4,0-0.5-0.2-0.5-0.5v-1.3h-3.5
		c-0.4,0-0.5-0.2-0.5-0.5v-3C127.1,247.2,127.3,247.1,127.6,247.1z"/>
	<path class="st2" d="M150.4,278.2l0-0.2c0.4-0.8,0.7-1.8,0.9-3c0.3-1.2,0.4-2.3,0.5-3.4c0.1-0.4,0.3-0.5,0.6-0.5l2.6,0.4
		c0.4,0.1,0.5,0.2,0.5,0.6c-0.1,1.2-0.2,2.4-0.5,3.6c-0.2,1.2-0.5,2.4-0.9,3.3c-0.1,0.3-0.2,0.4-0.5,0.4c-0.1,0-0.3-0.1-0.4-0.1
		l-2.7-0.7C150.5,278.6,150.4,278.4,150.4,278.2z M151.5,266.4h6.5v-1.7h-5.5c-0.4,0-0.5-0.2-0.5-0.5v-2.5c0-0.4,0.2-0.5,0.5-0.5
		h5.5v-1.7h-6c-0.4,0-0.5-0.2-0.5-0.5v-12.7c0-0.4,0.2-0.5,0.5-0.5h15.7c0.4,0,0.5,0.2,0.5,0.5V259c0,0.4-0.2,0.5-0.5,0.5h-5.9v1.7
		h5.5c0.4,0,0.5,0.2,0.5,0.5v2.5c0,0.4-0.2,0.5-0.5,0.5h-5.5v1.7h6.2c0.4,0,0.5,0.2,0.5,0.5v2.5c0,0.4-0.2,0.5-0.5,0.5h-16.4
		c-0.4,0-0.5-0.2-0.5-0.5v-2.5C151,266.6,151.2,266.4,151.5,266.4z M158.3,249.2h-3.3v6.9h3.3V249.2z M155.1,251.1
		c0-0.2,0.1-0.3,0.4-0.4l1-0.3l0.2,0h0.1c0.2,0,0.3,0.1,0.4,0.4c0.4,1,0.7,2.2,0.9,3.5l0,0.1c0,0.3-0.1,0.5-0.4,0.5l-1.1,0.3
		c-0.1,0.1-0.2,0.1-0.2,0.1c-0.2,0-0.4-0.2-0.4-0.5c-0.1-1.1-0.4-2.3-0.8-3.5C155.1,251.3,155.1,251.2,155.1,251.1z M156.7,278.8
		c-0.1-0.1-0.1-0.2-0.1-0.4c0.1-0.5,0.1-1.1,0.1-2c0-1.4-0.1-2.7-0.2-4c0-0.3,0.2-0.5,0.5-0.6l2.1-0.2h0.1c0.3,0,0.5,0.2,0.5,0.5
		c0.3,1.8,0.5,3.8,0.5,6c0,0.3-0.2,0.5-0.5,0.6l-2.6,0.3h-0.1C156.9,279,156.8,278.9,156.7,278.8z M161.6,277.8
		c-0.2-2.3-0.4-4.1-0.8-5.4l0-0.2c0-0.2,0.1-0.3,0.4-0.4l1.9-0.4h0.2c0.3,0,0.4,0.1,0.5,0.4c0.3,0.9,0.5,1.9,0.8,3
		c0.2,1.2,0.4,1.9,0.4,2.3v0.1c0,0.3-0.1,0.4-0.4,0.5l-2.3,0.6H162C161.8,278.2,161.6,278.1,161.6,277.8z M164.8,249.2h-3.3v6.9h3.3
		V249.2z M162.5,250.8c0-0.4,0.2-0.5,0.6-0.4l1.2,0.3c0.3,0.1,0.5,0.3,0.4,0.6c-0.2,1.4-0.5,2.6-1,3.7c-0.1,0.2-0.1,0.3-0.3,0.3
		c-0.1,0.1-0.3,0.1-0.4,0l-1-0.4c-0.3-0.1-0.4-0.3-0.3-0.7C162,253.3,162.3,252.2,162.5,250.8z M166,276.6c-0.3-1.8-0.7-3.4-1.2-4.6
		c0-0.1-0.1-0.2-0.1-0.3c0-0.2,0.1-0.3,0.4-0.4l1.7-0.5l0.2,0h0.1c0.2,0,0.3,0.1,0.4,0.3c0.7,1.5,1.2,3,1.5,4.5l0,0.2
		c0,0.1,0,0.2-0.1,0.2c-0.1,0.1-0.2,0.1-0.3,0.2l-2,0.8c-0.1,0-0.1,0-0.2,0C166.2,277,166.1,276.9,166,276.6z M169.7,278.3v-16.2
		c0-0.4,0.2-0.5,0.5-0.5h4v-16.2c0-0.4,0.2-0.5,0.5-0.5h3.5c0.4,0,0.5,0.2,0.5,0.5v5.7h6.2c0.4,0,0.5,0.2,0.5,0.5v3.5
		c0,0.4-0.2,0.5-0.5,0.5h-6.2v5.9h5.1c0.4,0,0.5,0.2,0.5,0.5v16.2c0,0.4-0.2,0.5-0.5,0.5h-13.7C169.8,278.8,169.7,278.7,169.7,278.3
		z M180,265.9h-6v8.7h6V265.9z"/>
</g>
<g>
	<path d="M66.9,97.4h-4.3c-0.4,0-0.6-0.2-0.6-0.6V69.2c0-0.4,0.2-0.6,0.6-0.6h15.1V56.8c0-0.4,0.2-0.6,0.6-0.6h4.7
		c0.4,0,0.6,0.2,0.6,0.6v11.7h15.2c0.4,0,0.6,0.2,0.6,0.6v21.1c0,2.3-0.4,3.9-1.2,4.9c-0.8,1-2.3,1.7-4.5,2c-1.3,0.2-2.6,0.2-4,0.2
		c-0.3,0-0.6-0.2-0.7-0.5l-1.7-4.1c0-0.1,0-0.2,0-0.3c0-0.3,0.2-0.5,0.6-0.5c1.7,0.1,3,0,3.8-0.1c0.8-0.1,1.4-0.4,1.7-0.7
		c0.3-0.3,0.5-0.9,0.5-1.5V73.9H67.5v22.9C67.5,97.2,67.3,97.4,66.9,97.4z M66.7,64c-1.1-1.3-2.2-2.5-3.5-3.6
		c-0.2-0.1-0.2-0.3-0.2-0.4c0-0.2,0.1-0.3,0.3-0.5l3.6-2.3c0.1-0.1,0.3-0.1,0.5-0.1c0.2,0,0.3,0.1,0.5,0.2c1.1,0.9,2.3,2.1,3.5,3.5
		c1.2,1.4,2.2,2.7,3,4.1c0.1,0.1,0.1,0.2,0.1,0.4c0,0.2-0.1,0.3-0.4,0.5l-3.8,2.4c-0.1,0.1-0.3,0.1-0.4,0.1c-0.2,0-0.3-0.1-0.5-0.3
		C68.8,66.7,67.8,65.3,66.7,64z M71.9,77h18c0.4,0,0.6,0.2,0.6,0.6v12.9c0,0.4-0.2,0.6-0.6,0.6h-18c-0.4,0-0.6-0.2-0.6-0.6V77.6
		C71.2,77.2,71.4,77,71.9,77z M76.4,81.5v5h9v-5H76.4z M86.9,65.4c0-0.2,0.1-0.3,0.3-0.5c1.2-1,2.4-2.1,3.5-3.5c1.1-1.4,2-2.7,2.6-4
		c0.2-0.3,0.3-0.4,0.5-0.4c0.1,0,0.2,0,0.4,0.1l4,2c0.4,0.2,0.5,0.5,0.3,0.8c-0.8,1.5-1.8,3.1-3,4.6c-1.2,1.6-2.4,2.7-3.6,3.6
		c-0.1,0.1-0.3,0.2-0.5,0.2c-0.1,0-0.3,0-0.4-0.1l-3.8-2.3C87,65.7,86.9,65.6,86.9,65.4z"/>
	<path d="M112,68.5l-2.4-3.8c-0.1-0.1-0.1-0.3-0.1-0.4c0-0.2,0.1-0.4,0.4-0.5c1.7-0.8,3.3-1.8,4.8-3.1c1.4-1.3,2.6-2.7,3.4-4.2
		c0.1-0.2,0.3-0.4,0.6-0.4h0.2l4.6,0.7c0.5,0.1,0.6,0.3,0.4,0.8c-0.4,0.8-0.9,1.5-1.4,2.2h26.1c0.4,0,0.6,0.2,0.6,0.6v3.9
		c0,0.4-0.2,0.6-0.6,0.6h-31.1c-0.7,0.7-1.5,1.3-2.4,2.1c-0.9,0.7-1.6,1.2-2.2,1.6c-0.1,0.1-0.2,0.1-0.4,0.1
		C112.4,68.9,112.2,68.8,112,68.5z M109.9,85.5v-3.7c0-0.4,0.2-0.6,0.6-0.6h5v-4.2h-3.6c-0.4,0-0.6-0.2-0.6-0.6v-3.9
		c0-0.4,0.2-0.6,0.6-0.6h3.6v-4.4c0-0.2,0.1-0.3,0.2-0.5c0.1-0.1,0.3-0.2,0.5-0.2h3.9c0.2,0,0.3,0.1,0.5,0.2
		c0.1,0.1,0.2,0.3,0.2,0.5v4.4h3.4v-4.4c0-0.2,0.1-0.3,0.2-0.5c0.1-0.1,0.3-0.2,0.5-0.2h3.6c0.2,0,0.3,0.1,0.5,0.2
		c0.1,0.1,0.2,0.3,0.2,0.5v4.4h3.3v-4.4c0-0.2,0.1-0.3,0.2-0.5c0.1-0.1,0.3-0.2,0.5-0.2h3.6c0.2,0,0.3,0.1,0.5,0.2
		c0.1,0.1,0.2,0.3,0.2,0.5v4.4h3.3v-4.4c0-0.2,0.1-0.3,0.2-0.5c0.1-0.1,0.3-0.2,0.5-0.2h3.8c0.2,0,0.3,0.1,0.5,0.2
		c0.1,0.1,0.2,0.3,0.2,0.5v4.4h3.2c0.4,0,0.6,0.2,0.6,0.6v3.9c0,0.4-0.2,0.6-0.6,0.6h-3.2v4.2h4.5c0.4,0,0.6,0.2,0.6,0.6v3.7
		c0,0.4-0.2,0.6-0.6,0.6h-39.6C110.1,86.1,109.9,85.9,109.9,85.5z M110.3,95.3c0-0.1,0-0.2,0.1-0.2c0-0.1,0.1-0.1,0.1-0.2
		c0.9-1.1,1.7-2.2,2.4-3.5c0.7-1.3,1.2-2.6,1.5-3.9c0.1-0.4,0.3-0.6,0.8-0.5l4.4,0.9c0.2,0,0.4,0.1,0.5,0.3c0.1,0.2,0.1,0.3,0,0.5
		c-0.4,1.5-0.9,3.1-1.6,4.6c-0.7,1.5-1.4,2.9-2.2,3.9c-0.2,0.2-0.3,0.3-0.5,0.3c-0.1,0-0.2,0-0.4-0.1l-4.7-1.7
		C110.4,95.7,110.3,95.5,110.3,95.3z M124.1,81.1v-4.2h-3.4v4.2H124.1z M123.4,96.4c0.1-2.3-0.2-4.8-0.9-7.5l0-0.2
		c0-0.3,0.2-0.5,0.5-0.5l4.3-0.5h0.1c0.4,0,0.6,0.2,0.7,0.5c0.4,1.2,0.7,2.5,0.9,3.8c0.3,1.4,0.4,2.7,0.4,3.8c0,0.4-0.2,0.6-0.6,0.7
		L124,97h-0.1C123.5,97,123.4,96.8,123.4,96.4z M132.3,81.1v-4.2H129v4.2H132.3z M134.1,96.4c-0.1-1.2-0.4-2.5-0.7-3.8
		c-0.4-1.3-0.9-2.6-1.4-3.7c0-0.1-0.1-0.2-0.1-0.3c0-0.3,0.2-0.4,0.5-0.5l4.2-0.5h0.1c0.3,0,0.5,0.1,0.6,0.4
		c0.6,1.1,1.2,2.4,1.6,3.8c0.5,1.4,0.9,2.7,1.1,3.9v0.2c0,0.3-0.2,0.5-0.5,0.5l-4.6,0.6h-0.1C134.3,96.9,134.1,96.7,134.1,96.4z
		 M140.5,81.1v-4.2h-3.3v4.2H140.5z M145.2,96.7c-0.3-1.3-0.9-2.6-1.6-4.1c-0.7-1.5-1.5-2.7-2.3-3.9c-0.1-0.1-0.1-0.3-0.1-0.4
		c0-0.2,0.2-0.3,0.5-0.4l4.2-0.9c0.1,0,0.2,0,0.3,0c0.2,0,0.4,0.1,0.6,0.3c0.8,1,1.7,2.3,2.4,3.7c0.8,1.4,1.4,2.8,1.8,4.2
		c0,0.1,0,0.2,0,0.3c0,0.3-0.2,0.5-0.5,0.5l-4.6,1.3c-0.1,0-0.2,0-0.3,0C145.4,97.2,145.3,97,145.2,96.7z"/>
</g>
<g>
	<path d="M63.4,154.2l-3.1-4.5c-0.1-0.1-0.1-0.3-0.1-0.4c0-0.2,0.1-0.4,0.4-0.5c5.4-2.5,9.6-6.2,12.6-11.1c2.9-4.8,4.6-10.5,5-17.1
		H67.2c-0.4,0-0.6-0.2-0.6-0.6v-4.7c0-0.4,0.2-0.6,0.6-0.6h16.3c0.4,0,0.6,0.2,0.6,0.6c0,15.8,5.6,26.9,16.9,33.3
		c0.2,0.2,0.4,0.3,0.4,0.5c0,0.1,0,0.2-0.1,0.4l-3.2,4.6c-0.2,0.2-0.3,0.3-0.5,0.3c-0.1,0-0.2,0-0.4-0.1c-4-2.5-7.3-5.5-10-9.1
		c-2.7-3.6-4.7-7.7-6-12.3c-1.4,4.9-3.5,9.3-6.4,13c-2.9,3.7-6.4,6.6-10.5,8.6c-0.2,0.1-0.3,0.1-0.4,0.1
		C63.7,154.5,63.5,154.4,63.4,154.2z"/>
	<path d="M115.7,154.1l0.2-19c-0.9,3.1-2,6-3.2,8.5c-0.2,0.2-0.3,0.4-0.5,0.4c-0.2,0-0.3-0.1-0.5-0.3l-2.5-4
		c-0.1-0.2-0.1-0.3-0.1-0.5s0-0.3,0.1-0.5c1.1-1.7,2.2-3.8,3.3-6.1c1.1-2.3,2-4.7,2.8-7.1h-3.9c-0.4,0-0.6-0.2-0.6-0.6v-4
		c0-0.4,0.2-0.6,0.6-0.6h4.3l0-6.1c0-0.4,0.2-0.6,0.6-0.6h4.1c0.4,0,0.6,0.2,0.6,0.6v6.1h3c0.4,0,0.6,0.2,0.6,0.6v4
		c0,0.4-0.2,0.6-0.6,0.6h-3c1.2,3.1,2.6,5.9,4.2,8.3c0.1,0.1,0.2,0.3,0.2,0.5c0,0.1,0,0.3-0.1,0.4l-2.2,3.8
		c-0.2,0.2-0.3,0.3-0.5,0.3c-0.2,0-0.3-0.1-0.4-0.4c-0.5-1-0.9-2.3-1.4-3.8l0.2,19.5c0,0.4-0.2,0.6-0.6,0.6h-4.2
		C115.9,154.7,115.7,154.5,115.7,154.1z M122.9,150.5c0-0.2,0.1-0.3,0.4-0.5c2.6-1.3,4.5-2.9,5.6-4.9c1.2-1.9,1.8-4.2,2-6.8h-4.3
		c-0.4,0-0.6-0.2-0.6-0.6v-3.3c0-0.4,0.2-0.6,0.6-0.6h8.6c-0.2-0.5-0.4-1.1-0.9-1.9c-0.1-0.1-0.1-0.2-0.1-0.3c0-0.3,0.2-0.4,0.5-0.5
		l3.7-0.3h0.3c0.4,0,0.6,0.1,0.7,0.4c0.3,0.6,0.6,1.5,0.9,2.6h8.8c0.4,0,0.6,0.2,0.6,0.6v3.3c0,0.4-0.2,0.6-0.6,0.6h-12.9
		c-0.1,1-0.2,1.8-0.3,2.4h11.7c0.4,0,0.6,0.2,0.6,0.6c0,2.7,0,4.7-0.1,6c-0.1,1.7-0.5,3.1-1.1,4.1s-1.6,1.7-2.9,2.2
		c-1.3,0.5-3.1,0.7-5.3,0.7c-0.4,0-0.8,0-1.3,0c-0.2,0-0.3-0.1-0.4-0.1c-0.1-0.1-0.2-0.2-0.2-0.4l-1.4-3.5l0-0.3
		c0-0.3,0.2-0.5,0.6-0.5l2,0c1.7,0,2.9-0.1,3.5-0.5c0.6-0.3,1-0.9,1.1-1.9c0.1-0.6,0.1-1.3,0.1-2.1h-8c-1.5,4.1-4.1,7.1-7.7,9.3
		c-0.1,0.1-0.2,0.1-0.4,0.1c-0.2,0-0.3-0.1-0.5-0.3l-3.1-3.3C122.9,150.8,122.9,150.7,122.9,150.5z M125.6,125.3h4.5
		c-0.4-1.4-0.8-2.7-1.2-3.8h-2.4c-0.4,0-0.6-0.2-0.6-0.6v-3.3c0-0.4,0.2-0.6,0.6-0.6h8.4c-0.2-0.7-0.5-1.4-0.9-2.3
		c-0.1-0.1-0.1-0.2-0.1-0.3c0-0.3,0.2-0.4,0.5-0.5l4-0.4h0.2c0.4,0,0.6,0.2,0.8,0.5c0.3,0.6,0.6,1.5,1,2.9h8.8
		c0.4,0,0.6,0.2,0.6,0.6v3.3c0,0.4-0.2,0.6-0.6,0.6h-2.4c-0.2,1-0.6,2.3-1.2,3.8h4.4c0.4,0,0.6,0.2,0.6,0.6v6.4
		c0,0.4-0.2,0.6-0.6,0.6h-3.7c-0.4,0-0.6-0.2-0.6-0.6v-2.7h-15.6v2.8c0,0.4-0.2,0.6-0.6,0.6h-3.7c-0.4,0-0.6-0.2-0.6-0.6v-6.5
		C124.9,125.5,125.2,125.3,125.6,125.3z M135.3,125.3h5c0.5-1.1,0.9-2.4,1.2-3.8h-7.4L135.3,125.3z"/>
</g>
<g>
	<path class="st6" d="M227.8,204c-0.9,0.7-1.6,1.7-2.1,3.1c-0.1,0.3-0.3,0.5-0.7,0.4l-4.4-1.2c-0.3-0.1-0.4-0.2-0.4-0.4
		c0-0.1,0.1-0.2,0.1-0.4c0.8-2.6,2.2-4.6,4.1-6s4.2-2.1,6.9-2.1c2,0,3.8,0.4,5.4,1.1c1.6,0.8,2.8,1.8,3.6,3.1
		c0.9,1.3,1.3,2.9,1.3,4.7c0,1.3-0.2,2.6-0.5,3.8c-0.3,1.2-1,2.5-1.9,3.9c-0.9,1.4-2.3,3.1-4,4.9l-4.7,5H242c0.2,0,0.3,0.1,0.4,0.2
		s0.2,0.3,0.2,0.4v4.3c0,0.2-0.1,0.3-0.2,0.4c-0.1,0.1-0.2,0.1-0.4,0.1h-20.7c-0.4,0-0.6-0.2-0.6-0.6v-1.4c0-0.3,0.1-0.5,0.2-0.7
		l7.8-8.7c1.9-2.1,3.3-3.8,4.3-5.1c1-1.3,1.6-2.3,2-3.2c0.4-0.9,0.6-1.8,0.6-2.8c0-1.2-0.4-2.1-1.2-2.8c-0.8-0.7-1.9-1-3.3-1
		C229.8,203,228.8,203.3,227.8,204z"/>
	<path class="st6" d="M252.6,228c-1.8-1.3-3.2-3.2-4.2-5.6c-1-2.5-1.4-5.4-1.4-8.7c0-3.4,0.5-6.3,1.4-8.8c1-2.5,2.4-4.3,4.2-5.6
		c1.8-1.3,4-1.9,6.6-1.9c2.5,0,4.7,0.6,6.6,1.9c1.8,1.3,3.2,3.2,4.2,5.6c1,2.5,1.4,5.4,1.4,8.8c0,3.4-0.5,6.3-1.4,8.7
		c-1,2.5-2.4,4.3-4.2,5.6c-1.8,1.3-4,1.9-6.6,1.9C256.6,230,254.4,229.3,252.6,228z M254.6,221.7c1.1,1.8,2.6,2.7,4.6,2.7
		s3.5-0.9,4.6-2.7c1.1-1.8,1.6-4.4,1.6-8c0-3.6-0.5-6.2-1.6-8c-1.1-1.8-2.6-2.7-4.6-2.7s-3.5,0.9-4.6,2.7c-1.1,1.8-1.6,4.4-1.6,8
		C253,217.2,253.5,219.9,254.6,221.7z"/>
	<path class="st6" d="M281.3,228c-1.8-1.3-3.2-3.2-4.2-5.6c-1-2.5-1.4-5.4-1.4-8.7c0-3.4,0.5-6.3,1.4-8.8c1-2.5,2.4-4.3,4.2-5.6
		c1.8-1.3,4-1.9,6.6-1.9c2.5,0,4.7,0.6,6.6,1.9c1.8,1.3,3.2,3.2,4.2,5.6c1,2.5,1.4,5.4,1.4,8.8c0,3.4-0.5,6.3-1.4,8.7
		c-1,2.5-2.4,4.3-4.2,5.6c-1.8,1.3-4,1.9-6.6,1.9C285.3,230,283.1,229.3,281.3,228z M283.3,221.7c1.1,1.8,2.6,2.7,4.6,2.7
		s3.5-0.9,4.6-2.7c1.1-1.8,1.6-4.4,1.6-8c0-3.6-0.5-6.2-1.6-8c-1.1-1.8-2.6-2.7-4.6-2.7s-3.5,0.9-4.6,2.7c-1.1,1.8-1.6,4.4-1.6,8
		C281.6,217.2,282.2,219.9,283.3,221.7z"/>
	<path class="st6" d="M303.4,229.5l0-0.2c0.4-0.8,0.7-1.9,1-3.1s0.4-2.4,0.6-3.5c0.1-0.4,0.3-0.5,0.6-0.5l2.7,0.4
		c0.4,0.1,0.5,0.3,0.5,0.6c-0.1,1.2-0.2,2.5-0.5,3.8c-0.2,1.3-0.5,2.5-0.9,3.5c-0.1,0.3-0.2,0.4-0.5,0.4c-0.1,0-0.3-0.1-0.4-0.1
		l-2.9-0.8C303.5,229.9,303.4,229.7,303.4,229.5z M304.6,217.2h6.7v-1.7h-5.7c-0.4,0-0.6-0.2-0.6-0.6v-2.6c0-0.4,0.2-0.6,0.6-0.6
		h5.7V210h-6.2c-0.4,0-0.6-0.2-0.6-0.6v-13.2c0-0.4,0.2-0.6,0.6-0.6h16.3c0.4,0,0.6,0.2,0.6,0.6v13.2c0,0.4-0.2,0.6-0.6,0.6h-6.2
		v1.7h5.7c0.4,0,0.6,0.2,0.6,0.6v2.6c0,0.4-0.2,0.6-0.6,0.6h-5.7v1.7h6.5c0.4,0,0.6,0.2,0.6,0.6v2.7c0,0.4-0.2,0.6-0.6,0.6h-17.1
		c-0.4,0-0.6-0.2-0.6-0.6v-2.7C304.1,217.4,304.2,217.2,304.6,217.2z M311.7,199.3h-3.5v7.2h3.5V199.3z M308.3,201.3
		c0-0.2,0.1-0.4,0.4-0.4l1.1-0.4l0.2,0h0.1c0.2,0,0.3,0.1,0.4,0.4c0.4,1.1,0.7,2.3,0.9,3.7l0,0.1c0,0.3-0.1,0.5-0.4,0.6l-1.1,0.4
		c-0.1,0.1-0.2,0.1-0.2,0.1c-0.2,0-0.4-0.2-0.4-0.5c-0.1-1.2-0.4-2.4-0.9-3.6C308.4,201.5,308.4,201.4,308.3,201.3z M310,230.2
		c-0.1-0.1-0.1-0.2-0.1-0.4c0.1-0.5,0.1-1.2,0.1-2.1c0-1.5-0.1-2.8-0.2-4.2c0-0.3,0.2-0.5,0.5-0.6l2.2-0.2h0.1
		c0.3,0,0.5,0.2,0.6,0.5c0.3,1.9,0.5,4,0.5,6.3c0,0.3-0.2,0.5-0.5,0.6l-2.7,0.3h-0.1C310.3,230.3,310.1,230.3,310,230.2z
		 M315.1,229.1c-0.2-2.3-0.5-4.2-0.8-5.7l0-0.2c0-0.2,0.1-0.3,0.4-0.4l2-0.4h0.2c0.3,0,0.4,0.1,0.5,0.4c0.3,0.9,0.6,1.9,0.8,3.1
		c0.3,1.2,0.4,2,0.4,2.4v0.1c0,0.3-0.1,0.4-0.4,0.5l-2.4,0.6h-0.2C315.3,229.5,315.1,229.4,315.1,229.1z M318.5,199.3H315v7.2h3.5
		V199.3z M316,200.9c0-0.4,0.2-0.5,0.6-0.4l1.2,0.3c0.3,0.1,0.5,0.3,0.4,0.6c-0.2,1.5-0.5,2.7-1.1,3.9c-0.1,0.2-0.1,0.3-0.3,0.3
		c-0.1,0.1-0.3,0.1-0.4,0l-1-0.4c-0.3-0.1-0.4-0.3-0.3-0.7C315.6,203.6,315.9,202.4,316,200.9z M319.7,227.8
		c-0.3-1.9-0.7-3.5-1.2-4.8c0-0.1-0.1-0.2-0.1-0.3c0-0.2,0.1-0.4,0.4-0.4l1.8-0.5l0.2,0h0.1c0.2,0,0.3,0.1,0.4,0.4
		c0.7,1.5,1.2,3.1,1.5,4.7l0,0.2c0,0.1,0,0.2-0.1,0.3c-0.1,0.1-0.2,0.1-0.3,0.2l-2.1,0.8c-0.1,0-0.1,0-0.2,0
		C319.9,228.3,319.8,228.1,319.7,227.8z M323.5,229.6v-16.9c0-0.4,0.2-0.6,0.6-0.6h4.2v-16.9c0-0.4,0.2-0.6,0.6-0.6h3.7
		c0.4,0,0.6,0.2,0.6,0.6v5.9h6.5c0.4,0,0.6,0.2,0.6,0.6v3.6c0,0.4-0.2,0.6-0.6,0.6h-6.5v6.2h5.3c0.4,0,0.6,0.2,0.6,0.6v16.9
		c0,0.4-0.2,0.6-0.6,0.6h-14.3C323.7,230.2,323.5,230,323.5,229.6z M334.3,216.6h-6.3v9.1h6.3V216.6z"/>
</g>
<g>
	<path class="st6" d="M211.6,181.2c-1.6-1.2-2.7-2.8-3.4-4.9c0,0,0-0.1,0-0.2c0-0.2,0.1-0.3,0.3-0.4l3.5-0.9c0.2,0,0.3,0.1,0.4,0.3
		c0.4,1.1,1,1.9,1.8,2.4c0.8,0.6,1.8,0.9,2.9,0.9c1.4,0,2.4-0.4,3.2-1.1c0.8-0.7,1.2-1.7,1.2-3c0-1.3-0.4-2.3-1.2-3.1
		s-1.9-1.1-3.2-1.1c-0.9,0-1.7,0.1-2.5,0.4c-0.8,0.3-1.6,0.8-2.5,1.5c-0.1,0.1-0.2,0.1-0.3,0.1c-0.1,0-0.2,0-0.3-0.1l-2-0.9
		c-0.3-0.1-0.4-0.3-0.3-0.6l1.2-12.8c0-0.3,0.2-0.4,0.4-0.4h13.8c0.1,0,0.2,0,0.3,0.1s0.1,0.2,0.1,0.3v3.5c0,0.1,0,0.2-0.1,0.3
		c-0.1,0.1-0.2,0.1-0.3,0.1h-10.7l-0.6,6.2c1.5-1.2,3.2-1.8,5.3-1.8c1.5,0,2.9,0.3,4.1,1c1.2,0.7,2.1,1.7,2.8,2.9
		c0.7,1.2,1,2.7,1,4.3c0,1.7-0.4,3.2-1.1,4.5c-0.8,1.3-1.8,2.3-3.2,3c-1.4,0.7-2.9,1.1-4.7,1.1C215.1,183,213.2,182.4,211.6,181.2z"
		/>
	<path class="st6" d="M234.6,182.1v-18.5l-4.6,1.8c-0.1,0-0.1,0-0.2,0.1c-0.1,0-0.3-0.1-0.4-0.3l-0.6-1.2c0-0.1-0.1-0.1-0.1-0.3
		c0-0.1,0.1-0.3,0.2-0.4l6.6-5.7c0.1-0.1,0.3-0.2,0.5-0.2h2.7c0.3,0,0.4,0.1,0.4,0.4v24.3c0,0.3-0.1,0.4-0.4,0.4H235
		C234.8,182.5,234.6,182.4,234.6,182.1z"/>
	<path class="st6" d="M244.8,174v-3.4c0-0.3,0.1-0.4,0.4-0.4h10.3c0.1,0,0.2,0,0.3,0.1c0.1,0.1,0.1,0.2,0.1,0.3v3.4
		c0,0.1,0,0.3-0.1,0.3c-0.1,0.1-0.2,0.1-0.3,0.1h-10.3C245,174.5,244.8,174.3,244.8,174z"/>
	<path class="st6" d="M265.3,182.1v-18.5l-4.6,1.8c-0.1,0-0.1,0-0.2,0.1c-0.1,0-0.3-0.1-0.4-0.3l-0.6-1.2c0-0.1-0.1-0.1-0.1-0.3
		c0-0.1,0.1-0.3,0.2-0.4l6.6-5.7c0.1-0.1,0.3-0.2,0.5-0.2h2.7c0.3,0,0.4,0.1,0.4,0.4v24.3c0,0.3-0.1,0.4-0.4,0.4h-3.7
		C265.4,182.5,265.3,182.4,265.3,182.1z"/>
	<path class="st6" d="M279.3,181.5c-1.5-1-2.6-2.5-3.4-4.5c-0.8-2-1.2-4.3-1.2-7c0-2.7,0.4-5.1,1.2-7c0.8-2,1.9-3.5,3.4-4.5
		c1.5-1,3.2-1.6,5.2-1.6c2,0,3.8,0.5,5.2,1.6s2.6,2.5,3.4,4.5s1.2,4.3,1.2,7c0,2.7-0.4,5-1.2,7s-1.9,3.5-3.4,4.5s-3.2,1.6-5.2,1.6
		C282.5,183,280.8,182.5,279.3,181.5z M280.9,176.4c0.9,1.4,2.1,2.1,3.7,2.1s2.8-0.7,3.7-2.1c0.9-1.4,1.3-3.5,1.3-6.4
		s-0.4-5-1.3-6.4c-0.9-1.4-2.1-2.1-3.7-2.1s-2.8,0.7-3.7,2.1c-0.9,1.4-1.3,3.6-1.3,6.4C279.6,172.8,280.1,175,280.9,176.4z"/>
	<path class="st6" d="M302.3,181.5c-1.5-1-2.6-2.5-3.4-4.5c-0.8-2-1.2-4.3-1.2-7c0-2.7,0.4-5.1,1.2-7c0.8-2,1.9-3.5,3.4-4.5
		c1.5-1,3.2-1.6,5.2-1.6c2,0,3.8,0.5,5.2,1.6s2.6,2.5,3.4,4.5s1.2,4.3,1.2,7c0,2.7-0.4,5-1.2,7s-1.9,3.5-3.4,4.5s-3.2,1.6-5.2,1.6
		C305.5,183,303.7,182.5,302.3,181.5z M303.9,176.4c0.9,1.4,2.1,2.1,3.7,2.1s2.8-0.7,3.7-2.1c0.9-1.4,1.3-3.5,1.3-6.4
		s-0.4-5-1.3-6.4c-0.9-1.4-2.1-2.1-3.7-2.1s-2.8,0.7-3.7,2.1c-0.9,1.4-1.3,3.6-1.3,6.4C302.6,172.8,303,175,303.9,176.4z"/>
	<path class="st6" d="M323.1,166.3c-0.2,0-0.3-0.1-0.4-0.2l-2-3c-0.1-0.1-0.1-0.2-0.1-0.3c0-0.1,0.1-0.3,0.3-0.3
		c2.2-0.7,4.2-1.8,6.1-3.1c1.9-1.4,3.4-2.8,4.4-4.2c0.1-0.2,0.3-0.3,0.6-0.3l3.6,0.5c0.2,0.1,0.3,0.2,0.3,0.3c0,0.1,0,0.1-0.1,0.3
		l-0.9,1.3h11.1c0.3,0,0.4,0.1,0.4,0.4v2.8c0,0.2,0,0.4-0.1,0.5c-2.5,3.7-6.2,6.8-10.9,9.4h11.5c0.3,0,0.4,0.1,0.4,0.4v11.9
		c0,0.3-0.1,0.4-0.4,0.4h-20.3c-0.3,0-0.4-0.1-0.4-0.4v-8.6c-0.8,0.3-2,0.6-3.7,1.1h-0.2c-0.2,0-0.3-0.1-0.4-0.3l-1.5-3.2
		c0-0.1,0-0.2-0.1-0.2c0-0.2,0.1-0.3,0.3-0.3c3.8-0.7,7.2-1.6,10.3-2.9c-1.4-1.3-2.9-2.5-4.6-3.6c-0.9,0.5-2,1.1-3.2,1.6
		C323.3,166.3,323.2,166.3,323.1,166.3z M334.8,166.4c2.8-1.6,5-3.4,6.8-5.5h-10c-0.4,0.4-1,0.9-1.9,1.6
		C331.7,163.7,333.3,165,334.8,166.4z M343.4,173.9h-13.1v5.5h13.1V173.9z"/>
</g>
<g>
	<path class="st6" d="M247.6,41.8V20.3c0-0.3,0.1-0.4,0.4-0.4h3.5c0.2,0,0.4,0.1,0.5,0.3l9.9,15.2V20.3c0-0.3,0.1-0.4,0.4-0.4h3.2
		c0.3,0,0.4,0.1,0.4,0.4v21.5c0,0.3-0.1,0.4-0.4,0.4H262c-0.2,0-0.4-0.1-0.5-0.3l-9.9-15.2v15.1c0,0.3-0.1,0.4-0.4,0.4H248
		C247.7,42.2,247.6,42.1,247.6,41.8z"/>
	<path class="st6" d="M273.1,41.5c-1.2-0.7-2.1-1.7-2.8-2.9c-0.6-1.2-1-2.6-1-4.2c0-1.6,0.3-3,1-4.2c0.6-1.2,1.6-2.2,2.8-2.9
		c1.2-0.7,2.6-1,4.2-1c2.4,0,4.2,0.8,5.5,2.4c1.3,1.6,1.9,3.7,1.9,6.5c0,0.3-0.1,0.5-0.4,0.5h-10.8c0.2,1.1,0.6,1.9,1.2,2.5
		c0.6,0.6,1.5,0.9,2.5,0.9c1.6,0,2.7-0.6,3.4-1.8c0.1-0.2,0.3-0.2,0.5-0.2L284,38c0.2,0.1,0.3,0.2,0.3,0.3c0,0.1,0,0.2-0.1,0.3
		c-0.7,1.3-1.6,2.3-2.8,3c-1.2,0.7-2.6,1-4.1,1C275.7,42.5,274.3,42.1,273.1,41.5z M279.4,30.4c-0.6-0.5-1.3-0.8-2.1-0.8
		c-0.9,0-1.7,0.3-2.4,0.8c-0.6,0.5-1.1,1.2-1.3,2.2h6.9C280.4,31.7,280,31,279.4,30.4z"/>
	<path class="st6" d="M285.8,41.9c0-0.1,0-0.1,0.1-0.2l5.3-7.6l-5-7.2c-0.1-0.1-0.1-0.2-0.1-0.2c0-0.2,0.1-0.3,0.3-0.3h3.6
		c0.2,0,0.4,0.1,0.5,0.3l3.2,4.6l3.2-4.6c0.1-0.2,0.3-0.3,0.5-0.3h3.4c0.2,0,0.3,0.1,0.3,0.2c0,0.1,0,0.2-0.1,0.3l-5,7.2l5.3,7.6
		c0.1,0.1,0.1,0.2,0.1,0.2c0,0.1,0,0.1-0.1,0.2c-0.1,0-0.1,0.1-0.2,0.1h-3.6c-0.2,0-0.4-0.1-0.5-0.3l-3.4-5.1l-3.5,5.1
		c-0.1,0.2-0.3,0.3-0.5,0.3h-3.4C285.9,42.2,285.8,42.1,285.8,41.9z"/>
	<path class="st6" d="M306.4,40.9c-0.9-1.1-1.3-2.7-1.3-4.8V30h-2.3c-0.1,0-0.2,0-0.3-0.1s-0.1-0.2-0.1-0.3v-2.7
		c0-0.3,0.1-0.4,0.4-0.4h2.3v-4.2c0-0.1,0-0.2,0.1-0.3c0.1-0.1,0.2-0.1,0.3-0.1h3.1c0.1,0,0.2,0,0.3,0.1c0.1,0.1,0.1,0.2,0.1,0.3
		v4.2h3.7c0.3,0,0.4,0.1,0.4,0.4v2.7c0,0.1,0,0.2-0.1,0.3s-0.2,0.1-0.3,0.1h-3.7v6.4c0,0.9,0.1,1.5,0.4,1.9c0.3,0.4,0.7,0.6,1.3,0.6
		c0.5,0,0.9-0.3,1.2-0.8c0.1-0.2,0.3-0.3,0.5-0.2l2.4,1.1c0.1,0.1,0.2,0.2,0.2,0.3c0,0.1,0,0.2-0.1,0.3c-1,1.9-2.6,2.8-4.6,2.8
		C308.5,42.5,307.2,42,306.4,40.9z"/>
</g>
</svg>
