<!-- Generator: Adobe Illustrator 25.0.0, SVG Export Plug-In  -->
<svg version="1.1" xmlns="http://www.w3.org/2000/svg" xmlns:xlink="http://www.w3.org/1999/xlink" x="0px" y="0px" width="689px"
	 height="279.5px" viewBox="0 0 689 279.5" style="overflow:visible;enable-background:new 0 0 689 279.5;" xml:space="preserve">
<style type="text/css">
	.st0{fill:none;stroke:#DF032E;stroke-width:6;stroke-linecap:round;stroke-miterlimit:10;}
	.st1{fill:#FFFFFF;}
	.st2{fill:none;stroke:#595757;stroke-width:6;stroke-linecap:round;stroke-miterlimit:10;}
	.st3{fill:#595757;}
	.st4{fill:#DF032E;}
</style>
<defs>
</defs>
<path class="st0" d="M686,105.5C686,48.9,640.1,3,583.4,3C531.2,3,488,42.1,481.7,92.7c-0.9,7.3-7.1,12.8-14.5,12.8"/>
<polygon class="st1" points="569.5,228.9 583.4,204.6 597.4,228.9 "/>
<path class="st2" d="M348.5,105.5c-8.9,0-14.7-4.5-16.3-11c-4.9-19.8-22.8-34.4-44.1-34.4l0,0"/>
<circle class="st3" cx="288.1" cy="105.5" r="31.6"/>
<path class="st2" d="M108.8,105.5c-8.9,0-14.7-4.5-16.3-11c-4.9-19.8-22.8-34.4-44.1-34.4l0,0"/>
<path class="st2" d="M48.4,60.1C23.3,60.1,3,80.4,3,105.5"/>
<circle class="st3" cx="48.4" cy="105.5" r="31.6"/>
<path class="st2" d="M408.9,60.1L408.9,60.1c-21.3,0-39.2,14.7-44.1,34.4c-1.6,6.5-7.4,11-16.3,11"/>
<path class="st2" d="M288.1,60.1L288.1,60.1c-21.3,0-39.2,14.7-44.1,34.4c-1.6,6.5-7.4,11-16.3,11"/>
<path class="st2" d="M227.7,105.5c-8.9,0-14.7-4.5-16.3-11c-4.9-19.8-22.8-34.4-44.1-34.4l0,0"/>
<circle class="st3" cx="167.3" cy="105.5" r="31.6"/>
<path class="st2" d="M167.3,60.1L167.3,60.1c-21.3,0-39.2,14.7-44.1,34.4c-1.6,6.5-7.4,11-16.3,11"/>
<circle class="st4" cx="583.4" cy="105.5" r="85.4"/>
<path class="st2" d="M467.2,105.5L467.2,105.5c-6.7,0-12.6-4.5-14.2-11c-4.9-19.8-22.8-34.4-44.1-34.4"/>
<circle class="st3" cx="408.9" cy="105.5" r="31.6"/>
<g>
	<g>
		<path class="st1" d="M507.4,279v-18c-0.8,1.1-1.5,2-2.2,2.6c-0.1,0.1-0.2,0.2-0.3,0.2c-0.2,0-0.3-0.1-0.3-0.4l-1.4-4.6l0-0.2
			c0-0.2,0-0.3,0-0.3l0.2-0.2c1.5-1.5,2.9-3.3,4.1-5.5c1.2-2.2,2.3-4.6,3.1-7.2c0.1-0.3,0.2-0.4,0.4-0.4c0.1,0,0.2,0,0.3,0l4,0.7
			c0.3,0,0.4,0.2,0.5,0.4c0,0.1,0,0.2,0,0.2c-0.8,2.8-1.9,5.4-3.3,7.9V279c0,0.4-0.2,0.5-0.5,0.5h-3.8
			C507.6,279.5,507.4,279.4,507.4,279z M516.6,275.4l-3.5-1.7c-0.2-0.1-0.3-0.3-0.3-0.4c0-0.1,0-0.2,0.1-0.3c2-3.2,3.4-6.8,4-10.7
			c0.1-0.3,0.2-0.4,0.3-0.5c0.1,0,0.2,0,0.3,0l3.5,0.8c0.2,0,0.3,0.1,0.4,0.3v0.3c-0.3,2-0.8,4.1-1.5,6.3c-0.7,2.1-1.5,4.1-2.5,5.8
			c-0.1,0.2-0.2,0.3-0.3,0.3C516.9,275.5,516.7,275.5,516.6,275.4z M534.6,261.4l-3.5-1.3c-0.2-0.1-0.3-0.2-0.3-0.3
			c0-0.2,0-0.3,0-0.3c0.9-2.2,1.4-4.2,1.5-6.1h-10.6c-0.5,1.4-1.1,2.7-1.7,3.9c-0.6,1.1-1.4,2.3-2.4,3.5c-0.1,0.2-0.3,0.3-0.4,0.3
			c-0.1,0-0.2-0.1-0.3-0.2l-3.1-3c-0.1-0.1-0.2-0.3-0.2-0.4s0.1-0.2,0.2-0.3c1.6-1.9,2.7-3.8,3.5-5.6s1.2-3.8,1.5-6
			c0-0.2,0.1-0.4,0.3-0.5h0.2l4,0.4c0.3,0.1,0.4,0.2,0.5,0.4v0.3c-0.2,0.9-0.4,1.8-0.6,2.8h13.6c0.4,0,0.5,0.2,0.5,0.7
			c-0.1,4.3-0.7,8.1-1.9,11.5c-0.1,0.3-0.2,0.4-0.5,0.4C534.8,261.4,534.7,261.4,534.6,261.4z M520.2,279.3c-0.1,0-0.2-0.1-0.3-0.3
			l-1.5-3.7c0,0,0-0.1,0-0.2c0-0.2,0.1-0.4,0.3-0.4h0.2c0.4,0,0.8,0,1.4,0c0.9,0,1.6-0.1,2-0.2c0.4-0.1,0.7-0.3,0.8-0.6
			c0.1-0.3,0.2-0.7,0.2-1.2v-16.1c0-0.4,0.2-0.5,0.5-0.5h3.6c0.4,0,0.5,0.2,0.5,0.5v17.5c0,1.9-0.6,3.3-1.8,4.1s-3.1,1.1-5.6,1.1
			C520.5,279.4,520.4,279.4,520.2,279.3z M533.9,275.4c-0.8-1.4-1.6-3.2-2.3-5.4c-0.7-2.2-1.4-4.3-1.9-6.4l0-0.2
			c0-0.2,0.1-0.4,0.4-0.5l3.2-0.9c0.1,0,0.1,0,0.2,0c0.2,0,0.3,0.1,0.4,0.4c0.5,1.8,1.1,3.7,1.8,5.6s1.5,3.6,2.4,5
			c0.1,0.1,0.1,0.2,0.1,0.3c0,0.2-0.1,0.3-0.3,0.4l-3.3,1.8c-0.1,0.1-0.2,0.1-0.3,0.1C534.2,275.7,534,275.6,533.9,275.4z"/>
		<path class="st1" d="M559.8,277.9h-12.6c-0.4,0-0.5-0.2-0.5-0.5v-27c0-0.4,0.2-0.5,0.5-0.5h2.7c0.7-1.6,1.3-3.1,1.6-4.5
			c0.1-0.3,0.2-0.4,0.5-0.4h0.1l3.7,0.4c0.4,0.1,0.5,0.3,0.4,0.6c-0.5,1.5-1,2.8-1.5,3.9h5.1c0.4,0,0.5,0.2,0.5,0.5v4.3
			c0.9-1.3,1.7-2.7,2.3-4.3c0.7-1.6,1.2-3.3,1.6-5c0.1-0.3,0.2-0.4,0.5-0.4h0.2l3.5,0.4c0.2,0,0.3,0.1,0.4,0.2
			c0.1,0.1,0.1,0.2,0.1,0.4c-0.2,1-0.6,2.1-1,3.3h10.2c0.3,0,0.5,0.2,0.5,0.5c0,0.3,0,2.8,0,7.6c0,5.4-0.1,9.4-0.3,11.9
			c-0.2,2.5-0.7,4.4-1.4,5.9c-0.7,1.5-1.8,2.5-3.2,3.2c-1.4,0.7-3.4,1-5.8,1c-0.3,0-0.5,0-0.8,0c-0.3-0.1-0.4-0.2-0.5-0.4l-1.4-3.8
			c0-0.1,0-0.1,0-0.2c0-0.2,0.2-0.3,0.5-0.3c2,0.1,3.5-0.1,4.6-0.4c1.1-0.3,1.9-0.9,2.4-1.8c0.5-0.8,0.8-2,0.9-3.5
			c0.2-2.6,0.3-5.6,0.3-9c0-1.8,0-3.9-0.1-6h-7.7c-0.8,1.8-1.8,3.3-2.8,4.5c-0.1,0.2-0.2,0.2-0.4,0.2c-0.1,0-0.2,0-0.3-0.1l-2.3-1.3
			v20.3C560.3,277.7,560.1,277.9,559.8,277.9z M551,254.1v7.3h4.9v-7.3H551z M551,265.8v7.7h4.9v-7.7H551z M562.8,261
			c-0.1-0.2-0.2-0.3-0.2-0.4c0-0.2,0.1-0.3,0.3-0.4l3.1-1.5c0.1-0.1,0.2-0.1,0.3-0.1c0.2,0,0.3,0.1,0.4,0.2c0.9,1.1,1.7,2.4,2.4,3.7
			s1.4,2.8,1.9,4.1c0,0.1,0,0.1,0,0.2c0,0.2-0.1,0.4-0.3,0.5l-3.3,1.6l-0.3,0.1c-0.2,0-0.3-0.1-0.4-0.3
			C565.8,265.8,564.5,263.2,562.8,261z"/>
		<path class="st1" d="M603,251.1h-3.5v1.4c0,0.4-0.2,0.5-0.5,0.5h-3.5c-0.4,0-0.5-0.2-0.5-0.5v-1.4h-6.9c-0.4,0-0.5-0.2-0.5-0.5v-3
			c0-0.4,0.2-0.5,0.5-0.5h6.9v-1.6c0-0.4,0.2-0.5,0.5-0.5h3.5c0.4,0,0.5,0.2,0.5,0.5v1.6h3.5c0.4,0,0.5,0.2,0.5,0.5v3
			C603.6,250.9,603.4,251.1,603,251.1z M589.8,259.4l0.2,0c1,0.3,2.1,0.7,3.2,1.2c1.1,0.5,2.1,1,3,1.6c0.2,0.1,0.3,0.2,0.3,0.4
			l-0.1,0.3l-1.6,2.8c-0.1,0.2-0.3,0.3-0.4,0.3c-0.1,0-0.2,0-0.3-0.1c-1.8-1.2-3.8-2.2-5.9-2.8c-0.3-0.1-0.4-0.2-0.4-0.4l0.1-0.3
			l1.5-2.7C589.5,259.5,589.6,259.4,589.8,259.4z M592.6,267.2c0.1-0.4,0.4-0.4,0.7-0.3l3.1,1.6c0.3,0.2,0.4,0.4,0.3,0.7
			c-1.3,3.8-2.8,7-4.4,9.5c-0.1,0.2-0.2,0.3-0.4,0.3l-0.3-0.1l-3.3-1.8c-0.2-0.1-0.3-0.3-0.3-0.4c0-0.1,0-0.2,0.1-0.3
			C589.7,274.1,591.2,271.1,592.6,267.2z M591.3,252.8c0.1,0,0.2,0,0.2,0c2.1,0.6,4.1,1.6,6,2.8c0.2,0.2,0.2,0.3,0.2,0.4
			c0,0.1,0,0.2-0.1,0.3l-1.7,2.7c-0.1,0.2-0.2,0.3-0.4,0.3c-0.1,0-0.2,0-0.3-0.1c-1.7-1.2-3.6-2.2-5.8-3c-0.3-0.1-0.4-0.2-0.4-0.4
			c0-0.1,0-0.2,0.1-0.3l1.6-2.5C590.9,252.9,591.1,252.8,591.3,252.8z M596.5,265.5c0-0.3,0.2-0.4,0.5-0.4c2.5-0.2,5.1-0.7,7.8-1.7
			c-1.1-0.8-2-1.6-2.8-2.4c-0.7,0.6-1.5,1.2-2.4,1.7c-0.1,0.1-0.2,0.1-0.3,0.1c-0.2,0-0.3-0.1-0.4-0.2l-2-2.5
			c-0.1-0.1-0.2-0.2-0.2-0.3c0-0.2,0.1-0.3,0.3-0.4c1.5-0.8,2.8-1.8,3.9-3c1.1-1.1,2-2.3,2.5-3.4c0.1-0.2,0.3-0.3,0.5-0.3h0.2
			l3.6,0.4c0.2,0,0.3,0.1,0.4,0.2c0.1,0.1,0.1,0.3,0,0.4l-0.5,0.8h10.1c0.4,0,0.5,0.2,0.5,0.5v2.7c0,0.2-0.1,0.4-0.2,0.6
			c-1.2,1.9-2.8,3.5-4.6,5c2.4,0.8,5,1.4,7.9,1.7c0.3,0.1,0.5,0.2,0.5,0.4c0,0.1,0,0.1-0.1,0.2l-1.3,3.2c-0.1,0.3-0.3,0.4-0.6,0.4
			c-0.6-0.1-1.1-0.2-1.6-0.3v9.5c0,0.4-0.2,0.5-0.5,0.5h-17.4c-0.4,0-0.5-0.2-0.5-0.5V269c-0.5,0.1-0.9,0.2-1.4,0.2h-0.1
			c-0.2,0-0.3,0-0.3-0.1s-0.1-0.1-0.2-0.3l-1.3-3.1C596.5,265.6,596.5,265.6,596.5,265.5z M609.1,266c-2,1-4.4,1.9-7.2,2.6h14.3
			C613.7,267.9,611.3,267,609.1,266z M613.8,272h-9.5v3.5h9.5V272z M609.1,261.3c1.6-1,2.8-2,3.8-3.3H605v0
			C606.1,259.4,607.4,260.4,609.1,261.3z M605.5,247.1h3.5v-1.6c0-0.4,0.2-0.5,0.5-0.5h3.5c0.4,0,0.5,0.2,0.5,0.5v1.6h6.9
			c0.4,0,0.5,0.2,0.5,0.5v3c0,0.4-0.2,0.5-0.5,0.5h-6.9v1.3c0,0.4-0.2,0.5-0.5,0.5h-3.5c-0.4,0-0.5-0.2-0.5-0.5v-1.3h-3.5
			c-0.4,0-0.5-0.2-0.5-0.5v-3C605,247.2,605.2,247.1,605.5,247.1z"/>
		<path class="st1" d="M628.3,278.2l0-0.2c0.4-0.8,0.7-1.8,0.9-3c0.3-1.2,0.4-2.3,0.5-3.4c0.1-0.4,0.3-0.5,0.6-0.5l2.6,0.4
			c0.4,0.1,0.5,0.2,0.5,0.6c-0.1,1.2-0.2,2.4-0.5,3.6s-0.5,2.4-0.9,3.3c-0.1,0.3-0.2,0.4-0.5,0.4c-0.1,0-0.3-0.1-0.4-0.1l-2.7-0.7
			C628.4,278.6,628.3,278.4,628.3,278.2z M629.4,266.4h6.5v-1.7h-5.5c-0.4,0-0.5-0.2-0.5-0.5v-2.5c0-0.4,0.2-0.5,0.5-0.5h5.5v-1.7
			h-6c-0.4,0-0.5-0.2-0.5-0.5v-12.7c0-0.4,0.2-0.5,0.5-0.5h15.7c0.4,0,0.5,0.2,0.5,0.5V259c0,0.4-0.2,0.5-0.5,0.5h-5.9v1.7h5.5
			c0.4,0,0.5,0.2,0.5,0.5v2.5c0,0.4-0.2,0.5-0.5,0.5h-5.5v1.7h6.2c0.4,0,0.5,0.2,0.5,0.5v2.5c0,0.4-0.2,0.5-0.5,0.5h-16.4
			c-0.4,0-0.5-0.2-0.5-0.5v-2.5C628.9,266.6,629.1,266.4,629.4,266.4z M636.2,249.2h-3.3v6.9h3.3V249.2z M633,251.1
			c0-0.2,0.1-0.3,0.4-0.4l1-0.3l0.2,0h0.1c0.2,0,0.3,0.1,0.4,0.4c0.4,1,0.7,2.2,0.9,3.5l0,0.1c0,0.3-0.1,0.5-0.4,0.5l-1.1,0.3
			c-0.1,0.1-0.2,0.1-0.2,0.1c-0.2,0-0.4-0.2-0.4-0.5c-0.1-1.1-0.4-2.3-0.8-3.5C633,251.3,633,251.2,633,251.1z M634.7,278.8
			c-0.1-0.1-0.1-0.2-0.1-0.4c0.1-0.5,0.1-1.1,0.1-2c0-1.4-0.1-2.7-0.2-4c0-0.3,0.2-0.5,0.5-0.6l2.1-0.2h0.1c0.3,0,0.5,0.2,0.5,0.5
			c0.3,1.8,0.5,3.8,0.5,6c0,0.3-0.2,0.5-0.5,0.6l-2.6,0.3H635C634.9,279,634.7,278.9,634.7,278.8z M639.5,277.8
			c-0.2-2.3-0.4-4.1-0.8-5.4l0-0.2c0-0.2,0.1-0.3,0.4-0.4l1.9-0.4h0.2c0.3,0,0.4,0.1,0.5,0.4c0.3,0.9,0.5,1.9,0.8,3
			c0.2,1.2,0.4,1.9,0.4,2.3v0.1c0,0.3-0.1,0.4-0.4,0.5l-2.3,0.6h-0.2C639.7,278.2,639.5,278.1,639.5,277.8z M642.8,249.2h-3.3v6.9
			h3.3V249.2z M640.4,250.8c0-0.4,0.2-0.5,0.6-0.4l1.2,0.3c0.3,0.1,0.5,0.3,0.4,0.6c-0.2,1.4-0.5,2.6-1,3.7
			c-0.1,0.2-0.1,0.3-0.3,0.3c-0.1,0.1-0.3,0.1-0.4,0l-1-0.4c-0.3-0.1-0.4-0.3-0.3-0.7C640,253.3,640.2,252.2,640.4,250.8z
			 M643.9,276.6c-0.3-1.8-0.7-3.4-1.2-4.6c0-0.1-0.1-0.2-0.1-0.3c0-0.2,0.1-0.3,0.4-0.4l1.7-0.5l0.2,0h0.1c0.2,0,0.3,0.1,0.4,0.3
			c0.7,1.5,1.2,3,1.5,4.5l0,0.2c0,0.1,0,0.2-0.1,0.2c-0.1,0.1-0.2,0.1-0.3,0.2l-2,0.8c-0.1,0-0.1,0-0.2,0
			C644.1,277,644,276.9,643.9,276.6z M647.6,278.3v-16.2c0-0.4,0.2-0.5,0.5-0.5h4v-16.2c0-0.4,0.2-0.5,0.5-0.5h3.5
			c0.4,0,0.5,0.2,0.5,0.5v5.7h6.2c0.4,0,0.5,0.2,0.5,0.5v3.5c0,0.4-0.2,0.5-0.5,0.5h-6.2v5.9h5.1c0.4,0,0.5,0.2,0.5,0.5v16.2
			c0,0.4-0.2,0.5-0.5,0.5h-13.7C647.8,278.8,647.6,278.7,647.6,278.3z M657.9,265.9h-6v8.7h6V265.9z"/>
	</g>
</g>
<g>
	<g>
		<path d="M518.6,102.8V75.5l-5.9,2.2c-0.1,0-0.2,0-0.3,0c-0.3,0-0.5-0.2-0.6-0.5l-1.2-2.8c0-0.2-0.1-0.3-0.1-0.5
			c0-0.3,0.1-0.5,0.3-0.7l9.7-9.9c0.3-0.3,0.6-0.4,0.9-0.4h5.2c0.2,0,0.4,0.1,0.6,0.2c0.1,0.2,0.2,0.4,0.2,0.6v38.9
			c0,0.3-0.1,0.5-0.2,0.6c-0.1,0.2-0.3,0.2-0.6,0.2h-7.3C518.9,103.7,518.6,103.4,518.6,102.8z"/>
		<path d="M536.1,103.4c-0.1-0.2-0.1-0.4,0-0.7l10.4-29.9h-13.6c-0.2,0-0.4-0.1-0.6-0.2c-0.1-0.1-0.2-0.3-0.2-0.6v-8
			c0-0.3,0.1-0.5,0.2-0.6c0.1-0.2,0.3-0.2,0.6-0.2h23.9c0.2,0,0.4,0.1,0.6,0.2c0.1,0.2,0.2,0.4,0.2,0.6v2.7c0,0.3,0,0.7-0.1,1
			L545.5,103c-0.1,0.2-0.2,0.4-0.3,0.5c-0.2,0.1-0.3,0.2-0.5,0.2h-8C536.4,103.7,536.2,103.6,536.1,103.4z"/>
		<path d="M553.3,113c-0.1-0.2-0.1-0.4,0-0.7l2.5-8.6c-0.8-0.5-1.5-1.1-2-2c-0.5-0.9-0.7-1.9-0.7-3c0-1.6,0.5-2.9,1.4-4
			c0.9-1,2.1-1.6,3.5-1.6c1.4,0,2.6,0.5,3.5,1.5c0.9,1,1.4,2.4,1.4,4c0,1.2-0.2,2.4-0.5,3.6c-0.3,1.2-1,3-2,5.6l-1.8,4.7
			c-0.1,0.4-0.4,0.7-0.8,0.7h-3.8C553.6,113.3,553.4,113.2,553.3,113z"/>
		<path d="M571,101.9c-2.1-1.7-3.7-4.1-4.8-7.3c-1.1-3.2-1.7-6.9-1.7-11.3s0.6-8.2,1.7-11.3c1.1-3.2,2.7-5.6,4.8-7.3
			c2.1-1.7,4.6-2.5,7.5-2.5c2.9,0,5.4,0.8,7.5,2.5c2.1,1.7,3.7,4.1,4.8,7.3c1.1,3.2,1.7,6.9,1.7,11.3s-0.6,8.2-1.7,11.3
			c-1.1,3.2-2.7,5.6-4.8,7.3s-4.6,2.5-7.5,2.5C575.6,104.5,573.1,103.6,571,101.9z M574.7,91.8c0.9,1.8,2.2,2.7,3.8,2.7
			c1.6,0,2.9-0.9,3.8-2.7c0.9-1.8,1.4-4.6,1.4-8.5c0-3.9-0.5-6.7-1.4-8.5s-2.2-2.7-3.8-2.7c-1.6,0-2.9,0.9-3.8,2.7
			c-0.9,1.8-1.4,4.6-1.4,8.5C573.3,87.2,573.8,90,574.7,91.8z"/>
		<path d="M602.3,101.9c-2.1-1.7-3.7-4.1-4.8-7.3c-1.1-3.2-1.7-6.9-1.7-11.3s0.6-8.2,1.7-11.3c1.1-3.2,2.7-5.6,4.8-7.3
			c2.1-1.7,4.6-2.5,7.5-2.5c2.9,0,5.4,0.8,7.5,2.5c2.1,1.7,3.7,4.1,4.8,7.3c1.1,3.2,1.7,6.9,1.7,11.3s-0.6,8.2-1.7,11.3
			c-1.1,3.2-2.7,5.6-4.8,7.3s-4.6,2.5-7.5,2.5C606.9,104.5,604.4,103.6,602.3,101.9z M606,91.8c0.9,1.8,2.2,2.7,3.8,2.7
			c1.6,0,2.9-0.9,3.8-2.7c0.9-1.8,1.4-4.6,1.4-8.5c0-3.9-0.5-6.7-1.4-8.5s-2.2-2.7-3.8-2.7c-1.6,0-2.9,0.9-3.8,2.7
			c-0.9,1.8-1.4,4.6-1.4,8.5C604.6,87.2,605.1,90,606,91.8z"/>
		<path d="M633.6,101.9c-2.1-1.7-3.7-4.1-4.8-7.3c-1.1-3.2-1.7-6.9-1.7-11.3s0.6-8.2,1.7-11.3c1.1-3.2,2.7-5.6,4.8-7.3
			c2.1-1.7,4.6-2.5,7.5-2.5c2.9,0,5.4,0.8,7.5,2.5c2.1,1.7,3.7,4.1,4.8,7.3c1.1,3.2,1.7,6.9,1.7,11.3s-0.6,8.2-1.7,11.3
			c-1.1,3.2-2.7,5.6-4.8,7.3s-4.6,2.5-7.5,2.5C638.2,104.5,635.7,103.6,633.6,101.9z M637.3,91.8c0.9,1.8,2.2,2.7,3.8,2.7
			c1.6,0,2.9-0.9,3.8-2.7c0.9-1.8,1.4-4.6,1.4-8.5c0-3.9-0.5-6.7-1.4-8.5s-2.2-2.7-3.8-2.7c-1.6,0-2.9,0.9-3.8,2.7
			c-0.9,1.8-1.4,4.6-1.4,8.5C635.9,87.2,636.4,90,637.3,91.8z"/>
		<path d="M562.3,153.4l0-0.3c0.5-1,0.8-2.1,1.1-3.5c0.3-1.4,0.5-2.7,0.6-4c0.1-0.4,0.3-0.6,0.7-0.5l3.1,0.5
			c0.4,0.1,0.6,0.3,0.6,0.7c-0.1,1.4-0.3,2.8-0.5,4.3c-0.3,1.5-0.6,2.8-1,4c-0.1,0.3-0.3,0.5-0.5,0.5c-0.2,0-0.3-0.1-0.5-0.1
			l-3.2-0.9C562.4,153.8,562.3,153.6,562.3,153.4z M563.6,139.3h7.7v-2h-6.5c-0.4,0-0.6-0.2-0.6-0.6v-2.9c0-0.4,0.2-0.6,0.6-0.6h6.5
			v-2h-7.1c-0.4,0-0.6-0.2-0.6-0.6v-15.1c0-0.4,0.2-0.6,0.6-0.6h18.6c0.4,0,0.6,0.2,0.6,0.6v15.1c0,0.4-0.2,0.6-0.6,0.6h-7v2h6.5
			c0.4,0,0.6,0.2,0.6,0.6v2.9c0,0.4-0.2,0.6-0.6,0.6h-6.5v2h7.4c0.4,0,0.6,0.2,0.6,0.6v3c0,0.4-0.2,0.6-0.6,0.6h-19.5
			c-0.4,0-0.6-0.2-0.6-0.6v-3C563,139.5,563.2,139.3,563.6,139.3z M571.7,118.9h-4v8.3h4V118.9z M567.9,121.2c0-0.2,0.2-0.4,0.5-0.5
			l1.2-0.4l0.2,0h0.1c0.2,0,0.3,0.2,0.5,0.5c0.5,1.2,0.8,2.6,1.1,4.2l0,0.1c0,0.3-0.2,0.5-0.5,0.6l-1.3,0.4
			c-0.1,0.1-0.2,0.1-0.3,0.1c-0.3,0-0.4-0.2-0.5-0.5c-0.1-1.4-0.5-2.7-1-4.1C567.9,121.4,567.9,121.3,567.9,121.2z M569.8,154.1
			c-0.1-0.1-0.1-0.3-0.1-0.5c0.1-0.5,0.1-1.4,0.1-2.4c0-1.7-0.1-3.2-0.2-4.8c0-0.4,0.2-0.6,0.6-0.7l2.5-0.2h0.1
			c0.4,0,0.6,0.2,0.6,0.5c0.4,2.2,0.6,4.5,0.6,7.1c0,0.4-0.2,0.6-0.6,0.7l-3.1,0.4h-0.1C570.1,154.3,569.9,154.2,569.8,154.1z
			 M575.6,152.9c-0.2-2.7-0.5-4.8-0.9-6.5l0-0.3c0-0.2,0.2-0.4,0.5-0.5l2.3-0.5h0.2c0.3,0,0.5,0.2,0.6,0.5c0.3,1,0.6,2.2,0.9,3.6
			c0.3,1.4,0.4,2.3,0.4,2.7v0.1c0,0.3-0.2,0.5-0.5,0.6l-2.8,0.7h-0.2C575.8,153.4,575.7,153.2,575.6,152.9z M579.5,118.9h-4v8.3h4
			V118.9z M576.7,120.8c0-0.4,0.3-0.6,0.7-0.5l1.4,0.4c0.4,0.1,0.6,0.3,0.5,0.7c-0.2,1.7-0.6,3.1-1.2,4.4c-0.1,0.2-0.2,0.3-0.3,0.4
			c-0.2,0.1-0.3,0.1-0.5,0l-1.2-0.5c-0.4-0.1-0.5-0.4-0.4-0.8C576.2,123.8,576.5,122.4,576.7,120.8z M580.9,151.5
			c-0.3-2.2-0.8-4-1.4-5.5c0-0.1-0.1-0.2-0.1-0.3c0-0.2,0.2-0.4,0.5-0.5l2-0.6l0.2,0h0.1c0.2,0,0.4,0.1,0.5,0.4
			c0.8,1.7,1.4,3.5,1.8,5.3l0,0.3c0,0.1,0,0.2-0.1,0.3c-0.1,0.1-0.2,0.1-0.4,0.2l-2.3,0.9c-0.1,0-0.2,0-0.3,0
			C581.1,152,580.9,151.8,580.9,151.5z M585.2,153.5v-19.2c0-0.4,0.2-0.6,0.6-0.6h4.8v-19.2c0-0.4,0.2-0.6,0.6-0.6h4.2
			c0.4,0,0.6,0.2,0.6,0.6v6.8h7.4c0.4,0,0.6,0.2,0.6,0.6v4.2c0,0.4-0.2,0.6-0.6,0.6h-7.4v7h6.1c0.4,0,0.6,0.2,0.6,0.6v19.2
			c0,0.4-0.2,0.6-0.6,0.6h-16.3C585.4,154.1,585.2,153.9,585.2,153.5z M597.5,138.7h-7.1V149h7.1V138.7z"/>
	</g>
</g>
</svg>
