<!-- Generator: Adobe Illustrator 25.0.0, SVG Export Plug-In  -->
<svg version="1.1" xmlns="http://www.w3.org/2000/svg" xmlns:xlink="http://www.w3.org/1999/xlink" x="0px" y="0px" width="720.9px"
	 height="278.9px" viewBox="0 0 720.9 278.9" style="overflow:visible;enable-background:new 0 0 720.9 278.9;"
	 xml:space="preserve">
<style type="text/css">
	.st0{fill:none;stroke:#D7A685;stroke-width:6;stroke-linecap:round;stroke-linejoin:round;stroke-miterlimit:10;}
	.st1{fill:#FFFFFF;}
	.st2{fill:none;stroke:#595757;stroke-width:6;stroke-linecap:round;stroke-miterlimit:10;}
	.st3{fill:#595757;}
	.st4{fill:none;stroke:#DF032E;stroke-width:6;stroke-linecap:round;stroke-miterlimit:10;}
	.st5{fill:#DF032E;}
	.st6{fill:#D7A685;}
</style>
<defs>
</defs>
<path class="st0" d="M639.2,60.1c25.1,0,45.4,20.3,45.4,45.4"/>
<polygon class="st1" points="450.6,228.9 464.6,204.6 478.6,228.9 "/>
<path class="st2" d="M229.6,105.5c-8.9,0-14.7-4.5-16.3-11c-4.9-19.8-22.8-34.4-44.1-34.4"/>
<path class="st3" d="M137.7,105.5c0,17.4,14.1,31.6,31.6,31.6s31.6-14.1,31.6-31.6c0-17.4-14.1-31.6-31.6-31.6
	S137.7,88.1,137.7,105.5"/>
<path class="st2" d="M108.8,105.5c-8.9,0-14.7-4.5-16.3-11c-4.9-19.8-22.8-34.4-44.1-34.4"/>
<path class="st2" d="M48.4,60.1C23.3,60.1,3,80.4,3,105.5"/>
<path class="st3" d="M16.9,105.5c0,17.4,14.1,31.6,31.6,31.6S80,123,80,105.5C80,88.1,65.9,74,48.4,74S16.9,88.1,16.9,105.5"/>
<path class="st2" d="M290.1,60.1L290.1,60.1c-21.3,0-39.2,14.7-44.1,34.4c-1.6,6.5-7.4,11-16.3,11"/>
<path class="st2" d="M169.2,60.1L169.2,60.1c-21.3,0-39.2,14.7-44.1,34.4c-1.6,6.5-7.4,11-16.3,11"/>
<path class="st0" d="M580.9,105.5L580.9,105.5c6.7,0,12.6-4.5,14.2-11c4.9-19.8,22.8-34.4,44.1-34.4"/>
<path class="st4" d="M464.6,3c52.3,0,95.4,39.1,101.7,89.7c0.9,7.3,7.1,12.8,14.5,12.8"/>
<path class="st4" d="M464.6,3c-52.3,0-95.4,39.1-101.7,89.7c-0.9,7.3-7.1,12.8-14.5,12.8"/>
<path class="st5" d="M550,105.5c0,47.2-38.3,85.4-85.4,85.4s-85.4-38.3-85.4-85.4c0-47.2,38.3-85.4,85.4-85.4S550,58.3,550,105.5"/>
<path class="st6" d="M670.7,105.5c0,17.4-14.1,31.6-31.6,31.6s-31.6-14.1-31.6-31.6c0-17.4,14.1-31.6,31.6-31.6
	S670.7,88.1,670.7,105.5"/>
<path class="st2" d="M348.3,105.5L348.3,105.5c-6.7,0-12.6-4.5-14.2-11c-4.9-19.8-22.8-34.4-44.1-34.4"/>
<path class="st3" d="M258.5,105.5c0,17.4,14.1,31.6,31.6,31.6s31.6-14.1,31.6-31.6c0-17.4-14.1-31.6-31.6-31.6
	S258.5,88.1,258.5,105.5"/>
<g>
	<path d="M417.6,103.5c-0.2-0.1-0.2-0.2-0.2-0.4c0-0.1,0.1-0.3,0.2-0.5l9-12.7c-1,0.2-2,0.4-2.8,0.4c-2.4,0-4.6-0.6-6.6-1.8
		c-2-1.2-3.5-2.8-4.6-4.9s-1.6-4.4-1.6-7.1c0-2.8,0.7-5.3,2-7.5s3.2-3.9,5.5-5.1c2.4-1.2,5.1-1.8,8.1-1.8s5.7,0.6,8.1,1.9
		c2.4,1.3,4.2,3,5.6,5.3c1.3,2.2,2,4.7,2,7.5c0,2.5-0.6,5.1-1.7,7.8c-1.2,2.7-3.2,6.1-6,10.2l-5.8,8.2c-0.2,0.4-0.6,0.6-1.1,0.6
		h-9.5C417.9,103.7,417.7,103.6,417.6,103.5z M422.7,81.1c1,1.1,2.4,1.6,4,1.6s2.9-0.5,4-1.6c1.1-1,1.6-2.4,1.6-4c0-1.7-0.5-3-1.6-4
		s-2.4-1.6-4-1.6s-2.9,0.5-4,1.6s-1.6,2.4-1.6,4S421.6,80,422.7,81.1z"/>
	<path d="M454.3,101.9c-2.5-1.7-4.4-4.1-5.7-7.3c-1.3-3.2-2-7-2-11.4s0.7-8.2,2-11.4c1.3-3.2,3.2-5.6,5.7-7.3
		c2.5-1.7,5.4-2.5,8.8-2.5s6.4,0.8,8.9,2.5c2.5,1.7,4.4,4.1,5.7,7.3c1.3,3.2,2,7,2,11.4s-0.7,8.2-2,11.4c-1.3,3.2-3.2,5.6-5.7,7.3
		c-2.5,1.7-5.4,2.5-8.9,2.5C459.7,104.5,456.8,103.6,454.3,101.9z M458.6,91.8c1.1,1.8,2.6,2.7,4.5,2.7s3.4-0.9,4.5-2.7
		c1.1-1.8,1.6-4.6,1.6-8.5s-0.5-6.7-1.6-8.5s-2.6-2.7-4.5-2.7s-3.4,0.9-4.5,2.7c-1.1,1.8-1.6,4.6-1.6,8.5
		C457,87.2,457.5,90,458.6,91.8z"/>
	<path d="M492.2,101.9c-2.5-1.7-4.4-4.1-5.7-7.3c-1.3-3.2-2-7-2-11.4s0.7-8.2,2-11.4c1.3-3.2,3.2-5.6,5.7-7.3
		c2.5-1.7,5.4-2.5,8.8-2.5s6.4,0.8,8.9,2.5c2.5,1.7,4.4,4.1,5.7,7.3c1.3,3.2,2,7,2,11.4s-0.7,8.2-2,11.4c-1.3,3.2-3.2,5.6-5.7,7.3
		c-2.5,1.7-5.4,2.5-8.9,2.5C497.6,104.5,494.6,103.6,492.2,101.9z M496.5,91.8c1.1,1.8,2.6,2.7,4.5,2.7s3.4-0.9,4.5-2.7
		c1.1-1.8,1.6-4.6,1.6-8.5s-0.5-6.7-1.6-8.5s-2.6-2.7-4.5-2.7s-3.4,0.9-4.5,2.7c-1.1,1.8-1.6,4.6-1.6,8.5
		C494.9,87.2,495.4,90,496.5,91.8z"/>
</g>
<g>
	<path d="M443.4,153.4v-0.3c0.5-1,0.8-2.1,1.1-3.5c0.3-1.4,0.5-2.7,0.6-4c0.1-0.4,0.3-0.6,0.7-0.5l3.1,0.5c0.4,0.1,0.6,0.3,0.6,0.7
		c-0.1,1.4-0.3,2.8-0.5,4.3c-0.3,1.5-0.6,2.8-1,4c-0.1,0.3-0.3,0.5-0.5,0.5s-0.3-0.1-0.5-0.1l-3.2-0.9
		C443.6,153.8,443.4,153.6,443.4,153.4z M444.8,139.3h7.7v-2H446c-0.4,0-0.6-0.2-0.6-0.6v-2.9c0-0.4,0.2-0.6,0.6-0.6h6.5v-2h-7.1
		c-0.4,0-0.6-0.2-0.6-0.6v-15.1c0-0.4,0.2-0.6,0.6-0.6H464c0.4,0,0.6,0.2,0.6,0.6v15.1c0,0.4-0.2,0.6-0.6,0.6h-7v2h6.5
		c0.4,0,0.6,0.2,0.6,0.6v2.9c0,0.4-0.2,0.6-0.6,0.6H457v2h7.4c0.4,0,0.6,0.2,0.6,0.6v3c0,0.4-0.2,0.6-0.6,0.6h-19.5
		c-0.4,0-0.6-0.2-0.6-0.6v-3C444.2,139.5,444.4,139.3,444.8,139.3z M452.8,118.9h-4v8.3h4V118.9z M449,121.2c0-0.2,0.2-0.4,0.5-0.5
		l1.2-0.4h0.2h0.1c0.2,0,0.3,0.2,0.5,0.5c0.5,1.2,0.8,2.6,1.1,4.2v0.1c0,0.3-0.2,0.5-0.5,0.6l-1.3,0.4c-0.1,0.1-0.2,0.1-0.3,0.1
		c-0.3,0-0.4-0.2-0.5-0.5c-0.1-1.4-0.5-2.7-1-4.1C449.1,121.4,449.1,121.3,449,121.2z M451,154.1c-0.1-0.1-0.1-0.3-0.1-0.5
		c0.1-0.5,0.1-1.4,0.1-2.4c0-1.7-0.1-3.2-0.2-4.8c0-0.4,0.2-0.6,0.6-0.7l2.5-0.2h0.1c0.4,0,0.6,0.2,0.6,0.5c0.4,2.2,0.6,4.5,0.6,7.1
		c0,0.4-0.2,0.6-0.6,0.7l-3.1,0.4h-0.1C451.2,154.3,451.1,154.2,451,154.1z M456.7,152.9c-0.2-2.7-0.5-4.8-0.9-6.5v-0.3
		c0-0.2,0.2-0.4,0.5-0.5l2.3-0.5h0.2c0.3,0,0.5,0.2,0.6,0.5c0.3,1,0.6,2.2,0.9,3.6c0.3,1.4,0.4,2.3,0.4,2.7v0.1
		c0,0.3-0.2,0.5-0.5,0.6l-2.8,0.7h-0.2C457,153.4,456.8,153.2,456.7,152.9z M460.6,118.9h-4v8.3h4V118.9z M457.8,120.8
		c0-0.4,0.3-0.6,0.7-0.5l1.4,0.4c0.4,0.1,0.6,0.3,0.5,0.7c-0.2,1.7-0.6,3.1-1.2,4.4c-0.1,0.2-0.2,0.3-0.3,0.4
		c-0.2,0.1-0.3,0.1-0.5,0l-1.2-0.5c-0.4-0.1-0.5-0.4-0.4-0.8C457.3,123.8,457.6,122.4,457.8,120.8z M462,151.5
		c-0.3-2.2-0.8-4-1.4-5.5c0-0.1-0.1-0.2-0.1-0.3c0-0.2,0.2-0.4,0.5-0.5l2-0.6h0.2h0.1c0.2,0,0.4,0.1,0.5,0.4
		c0.8,1.7,1.4,3.5,1.8,5.3v0.3c0,0.1,0,0.2-0.1,0.3s-0.2,0.1-0.4,0.2l-2.3,0.9c-0.1,0-0.2,0-0.3,0C462.3,152,462.1,151.8,462,151.5z
		 M466.4,153.5v-19.2c0-0.4,0.2-0.6,0.6-0.6h4.8v-19.2c0-0.4,0.2-0.6,0.6-0.6h4.2c0.4,0,0.6,0.2,0.6,0.6v6.8h7.4
		c0.4,0,0.6,0.2,0.6,0.6v4.2c0,0.4-0.2,0.6-0.6,0.6h-7.4v7h6.1c0.4,0,0.6,0.2,0.6,0.6v19.2c0,0.4-0.2,0.6-0.6,0.6H467
		C466.6,154.1,466.4,153.9,466.4,153.5z M478.7,138.7h-7.1V149h7.1V138.7z"/>
</g>
<g>
	<path class="st6" d="M563.7,228.8v-23.2l-5.2,2.3c-0.1,0-0.2,0.1-0.2,0.1c-0.1,0-0.3-0.1-0.4-0.4l-0.7-1.5c0-0.1-0.1-0.2-0.1-0.3
		c0-0.2,0.1-0.3,0.2-0.5l7.5-7.1c0.2-0.2,0.4-0.3,0.6-0.3h3c0.3,0,0.5,0.2,0.5,0.6v30.4c0,0.4-0.2,0.6-0.5,0.6h-4.2
		C563.9,229.4,563.7,229.2,563.7,228.8z"/>
	<path class="st6" d="M573.8,203.2c-0.1-0.1-0.1-0.2-0.1-0.4v-4.4c0-0.4,0.2-0.6,0.5-0.6h18.9c0.3,0,0.5,0.2,0.5,0.6v1.5
		c0,0.2,0,0.5-0.1,0.7L582.6,229c-0.1,0.3-0.3,0.4-0.6,0.4h-4.8c-0.2,0-0.3-0.1-0.4-0.2c-0.1-0.1-0.1-0.3,0-0.5l10-25.4h-12.6
		C574,203.4,573.9,203.3,573.8,203.2z"/>
	<path class="st6" d="M596.6,235.9l0.1-0.4l1.9-6.2c-0.5-0.3-0.8-0.7-1.1-1.2s-0.4-1.1-0.4-1.7c0-1,0.3-1.8,0.9-2.4
		c0.6-0.6,1.3-1,2.2-1s1.7,0.3,2.2,1c0.6,0.6,0.9,1.4,0.9,2.4c0,0.6-0.1,1.3-0.3,2s-0.7,2-1.4,3.6l-1.5,3.8
		c-0.1,0.3-0.3,0.4-0.6,0.4h-2.4C596.8,236.3,596.6,236.2,596.6,235.9z"/>
	<path class="st6" d="M612.3,228c-1.7-1.3-2.9-3.2-3.8-5.6c-0.9-2.5-1.3-5.4-1.3-8.7c0-3.4,0.4-6.3,1.3-8.8c0.9-2.5,2.1-4.3,3.8-5.6
		s3.6-1.9,5.9-1.9c2.3,0,4.2,0.6,5.9,1.9c1.6,1.3,2.9,3.2,3.8,5.6c0.9,2.5,1.3,5.4,1.3,8.8c0,3.4-0.4,6.3-1.3,8.7
		c-0.9,2.5-2.1,4.3-3.8,5.6s-3.6,1.9-5.9,1.9C615.9,230,614,229.3,612.3,228z M614.1,221.7c1,1.8,2.3,2.7,4.1,2.7s3.2-0.9,4.1-2.7
		c1-1.8,1.5-4.4,1.5-8s-0.5-6.2-1.5-8s-2.4-2.7-4.1-2.7c-1.8,0-3.2,0.9-4.1,2.7c-1,1.8-1.4,4.4-1.4,8
		C612.7,217.2,613.1,219.9,614.1,221.7z"/>
	<path class="st6" d="M638.2,228c-1.7-1.3-2.9-3.2-3.8-5.6c-0.9-2.5-1.3-5.4-1.3-8.7c0-3.4,0.4-6.3,1.3-8.8c0.9-2.5,2.1-4.3,3.8-5.6
		s3.6-1.9,5.9-1.9c2.3,0,4.2,0.6,5.9,1.9c1.6,1.3,2.9,3.2,3.8,5.6c0.9,2.5,1.3,5.4,1.3,8.8c0,3.4-0.4,6.3-1.3,8.7
		c-0.9,2.5-2.1,4.3-3.8,5.6s-3.6,1.9-5.9,1.9C641.8,230,639.8,229.3,638.2,228z M639.9,221.7c1,1.8,2.3,2.7,4.1,2.7s3.2-0.9,4.1-2.7
		c1-1.8,1.5-4.4,1.5-8s-0.5-6.2-1.5-8s-2.4-2.7-4.1-2.7c-1.8,0-3.2,0.9-4.1,2.7c-1,1.8-1.4,4.4-1.4,8
		C638.5,217.2,639,219.9,639.9,221.7z"/>
	<path class="st6" d="M664,228c-1.7-1.3-2.9-3.2-3.8-5.6c-0.9-2.5-1.3-5.4-1.3-8.7c0-3.4,0.4-6.3,1.3-8.8c0.9-2.5,2.1-4.3,3.8-5.6
		s3.6-1.9,5.9-1.9c2.3,0,4.2,0.6,5.9,1.9c1.6,1.3,2.9,3.2,3.8,5.6c0.9,2.5,1.3,5.4,1.3,8.8c0,3.4-0.4,6.3-1.3,8.7
		c-0.9,2.5-2.1,4.3-3.8,5.6s-3.6,1.9-5.9,1.9C667.6,230,665.6,229.3,664,228z M665.8,221.7c1,1.8,2.3,2.7,4.1,2.7s3.2-0.9,4.1-2.7
		c1-1.8,1.5-4.4,1.5-8s-0.5-6.2-1.5-8s-2.4-2.7-4.1-2.7c-1.8,0-3.2,0.9-4.1,2.7c-1,1.8-1.4,4.4-1.4,8
		C664.3,217.2,664.8,219.9,665.8,221.7z"/>
</g>
<g>
	<path class="st6" d="M684,229.5v-0.2c0.4-0.8,0.7-1.9,1-3.1s0.4-2.4,0.6-3.5c0.1-0.4,0.3-0.5,0.6-0.5l2.7,0.4
		c0.4,0.1,0.5,0.3,0.5,0.6c-0.1,1.2-0.2,2.5-0.5,3.8c-0.2,1.3-0.5,2.5-0.9,3.5c-0.1,0.3-0.2,0.4-0.5,0.4c-0.1,0-0.3-0.1-0.4-0.1
		l-2.8-0.8C684.1,229.9,684,229.7,684,229.5z M685.2,217.2h6.7v-1.7h-5.7c-0.4,0-0.6-0.2-0.6-0.6v-2.6c0-0.4,0.2-0.6,0.6-0.6h5.7
		V210h-6.2c-0.4,0-0.6-0.2-0.6-0.6v-13.2c0-0.4,0.2-0.6,0.6-0.6H702c0.4,0,0.6,0.2,0.6,0.6v13.2c0,0.4-0.2,0.6-0.6,0.6h-6.2v1.7h5.7
		c0.4,0,0.6,0.2,0.6,0.6v2.6c0,0.4-0.2,0.6-0.6,0.6h-5.7v1.7h6.5c0.4,0,0.6,0.2,0.6,0.6v2.7c0,0.4-0.2,0.6-0.6,0.6h-17.1
		c-0.4,0-0.6-0.2-0.6-0.6v-2.7C684.7,217.4,684.8,217.2,685.2,217.2z M692.3,199.3h-3.5v7.2h3.5V199.3z M688.9,201.3
		c0-0.2,0.1-0.4,0.4-0.4l1.1-0.4h0.2h0.1c0.2,0,0.3,0.1,0.4,0.4c0.4,1.1,0.7,2.3,1,3.7v0.1c0,0.3-0.1,0.5-0.4,0.6l-1.1,0.4
		c-0.1,0.1-0.2,0.1-0.2,0.1c-0.2,0-0.4-0.2-0.4-0.5c-0.1-1.2-0.4-2.4-0.9-3.6C689,201.5,689,201.4,688.9,201.3z M690.7,230.2
		c-0.1-0.1-0.1-0.2-0.1-0.4c0.1-0.5,0.1-1.2,0.1-2.1c0-1.5-0.1-2.8-0.2-4.2c0-0.3,0.2-0.5,0.5-0.6l2.2-0.2h0.1
		c0.3,0,0.5,0.2,0.6,0.5c0.3,1.9,0.5,4,0.5,6.3c0,0.3-0.2,0.5-0.5,0.6l-2.7,0.3H691C690.9,230.3,690.8,230.3,690.7,230.2z
		 M695.7,229.1c-0.2-2.3-0.5-4.2-0.8-5.7v-0.2c0-0.2,0.1-0.3,0.4-0.4l2-0.4h0.2c0.3,0,0.4,0.1,0.5,0.4c0.3,0.9,0.6,1.9,0.8,3.1
		c0.2,1.2,0.4,2,0.4,2.4v0.1c0,0.3-0.1,0.4-0.4,0.5l-2.4,0.6h-0.2C695.9,229.5,695.8,229.4,695.7,229.1z M699.1,199.3h-3.5v7.2h3.5
		V199.3z M696.7,200.9c0-0.4,0.2-0.5,0.6-0.4l1.2,0.3c0.3,0.1,0.5,0.3,0.4,0.6c-0.2,1.5-0.5,2.7-1.1,3.9c-0.1,0.2-0.1,0.3-0.3,0.3
		s-0.3,0.1-0.4,0l-1-0.4c-0.3-0.1-0.4-0.3-0.3-0.7C696.2,203.6,696.5,202.4,696.7,200.9z M700.3,227.8c-0.3-1.9-0.7-3.5-1.2-4.8
		c0-0.1-0.1-0.2-0.1-0.3c0-0.2,0.1-0.4,0.4-0.4l1.8-0.5h0.2h0.1c0.2,0,0.3,0.1,0.4,0.4c0.7,1.5,1.2,3.1,1.5,4.7v0.2
		c0,0.1,0,0.2-0.1,0.3s-0.2,0.1-0.3,0.2l-2.1,0.8c-0.1,0-0.1,0-0.2,0C700.5,228.3,700.4,228.1,700.3,227.8z M704.1,229.6v-16.9
		c0-0.4,0.2-0.6,0.6-0.6h4.2v-16.9c0-0.4,0.2-0.6,0.6-0.6h3.7c0.4,0,0.6,0.2,0.6,0.6v5.9h6.5c0.4,0,0.6,0.2,0.6,0.6v3.6
		c0,0.4-0.2,0.6-0.6,0.6h-6.5v6.2h5.3c0.4,0,0.6,0.2,0.6,0.6v16.9c0,0.4-0.2,0.6-0.6,0.6h-14.3C704.3,230.2,704.1,230,704.1,229.6z
		 M714.9,216.6h-6.3v9.1h6.3V216.6z"/>
</g>
<g>
	<path class="st6" d="M602.5,162.9l-2.3-1.9c-0.1-0.1-0.2-0.2-0.2-0.3s0.1-0.2,0.2-0.3c1-0.7,1.9-1.5,2.6-2.4s1.3-1.8,1.7-2.8
		c0.1-0.2,0.2-0.3,0.4-0.3h0.1l3.2,0.3c0.4,0,0.5,0.2,0.3,0.5l-0.5,1h6.3c0.3,0,0.4,0.1,0.4,0.4v2.1c1.1-1.2,1.9-2.5,2.4-4
		c0.1-0.2,0.2-0.3,0.4-0.3h0.1l3,0.2c0.2,0,0.3,0.1,0.3,0.1c0.1,0.1,0.1,0.2,0,0.3l-0.6,1.1h7.5c0.3,0,0.4,0.1,0.4,0.4v2.4
		c0,0.3-0.1,0.4-0.4,0.4h-3.6l0.9,1.4c0.1,0.1,0.1,0.2,0.1,0.3c0,0.2-0.1,0.3-0.3,0.3l-2.9,0.6h-0.1c-0.2,0-0.3-0.1-0.4-0.3
		c-0.3-0.8-0.7-1.5-1.1-2.2h-2c-0.7,1-1.3,1.8-1.9,2.3c-0.1,0.1-0.2,0.2-0.3,0.2s-0.2,0-0.3-0.1l-2.5-1.4c-0.1-0.1-0.2-0.2-0.2-0.3
		s0.1-0.2,0.2-0.3l0.5-0.4h-2.8c0.3,0.5,0.6,0.9,0.8,1.4c0,0.1,0,0.1,0.1,0.2c0,0.2-0.1,0.3-0.3,0.3l-2.9,0.5h-0.1
		c-0.2,0-0.3-0.1-0.4-0.3c-0.3-0.8-0.5-1.5-0.9-2.2H606c-0.9,1.2-1.9,2.2-2.9,2.9c-0.1,0.1-0.2,0.1-0.3,0.1
		C602.7,163,602.6,162.9,602.5,162.9z M612.9,183.3l0.1-5c-1.4,1.2-2.9,2.2-4.8,3.1s-3.8,1.5-5.8,1.9h-0.2c-0.2,0-0.3-0.1-0.4-0.3
		l-1.4-2.6c0-0.1,0-0.2-0.1-0.2c0-0.2,0.1-0.3,0.4-0.3c1.9-0.3,3.8-0.7,5.6-1.4c1.8-0.6,3.3-1.4,4.5-2.3H602c-0.3,0-0.4-0.2-0.4-0.5
		c0.5-2.2,0.9-4.5,1.2-7.1c0-0.3,0.2-0.4,0.4-0.4h9.7v-2h-10.6c-0.3,0-0.4-0.1-0.4-0.4v-2.3c0-0.3,0.1-0.4,0.4-0.4h24.2
		c0.3,0,0.4,0.1,0.4,0.4v7.2c0,0.3-0.1,0.4-0.4,0.4h-9.7v2h10.8c0.3,0,0.4,0.1,0.4,0.4c0,2,0,3.5-0.1,4.5c-0.1,1.4-0.6,2.5-1.5,3.1
		s-2.1,1-3.8,1.1c-0.5,0-1.2,0.1-2.3,0.1c-0.3,0-0.5-0.1-0.5-0.3l-1-2.5c0-0.1,0-0.2,0-0.2c0-0.2,0.1-0.3,0.4-0.3h1.2
		c1.4,0,2.3-0.1,2.8-0.3s0.8-0.6,0.8-1.2c0.1-0.5,0.1-1,0.1-1.4h-7.3v7.1c0,0.3-0.1,0.4-0.4,0.4h-3
		C613.1,183.7,612.9,183.6,612.9,183.3z M612.9,173.1v-2h-6.5c-0.1,1.2-0.2,1.9-0.3,2H612.9z M623.1,168.2v-2h-6.3v2H623.1z"/>
	<path class="st6" d="M637.2,182.1v-18.5l-4.6,1.8c-0.1,0-0.1,0-0.2,0.1c-0.1,0-0.3-0.1-0.4-0.3l-0.6-1.2c0-0.1-0.1-0.1-0.1-0.3
		c0-0.1,0.1-0.3,0.2-0.4l6.6-5.7c0.1-0.1,0.3-0.2,0.5-0.2h2.7c0.3,0,0.4,0.1,0.4,0.4v24.3c0,0.3-0.1,0.4-0.4,0.4h-3.7
		C637.3,182.5,637.2,182.4,637.2,182.1z"/>
	<path class="st6" d="M649.2,166.3c-0.2,0-0.3-0.1-0.4-0.2l-2-3c-0.1-0.1-0.1-0.2-0.1-0.3s0.1-0.3,0.3-0.3c2.2-0.7,4.2-1.8,6.1-3.1
		c1.9-1.4,3.4-2.8,4.4-4.2c0.1-0.2,0.3-0.3,0.6-0.3l3.6,0.5c0.2,0.1,0.3,0.2,0.3,0.3s0,0.1-0.1,0.3l-1,1.3H672
		c0.3,0,0.4,0.1,0.4,0.4v2.8c0,0.2,0,0.4-0.1,0.5c-2.5,3.7-6.2,6.8-10.9,9.4H673c0.3,0,0.4,0.1,0.4,0.4v11.9c0,0.3-0.1,0.4-0.4,0.4
		h-20.3c-0.3,0-0.4-0.1-0.4-0.4v-8.6c-0.8,0.3-2,0.6-3.7,1.1h-0.2c-0.2,0-0.3-0.1-0.4-0.3l-1.5-3.2c0-0.1,0-0.2-0.1-0.2
		c0-0.2,0.1-0.3,0.3-0.3c3.8-0.7,7.2-1.6,10.3-2.9c-1.4-1.3-2.9-2.5-4.6-3.6C651.5,165.2,650.4,165.8,649.2,166.3
		C649.3,166.3,649.3,166.3,649.2,166.3z M660.8,166.4c2.8-1.6,5-3.4,6.8-5.5h-10c-0.4,0.4-1,0.9-1.9,1.6
		C657.7,163.7,659.4,165,660.8,166.4z M669.4,173.9h-13.1v5.5h13.1V173.9z"/>
</g>
<g>
	<path class="st6" d="M606.6,41.8V20.3c0-0.3,0.1-0.4,0.4-0.4h3.5c0.2,0,0.4,0.1,0.5,0.3l9.9,15.2V20.3c0-0.3,0.1-0.4,0.4-0.4h3.2
		c0.3,0,0.4,0.1,0.4,0.4v21.5c0,0.3-0.1,0.4-0.4,0.4H621c-0.2,0-0.4-0.1-0.5-0.3l-9.9-15.2v15.1c0,0.3-0.1,0.4-0.4,0.4H607
		C606.8,42.2,606.6,42.1,606.6,41.8z"/>
	<path class="st6" d="M632.2,41.5c-1.2-0.7-2.1-1.7-2.8-2.9c-0.6-1.2-1-2.6-1-4.2c0-1.6,0.3-3,1-4.2c0.6-1.2,1.6-2.2,2.8-2.9
		c1.2-0.7,2.6-1,4.2-1c2.4,0,4.2,0.8,5.5,2.4s1.9,3.7,1.9,6.5c0,0.3-0.1,0.5-0.4,0.5h-10.8c0.2,1.1,0.6,1.9,1.2,2.5
		c0.6,0.6,1.5,0.9,2.5,0.9c1.6,0,2.7-0.6,3.4-1.8c0.1-0.2,0.3-0.2,0.5-0.2l2.7,0.9c0.2,0.1,0.3,0.2,0.3,0.3s0,0.2-0.1,0.3
		c-0.7,1.3-1.6,2.3-2.8,3s-2.6,1-4.1,1C634.8,42.5,633.4,42.1,632.2,41.5z M638.5,30.4c-0.6-0.5-1.3-0.8-2.1-0.8
		c-0.9,0-1.7,0.3-2.4,0.8c-0.6,0.5-1.1,1.2-1.3,2.2h6.9C639.4,31.7,639.1,31,638.5,30.4z"/>
	<path class="st6" d="M644.8,41.9c0-0.1,0-0.1,0.1-0.2l5.3-7.6l-5-7.2c-0.1-0.1-0.1-0.2-0.1-0.2c0-0.2,0.1-0.3,0.3-0.3h3.6
		c0.2,0,0.4,0.1,0.5,0.3l3.2,4.6l3.2-4.6c0.1-0.2,0.3-0.3,0.5-0.3h3.4c0.2,0,0.3,0.1,0.3,0.2s0,0.2-0.1,0.3l-5,7.2l5.3,7.6
		c0.1,0.1,0.1,0.2,0.1,0.2c0,0.1,0,0.1-0.1,0.2c-0.1,0-0.1,0.1-0.2,0.1h-3.6c-0.2,0-0.4-0.1-0.5-0.3l-3.4-5.1l-3.5,5.1
		c-0.1,0.2-0.3,0.3-0.5,0.3h-3.4C644.9,42.2,644.8,42.1,644.8,41.9z"/>
	<path class="st6" d="M665.4,40.9c-0.9-1.1-1.3-2.7-1.3-4.8V30h-2.3c-0.1,0-0.2,0-0.3-0.1s-0.1-0.2-0.1-0.3v-2.7
		c0-0.3,0.1-0.4,0.4-0.4h2.3v-4.2c0-0.1,0-0.2,0.1-0.3c0.1-0.1,0.2-0.1,0.3-0.1h3.1c0.1,0,0.2,0,0.3,0.1s0.1,0.2,0.1,0.3v4.2h3.7
		c0.3,0,0.4,0.1,0.4,0.4v2.7c0,0.1,0,0.2-0.1,0.3s-0.2,0.1-0.3,0.1H668v6.4c0,0.9,0.1,1.5,0.4,1.9c0.3,0.4,0.7,0.6,1.3,0.6
		c0.5,0,0.9-0.3,1.2-0.8c0.1-0.2,0.3-0.3,0.5-0.2l2.4,1.1c0.1,0.1,0.2,0.2,0.2,0.3s0,0.2-0.1,0.3c-1,1.9-2.6,2.8-4.6,2.8
		C667.6,42.5,666.3,42,665.4,40.9z"/>
</g>
<g>
	<path class="st1" d="M389.1,278.4v-18c-0.8,1.1-1.5,2-2.2,2.6c-0.1,0.1-0.2,0.2-0.3,0.2c-0.2,0-0.3-0.1-0.3-0.4l-1.4-4.6V258
		c0-0.2,0-0.3,0-0.3l0.2-0.2c1.5-1.5,2.9-3.3,4.1-5.5c1.2-2.2,2.3-4.6,3.1-7.2c0.1-0.3,0.2-0.4,0.4-0.4c0.1,0,0.2,0,0.3,0l4,0.7
		c0.3,0,0.4,0.2,0.5,0.4c0,0.1,0,0.2,0,0.2c-0.8,2.8-1.9,5.4-3.3,7.9v24.8c0,0.4-0.2,0.5-0.5,0.5h-3.8
		C389.4,278.9,389.1,278.7,389.1,278.4z M398.4,274.8l-3.5-1.7c-0.2-0.1-0.3-0.3-0.3-0.4s0-0.2,0.1-0.3c2-3.2,3.4-6.8,4-10.7
		c0.1-0.3,0.2-0.4,0.3-0.5c0.1,0,0.2,0,0.3,0l3.5,0.8c0.2,0,0.3,0.1,0.4,0.3v0.3c-0.3,2-0.8,4.1-1.5,6.3c-0.7,2.1-1.5,4.1-2.5,5.8
		c-0.1,0.2-0.2,0.3-0.3,0.3C398.6,274.9,398.5,274.9,398.4,274.8z M416.4,260.8l-3.5-1.3c-0.2-0.1-0.3-0.2-0.3-0.3
		c0-0.2,0-0.3,0-0.3c0.9-2.2,1.4-4.2,1.5-6.1h-10.6c-0.5,1.4-1.1,2.7-1.7,3.9c-0.6,1.1-1.4,2.3-2.4,3.5c-0.1,0.2-0.3,0.3-0.4,0.3
		s-0.2-0.1-0.3-0.2l-3.1-3c-0.1-0.1-0.2-0.3-0.2-0.4s0.1-0.2,0.2-0.3c1.6-1.9,2.7-3.8,3.5-5.6c0.7-1.8,1.2-3.8,1.5-6
		c0-0.2,0.1-0.4,0.3-0.5h0.2l4,0.4c0.3,0.1,0.4,0.2,0.5,0.4v0.3c-0.2,0.9-0.4,1.8-0.6,2.8h13.6c0.4,0,0.5,0.2,0.5,0.7
		c-0.1,4.3-0.7,8.1-1.9,11.5c-0.1,0.3-0.2,0.4-0.5,0.4C416.5,260.8,416.4,260.8,416.4,260.8z M402,278.7c-0.1,0-0.2-0.1-0.3-0.3
		l-1.5-3.7c0,0,0-0.1,0-0.2c0-0.2,0.1-0.4,0.3-0.4h0.2c0.4,0,0.8,0,1.4,0c0.9,0,1.6-0.1,2-0.2s0.7-0.3,0.8-0.6s0.2-0.7,0.2-1.2V256
		c0-0.4,0.2-0.5,0.5-0.5h3.6c0.4,0,0.5,0.2,0.5,0.5v17.5c0,1.9-0.6,3.3-1.8,4.1c-1.2,0.8-3.1,1.1-5.6,1.1
		C402.2,278.8,402.1,278.7,402,278.7z M415.6,274.8c-0.8-1.4-1.6-3.2-2.3-5.4c-0.7-2.2-1.4-4.3-1.9-6.4v-0.2c0-0.2,0.1-0.4,0.4-0.5
		l3.2-0.9c0.1,0,0.1,0,0.2,0c0.2,0,0.3,0.1,0.4,0.4c0.5,1.8,1.1,3.7,1.8,5.6c0.7,1.9,1.5,3.6,2.4,5c0.1,0.1,0.1,0.2,0.1,0.3
		c0,0.2-0.1,0.3-0.3,0.4l-3.3,1.8c-0.1,0.1-0.2,0.1-0.3,0.1C415.9,275.1,415.9,275,415.6,274.8z"/>
	<path class="st1" d="M441.5,277.3h-12.6c-0.4,0-0.5-0.2-0.5-0.5v-27c0-0.4,0.2-0.5,0.5-0.5h2.7c0.7-1.6,1.3-3.1,1.6-4.5
		c0.1-0.3,0.2-0.4,0.5-0.4h0.1l3.7,0.4c0.4,0.1,0.5,0.3,0.4,0.6c-0.5,1.5-1,2.8-1.5,3.9h5.1c0.4,0,0.5,0.2,0.5,0.5v4.3
		c0.9-1.3,1.7-2.7,2.3-4.3c0.7-1.6,1.2-3.3,1.6-5c0.1-0.3,0.2-0.4,0.5-0.4h0.2l3.5,0.4c0.2,0,0.3,0.1,0.4,0.2
		c0.1,0.1,0.1,0.2,0.1,0.4c-0.2,1-0.6,2.1-1,3.3h10.2c0.3,0,0.5,0.2,0.5,0.5s0,2.8,0,7.6c0,5.4-0.1,9.4-0.3,11.9
		c-0.2,2.5-0.7,4.4-1.4,5.9c-0.7,1.5-1.8,2.5-3.2,3.2s-3.4,1-5.8,1c-0.3,0-0.5,0-0.8,0c-0.3-0.1-0.4-0.2-0.5-0.4l-1.4-3.8
		c0-0.1,0-0.1,0-0.2c0-0.2,0.2-0.3,0.5-0.3c2,0.1,3.5-0.1,4.6-0.4s1.9-0.9,2.4-1.8c0.5-0.8,0.8-2,0.9-3.5c0.2-2.6,0.3-5.6,0.3-9
		c0-1.8,0-3.9-0.1-6h-7.7c-0.8,1.8-1.8,3.3-2.8,4.5c-0.1,0.2-0.2,0.2-0.4,0.2c-0.1,0-0.2,0-0.3-0.1l-2.3-1.3V277
		C442,277.1,441.9,277.3,441.5,277.3z M432.8,253.5v7.3h4.9v-7.3L432.8,253.5L432.8,253.5z M432.8,265.2v7.7h4.9v-7.7H432.8z
		 M444.5,260.4c-0.1-0.2-0.2-0.3-0.2-0.4c0-0.2,0.1-0.3,0.3-0.4l3.1-1.5c0.1-0.1,0.2-0.1,0.3-0.1c0.2,0,0.3,0.1,0.4,0.2
		c0.9,1.1,1.7,2.4,2.4,3.7c0.7,1.4,1.4,2.8,1.9,4.1c0,0.1,0,0.1,0,0.2c0,0.2-0.1,0.4-0.3,0.5l-3.2,1.7l-0.3,0.1
		c-0.2,0-0.3-0.1-0.4-0.3C447.5,265.2,446.2,262.6,444.5,260.4z"/>
	<path class="st1" d="M484.9,250.5h-3.5v1.4c0,0.4-0.2,0.5-0.5,0.5h-3.6c-0.4,0-0.5-0.2-0.5-0.5v-1.4h-6.9c-0.4,0-0.5-0.2-0.5-0.5
		v-3c0-0.4,0.2-0.5,0.5-0.5h6.9v-1.6c0-0.4,0.2-0.5,0.5-0.5h3.5c0.4,0,0.5,0.2,0.5,0.5v1.6h3.5c0.4,0,0.5,0.2,0.5,0.5v3
		C485.4,250.3,485.1,250.5,484.9,250.5z M471.6,258.8h0.2c1,0.3,2.1,0.7,3.2,1.2s2.1,1,3,1.6c0.2,0.1,0.3,0.2,0.3,0.4l-0.1,0.3
		l-1.6,2.8c-0.1,0.2-0.3,0.3-0.4,0.3s-0.2,0-0.3-0.1c-1.8-1.2-3.8-2.2-5.9-2.8c-0.3-0.1-0.4-0.2-0.4-0.4l0.1-0.3l1.5-2.7
		C471.2,258.9,471.4,258.8,471.6,258.8z M474.4,266.6c0.1-0.4,0.4-0.4,0.7-0.3l3.1,1.6c0.3,0.2,0.4,0.4,0.3,0.7
		c-1.3,3.8-2.8,7-4.4,9.5c-0.1,0.2-0.2,0.3-0.4,0.3l-0.3-0.1l-3.3-1.8c-0.2-0.1-0.3-0.3-0.3-0.4s0-0.2,0.1-0.3
		C471.4,273.5,472.9,270.5,474.4,266.6z M473,252.2c0.1,0,0.2,0,0.2,0c2.1,0.6,4.1,1.6,6,2.8c0.2,0.2,0.2,0.3,0.2,0.4
		c0,0.1,0,0.2-0.1,0.3l-1.7,2.7c-0.1,0.2-0.2,0.3-0.4,0.3c-0.1,0-0.2,0-0.3-0.1c-1.7-1.2-3.6-2.2-5.8-3c-0.3-0.1-0.4-0.2-0.4-0.4
		c0-0.1,0-0.2,0.1-0.3l1.6-2.5C472.8,252.3,472.9,252.2,473,252.2z M478.4,264.9c0-0.3,0.2-0.4,0.5-0.4c2.5-0.2,5.1-0.7,7.8-1.7
		c-1.1-0.8-2-1.6-2.8-2.4c-0.7,0.6-1.5,1.2-2.4,1.7c-0.1,0.1-0.2,0.1-0.3,0.1c-0.2,0-0.3-0.1-0.4-0.2l-2-2.5
		c-0.1-0.1-0.2-0.2-0.2-0.3c0-0.2,0.1-0.3,0.3-0.4c1.5-0.8,2.8-1.8,3.9-3c1.1-1.1,2-2.3,2.5-3.4c0.1-0.2,0.3-0.3,0.5-0.3h0.2
		l3.6,0.4c0.2,0,0.3,0.1,0.4,0.2c0.1,0.1,0.1,0.3,0,0.4l-0.5,0.8h10.1c0.4,0,0.5,0.2,0.5,0.5v2.7c0,0.2-0.1,0.4-0.2,0.6
		c-1.2,1.9-2.8,3.5-4.6,5c2.4,0.8,5,1.4,7.9,1.7c0.3,0.1,0.5,0.2,0.5,0.4c0,0.1,0,0.1-0.1,0.2l-1.3,3.2c-0.1,0.3-0.3,0.4-0.6,0.4
		c-0.6-0.1-1.1-0.2-1.6-0.3v9.5c0,0.4-0.2,0.5-0.5,0.5h-17.4c-0.4,0-0.5-0.2-0.5-0.5v-9.4c-0.5,0.1-0.9,0.2-1.4,0.2h-0.1
		c-0.2,0-0.3,0-0.3-0.1c-0.1-0.1-0.1-0.1-0.2-0.3l-1.3-3.1C478.4,265,478.4,265,478.4,264.9z M490.9,265.4c-2,1-4.4,1.9-7.2,2.6H498
		C495.5,267.3,493.1,266.4,490.9,265.4z M495.5,271.4H486v3.5h9.5V271.4z M490.9,260.7c1.6-1,2.8-2,3.8-3.3h-7.9l0,0
		C487.9,258.8,489.2,259.8,490.9,260.7z M487.4,246.5h3.5v-1.6c0-0.4,0.2-0.5,0.5-0.5h3.5c0.4,0,0.5,0.2,0.5,0.5v1.6h6.9
		c0.4,0,0.5,0.2,0.5,0.5v3c0,0.4-0.2,0.5-0.5,0.5h-6.9v1.3c0,0.4-0.2,0.5-0.5,0.5h-3.5c-0.4,0-0.5-0.2-0.5-0.5v-1.3h-3.5
		c-0.4,0-0.5-0.2-0.5-0.5v-3C486.9,246.6,486.9,246.5,487.4,246.5z"/>
	<path class="st1" d="M510,277.6v-0.2c0.4-0.8,0.7-1.8,0.9-3c0.3-1.2,0.4-2.3,0.5-3.4c0.1-0.4,0.3-0.5,0.6-0.5l2.6,0.4
		c0.4,0.1,0.5,0.2,0.5,0.6c-0.1,1.2-0.2,2.4-0.5,3.6c-0.2,1.2-0.5,2.4-0.9,3.3c-0.1,0.3-0.2,0.4-0.5,0.4c-0.1,0-0.3-0.1-0.4-0.1
		l-2.7-0.7C510.1,278,510,277.8,510,277.6z M511.2,265.8h6.5v-1.7h-5.5c-0.4,0-0.5-0.2-0.5-0.5v-2.5c0-0.4,0.2-0.5,0.5-0.5h5.5v-1.7
		h-6c-0.4,0-0.5-0.2-0.5-0.5v-12.7c0-0.4,0.2-0.5,0.5-0.5h15.7c0.4,0,0.5,0.2,0.5,0.5v12.7c0,0.4-0.2,0.5-0.5,0.5h-5.9v1.7h5.5
		c0.4,0,0.5,0.2,0.5,0.5v2.5c0,0.4-0.2,0.5-0.5,0.5h-5.5v1.7h6.2c0.4,0,0.5,0.2,0.5,0.5v2.5c0,0.4-0.2,0.5-0.5,0.5h-16.5
		c-0.4,0-0.5-0.2-0.5-0.5v-2.5C510.6,266,510.9,265.8,511.2,265.8z M518,248.6h-3.3v6.9h3.3V248.6z M514.8,250.5
		c0-0.2,0.1-0.3,0.4-0.4l1-0.3h0.2h0.1c0.2,0,0.3,0.1,0.4,0.4c0.4,1,0.7,2.2,0.9,3.5v0.1c0,0.3-0.1,0.5-0.4,0.5l-1.1,0.3
		c-0.1,0.1-0.2,0.1-0.2,0.1c-0.2,0-0.4-0.2-0.4-0.5c-0.1-1.1-0.4-2.3-0.8-3.5C514.8,250.7,514.8,250.6,514.8,250.5z M516.5,278.2
		c-0.1-0.1-0.1-0.2-0.1-0.4c0.1-0.5,0.1-1.1,0.1-2c0-1.4-0.1-2.7-0.2-4c0-0.3,0.2-0.5,0.5-0.6l2.1-0.2h0.1c0.3,0,0.5,0.2,0.5,0.5
		c0.3,1.8,0.5,3.8,0.5,6c0,0.3-0.2,0.5-0.5,0.6l-2.6,0.3h-0.1C516.6,278.4,516.5,278.3,516.5,278.2z M521.2,277.2
		c-0.2-2.3-0.4-4.1-0.8-5.4v-0.2c0-0.2,0.1-0.3,0.4-0.4l1.9-0.4h0.2c0.3,0,0.4,0.1,0.5,0.4c0.3,0.9,0.5,1.9,0.8,3
		c0.2,1.2,0.4,1.9,0.4,2.3v0.1c0,0.3-0.1,0.4-0.4,0.5l-2.3,0.6h-0.2C521.5,277.6,521.3,277.5,521.2,277.2z M524.5,248.6h-3.3v6.9
		h3.3V248.6z M522.1,250.2c0-0.4,0.2-0.5,0.6-0.4l1.2,0.3c0.3,0.1,0.5,0.3,0.4,0.6c-0.2,1.4-0.5,2.6-1,3.7c-0.1,0.2-0.1,0.3-0.3,0.3
		c-0.1,0.1-0.3,0.1-0.4,0l-1-0.4c-0.3-0.1-0.4-0.3-0.3-0.7C521.8,252.7,522,251.6,522.1,250.2z M525.8,276c-0.3-1.8-0.7-3.4-1.2-4.6
		c0-0.1-0.1-0.2-0.1-0.3c0-0.2,0.1-0.3,0.4-0.4l1.7-0.5h0.2h0.1c0.2,0,0.3,0.1,0.4,0.3c0.7,1.5,1.2,3,1.5,4.5v0.2
		c0,0.1,0,0.2-0.1,0.2c-0.1,0.1-0.2,0.1-0.3,0.2l-2,0.8c-0.1,0-0.1,0-0.2,0C526,276.4,525.8,276.3,525.8,276z M529.3,277.7v-16.2
		c0-0.4,0.2-0.5,0.5-0.5h4v-16.2c0-0.4,0.2-0.5,0.5-0.5h3.5c0.4,0,0.5,0.2,0.5,0.5v5.7h6.2c0.4,0,0.5,0.2,0.5,0.5v3.5
		c0,0.4-0.2,0.5-0.5,0.5h-6.2v5.9h5.1c0.4,0,0.5,0.2,0.5,0.5v16.2c0,0.4-0.2,0.5-0.5,0.5h-13.7C529.5,278.2,529.3,278.1,529.3,277.7
		z M539.8,265.3h-6v8.7h6V265.3z"/>
</g>
</svg>
