<!-- Generator: Adobe Illustrator 25.0.0, SVG Export Plug-In  -->
<svg version="1.1" xmlns="http://www.w3.org/2000/svg" xmlns:xlink="http://www.w3.org/1999/xlink" x="0px" y="0px" width="687.4px"
	 height="279.5px" viewBox="0 0 687.4 279.5" style="overflow:visible;enable-background:new 0 0 687.4 279.5;"
	 xml:space="preserve">
<style type="text/css">
	.st0{fill:none;stroke:#595757;stroke-width:6;stroke-linecap:round;stroke-miterlimit:10;}
	.st1{fill:#FFFFFF;}
	.st2{fill:#595757;}
	.st3{fill:none;stroke:#D7A685;stroke-width:6;stroke-linecap:round;stroke-linejoin:round;stroke-miterlimit:10;}
	.st4{fill:none;stroke:#DF032E;stroke-width:6;stroke-linecap:round;stroke-miterlimit:10;}
	.st5{fill:#DF032E;}
	.st6{fill:#D7A685;}
</style>
<defs>
</defs>
<path class="st0" d="M639,60.1c25.1,0,45.4,20.3,45.4,45.4"/>
<polygon class="st1" points="329.8,228.9 343.8,204.6 357.8,228.9 "/>
<path class="st0" d="M108.8,105.5c-8.9,0-14.7-4.5-16.3-11c-4.9-19.8-22.8-34.4-44.1-34.4"/>
<path class="st0" d="M48.4,60.1C23.3,60.1,3,80.4,3,105.5"/>
<path class="st2" d="M16.9,105.5c0,17.4,14.1,31.6,31.6,31.6S80,123,80,105.5C80,88.1,65.9,74,48.4,74S16.9,88.1,16.9,105.5"/>
<path class="st0" d="M169.2,60.1L169.2,60.1c-21.3,0-39.2,14.7-44.1,34.4c-1.6,6.5-7.4,11-16.3,11"/>
<path class="st0" d="M578.6,105.5c8.9,0,14.7-4.5,16.3-11c4.9-19.8,22.8-34.4,44.1-34.4"/>
<path class="st3" d="M518.3,60.1c21.3,0,39.2,14.7,44.1,34.4c1.6,6.5,7.4,11,16.3,11"/>
<path class="st3" d="M460.1,105.5L460.1,105.5c6.7,0,12.6-4.5,14.2-11c4.9-19.8,22.8-34.4,44.1-34.4"/>
<path class="st4" d="M343.8,3c52.3,0,95.4,39.1,101.7,89.7c0.9,7.3,7.1,12.8,14.5,12.8"/>
<path class="st4" d="M343.8,3c-52.3,0-95.4,39.1-101.7,89.7c-0.9,7.3-7.1,12.8-14.5,12.8"/>
<path class="st5" d="M429.2,105.5c0,47.2-38.3,85.4-85.4,85.4s-85.4-38.3-85.4-85.4c0-47.2,38.3-85.4,85.4-85.4
	S429.2,58.3,429.2,105.5"/>
<path class="st6" d="M549.9,105.5c0,17.4-14.1,31.6-31.6,31.6s-31.6-14.1-31.6-31.6c0-17.4,14.1-31.6,31.6-31.6
	S549.9,88.1,549.9,105.5"/>
<path class="st0" d="M227.5,105.5L227.5,105.5c-6.7,0-12.6-4.5-14.2-11c-4.9-19.8-22.8-34.4-44.1-34.4"/>
<path class="st2" d="M137.7,105.5c0,17.4,14.1,31.6,31.6,31.6s31.6-14.1,31.6-31.6c0-17.4-14.1-31.6-31.6-31.6
	S137.7,88.1,137.7,105.5"/>
<path class="st2" d="M670.6,105.5c0,17.4-14.1,31.6-31.6,31.6s-31.6-14.1-31.6-31.6c0-17.4,14.1-31.6,31.6-31.6
	S670.6,88.1,670.6,105.5"/>
<g>
	<path class="st1" d="M267.7,279v-18c-0.8,1.1-1.5,2-2.2,2.6c-0.1,0.1-0.2,0.2-0.3,0.2c-0.2,0-0.3-0.1-0.3-0.4l-1.4-4.6l0-0.2
		c0-0.2,0-0.3,0-0.3l0.2-0.2c1.5-1.5,2.9-3.3,4.1-5.5c1.2-2.2,2.3-4.6,3.1-7.2c0.1-0.3,0.2-0.4,0.4-0.4c0.1,0,0.2,0,0.3,0l4,0.7
		c0.3,0,0.4,0.2,0.5,0.4c0,0.1,0,0.2,0,0.2c-0.8,2.8-1.9,5.4-3.3,7.9V279c0,0.4-0.2,0.5-0.5,0.5h-3.8
		C267.9,279.5,267.7,279.3,267.7,279z M277,275.4l-3.5-1.7c-0.2-0.1-0.3-0.3-0.3-0.4c0-0.1,0-0.2,0.1-0.3c2-3.2,3.4-6.8,4-10.7
		c0.1-0.3,0.2-0.4,0.3-0.5c0.1,0,0.2,0,0.3,0l3.5,0.8c0.2,0,0.3,0.1,0.4,0.3v0.3c-0.3,2-0.8,4.1-1.5,6.3c-0.7,2.1-1.5,4.1-2.5,5.8
		c-0.1,0.2-0.2,0.3-0.3,0.3C277.2,275.5,277.1,275.5,277,275.4z M295,261.4l-3.5-1.3c-0.2-0.1-0.3-0.2-0.3-0.3c0-0.2,0-0.3,0-0.3
		c0.9-2.2,1.4-4.2,1.5-6.1h-10.6c-0.5,1.4-1.1,2.7-1.7,3.9c-0.6,1.1-1.4,2.3-2.4,3.5c-0.1,0.2-0.3,0.3-0.4,0.3
		c-0.1,0-0.2-0.1-0.3-0.2l-3.1-3c-0.1-0.1-0.2-0.3-0.2-0.4s0.1-0.2,0.2-0.3c1.6-1.9,2.7-3.8,3.5-5.6c0.7-1.8,1.2-3.8,1.5-6
		c0-0.2,0.1-0.4,0.3-0.5h0.2l4,0.4c0.3,0.1,0.4,0.2,0.5,0.4v0.3c-0.2,0.9-0.4,1.8-0.6,2.8h13.6c0.4,0,0.5,0.2,0.5,0.7
		c-0.1,4.3-0.7,8.1-1.9,11.5c-0.1,0.3-0.2,0.4-0.5,0.4C295.1,261.4,295,261.4,295,261.4z M280.6,279.3c-0.1,0-0.2-0.1-0.3-0.3
		l-1.5-3.7c0,0,0-0.1,0-0.2c0-0.2,0.1-0.4,0.3-0.4h0.2c0.4,0,0.8,0,1.4,0c0.9,0,1.6-0.1,2-0.2c0.4-0.1,0.7-0.3,0.8-0.6
		s0.2-0.7,0.2-1.2v-16.1c0-0.4,0.2-0.5,0.5-0.5h3.6c0.4,0,0.5,0.2,0.5,0.5v17.5c0,1.9-0.6,3.3-1.8,4.1c-1.2,0.8-3.1,1.1-5.6,1.1
		C280.8,279.4,280.7,279.3,280.6,279.3z M294.2,275.4c-0.8-1.4-1.6-3.2-2.3-5.4c-0.7-2.2-1.4-4.3-1.9-6.4l0-0.2
		c0-0.2,0.1-0.4,0.4-0.5l3.2-0.9c0.1,0,0.1,0,0.2,0c0.2,0,0.3,0.1,0.4,0.4c0.5,1.8,1.1,3.7,1.8,5.6s1.5,3.6,2.4,5
		c0.1,0.1,0.1,0.2,0.1,0.3c0,0.2-0.1,0.3-0.3,0.4l-3.3,1.8c-0.1,0.1-0.2,0.1-0.3,0.1C294.5,275.7,294.4,275.6,294.2,275.4z"/>
	<path class="st1" d="M320.1,277.9h-12.6c-0.4,0-0.5-0.2-0.5-0.5v-27c0-0.4,0.2-0.5,0.5-0.5h2.7c0.7-1.6,1.3-3.1,1.6-4.5
		c0.1-0.3,0.2-0.4,0.5-0.4h0.1l3.7,0.4c0.4,0.1,0.5,0.3,0.4,0.6c-0.5,1.5-1,2.8-1.5,3.9h5.1c0.4,0,0.5,0.2,0.5,0.5v4.3
		c0.9-1.3,1.7-2.7,2.3-4.3c0.7-1.6,1.2-3.3,1.6-5c0.1-0.3,0.2-0.4,0.5-0.4h0.2l3.5,0.4c0.2,0,0.3,0.1,0.4,0.2
		c0.1,0.1,0.1,0.2,0.1,0.4c-0.2,1-0.6,2.1-1,3.3h10.2c0.3,0,0.5,0.2,0.5,0.5c0,0.3,0,2.8,0,7.6c0,5.4-0.1,9.4-0.3,11.9
		c-0.2,2.5-0.7,4.4-1.4,5.9c-0.7,1.5-1.8,2.5-3.2,3.2s-3.4,1-5.8,1c-0.3,0-0.5,0-0.8,0c-0.3-0.1-0.4-0.2-0.5-0.4l-1.4-3.8
		c0-0.1,0-0.1,0-0.2c0-0.2,0.2-0.3,0.5-0.3c2,0.1,3.5-0.1,4.6-0.4c1.1-0.3,1.9-0.9,2.4-1.8c0.5-0.8,0.8-2,0.9-3.5
		c0.2-2.6,0.3-5.6,0.3-9c0-1.8,0-3.9-0.1-6h-7.7c-0.8,1.8-1.8,3.3-2.8,4.5c-0.1,0.2-0.2,0.2-0.4,0.2c-0.1,0-0.2,0-0.3-0.1l-2.3-1.3
		v20.3C320.6,277.7,320.5,277.9,320.1,277.9z M311.3,254.1v7.3h4.9v-7.3H311.3z M311.3,265.8v7.7h4.9v-7.7H311.3z M323.1,261
		c-0.1-0.2-0.2-0.3-0.2-0.4c0-0.2,0.1-0.3,0.3-0.4l3.1-1.5c0.1-0.1,0.2-0.1,0.3-0.1c0.2,0,0.3,0.1,0.4,0.2c0.9,1.1,1.7,2.4,2.4,3.7
		c0.7,1.4,1.4,2.8,1.9,4.1c0,0.1,0,0.1,0,0.2c0,0.2-0.1,0.4-0.3,0.5l-3.3,1.6l-0.3,0.1c-0.2,0-0.3-0.1-0.4-0.3
		C326.2,265.8,324.8,263.2,323.1,261z"/>
	<path class="st1" d="M363.4,251.1h-3.5v1.4c0,0.4-0.2,0.5-0.5,0.5h-3.5c-0.4,0-0.5-0.2-0.5-0.5v-1.4h-6.9c-0.4,0-0.5-0.2-0.5-0.5
		v-3c0-0.4,0.2-0.5,0.5-0.5h6.9v-1.6c0-0.4,0.2-0.5,0.5-0.5h3.5c0.4,0,0.5,0.2,0.5,0.5v1.6h3.5c0.4,0,0.5,0.2,0.5,0.5v3
		C363.9,250.9,363.7,251.1,363.4,251.1z M350.2,259.4l0.2,0c1,0.3,2.1,0.7,3.2,1.2c1.1,0.5,2.1,1,3,1.6c0.2,0.1,0.3,0.2,0.3,0.4
		l-0.1,0.3l-1.6,2.8c-0.1,0.2-0.3,0.3-0.4,0.3c-0.1,0-0.2,0-0.3-0.1c-1.8-1.2-3.8-2.2-5.9-2.8c-0.3-0.1-0.4-0.2-0.4-0.4l0.1-0.3
		l1.5-2.7C349.8,259.5,350,259.4,350.2,259.4z M353,267.2c0.1-0.4,0.4-0.4,0.7-0.3l3.1,1.6c0.3,0.2,0.4,0.4,0.3,0.7
		c-1.3,3.8-2.8,7-4.4,9.5c-0.1,0.2-0.2,0.3-0.4,0.3l-0.3-0.1l-3.3-1.8c-0.2-0.1-0.3-0.3-0.3-0.4c0-0.1,0-0.2,0.1-0.3
		C350,274.1,351.5,271.1,353,267.2z M351.7,252.8c0.1,0,0.2,0,0.2,0c2.1,0.6,4.1,1.6,6,2.8c0.2,0.2,0.2,0.3,0.2,0.4
		c0,0.1,0,0.2-0.1,0.3l-1.7,2.7c-0.1,0.2-0.2,0.3-0.4,0.3c-0.1,0-0.2,0-0.3-0.1c-1.7-1.2-3.6-2.2-5.8-3c-0.3-0.1-0.4-0.2-0.4-0.4
		c0-0.1,0-0.2,0.1-0.3l1.6-2.5C351.3,252.9,351.5,252.8,351.7,252.8z M356.9,265.5c0-0.3,0.2-0.4,0.5-0.4c2.5-0.2,5.1-0.7,7.8-1.7
		c-1.1-0.8-2-1.6-2.8-2.4c-0.7,0.6-1.5,1.2-2.4,1.7c-0.1,0.1-0.2,0.1-0.3,0.1c-0.2,0-0.3-0.1-0.4-0.2l-2-2.5
		c-0.1-0.1-0.2-0.2-0.2-0.3c0-0.2,0.1-0.3,0.3-0.4c1.5-0.8,2.8-1.8,3.9-3c1.1-1.1,2-2.3,2.5-3.4c0.1-0.2,0.3-0.3,0.5-0.3h0.2
		l3.6,0.4c0.2,0,0.3,0.1,0.4,0.2c0.1,0.1,0.1,0.3,0,0.4l-0.5,0.8H378c0.4,0,0.5,0.2,0.5,0.5v2.7c0,0.2-0.1,0.4-0.2,0.6
		c-1.2,1.9-2.8,3.5-4.6,5c2.4,0.8,5,1.4,7.9,1.7c0.3,0.1,0.5,0.2,0.5,0.4c0,0.1,0,0.1-0.1,0.2l-1.3,3.2c-0.1,0.3-0.3,0.4-0.6,0.4
		c-0.6-0.1-1.1-0.2-1.6-0.3v9.5c0,0.4-0.2,0.5-0.5,0.5h-17.4c-0.4,0-0.5-0.2-0.5-0.5V269c-0.5,0.1-0.9,0.2-1.4,0.2h-0.1
		c-0.2,0-0.3,0-0.3-0.1s-0.1-0.1-0.2-0.3l-1.3-3.1C356.9,265.6,356.9,265.6,356.9,265.5z M369.5,266c-2,1-4.4,1.9-7.2,2.6h14.3
		C374.1,267.9,371.7,267,369.5,266z M374.1,272h-9.5v3.5h9.5V272z M369.4,261.3c1.6-1,2.8-2,3.8-3.3h-7.9v0
		C366.4,259.4,367.8,260.4,369.4,261.3z M365.9,247.1h3.5v-1.6c0-0.4,0.2-0.5,0.5-0.5h3.5c0.4,0,0.5,0.2,0.5,0.5v1.6h6.9
		c0.4,0,0.5,0.2,0.5,0.5v3c0,0.4-0.2,0.5-0.5,0.5H374v1.3c0,0.4-0.2,0.5-0.5,0.5H370c-0.4,0-0.5-0.2-0.5-0.5v-1.3h-3.5
		c-0.4,0-0.5-0.2-0.5-0.5v-3C365.4,247.2,365.5,247.1,365.9,247.1z"/>
	<path class="st1" d="M388.6,278.2l0-0.2c0.4-0.8,0.7-1.8,0.9-3c0.3-1.2,0.4-2.3,0.5-3.4c0-0.4,0.3-0.5,0.6-0.5l2.6,0.4
		c0.4,0.1,0.5,0.2,0.5,0.6c-0.1,1.2-0.2,2.4-0.5,3.6s-0.5,2.4-0.9,3.3c-0.1,0.3-0.2,0.4-0.5,0.4c-0.1,0-0.3-0.1-0.4-0.1l-2.7-0.7
		C388.8,278.6,388.6,278.4,388.6,278.2z M389.8,266.4h6.5v-1.7h-5.5c-0.4,0-0.5-0.2-0.5-0.5v-2.5c0-0.4,0.2-0.5,0.5-0.5h5.5v-1.7h-6
		c-0.4,0-0.5-0.2-0.5-0.5v-12.7c0-0.4,0.2-0.5,0.5-0.5H406c0.4,0,0.5,0.2,0.5,0.5V259c0,0.4-0.2,0.5-0.5,0.5H400v1.7h5.5
		c0.4,0,0.5,0.2,0.5,0.5v2.5c0,0.4-0.2,0.5-0.5,0.5H400v1.7h6.2c0.4,0,0.5,0.2,0.5,0.5v2.5c0,0.4-0.2,0.5-0.5,0.5h-16.4
		c-0.4,0-0.5-0.2-0.5-0.5v-2.5C389.2,266.6,389.4,266.4,389.8,266.4z M396.5,249.2h-3.3v6.9h3.3V249.2z M393.3,251.1
		c0-0.2,0.1-0.3,0.4-0.4l1-0.3l0.2,0h0.1c0.2,0,0.3,0.1,0.4,0.4c0.4,1,0.7,2.2,0.9,3.5l0,0.1c0,0.3-0.1,0.5-0.4,0.5l-1.1,0.3
		c-0.1,0.1-0.2,0.1-0.2,0.1c-0.2,0-0.4-0.2-0.4-0.5c-0.1-1.1-0.4-2.3-0.8-3.5C393.4,251.3,393.4,251.2,393.3,251.1z M395,278.8
		c-0.1-0.1-0.1-0.2-0.1-0.4c0-0.5,0.1-1.1,0.1-2c0-1.4-0.1-2.7-0.2-4c0-0.3,0.2-0.5,0.5-0.6l2.1-0.2h0.1c0.3,0,0.5,0.2,0.5,0.5
		c0.3,1.8,0.5,3.8,0.5,6c0,0.3-0.2,0.5-0.5,0.6l-2.6,0.3h-0.1C395.2,279,395.1,278.9,395,278.8z M399.8,277.8
		c-0.2-2.3-0.4-4.1-0.8-5.4l0-0.2c0-0.2,0.1-0.3,0.4-0.4l1.9-0.4h0.2c0.3,0,0.4,0.1,0.5,0.4c0.3,0.9,0.5,1.9,0.8,3
		c0.2,1.2,0.4,1.9,0.4,2.3v0.1c0,0.3-0.1,0.4-0.4,0.5l-2.3,0.6h-0.2C400,278.2,399.9,278.1,399.8,277.8z M403.1,249.2h-3.3v6.9h3.3
		V249.2z M400.7,250.8c0-0.4,0.2-0.5,0.6-0.4l1.2,0.3c0.3,0.1,0.5,0.3,0.4,0.6c-0.2,1.4-0.5,2.6-1,3.7c-0.1,0.2-0.1,0.3-0.3,0.3
		c-0.1,0.1-0.3,0.1-0.4,0l-1-0.4c-0.3-0.1-0.4-0.3-0.3-0.7C400.3,253.3,400.6,252.2,400.7,250.8z M404.3,276.6
		c-0.3-1.8-0.7-3.4-1.2-4.6c0-0.1-0.1-0.2-0.1-0.3c0-0.2,0.1-0.3,0.4-0.4l1.7-0.5l0.2,0h0.1c0.2,0,0.3,0.1,0.4,0.3
		c0.7,1.5,1.2,3,1.5,4.5l0,0.2c0,0.1,0,0.2-0.1,0.2c-0.1,0.1-0.2,0.1-0.3,0.2l-2,0.8c-0.1,0-0.1,0-0.2,0
		C404.5,277,404.3,276.9,404.3,276.6z M407.9,278.3v-16.2c0-0.4,0.2-0.5,0.5-0.5h4v-16.2c0-0.4,0.2-0.5,0.5-0.5h3.5
		c0.4,0,0.5,0.2,0.5,0.5v5.7h6.2c0.4,0,0.5,0.2,0.5,0.5v3.5c0,0.4-0.2,0.5-0.5,0.5h-6.2v5.9h5.1c0.4,0,0.5,0.2,0.5,0.5v16.2
		c0,0.4-0.2,0.5-0.5,0.5h-13.7C408.1,278.8,407.9,278.7,407.9,278.3z M418.3,265.9h-6v8.7h6V265.9z"/>
</g>
<g>
	<path d="M295.8,101.5c-2.7-2-4.5-4.7-5.5-8.2V93c0-0.4,0.2-0.7,0.6-0.8l7.4-1.9c0.1,0,0.2,0,0.3,0c0.3,0,0.6,0.2,0.8,0.6
		c1.1,2.7,3,4,5.9,4c1.7,0,3-0.4,3.9-1.1s1.4-1.8,1.4-3.1c0-1.3-0.5-2.3-1.5-3c-1-0.7-2.3-1.1-4-1.1h-1.9c-0.3,0-0.5-0.1-0.6-0.2
		c-0.2-0.2-0.2-0.4-0.2-0.6v-6.1c0-0.3,0.1-0.5,0.2-0.6c0.2-0.1,0.4-0.2,0.6-0.2h2c1.3,0,2.4-0.3,3.3-1c0.9-0.7,1.3-1.5,1.3-2.6
		c0-1.1-0.4-2.1-1.3-2.8c-0.9-0.7-1.9-1.1-3.3-1.1c-2.5,0-4.2,1.4-5.2,4.1c-0.3,0.5-0.6,0.7-1.1,0.6l-7.4-1.8
		c-0.3-0.1-0.5-0.2-0.6-0.4c-0.1-0.2-0.2-0.4-0.1-0.7c1-3.5,2.8-6.3,5.5-8.2c2.7-1.9,5.8-2.9,9.5-2.9c2.8,0,5.2,0.5,7.4,1.5
		c2.2,1,3.9,2.3,5.1,4c1.2,1.7,1.9,3.6,1.9,5.8c0,1.9-0.5,3.6-1.6,5.1c-1.1,1.5-2.6,2.8-4.7,3.9c2.3,0.8,4.1,2,5.4,3.7
		c1.3,1.7,1.9,3.7,1.9,6.1c0,2.4-0.6,4.6-1.9,6.4c-1.3,1.9-3.1,3.3-5.5,4.3c-2.4,1-5.1,1.5-8.2,1.5
		C301.7,104.5,298.5,103.5,295.8,101.5z"/>
	<path d="M333.6,101.9c-2.5-1.7-4.4-4.1-5.7-7.3c-1.3-3.2-2-7-2-11.4s0.7-8.2,2-11.4c1.3-3.2,3.2-5.6,5.7-7.3
		c2.5-1.7,5.4-2.5,8.8-2.5c3.4,0,6.4,0.8,8.9,2.5c2.5,1.7,4.4,4.1,5.7,7.3c1.3,3.2,2,7,2,11.4s-0.7,8.2-2,11.4
		c-1.3,3.2-3.2,5.6-5.7,7.3c-2.5,1.7-5.4,2.5-8.9,2.5C339,104.5,336.1,103.6,333.6,101.9z M337.9,91.8c1.1,1.8,2.6,2.7,4.5,2.7
		c1.9,0,3.4-0.9,4.5-2.7c1.1-1.8,1.6-4.6,1.6-8.5c0-3.9-0.5-6.7-1.6-8.5c-1.1-1.8-2.6-2.7-4.5-2.7c-1.9,0-3.4,0.9-4.5,2.7
		c-1.1,1.8-1.6,4.6-1.6,8.5C336.3,87.2,336.9,90,337.9,91.8z"/>
	<path d="M371.5,101.9c-2.5-1.7-4.4-4.1-5.7-7.3c-1.3-3.2-2-7-2-11.4s0.7-8.2,2-11.4c1.3-3.2,3.2-5.6,5.7-7.3
		c2.5-1.7,5.4-2.5,8.8-2.5c3.4,0,6.4,0.8,8.9,2.5c2.5,1.7,4.4,4.1,5.7,7.3c1.3,3.2,2,7,2,11.4s-0.7,8.2-2,11.4
		c-1.3,3.2-3.2,5.6-5.7,7.3c-2.5,1.7-5.4,2.5-8.9,2.5C376.9,104.5,373.9,103.6,371.5,101.9z M375.8,91.8c1.1,1.8,2.6,2.7,4.5,2.7
		c1.9,0,3.4-0.9,4.5-2.7c1.1-1.8,1.6-4.6,1.6-8.5c0-3.9-0.5-6.7-1.6-8.5c-1.1-1.8-2.6-2.7-4.5-2.7c-1.9,0-3.4,0.9-4.5,2.7
		c-1.1,1.8-1.6,4.6-1.6,8.5C374.2,87.2,374.7,90,375.8,91.8z"/>
</g>
<g>
	<path d="M322.6,153.4l0-0.3c0.5-1,0.8-2.1,1.1-3.5c0.3-1.4,0.5-2.7,0.6-4c0.1-0.4,0.3-0.6,0.7-0.5l3.1,0.5c0.4,0.1,0.6,0.3,0.6,0.7
		c-0.1,1.4-0.3,2.8-0.5,4.3c-0.3,1.5-0.6,2.8-1,4c-0.1,0.3-0.3,0.5-0.5,0.5c-0.2,0-0.3-0.1-0.5-0.1l-3.2-0.9
		C322.8,153.8,322.6,153.6,322.6,153.4z M324,139.3h7.7v-2h-6.5c-0.4,0-0.6-0.2-0.6-0.6v-2.9c0-0.4,0.2-0.6,0.6-0.6h6.5v-2h-7.1
		c-0.4,0-0.6-0.2-0.6-0.6v-15.1c0-0.4,0.2-0.6,0.6-0.6h18.6c0.4,0,0.6,0.2,0.6,0.6v15.1c0,0.4-0.2,0.6-0.6,0.6h-7v2h6.5
		c0.4,0,0.6,0.2,0.6,0.6v2.9c0,0.4-0.2,0.6-0.6,0.6h-6.5v2h7.4c0.4,0,0.6,0.2,0.6,0.6v3c0,0.4-0.2,0.6-0.6,0.6H324
		c-0.4,0-0.6-0.2-0.6-0.6v-3C323.3,139.5,323.6,139.3,324,139.3z M332,118.9h-4v8.3h4V118.9z M328.2,121.2c0-0.2,0.1-0.4,0.5-0.5
		l1.2-0.4l0.2,0h0.1c0.2,0,0.3,0.2,0.5,0.5c0.5,1.2,0.8,2.6,1.1,4.2l0,0.1c0,0.3-0.2,0.5-0.5,0.6l-1.3,0.4c-0.1,0.1-0.2,0.1-0.3,0.1
		c-0.3,0-0.4-0.2-0.5-0.5c-0.1-1.4-0.5-2.7-1-4.1C328.3,121.4,328.3,121.3,328.2,121.2z M330.2,154.1c-0.1-0.1-0.1-0.3-0.1-0.5
		c0.1-0.5,0.1-1.4,0.1-2.4c0-1.7-0.1-3.2-0.2-4.8c0-0.4,0.2-0.6,0.6-0.7l2.5-0.2h0.1c0.4,0,0.6,0.2,0.6,0.5c0.4,2.2,0.6,4.5,0.6,7.1
		c0,0.4-0.2,0.6-0.6,0.7l-3.1,0.4h-0.1C330.4,154.3,330.3,154.2,330.2,154.1z M335.9,152.9c-0.2-2.7-0.5-4.8-0.9-6.5l0-0.3
		c0-0.2,0.2-0.4,0.5-0.5l2.3-0.5h0.2c0.3,0,0.5,0.2,0.6,0.5c0.3,1,0.6,2.2,0.9,3.6c0.3,1.4,0.4,2.3,0.4,2.7v0.1
		c0,0.3-0.2,0.5-0.5,0.6l-2.8,0.7h-0.2C336.2,153.4,336,153.2,335.9,152.9z M339.8,118.9h-4v8.3h4V118.9z M337,120.8
		c0-0.4,0.3-0.6,0.7-0.5l1.4,0.4c0.4,0.1,0.6,0.3,0.5,0.7c-0.2,1.7-0.6,3.1-1.2,4.4c-0.1,0.2-0.2,0.3-0.3,0.4
		c-0.2,0.1-0.3,0.1-0.5,0l-1.2-0.5c-0.4-0.1-0.5-0.4-0.4-0.8C336.5,123.8,336.8,122.4,337,120.8z M341.2,151.5
		c-0.3-2.2-0.8-4-1.4-5.5c0-0.1-0.1-0.2-0.1-0.3c0-0.2,0.2-0.4,0.5-0.5l2-0.6l0.2,0h0.1c0.2,0,0.4,0.1,0.5,0.4
		c0.8,1.7,1.4,3.5,1.8,5.3l0,0.3c0,0.1,0,0.2-0.1,0.3c-0.1,0.1-0.2,0.1-0.4,0.2l-2.3,0.9c-0.1,0-0.2,0-0.3,0
		C341.4,152,341.3,151.8,341.2,151.5z M345.6,153.5v-19.2c0-0.4,0.2-0.6,0.6-0.6h4.8v-19.2c0-0.4,0.2-0.6,0.6-0.6h4.2
		c0.4,0,0.6,0.2,0.6,0.6v6.8h7.4c0.4,0,0.6,0.2,0.6,0.6v4.2c0,0.4-0.2,0.6-0.6,0.6h-7.4v7h6.1c0.4,0,0.6,0.2,0.6,0.6v19.2
		c0,0.4-0.2,0.6-0.6,0.6h-16.3C345.8,154.1,345.6,153.9,345.6,153.5z M357.9,138.7h-7.1V149h7.1V138.7z"/>
</g>
<g>
	<path class="st6" d="M463.6,229c0-0.1,0-0.2,0.1-0.3l8-10.9c-1.1,0.4-2.3,0.6-3.4,0.6c-1.9,0-3.6-0.4-5.1-1.3s-2.7-2.1-3.5-3.7
		c-0.8-1.6-1.2-3.4-1.2-5.4c0-2.1,0.5-4,1.4-5.6s2.3-2.9,4-3.8c1.7-0.9,3.7-1.3,6-1.3s4.2,0.5,6,1.4c1.7,0.9,3.1,2.3,4,3.9
		c1,1.7,1.4,3.5,1.4,5.7c0,2-0.4,3.9-1.2,5.9c-0.8,2-2.3,4.4-4.5,7.3l-5.4,7.5c-0.2,0.2-0.4,0.4-0.7,0.4H464
		C463.7,229.4,463.6,229.3,463.6,229z M465.9,212c1,1,2.3,1.4,3.9,1.4s2.9-0.5,3.9-1.4c1-1,1.5-2.2,1.5-3.8c0-1.6-0.5-2.8-1.5-3.8
		c-1-1-2.3-1.4-3.9-1.4s-2.9,0.5-3.9,1.4c-1,1-1.5,2.2-1.5,3.8C464.4,209.8,464.9,211,465.9,212z"/>
	<path class="st6" d="M490.7,228c-1.8-1.3-3.2-3.2-4.2-5.6c-1-2.5-1.4-5.4-1.4-8.7c0-3.4,0.5-6.3,1.4-8.8c1-2.5,2.4-4.3,4.2-5.6
		c1.8-1.3,4-1.9,6.6-1.9s4.7,0.6,6.5,1.9c1.8,1.3,3.2,3.2,4.2,5.6c1,2.5,1.4,5.4,1.4,8.8c0,3.4-0.5,6.3-1.4,8.7
		c-1,2.5-2.4,4.3-4.2,5.6c-1.8,1.3-4,1.9-6.5,1.9S492.5,229.3,490.7,228z M492.6,221.7c1.1,1.8,2.6,2.7,4.6,2.7c2,0,3.5-0.9,4.6-2.7
		c1.1-1.8,1.6-4.4,1.6-8c0-3.6-0.5-6.2-1.6-8s-2.6-2.7-4.6-2.7c-2,0-3.5,0.9-4.6,2.7c-1.1,1.8-1.6,4.4-1.6,8
		C491,217.2,491.6,219.9,492.6,221.7z"/>
	<path class="st6" d="M519.4,228c-1.8-1.3-3.2-3.2-4.2-5.6c-1-2.5-1.4-5.4-1.4-8.7c0-3.4,0.5-6.3,1.4-8.8c1-2.5,2.4-4.3,4.2-5.6
		c1.8-1.3,4-1.9,6.6-1.9s4.7,0.6,6.5,1.9c1.8,1.3,3.2,3.2,4.2,5.6c1,2.5,1.4,5.4,1.4,8.8c0,3.4-0.5,6.3-1.4,8.7
		c-1,2.5-2.4,4.3-4.2,5.6c-1.8,1.3-4,1.9-6.5,1.9S521.2,229.3,519.4,228z M521.3,221.7c1.1,1.8,2.6,2.7,4.6,2.7c2,0,3.5-0.9,4.6-2.7
		c1.1-1.8,1.6-4.4,1.6-8c0-3.6-0.5-6.2-1.6-8s-2.6-2.7-4.6-2.7c-2,0-3.5,0.9-4.6,2.7c-1.1,1.8-1.6,4.4-1.6,8
		C519.7,217.2,520.3,219.9,521.3,221.7z"/>
	<path class="st6" d="M541.5,229.5l0-0.2c0.4-0.8,0.7-1.9,1-3.1s0.4-2.4,0.6-3.5c0.1-0.4,0.3-0.5,0.6-0.5l2.7,0.4
		c0.4,0.1,0.5,0.3,0.5,0.6c-0.1,1.2-0.2,2.5-0.5,3.8c-0.2,1.3-0.5,2.5-0.9,3.5c-0.1,0.3-0.2,0.4-0.5,0.4c-0.1,0-0.3-0.1-0.4-0.1
		l-2.8-0.8C541.6,229.9,541.5,229.7,541.5,229.5z M542.7,217.2h6.7v-1.7h-5.7c-0.4,0-0.6-0.2-0.6-0.6v-2.6c0-0.4,0.2-0.6,0.6-0.6
		h5.7V210h-6.2c-0.4,0-0.6-0.2-0.6-0.6v-13.2c0-0.4,0.2-0.6,0.6-0.6h16.3c0.4,0,0.6,0.2,0.6,0.6v13.2c0,0.4-0.2,0.6-0.6,0.6h-6.2
		v1.7h5.7c0.4,0,0.6,0.2,0.6,0.6v2.6c0,0.4-0.2,0.6-0.6,0.6h-5.7v1.7h6.5c0.4,0,0.6,0.2,0.6,0.6v2.7c0,0.4-0.2,0.6-0.6,0.6h-17.1
		c-0.4,0-0.6-0.2-0.6-0.6v-2.7C542.1,217.4,542.3,217.2,542.7,217.2z M549.7,199.3h-3.5v7.2h3.5V199.3z M546.4,201.3
		c0-0.2,0.1-0.4,0.4-0.4l1.1-0.4l0.2,0h0.1c0.2,0,0.3,0.1,0.4,0.4c0.4,1.1,0.7,2.3,1,3.7l0,0.1c0,0.3-0.1,0.5-0.4,0.6l-1.1,0.4
		c-0.1,0.1-0.2,0.1-0.2,0.1c-0.2,0-0.4-0.2-0.4-0.5c-0.1-1.2-0.4-2.4-0.9-3.6C546.5,201.5,546.4,201.4,546.4,201.3z M548.1,230.2
		c-0.1-0.1-0.1-0.2-0.1-0.4c0.1-0.5,0.1-1.2,0.1-2.1c0-1.5-0.1-2.8-0.2-4.2c0-0.3,0.2-0.5,0.5-0.6l2.2-0.2h0.1
		c0.3,0,0.5,0.2,0.6,0.5c0.3,1.9,0.5,4,0.5,6.3c0,0.3-0.2,0.5-0.5,0.6l-2.7,0.3h-0.1C548.3,230.3,548.2,230.3,548.1,230.2z
		 M553.2,229.1c-0.2-2.3-0.5-4.2-0.8-5.7l0-0.2c0-0.2,0.1-0.3,0.4-0.4l2-0.4h0.2c0.3,0,0.4,0.1,0.5,0.4c0.3,0.9,0.6,1.9,0.8,3.1
		c0.2,1.2,0.4,2,0.4,2.4v0.1c0,0.3-0.1,0.4-0.4,0.5l-2.4,0.6h-0.2C553.4,229.5,553.2,229.4,553.2,229.1z M556.6,199.3h-3.5v7.2h3.5
		V199.3z M554.1,200.9c0-0.4,0.2-0.5,0.6-0.4l1.2,0.3c0.3,0.1,0.5,0.3,0.4,0.6c-0.2,1.5-0.5,2.7-1.1,3.9c-0.1,0.2-0.1,0.3-0.3,0.3
		s-0.3,0.1-0.4,0l-1-0.4c-0.3-0.1-0.4-0.3-0.3-0.7C553.7,203.6,553.9,202.4,554.1,200.9z M557.8,227.8c-0.3-1.9-0.7-3.5-1.2-4.8
		c0-0.1-0.1-0.2-0.1-0.3c0-0.2,0.1-0.4,0.4-0.4l1.8-0.5l0.2,0h0.1c0.2,0,0.3,0.1,0.4,0.4c0.7,1.5,1.2,3.1,1.5,4.7l0,0.2
		c0,0.1,0,0.2-0.1,0.3c-0.1,0.1-0.2,0.1-0.3,0.2l-2.1,0.8c-0.1,0-0.1,0-0.2,0C558,228.3,557.9,228.1,557.8,227.8z M561.6,229.6
		v-16.9c0-0.4,0.2-0.6,0.6-0.6h4.2v-16.9c0-0.4,0.2-0.6,0.6-0.6h3.7c0.4,0,0.6,0.2,0.6,0.6v5.9h6.5c0.4,0,0.6,0.2,0.6,0.6v3.6
		c0,0.4-0.2,0.6-0.6,0.6h-6.5v6.2h5.3c0.4,0,0.6,0.2,0.6,0.6v16.9c0,0.4-0.2,0.6-0.6,0.6h-14.3C561.8,230.2,561.6,230,561.6,229.6z
		 M572.4,216.6h-6.3v9.1h6.3V216.6z"/>
</g>
<g>
	<path class="st6" d="M471.2,162.3c-0.7,0.6-1.3,1.4-1.7,2.5c-0.1,0.3-0.3,0.4-0.5,0.3l-3.5-1c-0.2-0.1-0.3-0.2-0.3-0.3
		c0-0.1,0-0.2,0.1-0.3c0.7-2.1,1.8-3.7,3.3-4.8c1.5-1.1,3.4-1.7,5.5-1.7c1.6,0,3.1,0.3,4.3,0.9c1.2,0.6,2.2,1.4,2.9,2.5
		c0.7,1.1,1,2.3,1,3.7c0,1.1-0.1,2.1-0.4,3c-0.3,0.9-0.8,2-1.5,3.1c-0.7,1.1-1.8,2.5-3.2,4l-3.7,4h9.2c0.1,0,0.2,0,0.3,0.1
		c0.1,0.1,0.1,0.2,0.1,0.3v3.4c0,0.1,0,0.3-0.1,0.3c-0.1,0.1-0.2,0.1-0.3,0.1H466c-0.3,0-0.4-0.1-0.4-0.4V181c0-0.2,0.1-0.4,0.2-0.5
		l6.2-7c1.5-1.7,2.7-3,3.4-4c0.8-1,1.3-1.9,1.6-2.6c0.3-0.7,0.4-1.5,0.4-2.2c0-0.9-0.3-1.7-1-2.3c-0.7-0.6-1.6-0.8-2.7-0.8
		C472.8,161.4,471.9,161.7,471.2,162.3z"/>
	<path class="st6" d="M487.1,174v-3.4c0-0.3,0.1-0.4,0.4-0.4h10.3c0.1,0,0.2,0,0.3,0.1c0.1,0.1,0.1,0.2,0.1,0.3v3.4
		c0,0.1,0,0.3-0.1,0.3c-0.1,0.1-0.2,0.1-0.3,0.1h-10.3C487.3,174.5,487.1,174.3,487.1,174z"/>
	<path class="st6" d="M507.6,182.1v-18.5l-4.6,1.8c-0.1,0-0.1,0-0.2,0.1c-0.1,0-0.3-0.1-0.4-0.3l-0.6-1.2c0-0.1-0.1-0.1-0.1-0.3
		c0-0.1,0.1-0.3,0.2-0.4l6.6-5.7c0.1-0.1,0.3-0.2,0.5-0.2h2.7c0.3,0,0.4,0.1,0.4,0.4v24.3c0,0.3-0.1,0.4-0.4,0.4h-3.7
		C507.8,182.5,507.6,182.4,507.6,182.1z"/>
	<path class="st6" d="M521.7,181.5c-1.5-1-2.6-2.5-3.4-4.5c-0.8-2-1.2-4.3-1.2-7c0-2.7,0.4-5.1,1.2-7c0.8-2,1.9-3.5,3.4-4.5
		c1.5-1,3.2-1.6,5.2-1.6c2,0,3.8,0.5,5.2,1.6c1.5,1,2.6,2.5,3.4,4.5c0.8,2,1.2,4.3,1.2,7c0,2.7-0.4,5-1.2,7c-0.8,2-1.9,3.5-3.4,4.5
		c-1.5,1-3.2,1.6-5.2,1.6C524.9,183,523.1,182.5,521.7,181.5z M523.2,176.4c0.9,1.4,2.1,2.1,3.7,2.1c1.6,0,2.8-0.7,3.7-2.1
		c0.9-1.4,1.3-3.5,1.3-6.4s-0.4-5-1.3-6.4s-2.1-2.1-3.7-2.1c-1.6,0-2.8,0.7-3.7,2.1s-1.3,3.6-1.3,6.4
		C522,172.8,522.4,175,523.2,176.4z"/>
	<path class="st6" d="M542.5,166.3c-0.2,0-0.3-0.1-0.4-0.2l-2-3c-0.1-0.1-0.1-0.2-0.1-0.3c0-0.1,0.1-0.3,0.3-0.3
		c2.2-0.7,4.2-1.8,6.1-3.1c1.9-1.4,3.4-2.8,4.4-4.2c0.1-0.2,0.3-0.3,0.6-0.3l3.6,0.5c0.2,0.1,0.3,0.2,0.3,0.3c0,0.1,0,0.1-0.1,0.3
		l-1,1.3h11.1c0.3,0,0.4,0.1,0.4,0.4v2.8c0,0.2,0,0.4-0.1,0.5c-2.5,3.7-6.2,6.8-10.9,9.4h11.5c0.3,0,0.4,0.1,0.4,0.4v11.9
		c0,0.3-0.1,0.4-0.4,0.4H546c-0.3,0-0.4-0.1-0.4-0.4v-8.6c-0.8,0.3-2,0.6-3.7,1.1h-0.2c-0.2,0-0.3-0.1-0.4-0.3l-1.5-3.2
		c0-0.1,0-0.2-0.1-0.2c0-0.2,0.1-0.3,0.3-0.3c3.8-0.7,7.2-1.6,10.3-2.9c-1.4-1.3-2.9-2.5-4.6-3.6c-0.9,0.5-2,1.1-3.2,1.6
		C542.7,166.3,542.6,166.3,542.5,166.3z M554.2,166.4c2.8-1.6,5-3.4,6.8-5.5h-10c-0.4,0.4-1,0.9-1.9,1.6
		C551,163.7,552.7,165,554.2,166.4z M562.7,173.9h-13.1v5.5h13.1V173.9z"/>
</g>
<g>
	<path class="st6" d="M485.8,41.8V20.3c0-0.3,0.1-0.4,0.4-0.4h3.5c0.2,0,0.4,0.1,0.5,0.3l9.9,15.2V20.3c0-0.3,0.1-0.4,0.4-0.4h3.2
		c0.3,0,0.4,0.1,0.4,0.4v21.5c0,0.3-0.1,0.4-0.4,0.4h-3.5c-0.2,0-0.4-0.1-0.5-0.3l-9.9-15.2v15.1c0,0.3-0.1,0.4-0.4,0.4h-3.2
		C486,42.2,485.8,42.1,485.8,41.8z"/>
	<path class="st6" d="M511.4,41.5c-1.2-0.7-2.1-1.7-2.8-2.9c-0.6-1.2-1-2.6-1-4.2c0-1.6,0.3-3,1-4.2c0.6-1.2,1.6-2.2,2.8-2.9
		c1.2-0.7,2.6-1,4.2-1c2.4,0,4.2,0.8,5.5,2.4c1.3,1.6,1.9,3.7,1.9,6.5c0,0.3-0.1,0.5-0.4,0.5h-10.8c0.2,1.1,0.6,1.9,1.2,2.5
		c0.6,0.6,1.5,0.9,2.5,0.9c1.6,0,2.7-0.6,3.4-1.8c0.1-0.2,0.3-0.2,0.5-0.2l2.7,0.9c0.2,0.1,0.3,0.2,0.3,0.3c0,0.1,0,0.2-0.1,0.3
		c-0.7,1.3-1.6,2.3-2.8,3c-1.2,0.7-2.6,1-4.1,1C514,42.5,512.6,42.1,511.4,41.5z M517.7,30.4c-0.6-0.5-1.3-0.8-2.1-0.8
		c-0.9,0-1.7,0.3-2.4,0.8c-0.6,0.5-1.1,1.2-1.3,2.2h6.9C518.6,31.7,518.3,31,517.7,30.4z"/>
	<path class="st6" d="M524,41.9c0-0.1,0-0.1,0.1-0.2l5.3-7.6l-5-7.2c-0.1-0.1-0.1-0.2-0.1-0.2c0-0.2,0.1-0.3,0.3-0.3h3.6
		c0.2,0,0.4,0.1,0.5,0.3l3.2,4.6l3.2-4.6c0.1-0.2,0.3-0.3,0.5-0.3h3.4c0.2,0,0.3,0.1,0.3,0.2c0,0.1,0,0.2-0.1,0.3l-5,7.2l5.3,7.6
		c0.1,0.1,0.1,0.2,0.1,0.2c0,0.1,0,0.1-0.1,0.2c-0.1,0-0.1,0.1-0.2,0.1h-3.6c-0.2,0-0.4-0.1-0.5-0.3l-3.4-5.1l-3.5,5.1
		c-0.1,0.2-0.3,0.3-0.5,0.3h-3.4C524.1,42.2,524,42.1,524,41.9z"/>
	<path class="st6" d="M544.6,40.9c-0.9-1.1-1.3-2.7-1.3-4.8V30h-2.3c-0.1,0-0.2,0-0.3-0.1c-0.1-0.1-0.1-0.2-0.1-0.3v-2.7
		c0-0.3,0.1-0.4,0.4-0.4h2.3v-4.2c0-0.1,0-0.2,0.1-0.3c0.1-0.1,0.2-0.1,0.3-0.1h3.1c0.1,0,0.2,0,0.3,0.1c0.1,0.1,0.1,0.2,0.1,0.3
		v4.2h3.7c0.3,0,0.4,0.1,0.4,0.4v2.7c0,0.1,0,0.2-0.1,0.3S551,30,550.9,30h-3.7v6.4c0,0.9,0.1,1.5,0.4,1.9c0.3,0.4,0.7,0.6,1.3,0.6
		c0.5,0,0.9-0.3,1.2-0.8c0.1-0.2,0.3-0.3,0.5-0.2L553,39c0.1,0.1,0.2,0.2,0.2,0.3c0,0.1,0,0.2-0.1,0.3c-1,1.9-2.6,2.8-4.6,2.8
		C546.8,42.5,545.5,42,544.6,40.9z"/>
</g>
</svg>
