<!-- Generator: Adobe Illustrator 25.0.0, SVG Export Plug-In  -->
<svg version="1.1" xmlns="http://www.w3.org/2000/svg" xmlns:xlink="http://www.w3.org/1999/xlink" x="0px" y="0px" width="238.3px"
	 height="45.4px" viewBox="0 0 238.3 45.4" style="overflow:visible;enable-background:new 0 0 238.3 45.4;" xml:space="preserve">
<style type="text/css">
	.st0{fill:#FFFFFF;}
</style>
<defs>
</defs>
<g>
	<path class="st0" d="M5.3,45.3H0.7c-0.5,0-0.7-0.2-0.7-0.7V1.8c0-0.5,0.2-0.7,0.7-0.7h18c0.5,0,0.7,0.2,0.7,0.7v16.5
		c0,0.5-0.2,0.7-0.7,0.7H6v25.7C6,45.1,5.8,45.3,5.3,45.3z M6,5.8v2.5h7.8V5.8H6z M6,12v2.6h7.8V12H6z M8.5,34v-3.6
		c0-0.5,0.2-0.7,0.7-0.7h4.2l0-1.3v-2.6h-3.3c-0.5,0-0.7-0.2-0.7-0.7v-3.3c0-0.5,0.2-0.7,0.7-0.7h21.5c0.5,0,0.7,0.2,0.7,0.7v3.3
		c0,0.5-0.2,0.7-0.7,0.7h-3v3.9h3.8c0.5,0,0.7,0.2,0.7,0.7V34c0,0.5-0.2,0.7-0.7,0.7h-3.8v8.9c0,0.5-0.2,0.7-0.7,0.7h-4
		c-0.5,0-0.7-0.2-0.7-0.7v-8.9h-4.6c-0.3,2.1-0.8,3.9-1.6,5.5c-0.8,1.6-1.9,3-3.3,4.1c0,0-0.1,0.1-0.2,0.1s-0.2,0.1-0.3,0.1
		c-0.2,0-0.3,0-0.5-0.1l-3.9-2.3c-0.2-0.1-0.3-0.3-0.3-0.5c0-0.2,0.1-0.3,0.3-0.4c1.3-0.8,2.3-1.7,3-2.7c0.7-1,1.2-2.2,1.4-3.7H9.2
		C8.7,34.7,8.5,34.5,8.5,34z M18.9,25.8v2.5l0,1.4h4.4v-3.9H18.9z M22.1,18.3V1.8c0-0.5,0.2-0.7,0.7-0.7h18.1c0.5,0,0.7,0.2,0.7,0.7
		v35.3c0,2-0.2,3.6-0.6,4.7s-1.1,1.9-2.2,2.5c-1.1,0.6-2.6,0.9-4.7,0.9h-1.3c-0.4,0-0.7-0.2-0.8-0.5l-1.4-4.1c0-0.1,0-0.2,0-0.2
		c0-0.4,0.2-0.5,0.7-0.5c1.2,0,2.1,0,2.8-0.2c0.6-0.2,1-0.5,1.3-1c0.2-0.5,0.3-1.2,0.3-2.2V19H22.8C22.3,19,22.1,18.7,22.1,18.3z
		 M27.7,5.8v2.5h7.9V5.8H27.7z M27.7,12v2.6h7.9V12H27.7z"/>
	<path class="st0" d="M65.6,44.9l-3.1-4.4c-0.1-0.2-0.1-0.3-0.1-0.4c0-0.2,0.1-0.4,0.3-0.5c2.9-1.5,5.4-3.6,7.4-6.3
		c-2.2-1.8-4.2-3.3-5.9-4.5c-0.3-0.2-0.4-0.5-0.3-0.9c1.2-4.3,2.1-9.2,2.8-14.6h-2.8c-0.5,0-0.7-0.2-0.7-0.7V8.1
		c0-0.5,0.2-0.7,0.7-0.7h3.4c0.2-2.7,0.3-5,0.3-6.7c0-0.5,0.2-0.7,0.7-0.7l4.6,0c0.5,0,0.7,0.2,0.7,0.7c0,2-0.2,4.2-0.4,6.7h7.9
		c0.5,0,0.7,0.2,0.7,0.7c0,5-0.3,9.4-0.9,13.3c-0.5,3.8-1.5,7.3-2.9,10.4c1.6,1.4,3.2,2.9,4.8,4.6c0.2,0.2,0.2,0.3,0.2,0.5
		c0,0.1,0,0.3-0.1,0.4l-2.9,4.3c-0.1,0.2-0.3,0.3-0.5,0.3c-0.1,0-0.3-0.1-0.4-0.2c-1.3-1.5-2.8-3-4.4-4.5c-2.2,3.1-4.8,5.7-7.9,7.8
		c-0.1,0.1-0.3,0.1-0.4,0.1C66,45.2,65.8,45.1,65.6,44.9z M75.2,21.3c0.4-2.6,0.7-5.3,0.7-8.1h-3.3c-0.7,5.4-1.5,9.6-2.2,12.4
		c0.9,0.6,2,1.4,3.1,2.3C74.2,26.1,74.8,23.9,75.2,21.3z M103.7,23.1c-0.3,0-0.5-0.2-0.6-0.5l-0.9-2.7c-5.5,0.9-11.4,1.5-17.8,2
		h-0.1c-0.2,0-0.4-0.1-0.5-0.2s-0.3-0.3-0.3-0.4l-0.9-3.4c0-0.2,0-0.4,0-0.6c0-0.5,0.2-1.2,0.7-2c0.7-1.3,1.8-3.5,3.2-6.7
		c1.4-3.2,2.4-5.8,2.9-7.8c0.1-0.4,0.3-0.5,0.7-0.5c0.3,0,0.5,0.1,0.7,0.1l4.4,0.9c0.5,0.1,0.7,0.4,0.5,0.8
		c-1.3,3.8-3.4,8.4-6.3,13.8c1.5-0.1,4.1-0.4,7.8-0.9l2.8-0.4c-1.1-2.4-2.3-4.5-3.6-6.6c-0.1-0.2-0.1-0.3-0.1-0.4
		c0-0.3,0.1-0.4,0.4-0.5l4-1.5c0.1,0,0.2,0,0.3,0c0.2,0,0.4,0.1,0.5,0.3c3.2,4.9,5.6,9.9,7.3,14.8c0,0.1,0,0.2,0,0.3
		c0,0.3-0.2,0.5-0.5,0.6L104,23C103.9,23.1,103.8,23.1,103.7,23.1z M84,43.7V25.2c0-0.5,0.2-0.7,0.7-0.7h20.8c0.5,0,0.7,0.2,0.7,0.7
		v18.5c0,0.5-0.2,0.7-0.7,0.7H84.7C84.2,44.4,84,44.2,84,43.7z M100.3,39v-9.1H89.8V39H100.3z"/>
	<path class="st0" d="M127.5,16.6c0-0.2,0-0.3,0.1-0.4l2.5-3.8c0.3-0.4,0.6-0.4,0.9-0.2c2.8,1.3,5.5,2.9,7.9,4.9
		c0.2,0.2,0.3,0.4,0.3,0.5c0,0.1,0,0.3-0.1,0.4l-2.8,3.9c-0.2,0.2-0.3,0.3-0.5,0.3c-0.1,0-0.3-0.1-0.4-0.2c-2.1-1.9-4.6-3.5-7.6-5
		C127.6,17,127.5,16.8,127.5,16.6z M127.6,40.6l0.1-0.4c1.2-2.1,2.2-4.5,3.2-7.1c1-2.6,1.8-5.3,2.4-7.9c0.1-0.3,0.2-0.4,0.3-0.5
		c0.1-0.1,0.3-0.1,0.6,0.1l4.1,2.1c0.4,0.2,0.5,0.5,0.4,0.9c-0.6,2.7-1.3,5.4-2.3,8.2s-2,5.2-3.1,7.4c-0.2,0.3-0.3,0.4-0.5,0.4
		c-0.1,0-0.2,0-0.3-0.1l-4.5-2.4C127.7,41,127.6,40.8,127.6,40.6z M128.1,4.9c0-0.1,0-0.3,0.1-0.4l2.8-3.7c0.2-0.3,0.4-0.4,0.6-0.4
		c0.1,0,0.2,0,0.3,0.1c1.3,0.6,2.6,1.3,3.9,2.2s2.5,1.8,3.5,2.8c0.2,0.2,0.2,0.3,0.2,0.5c0,0.1-0.1,0.3-0.2,0.5l-3,3.9
		c-0.1,0.2-0.3,0.3-0.4,0.3c-0.2,0-0.3-0.1-0.5-0.2c-0.9-0.9-2-1.8-3.3-2.8c-1.3-0.9-2.5-1.7-3.7-2.3C128.2,5.3,128.1,5.1,128.1,4.9
		z M137.5,42.3c0-0.2,0.1-0.3,0.3-0.5c2.1-1.7,3.7-3.8,4.8-6.5c0.2-0.4,0.5-0.5,0.9-0.3l3.8,1.7c0.4,0.2,0.5,0.5,0.3,0.9
		c-0.6,1.4-1.3,2.8-2.2,4.1c-0.8,1.3-1.8,2.5-2.7,3.4c-0.2,0.2-0.3,0.2-0.5,0.2c-0.1,0-0.3,0-0.4-0.1l-4-2.4
		C137.6,42.6,137.5,42.5,137.5,42.3z M141,1.3h14.2c0.5,0,0.7,0.2,0.7,0.7v32c0,0.5-0.2,0.7-0.7,0.7H141c-0.5,0-0.7-0.2-0.7-0.7V2
		C140.3,1.6,140.5,1.3,141,1.3z M145.3,6.5v4.7h5.5V6.5H145.3z M145.3,15.8v4.5h5.5v-4.5H145.3z M145.3,24.8v4.8h5.5v-4.8H145.3z
		 M151.1,40.9c-0.7-1.2-1.5-2.3-2.4-3.3c-0.1-0.1-0.2-0.3-0.2-0.5c0-0.2,0.1-0.4,0.4-0.5l3.4-1.7c0.1-0.1,0.2-0.1,0.4-0.1
		c0.2,0,0.4,0.1,0.5,0.2c0.8,0.8,1.6,1.8,2.4,2.9c0.8,1.2,1.5,2.3,2,3.3c0.1,0.1,0.1,0.2,0.1,0.3c0,0.2-0.1,0.4-0.4,0.5l-3.7,2.3
		c-0.1,0.1-0.3,0.1-0.4,0.1c-0.2,0-0.3-0.1-0.5-0.4C152.3,43.2,151.8,42.1,151.1,40.9z M159,3.2h3.9c0.5,0,0.7,0.2,0.7,0.7v29.2
		c0,0.5-0.2,0.7-0.7,0.7H159c-0.5,0-0.7-0.2-0.7-0.7V3.9C158.3,3.5,158.5,3.2,159,3.2z M159.8,39.7c0-0.2,0.1-0.3,0.2-0.4
		c0.1-0.1,0.3-0.1,0.5-0.1l2.1,0.1c1.5,0,2.5-0.2,3-0.6c0.5-0.4,0.7-1.1,0.7-2.2V0.7c0-0.5,0.2-0.7,0.7-0.7h4.1
		c0.5,0,0.7,0.2,0.7,0.7v37.5c0,1.9-0.2,3.3-0.6,4.3c-0.4,1-1.2,1.7-2.3,2.2s-2.8,0.7-4.9,0.7c-0.7,0-1.2,0-1.6,0
		c-0.4-0.1-0.7-0.2-0.8-0.5l-1.7-4.8C159.8,39.9,159.8,39.8,159.8,39.7z"/>
	<path class="st0" d="M192.7,33.5v-1.8c0-0.5,0.2-0.7,0.7-0.6l1.9,0.1c0.4,0.1,0.6,0.3,0.6,0.6l0,2.8c0,3.5-0.2,6.6-0.5,9.2
		c-0.1,0.5-0.3,0.6-0.8,0.5l-2.3-0.6c-0.4-0.1-0.5-0.3-0.5-0.7v-0.1C192.4,40,192.7,36.9,192.7,33.5z M214.4,45.3
		c-0.2,0-0.3-0.1-0.5-0.2l-3.2-3c-0.5,1.2-1.3,2-2.3,2.5c-1,0.5-2.4,0.7-4.2,0.7c-0.3,0-0.6,0-0.7-0.1c-0.2-0.1-0.3-0.2-0.3-0.5
		l-1.4-4c0-0.1,0-0.2,0-0.2c0-0.2,0.1-0.3,0.2-0.4s0.3-0.1,0.5-0.1c1.3,0,2.2,0,2.8-0.1c0.6-0.1,1-0.4,1.3-0.8
		c0.3-0.4,0.5-1.1,0.6-2l0.1-1.3c-0.1,0.1-0.2,0.1-0.3,0.2l-0.6,0.3c-0.1,0-0.2,0.1-0.3,0.1c-0.3,0-0.4-0.2-0.5-0.5
		c-0.3-1.6-0.7-3-1.2-4.2c0-0.1,0-0.2,0-0.3c0-0.3,0.1-0.4,0.4-0.5l0.5-0.2c0.1,0,0.2,0,0.3,0c0.3,0,0.5,0.1,0.6,0.4
		c0.6,1.3,1,2.5,1.2,3.6l0.1-5.2h-13.2c-0.5,0-0.7-0.2-0.7-0.7V1.9c0-0.5,0.2-0.7,0.7-0.7h17.6c0.5,0,0.7,0.2,0.7,0.7v3.7
		c0,0.5-0.2,0.7-0.7,0.7h-4.4v3.1h2.9c0.5,0,0.7,0.2,0.7,0.6c2.2-0.9,4.3-2.3,6.2-4.1c1.9-1.8,3.4-3.6,4.3-5.5
		c0.1-0.3,0.4-0.5,0.8-0.5h4.2c0.4,0,0.6,0.1,0.8,0.4c1.2,1.9,2.7,3.7,4.6,5.3s3.8,2.9,5.9,3.8c0.3,0.1,0.4,0.3,0.4,0.5
		c0,0.1-0.1,0.2-0.1,0.3l-1.9,4.5c-0.2,0.4-0.5,0.5-0.9,0.3c-1.3-0.7-2.6-1.5-4-2.6v1.9c0,0.5-0.2,0.7-0.7,0.7h-11.8
		c-0.5,0-0.7-0.2-0.7-0.7v-1.8c-1.5,1.3-2.9,2.2-4.2,2.8c-0.1,0.1-0.2,0.1-0.3,0.1c-0.2,0-0.4-0.1-0.6-0.4l-2-3.8v1.6
		c0,0.5-0.2,0.7-0.7,0.7h-2.9v3.1h3.2c0.5,0,0.7,0.2,0.7,0.7v2.9c0,0.5-0.2,0.7-0.7,0.7h-3.2v3h4.1c0.5,0,0.7,0.2,0.7,0.7
		c-0.1,5.8-0.2,9.9-0.4,12.3c-0.1,1.4-0.3,2.6-0.6,3.6c1.5-0.9,2.6-2.1,3.6-3.5s1.5-2.9,1.8-4.4c0-0.2,0.1-0.4,0.2-0.5
		s0.3-0.1,0.5-0.1l3.7,0.6c0.4,0,0.6,0.2,0.6,0.5c0,0.4-0.1,1-0.4,1.9c1,1.6,2.4,2.8,4.2,3.7c1.6-1.7,2.5-3.7,2.8-6.2
		c0.1-0.5,0.3-0.7,0.8-0.6l3.8,0.5c0.2,0,0.4,0.1,0.5,0.2c0.1,0.1,0.1,0.3,0.1,0.5c-0.1,0.7-0.2,1.5-0.4,2.2
		c1.1,1.6,2.5,2.9,4.4,3.9c0.3,0.2,0.4,0.3,0.4,0.5c0,0.1-0.1,0.2-0.1,0.3l-1.9,3.7c-0.1,0.3-0.3,0.4-0.5,0.4l-0.4-0.1
		c-1.6-1-2.9-2.3-4-3.9c-1.1,1.8-2.3,3.2-3.6,4.2c-0.1,0.1-0.3,0.2-0.4,0.2c-0.2,0-0.4-0.1-0.5-0.2l-2.1-1.9l-0.4,0.6
		c-0.2,0.3-0.3,0.4-0.5,0.4c-0.1,0-0.2,0-0.4-0.1c-1.4-0.9-2.6-2.2-3.6-3.7c-1.2,2.1-2.6,3.7-4.2,4.8
		C214.8,45.3,214.6,45.3,214.4,45.3z M197.6,31.4l1.2-0.1l0.1,0c0.4,0,0.6,0.2,0.6,0.6c0.6,3.1,0.9,6.1,0.9,9.1
		c0,0.5-0.2,0.8-0.6,0.8l-1.8,0.3c-0.4,0-0.6-0.2-0.6-0.7l0-2.2c0-2.6-0.2-4.9-0.5-6.9V32C197,31.6,197.2,31.4,197.6,31.4z
		 M202.6,6.3h-3.7v3.1h3.7V6.3z M202.6,13.8h-3.7v3.1h3.7V13.8z M202.6,21.3h-3.7v3h3.7V21.3z M200.9,31.7c0-0.3,0.2-0.5,0.5-0.6
		l0.9-0.2h0.2c0.3,0,0.5,0.2,0.6,0.5c0.7,2.3,1.2,4.6,1.4,7.2v0.1c0,0.3-0.2,0.5-0.5,0.6l-1.3,0.3c-0.1,0-0.1,0-0.2,0
		c-0.4,0-0.5-0.2-0.5-0.6c-0.1-2.6-0.4-5-1-7.2C200.9,31.9,200.9,31.8,200.9,31.7z M214.1,17.4h9.2c0.5,0,0.7,0.2,0.7,0.7v13.1
		c0,0.5-0.2,0.7-0.7,0.7h-9.2c-0.5,0-0.7-0.2-0.7-0.7V18.1C213.5,17.7,213.7,17.4,214.1,17.4z M220.3,22.1h-2.8v5.3h2.8V22.1z
		 M224.5,5.1c-1,1.8-2.3,3.6-4,5.4h8.3C226.9,8.6,225.5,6.8,224.5,5.1z M226.4,17.4h9.4c0.5,0,0.7,0.2,0.7,0.7v13.1
		c0,0.5-0.2,0.7-0.7,0.7h-9.4c-0.5,0-0.7-0.2-0.7-0.7V18.1C225.7,17.7,225.9,17.4,226.4,17.4z M232.4,22.1h-2.9v5.3h2.9V22.1z"/>
</g>
</svg>
