<svg xmlns="http://www.w3.org/2000/svg" xml:space="preserve" width="51.2" height="50.3" style="overflow:visible" viewBox="0 0 51.2 50.3"><path fill="#fff" d="M28.9 50.1c-2.9-.2-5.2-1.1-6.8-2.7s-2.3-3.5-2.3-5.8c0-1.3.3-2.7.9-4s1.4-2.6 2.6-3.8c1.3-1.4 3-2.9 4.8-4.5 1.9-1.6 3.6-3 5-4.1h-8.8q-.9 0-.9-.9v-3.4c-1 1-1.6 1.5-1.9 1.5s-.5-.1-.7-.4l-2.1-3.1V44q0 .9-.9.9H.8q-.9 0-.9-.9V2.6c.1-.6.4-.9 1-.9h17q.9 0 .9.9v9.3c1.5-1.6 2.8-3.4 4-5.3 1.1-2 2-3.9 2.6-5.9 0-.5.2-.7.6-.7h.3l7.6 1.4c.6.1.8.5.7 1l-.7 2.1H49q.9 0 .9.9v7.5q0 .9-.9.9H29.3l-1.9 2.7h19.3q.9 0 .9.9v6.3c0 .4-.2.8-.5 1-2.3 1.6-5.1 3.8-8.6 6.6s-6 5.1-7.6 6.8c-.6.7-.9 1.2-.9 1.7 0 .8.6 1.3 1.9 1.4.6.1 1.7.1 3.2.1s2.6-.1 3.5-.2c.8-.1 1.4-.4 1.9-.8s.8-1.2 1-2.3.4-2.7.5-4.9c0-.3.1-.6.3-.7s.4-.2.7-.1l7.5 2.9c.4.1.7.4.7.9v.2c-.3 4.4-1 7.6-2 9.6-1 1.9-2.6 3.2-4.6 3.7s-5.2.8-9.6.8c-2.2-.1-4.3-.1-6.1-.3M10.8 36.2V10.3H8.2v25.9z" style="fill:#fff"/></svg>