<!-- Generator: Adobe Illustrator 25.0.0, SVG Export Plug-In  -->
<svg version="1.1" xmlns="http://www.w3.org/2000/svg" xmlns:xlink="http://www.w3.org/1999/xlink" x="0px" y="0px" width="309.9px"
	 height="28.8px" viewBox="0 0 309.9 28.8" style="overflow:visible;enable-background:new 0 0 309.9 28.8;" xml:space="preserve">
<style type="text/css">
	.st0{fill:#DF032E;}
</style>
<defs>
</defs>
<g>
	<path class="st0" d="M0,17.4v-17C0,0.1,0.1,0,0.4,0h8.1c0.3,0,0.4,0.1,0.4,0.4v3c0,0.3-0.1,0.4-0.4,0.4H4.2v13.6
		c0,0.3-0.1,0.4-0.4,0.4H0.4C0.1,17.8,0,17.7,0,17.4z"/>
	<path class="st0" d="M15.1,15.7v-3.2c0-0.3,0.1-0.4,0.4-0.4h24.9c0.3,0,0.4,0.1,0.4,0.4v3.2c0,0.3-0.1,0.4-0.4,0.4H15.5
		C15.2,16.1,15.1,15.9,15.1,15.7z"/>
	<path class="st0" d="M44,26.4c0-0.1,0-0.1,0-0.2c0.6-1.4,1-3.1,1.3-5.2c0.3-2,0.4-4,0.4-6c0-0.1,0-0.2,0.1-0.3
		c0.1-0.1,0.2-0.1,0.3-0.1l2.5,0.2c0.3,0,0.4,0.2,0.4,0.4c0,1.3-0.1,2.7-0.2,4.1c0.4,0.7,0.9,1.4,1.6,2v-8.4h-5.1
		c-0.3,0-0.4-0.1-0.4-0.4V9.9c0-0.3,0.1-0.4,0.4-0.4h4.8V6.8h-3.9c-0.3,0-0.4-0.1-0.4-0.4V3.8c0-0.3,0.1-0.4,0.4-0.4h3.9V1.2
		c0-0.3,0.1-0.4,0.4-0.4h2.6c0.3,0,0.4,0.1,0.4,0.4v2.2h3.4c0.3,0,0.4,0.1,0.4,0.4v2.6c0,0.3-0.1,0.4-0.4,0.4h-3.4v2.7h4
		c0.3,0,0.4,0.1,0.4,0.4v2.6c0,0.3-0.1,0.4-0.4,0.4h-3.8v2.9h3.3c0.3,0,0.4,0.1,0.4,0.4v2.6c0,0.3-0.1,0.4-0.4,0.4h-3.3V23
		c1.1,0.3,2.3,0.5,3.6,0.6c1.5,0.1,3.4,0.2,5.5,0.2c2.8,0,5.7-0.1,8.6-0.4h0.1c0.2,0,0.4,0.1,0.4,0.3l0,0.2L71,26.7
		c-0.1,0.2-0.2,0.3-0.4,0.4c-2.3,0.2-4.7,0.2-7.3,0.2c-2.5,0-4.5-0.1-6-0.2c-2.1-0.2-3.9-0.6-5.3-1.1c-1.4-0.6-2.6-1.5-3.7-2.7
		c-0.2,1.4-0.5,2.8-0.9,4.2c-0.1,0.2-0.2,0.3-0.4,0.3c0,0-0.1,0-0.2-0.1l-2.6-1.1C44.1,26.6,44,26.5,44,26.4z M62.5,21.9
		c-1.1,0-2-0.3-2.6-0.8c-0.6-0.5-0.9-1.4-0.9-2.6v-16c0-0.3,0.1-0.4,0.4-0.4h10.4c0.3,0,0.4,0.1,0.4,0.4v10c0,0.3-0.1,0.4-0.4,0.4
		h-7.3v4.6c0,0.4,0.1,0.7,0.2,0.8s0.4,0.2,0.8,0.3l1.3,0l1.3,0c0.5,0,0.8-0.1,1-0.4c0.2-0.2,0.4-0.6,0.5-1.1
		c0.1-0.5,0.2-1.3,0.3-2.2c0-0.4,0.2-0.5,0.5-0.4l2.6,0.9c0.2,0.1,0.3,0.1,0.3,0.2c0,0,0,0.1,0,0.3c-0.1,1.7-0.3,3-0.6,3.8
		c-0.3,0.8-0.8,1.4-1.4,1.7s-1.5,0.5-2.7,0.5l-2.3,0L62.5,21.9z M66.7,9.5v-4h-4.2v4H66.7z"/>
	<path class="st0" d="M85.9,11.4v17c0,0.3-0.1,0.4-0.4,0.4h-8.1c-0.3,0-0.4-0.1-0.4-0.4v-3c0-0.3,0.1-0.4,0.4-0.4h4.3V11.4
		c0-0.3,0.1-0.4,0.4-0.4h3.3C85.7,11,85.9,11.1,85.9,11.4z"/>
	<path class="st0" d="M96.3,17.4v-17c0-0.3,0.1-0.4,0.4-0.4h8.1c0.3,0,0.4,0.1,0.4,0.4v3c0,0.3-0.1,0.4-0.4,0.4h-4.3v13.6
		c0,0.3-0.1,0.4-0.4,0.4h-3.3C96.4,17.8,96.3,17.7,96.3,17.4z"/>
	<path class="st0" d="M121.2,25.9c-0.1,0-0.2,0-0.3-0.1c-0.8-0.9-1.7-1.8-2.7-2.8c-0.7,0.9-1.5,1.8-2.3,2.6s-1.8,1.6-2.8,2.2
		c-0.1,0.1-0.2,0.1-0.3,0.1c-0.1,0-0.2-0.1-0.3-0.2l-1.9-2.6c-0.1-0.1-0.1-0.2-0.1-0.2c0-0.1,0.1-0.2,0.2-0.3c0.9-0.5,1.8-1,2.7-1.7
		c0.8-0.7,1.6-1.4,2.2-2.2c-1.1-0.9-2.4-1.8-3.7-2.7c-0.2-0.1-0.3-0.3-0.2-0.6c0.7-2.4,1.2-5.2,1.6-8.5h-1.8c-0.3,0-0.4-0.1-0.4-0.4
		V5.6c0-0.3,0.1-0.4,0.4-0.4h2.2c0.1-1.7,0.2-3,0.2-4c0-0.3,0.1-0.4,0.4-0.4l2.8,0c0.3,0,0.4,0.1,0.4,0.4c-0.1,1.3-0.1,2.7-0.3,4h5
		c0.3,0,0.4,0.1,0.4,0.4c0,3.1-0.2,5.8-0.5,8c-0.3,2.2-0.9,4.3-1.7,6.1c1.1,1,2.1,1.9,3,2.8c0.1,0.1,0.1,0.2,0.1,0.3
		c0,0.1,0,0.2-0.1,0.3l-1.8,2.5C121.4,25.8,121.3,25.9,121.2,25.9z M117.4,17.4c0.5-1.1,0.9-2.4,1.1-3.9c0.3-1.5,0.4-3.1,0.4-4.7
		h-2.3c-0.4,3.2-0.9,5.6-1.3,7.2C115.8,16.3,116.5,16.8,117.4,17.4z M123.3,12.6h5.6V9.3c0-0.2,0.1-0.4,0.3-0.5
		c0.7-0.4,1.3-0.9,1.9-1.5c0.6-0.6,1.1-1.1,1.4-1.7h-8.4c-0.3,0-0.4-0.1-0.4-0.4V2.3c0-0.3,0.1-0.4,0.4-0.4h12.5
		c0.3,0,0.4,0.1,0.4,0.4v2.9c0,0.2,0,0.3-0.1,0.5c-0.4,0.8-1,1.5-1.7,2.4c-0.7,0.8-1.5,1.6-2.3,2.3v2.3h4.7c0.3,0,0.4,0.1,0.4,0.4
		V16c0,0.3-0.1,0.4-0.4,0.4h-4.7V23c0,1.3-0.2,2.3-0.5,3s-0.9,1.2-1.8,1.5c-0.9,0.3-2.1,0.5-3.8,0.5l-0.9,0c-0.3,0-0.4-0.1-0.5-0.3
		l-1-2.9l0-0.2c0-0.1,0-0.2,0.1-0.2c0.1,0,0.2-0.1,0.3,0l1.5,0c0.9,0,1.5-0.1,1.9-0.2c0.4-0.1,0.6-0.3,0.7-0.6
		c0.1-0.3,0.1-0.7,0.1-1.2v-5.9h-5.6c-0.3,0-0.4-0.1-0.4-0.4V13C122.8,12.8,123,12.6,123.3,12.6z"/>
	<path class="st0" d="M152.1,11.4v17c0,0.3-0.1,0.4-0.4,0.4h-8.1c-0.3,0-0.4-0.1-0.4-0.4v-3c0-0.3,0.1-0.4,0.4-0.4h4.3V11.4
		c0-0.3,0.1-0.4,0.4-0.4h3.3C152,11,152.1,11.1,152.1,11.4z"/>
	<path class="st0" d="M162.5,17.4v-17c0-0.3,0.1-0.4,0.4-0.4h8.1c0.3,0,0.4,0.1,0.4,0.4v3c0,0.3-0.1,0.4-0.4,0.4h-4.3v13.6
		c0,0.3-0.1,0.4-0.4,0.4H163C162.7,17.8,162.5,17.7,162.5,17.4z"/>
	<path class="st0" d="M187.4,25.9c-0.1,0-0.2,0-0.3-0.1c-0.8-0.9-1.7-1.8-2.7-2.8c-0.7,0.9-1.5,1.8-2.3,2.6
		c-0.9,0.8-1.8,1.6-2.8,2.2c-0.1,0.1-0.2,0.1-0.3,0.1c-0.1,0-0.2-0.1-0.3-0.2l-1.9-2.6c-0.1-0.1-0.1-0.2-0.1-0.2
		c0-0.1,0.1-0.2,0.2-0.3c0.9-0.5,1.8-1,2.7-1.7c0.8-0.7,1.6-1.4,2.2-2.2c-1.1-0.9-2.4-1.8-3.7-2.7c-0.2-0.1-0.3-0.3-0.2-0.6
		c0.7-2.4,1.2-5.2,1.6-8.5h-1.8c-0.3,0-0.4-0.1-0.4-0.4V5.6c0-0.3,0.1-0.4,0.4-0.4h2.2c0.1-1.7,0.2-3,0.2-4c0-0.3,0.1-0.4,0.4-0.4
		l2.8,0c0.3,0,0.4,0.1,0.4,0.4c-0.1,1.3-0.1,2.7-0.3,4h5c0.3,0,0.4,0.1,0.4,0.4c0,3.1-0.2,5.8-0.5,8c-0.3,2.2-0.9,4.3-1.7,6.1
		c1.1,1,2.1,1.9,3,2.8c0.1,0.1,0.1,0.2,0.1,0.3c0,0.1,0,0.2-0.1,0.3l-1.8,2.5C187.6,25.8,187.5,25.9,187.4,25.9z M183.6,17.4
		c0.5-1.1,0.9-2.4,1.1-3.9c0.3-1.5,0.4-3.1,0.4-4.7h-2.3c-0.4,3.2-0.9,5.6-1.3,7.2C182.1,16.3,182.8,16.8,183.6,17.4z M189.5,12.6
		h5.6V9.3c0-0.2,0.1-0.4,0.3-0.5c0.7-0.4,1.3-0.9,1.9-1.5c0.6-0.6,1.1-1.1,1.4-1.7h-8.4c-0.3,0-0.4-0.1-0.4-0.4V2.3
		c0-0.3,0.1-0.4,0.4-0.4h12.5c0.3,0,0.4,0.1,0.4,0.4v2.9c0,0.2,0,0.3-0.1,0.5c-0.4,0.8-1,1.5-1.7,2.4c-0.7,0.8-1.5,1.6-2.3,2.3v2.3
		h4.7c0.3,0,0.4,0.1,0.4,0.4V16c0,0.3-0.1,0.4-0.4,0.4H199V23c0,1.3-0.2,2.3-0.5,3c-0.3,0.7-0.9,1.2-1.8,1.5
		c-0.9,0.3-2.1,0.5-3.8,0.5l-0.9,0c-0.3,0-0.4-0.1-0.5-0.3l-1-2.9l0-0.2c0-0.1,0-0.2,0.1-0.2c0.1,0,0.2-0.1,0.3,0l1.5,0
		c0.9,0,1.5-0.1,1.9-0.2c0.4-0.1,0.6-0.3,0.7-0.6c0.1-0.3,0.1-0.7,0.1-1.2v-5.9h-5.6c-0.3,0-0.4-0.1-0.4-0.4V13
		C189.1,12.8,189.3,12.6,189.5,12.6z"/>
	<path class="st0" d="M218.4,11.4v17c0,0.3-0.1,0.4-0.4,0.4h-8.1c-0.3,0-0.4-0.1-0.4-0.4v-3c0-0.3,0.1-0.4,0.4-0.4h4.3V11.4
		c0-0.3,0.1-0.4,0.4-0.4h3.3C218.3,11,218.4,11.1,218.4,11.4z"/>
	<path class="st0" d="M228.8,17.4v-17c0-0.3,0.1-0.4,0.4-0.4h8.1c0.3,0,0.4,0.1,0.4,0.4v3c0,0.3-0.1,0.4-0.4,0.4H233v13.6
		c0,0.3-0.1,0.4-0.4,0.4h-3.3C229,17.8,228.8,17.7,228.8,17.4z"/>
	<path class="st0" d="M255.5,26c-0.8-0.7-1.1-1.6-1.1-2.7c0-0.7,0.1-1.3,0.4-2c0.3-0.7,0.7-1.3,1.3-1.9c0.8-0.9,1.9-2,3.3-3.2
		c1.3-1.2,2.5-2.2,3.5-3h-6.4c-0.3,0-0.4-0.1-0.4-0.4v-2c-0.2,0.2-0.4,0.4-0.6,0.5s-0.4,0.3-0.6,0.5c-0.1,0.1-0.2,0.1-0.3,0.1
		c-0.1,0-0.2-0.1-0.3-0.2l-1.2-1.6v13.4c0,0.3-0.1,0.4-0.4,0.4h-8.4c-0.3,0-0.4-0.1-0.4-0.4v-21c0-0.3,0.1-0.4,0.4-0.4h8.4
		c0.3,0,0.4,0.1,0.4,0.4v5.8c1-0.9,1.9-2,2.7-3.3c0.8-1.3,1.3-2.6,1.7-3.9c0.1-0.2,0.2-0.3,0.4-0.3h0.1l2.8,0.5
		c0.1,0,0.2,0.1,0.3,0.2c0,0.1,0.1,0.2,0,0.3l-0.7,1.8h9.3c0.3,0,0.4,0.1,0.4,0.4v2.7c0,0.3-0.1,0.4-0.4,0.4h-11
		c-0.5,0.9-1.1,1.7-1.7,2.5h11.3c0.3,0,0.4,0.1,0.4,0.4v2.5c0,0.2-0.1,0.4-0.3,0.5c-1.4,1-3.1,2.4-5,4c-2,1.7-3.4,3-4.3,4
		c-0.5,0.6-0.8,1.1-0.8,1.5c0,0.3,0.1,0.5,0.4,0.7c0.3,0.2,0.7,0.3,1.2,0.3c0.8,0.1,1.7,0.1,2.6,0.1c0.8,0,1.5,0,2.1-0.1
		c0.6-0.1,1.1-0.2,1.4-0.4c0.3-0.2,0.5-0.6,0.7-1.2c0.1-0.6,0.3-1.5,0.3-2.7c0-0.2,0.1-0.3,0.2-0.3c0.1-0.1,0.2-0.1,0.3,0l2.7,1.1
		c0.2,0.1,0.3,0.2,0.3,0.4v0.1c-0.1,1.6-0.4,2.9-0.7,3.8c-0.3,0.9-0.8,1.6-1.5,2s-1.7,0.7-3,0.8c-1,0.1-2.1,0.1-3.3,0.1
		c-1.1,0-2.3,0-3.4-0.1C257.4,27.2,256.3,26.8,255.5,26z M247.3,5.6v15h2.5v-15H247.3z"/>
	<path class="st0" d="M284.7,11.4v17c0,0.3-0.1,0.4-0.4,0.4h-8.1c-0.3,0-0.4-0.1-0.4-0.4v-3c0-0.3,0.1-0.4,0.4-0.4h4.3V11.4
		c0-0.3,0.1-0.4,0.4-0.4h3.3C284.5,11,284.7,11.1,284.7,11.4z"/>
	<path class="st0" d="M302.4,18.7c-0.8-0.4-1.4-1.1-1.8-1.8c-0.4-0.8-0.7-1.6-0.7-2.5c0-0.9,0.2-1.7,0.7-2.5c0.4-0.8,1-1.4,1.8-1.8
		s1.6-0.7,2.5-0.7c0.9,0,1.7,0.2,2.5,0.7s1.4,1,1.8,1.8c0.4,0.8,0.7,1.6,0.7,2.5c0,0.9-0.2,1.7-0.7,2.5c-0.4,0.8-1,1.4-1.8,1.8
		c-0.8,0.5-1.6,0.7-2.5,0.7C304,19.4,303.1,19.2,302.4,18.7z M306.9,16.4c0.6-0.6,0.8-1.3,0.8-2.1c0-0.8-0.3-1.5-0.8-2
		c-0.6-0.6-1.3-0.8-2.1-0.8c-0.8,0-1.5,0.3-2,0.8c-0.6,0.6-0.8,1.2-0.8,2c0,0.8,0.3,1.5,0.8,2.1c0.6,0.6,1.2,0.9,2,0.9
		C305.7,17.3,306.4,17,306.9,16.4z"/>
</g>
</svg>
