<svg xmlns="http://www.w3.org/2000/svg" xml:space="preserve" width="309.9" height="28.8" style="overflow:visible" viewBox="0 0 309.9 28.8"><path fill="#df032e" d="M0 17.4V.4C0 .1.1 0 .4 0h8.1c.3 0 .4.1.4.4v3c0 .3-.1.4-.4.4H4.2v13.6c0 .3-.1.4-.4.4H.4c-.3 0-.4-.1-.4-.4m15.1-1.7v-3.2c0-.3.1-.4.4-.4h24.9c.3 0 .4.1.4.4v3.2c0 .3-.1.4-.4.4H15.5c-.3 0-.4-.2-.4-.4M44 26.4v-.2c.6-1.4 1-3.1 1.3-5.2.3-2 .4-4 .4-6 0-.1 0-.2.1-.3s.2-.1.3-.1l2.5.2c.3 0 .4.2.4.4 0 1.3-.1 2.7-.2 4.1.4.7.9 1.4 1.6 2v-8.4h-5.1c-.3 0-.4-.1-.4-.4V9.9c0-.3.1-.4.4-.4h4.8V6.8h-3.9c-.3 0-.4-.1-.4-.4V3.8c0-.3.1-.4.4-.4h3.9V1.2c0-.3.1-.4.4-.4h2.6c.3 0 .4.1.4.4v2.2h3.4c.3 0 .4.1.4.4v2.6c0 .3-.1.4-.4.4h-3.4v2.7h4c.3 0 .4.1.4.4v2.6c0 .3-.1.4-.4.4h-3.8v2.9H57c.3 0 .4.1.4.4v2.6c0 .3-.1.4-.4.4h-3.3V23q1.65.45 3.6.6c1.5.1 3.4.2 5.5.2 2.8 0 5.7-.1 8.6-.4h.1c.2 0 .4.1.4.3v.2l-.9 2.8c-.1.2-.2.3-.4.4-2.3.2-4.7.2-7.3.2-2.5 0-4.5-.1-6-.2-2.1-.2-3.9-.6-5.3-1.1-1.4-.6-2.6-1.5-3.7-2.7q-.3 2.1-.9 4.2c-.1.2-.2.3-.4.3 0 0-.1 0-.2-.1l-2.6-1.1c-.1 0-.2-.1-.2-.2m18.5-4.5c-1.1 0-2-.3-2.6-.8s-.9-1.4-.9-2.6v-16c0-.3.1-.4.4-.4h10.4c.3 0 .4.1.4.4v10c0 .3-.1.4-.4.4h-7.3v4.6c0 .4.1.7.2.8s.4.2.8.3h2.6c.5 0 .8-.1 1-.4.2-.2.4-.6.5-1.1s.2-1.3.3-2.2c0-.4.2-.5.5-.4l2.6.9c.2.1.3.1.3.2v.3c-.1 1.7-.3 3-.6 3.8s-.8 1.4-1.4 1.7-1.5.5-2.7.5zm4.2-12.4v-4h-4.2v4zm19.2 1.9v17c0 .3-.1.4-.4.4h-8.1c-.3 0-.4-.1-.4-.4v-3c0-.3.1-.4.4-.4h4.3V11.4c0-.3.1-.4.4-.4h3.3c.3 0 .5.1.5.4m10.4 6V.4c0-.3.1-.4.4-.4h8.1c.3 0 .4.1.4.4v3c0 .3-.1.4-.4.4h-4.3v13.6c0 .3-.1.4-.4.4h-3.3c-.4 0-.5-.1-.5-.4m24.9 8.5c-.1 0-.2 0-.3-.1-.8-.9-1.7-1.8-2.7-2.8-.7.9-1.5 1.8-2.3 2.6s-1.8 1.6-2.8 2.2c-.1.1-.2.1-.3.1s-.2-.1-.3-.2l-1.9-2.6c-.1-.1-.1-.2-.1-.2 0-.1.1-.2.2-.3.9-.5 1.8-1 2.7-1.7.8-.7 1.6-1.4 2.2-2.2-1.1-.9-2.4-1.8-3.7-2.7-.2-.1-.3-.3-.2-.6.7-2.4 1.2-5.2 1.6-8.5h-1.8c-.3 0-.4-.1-.4-.4V5.6c0-.3.1-.4.4-.4h2.2c.1-1.7.2-3 .2-4 0-.3.1-.4.4-.4h2.8c.3 0 .4.1.4.4-.1 1.3-.1 2.7-.3 4h5c.3 0 .4.1.4.4 0 3.1-.2 5.8-.5 8s-.9 4.3-1.7 6.1c1.1 1 2.1 1.9 3 2.8.1.1.1.2.1.3s0 .2-.1.3l-1.8 2.5c-.2.2-.3.3-.4.3m-3.8-8.5c.5-1.1.9-2.4 1.1-3.9.3-1.5.4-3.1.4-4.7h-2.3c-.4 3.2-.9 5.6-1.3 7.2.5.3 1.2.8 2.1 1.4m5.9-4.8h5.6V9.3c0-.2.1-.4.3-.5.7-.4 1.3-.9 1.9-1.5s1.1-1.1 1.4-1.7h-8.4c-.3 0-.4-.1-.4-.4V2.3c0-.3.1-.4.4-.4h12.5c.3 0 .4.1.4.4v2.9c0 .2 0 .3-.1.5-.4.8-1 1.5-1.7 2.4-.7.8-1.5 1.6-2.3 2.3v2.3h4.7c.3 0 .4.1.4.4V16c0 .3-.1.4-.4.4h-4.7V23c0 1.3-.2 2.3-.5 3s-.9 1.2-1.8 1.5-2.1.5-3.8.5h-.9c-.3 0-.4-.1-.5-.3l-1-2.9v-.2c0-.1 0-.2.1-.2s.2-.1.3 0h1.5c.9 0 1.5-.1 1.9-.2s.6-.3.7-.6.1-.7.1-1.2v-5.9h-5.6c-.3 0-.4-.1-.4-.4V13c-.2-.2 0-.4.3-.4m28.8-1.2v17c0 .3-.1.4-.4.4h-8.1c-.3 0-.4-.1-.4-.4v-3c0-.3.1-.4.4-.4h4.3V11.4c0-.3.1-.4.4-.4h3.3c.4 0 .5.1.5.4m10.4 6V.4c0-.3.1-.4.4-.4h8.1c.3 0 .4.1.4.4v3c0 .3-.1.4-.4.4h-4.3v13.6c0 .3-.1.4-.4.4H163c-.3 0-.5-.1-.5-.4m24.9 8.5c-.1 0-.2 0-.3-.1-.8-.9-1.7-1.8-2.7-2.8-.7.9-1.5 1.8-2.3 2.6-.9.8-1.8 1.6-2.8 2.2-.1.1-.2.1-.3.1s-.2-.1-.3-.2l-1.9-2.6c-.1-.1-.1-.2-.1-.2 0-.1.1-.2.2-.3.9-.5 1.8-1 2.7-1.7.8-.7 1.6-1.4 2.2-2.2-1.1-.9-2.4-1.8-3.7-2.7-.2-.1-.3-.3-.2-.6.7-2.4 1.2-5.2 1.6-8.5h-1.8c-.3 0-.4-.1-.4-.4V5.6c0-.3.1-.4.4-.4h2.2c.1-1.7.2-3 .2-4 0-.3.1-.4.4-.4h2.8c.3 0 .4.1.4.4-.1 1.3-.1 2.7-.3 4h5c.3 0 .4.1.4.4 0 3.1-.2 5.8-.5 8s-.9 4.3-1.7 6.1c1.1 1 2.1 1.9 3 2.8.1.1.1.2.1.3s0 .2-.1.3l-1.8 2.5c-.2.2-.3.3-.4.3m-3.8-8.5c.5-1.1.9-2.4 1.1-3.9.3-1.5.4-3.1.4-4.7h-2.3c-.4 3.2-.9 5.6-1.3 7.2.6.3 1.3.8 2.1 1.4m5.9-4.8h5.6V9.3c0-.2.1-.4.3-.5.7-.4 1.3-.9 1.9-1.5s1.1-1.1 1.4-1.7h-8.4c-.3 0-.4-.1-.4-.4V2.3c0-.3.1-.4.4-.4h12.5c.3 0 .4.1.4.4v2.9c0 .2 0 .3-.1.5-.4.8-1 1.5-1.7 2.4-.7.8-1.5 1.6-2.3 2.3v2.3h4.7c.3 0 .4.1.4.4V16c0 .3-.1.4-.4.4H199V23c0 1.3-.2 2.3-.5 3q-.45 1.05-1.8 1.5c-.9.3-2.1.5-3.8.5h-.9c-.3 0-.4-.1-.5-.3l-1-2.9v-.2c0-.1 0-.2.1-.2s.2-.1.3 0h1.5c.9 0 1.5-.1 1.9-.2s.6-.3.7-.6.1-.7.1-1.2v-5.9h-5.6c-.3 0-.4-.1-.4-.4V13c0-.2.2-.4.4-.4m28.9-1.2v17c0 .3-.1.4-.4.4h-8.1c-.3 0-.4-.1-.4-.4v-3c0-.3.1-.4.4-.4h4.3V11.4c0-.3.1-.4.4-.4h3.3c.4 0 .5.1.5.4m10.4 6V.4c0-.3.1-.4.4-.4h8.1c.3 0 .4.1.4.4v3c0 .3-.1.4-.4.4H233v13.6c0 .3-.1.4-.4.4h-3.3c-.3 0-.5-.1-.5-.4m26.7 8.6c-.8-.7-1.1-1.6-1.1-2.7 0-.7.1-1.3.4-2s.7-1.3 1.3-1.9c.8-.9 1.9-2 3.3-3.2 1.3-1.2 2.5-2.2 3.5-3h-6.4c-.3 0-.4-.1-.4-.4v-2c-.2.2-.4.4-.6.5s-.4.3-.6.5c-.1.1-.2.1-.3.1s-.2-.1-.3-.2l-1.2-1.6v13.4c0 .3-.1.4-.4.4h-8.4c-.3 0-.4-.1-.4-.4v-21c0-.3.1-.4.4-.4h8.4c.3 0 .4.1.4.4v5.8q1.5-1.35 2.7-3.3c.8-1.3 1.3-2.6 1.7-3.9.1-.2.2-.3.4-.3h.1l2.8.5c.1 0 .2.1.3.2 0 .1.1.2 0 .3l-.7 1.8h9.3c.3 0 .4.1.4.4v2.7c0 .3-.1.4-.4.4h-11c-.5.9-1.1 1.7-1.7 2.5h11.3c.3 0 .4.1.4.4v2.5c0 .2-.1.4-.3.5-1.4 1-3.1 2.4-5 4-2 1.7-3.4 3-4.3 4-.5.6-.8 1.1-.8 1.5 0 .3.1.5.4.7q.45.3 1.2.3c.8.1 1.7.1 2.6.1.8 0 1.5 0 2.1-.1s1.1-.2 1.4-.4.5-.6.7-1.2c.1-.6.3-1.5.3-2.7 0-.2.1-.3.2-.3q.15-.15.3 0l2.7 1.1c.2.1.3.2.3.4v.1c-.1 1.6-.4 2.9-.7 3.8s-.8 1.6-1.5 2-1.7.7-3 .8c-1 .1-2.1.1-3.3.1-1.1 0-2.3 0-3.4-.1-1.2.1-2.3-.3-3.1-1.1m-8.2-20.4v15h2.5v-15zm37.4 5.8v17c0 .3-.1.4-.4.4h-8.1c-.3 0-.4-.1-.4-.4v-3c0-.3.1-.4.4-.4h4.3V11.4c0-.3.1-.4.4-.4h3.3c.3 0 .5.1.5.4m17.7 7.3c-.8-.4-1.4-1.1-1.8-1.8-.4-.8-.7-1.6-.7-2.5s.2-1.7.7-2.5q.6-1.2 1.8-1.8c1.2-.6 1.6-.7 2.5-.7s1.7.2 2.5.7 1.4 1 1.8 1.8.7 1.6.7 2.5-.2 1.7-.7 2.5q-.6 1.2-1.8 1.8c-.8.5-1.6.7-2.5.7s-1.8-.2-2.5-.7m4.5-2.3c.6-.6.8-1.3.8-2.1s-.3-1.5-.8-2c-.6-.6-1.3-.8-2.1-.8s-1.5.3-2 .8c-.6.6-.8 1.2-.8 2s.3 1.5.8 2.1c.6.6 1.2.9 2 .9q1.35 0 2.1-.9"/></svg>