<svg xmlns="http://www.w3.org/2000/svg" xml:space="preserve" width="52.4" height="51.2" style="overflow:visible" viewBox="0 0 52.4 51.2"><path fill="#fff" d="m5.3 50.5-5.1-7c-.1-.2-.2-.4-.2-.6 0-.3.2-.5.5-.7 1.3-.5 2.5-1.3 3.8-2.2 1.3-1 2.5-2 3.5-3-2.1-1.7-4.1-3.1-6.1-4.4-.3-.2-.5-.5-.5-.7s0-.3.1-.4c1.1-4.3 2-9.2 2.7-14.8H1.8q-.9 0-.9-.9V8.4q0-.9.9-.9h2.9c.1-1.8.2-3.5.2-5V.9q0-.9.9-.9h7.4c.5 0 .8.3.8.9 0 1.6-.1 3.8-.2 6.7h8.8q.9 0 .9.9c0 6.1-.2 11.2-.7 15.3s-1.4 7.9-2.8 11.4c2 1.6 3.6 3.1 4.9 4.5q.3.15.3.6c0 .2-.1.4-.2.6l-4.6 6.9c-.2.3-.4.4-.7.4-.2 0-.4-.1-.6-.4-1.2-1.4-2.6-2.9-4.3-4.6-1.2 1.4-2.5 2.7-4 4.1s-3 2.5-4.4 3.5c0 0-.1.1-.2.1-.1.1-.2.1-.3.1-.2-.1-.4-.2-.6-.5m9.2-26.8c.4-2.4.6-4.7.6-7h-2.5c-.8 5.3-1.5 9.2-2.1 11.6.6.4 1.4.9 2.5 1.6.6-1.8 1.1-3.9 1.5-6.2m15.1 27.5c-.3 0-.5-.1-.7-.2-.1-.1-.3-.3-.3-.5l-2.7-7.7c-.1-.1-.1-.3-.1-.3 0-.4.3-.7.9-.7l3.4.1c1.3 0 2.2-.1 2.8-.2s.9-.4 1.1-.8c.1-.4.2-.9.2-1.7v-8.5h-9.5q-.9 0-.9-.9v-7.9q0-.9.9-.9h9.5v-4.4c0-.4.2-.8.5-1q1.65-1.05 3-2.4c.9-.9 1.6-1.6 1.9-2.2H26.1q-.9 0-.9-.9V2.2q0-.9.9-.9H50q.9 0 .9.9v7.7c0 .4-.1.8-.3 1.1-.7 1.2-1.6 2.4-2.8 3.8-1.1 1.4-2.4 2.6-3.7 3.8V21h7.4q.9 0 .9.9v7.9q0 .9-.9.9h-7.4v10.1c0 2.8-.3 5-1 6.4s-1.8 2.5-3.6 3.1q-2.55.9-7.8.9z" style="fill:#fff"/></svg>