<!-- Generator: Adobe Illustrator 25.0.0, SVG Export Plug-In  -->
<svg version="1.1" xmlns="http://www.w3.org/2000/svg" xmlns:xlink="http://www.w3.org/1999/xlink" x="0px" y="0px" width="405.9px"
	 height="50.9px" viewBox="0 0 405.9 50.9" style="overflow:visible;enable-background:new 0 0 405.9 50.9;" xml:space="preserve">
<style type="text/css">
	.st0{fill:#FFFFFF;}
</style>
<defs>
</defs>
<g>
	<path class="st0" d="M10.4,36c-0.3,0-0.6-0.2-0.8-0.5l-2-3.3c-0.1-0.2-0.2-0.3-0.2-0.5c-1.1,0.3-2.2,0.4-3.3,0.5l-0.6,0.1
		c-0.3,0-0.5-0.2-0.7-0.6l-2.7-6.1C0,25.5,0,25.3,0,25.2c0-0.3,0.2-0.5,0.8-0.6c3.5-0.2,7-0.7,10.4-1.3c3.4-0.6,6.1-1.3,8.2-2.2
		l-0.3-0.6c-2.2,0.4-4.8,0.8-7.9,1.1c-3.1,0.4-5.8,0.6-8,0.8H3.1c-0.4,0-0.6-0.2-0.8-0.7l-0.9-3.9c0-0.1,0-0.3-0.1-0.4
		c0-0.2,0.1-0.5,0.4-0.8c0.8-0.7,1.4-1.4,1.9-2c0.5-0.6,1.2-1.6,2.2-3c0.3-0.4,0.7-0.5,1.1-0.4h0.1L6.4,7.8c0-0.2-0.1-0.5-0.1-0.8
		c0-0.4,0.2-0.7,0.5-0.8C8.4,5.4,9.8,4.5,11,3.6c1.3-0.9,2.7-2,4.4-3.4C15.6,0.1,15.9,0,16.2,0l0.5,0.1l7.7,1.3
		c0.4,0,0.6,0.2,0.6,0.5c0,0.2-0.1,0.4-0.3,0.6c-1.1,0.9-2.2,1.8-3.5,2.6c2.7,0,6.2-0.2,10.7-0.5l-1.4-1.1c-0.3-0.2-0.4-0.4-0.4-0.6
		c0-0.2,0.2-0.4,0.6-0.5l5.9-1.7c0.2,0,0.4-0.1,0.5-0.1c0.2,0,0.4,0.1,0.6,0.2c1.4,0.7,2.9,1.7,4.5,3c1.6,1.3,3.2,2.8,4.6,4.3
		C46.9,8.3,47,8.5,47,8.6c0,0.3-0.2,0.5-0.6,0.6l-6.5,2.4l-0.4,0.1c-0.3,0-0.5-0.1-0.7-0.4c-0.2-0.3-0.6-0.7-1-1.1
		c-1.5,0.2-3.7,0.4-6.5,0.6l5.3,1.2c0.4,0.1,0.6,0.3,0.6,0.6c0,0.1-0.1,0.3-0.2,0.5c-0.3,0.5-0.9,1.2-1.7,2.1c1.2,0,2.6-0.2,4.3-0.4
		L39.1,14c-0.1-0.2-0.2-0.3-0.2-0.4c0-0.4,0.2-0.6,0.6-0.7l4.9-1.6l0.4-0.1c0.2,0,0.5,0.1,0.7,0.3c1,0.9,1.9,2,2.8,3.3
		c0.9,1.3,1.8,2.6,2.5,3.9l0.1,0.4c0,0.3-0.2,0.6-0.5,0.7l-5.4,2.5c-0.2,0.1-0.4,0.2-0.5,0.2c-0.2,0-0.4-0.2-0.6-0.6
		c-0.2-0.6-0.5-1.1-0.7-1.5c-2.7,0.3-6,0.6-10,0.8c2.2,0.9,4.8,1.6,7.8,2.2c3,0.6,6.2,1,9.4,1.2c0.5,0.1,0.8,0.3,0.8,0.6
		c0,0.1,0,0.2-0.1,0.4l-2.4,7c-0.1,0.4-0.4,0.6-0.8,0.6h-0.3c-3.7-0.4-7.5-1.4-11.5-3c-4-1.6-7.5-3.3-10.6-5.2
		c-1.6,1.1-3.7,2.1-6.4,3.2c-2.6,1.1-5.4,1.9-8.3,2.7c3.1-0.4,6-0.9,8.6-1.6c2.7-0.7,4.9-1.6,6.8-2.5c0.2-0.1,0.4-0.2,0.5-0.2
		c0.2,0,0.4,0.1,0.6,0.3l3.1,2.4c0.2,0.2,0.4,0.4,0.4,0.6c0,0.2-0.1,0.4-0.4,0.5c-2.8,1.6-6,2.8-9.5,3.8c-3.6,0.9-7.1,1.6-10.8,1.9
		H10.4z M6,50.3l-2.8-5.4C3.1,44.7,3,44.6,3,44.4c0-0.2,0.1-0.3,0.2-0.4c0.1-0.1,0.3-0.1,0.6-0.1c8.4,0,15.8-0.8,22.3-2.3
		c6.5-1.6,11.6-3.9,15.4-7.1c0.2-0.2,0.4-0.3,0.6-0.3s0.4,0.1,0.6,0.3l4.5,4.1c0.2,0.2,0.4,0.4,0.4,0.6c0,0.1-0.1,0.3-0.2,0.4
		c-9.1,7.3-22.5,11-40.3,11.3C6.5,50.9,6.2,50.7,6,50.3z M7.8,42.2l-2.3-3.9c-0.1-0.2-0.2-0.3-0.2-0.4c0-0.2,0.1-0.3,0.2-0.4
		c0.1-0.1,0.3-0.2,0.6-0.2c12.8-0.7,22-3,27.4-6.8c0.2-0.1,0.4-0.2,0.6-0.2c0.2,0,0.4,0.1,0.6,0.3l3.6,3c0.3,0.2,0.4,0.4,0.4,0.6
		c0,0.2-0.1,0.3-0.3,0.4c-3.6,2.3-8,4.1-13.3,5.6c-5.3,1.4-10.8,2.3-16.5,2.5C8.4,42.7,8,42.5,7.8,42.2z M13.1,12.5
		c0.2,0,0.3,0.1,0.4,0.2s0.2,0.2,0.2,0.4c0,0.2-0.1,0.4-0.2,0.5c-0.5,0.6-1.2,1.3-1.9,2.1c1.4,0,3.1-0.2,4.9-0.5l-0.5-0.8
		c-0.1-0.2-0.2-0.3-0.2-0.5c0-0.3,0.2-0.5,0.6-0.6l4.6-1.2l0.3-0.1c0.3,0,0.6,0.1,0.8,0.4c1,1,2.1,2.6,3.4,4.8H26l-0.2-0.8
		c0-0.1,0-0.3-0.1-0.4c0-0.2,0.1-0.5,0.4-0.8c1.3-1.3,2.4-2.7,3.3-4.1l0.2-0.2l-6.4,0.4L10.7,12L13.1,12.5z"/>
	<path class="st0" d="M86.9,34.5c-0.3,0-0.5-0.2-0.8-0.5c-1.4-1.9-3-3.8-4.8-5.6c-1.8-1.8-3.7-3.4-5.5-4.7c-0.3-0.2-0.4-0.4-0.4-0.7
		c0-0.2,0.1-0.5,0.3-0.7l5-5.2c0.2-0.2,0.5-0.4,0.8-0.4c0.2,0,0.4,0.1,0.5,0.2c4.7,3.1,8.6,6.7,11.8,10.7c0.2,0.3,0.3,0.5,0.3,0.6
		c0,0.3-0.1,0.6-0.4,0.8l-6.1,5.2C87.3,34.4,87.1,34.5,86.9,34.5z"/>
	<path class="st0" d="M122.2,47.4V5c0-0.6,0.3-0.9,0.9-0.9h41.8c0.6,0,0.9,0.3,0.9,0.9v42.3c0,0.6-0.3,0.9-0.9,0.9H123
		C122.4,48.3,122.2,48,122.2,47.4z M155.5,39V13.4h-23.2V39H155.5z"/>
	<path class="st0" d="M177.6,12.2V6.9c0-0.6,0.3-0.9,0.9-0.9h5.3c-0.6-1.1-1.2-2.2-1.8-3.1c-0.1-0.2-0.2-0.4-0.2-0.6
		c0-0.2,0.1-0.3,0.2-0.5c0.1-0.1,0.3-0.2,0.5-0.2l6.9-1.2c0.1,0,0.3-0.1,0.4-0.1c0.5,0,0.8,0.2,1,0.6c0.9,1.7,1.6,3.4,2.2,5h4.8
		c0.3,0,0.5,0.1,0.7,0.2c0.2,0.2,0.3,0.4,0.3,0.6v5.3c0,0.3-0.1,0.5-0.3,0.6c-0.2,0.2-0.4,0.2-0.7,0.2h-19.3
		C177.9,13,177.6,12.8,177.6,12.2z M179.2,49.4c-0.2-0.2-0.2-0.4-0.2-0.6V32.5c0-0.2,0.1-0.5,0.2-0.6c0.2-0.2,0.4-0.2,0.7-0.2h17.2
		c0.6,0,0.9,0.3,0.9,0.9v16.3c0,0.6-0.3,0.9-0.9,0.9h-17.2C179.6,49.6,179.3,49.5,179.2,49.4z M179.6,20.4v-4.5
		c0-0.6,0.3-0.9,0.9-0.9h16c0.3,0,0.5,0.1,0.7,0.2c0.2,0.2,0.2,0.4,0.2,0.6v4.5c0,0.3-0.1,0.5-0.2,0.6s-0.4,0.2-0.7,0.2h-16
		C179.9,21.3,179.6,21,179.6,20.4z M179.6,28.7v-4.5c0-0.6,0.3-0.9,0.9-0.9h16c0.3,0,0.5,0.1,0.7,0.2c0.2,0.2,0.2,0.4,0.2,0.6v4.5
		c0,0.3-0.1,0.5-0.2,0.6s-0.4,0.2-0.7,0.2h-16C179.9,29.6,179.6,29.3,179.6,28.7z M190.4,42.8v-4.5h-3.6v4.5H190.4z M198.6,28.4
		v-5.9c0-0.6,0.3-0.9,0.9-0.9h4.1l0.6-3.1h-3.3c-0.6,0-0.9-0.3-0.9-0.9v-5.4c0-0.6,0.3-0.9,0.9-0.9h4.6l0.4-2.3h-5.7
		c-0.6,0-0.9-0.3-0.9-0.9V2.4c0-0.6,0.3-0.9,0.9-0.9h26.3c0.6,0,0.9,0.3,0.9,0.9v5.9c0,0.6-0.3,0.9-0.9,0.9h-11.8l-0.4,2.3h11
		c0.4,0,0.7,0.2,0.8,0.6v0.3l-1.1,9.3h2.4c0.6,0,0.9,0.3,0.9,0.9v5.9c0,0.6-0.3,0.9-0.9,0.9h-27.9C198.9,29.3,198.6,29,198.6,28.4z
		 M200,48.9V32.1c0-0.6,0.3-0.9,0.9-0.9h24.9c0.6,0,0.9,0.3,0.9,0.9v16.9c0,0.6-0.3,0.9-0.9,0.9h-24.9C200.3,49.8,200,49.5,200,48.9
		z M217.5,42.2v-3.6h-8.3v3.6H217.5z M216.6,21.6l0.4-3.1h-4l-0.6,3.1H216.6z"/>
	<path class="st0" d="M238.8,49.9l-2.5-7.8c0-0.1-0.1-0.2-0.1-0.3c0-0.4,0.3-0.6,0.9-0.6h0.5c1.1,0,2-0.1,2.5-0.3
		c0.5-0.2,0.9-0.4,1-0.8c0.2-0.4,0.2-0.9,0.2-1.7v-4.6c-0.9,0.3-2,0.5-3.4,0.8l-0.4,0.1c-0.3-0.1-0.5-0.3-0.5-0.8l-1-7.8
		c0-0.2,0-0.4,0.1-0.5c0.1-0.3,0.3-0.4,0.6-0.5c0.7-0.1,2.3-0.4,4.6-1v-6.5H238c-0.6,0-0.9-0.3-0.9-0.9V9.6c0-0.6,0.3-0.9,0.9-0.9
		h3.4V1.2c0-0.6,0.3-0.9,0.9-0.9h7.3c0.6,0,0.9,0.3,0.9,0.9v7.5h1.2l-0.3-0.6l-0.1-0.4c0-0.3,0.2-0.6,0.5-0.7l4.3-2.2
		c0.2-0.1,0.4-0.2,0.6-0.2c0.2,0,0.4,0.1,0.5,0.4c0.7,1.4,1.4,3.2,2.1,5.4V1.2c0-0.6,0.3-0.9,0.9-0.9h7c0.6,0,0.9,0.3,0.9,0.9v15
		c0,7-0.2,12.4-0.6,16.1c-0.4,3.7-1.2,6.9-2.4,9.6c-1.2,2.7-3.1,5.4-5.7,8.3c-0.2,0.2-0.4,0.3-0.6,0.3s-0.4-0.1-0.5-0.2l-7-5.5
		c-0.2-0.2-0.4-0.4-0.4-0.6c0-0.2,0.1-0.4,0.4-0.6c2-1.7,3.6-3.5,4.8-5.5c1.2-2,2-4.1,2.5-6.4c-1,1-1.9,1.9-2.7,2.5
		c-0.2,0.1-0.4,0.2-0.5,0.2c-0.2,0-0.4-0.2-0.6-0.5l-1.4-3.4l-2.7,1v7.1c0,3.4-0.2,5.9-0.7,7.5c-0.5,1.6-1.4,2.8-2.7,3.5
		c-1.4,0.7-3.5,1-6.3,1h-0.8C239.3,50.6,238.9,50.3,238.8,49.9z M259.3,20.9V20l-0.1-1.7v-0.9l-3.5,2.1c-0.1,0.1-0.3,0.2-0.5,0.2
		c-0.3,0-0.5-0.2-0.6-0.6c-0.5-2.3-1.1-4.7-2-7.4v5c0,0.6-0.3,0.9-0.9,0.9h-1.4v4.3c0.3-0.1,1.1-0.4,2.3-0.8c0.1,0,0.3-0.1,0.4-0.1
		c0.4,0,0.6,0.3,0.6,0.8v3.1C255.8,23.7,257.7,22.3,259.3,20.9z M272.3,48.9c-1-0.4-1.7-1.1-2.1-2c-0.4-0.9-0.6-2.1-0.6-3.6V1.2
		c0-0.6,0.3-0.9,0.9-0.9h7c0.6,0,0.9,0.3,0.9,0.9v10.7c0.8-2.4,1.4-4.6,1.7-6.8c0-0.4,0.2-0.6,0.6-0.7c0.2,0,0.3,0.1,0.5,0.2
		l5.6,3.1c0.3,0.1,0.5,0.4,0.5,0.6c0,0.2,0,0.4-0.1,0.5c-1,3.9-2.3,7.2-4.1,10.1c-0.2,0.3-0.4,0.4-0.6,0.4c-0.2,0-0.4-0.1-0.6-0.2
		l-3.6-2v7.4l1.5-3.7c0.1-0.4,0.3-0.5,0.6-0.5c0.2,0,0.4,0,0.5,0.1c2.4,1.5,4.5,3.3,6.2,5.4c0.2,0.2,0.3,0.4,0.3,0.6
		c0,0.2-0.1,0.4-0.2,0.6l-3.4,6c-0.1,0.3-0.3,0.4-0.6,0.4c-0.2,0-0.4-0.1-0.6-0.3c-1.3-1.7-2.8-3.1-4.3-4.4v10.9
		c0,0.3,0.1,0.5,0.2,0.6c0.1,0.1,0.3,0.1,0.5,0.1h0.6c0.6,0,0.9-0.4,1.1-1.2c0.2-0.8,0.3-2.2,0.3-4.3c0-0.5,0.2-0.8,0.6-0.8l0.4,0.1
		l5.3,2.5c0.4,0.2,0.6,0.6,0.6,1.1c0,3.2-0.2,5.6-0.6,7.2c-0.4,1.6-1.2,2.8-2.4,3.6c-1.2,0.8-3.1,1.2-5.5,1.3h-1h-2
		C274.7,49.6,273.3,49.4,272.3,48.9z"/>
	<path class="st0" d="M345.5,8.6c0,0.3-0.2,0.6-0.6,0.8l-5.2,1.9c-0.1,0-0.2,0.1-0.4,0.1c-0.2,0-0.3-0.1-0.4-0.2
		c-0.1-0.1-0.2-0.3-0.2-0.5c-0.5-2.3-1.4-4.5-2.7-6.7l-0.1,4.1l0.1,4.3l9.2-1.1h0.1c0.5,0,0.8,0.3,0.8,0.8l0.3,7
		c0,0.5-0.3,0.8-0.8,0.9l-9.3,1.1c0.2,2.8,0.4,5.2,0.7,7.2c0.9-1.9,1.6-4.1,2.1-6.4c0.2-0.6,0.5-0.8,1.1-0.6l5.4,2.3
		c0.5,0.2,0.7,0.6,0.5,1.1c-0.7,2.1-1.6,4.4-2.8,6.8c-1.2,2.4-2.4,4.5-3.7,6.4c0.5,1.1,1,1.6,1.4,1.6c0.6,0,1.1-1.2,1.3-3.7
		c0.1-0.5,0.2-0.8,0.5-0.8c0.1,0,0.3,0.1,0.5,0.3l3.9,4.5c0.2,0.3,0.3,0.5,0.3,0.8l-0.1,0.4c-0.5,3.1-1.5,5.4-2.8,7.1
		c-1.3,1.6-2.8,2.5-4.5,2.5c-1.3,0-2.5-0.5-3.7-1.4s-2.4-2.3-3.4-4.1c-1.9,2-3.7,3.7-5.4,5c-0.1,0.1-0.3,0.2-0.5,0.2
		c-0.2,0-0.4-0.1-0.6-0.4l-4.3-4.8h-6.7v4.7c0,0.6-0.3,0.9-0.9,0.9h-7.1c-0.6,0-0.9-0.3-0.9-0.9v-4.7h-10c-0.6,0-0.9-0.3-0.9-0.9
		v-5.7c0-0.6,0.3-0.9,0.9-0.9h10V36h-8.6c-0.6,0-0.9-0.3-0.9-0.9V17.2c0-0.6,0.3-0.9,0.9-0.9h26.2l-0.1-1.6h-11.4
		c-0.6,0-0.9-0.3-0.9-0.9V2.4c0-0.6,0.3-0.9,0.9-0.9h12c0.6,0,0.9,0.3,0.9,0.9v11.4l1.7-0.2c-0.1-3.4-0.1-5.8-0.1-7.4l0.1-4.9
		c0-0.6,0.3-0.9,0.9-0.9h7.1c0.4,0,0.6,0.1,0.8,0.3c0.1,0.2,0.1,0.5,0.1,0.9l-0.1,0.9V3l0.4-0.2l4.7-1.6c0.1,0,0.3-0.1,0.4-0.1
		c0.4,0,0.6,0.1,0.8,0.4c1.4,2,2.4,4.2,3.2,6.8C345.5,8.4,345.5,8.5,345.5,8.6z M310.4,2.4v11.5c0,0.6-0.3,0.9-0.9,0.9h-12.3
		c-0.6,0-0.9-0.3-0.9-0.9V2.4c0-0.6,0.3-0.9,0.9-0.9h12.3C310.2,1.5,310.4,1.8,310.4,2.4z M304.8,9.7V7h-2.4v2.7H304.8z M304.3,21.9
		v2.4h3.4v-2.4H304.3z M304.3,27.7v2.4h3.4v-2.4H304.3z M317.9,24.3v-2.4h-3.5v2.4H317.9z M314.4,27.7v2.4h3.5v-2.4H314.4z
		 M325.6,38.6V40c1.4-1.1,2.8-2.3,4.1-3.8c-1.1-4.4-1.8-9.1-2.1-14l-2.3,0.3H325v12.6c0,0.6-0.3,0.9-0.9,0.9h-8.7v1.8h9.3
		C325.3,37.7,325.6,38,325.6,38.6z M319.8,9.7V7h-2.4v2.7H319.8z"/>
	<path class="st0" d="M360.3,50.2l-5.7-3.1c-0.3-0.2-0.4-0.4-0.5-0.6c0-0.2,0-0.3,0.1-0.4c0.8-1.9,1.4-4.1,1.8-6.6
		c0.4-2.5,0.7-5,0.8-7.4c0-0.4,0.1-0.6,0.3-0.7c0.1-0.1,0.3-0.2,0.6-0.2l5.4,0.5c0.4,0.1,0.6,0.2,0.8,0.4c0,0.1,0.1,0.2,0.1,0.5
		c-0.1,1.3-0.2,2.4-0.3,3.5c0.5,0.7,1,1.3,1.6,1.8v-8h-8.6c-0.6,0-0.9-0.3-0.9-0.9v-5.7c0-0.6,0.3-0.9,0.9-0.9h21.6
		c0.6,0,0.9,0.3,0.9,0.9v5.6c0,0.6-0.3,0.9-0.9,0.9h-4.9v2.1h4.4c0.6,0,0.9,0.3,0.9,0.9v2.8c2.5-0.4,4.6-1.1,6.5-2.1h-3.7
		c-0.6,0-0.9-0.3-0.9-0.9V11.1c0-0.6,0.3-0.9,0.9-0.9h4.2l0.7-1.7h-6c-0.6,0-0.9-0.3-0.9-0.9V2.4c0-0.6,0.3-0.9,0.9-0.9h23.2
		c0.6,0,0.9,0.3,0.9,0.9v5.3c0,0.6-0.3,0.9-0.9,0.9h-7.9c-0.1,0.4-0.3,0.9-0.7,1.7h7.2c0.6,0,0.9,0.3,0.9,0.9v21.8
		c0,0.6-0.3,0.9-0.9,0.9h-3.7c1.8,0.9,3.9,1.6,6.2,2.1c0.5,0.1,0.7,0.3,0.7,0.6c0,0.1,0,0.3-0.1,0.5l-1.9,3.9c0.5,0,1.1,0,1.9-0.1
		h0.3c0.4,0.1,0.5,0.3,0.5,0.5l-0.1,0.4l-2.5,7.4c-0.2,0.5-0.5,0.8-0.9,0.8c-2.5,0.1-6.9,0.2-13.3,0.2c-6.2,0-10.8-0.1-13.8-0.2
		c-3.1-0.1-5.7-0.5-7.6-1.3c-2-0.8-3.6-1.9-4.9-3.4c-0.4,1.8-0.8,3.4-1.4,4.8c-0.1,0.3-0.3,0.5-0.6,0.5
		C360.7,50.4,360.5,50.3,360.3,50.2z M356.7,20.3v-18c0-0.6,0.3-0.9,0.9-0.9h19.7c0.6,0,0.9,0.3,0.9,0.9v18c0,0.6-0.3,0.9-0.9,0.9
		h-19.7C357,21.2,356.7,20.9,356.7,20.3z M370.1,9.8V7.6h-5.4v2.1H370.1z M370.1,15.7v-2.1h-5.4v2.1H370.1z M377.6,38.5h-4.4v2.6
		l2.3,0.2l4.2,0.1l-1.6-3C377.9,38.4,377.8,38.5,377.6,38.5z M397.3,41.1c-1.9-0.9-3.5-1.8-4.7-3c-0.2-0.2-0.3-0.4-0.3-0.6
		c0-0.1,0.1-0.3,0.3-0.6l2.6-3.2h-7.4l2.6,3.3c0.1,0.2,0.2,0.4,0.2,0.6c0,0.4-0.7,1.1-2.1,1.9c-1.4,0.8-2.6,1.4-3.5,1.8L397.3,41.1z
		 M394.4,17.3v-2.1h-5.7v2.1H394.4z M394.4,23.2V21h-5.7v2.2H394.4z M394.4,28.7v-2.1h-5.7v2.1H394.4z"/>
</g>
</svg>
