<svg xmlns="http://www.w3.org/2000/svg" xml:space="preserve" width="405.9" height="51" style="overflow:visible" viewBox="0 0 405.9 51"><path fill="#fff" d="M10.4 36.1c-.3 0-.6-.2-.8-.5l-2-3.3c-.1-.2-.2-.3-.2-.5-1.1.3-2.2.4-3.3.5l-.6.1c-.3 0-.5-.2-.7-.6L.1 25.7c-.1-.2-.1-.3-.1-.5 0-.3.2-.5.8-.6 3.5-.2 7-.7 10.4-1.3s6.1-1.3 8.2-2.2l-.3-.6c-2.2.4-4.8.8-7.9 1.1-3.1.4-5.8.6-8 .8h-.1c-.4 0-.6-.2-.8-.7l-.9-3.9c0-.1 0-.3-.1-.4 0-.2.1-.5.4-.8.8-.7 1.4-1.4 1.9-2s1.2-1.6 2.2-3c.3-.4.7-.5 1.1-.4H7l-.6-3.3c0-.2-.1-.5-.1-.8 0-.4.2-.7.5-.8 1.6-.8 3-1.7 4.2-2.6 1.3-.9 2.7-2 4.4-3.4.2-.2.5-.3.8-.3l.5.1 7.7 1.3c.4 0 .6.2.6.5q0 .3-.3.6c-1.1.9-2.2 1.8-3.5 2.6 2.7 0 6.2-.2 10.7-.5l-1.4-1.1c-.3-.2-.4-.4-.4-.6s.2-.4.6-.5L36.6.7c.2 0 .4-.1.5-.1.2 0 .4.1.6.2q2.1 1.05 4.5 3c1.6 1.3 3.2 2.8 4.6 4.3.1.2.2.4.2.6q0 .45-.6.6l-6.5 2.4-.4.1c-.3 0-.5-.1-.7-.4s-.6-.7-1-1.1c-1.5.2-3.7.4-6.5.6l5.3 1.2q.6.15.6.6c0 .1-.1.3-.2.5-.3.5-.9 1.2-1.7 2.1 1.2 0 2.6-.2 4.3-.4l-.5-.9c-.1-.2-.2-.3-.2-.4 0-.4.2-.6.6-.7l4.9-1.6.4-.1c.2 0 .5.1.7.3 1 .9 1.9 2 2.8 3.3s1.8 2.6 2.5 3.9l.1.4c0 .3-.2.6-.5.7L45 22.3c-.2.1-.4.2-.5.2q-.3 0-.6-.6c-.2-.6-.5-1.1-.7-1.5-2.7.3-6 .6-10 .8 2.2.9 4.8 1.6 7.8 2.2s6.2 1 9.4 1.2c.5.1.8.3.8.6 0 .1 0 .2-.1.4l-2.4 7c-.1.4-.4.6-.8.6h-.3c-3.7-.4-7.5-1.4-11.5-3s-7.5-3.3-10.6-5.2c-1.6 1.1-3.7 2.1-6.4 3.2-2.6 1.1-5.4 1.9-8.3 2.7 3.1-.4 6-.9 8.6-1.6 2.7-.7 4.9-1.6 6.8-2.5.2-.1.4-.2.5-.2q.3 0 .6.3l3.1 2.4c.2.2.4.4.4.6s-.1.4-.4.5c-2.8 1.6-6 2.8-9.5 3.8-3.6.9-7.1 1.6-10.8 1.9zM6 50.3 3.2 45c-.1-.2-.2-.4-.2-.5 0-.2.1-.3.2-.4.2-.1.4-.1.6-.1 8.4 0 15.8-.8 22.3-2.3 6.5-1.6 11.6-3.9 15.4-7.1q.3-.3.6-.3c.3 0 .4.1.6.3l4.5 4.1c.2.2.4.4.4.6 0 .1-.1.3-.2.4C38.2 46.9 24.8 50.7 7 51c-.5 0-.8-.2-1-.7m1.8-8.1-2.3-3.9c-.1-.2-.2-.3-.2-.4 0-.2.1-.3.2-.4s.3-.2.6-.2c12.8-.7 22-3 27.4-6.8.2-.1.4-.2.6-.2q.3 0 .6.3l3.6 3c.3.2.4.4.4.6s-.1.3-.3.4c-3.6 2.3-8 4.1-13.3 5.6-5.3 1.4-10.8 2.3-16.5 2.5-.2.1-.6-.1-.8-.5m5.3-29.6c.2 0 .3.1.4.2s.2.2.2.4-.1.4-.2.5c-.5.6-1.2 1.3-1.9 2.1 1.4 0 3.1-.2 4.9-.5l-.5-.8c-.1-.2-.2-.3-.2-.5q0-.45.6-.6l4.6-1.2.3-.1c.3 0 .6.1.8.4 1 1 2.1 2.6 3.4 4.8h.5l-.2-.8c0-.1 0-.3-.1-.4 0-.2.1-.5.4-.8 1.3-1.3 2.4-2.7 3.3-4.1l.2-.2-6.4.4-12.6.7zm73.8 21.9c-.3 0-.5-.2-.8-.5-1.4-1.9-3-3.8-4.8-5.6s-3.7-3.4-5.5-4.7c-.3-.2-.4-.4-.4-.7 0-.2.1-.5.3-.7l5-5.2c.2-.2.5-.4.8-.4.2 0 .4.1.5.2 4.7 3.1 8.6 6.7 11.8 10.7q.3.45.3.6c0 .3-.1.6-.4.8l-6.1 5.2c-.3.2-.5.3-.7.3m62 15.4V33.1h-8.7c-.2 0-.4-.1-.5-.2 0 .4-.2.7-.6.8l-3.3.8-.5.1c-.2 0-.4-.1-.5-.2s-.2-.4-.2-.8l-.2-1.1c-4.9 1-9 1.7-12.5 2.1h-.1c-.6 0-.9-.2-1-.7l-1.3-5.3c0-.1-.1-.2-.1-.4 0-.4.2-.8.5-1 2.5-2 4.5-4 6.1-6-2.6.5-4.5.7-5.7.8-.5 0-.8-.2-.9-.7l-1.2-5-.1-.6c0-.3.1-.6.4-.9 1-1.3 2.3-3.4 3.8-6.5 1.5-3 2.7-5.6 3.5-7.7.1-.4.4-.5.7-.5.1 0 .3 0 .5.1l5.7 2.4c.3.1.5.3.5.7l-.2.3c-2.1 4.3-4 7.7-5.8 10.3l3-.5c1-1.4 2.1-3.2 3.1-5.4.1-.4.4-.5.7-.5.2 0 .3 0 .5.1l3.8 1.9V4.9q0-.9.9-.9h8.9l-1-2c-.1-.1-.1-.3-.1-.5q0-.6.6-.6l8.5-.8h.2q.75 0 .9.6c.2.6.6 1.7 1 3.3h9.4q.9 0 .9.9V17q0 .9-.9.9H165v3.9q0 .9-.9.9H142q-.9 0-.9-.9v-3.9H139q-.9 0-.9-.9v-2.8c-1.1 2-2.5 4.2-4 6.4s-3 4.1-4.3 5.6c.9-.1 2.2-.4 3.8-.8l-.4-1.8-.1-.4c0-.1.1-.3.2-.4s.3-.2.5-.3l2.4-.5.6-.1c.4 0 .7.2.8.6.6 1.8 1.1 4.5 1.6 8v-4.9c0-.2.1-.5.2-.6.2-.2.4-.2.6-.2h27.2q.9 0 .9.9v6.8q0 .9-.9.9h-9.8v16.8q0 .9-.9.9h-6.9c-.4-.3-.7-.6-.7-1.2m-30.8-2c0-.1.1-.2.1-.4.9-3.1 1.6-6.6 2-10.6.1-.5.3-.8.6-.8h.1l4.9.6c.6.1 1 .3 1 .8-.3 4.9-.6 8.7-1.2 11.5-.1.5-.4.7-.9.7h-.2l-5.7-1.1c-.5-.1-.7-.3-.7-.7m10.3-.6c0-2.8-.3-5.9-1-9.4l-.1-.4c0-.4.2-.7.8-.8l4.2-.7h.2c.2 0 .4.1.5.2.2.1.3.3.3.5.4 1.4.8 3 1.1 4.7s.6 3.3.7 4.8v.2c0 .4-.3.7-.8.8l-5 .8h-.2c-.4.1-.7-.1-.7-.7m13.6 1.6-5.3-2.7c-.4-.2-.5-.4-.5-.8 0-.2.1-.3.2-.5q1.05-1.5 1.8-2.7l-1.1.4-.5.1c-.4 0-.6-.2-.6-.5-.3-1.9-.7-3.5-1.3-5l-.1-.5c0-.3.2-.6.7-.7l2.8-.8.4-.1c.4 0 .7.2.8.5.3.7.6 1.5.9 2.3.4-1.1.7-2.1.9-3.2.1-.2.1-.4.2-.5s.2-.2.4-.2c.1 0 .3 0 .4.1l5.3 1.2c.5.1.7.3.8.5l-.1.4c-.3 1.7-.9 3.9-1.9 6.5-1 2.7-1.9 4.7-2.8 6-.1.2-.3.3-.6.4-.4 0-.6-.1-.8-.2m17.4-34v-2.5h-12.3v2.5zm2.7 33.2c-1.7-3.3-2.8-7.3-3.4-12 0-.2 0-.3.1-.4 0-.2.3-.4.7-.5l5.3-1.2c.1 0 .2-.1.4-.1.3 0 .5.3.5.7.6 3.4 1.9 6.7 3.8 10.1.1.1.2.3.2.5 0 .3-.2.5-.5.6l-5.9 2.7c-.1.1-.3.1-.5.1-.3 0-.5-.2-.7-.5m25.8-25.3v-2.9c-1.9 1.1-4.2 2.2-6.8 3.4-.1.1-.3.1-.4.1q-.45 0-.6-.6l-3-8.7c0-.1 0-.3-.1-.4 0-.4.2-.6.6-.8 4.2-1.3 8-3 11.5-5.2 3.4-2.2 6.2-4.5 8.2-6.9.3-.3.7-.5 1.1-.5h8.4c.4 0 .8.1 1 .4 2.5 2.6 5.6 4.9 9.2 7.1 3.6 2.1 7.3 3.7 11.1 4.9.4.1.6.3.6.7 0 .2 0 .3-.1.4l-2.9 8.7c-.2.5-.5.7-1.1.5-2-.8-4.2-1.9-6.8-3.4v3.2q0 .9-.9.9h-28.3c-.4 0-.7-.3-.7-.9m-5.5 25.8V27.2q0-.9.9-.9h39.4q.9 0 .9.9v21.4q0 .9-.9.9h-39.4q-.9 0-.9-.9m30.8-7.8v-5.9h-20.6v5.9zM202.8 8.6c-1.6 2-4 4.1-7.2 6.4h15c-2.9-2-5.5-4.1-7.8-6.4m36 41.3-2.5-7.8c0-.1-.1-.2-.1-.3q0-.6.9-.6h.5c1.1 0 2-.1 2.5-.3s.9-.4 1-.8c.2-.4.2-.9.2-1.7v-4.6c-.9.3-2 .5-3.4.8l-.4.1c-.3-.1-.5-.3-.5-.8l-1-7.8c0-.2 0-.4.1-.5.1-.3.3-.4.6-.5.7-.1 2.3-.4 4.6-1v-6.5H238q-.9 0-.9-.9V9.6q0-.9.9-.9h3.4V1.2q0-.9.9-.9h7.3q.9 0 .9.9v7.5h1.2l-.3-.6-.1-.4c0-.3.2-.6.5-.7l4.3-2.2c.2-.1.4-.2.6-.2s.4.1.5.4q1.05 2.1 2.1 5.4V1.2q0-.9.9-.9h7q.9 0 .9.9v15c0 7-.2 12.4-.6 16.1q-.6 5.55-2.4 9.6c-1.2 2.7-3.1 5.4-5.7 8.3q-.3.3-.6.3c-.3 0-.4-.1-.5-.2l-7-5.5c-.2-.2-.4-.4-.4-.6s.1-.4.4-.6c2-1.7 3.6-3.5 4.8-5.5s2-4.1 2.5-6.4c-1 1-1.9 1.9-2.7 2.5-.2.1-.4.2-.5.2-.2 0-.4-.2-.6-.5l-1.4-3.4-2.7 1v7.1c0 3.4-.2 5.9-.7 7.5s-1.4 2.8-2.7 3.5c-1.4.7-3.5 1-6.3 1h-.8c-.9 0-1.3-.2-1.4-.7m20.5-29V20l-.1-1.7v-.9l-3.5 2.1c-.1.1-.3.2-.5.2q-.45 0-.6-.6c-.5-2.3-1.1-4.7-2-7.4v5q0 .9-.9.9h-1.4V22c.3-.1 1.1-.4 2.3-.8.1 0 .3-.1.4-.1.4 0 .6.3.6.8V25c2.2-1.3 4.1-2.6 5.7-4.1m13 28.1c-1-.4-1.7-1.1-2.1-2q-.6-1.35-.6-3.6V1.2q0-.9.9-.9h7q.9 0 .9.9v10.7c.8-2.4 1.4-4.6 1.7-6.8 0-.4.2-.6.6-.7.2 0 .3.1.5.2l5.6 3.1c.3.1.5.4.5.6s0 .4-.1.5c-1 3.9-2.3 7.2-4.1 10.1-.2.3-.4.4-.6.4s-.4-.1-.6-.2l-3.6-2v7.4l1.5-3.7c.1-.4.3-.5.6-.5.2 0 .4 0 .5.1 2.4 1.5 4.5 3.3 6.2 5.4q.3.3.3.6c0 .2-.1.4-.2.6l-3.4 6c-.1.3-.3.4-.6.4q-.3 0-.6-.3c-1.3-1.7-2.8-3.1-4.3-4.4v10.9c0 .3.1.5.2.6s.3.1.5.1h.6c.6 0 .9-.4 1.1-1.2s.3-2.2.3-4.3c0-.5.2-.8.6-.8l.4.1 5.3 2.5c.4.2.6.6.6 1.1q0 4.8-.6 7.2t-2.4 3.6c-1.2.8-3.1 1.2-5.5 1.3h-3c-1.7-.1-3.1-.4-4.1-.8m73.2-40.3c0 .3-.2.6-.6.8l-5.2 1.9c-.1 0-.2.1-.4.1s-.3-.1-.4-.2-.2-.3-.2-.5c-.5-2.3-1.4-4.5-2.7-6.7l-.1 4.1.1 4.3 9.2-1.1h.1c.5 0 .8.3.8.8l.3 7c0 .5-.3.8-.8.9l-9.3 1.1c.2 2.8.4 5.2.7 7.2.9-1.9 1.6-4.1 2.1-6.4.2-.6.5-.8 1.1-.6l5.4 2.3c.5.2.7.6.5 1.1-.7 2.1-1.6 4.4-2.8 6.8s-2.4 4.5-3.7 6.4c.5 1.1 1 1.6 1.4 1.6.6 0 1.1-1.2 1.3-3.7.1-.5.2-.8.5-.8.1 0 .3.1.5.3l3.9 4.5c.2.3.3.5.3.8l-.1.4c-.5 3.1-1.5 5.4-2.8 7.1-1.3 1.6-2.8 2.5-4.5 2.5-1.3 0-2.5-.5-3.7-1.4S334 47 333 45.2c-1.9 2-3.7 3.7-5.4 5-.1.1-.3.2-.5.2s-.4-.1-.6-.4l-4.3-4.8h-6.7v4.7q0 .9-.9.9h-7.1q-.9 0-.9-.9v-4.7h-10q-.9 0-.9-.9v-5.7q0-.9.9-.9h10V36H298q-.9 0-.9-.9V17.2q0-.9.9-.9h26.2l-.1-1.6h-11.4q-.9 0-.9-.9V2.4q0-.9.9-.9h12q.9 0 .9.9v11.4l1.7-.2c-.1-3.4-.1-5.8-.1-7.4l.1-4.9q0-.9.9-.9h7.1c.4 0 .6.1.8.3-.1.3-.1.6-.1 1l-.1.9V3l.4-.2 4.7-1.6c.1 0 .3-.1.4-.1.4 0 .6.1.8.4 1.4 2 2.4 4.2 3.2 6.8.1.1.1.3.1.4m-35.1-6.3V14q0 .9-.9.9h-12.3q-.9 0-.9-.9V2.4q0-.9.9-.9h12.3c.7.1.9.3.9.9m-5.6 7.3V7h-2.4v2.7zm-.5 12.3v2.4h3.4V22zm0 5.8v2.4h3.4v-2.4zm13.6-3.5V22h-3.5v2.4h3.5zm-3.5 3.5v2.4h3.5v-2.4zm11.2 10.8V40c1.4-1.1 2.8-2.3 4.1-3.8-1.1-4.4-1.8-9.1-2.1-14l-2.3.3h-.3v12.6q0 .9-.9.9h-8.7v1.8h9.3c.6 0 .9.3.9.8m-5.8-28.9V7h-2.4v2.7zm40.5 40.6-5.7-3.1c-.3-.2-.4-.4-.5-.6 0-.2 0-.3.1-.4q1.2-2.85 1.8-6.6c.4-2.5.7-5 .8-7.4 0-.4.1-.6.3-.7.1-.1.3-.2.6-.2l5.4.5c.4.1.6.2.8.4 0 .1.1.2.1.5-.1 1.3-.2 2.4-.3 3.5.5.7 1 1.3 1.6 1.8v-8h-8.6q-.9 0-.9-.9v-5.7q0-.9.9-.9h21.6q.9 0 .9.9V29q0 .9-.9.9h-4.9V32h4.4q.9 0 .9.9v2.8c2.5-.4 4.6-1.1 6.5-2.1h-3.7q-.9 0-.9-.9V11.1q0-.9.9-.9h4.2l.7-1.7h-6q-.9 0-.9-.9V2.4q0-.9.9-.9h23.2q.9 0 .9.9v5.3q0 .9-.9.9h-7.9c-.1.4-.3.9-.7 1.7h7.2q.9 0 .9.9V33q0 .9-.9.9h-3.7c1.8.9 3.9 1.6 6.2 2.1.5.1.7.3.7.6 0 .1 0 .3-.1.5l-1.9 3.9c.5 0 1.1 0 1.9-.1h.3c.4.1.5.3.5.5l-.1.4-2.5 7.4c-.2.5-.5.8-.9.8-2.5.1-6.9.2-13.3.2-6.2 0-10.8-.1-13.8-.2-3.1-.1-5.7-.5-7.6-1.3-2-.8-3.6-1.9-4.9-3.4-.4 1.8-.8 3.4-1.4 4.8-.1.3-.3.5-.6.5-.3-.1-.5-.2-.7-.3m-3.6-29.9v-18q0-.9.9-.9h19.7q.9 0 .9.9v18q0 .9-.9.9h-19.7q-.9 0-.9-.9m13.4-10.6V7.7h-5.4v2.1zm0 5.9v-2.1h-5.4v2.1zm7.5 22.8h-4.4v2.6l2.3.2 4.2.1-1.6-3c-.2.1-.3.1-.5.1m19.7 2.6c-1.9-.9-3.5-1.8-4.7-3q-.3-.3-.3-.6 0-.15.3-.6l2.6-3.2h-7.4l2.6 3.3c.1.2.2.4.2.6 0 .4-.7 1.1-2.1 1.9s-2.6 1.4-3.5 1.8zm-2.9-23.7v-2.1h-5.7v2.1zm0 5.9v-2.2h-5.7v2.2zm0 5.5v-2.1h-5.7v2.1z"/></svg>