<!-- Generator: Adobe Illustrator 25.0.0, SVG Export Plug-In  -->
<svg version="1.1" xmlns="http://www.w3.org/2000/svg" xmlns:xlink="http://www.w3.org/1999/xlink" x="0px" y="0px" width="51.2px"
	 height="50.3px" viewBox="0 0 51.2 50.3" style="overflow:visible;enable-background:new 0 0 51.2 50.3;" xml:space="preserve">
<style type="text/css">
	.st0{fill:#FFFFFF;}
</style>
<defs>
</defs>
<g>
	<path class="st0" d="M28.9,50.1c-2.9-0.2-5.2-1.1-6.8-2.7s-2.3-3.5-2.3-5.8c0-1.3,0.3-2.7,0.9-4c0.6-1.3,1.4-2.6,2.6-3.8
		c1.3-1.4,3-2.9,4.8-4.5c1.9-1.6,3.6-3,5-4.1h-8.8c-0.6,0-0.9-0.3-0.9-0.9v-3.4c-1,1-1.6,1.5-1.9,1.5c-0.3,0-0.5-0.1-0.7-0.4
		l-2.1-3.1v25.1c0,0.6-0.3,0.9-0.9,0.9h-17c-0.6,0-0.9-0.3-0.9-0.9V2.6C0,2,0.3,1.7,0.9,1.7h17c0.6,0,0.9,0.3,0.9,0.9v9.3
		c1.5-1.6,2.8-3.4,4-5.3c1.1-2,2-3.9,2.6-5.9C25.4,0.2,25.6,0,26,0h0.3l7.6,1.4c0.6,0.1,0.8,0.5,0.7,1l-0.7,2.1h15.1
		c0.6,0,0.9,0.3,0.9,0.9v7.5c0,0.6-0.3,0.9-0.9,0.9H29.3l-1.9,2.7h19.3c0.6,0,0.9,0.3,0.9,0.9v6.3c0,0.4-0.2,0.8-0.5,1
		c-2.3,1.6-5.1,3.8-8.6,6.6c-3.5,2.8-6,5.1-7.6,6.8c-0.6,0.7-0.9,1.2-0.9,1.7c0,0.8,0.6,1.3,1.9,1.4c0.6,0.1,1.7,0.1,3.2,0.1
		c1.5,0,2.6-0.1,3.5-0.2c0.8-0.1,1.4-0.4,1.9-0.8s0.8-1.2,1-2.3c0.2-1.1,0.4-2.7,0.5-4.9c0-0.3,0.1-0.6,0.3-0.7
		c0.2-0.1,0.4-0.2,0.7-0.1l7.5,2.9c0.4,0.1,0.7,0.4,0.7,0.9v0.2c-0.3,4.4-1,7.6-2,9.6c-1,1.9-2.6,3.2-4.6,3.7
		c-2,0.5-5.2,0.8-9.6,0.8C32.8,50.3,30.7,50.3,28.9,50.1z M10.8,36.2V10.3H8.2v25.9H10.8z"/>
</g>
</svg>
