<!-- Generator: Adobe Illustrator 25.0.0, SVG Export Plug-In  -->
<svg version="1.1" xmlns="http://www.w3.org/2000/svg" xmlns:xlink="http://www.w3.org/1999/xlink" x="0px" y="0px" width="52.4px"
	 height="51.2px" viewBox="0 0 52.4 51.2" style="overflow:visible;enable-background:new 0 0 52.4 51.2;" xml:space="preserve">
<style type="text/css">
	.st0{fill:#FFFFFF;}
</style>
<defs>
</defs>
<g>
	<path class="st0" d="M5.3,50.5l-5.1-7C0.1,43.3,0,43.1,0,42.9c0-0.3,0.2-0.5,0.5-0.7C1.8,41.7,3,40.9,4.3,40C5.6,39,6.8,38,7.8,37
		c-2.1-1.7-4.1-3.1-6.1-4.4c-0.3-0.2-0.5-0.5-0.5-0.7c0-0.2,0-0.3,0.1-0.4c1.1-4.3,2-9.2,2.7-14.8H1.8c-0.6,0-0.9-0.3-0.9-0.9V8.4
		c0-0.6,0.3-0.9,0.9-0.9h2.9c0.1-1.8,0.2-3.5,0.2-5V0.9C4.9,0.3,5.2,0,5.8,0h7.4C13.7,0,14,0.3,14,0.9c0,1.6-0.1,3.8-0.2,6.7h8.8
		c0.6,0,0.9,0.3,0.9,0.9c0,6.1-0.2,11.2-0.7,15.3c-0.5,4.1-1.4,7.9-2.8,11.4c2,1.6,3.6,3.1,4.9,4.5c0.2,0.1,0.3,0.3,0.3,0.6
		c0,0.2-0.1,0.4-0.2,0.6l-4.6,6.9c-0.2,0.3-0.4,0.4-0.7,0.4c-0.2,0-0.4-0.1-0.6-0.4c-1.2-1.4-2.6-2.9-4.3-4.6
		c-1.2,1.4-2.5,2.7-4,4.1s-3,2.5-4.4,3.5c0,0-0.1,0.1-0.2,0.1c-0.1,0.1-0.2,0.1-0.3,0.1C5.7,50.9,5.5,50.8,5.3,50.5z M14.5,23.7
		c0.4-2.4,0.6-4.7,0.6-7h-2.5c-0.8,5.3-1.5,9.2-2.1,11.6c0.6,0.4,1.4,0.9,2.5,1.6C13.6,28.1,14.1,26,14.5,23.7z M29.6,51.2
		c-0.3,0-0.5-0.1-0.7-0.2c-0.1-0.1-0.3-0.3-0.3-0.5l-2.7-7.7c-0.1-0.1-0.1-0.3-0.1-0.3c0-0.4,0.3-0.7,0.9-0.7l3.4,0.1
		c1.3,0,2.2-0.1,2.8-0.2s0.9-0.4,1.1-0.8c0.1-0.4,0.2-0.9,0.2-1.7v-0.4v-8.1h-9.5c-0.6,0-0.9-0.3-0.9-0.9v-7.9
		c0-0.6,0.3-0.9,0.9-0.9h9.5v-4.4c0-0.4,0.2-0.8,0.5-1c1.1-0.7,2.1-1.5,3-2.4c0.9-0.9,1.6-1.6,1.9-2.2H26.1c-0.6,0-0.9-0.3-0.9-0.9
		V2.2c0-0.6,0.3-0.9,0.9-0.9H50c0.6,0,0.9,0.3,0.9,0.9v7.7c0,0.4-0.1,0.8-0.3,1.1c-0.7,1.2-1.6,2.4-2.8,3.8
		c-1.1,1.4-2.4,2.6-3.7,3.8V21h7.4c0.6,0,0.9,0.3,0.9,0.9v7.9c0,0.6-0.3,0.9-0.9,0.9h-7.4v10.1c0,2.8-0.3,5-1,6.4s-1.8,2.5-3.6,3.1
		c-1.7,0.6-4.3,0.9-7.8,0.9C30.8,51.2,30,51.2,29.6,51.2z"/>
</g>
</svg>
