<svg version="1.1" xmlns="http://www.w3.org/2000/svg" xmlns:xlink="http://www.w3.org/1999/xlink" x="0px" y="0px" width="52.8px"
	 height="67.5px" viewBox="0 0 52.8 67.5" style="overflow:visible;enable-background:new 0 0 52.8 67.5;" xml:space="preserve">
<style type="text/css">
	.st0{fill:#FFFFFF;}
</style>
<defs>
</defs>
<g>
	<path class="st0" d="M1.5,9.5V0.9C1.5,0.3,1.8,0,2.4,0H50c0.6,0,0.9,0.3,0.9,0.9v8.6c0,0.6-0.3,0.9-0.9,0.9H2.4
		C1.8,10.4,1.5,10.1,1.5,9.5z"/>
</g>
<g>
	<path class="st0" d="M0,63.8c0-0.1,0.1-0.2,0.1-0.4c1.5-4.2,2.2-10.3,2.2-18.3v-2c0-0.6,0.3-0.9,0.8-0.9h0.1l5.6,0.5
		c0.5,0,0.8,0.3,0.8,0.9c0,0.7,0,1.1-0.1,1.5v3.1c0,0.3-0.1,0.8-0.1,1.5c0.4,1,0.9,1.9,1.5,2.7V40.4H2.1c-0.6,0-0.9-0.3-0.9-0.9
		v-7.3c0-0.6,0.3-0.9,0.9-0.9h8.3v-2.7H3.7c-0.6,0-0.9-0.3-0.9-0.9v-6.9c0-0.6,0.3-0.9,0.9-0.9h6.7v-2.7c0-0.6,0.3-0.9,0.9-0.9h7.3
		c0.6,0,0.9,0.3,0.9,0.9v2.7h5.4c0.6,0,0.9,0.3,0.9,0.9v6.9c0,0.6-0.3,0.9-0.9,0.9h-5.4v2.7h6.5c0.6,0,0.9,0.3,0.9,0.9v7.3
		c0,0.6-0.3,0.9-0.9,0.9H20v3.3h5.3c0.6,0,0.9,0.3,0.9,0.9v6.9c0,0.6-0.3,0.9-0.9,0.9H20v4.9c1.8,0.4,4.1,0.6,6.9,0.7
		c1.3,0.1,3.4,0.1,6.2,0.1c6.1,0,12.4-0.3,19-1h0.1c0.5,0,0.7,0.2,0.7,0.6L52.7,58l-2.5,7.9c-0.1,0.5-0.5,0.7-1.1,0.8
		c-5.1,0.3-10.4,0.5-16.1,0.5c-3.1,0-5.3,0-6.6-0.1c-4.1-0.2-7.5-0.8-10.2-1.6c-2.7-0.9-5.1-2.3-7.2-4.4c-0.2,1.8-0.5,3.8-0.9,5.8
		c0,0.4-0.3,0.7-0.7,0.7c-0.1,0-0.2,0-0.4-0.1l-6.5-2.8C0.2,64.4,0,64.2,0,63.8z M29.9,54c-1.3-1-1.9-2.8-1.9-5.4V19.3
		c0-0.6,0.3-0.9,0.9-0.9H49c0.6,0,0.9,0.3,0.9,0.9v19.5c0,0.6-0.3,0.9-0.9,0.9H36.8v6.3c0,0.4,0.1,0.7,0.2,0.9
		c0.1,0.2,0.4,0.3,0.9,0.3c0.5,0,1.1,0,1.8,0c0.6,0,1.2,0,1.8,0c0.9,0,1.4-0.5,1.7-1.4c0.3-0.9,0.4-2.5,0.5-4.8
		c0-0.3,0.1-0.6,0.3-0.7s0.4-0.1,0.7,0l6.9,2.3c0.4,0.1,0.7,0.5,0.7,0.9v0.1c-0.2,3.4-0.6,6-1.1,7.6c-0.6,1.7-1.5,2.8-2.8,3.4
		c-1.3,0.6-3.3,1-6,1l-3.1,0.1l-3.5-0.1C33.1,55.6,31.2,55,29.9,54z M41.4,31.3v-4.6h-4.6v4.6H41.4z"/>
</g>
</svg>
