<svg xmlns="http://www.w3.org/2000/svg" xml:space="preserve" width="52.8" height="67.5" style="overflow:visible" viewBox="0 0 52.8 67.5"><path fill="#fff" d="M1.5 9.5V.9q0-.9.9-.9H50q.9 0 .9.9v8.6q0 .9-.9.9H2.4q-.9 0-.9-.9M0 63.8c0-.1.1-.2.1-.4 1.5-4.2 2.2-10.3 2.2-18.3v-2c0-.6.3-.9.8-.9h.1l5.6.5c.5 0 .8.3.8.9 0 .7 0 1.1-.1 1.5v3.1c0 .3-.1.8-.1 1.5q.6 1.5 1.5 2.7v-12H2.1q-.9 0-.9-.9v-7.3q0-.9.9-.9h8.3v-2.7H3.7q-.9 0-.9-.9v-6.9q0-.9.9-.9h6.7v-2.7q0-.9.9-.9h7.3q.9 0 .9.9v2.7h5.4q.9 0 .9.9v6.9q0 .9-.9.9h-5.4v2.7H26q.9 0 .9.9v7.3q0 .9-.9.9h-6v3.3h5.3q.9 0 .9.9v6.9q0 .9-.9.9H20v4.9c1.8.4 4.1.6 6.9.7 1.3.1 3.4.1 6.2.1 6.1 0 12.4-.3 19-1h.1c.5 0 .7.2.7.6l-.2.3-2.5 7.9c-.1.5-.5.7-1.1.8-5.1.3-10.4.5-16.1.5-3.1 0-5.3 0-6.6-.1-4.1-.2-7.5-.8-10.2-1.6-2.7-.9-5.1-2.3-7.2-4.4-.2 1.8-.5 3.8-.9 5.8 0 .4-.3.7-.7.7-.1 0-.2 0-.4-.1L.5 64.7c-.3-.3-.5-.5-.5-.9M29.9 54c-1.3-1-1.9-2.8-1.9-5.4V19.3q0-.9.9-.9H49q.9 0 .9.9v19.5q0 .9-.9.9H36.8V46c0 .4.1.7.2.9q.15.3.9.3h3.6c.9 0 1.4-.5 1.7-1.4s.4-2.5.5-4.8c0-.3.1-.6.3-.7s.4-.1.7 0l6.9 2.3c.4.1.7.5.7.9v.1c-.2 3.4-.6 6-1.1 7.6-.6 1.7-1.5 2.8-2.8 3.4s-3.3 1-6 1l-3.1.1-3.5-.1c-2.7 0-4.6-.6-5.9-1.6m11.5-22.7v-4.6h-4.6v4.6z"/></svg>