<!-- Generator: Adobe Illustrator 25.0.0, SVG Export Plug-In  -->
<svg
  version="1.1"
  xmlns="http://www.w3.org/2000/svg"
  xmlns:xlink="http://www.w3.org/1999/xlink"
  x="0px"
  y="0px"
  width="214.6px"
  height="40.8px"
  viewBox="0 0 214.6 40.8"
  style="overflow: visible; enable-background: new 0 0 214.6 40.8"
  xml:space="preserve"
>
  <style type="text/css">
    .st0 {
      fill: #ffffff;
    }
  </style>
  <defs></defs>
  <g>
    <path
      class="st0"
      d="M5.6,31.9V18.1c-0.9,0.3-1.8,0.6-2.9,0.8c-0.1,0-0.1,0-0.2,0c-0.2,0-0.4-0.1-0.5-0.4L0,14.4c0-0.1,0-0.1,0-0.3
		c0-0.3,0.2-0.4,0.5-0.5c2.7-0.5,5.3-1.2,7.8-2.1s4.6-1.8,6.4-2.9L1.7,8.8c-0.4,0-0.6-0.2-0.6-0.6V4.5c0-0.4,0.2-0.6,0.6-0.6h15.7
		V0.7C17.4,0.3,17.6,0,18,0h4.5c0.4,0,0.6,0.2,0.6,0.6v3.2h15.8c0.4,0,0.6,0.2,0.6,0.6v3.7c0,0.4-0.2,0.6-0.6,0.6L26.2,8.7
		c3.8,2.2,8.4,3.8,14.1,4.7c0.3,0,0.5,0.2,0.5,0.5c0,0.1,0,0.1-0.1,0.3l-1.8,4.2c-0.1,0.3-0.3,0.4-0.5,0.4l-0.3,0
		c-0.8-0.2-1.8-0.5-3-0.8v14c0,0.4-0.2,0.6-0.6,0.6H6.2C5.8,32.5,5.6,32.3,5.6,31.9z M40.4,35.3V39c0,0.4-0.2,0.6-0.6,0.6h-39
		c-0.4,0-0.6-0.2-0.6-0.6v-3.8c0-0.4,0.2-0.6,0.6-0.6h39C40.2,34.6,40.4,34.9,40.4,35.3z M9.5,16.6h8l0.1-4.9
		C15.1,13.6,12.4,15.2,9.5,16.6z M29.6,20.6H11.1v2.1h18.4V20.6z M29.6,26.3H11.1v2.2h18.4V26.3z M23,11.7l0.1,4.9h8.5
		C28.3,15.1,25.4,13.5,23,11.7z"
    />
    <path
      class="st0"
      d="M61.7,5.4l-0.8-2.9l0-0.3c0-0.3,0.2-0.4,0.6-0.4l6.2,0.1c4.7,0,9.2-0.1,13.7-0.4s8.4-0.6,11.9-1.1h0.1
		c0.3,0,0.5,0.1,0.6,0.4l1.2,2.9c0.1,0.1,0.1,0.2,0.1,0.3c0,0.2-0.2,0.4-0.5,0.4c-4,0.5-8.7,0.9-14.1,1.1l-0.6,2.3H95
		c0.4,0,0.6,0.2,0.6,0.6v2.6c0,0.4-0.2,0.6-0.6,0.6H78.7l-0.9,2.1h20c0.4,0,0.6,0.2,0.6,0.6v2.8c0,0.4-0.2,0.6-0.6,0.6H75.2
		c-0.7,1-1.3,1.7-1.8,2.2h20.8c0.4,0,0.6,0.2,0.6,0.6v18.9c0,0.4-0.2,0.6-0.6,0.6H66.2c-0.4,0-0.6-0.2-0.6-0.6V26.7
		c-1.9,1.2-3.6,2.2-5,2.8c-0.1,0.1-0.2,0.1-0.3,0.1c-0.2,0-0.3-0.1-0.5-0.4L57.6,25c-0.1-0.1-0.1-0.3-0.1-0.3c0-0.2,0.1-0.4,0.4-0.5
		c4.5-1.7,8.1-3.9,10.7-6.4h-9.7c-0.4,0-0.6-0.2-0.6-0.6v-2.8c0-0.4,0.2-0.6,0.6-0.6h12.7c0.4-0.6,0.7-1.3,1.1-2.1H61.9
		c-0.4,0-0.6-0.2-0.6-0.6V8.5c0-0.4,0.2-0.6,0.6-0.6h12.5C74.7,7,74.9,6.3,75,5.8c-2.1,0.1-5.7,0.1-10.9,0.1h-1.6
		C62.1,5.9,61.8,5.7,61.7,5.4z M89.3,23.7H71.1v1.9h18.2V23.7z M89.3,28.9H71.1v2h18.2V28.9z M89.3,34.2H71.1v2.1h18.2V34.2z"
    />
    <path
      class="st0"
      d="M121.9,40.1l0.2-18.8c-0.9,3.1-1.9,5.9-3.2,8.4c-0.1,0.2-0.3,0.4-0.4,0.4c-0.1,0-0.3-0.1-0.4-0.3l-2.5-4
		c-0.1-0.2-0.1-0.3-0.1-0.4s0-0.3,0.1-0.4c1.1-1.7,2.2-3.7,3.3-6c1.1-2.3,2-4.7,2.8-7h-3.9c-0.4,0-0.6-0.2-0.6-0.6V7.4
		c0-0.4,0.2-0.6,0.6-0.6h4.3l0-6.1c0-0.4,0.2-0.6,0.6-0.6h4.1c0.4,0,0.6,0.2,0.6,0.6v6.1h2.9c0.4,0,0.6,0.2,0.6,0.6v3.9
		c0,0.4-0.2,0.6-0.6,0.6h-2.9c1.2,3.1,2.6,5.8,4.2,8.2c0.1,0.1,0.2,0.3,0.2,0.4c0,0.1,0,0.3-0.1,0.4l-2.2,3.8
		c-0.1,0.2-0.3,0.3-0.4,0.3c-0.2,0-0.3-0.1-0.4-0.4c-0.4-1-0.9-2.2-1.4-3.8l0.2,19.2c0,0.4-0.2,0.6-0.6,0.6h-4.1
		C122.1,40.8,121.9,40.6,121.9,40.1z M129,36.7c0-0.2,0.1-0.3,0.4-0.4c2.6-1.3,4.4-2.9,5.6-4.8c1.1-1.9,1.8-4.1,2-6.7h-4.2
		c-0.4,0-0.6-0.2-0.6-0.6v-3.3c0-0.4,0.2-0.6,0.6-0.6h8.5c-0.1-0.4-0.4-1.1-0.8-1.9c-0.1-0.1-0.1-0.2-0.1-0.3c0-0.3,0.2-0.4,0.5-0.4
		l3.6-0.3h0.3c0.4,0,0.6,0.1,0.7,0.4c0.3,0.6,0.6,1.4,0.9,2.5h8.7c0.4,0,0.6,0.2,0.6,0.6v3.3c0,0.4-0.2,0.6-0.6,0.6h-12.8
		c-0.1,1-0.2,1.8-0.3,2.4h11.6c0.4,0,0.6,0.2,0.6,0.6c0,2.7,0,4.6-0.1,5.9c-0.1,1.7-0.5,3-1.1,4s-1.6,1.7-2.9,2.1s-3.1,0.7-5.3,0.7
		c-0.4,0-0.8,0-1.2,0c-0.2,0-0.3-0.1-0.4-0.1c-0.1-0.1-0.2-0.2-0.2-0.4l-1.3-3.5l0-0.3c0-0.3,0.2-0.4,0.6-0.4l2,0
		c1.7,0,2.8-0.1,3.5-0.4c0.6-0.3,1-0.9,1.1-1.8c0.1-0.6,0.1-1.3,0.1-2.1h-7.9c-1.5,4-4,7.1-7.6,9.2c-0.1,0.1-0.2,0.1-0.4,0.1
		c-0.2,0-0.3-0.1-0.5-0.3l-3.1-3.3C129.1,36.9,129,36.8,129,36.7z M131.7,11.7h4.5c-0.4-1.4-0.8-2.7-1.2-3.8h-2.4
		c-0.4,0-0.6-0.2-0.6-0.6V4c0-0.4,0.2-0.6,0.6-0.6h8.3c-0.2-0.7-0.5-1.4-0.9-2.2c-0.1-0.1-0.1-0.2-0.1-0.3c0-0.3,0.2-0.4,0.5-0.4
		l4-0.4h0.2c0.4,0,0.6,0.1,0.8,0.4c0.3,0.6,0.6,1.5,1,2.9h8.7c0.4,0,0.6,0.2,0.6,0.6v3.3c0,0.4-0.2,0.6-0.6,0.6h-2.4
		c-0.2,1-0.6,2.2-1.2,3.8h4.4c0.4,0,0.6,0.2,0.6,0.6v6.3c0,0.4-0.2,0.6-0.6,0.6H152c-0.4,0-0.6-0.2-0.6-0.6V16h-15.4v2.7
		c0,0.4-0.2,0.6-0.6,0.6h-3.7c-0.4,0-0.6-0.2-0.6-0.6v-6.4C131,11.9,131.2,11.7,131.7,11.7z M141.3,11.7h4.9
		c0.4-1.1,0.8-2.4,1.2-3.8h-7.3L141.3,11.7z"
    />
    <path
      class="st0"
      d="M177.3,28.3V13.8c0-0.4,0.2-0.6,0.6-0.6h32.9c0.4,0,0.6,0.2,0.6,0.6v14.6c0,0.4-0.2,0.6-0.6,0.6h-13.7V31H214
		c0.4,0,0.6,0.2,0.6,0.6v3.7c0,0.4-0.2,0.6-0.6,0.6h-16.9v4.2c0,0.4-0.2,0.6-0.6,0.6h-4.2c-0.4,0-0.6-0.2-0.6-0.6v-4.2h-16.8
		c-0.4,0-0.6-0.2-0.6-0.6v-3.7c0-0.4,0.2-0.6,0.6-0.6h16.8v-2.1H178C177.5,28.9,177.3,28.7,177.3,28.3z M176.5,1.2h16
		c0.4,0,0.6,0.2,0.6,0.6v8.9c0,0.4-0.2,0.6-0.6,0.6h-16c-0.4,0-0.6-0.2-0.6-0.6V1.8C175.9,1.4,176.1,1.2,176.5,1.2z M188.1,4.9H181
		v2.9h7.1V4.9z M191.6,17h-8.8v2.2h8.8V17z M191.6,22.6h-8.8V25h8.8V22.6z M196.2,1.2h16.1c0.4,0,0.6,0.2,0.6,0.6v8.9
		c0,0.4-0.2,0.6-0.6,0.6h-16.1c-0.4,0-0.6-0.2-0.6-0.6V1.8C195.5,1.4,195.8,1.2,196.2,1.2z M206,17h-8.9v2.2h8.9V17z M206,22.6h-8.9
		V25h8.9V22.6z M207.8,4.9h-7.3v2.9h7.3V4.9z"
    />
  </g>
</svg>
