<svg xmlns="http://www.w3.org/2000/svg" xml:space="preserve" width="214.6" height="40.8" style="overflow:visible" viewBox="0 0 214.6 40.8"><path fill="#fff" d="M5.6 31.9V18.1c-.9.3-1.8.6-2.9.8h-.2c-.2 0-.4-.1-.5-.4l-2-4.1v-.3c0-.3.2-.4.5-.5q4.05-.75 7.8-2.1c3.75-1.35 4.6-1.8 6.4-2.9l-13 .2q-.6 0-.6-.6V4.5q0-.6.6-.6h15.7V.7c0-.4.2-.7.6-.7h4.5q.6 0 .6.6v3.2h15.8q.6 0 .6.6v3.7q0 .6-.6.6H26.2c3.8 2.2 8.4 3.8 14.1 4.7.3 0 .5.2.5.5 0 .1 0 .1-.1.3l-1.8 4.2c-.1.3-.3.4-.5.4h-.3c-.8-.2-1.8-.5-3-.8v14q0 .6-.6.6H6.2c-.4-.1-.6-.3-.6-.7m34.8 3.4V39q0 .6-.6.6H.8q-.6 0-.6-.6v-3.8q0-.6.6-.6h39c.4 0 .6.3.6.7M9.5 16.6h8l.1-4.9c-2.5 1.9-5.2 3.5-8.1 4.9m20.1 4H11.1v2.1h18.4v-2.1zm0 5.7H11.1v2.2h18.4v-2.2zM23 11.7l.1 4.9h8.5c-3.3-1.5-6.2-3.1-8.6-4.9m38.7-6.3-.8-2.9v-.3c0-.3.2-.4.6-.4l6.2.1c4.7 0 9.2-.1 13.7-.4S89.8.9 93.3.4h.1c.3 0 .5.1.6.4l1.2 2.9c.1.1.1.2.1.3 0 .2-.2.4-.5.4-4 .5-8.7.9-14.1 1.1l-.6 2.3H95q.6 0 .6.6V11q0 .6-.6.6H78.7l-.9 2.1h20q.6 0 .6.6v2.8q0 .6-.6.6H75.2c-.7 1-1.3 1.7-1.8 2.2h20.8q.6 0 .6.6v18.9q0 .6-.6.6h-28q-.6 0-.6-.6V26.7c-1.9 1.2-3.6 2.2-5 2.8-.1.1-.2.1-.3.1-.2 0-.3-.1-.5-.4L57.6 25c-.1-.1-.1-.3-.1-.3 0-.2.1-.4.4-.5 4.5-1.7 8.1-3.9 10.7-6.4h-9.7q-.6 0-.6-.6v-2.8q0-.6.6-.6h12.7c.4-.6.7-1.3 1.1-2.1H61.9q-.6 0-.6-.6V8.5q0-.6.6-.6h12.5q.45-1.35.6-2.1c-2.1.1-5.7.1-10.9.1h-1.6c-.4 0-.7-.2-.8-.5m27.6 18.3H71.1v1.9h18.2zm0 5.2H71.1v2h18.2zm0 5.3H71.1v2.1h18.2zm32.6 5.9.2-18.8c-.9 3.1-1.9 5.9-3.2 8.4-.1.2-.3.4-.4.4s-.3-.1-.4-.3l-2.5-4c-.1-.2-.1-.3-.1-.4s0-.3.1-.4q1.65-2.55 3.3-6c1.1-2.3 2-4.7 2.8-7h-3.9q-.6 0-.6-.6v-4q0-.6.6-.6h4.3V.7q0-.6.6-.6h4.1q.6 0 .6.6v6.1h2.9q.6 0 .6.6v3.9q0 .6-.6.6h-2.9c1.2 3.1 2.6 5.8 4.2 8.2.1.1.2.3.2.4s0 .3-.1.4l-2.2 3.8c-.1.2-.3.3-.4.3-.2 0-.3-.1-.4-.4-.4-1-.9-2.2-1.4-3.8l.2 19.2q0 .6-.6.6h-4.1c-.7.2-.9 0-.9-.5m7.1-3.4c0-.2.1-.3.4-.4 2.6-1.3 4.4-2.9 5.6-4.8 1.1-1.9 1.8-4.1 2-6.7h-4.2q-.6 0-.6-.6v-3.3q0-.6.6-.6h8.5c-.1-.4-.4-1.1-.8-1.9-.1-.1-.1-.2-.1-.3 0-.3.2-.4.5-.4l3.6-.3h.3c.4 0 .6.1.7.4.3.6.6 1.4.9 2.5h8.7q.6 0 .6.6v3.3q0 .6-.6.6h-12.8q-.15 1.5-.3 2.4h11.6q.6 0 .6.6c0 2.7 0 4.6-.1 5.9-.1 1.7-.5 3-1.1 4s-1.6 1.7-2.9 2.1-3.1.7-5.3.7h-1.2c-.2 0-.3-.1-.4-.1-.1-.1-.2-.2-.2-.4l-1.3-3.5v-.3c0-.3.2-.4.6-.4h2c1.7 0 2.8-.1 3.5-.4.6-.3 1-.9 1.1-1.8.1-.6.1-1.3.1-2.1h-7.9c-1.5 4-4 7.1-7.6 9.2-.1.1-.2.1-.4.1s-.3-.1-.5-.3l-3.1-3.3c-.4-.3-.5-.4-.5-.5m2.7-25h4.5c-.4-1.4-.8-2.7-1.2-3.8h-2.4q-.6 0-.6-.6V4q0-.6.6-.6h8.3c-.2-.7-.5-1.4-.9-2.2-.1-.1-.1-.2-.1-.3 0-.3.2-.4.5-.4l4-.4h.2c.4 0 .6.1.8.4.3.6.6 1.5 1 2.9h8.7q.6 0 .6.6v3.3q0 .6-.6.6h-2.4c-.2 1-.6 2.2-1.2 3.8h4.4q.6 0 .6.6v6.3q0 .6-.6.6H152q-.6 0-.6-.6V16H136v2.7q0 .6-.6.6h-3.7q-.6 0-.6-.6v-6.4q-.15-.6.6-.6m9.6 0h4.9c.4-1.1.8-2.4 1.2-3.8h-7.3zm36 16.6V13.8q0-.6.6-.6h32.9q.6 0 .6.6v14.6q0 .6-.6.6h-13.7v2H214q.6 0 .6.6v3.7q0 .6-.6.6h-16.9v4.2q0 .6-.6.6h-4.2q-.6 0-.6-.6v-4.2h-16.8q-.6 0-.6-.6v-3.7q0-.6.6-.6h16.8v-2.1H178c-.5 0-.7-.2-.7-.6m-.8-27.1h16q.6 0 .6.6v8.9q0 .6-.6.6h-16q-.6 0-.6-.6V1.8q0-.6.6-.6m11.6 3.7H181v2.9h7.1zm3.5 12.1h-8.8v2.2h8.8zm0 5.6h-8.8V25h8.8zm4.6-21.4h16.1q.6 0 .6.6v8.9q0 .6-.6.6h-16.1q-.6 0-.6-.6V1.8c-.1-.4.2-.6.6-.6M206 17h-8.9v2.2h8.9zm0 5.6h-8.9V25h8.9zm1.8-17.7h-7.3v2.9h7.3z"/></svg>