<svg xmlns="http://www.w3.org/2000/svg" xml:space="preserve" width="874.6" height="1521.4" style="overflow:visible" viewBox="0 0 874.6 1521.4"><path d="M60.4 0h753.8v20.2H60.4zM20.239 60.804v1425.7H.039V60.804zM40.2 20.4h20.2v20.2H40.2zM19.9 40.6h20.2v20.2H19.9zm854.705 20.238v1425.7h-20.2V60.838zm-40.18-20.239h-20.2v-20.2h20.2z"/><path d="M854.694 60.868h-20.2v-20.2h20.2zM60.4 1225.4h753.8v296H60.4z"/><path d="M40.2 1204.4h20.2v296.7H40.2zm-20.3-20.2h20.2v296.7H19.9zm794.3 20.2h20.2v296.7h-20.2zm20.2-20.2h20.2v296.7h-20.2z"/><path d="M854.7 60.9h-20.3V40.6h-20.2V20.4H60.4v20.2H40.2v20.3H19.9v1123.3h20.3v20.2h20.2v20.2h753.8v-20.2h20.2v-20.2h20.3z" style="fill:#fff"/><path d="M834.4 1204.4v20.2h-20.2v21.1H60.4v-21.1H40.2v-20.2H19.9v256.1h20.3v20.3h20.2v20.3h753.8v-20.3h20.2v-20.3h20.3v-256.1z" style="fill:#949495"/></svg>