<!-- Generator: Adobe Illustrator 25.0.0, SVG Export Plug-In  -->
<svg version="1.1" xmlns="http://www.w3.org/2000/svg" xmlns:xlink="http://www.w3.org/1999/xlink" x="0px" y="0px" width="874.6px"
	 height="1434.6px" viewBox="0 0 874.6 1434.6" style="overflow:visible;enable-background:new 0 0 874.6 1434.6;"
	 xml:space="preserve">
<style type="text/css">
	.st0{fill:#FFFFFF;}
	.st1{fill:#575858;}
</style>
<defs>
</defs>
<g>
	<rect x="60.4" width="753.8" height="20.2"/>
	<rect x="-646.3" y="707.2" transform="matrix(-1.836970e-16 1 -1 -1.836970e-16 727.4084 707.174)" width="1312.9" height="20.2"/>
	<rect x="40.2" y="20.4" width="20.2" height="20.2"/>
	<rect x="19.9" y="40.6" width="20.2" height="20.2"/>
	<rect x="208" y="707.2" transform="matrix(-2.469332e-11 1 -1 -2.469332e-11 1581.775 -147.1926)" width="1312.9" height="20.2"/>
	<rect x="814.2" y="20.4" transform="matrix(-1 -4.494772e-11 4.494772e-11 -1 1648.6254 60.9988)" width="20.2" height="20.2"/>
	<rect x="834.4" y="40.6" transform="matrix(-1 -4.494772e-11 4.494772e-11 -1 1689.0944 101.4678)" width="20.2" height="20.2"/>
	<rect x="60.4" y="1106.6" width="753.8" height="328"/>
	<rect x="40.2" y="1085.5" width="20.2" height="328.7"/>
	<rect x="19.9" y="1065.3" width="20.2" height="328.7"/>
	<rect x="814.2" y="1085.5" width="20.2" height="328.7"/>
	<rect x="834.4" y="1065.3" width="20.2" height="328.7"/>
	<polygon class="st0" points="854.7,60.9 834.4,60.9 834.4,40.6 814.2,40.6 814.2,20.4 60.4,20.4 60.4,40.6 40.2,40.6 40.2,60.9 
		19.9,60.9 19.9,1065.3 40.2,1065.3 40.2,1085.5 60.4,1085.5 60.4,1105.8 814.2,1105.8 814.2,1085.5 834.4,1085.5 834.4,1065.3 
		854.7,1065.3 	"/>
	<rect x="84.3" y="1078.4" width="706" height="7.1"/>
</g>
<polygon class="st1" points="834.4,1085.5 834.4,1105.8 814.2,1105.8 814.2,1126.8 60.4,1126.8 60.4,1105.8 40.2,1105.8 
	40.2,1085.5 19.9,1085.5 19.9,1373.7 40.2,1373.7 40.2,1393.9 60.4,1393.9 60.4,1414.3 814.2,1414.3 814.2,1393.9 834.4,1393.9 
	834.4,1373.7 854.7,1373.7 854.7,1085.5 "/>
</svg>
