<!-- Generator: Adobe Illustrator 25.0.0, SVG Export Plug-In  -->
<svg version="1.1" xmlns="http://www.w3.org/2000/svg" xmlns:xlink="http://www.w3.org/1999/xlink" x="0px" y="0px" width="874.6px"
	 height="576.4px" viewBox="0 0 874.6 576.4" style="overflow:visible;enable-background:new 0 0 874.6 576.4;"
	 xml:space="preserve">
<style type="text/css">
	.st0{fill:#FFFFFF;}
</style>
<defs>
</defs>
<polygon class="st0" points="19.9,0 19.9,514.7 40.2,514.7 40.2,534.9 60.4,534.9 60.4,555.2 814.2,555.2 814.2,534.9 834.4,534.9 
	834.4,514.7 854.7,514.7 854.7,0 "/>
<rect x="84.3" y="527.8" width="706" height="7.1"/>
<polygon points="854.4,0 854.4,514.7 834.4,514.7 834.4,534.9 814.2,534.9 814.2,556 60.4,556 60.4,534.9 40.1,534.9 40.1,514.7 
	20.2,514.7 20.2,0 0,0 0,534.9 19.9,534.9 19.9,557 30.3,557 40.1,557 40.2,557 40.2,576.4 60.4,576.4 814.2,576.4 834.4,576.4 
	834.4,556 854.6,556 854.6,534.9 874.6,534.9 874.6,0 "/>
</svg>
