<!-- Generator: Adobe Illustrator 25.0.0, SVG Export Plug-In  -->
<svg version="1.1" xmlns="http://www.w3.org/2000/svg" xmlns:xlink="http://www.w3.org/1999/xlink" x="0px" y="0px" width="215.1px"
	 height="41.3px" viewBox="0 0 215.1 41.3" style="overflow:visible;enable-background:new 0 0 215.1 41.3;" xml:space="preserve">
<style type="text/css">
	.st0{fill:#FFFFFF;}
</style>
<defs>
</defs>
<g>
	<path class="st0" d="M3.6,21.9c-0.2,0-0.3-0.1-0.5-0.3l-3-4.3C0,17.2,0,17.1,0,16.9c0-0.2,0.1-0.4,0.3-0.5c4.6-2.9,8-7.3,10.4-13.2
		c0.1-0.4,0.4-0.5,0.8-0.4l4.3,1.7c0.4,0.2,0.5,0.4,0.4,0.8c-0.7,1.9-1.6,3.8-2.7,5.8c-1.2,2-2.4,3.8-3.8,5.5h22
		c-1.1-1.3-2.2-2.8-3.1-4.4c-1-1.6-2-3.4-3-5.4h-7.2c-0.4,0-0.6-0.2-0.6-0.6V1.9c0-0.4,0.2-0.6,0.6-0.6h10.5c0.4,0,0.6,0.2,0.8,0.5
		c2.6,6.5,6.3,11.2,11.1,14.2c0.2,0.1,0.3,0.3,0.3,0.5c0,0.1,0,0.3-0.1,0.4l-2.9,4.6c-0.1,0.2-0.3,0.4-0.5,0.4c-0.1,0-0.2,0-0.4-0.1
		c-1.3-0.9-2.4-1.8-3.3-2.7c-0.1,4.7-0.2,8.8-0.4,12.1c-0.1,2.5-0.6,4.4-1.3,5.8c-0.8,1.4-1.9,2.4-3.4,2.9c-1.5,0.6-3.6,0.9-6.3,0.9
		h-1.5c-0.4-0.1-0.6-0.2-0.7-0.5l-1.7-4.6l0-0.3v0c0-0.3,0.2-0.4,0.6-0.4l2,0.1c1.6,0,2.9-0.1,3.8-0.4s1.5-0.8,1.9-1.5
		c0.4-0.7,0.6-1.6,0.8-2.8c0.2-1.8,0.3-4.1,0.3-7v-1.2h-7.2c-0.4,5-2,9.1-4.6,12.3s-6.5,5.5-11.6,6.9c-0.1,0-0.1,0-0.2,0
		c-0.2,0-0.4-0.1-0.6-0.4l-2.8-4.2c-0.1-0.1-0.1-0.3-0.1-0.4c0-0.2,0.2-0.4,0.5-0.4c4.3-1,7.5-2.6,9.6-4.8c2.1-2.2,3.4-5.2,3.8-9.1
		H8.7c-0.4,0-0.6-0.2-0.6-0.6v-3c-1.4,1.4-2.7,2.5-4,3.3C3.9,21.8,3.8,21.9,3.6,21.9z"/>
	<path class="st0" d="M58.8,28.8H77V28c0-0.4,0.2-0.6,0.6-0.6c2.9-0.4,5.4-1,7.3-1.9H62.5c-0.4,0-0.6-0.2-0.6-0.6v-2.9
		c0-0.4,0.2-0.6,0.6-0.6h31.1c0.4,0,0.6,0.2,0.6,0.6v2.9c0,0.3-0.1,0.6-0.4,0.7c-2.1,1.1-4.9,2.2-8.1,3.3h12.3
		c0.4,0,0.6,0.2,0.6,0.6v3.3c0,0.4-0.2,0.6-0.6,0.6H82.5v1.6c0,1.6-0.3,2.9-1,3.8c-0.7,0.9-1.8,1.6-3.3,1.9
		c-1.5,0.4-3.6,0.6-6.3,0.6h-1.4c-0.4,0-0.6-0.2-0.8-0.5l-1.4-3.7c0-0.1,0-0.1,0-0.3c0-0.3,0.2-0.4,0.6-0.4l2.8,0
		c1.5,0,2.7-0.1,3.4-0.2c0.8-0.1,1.3-0.4,1.5-0.7c0.3-0.3,0.4-0.8,0.4-1.4v-0.8H58.8c-0.4,0-0.6-0.2-0.6-0.6v-3.3
		C58.2,29,58.4,28.8,58.8,28.8z M59.4,3.1h16.2l-1.1-1.6c-0.1-0.1-0.1-0.2-0.1-0.3c0-0.3,0.2-0.5,0.5-0.5l4.8-0.4h0.1
		c0.3,0,0.6,0.2,0.8,0.5c0.3,0.6,0.7,1.4,1.2,2.4h15.8c0.4,0,0.6,0.2,0.6,0.6v3.3c0,0.4-0.2,0.6-0.6,0.6H59.4
		c-0.4,0-0.6-0.2-0.6-0.6V3.7C58.8,3.3,59,3.1,59.4,3.1z M62.9,18.9v-8.8c0-0.4,0.2-0.6,0.6-0.6h30c0.4,0,0.6,0.2,0.6,0.6v8.8
		c0,0.4-0.2,0.6-0.6,0.6h-30C63.1,19.5,62.9,19.3,62.9,18.9z M88.6,13.1H68.4v2.7h20.2V13.1z"/>
	<path class="st0" d="M116,38.8c0-0.1,0-0.2,0.1-0.4c0.8-2.1,1.4-4.8,1.8-8.1c0.1-0.4,0.3-0.6,0.6-0.6l0.4,0l2.9,0.4
		c0.4,0,0.6,0.2,0.6,0.6c-0.1,1.3-0.2,2.9-0.5,4.6s-0.5,3.2-0.8,4.3c-0.1,0.3-0.2,0.5-0.5,0.5l-0.3,0l-3.8-0.8
		C116.2,39.2,116,39,116,38.8z M118,27.5l-0.8-2.8c0-0.1,0-0.2,0-0.4c0-0.3,0.2-0.6,0.5-0.8c1.8-1.5,3.7-3.8,5.7-7
		c-1.8,0.4-3.6,0.7-5.6,0.9h-0.1c-0.1,0-0.2-0.1-0.3-0.2c-0.1-0.1-0.2-0.2-0.2-0.4l-0.8-2.7c-0.1-0.3-0.1-0.6-0.1-0.7
		c0-0.2,0.1-0.5,0.3-0.8c1-1.1,2.1-3,3.3-5.6s2.1-4.8,2.7-6.7c0.1-0.3,0.3-0.4,0.6-0.4c0.1,0,0.2,0,0.4,0.1l3.8,1.4
		c0.3,0.1,0.4,0.3,0.4,0.5l0,0.3c-0.7,1.6-1.6,3.4-2.7,5.5c-1.1,2.1-2,3.6-2.8,4.5l3.9-0.7c1-2,1.8-3.6,2.3-4.9
		c0.1-0.2,0.3-0.3,0.5-0.3c0.1,0,0.2,0,0.4,0.1l3.6,1.7c0.2,0.1,0.3,0.3,0.3,0.6c0,0.1,0,0.3-0.1,0.4c-1.4,2.4-2.9,4.9-4.5,7.4
		c-1.6,2.5-3,4.5-4.3,5.9c1.8-0.4,3.3-0.7,4.5-1c-0.3-0.9-0.6-1.6-0.8-2.1c0-0.1,0-0.1,0-0.3c0-0.3,0.1-0.4,0.4-0.5l2.9-1
		c0.1,0,0.1,0,0.3,0c0.3,0,0.5,0.1,0.6,0.4c0.5,1.1,1,2.4,1.4,3.9c0.4,1.5,0.8,2.8,1.1,4l0,0.3c0,0.2-0.1,0.4-0.4,0.4l-3.3,1
		c-0.1,0-0.1,0-0.3,0c-0.3,0-0.4-0.2-0.4-0.5l-0.3-1.3c-4.4,1.1-8,1.8-10.9,2.2l-0.3,0C118.4,28.1,118.2,27.9,118,27.5z M124.5,38.7
		c-0.1-1.2-0.3-2.5-0.5-4c-0.2-1.4-0.5-2.8-0.8-4l0-0.2c0-0.2,0.1-0.3,0.3-0.4l3.2-0.7l0.3,0c0.3,0,0.4,0.1,0.5,0.4
		c0.3,0.7,0.6,1.8,1,3.4c0.4,1.5,0.7,2.9,1,4.2l0,0.4c0,0.3-0.2,0.4-0.5,0.5l-3.5,0.9l-0.4,0C124.7,39.2,124.5,39,124.5,38.7z
		 M131.1,36.4c-0.6-2.6-1.3-4.7-2-6.2c0-0.1-0.1-0.2-0.1-0.3c0-0.2,0.1-0.3,0.3-0.4l2.7-0.9c0.1,0,0.2-0.1,0.3-0.1
		c0.2,0,0.4,0.1,0.5,0.3c0.8,1.6,1.6,3.6,2.3,6l0,0.4c0,0.2-0.1,0.4-0.3,0.5l-3,1.1l-0.3,0C131.3,36.9,131.2,36.7,131.1,36.4z
		 M133.8,9.7v-4c0-0.4,0.2-0.6,0.6-0.6h7.9V1.2c0-0.4,0.2-0.6,0.6-0.6h4.3c0.4,0,0.6,0.2,0.6,0.6v3.9h8.4c0.4,0,0.6,0.2,0.6,0.6v4
		c0,0.4-0.2,0.6-0.6,0.6h-8.4v4.8h7.5c0.4,0,0.6,0.2,0.6,0.6v3.8c0,0.4-0.2,0.6-0.6,0.6h-20.3c-0.4,0-0.6-0.2-0.6-0.6v-3.8
		c0-0.4,0.2-0.6,0.6-0.6h7.2v-4.8h-7.9C134,10.4,133.8,10.1,133.8,9.7z M136.2,23.7h18.4c0.4,0,0.6,0.2,0.6,0.6v15.4
		c0,0.4-0.2,0.6-0.6,0.6h-18.4c-0.4,0-0.6-0.2-0.6-0.6V24.3C135.5,23.9,135.8,23.7,136.2,23.7z M149.9,28.4h-9.1v7.1h9.1V28.4z"/>
	<path class="st0" d="M177.7,20.5V2.4c0-0.4,0.2-0.6,0.6-0.6h32.5c0.4,0,0.6,0.2,0.6,0.6v18.2c0,0.4-0.2,0.6-0.6,0.6h-13.5v2.6h16.4
		c0.4,0,0.6,0.2,0.6,0.6v3.9c0,0.4-0.2,0.6-0.6,0.6l-13.3-0.2c1.9,1.2,4,2.4,6.5,3.4c2.5,1,5,1.9,7.7,2.5c0.3,0.1,0.5,0.3,0.5,0.5
		c0,0.1,0,0.2-0.1,0.3l-2.1,4.4c-0.1,0.3-0.3,0.4-0.5,0.4l-0.3,0c-2.8-1-5.5-2.1-8.1-3.5s-4.9-2.9-6.7-4.5l0.1,8.5
		c0,0.4-0.2,0.6-0.6,0.6h-4.4c-0.4,0-0.6-0.2-0.6-0.6l0.1-8.5c-3.8,3.5-8.8,6.1-14.8,8.1l-0.3,0h0c-0.2,0-0.3-0.1-0.5-0.4l-2-4.4
		c-0.1-0.1-0.1-0.2-0.1-0.3c0-0.3,0.1-0.4,0.4-0.5c5.8-1.4,10.6-3.4,14.2-6l-13.3,0.2c-0.4,0-0.6-0.2-0.6-0.6v-3.9
		c0-0.4,0.2-0.6,0.6-0.6h16.3v-2.6h-13.4C177.9,21.2,177.7,21,177.7,20.5z M191.8,6.6h-8.4v2.9h8.4V6.6z M191.8,13.6h-8.4v2.9h8.4
		V13.6z M205.8,6.6h-8.5v2.9h8.5V6.6z M205.8,13.6h-8.5v2.9h8.5V13.6z"/>
</g>
</svg>
