<!-- Generator: Adobe Illustrator 25.0.0, SVG Export Plug-In  -->
<svg version="1.1" xmlns="http://www.w3.org/2000/svg" xmlns:xlink="http://www.w3.org/1999/xlink" x="0px" y="0px" width="174.9px"
	 height="44px" viewBox="0 0 174.9 44" style="overflow:visible;enable-background:new 0 0 174.9 44;" xml:space="preserve">
<style type="text/css">
	.st0{fill:#FFFFFF;}
</style>
<defs>
</defs>
<g>
	<path class="st0" d="M17.6,43.3V7.1H0.7C0.2,7.1,0,6.9,0,6.4v-5C0,1,0.2,0.7,0.7,0.7h43.1c0.5,0,0.7,0.2,0.7,0.7v5
		c0,0.5-0.2,0.7-0.7,0.7H24.5v6.2c3.4,1.6,6.6,3.3,9.5,4.9c2.9,1.6,5.9,3.5,8.8,5.6c0.2,0.1,0.3,0.3,0.3,0.5c0,0.1,0,0.3-0.1,0.4
		l-3.1,4.6c-0.1,0.2-0.3,0.3-0.5,0.3c-0.2,0-0.3-0.1-0.4-0.2c-4-3.2-8.9-6.3-14.4-9.3v23c0,0.5-0.2,0.7-0.7,0.7h-5.6
		C17.8,44,17.6,43.8,17.6,43.3z"/>
	<path class="st0" d="M65.4,23.5v-5.3c0-0.5,0.2-0.7,0.7-0.7h41.7c0.5,0,0.7,0.2,0.7,0.7v5.3c0,0.5-0.2,0.7-0.7,0.7H66.1
		C65.7,24.2,65.4,24,65.4,23.5z"/>
	<path class="st0" d="M132.8,43.9l-3.9-2.1c-0.2-0.1-0.3-0.3-0.4-0.5c0-0.2,0-0.3,0.1-0.4c0.9-1.8,1.6-4,2.1-6.4
		c0.5-2.4,0.9-4.9,1-7.4c0-0.3,0.1-0.5,0.3-0.6c0.1,0,0.2,0,0.4,0l3.9,0.4c0.3,0.1,0.5,0.1,0.5,0.2c0.1,0.1,0.1,0.3,0.1,0.5
		c-0.1,1-0.2,2.4-0.5,4.3c0.7,1.1,1.6,2,2.6,2.8v-9.9h-8.5c-0.5,0-0.7-0.2-0.7-0.7v-3.5c0-0.5,0.2-0.7,0.7-0.7h20
		c0.5,0,0.7,0.2,0.7,0.7v3.5c0,0.5-0.2,0.7-0.7,0.7h-6.1v3.4h5c0.5,0,0.7,0.2,0.7,0.7v3.1c0,0.5-0.2,0.7-0.7,0.7h-5v4.3
		c1.3,0.3,2.4,0.4,3.2,0.4c1.8,0.1,4.3,0.1,7.4,0.1c5.7,0,10.9-0.1,15.6-0.4c-3-1.3-5.4-2.8-7-4.4c-0.1-0.1-0.2-0.3-0.2-0.4
		c0-0.2,0.1-0.4,0.2-0.5l2-2.4H159l2.1,2.4c0.2,0.2,0.2,0.3,0.2,0.5c0,0.1-0.1,0.3-0.2,0.4c-1,1-2.3,1.9-3.7,2.7
		c-1.4,0.8-2.9,1.5-4.5,1.9c-0.1,0-0.1,0-0.2,0c-0.3,0-0.5-0.1-0.6-0.4l-2.1-3.4c-0.1-0.1-0.1-0.2-0.1-0.4c0-0.3,0.2-0.5,0.5-0.5
		c2.9-0.7,5.4-1.8,7.5-3.3h-4.3c-0.5,0-0.7-0.2-0.7-0.7V8.2c0-0.5,0.2-0.7,0.7-0.7h4.1l1.2-2.6h-6.7c-0.5,0-0.7-0.2-0.7-0.7V0.7
		c0-0.5,0.2-0.7,0.7-0.7h20.8c0.5,0,0.7,0.2,0.7,0.7v3.4c0,0.5-0.2,0.7-0.7,0.7h-8c-0.5,1.2-0.9,2.1-1.2,2.6h7.8
		c0.5,0,0.7,0.2,0.7,0.7v20.4c0,0.5-0.2,0.7-0.7,0.7h-4.4c1.9,1.5,4.2,2.5,6.9,3.2c0.3,0,0.5,0.2,0.5,0.5c0,0.2,0,0.3-0.1,0.4
		l-1.9,3.5l1.7-0.1h0.1c0.4,0,0.6,0.1,0.6,0.4c0,0.1,0,0.2,0,0.3l-1.5,4.6c-0.1,0.4-0.3,0.6-0.6,0.6c-2.8,0.3-7.6,0.4-14.2,0.4
		c-4.5,0-8.1-0.1-10.9-0.2c-2.9-0.2-5.2-0.7-7-1.6c-1.8-0.9-3.4-2.1-4.7-3.8c-0.5,2.3-1.2,4.3-2.1,6.1c-0.1,0.3-0.3,0.4-0.5,0.4
		C133,44,132.9,44,132.8,43.9z M131.2,16.7v-16c0-0.5,0.2-0.7,0.7-0.7h17.3c0.5,0,0.7,0.2,0.7,0.7v16c0,0.5-0.2,0.7-0.7,0.7h-17.3
		C131.5,17.4,131.2,17.1,131.2,16.7z M144.6,6.9V4.2h-8v2.7H144.6z M144.6,13.6v-2.8h-8v2.8H144.6z M166.5,13.4V11h-8.2v2.4H166.5z
		 M166.5,19.7v-2.4h-8.2v2.4H166.5z M166.5,25.7v-2.5h-8.2v2.5H166.5z"/>
</g>
</svg>
