<svg xmlns="http://www.w3.org/2000/svg" xml:space="preserve" width="174.9" height="44" style="overflow:visible" viewBox="0 0 174.9 44"><path fill="#fff" d="M17.6 43.3V7.1H.7c-.5 0-.7-.2-.7-.7v-5C0 1 .2.7.7.7h43.1c.5 0 .7.2.7.7v5c0 .5-.2.7-.7.7H24.5v6.2c3.4 1.6 6.6 3.3 9.5 4.9s5.9 3.5 8.8 5.6c.2.1.3.3.3.5 0 .1 0 .3-.1.4l-3.1 4.6c-.1.2-.3.3-.5.3s-.3-.1-.4-.2c-4-3.2-8.9-6.3-14.4-9.3v23c0 .5-.2.7-.7.7h-5.6c-.5.2-.7 0-.7-.5m47.8-19.8v-5.3c0-.5.2-.7.7-.7h41.7c.5 0 .7.2.7.7v5.3c0 .5-.2.7-.7.7H66.1c-.4 0-.7-.2-.7-.7m67.4 20.4-3.9-2.1c-.2-.1-.3-.3-.4-.5 0-.2 0-.3.1-.4.9-1.8 1.6-4 2.1-6.4s.9-4.9 1-7.4q0-.45.3-.6h.4l3.9.4c.3.1.5.1.5.2.1.1.1.3.1.5-.1 1-.2 2.4-.5 4.3.7 1.1 1.6 2 2.6 2.8v-9.9h-8.5c-.5 0-.7-.2-.7-.7v-3.5c0-.5.2-.7.7-.7h20c.5 0 .7.2.7.7v3.5c0 .5-.2.7-.7.7h-6.1v3.4h5c.5 0 .7.2.7.7V32c0 .5-.2.7-.7.7h-5V37c1.3.3 2.4.4 3.2.4 1.8.1 4.3.1 7.4.1 5.7 0 10.9-.1 15.6-.4-3-1.3-5.4-2.8-7-4.4-.1-.1-.2-.3-.2-.4 0-.2.1-.4.2-.5l2-2.4H159l2.1 2.4c.2.2.2.3.2.5 0 .1-.1.3-.2.4-1 1-2.3 1.9-3.7 2.7s-2.9 1.5-4.5 1.9h-.2c-.3 0-.5-.1-.6-.4l-2.1-3.4c-.1-.1-.1-.2-.1-.4 0-.3.2-.5.5-.5q4.35-1.05 7.5-3.3h-4.3c-.5 0-.7-.2-.7-.7V8.2c0-.5.2-.7.7-.7h4.1l1.2-2.6h-6.7c-.5 0-.7-.2-.7-.7V.7c0-.5.2-.7.7-.7H173c.5 0 .7.2.7.7v3.4c0 .5-.2.7-.7.7h-8c-.5 1.2-.9 2.1-1.2 2.6h7.8c.5 0 .7.2.7.7v20.4c0 .5-.2.7-.7.7h-4.4c1.9 1.5 4.2 2.5 6.9 3.2.3 0 .5.2.5.5 0 .2 0 .3-.1.4l-1.9 3.5 1.7-.1h.1c.4 0 .6.1.6.4v.3l-1.5 4.6q-.15.6-.6.6c-2.8.3-7.6.4-14.2.4-4.5 0-8.1-.1-10.9-.2-2.9-.2-5.2-.7-7-1.6s-3.4-2.1-4.7-3.8c-.5 2.3-1.2 4.3-2.1 6.1-.1.3-.3.4-.5.4-.5.1-.6.1-.7 0m-1.6-27.2V.7c0-.5.2-.7.7-.7h17.3c.5 0 .7.2.7.7v16c0 .5-.2.7-.7.7h-17.3c-.4 0-.7-.3-.7-.7m13.4-9.8V4.2h-8v2.7zm0 6.7v-2.8h-8v2.8zm21.9-.2V11h-8.2v2.4zm0 6.3v-2.4h-8.2v2.4zm0 6v-2.5h-8.2v2.5z"/></svg>