<!--Generator: Adobe Illustrator 25.0.0, SVG Export Plug-In-->
<svg version="1.1" xmlns="http://www.w3.org/2000/svg" xmlns:xlink="http://www.w3.org/1999/xlink" x="0px" y="0px" width="28.9px" height="28.9px" viewBox="0 0 28.9 28.9" style="overflow:visible;enable-background:new 0 0 28.9 28.9;" xml:space="preserve">
    <defs/>
    <path d="M20.4,16.8c-2.3-1-4.3-2.1-5.9-3.2c-1.4,1-3.3,2-5.6,2.9s-4.7,1.5-7,1.9H1.7c-0.2,0-0.3-0.1-0.4-0.3l-1.2-2.6
	c0-0.1,0-0.2-0.1-0.2C0,15.2,0.1,15,0.3,15c2.1-0.2,4.2-0.6,6.1-1.1c2-0.5,3.6-1.1,4.8-1.7c0-0.1-0.1-0.2-0.2-0.5
	c-3.6,0.5-6.8,0.9-9.6,1.1H1.4c-0.2,0-0.4-0.1-0.4-0.3L0.6,11c0-0.2-0.1-0.3-0.1-0.4c0-0.1,0.1-0.4,0.4-0.6c0.4-0.3,0.8-0.8,1.3-1.4
	C2.7,7.9,3.1,7.4,3.4,7C3.5,6.7,3.7,6.6,4,6.7l2.6,0.5c0.2,0,0.3,0.1,0.3,0.2c0,0.1,0,0.2-0.1,0.3C6,8.8,5.3,9.5,4.9,9.9
	c2.6-0.3,4.2-0.4,4.9-0.6C9.5,8.9,9.3,8.6,9.2,8.4C9.1,8.3,9.1,8.2,9.1,8.1c0-0.1,0.1-0.3,0.3-0.3l1.9-0.5c0,0,0.1,0,0.2,0
	c0.2,0,0.3,0.1,0.4,0.2c1.2,1.3,2,2.5,2.6,3.6h0.3l-0.2-0.7c0-0.1,0-0.3,0.1-0.4c0.1-0.1,0.2-0.3,0.3-0.4s0.3-0.3,0.4-0.5
	c0.5-0.6,0.9-1.2,1.4-1.8l0.4-0.6c0.2-0.2,0.4-0.3,0.6-0.2l2.4,0.6c0.2,0,0.3,0.1,0.3,0.2c0.1,0.1,0,0.2,0,0.4
	c-0.2,0.3-0.5,0.6-0.8,1c-0.3,0.4-0.7,0.7-1,1.1c1.7-0.1,3.3-0.2,4.5-0.4l-0.7-0.9c-0.1-0.1-0.2-0.2-0.2-0.3c0-0.1,0.1-0.3,0.3-0.3
	l2-0.7L25,6.8c0.1,0,0.3,0.1,0.4,0.2c1.3,1.3,2.4,2.7,3.1,4.2c0,0.1,0,0.1,0.1,0.2c0,0.1-0.1,0.2-0.3,0.3l-2.2,1.1
	c-0.1,0-0.1,0-0.2,0.1c-0.1,0-0.2-0.1-0.3-0.3c0-0.1-0.2-0.4-0.5-1c-1.9,0.3-4.2,0.5-7,0.6c1.3,0.7,2.8,1.2,4.6,1.7
	c1.8,0.5,3.7,0.8,5.8,1.1c0.3,0,0.4,0.1,0.4,0.3c0,0.1,0,0.1,0,0.2l-1.1,2.9c-0.1,0.3-0.3,0.4-0.5,0.3C25,18.4,22.7,17.8,20.4,16.8z
	 M3,28.7l-1.3-2.4c0-0.1-0.1-0.2-0.1-0.3c0-0.2,0.1-0.3,0.4-0.3c4.9,0,9.1-0.5,12.8-1.4c3.7-0.9,6.6-2.4,8.8-4.4
	c0.1-0.1,0.2-0.2,0.3-0.2s0.2,0.1,0.3,0.2l1.9,1.7c0.1,0.1,0.2,0.2,0.2,0.3c0,0.1,0,0.2-0.1,0.2c-2.6,2.3-5.8,4-9.6,5
	c-3.8,1.1-8.2,1.6-13.1,1.7C3.3,28.9,3.1,28.9,3,28.7z M4.3,24.3l-1.1-1.8c-0.1-0.1-0.1-0.2-0.1-0.3c0-0.2,0.1-0.3,0.4-0.3
	c3.5-0.2,6.6-0.6,9.2-1.3c2.6-0.7,4.8-1.7,6.4-3c0.1-0.1,0.2-0.1,0.3-0.1c0.1,0,0.2,0,0.3,0.1l1.6,1.3c0.1,0.1,0.2,0.2,0.2,0.3
	c0,0.1,0,0.2-0.1,0.3c-1.9,1.4-4.3,2.6-7.3,3.5c-2.9,0.9-6.1,1.4-9.4,1.6C4.6,24.5,4.5,24.4,4.3,24.3z M23.3,6.7
	c-0.2,0-0.3-0.1-0.4-0.2c-0.2-0.3-0.5-0.6-0.9-1c-1.8,0.2-4.5,0.4-8.1,0.6c-3.6,0.2-6.5,0.3-8.5,0.3h-1C4.2,6.4,4,6.2,3.9,6L3.6,4.3
	c0-0.1,0-0.2,0-0.3c0-0.2,0.1-0.4,0.3-0.5C4.4,3.3,4.8,3,5.4,2.7c1.5-1,2.6-1.8,3.3-2.5C8.9,0.1,9,0,9.2,0c0.1,0,0.2,0,0.3,0
	l3.3,0.6c0.2,0,0.3,0.1,0.3,0.3c0,0.1-0.1,0.2-0.2,0.3c-1.1,0.8-2.2,1.6-3.4,2.3c2.8-0.1,6.1-0.2,9.8-0.5L17.7,2
	c-0.1-0.1-0.2-0.2-0.2-0.3c0-0.1,0.1-0.2,0.3-0.3l2.3-0.8c0.1,0,0.1,0,0.3,0c0.1,0,0.3,0,0.3,0.1c0.9,0.4,1.8,1.1,2.8,1.9
	c1,0.8,1.9,1.6,2.7,2.5c0.1,0.1,0.2,0.2,0.2,0.3c0,0.1-0.1,0.2-0.3,0.3l-2.6,1.1C23.5,6.7,23.4,6.7,23.3,6.7z M5.8,20.7
	c-0.2,0-0.3-0.1-0.4-0.3l-1-1.6c-0.1-0.1-0.1-0.2-0.1-0.3c0-0.2,0.1-0.3,0.4-0.3c2.1-0.1,4.1-0.5,5.9-1.1c1.8-0.6,3.4-1.2,4.6-2
	c0.1-0.1,0.2-0.1,0.3-0.1c0.1,0,0.2,0,0.3,0.1l1.4,1.1c0.1,0.1,0.2,0.2,0.2,0.3c0,0.1-0.1,0.2-0.2,0.3C14.2,19,10.4,20.2,5.8,20.7
	L5.8,20.7z"/>
</svg>
