<!--Generator: Adobe Illustrator 25.0.0, SVG Export Plug-In-->
<svg version="1.1" xmlns="http://www.w3.org/2000/svg" xmlns:xlink="http://www.w3.org/1999/xlink" x="0px" y="0px" width="28.3px" height="28.6px" viewBox="0 0 28.3 28.6" style="overflow:visible;enable-background:new 0 0 28.3 28.6;" xml:space="preserve">
    <defs/>
    <path d="M0.4,8.3V5.4c0-0.3,0.1-0.4,0.4-0.4h3.5l0-3l0-1.6C4.3,0.1,4.4,0,4.7,0h3.1c0.3,0,0.4,0.1,0.4,0.4l0,4.5h6.1
	c0.3,0,0.4,0.1,0.4,0.4v1.1l0.1,7.6c0,1.6,0,3.1-0.1,4.4c-0.1,2.8-0.3,4.9-0.7,6.3c-0.4,1.4-1,2.3-1.9,2.9c-0.9,0.5-2.2,0.8-4,0.8
	c-0.4,0-0.6-0.1-0.6-0.3l-1-3.3c0,0,0-0.1,0-0.2c0-0.2,0.1-0.3,0.4-0.3c1.1,0,2-0.1,2.5-0.4c0.5-0.3,0.9-0.9,1.1-1.7
	c0.2-0.9,0.4-2.3,0.4-4.1c0-1.2,0.1-3.1,0.1-5.6V8.7H8.1C8,12.9,7.6,16.8,7,20.1c-0.7,3.4-1.7,6.2-3.3,8.3c-0.1,0.1-0.2,0.2-0.3,0.2
	c-0.1,0-0.2,0-0.3-0.1l-2.9-1.8C0.1,26.6,0,26.5,0,26.4c0-0.1,0-0.2,0.1-0.3c1.5-2.1,2.6-4.5,3.1-7.4c0.6-2.8,0.9-6.2,1-10H0.8
	C0.5,8.7,0.4,8.6,0.4,8.3z M17.1,2.7h10.7c0.3,0,0.4,0.1,0.4,0.4v24c0,0.3-0.1,0.4-0.4,0.4H17.1c-0.3,0-0.4-0.1-0.4-0.4v-24
	C16.7,2.9,16.8,2.7,17.1,2.7z M20.6,6.5v17.4h3.8V6.5H20.6z"/>
</svg>
