<!-- Generator: Adobe Illustrator 25.0.0, SVG Export Plug-In  -->
<svg version="1.1" xmlns="http://www.w3.org/2000/svg" xmlns:xlink="http://www.w3.org/1999/xlink" x="0px" y="0px" width="29.4px"
	 height="28.6px" viewBox="0 0 29.4 28.6" style="overflow:visible;enable-background:new 0 0 29.4 28.6;" xml:space="preserve">
<defs>
</defs>
<path d="M0,6.5V4c0-0.3,0.1-0.4,0.4-0.4h3.5C3.6,2.7,3.3,1.9,3,1.3C2.9,1.2,2.8,1.1,2.8,1c0-0.2,0.1-0.3,0.3-0.3l2.6-0.6
	C5.9,0,6,0,6.1,0c0.2,0,0.4,0.1,0.4,0.3c0.4,0.8,0.7,1.9,1.1,3.3h2.8C10.8,3.6,11,3.7,11,4v2.5c0,0.3-0.1,0.4-0.4,0.4H0.4
	C0.1,6.9,0,6.8,0,6.5z M0.9,27.8v-9c0-0.3,0.1-0.4,0.4-0.4h8.9c0.3,0,0.4,0.1,0.4,0.4v9c0,0.3-0.1,0.4-0.4,0.4H1.3
	C1,28.2,0.9,28.1,0.9,27.8z M1.2,11.3V9.2c0-0.3,0.1-0.4,0.4-0.4h8.3c0.3,0,0.4,0.1,0.4,0.4v2.1c0,0.3-0.1,0.4-0.4,0.4H1.7
	C1.4,11.7,1.2,11.6,1.2,11.3z M1.2,15.9v-2.1c0-0.3,0.1-0.4,0.4-0.4h8.3c0.3,0,0.4,0.1,0.4,0.4v2.1c0,0.3-0.1,0.4-0.4,0.4H1.7
	C1.4,16.4,1.2,16.2,1.2,15.9z M7.4,25.1v-3.8H4.2v3.8H7.4z M11.7,15.5v-2.7c0-0.3,0.1-0.4,0.4-0.4h6.5c0.3,0,0.4,0.1,0.4,0.4v2.7
	c0,0.3-0.1,0.4-0.4,0.4h-1.4v6c0.7-0.1,1.4-0.3,2.2-0.5c0,0,0.1,0,0.2,0c0.2,0,0.3,0.1,0.3,0.4l0,2.7c0,0.3-0.1,0.4-0.3,0.5
	c-2.3,0.7-4.8,1.3-7.6,1.7h-0.1c-0.2,0-0.3-0.1-0.3-0.4l-0.3-2.8v-0.1c0-0.2,0.1-0.4,0.4-0.4l0.9-0.1l1.3-0.2V16h-1.6
	C11.9,16,11.7,15.8,11.7,15.5z M11.4,8.9V6c0-0.3,0.1-0.4,0.4-0.4h7.7l0-5.1C19.5,0.2,19.7,0,20,0h3c0.3,0,0.4,0.1,0.4,0.4
	c0,1.8-0.1,3.5-0.1,5.1h2.2c-0.4-1.3-1-2.7-1.8-4c0-0.1-0.1-0.1-0.1-0.3c0-0.2,0.1-0.3,0.3-0.3l2.1-0.8c0,0,0.1,0,0.2,0
	c0.2,0,0.3,0.1,0.4,0.2c0.4,0.6,0.8,1.2,1.1,1.9c0.3,0.7,0.6,1.4,0.8,2c0,0,0,0.1,0,0.2c0,0.2-0.1,0.3-0.3,0.4l-1.9,0.7h1.4
	c0.3,0,0.4,0.1,0.4,0.4v2.9c0,0.3-0.1,0.4-0.4,0.4h-4.5c0.1,6.3,0.6,10.8,1.5,13.5c0.2,0.5,0.4,0.8,0.6,0.8c0.3,0,0.5-0.3,0.7-1
	s0.4-1.5,0.5-2.5c0-0.3,0.1-0.4,0.3-0.4c0.1,0,0.2,0,0.3,0.1l2,1.8c0.1,0.1,0.2,0.3,0.2,0.4l0,0.3c-0.3,2-0.8,3.6-1.6,4.6
	s-1.6,1.6-2.5,1.6c-0.7,0-1.4-0.3-2-1c-0.6-0.6-1.2-1.6-1.6-2.8c-1.1-3.2-1.8-8.4-2-15.6h-7.8C11.6,9.4,11.4,9.2,11.4,8.9z"/>
</svg>
