<!-- Generator: Adobe Illustrator 25.0.0, SVG Export Plug-In  -->
<svg version="1.1" xmlns="http://www.w3.org/2000/svg" xmlns:xlink="http://www.w3.org/1999/xlink" x="0px" y="0px" width="5.9px"
	 height="10.6px" viewBox="0 0 5.9 10.6" style="overflow:visible;enable-background:new 0 0 5.9 10.6;" xml:space="preserve">
<defs>
</defs>
<path d="M0,10.2L0.1,10L1.7,5c-0.4-0.3-0.8-0.6-1-1C0.5,3.7,0.3,3.2,0.3,2.7c0-0.8,0.3-1.4,0.8-1.9S2.3,0,3.1,0c0.8,0,1.5,0.3,2,0.8
	s0.8,1.1,0.8,1.9c0,0.5-0.1,1-0.3,1.6C5.4,4.8,5,5.8,4.4,7.2L3,10.2c-0.1,0.2-0.3,0.3-0.5,0.3H0.4C0.1,10.6,0,10.4,0,10.2z"/>
</svg>
