<!-- Generator: Adobe Illustrator 25.0.0, SVG Export Plug-In  -->
<svg version="1.1" xmlns="http://www.w3.org/2000/svg" xmlns:xlink="http://www.w3.org/1999/xlink" x="0px" y="0px" width="126.9px"
	 height="127px" viewBox="0 0 126.9 127" style="overflow:visible;enable-background:new 0 0 126.9 127;" xml:space="preserve">
<style type="text/css">
	.st0{clip-path:url(#SVGID_2_);fill:url(#SVGID_3_);}
	.st1{clip-path:url(#SVGID_5_);fill:url(#SVGID_6_);}
	.st2{clip-path:url(#SVGID_8_);fill:url(#SVGID_9_);}
	.st3{clip-path:url(#SVGID_11_);fill:url(#SVGID_12_);}
	.st4{clip-path:url(#SVGID_14_);fill:url(#SVGID_15_);}
	.st5{clip-path:url(#SVGID_17_);fill:url(#SVGID_18_);}
</style>
<defs>
</defs>
<g>
	<defs>
		<path id="SVGID_1_" d="M40.1,57.6c0-12.9,10.5-23.4,23.4-23.4c12.9,0,23.4,10.5,23.4,23.4S76.4,81,63.5,81
			C50.6,81,40.1,70.5,40.1,57.6 M63.4,28.7c-16,0-28.9,12.9-28.9,28.9c0,0.1,0,0.1,0,0.2c0,0.5,0,0.9,0,1.4c0,0.2,0,0.5,0.1,0.7
			c0,0.3,0,0.6,0.1,0.8c0,0.3,0.1,0.5,0.1,0.8c0,0.2,0.1,0.5,0.1,0.7c0,0.3,0.1,0.6,0.2,0.9c0,0.2,0.1,0.4,0.1,0.6
			c0.1,0.3,0.1,0.6,0.2,0.9c0,0.2,0.1,0.3,0.1,0.5c0.1,0.3,0.2,0.7,0.3,1c0,0.1,0.1,0.2,0.1,0.3c0.1,0.4,0.2,0.7,0.4,1.1
			c0,0,0,0.1,0,0.1c2.2,6.1,6.5,11.1,11.9,14.5l-1.5,16.2l16.5-6.9l17,6.9l-1.5-16.2c8.2-5.1,13.6-14.2,13.6-24.5
			C92.3,41.6,79.4,28.7,63.4,28.7z"/>
	</defs>
	<clipPath id="SVGID_2_">
		<use xlink:href="#SVGID_1_"  style="overflow:visible;"/>
	</clipPath>
	
		<linearGradient id="SVGID_3_" gradientUnits="userSpaceOnUse" x1="34.5404" y1="98.334" x2="35.5404" y2="98.334" gradientTransform="matrix(52.5429 46.2377 46.2377 -52.5429 -6324.1865 3610.2573)">
		<stop  offset="0" style="stop-color:#D79C75"/>
		<stop  offset="2.404610e-03" style="stop-color:#D79C75"/>
		<stop  offset="0.2406" style="stop-color:#E6A97B"/>
		<stop  offset="0.317" style="stop-color:#E7AA7D"/>
		<stop  offset="0.3502" style="stop-color:#E9B085"/>
		<stop  offset="0.375" style="stop-color:#ECBA92"/>
		<stop  offset="0.3955" style="stop-color:#F1C8A4"/>
		<stop  offset="0.409" style="stop-color:#F6D5B6"/>
		<stop  offset="0.4128" style="stop-color:#F4D2B3"/>
		<stop  offset="0.4645" style="stop-color:#E3B795"/>
		<stop  offset="0.5219" style="stop-color:#D5A17D"/>
		<stop  offset="0.5878" style="stop-color:#CB916C"/>
		<stop  offset="0.6666" style="stop-color:#C48561"/>
		<stop  offset="0.7706" style="stop-color:#C07F5B"/>
		<stop  offset="1" style="stop-color:#BE7D59"/>
	</linearGradient>
	<polygon class="st0" points="59.8,0 126.9,59.1 67.1,127 0,67.9 	"/>
</g>
<g>
	<defs>
		<path id="SVGID_4_" d="M40,57.6c0-12.9,10.5-23.4,23.4-23.4c12.9,0,23.4,10.5,23.4,23.4S76.3,81,63.4,81C50.5,81,40,70.5,40,57.6
			 M38.2,57.6c0,13.9,11.3,25.2,25.2,25.2s25.2-11.3,25.2-25.2S77.4,32.3,63.4,32.3S38.2,43.7,38.2,57.6"/>
	</defs>
	<clipPath id="SVGID_5_">
		<use xlink:href="#SVGID_4_"  style="overflow:visible;"/>
	</clipPath>
	
		<linearGradient id="SVGID_6_" gradientUnits="userSpaceOnUse" x1="34.5404" y1="98.3065" x2="35.5404" y2="98.3065" gradientTransform="matrix(-46.7925 -62.8356 -62.8356 46.7925 7886.2075 -2332.5952)">
		<stop  offset="0" style="stop-color:#D79C75"/>
		<stop  offset="2.404610e-03" style="stop-color:#D79C75"/>
		<stop  offset="0.2406" style="stop-color:#E6A97B"/>
		<stop  offset="0.317" style="stop-color:#E7AA7D"/>
		<stop  offset="0.3502" style="stop-color:#E9B085"/>
		<stop  offset="0.375" style="stop-color:#ECBA92"/>
		<stop  offset="0.3955" style="stop-color:#F1C8A4"/>
		<stop  offset="0.409" style="stop-color:#F6D5B6"/>
		<stop  offset="0.4128" style="stop-color:#F4D2B3"/>
		<stop  offset="0.4645" style="stop-color:#E3B795"/>
		<stop  offset="0.5219" style="stop-color:#D5A17D"/>
		<stop  offset="0.5878" style="stop-color:#CB916C"/>
		<stop  offset="0.6666" style="stop-color:#C48561"/>
		<stop  offset="0.7706" style="stop-color:#C07F5B"/>
		<stop  offset="1" style="stop-color:#BE7D59"/>
	</linearGradient>
	<polygon class="st1" points="56.2,107 14,50.3 70.7,8.2 112.8,64.8 	"/>
</g>
<g>
	<defs>
		<path id="SVGID_7_" d="M62.2,41.5l-3.6,10.4H48.4c-1.3,0-1.9,1.7-0.8,2.5l8.5,6.1l-3.2,10.1C52.5,72,54,73,55,72.2l8.5-6.2
			l8.7,6.2c1.1,0.8,2.5-0.3,2.1-1.5l-3.2-10.2l8.6-6.2c1.1-0.8,0.5-2.5-0.8-2.5H68.3l-3.5-10.4c-0.2-0.6-0.8-0.9-1.3-0.9
			C62.9,40.5,62.4,40.8,62.2,41.5"/>
	</defs>
	<clipPath id="SVGID_8_">
		<use xlink:href="#SVGID_7_"  style="overflow:visible;"/>
	</clipPath>
	
		<linearGradient id="SVGID_9_" gradientUnits="userSpaceOnUse" x1="34.5404" y1="98.3688" x2="35.5404" y2="98.3688" gradientTransform="matrix(25.3803 22.3346 22.3346 -25.3803 -3022.0994 1771.3707)">
		<stop  offset="0" style="stop-color:#D79C75"/>
		<stop  offset="2.404610e-03" style="stop-color:#D79C75"/>
		<stop  offset="0.2406" style="stop-color:#E6A97B"/>
		<stop  offset="0.317" style="stop-color:#E7AA7D"/>
		<stop  offset="0.3502" style="stop-color:#E9B085"/>
		<stop  offset="0.375" style="stop-color:#ECBA92"/>
		<stop  offset="0.3955" style="stop-color:#F1C8A4"/>
		<stop  offset="0.409" style="stop-color:#F6D5B6"/>
		<stop  offset="0.4128" style="stop-color:#F4D2B3"/>
		<stop  offset="0.4645" style="stop-color:#E3B795"/>
		<stop  offset="0.5219" style="stop-color:#D5A17D"/>
		<stop  offset="0.5878" style="stop-color:#CB916C"/>
		<stop  offset="0.6666" style="stop-color:#C48561"/>
		<stop  offset="0.7706" style="stop-color:#C07F5B"/>
		<stop  offset="1" style="stop-color:#BE7D59"/>
	</linearGradient>
	<polygon class="st2" points="61.4,23.5 96.9,54.7 65.8,90.1 30.4,58.9 	"/>
</g>
</svg>
