<svg xmlns="http://www.w3.org/2000/svg" xml:space="preserve" width="215.3" height="40.8" style="overflow:visible" viewBox="0 0 215.3 40.8"><path fill="#fff" d="m3.8 39.8-3.5-3c-.2-.2-.3-.4-.3-.5s.1-.3.2-.4C2 34.4 3.5 32.8 4.7 31q1.8-2.7 2.4-5.4h-5q-.6 0-.6-.6v-3.2c0-.4.1-.6.3-.8 1.6-1.8 2.9-3.5 3.9-5H1.3c-.1 0-.3-.1-.4-.2s-.2-.2-.2-.4v-3.7c0-.2.1-.3.2-.4s.2-.2.4-.2h9.6c.3 0 .4 0 .5.1s.1.2.1.4v3c0 .3 0 .5-.1.7-.1.4-.6 1.1-1.3 2.2S8.5 19.8 7.6 21h3.9c.4 0 .6.2.6.7v2c0 .2 0 .6-.1 1.1-.2 2.1-.7 4.2-1.6 6.4.5.5 1 .9 1.6 1.3.8.5 1.8 1 2.8 1.3s2.3.6 3.8.7c1.1.1 2.4.2 4.1.2h2.9c3.4 0 6.1-.1 8.1-.2 2.1-.1 3.6-.3 4.6-.4s1.8-.3 2.4-.4h.2c.1 0 .2 0 .3.1s.1.1.1.2v.3l-1.2 4.5c-.1.1-.1.3-.3.4-.1.1-.3.1-.5.2q-5.25.6-13.5.6c-3.4 0-6-.1-7.9-.3q-2.4-.3-3.9-.6c-1-.2-1.9-.6-2.8-1.1-1-.5-2-1.3-3.1-2.3-1.1 1.6-2.2 2.9-3.5 3.9-.2.1-.4.2-.5.2q-.15.15-.3 0M6.7 9.3c-.8-1.2-1.5-2.2-2.3-3S2.6 4.5 1.5 3.6c-.2-.1-.3-.3-.3-.4s.1-.3.3-.4L4.7.3c.2-.1.3-.1.4-.1s.3.1.4.2c.8.6 1.7 1.5 2.7 2.5 1 1.1 1.8 2.2 2.5 3.3.1.1.1.2.1.4s-.1.4-.3.5L7.4 9.5c-.1.1-.2.1-.3.1-.2 0-.3-.1-.4-.3m22 23.8c-.2 0-.3-.1-.5-.4l-2.1-3.5c-.3 1.4-.8 2.3-1.7 2.9-.8.6-2.1.9-3.8.9h-.4c-.3 0-.6-.2-.7-.5l-1-2.5v-.3c0-.3.2-.4.6-.4h.2c1 0 1.7-.1 2-.4s.6-.6.7-1.2c.1-.5.1-1.1.1-1.9H19c-.5 2.4-1.4 4.6-2.9 6.6-.1.2-.3.3-.4.3s-.3 0-.4-.1l-2.9-2.3c-.2-.1-.3-.3-.3-.4s.1-.3.2-.4c1-1 1.7-2.2 2.2-3.6s.7-3 .8-4.8h-2.5q-.6 0-.6-.6v-2.7q0-.6.6-.6h5.1c-.1-.4-.4-1-.8-1.7h-3.5q-.6 0-.6-.6V3.1q0-.6.6-.6h3.1c.4-.8.7-1.4.8-1.9.1-.4.3-.5.6-.5h.1l3.4.2c.5.1.7.3.5.7-.2.5-.4 1-.7 1.5h4.3q.6 0 .6.6v9.6c.8-1.6 1.5-3.5 2-5.6s.9-4.2 1.2-6.4c.1-.4.3-.5.6-.5h.1l3.8.4c.4.1.6.3.5.7L33.8 5H40q.6 0 .6.6v3.8q0 .6-.6.6h-.7c-.3 5.2-1.1 9.5-2.4 12.7 1.4 2.4 2.6 4.6 3.7 6.8.1.1.1.2.1.4s-.1.4-.3.5l-3.2 2.2c-.1.1-.3.1-.4.1-.2 0-.4-.1-.4-.4l-2.2-4.7c-1.5 2.2-3.2 4-5.1 5.3-.2.1-.3.2-.4.2M22 7.4V5.5h-4.8v1.9zm0 4.9v-2.1h-4.8v2.1zm3.8 10q.6 0 .6.6c0 1.6-.1 3.1-.2 4.7v.5c2.4-1.2 4.2-2.9 5.5-5.1-.9-1.5-1.8-3-2.7-4.3v-.5c0-.2.1-.3.3-.5l2.6-1.7c.1-.1.3-.1.4-.1.2 0 .4.1.5.3l1.1 1.7c.7-2.3 1-4.9 1.2-7.8h-2.8q-.6 2.1-1.5 3.9t-2.1 3.9c-.1.2-.2.3-.4.3s-.3-.2-.4-.4L26 15.2c-.1.1-.2.1-.4.1h-4.1l.7 1.7h4.2q.6 0 .6.6v2.7q0 .6-.6.6h-6.8v1.3h6.2zM58.1 8.9V5.3c0-.4.2-.6.7-.6h5c-.4-1-.8-1.9-1.2-2.8-.1-.2-.2-.3-.2-.5s.2-.4.5-.5l3.7-.8c.1 0 .3-.1.4-.1.3 0 .5.1.6.4.4 1 .9 2.4 1.5 4.3h4.2c.5 0 .7.2.7.6v3.6c0 .4-.2.6-.7.6H58.8c-.4 0-.7-.2-.7-.6m1.2 30.3V26.3c0-.4.2-.6.7-.6h12.6c.4 0 .7.2.7.6v12.9c0 .4-.2.6-.7.6H60c-.4.1-.7-.1-.7-.6m.5-23.4v-3.2c0-.4.3-.6.8-.6h11.8c.4 0 .7.2.7.6v3.2c0 .4-.2.6-.7.6H60.5c-.5 0-.7-.2-.7-.6m0 6.8v-3.1c0-.4.3-.6.8-.6h11.8c.4 0 .7.2.7.6v3.1c0 .4-.2.6-.7.6H60.5c-.5 0-.7-.2-.7-.6m8.8 12.6v-5.1h-4.4v5.1zM97 20v14.3q0 2.25-.6 3.6c-.4.9-1.2 1.6-2.3 2-1.2.5-2.9.7-5.2.7h-.6c-.2 0-.4-.1-.5-.2s-.2-.2-.2-.4l-1.1-3.2v-.2c0-.1.1-.3.2-.4s.3-.1.5-.1h1.1c1 0 1.7-.1 2.2-.3s.8-.4.9-.7.2-.7.2-1.2v-.3H81c-.4 2.6-1.2 4.8-2.4 6.8-.1.1-.2.2-.4.2H78l-3.9-2c-.3-.1-.4-.3-.4-.5 0-.1 0-.2.1-.4 1-1.7 1.6-3.4 1.9-5.2s.4-4.1.4-6.8V20q0-.6.6-.6h19.7q.6-.15.6.6m-21.1-8.9v-2q0-.6.6-.6h7.1V6.6h-8.3q-.6 0-.6-.6V3.3q0-.6.6-.6h8.3v-2q0-.6.6-.6h4.3q.6 0 .6.6v2h8.6q.6 0 .6.6V6q0 .6-.6.6h-8.6v1.9h7.4q.6 0 .6.6v2.1q0 .6-.6.6h-7.4v2h9.2q.6 0 .6.6V17q0 .6-.6.6H74.8q-.6 0-.6-.6v-2.6q0-.6.6-.6h8.8v-2h-7.1c-.4-.1-.6-.3-.6-.7m15.6 19.5v-2.1h-10l-.1 2.1zm0-5.3V23h-10v2.3zm29.6 14.8c-.1.2-.3.4-.4.4l-.4-.1-4.1-2c-.2-.1-.4-.3-.4-.5 0-.1.1-.2.1-.3 1.1-2.4 1.8-5.1 2.2-8.1s.6-7 .6-12.1V1.9q0-.6.6-.6h15.2q.6 0 .6.6v30.8c0 2-.2 3.5-.6 4.6-.4 1-1.1 1.8-2.1 2.2q-1.5.6-4.5.6h-.4c-.3 0-.6-.2-.7-.5l-1.5-4.2v-.3c0-.3.2-.4.6-.4 1.2 0 2.1 0 2.6-.2.6-.1.9-.4 1.1-.7s.3-.9.3-1.5v-4.9h-6c-.4 5.1-1.3 9.3-2.8 12.7M124 6.4V12h5.8V6.4zm0 10.3v5.9h5.8v-5.9zm18.5 17.7c-.5 2.1-1.2 4-2 5.7-.1.2-.3.4-.5.4-.1 0-.2 0-.4-.1l-4.2-2.1c-.4-.2-.4-.5-.3-.8q1.95-3.6 2.7-7.8c.5-2.9.7-6.9.7-12.2V1.9q0-.6.6-.6h15.7q.6 0 .6.6v31.2c0 2.4-.3 4.1-1 5.2-.6 1.1-1.9 1.8-3.7 2-.8.1-1.9.2-3.3.2-.4 0-.6-.2-.7-.5l-1.5-4.2v-.3c0-.1.1-.3.2-.3s.3-.1.5-.1h1.1c1.3 0 2.1-.2 2.5-.5.4-.4.6-1 .6-1.9v-5.4h-6.6c-.2 2.7-.5 5-1 7.1m1.4-17.7v1.7l-.1 4.2h6.3v-5.9zm0-10.3V12h6.2V6.4zM184 40.3l-2.6-4.5-.1-.2q-1.65 1.95-3 3.3s-.1.1-.2.1-.2.1-.3.1c-.2 0-.3-.1-.4-.2l-3.3-3.7c-.1-.1-.2-.3-.2-.4s.1-.3.2-.4c3.2-3 5.7-6.5 7.5-10.4 1.8-4 3.1-8.3 3.9-13.2h-9.1q-.6 0-.6-.6V5.9q0-.6.6-.6h9.8l.4-4.7q.15-.6.6-.6h4.7q.6 0 .6.6c-.1 1.5-.2 3.1-.4 4.7h21.6q.6 0 .6.6v4.2q0 .6-.6.6h-22.3l-.9 4.8h18.8q.6 0 .6.6v3.2c0 .1 0 .4-.1.7-1.5 4.7-3.6 8.6-6.5 11.6q4.95 2.1 11.4 3c.3.1.5.2.5.4l-.1.4-1.9 4.7c-.1.3-.3.4-.5.4h-.5c-5.5-1-10.2-2.5-13.9-4.7-3.7 2.4-8.2 4-13.6 5h-.2c-.2-.1-.4-.2-.5-.5m9.2-8.4c-2.1-2-3.9-4.5-5.4-7.6q-2.4 6.15-6 10.8c4.4-.5 8.2-1.6 11.4-3.2m10.1-11.1h-11.4c1.2 3.1 3.3 5.7 6.3 7.9 2.3-2.2 4-4.8 5.1-7.9"/></svg>