<!-- Generator: Adobe Illustrator 25.0.0, SVG Export Plug-In  -->
<svg version="1.1" xmlns="http://www.w3.org/2000/svg" xmlns:xlink="http://www.w3.org/1999/xlink" x="0px" y="0px" width="126.9px"
	 height="127px" viewBox="0 0 126.9 127" style="overflow:visible;enable-background:new 0 0 126.9 127;" xml:space="preserve">
<style type="text/css">
	.st0{clip-path:url(#SVGID_2_);fill:url(#SVGID_3_);}
	.st1{clip-path:url(#SVGID_5_);fill:url(#SVGID_6_);}
	.st2{clip-path:url(#SVGID_8_);fill:url(#SVGID_9_);}
	.st3{clip-path:url(#SVGID_11_);fill:url(#SVGID_12_);}
	.st4{clip-path:url(#SVGID_14_);fill:url(#SVGID_15_);}
	.st5{clip-path:url(#SVGID_17_);fill:url(#SVGID_18_);}
</style>
<defs>
</defs>
<g>
	<defs>
		<path id="SVGID_1_" d="M40.1,57.6c0-12.9,10.5-23.4,23.4-23.4c12.9,0,23.4,10.5,23.4,23.4S76.4,81,63.5,81
			C50.6,81,40.1,70.5,40.1,57.6 M63.4,28.7c-16,0-28.9,12.9-28.9,28.9c0,0.1,0,0.1,0,0.2c0,0.5,0,0.9,0,1.4c0,0.2,0,0.5,0.1,0.7
			c0,0.3,0,0.6,0.1,0.8c0,0.3,0.1,0.5,0.1,0.8c0,0.2,0.1,0.5,0.1,0.7c0,0.3,0.1,0.6,0.2,0.9c0,0.2,0.1,0.4,0.1,0.6
			c0.1,0.3,0.1,0.6,0.2,0.9c0,0.2,0.1,0.3,0.1,0.5c0.1,0.3,0.2,0.7,0.3,1c0,0.1,0.1,0.2,0.1,0.3c0.1,0.4,0.2,0.7,0.4,1.1
			c0,0,0,0.1,0,0.1c2.2,6.1,6.5,11.1,11.9,14.5l-1.5,16.2l16.5-6.9l17,6.9l-1.5-16.2c8.2-5.1,13.6-14.2,13.6-24.5
			C92.3,41.6,79.4,28.7,63.4,28.7z"/>
	</defs>
	<clipPath id="SVGID_2_">
		<use xlink:href="#SVGID_1_"  style="overflow:visible;"/>
	</clipPath>
	
		<linearGradient id="SVGID_3_" gradientUnits="userSpaceOnUse" x1="34.5404" y1="98.334" x2="35.5404" y2="98.334" gradientTransform="matrix(52.5429 46.2377 46.2377 -52.5429 -6324.1865 3610.2573)">
		<stop  offset="0" style="stop-color:#CD8C3A"/>
		<stop  offset="3.860640e-03" style="stop-color:#CD8C3A"/>
		<stop  offset="0.2338" style="stop-color:#DDB373"/>
		<stop  offset="0.3059" style="stop-color:#DEB575"/>
		<stop  offset="0.3371" style="stop-color:#DFB97C"/>
		<stop  offset="0.3605" style="stop-color:#E2C088"/>
		<stop  offset="0.38" style="stop-color:#E7CA9A"/>
		<stop  offset="0.3968" style="stop-color:#ECD7B0"/>
		<stop  offset="0.4061" style="stop-color:#F0E0C1"/>
		<stop  offset="0.4331" style="stop-color:#E5CDA5"/>
		<stop  offset="0.4744" style="stop-color:#D6B684"/>
		<stop  offset="0.5203" style="stop-color:#CAA269"/>
		<stop  offset="0.5711" style="stop-color:#C09255"/>
		<stop  offset="0.6289" style="stop-color:#B98747"/>
		<stop  offset="0.6979" style="stop-color:#B37E3E"/>
		<stop  offset="0.789" style="stop-color:#B07A39"/>
		<stop  offset="0.9899" style="stop-color:#B07937"/>
		<stop  offset="1" style="stop-color:#B07937"/>
	</linearGradient>
	<polygon class="st0" points="59.8,0 126.9,59.1 67.1,127 0,67.9 	"/>
</g>
<g>
	<defs>
		<path id="SVGID_4_" d="M40,57.6c0-12.9,10.5-23.4,23.4-23.4c12.9,0,23.4,10.5,23.4,23.4S76.3,81,63.4,81C50.5,81,40,70.5,40,57.6
			 M38.2,57.6c0,13.9,11.3,25.2,25.2,25.2s25.2-11.3,25.2-25.2S77.4,32.3,63.4,32.3S38.2,43.7,38.2,57.6"/>
	</defs>
	<clipPath id="SVGID_5_">
		<use xlink:href="#SVGID_4_"  style="overflow:visible;"/>
	</clipPath>
	
		<linearGradient id="SVGID_6_" gradientUnits="userSpaceOnUse" x1="34.5404" y1="98.3065" x2="35.5404" y2="98.3065" gradientTransform="matrix(-46.7925 -62.8356 -62.8356 46.7925 7886.2075 -2332.5952)">
		<stop  offset="0" style="stop-color:#CD8C3A"/>
		<stop  offset="3.860640e-03" style="stop-color:#CD8C3A"/>
		<stop  offset="0.2338" style="stop-color:#DDB373"/>
		<stop  offset="0.3059" style="stop-color:#DEB575"/>
		<stop  offset="0.3371" style="stop-color:#DFB97C"/>
		<stop  offset="0.3605" style="stop-color:#E2C088"/>
		<stop  offset="0.38" style="stop-color:#E7CA9A"/>
		<stop  offset="0.3968" style="stop-color:#ECD7B0"/>
		<stop  offset="0.4061" style="stop-color:#F0E0C1"/>
		<stop  offset="0.4331" style="stop-color:#E5CDA5"/>
		<stop  offset="0.4744" style="stop-color:#D6B684"/>
		<stop  offset="0.5203" style="stop-color:#CAA269"/>
		<stop  offset="0.5711" style="stop-color:#C09255"/>
		<stop  offset="0.6289" style="stop-color:#B98747"/>
		<stop  offset="0.6979" style="stop-color:#B37E3E"/>
		<stop  offset="0.789" style="stop-color:#B07A39"/>
		<stop  offset="0.9899" style="stop-color:#B07937"/>
		<stop  offset="1" style="stop-color:#B07937"/>
	</linearGradient>
	<polygon class="st1" points="56.2,107 14,50.3 70.7,8.2 112.8,64.8 	"/>
</g>
<g>
	<defs>
		<path id="SVGID_7_" d="M63.1,43.2c-0.3,0-0.5,0.1-0.7,0.3l-8.1,7C54.1,50.6,54,50.8,54,51c0,0.1,0,0.2,0.1,0.4l1,2
			c0.1,0.3,0.3,0.4,0.5,0.4c0.1,0,0.2,0,0.2,0l4.9-1.6v19.3c0,0.4,0.2,0.6,0.6,0.6h6.1c0.4,0,0.6-0.2,0.6-0.6V43.8
			c0-0.4-0.2-0.6-0.6-0.6H63.1z"/>
	</defs>
	<clipPath id="SVGID_8_">
		<use xlink:href="#SVGID_7_"  style="overflow:visible;"/>
	</clipPath>
	
		<linearGradient id="SVGID_9_" gradientUnits="userSpaceOnUse" x1="34.5404" y1="98.2172" x2="35.5404" y2="98.2172" gradientTransform="matrix(18.7288 16.4813 16.4813 -18.7288 -2212.4387 1320.8662)">
		<stop  offset="0" style="stop-color:#CD8C3A"/>
		<stop  offset="3.860640e-03" style="stop-color:#CD8C3A"/>
		<stop  offset="0.2338" style="stop-color:#DDB373"/>
		<stop  offset="0.3059" style="stop-color:#DEB575"/>
		<stop  offset="0.3371" style="stop-color:#DFB97C"/>
		<stop  offset="0.3605" style="stop-color:#E2C088"/>
		<stop  offset="0.38" style="stop-color:#E7CA9A"/>
		<stop  offset="0.3968" style="stop-color:#ECD7B0"/>
		<stop  offset="0.4061" style="stop-color:#F0E0C1"/>
		<stop  offset="0.4331" style="stop-color:#E5CDA5"/>
		<stop  offset="0.4744" style="stop-color:#D6B684"/>
		<stop  offset="0.5203" style="stop-color:#CAA269"/>
		<stop  offset="0.5711" style="stop-color:#C09255"/>
		<stop  offset="0.6289" style="stop-color:#B98747"/>
		<stop  offset="0.6979" style="stop-color:#B37E3E"/>
		<stop  offset="0.789" style="stop-color:#B07A39"/>
		<stop  offset="0.9899" style="stop-color:#B07937"/>
		<stop  offset="1" style="stop-color:#B07937"/>
	</linearGradient>
	<polygon class="st2" points="60.2,36.2 82.4,55.7 62,79 39.7,59.4 	"/>
</g>
</svg>
