<svg xmlns="http://www.w3.org/2000/svg" xml:space="preserve" width="874.6" height="1439.2" style="overflow:visible" viewBox="0 0 874.6 1439.2"><path d="M60.4 0h753.8v20.2H60.4zM0 60.9h20.2v1317.5H0zm40.2-40.5h20.2v20.2H40.2zM19.9 40.6h20.2v20.2H19.9zm834.5 20.3h20.2v1317.5h-20.2zm-40.2-40.5h20.2v20.2h-20.2zm20.2 20.2h20.2v20.2h-20.2zM60.4 1419h753.8v20.2H60.4zm-20.2-20.4h20.2v20.2H40.2zm-20.3-20.2h20.2v20.2H19.9zm794.3 20.2h20.2v20.2h-20.2zm20.2-20.2h20.2v20.2h-20.2z"/><path d="M854.7 60.9h-20.3V40.6h-20.2V20.4H60.4v20.2H40.2v20.3H19.9v1317.5h20.3v20.2h20.2v20.2h753.8v-20.2h20.2v-20.2h20.3z" style="fill:#fff"/><path d="M84.3 1391.5h706v7.1h-706z"/></svg>