<svg xmlns="http://www.w3.org/2000/svg" xml:space="preserve" width="329" height="55.7" style="overflow:visible" viewBox="0 0 329 55.7"><path fill="#888" d="M235.7 15h3.2l-.2 2.3.1.1c1.1-1.8 3.6-2.7 7.3-2.7 3.3 0 5.6.7 6.8 2.1s1.9 4 1.9 7.7c0 3.5-.6 5.9-1.9 7.2s-3.5 2-6.7 2c-3.6 0-6.1-.8-7.2-2.4v24.3h-3.2V15zm9.5 2c-2.6 0-4.3.5-5.1 1.4q-1.2 1.35-1.2 6c0 2.8.4 4.7 1.3 5.7.8.9 2.6 1.4 5.1 1.4 2.4 0 4-.5 4.8-1.4q1.2-1.35 1.2-5.7c0-3.1-.4-5.2-1.1-6.1-.7-.8-2.4-1.3-5-1.3m12.6-2h2.7l-.3 2.1.1.1c1.1-1.7 2.8-2.6 5.3-2.6 3.4 0 5.1 1.8 5.1 5.3v1.3H268l.1-.5c0-.5.1-.8.1-1 0-1.9-1-2.8-3.1-2.8-3 0-4.5 1.9-4.5 5.6v11.1h-2.7V15zm15.5 0h2.7v18.5h-2.7zm7.4 0h2.7l-.1 2.8.1.1c1-2.1 3.1-3.1 6-3.1 3.1 0 5 1 5.7 3.1h.1c1.2-2.1 3.3-3.1 6.4-3.1 4.4 0 6.5 2.2 6.5 6.7v12.1h-2.7V21.2q0-2.4-.9-3.3t-3.3-.9c-2.1 0-3.6.4-4.3 1.2-.8.8-1.1 2.3-1.1 4.6v10.7h-2.7V20.6c0-2.4-1.4-3.6-4.1-3.6-3.7 0-5.5 2-5.5 6v10.5h-2.7V15zm45.5 12.9h2.8v.7c0 1.9-.6 3.3-1.8 4-1.2.8-3.2 1.2-6.1 1.2-3.4 0-5.6-.6-6.7-1.9-1.1-1.2-1.6-3.9-1.6-7.8 0-3.7.5-6.2 1.6-7.4 1.1-1.3 3.2-1.9 6.3-1.9 3.4 0 5.6.5 6.7 1.6s1.6 3.4 1.6 6.9v1.5h-13.3c0 2.9.3 4.7.9 5.5s2.1 1.2 4.4 1.2q3.3 0 4.2-.6c.7-.4 1-1.2 1-2.5zm0-5.2v-.9c0-2-.3-3.3-1-3.9q-1.05-.9-4.2-.9c-2.2 0-3.6.4-4.3 1.1-.6.7-1 2.2-1 4.6z"/><path fill="#fff" d="m229.6 13.8-5.4 20.4H221l-5.3-15.7-5.3 15.7h-3.2l-5.4-20.4h3.6l3.8 15.8 5.2-15.8h2.9l5.3 15.8 3.6-15.8zm-52 0-5.4 20.4H169l-5.3-15.7-5.3 15.7h-3.2l-5.4-20.4h3.6l3.8 15.8 5.2-15.8h2.9l5.3 15.8 3.6-15.8zm1.6 10.2c0 5.8 4.7 10.5 10.5 10.5s10.5-4.7 10.5-10.5-4.7-10.5-10.5-10.5c-5.7-.1-10.5 4.6-10.5 10.5m2.8 0c0-4.3 3.5-7.8 7.8-7.8s7.8 3.5 7.8 7.8-3.5 7.8-7.8 7.8c-4.3-.1-7.8-3.6-7.8-7.8m92.5-20.7c-1.8 0-3.2 1.4-3.2 3.2s1.4 3.2 3.2 3.2 3.2-1.4 3.2-3.2-1.4-3.2-3.2-3.2m-261 14.5H5.9l-2 .3c-.2.1-.3.1-.4-.1l-.3-1.3c0-.2.1-.2.4-.1l2.3.3h7.5v-12h-9l-2 .3c-.1.1-.3.1-.3-.1l-.3-1.3c0-.1.1-.2.4-.1l2.2.3h17.7c.3 0 .5-.1.7-.3L24.7 1c.2-.3.4-.3.7-.1 1.4.9 2.5 2 3.4 3.3.2.2.2.3.2.5q-.15.3-.6.3H17.2v11.9h3.2c.3 0 .5-.1.7-.4l1.9-2.6c.2-.3.4-.3.7-.1 1.4.8 2.5 2 3.5 3.3.1.2.2.3.1.5s-.2.3-.6.3h-9.5V31h7c.3 0 .5-.1.7-.3l1.9-2.6c.2-.2.4-.2.7-.1 1.4.9 2.5 2 3.5 3.3.2.2.2.4.1.5q-.15.3-.6.3H2.7l-2 .3c-.2.1-.3.1-.4-.1L0 30.9c0-.2.1-.2.4-.1l2.3.2h10.7V17.8zM43.1 32c0 .6-.2 1.1-.6 1.4-.5.3-1.1.5-1.7.5-.5 0-.9-.1-1.2-.4-.2-.1-.3-.5-.2-1v-15c0-.2 0-.3.2-.3 1.8.5 3.1 1 3.9 1.6H47q.75 0 .9-.3l.9-1.3c.2-.2.3-.2.5-.1 1.4.5 2.4 1 3.3 1.7.7.5.6 1.1-.4 1.5-.2.1-.3.3-.3.5v11.4c0 .5-.3 1-.8 1.3-.6.3-1.1.4-1.5.4s-.8-.1-1.1-.4c-.2-.2-.4-.6-.3-1.2v-1.1h-5v.8zm5-1.7V20c-.1-.3-.2-.3-.4-.2h-4.6v10.5zm-.2-16.8c0 .7-.2 1.1-.6 1.4-.5.3-1.1.5-1.7.5-.5 0-.9-.1-1.2-.4-.2-.1-.3-.5-.2-.9v-13c0-.3 0-.4.2-.3 1.8.5 3.2 1.1 4.1 1.7h9.1q.75 0 .9-.3l.9-1.3c.2-.2.3-.2.6-.1 1.3.5 2.4 1.1 3.3 1.7.7.6.5 1.1-.4 1.5-.2.1-.4.3-.4.5v8.8c0 .6-.2 1-.8 1.3-.7.3-1.1.4-1.6.4-.4 0-.8-.1-1.1-.4-.2-.2-.4-.6-.3-1.2V13H47.9zm10.8-1.3V3.7c-.1-.3-.2-.3-.5-.2H47.9v8.6h10.8zm-.6 20c0 .6-.2 1.1-.6 1.4-.5.3-1 .4-1.7.4q-.75 0-1.2-.3c-.2-.1-.3-.5-.2-1V17.5c0-.2 0-.3.2-.3 1.8.5 3.1 1 3.9 1.6H62q.75 0 .9-.3l.9-1.3c.2-.2.3-.2.6-.1 1.3.5 2.4 1 3.3 1.7.7.5.6 1.1-.4 1.5-.2.1-.4.3-.4.5V32c0 .5-.3 1-.8 1.3-.6.3-1.1.4-1.5.4s-.8-.1-1.1-.4c-.2-.2-.4-.6-.3-1.2v-1h-5v1.1zm5-1.9V20c-.1-.3-.2-.3-.4-.2h-4.6v10.5zm21-10.2c0 .6-.3 1-.8 1.3-.8.4-1.5.4-2.4 0-.4-.3-.6-.7-.5-1.2V9.9c-1.6 1.6-3.2 2.8-4.7 3.5q-.15.15-.3 0c0-.1 0-.3.1-.4 3-3.2 5-7.4 6-12.5 0-.2.2-.3.3-.3 1.2.2 2.5.5 3.7 1 .5.2.8.5.7.8 0 .3-.3.4-.8.5-.2 0-.3.1-.4.4l-.9 1.7v.5h6.7c.6-1.7.9-3.3 1.1-4.8.1-.2.2-.3.4-.3 1.1.3 2.2.5 3.3.9.6.2.9.5.9.8s-.3.5-.7.6c-.2 0-.5.2-.8.5-.8.9-1.7 1.6-2.6 2.2h7.2c.3 0 .5-.1.7-.4l1.9-2.6c.2-.3.4-.3.7-.1 1.4.8 2.5 1.9 3.5 3.2.2.2.2.4.1.5q-.15.3-.6.3H94.1v3.4H96c.3 0 .5-.1.7-.4l1.9-2.6c.2-.3.4-.3.7-.1 1.4.8 2.5 1.9 3.5 3.3.1.1.2.3.1.5s-.2.3-.5.3h-8.3v3.4h2.1c.3 0 .5-.1.7-.4l1.9-2.6c.2-.3.4-.3.7-.1 1.4.8 2.5 2 3.4 3.3.2.2.2.3.1.5s-.2.3-.5.3h-8.4V18h5.2c.3 0 .5-.1.7-.4l1.9-2.6c.2-.3.4-.3.7-.1 1.4.8 2.5 2 3.4 3.3.2.2.2.4.1.5s-.3.2-.6.2H84.1zm10 13.2c0 .7-.3 1.1-.9 1.4-.8.3-1.5.3-2.3-.1-.4-.3-.6-.6-.6-1.1v-6.8c-3.5 3.2-8 5.3-13.3 6.2-.2.1-.4 0-.4-.1 0-.2.1-.3.3-.4q3.3-1.2 6.9-3.6c2.2-1.6 3.9-3.3 4.8-5H78.1l-2 .3c-.2.1-.3.1-.4-.1l-.3-1.3c0-.2.1-.2.3-.1l2.3.3h12.2v-2.4c0-.1.1-.2.2-.2l3.7.5c.7.2 1 .4 1 .8s-.3.7-.9.8c-.2 0-.3.2-.3.5h6.6c.3 0 .5-.1.7-.4l1.9-2.6c.2-.3.4-.3.7-.1 1.4.8 2.5 2 3.4 3.3.2.2.2.4.1.5-.1.2-.3.3-.5.3h-12c1.2 1.4 2.8 2.6 4.9 3.5q3.6 1.65 7.2 1.5.3 0 .3.3c0 .1 0 .3-.1.4-.7.4-1.2.9-1.5 1.6s-.5 1.4-.4 2c0 .3-.2.4-.5.3-2.3-.6-4.3-1.8-6.1-3.5-1.9-1.8-3.3-3.7-4.4-5.7v9zM90.4 6.1h-6.2v3.4h6.2zm0 4.3h-6.2v3.4h6.2zm0 4.4h-6.2v3.3h6.2zm27 19.4c-.4.4-1 .5-1.8.6-.4 0-.8-.1-1-.4q-.3-.3-.3-.9V.5l.1-.3h.3c1.1.3 2.3.8 3.7 1.6h20.3c.3 0 .5 0 .7-.2l1-1.1c.2-.3.4-.4.7-.3 1.4.5 2.5 1.1 3.2 1.7.8.6.7 1.2-.3 1.6-.2.1-.3.3-.3.4v29.2c0 .5-.2.9-.7 1.2-.4.3-1 .4-1.7.4-.5 0-.8-.1-1-.4-.2-.2-.2-.4-.2-.8v-.6H118c-.2.6-.3 1-.6 1.3m22.6-2.4v-29c-.1-.2-.2-.3-.3-.1H118v29.1zm-18.7-7.9-2.2.3c-.1.1-.2 0-.3-.1l-.3-1.2c0-.1.1-.2.3-.1l2.4.3h9.6v-2.4c0-.2.1-.2.2-.2q1.5 0 3.3.3c.6.1.8.4.8.7s-.2.5-.6.7c-.2 0-.3.2-.3.5v.5h.2c.2 0 .4-.1.5-.3l1.3-2c.2-.3.4-.4.7-.1.7.6 1.3 1.3 1.9 2.3.2.3.3.5.2.7s-.2.3-.5.3h-4.2v4c.1.8-.2 1.6-.8 2.2-.6.7-1.5 1-2.9 1.1-.1 0-.2-.1-.2-.2.1-1.3-.5-2.4-1.8-3.2-.2-.1-.2-.2-.2-.4s.1-.3.3-.2l1 .1c.7.1 1-.1 1-.7v-2.7h-9.4zm10-4.6c-2.6.7-5.6 1.2-9 1.8-.5.1-.8.2-.8.4-.1.3-.3.4-.4.4-.2 0-.4-.1-.4-.4-.4-1.2-.7-2.2-.8-3.1q0-.3.3-.3c1.1.1 3.1.1 6 .1h1v-2.4h-3.7c-.1.3-.2.6-.5.8-.5.3-1 .4-1.6.5-.4 0-.8-.1-1.1-.3-.2-.1-.2-.4-.2-.9V8.2c0-.2 0-.3.1-.3 1.1.3 2.2.7 3.3 1.3h3.7v-2h-5.6l-2.2.3c-.1.1-.2 0-.2-.1l-.3-1.2c0-.1.1-.2.3-.1l2.4.3h5.6V3.5c0-.1 0-.1.2-.1 1.3 0 2.4.2 3.5.5.4.1.7.3.7.6s-.2.5-.6.7c-.2.1-.3.2-.3.4v.7h3.5c.2 0 .4-.1.5-.3l1.3-2c.2-.3.4-.4.7-.1.8.6 1.4 1.4 2 2.4.2.3.3.5.2.7s-.2.3-.5.3h-7.7v2h3.1c.1 0 .3-.1.4-.3l.9-.9q.15-.15.3 0c1.1.4 2.1.9 3 1.7.7.4.7.9-.2 1.3q-.3.15-.3.6v3.9c0 .4-.2.8-.6 1s-.9.4-1.7.4c-.5 0-.8-.1-1-.4l-.2-.6h-3.7v2.2l2.2-.2c-.4-.3-.8-.5-1.3-.6l-.2-.2c0-.1 0-.2.2-.2 1.9-.5 3.5-.2 4.9.9.3.4.6.9.6 1.4.1.5-.1.9-.5 1.2-.3.3-.8.4-1.2.2-.4-.1-.7-.4-1-.9l-.7-1zm-9.4 5.3c0-.1.1-.2.3-.1 1.9.5 3.1 1.3 3.7 2.5.2.6.2 1.2-.1 1.9-.2.5-.6.9-1.1 1-1.2.2-1.8-.4-1.9-2 .1-1.2-.3-2.1-.9-2.9zm5.2-14.5H124l-.5.1V12h3.6zm0 2.9h-3.6v2h3.6zm3.5-1h3.6v-1.7c-.1-.2-.2-.3-.4-.2h-3.3V12zm0 3h3.6v-2h-3.6z"/><path fill="none" d="M0 0h329v55.7H0z"/></svg>