<svg xmlns="http://www.w3.org/2000/svg" xml:space="preserve" width="386.1" height="140.9" style="overflow:visible" viewBox="0 0 386.1 140.9"><path d="M253 88.8c2.5 1.2 5.7 1.9 9.5 2.1l-1.7 6.8c-.9-.1-6.7-.9-11.8-4.1l-.1-.1-.1.1c-3.7 3.8-8.3 6.7-13.6 8.6l-2.8-7.2c1-.2 6.5-1.8 11.7-5.6l.1-.1-.1-.1q-3.9-5.1-3-12.6l.3-2.1c-6.9 2-18.4 4-17.5-5.5-3.3 1.9-6.1 3.5-8.9 4.9.8 1.6 1.5 3.6 1.8 6 .7 8.8-4.8 14.7-9.5 18.1-4.6 3.3-9.5 5-10.4 5.3v-7.8c8.3-3.6 13.1-7.9 14.1-12.9.5-2.4 0-4.6-.8-6.5-4.5 1.9-9.1 3.1-15 4.1-1.3-2.3-4.3-6.7-4.3-6.7 6.7-.7 11.7-1.5 15.9-2.6l-.3-.3c-3.3-3.6-1.6-6.5-.3-8.9l.2-.3c2-3.2 6.3-8.3 6.3-8.4l.2-.3-.4.1c-1.7.3-13.2 5.3-14.9 6V53c1-.4 11.9-5 19.2-6.2 2.1-.5 3.5-.3 4.1.6.7 1 .2 2.7-.6 3.8-.9 1.3-3 3.9-4.6 5.7-7.3 8.2-6.7 9.6-5.1 11.5.1.1.2.3.4.4l.6.6c5.2-2 9.6-4.7 16-9 .9-.7 2.7.4 3.6 1.4 2.5 2.1-3.5 5-3 8.3.2 1.5 2.1 1.8 3.3 1.7 3.9-.4 7.4-1.3 10.7-2.6 0-.1 0-.3.1-.4 1.3-8.2 2.4-15.3 1.6-19.9l6.4 1.1c0 .9 0 8-2.5 16.6 4.8-2.6 9.1-5.9 13.2-9.2l4.9 5.9c-5.2 2.9-13.4 7.2-19.3 9.5-.6 3.9-.9 8.7 1.9 12.4l.1.1.1-.1c3.3-3.8 5.2-8.4 5.6-13.5l4.9-.6c-.1 1.2-.9 9.4-6.3 17.4l-.1.1zm47.5-18.5-1.4-5.5c-3.2 2.1-7.4 3.9-12.7 5.5h-.1l-.1-.1c-.6-.7-1.3-1.4-2-2-.1-.2-.2-.3-.4-.4-1.7-1.9-2.2-3.4 5.2-11.7 1.6-1.9 3.7-4.5 4.7-5.8.8-1.1 1.3-2.8.6-3.9q-.9-1.35-4.2-.6c-7.4 1.2-18.5 5.9-19.6 6.3V58c1.7-.7 13.4-5.8 15.2-6.1l.4-.1-.2.3c0 .1-4.4 5.3-6.4 8.6l-.2.3c-1.3 2.4-3 5.5.3 9.1.4.5.9.9 1.3 1.4l.1.2h-.2c-7.5 1.7-14.2 2.3-15.6 2.4l4.9 6c3.7-.1 8.3-1.1 13.7-2.9h.1v.1c2.4 8.8-6.4 14.7-14.2 18.1v7.9c1-.3 5.9-2 10.7-5.4 4.8-3.5 10.4-9.5 9.7-18.5-.2-1.4-.5-2.8-.9-4v-.1h.1c5.9-2.3 10.5-4.6 11.2-5M363 47l-23.4 6.7.2-.3c1.7-2.2 2.7-8.6 2.9-9.7h-5.9c-.1 5.5-1.7 8.7-3.1 10.3-1.3 1.5-2.5 2.1-2.9 2.3l1.5 4.3 30.8-6.9zm-35.6 18.1c.8 2.3.8 5.4.5 10.9-.1.9-.1 1.8-.2 2.8l-.1 1.4-.1 1.2c-2 .9-3.9 1.6-5.9 2.3-2.1.7-4.3 1.3-6.3 1.7-2.8.6-4.9.7-5.8.8h-.7l-2.2-6c.8.1 1.6.2 2.4.2h.2v-.2c-.6-7.9-1-12.5-1.3-13.8l6.7-.3c.7-.6 4.2-3.5 9.6-3.3 1.4.1 2.7 1 3.2 2.3m-4.4 6c-.1-1.4-.5-2.4-1.3-2.8-.7-.4-1.8-.3-3.1.3-1.6 1-3 2.2-4 3l-.1.1.3 8.4h.2c2.6-.4 5.5-1.1 7.6-1.7h.1v-.3c.2-.4.3-6.1.3-7m62.4 24.7c-9.6 1.5-21.1 2.6-31.3 1.2-6.3-.9-10.2-2.6-11.5-5-.8-1.5-.4-3 .1-3.9 1.1-2.1 5.3-7.1 9.4-12 2.7-3.2 5.2-6.2 6.8-8.3 1.4-2 1.9-3.5 1.4-4.4-.6-1-2.4-.8-2.5-.8l-24.1 4.7.7 5.7 16.4-3.7-.3.4s-3.6 4.4-11.1 12.6c-3 3.3-4.4 6.4-3.9 9.2s2.7 5.2 6.8 7.5c13.8 7.3 34.4 6.7 43.6 6zm-195.7-9.7-1.5 6.7c-.9-.1-7.8-.6-13.5-4l-.1-.1-.1.1c-8.6 9-19.2 13-20.4 13.4l-3.7-6.8c7.7-3 14-6.8 18.9-11.2l.1-.1-.1-.1c-2.3-3-3.2-6.8-2.8-11.1.2-2.1.5-4.1.8-6.4v-.2h-.2c-7.1 1.4-11.6 1.2-12.3 1.1l-2.5-8.4c4.5.9 9.8.8 15.8-.2h.1v-.1c.5-4.8.9-9.7.2-13.1l6.8.6c0 .8.2 5.3-.7 11.1v.2l.2-.1c8.9-2.3 16.2-5.8 17.5-6.4l.2 5.9c-2 1.1-4.1 2.2-6.2 3.1h-.1v.1c.2 8.7-2.3 16.7-7.4 23.7l-.1.1.1.1c2.8 1.5 6.5 2.1 11 2.1m-9.2-23.4v-.2l-.2.1c-2.6 1-5.1 1.8-7.7 2.5h-.1l-.1.7c-.7 3.6-1.9 9.5.9 14l.1.2.1-.1c7.2-8.7 7.1-16.4 7-17.2m-66.8 36c-4.9-1-9.2-2.2-13-3.6h-.1V95c.1-1.8.2-4.4.4-7.7v-.1h.1c3-1 5.9-2.3 8.9-3.7v-5.3c-2 .8-5 2-8.6 3.1l-.2.1v-.2c.1-2.7.2-5.5.2-8.3v-.1h.1c3.2-1.3 6.3-2.7 9.4-4.4l-.2-5.1c-.8.4-4.3 2-8.9 3.6l-.2.1v-.2c.1-2.4.1-4.7.2-6.9v-.1h.1c2.2-.7 4.3-1.6 6.5-2.5v-4.7q-3.15 1.2-6.3 2.1l-.2.1v-.2c.1-6.1.2-10.5.2-11.4l-7.7-.1c.4 1.5.6 5.9.7 13.1v.1H95c-4.4.8-8.4.8-11.7.2l1.9 6.2c.6 0 4.2.2 9.8-1h.2V69h-.1c-8 2.1-14.7 2.6-20.1 1.6l2.2 7.3c.9 0 7.8.3 17.8-2.7l.2-.1v.2c-.1 6.6-.2 13.2-.3 17.3v.2l-.2-.1c-2.7-1.3-5.2-2.8-7.8-4.6l-.1-.1.1-.1c1.1-2 2.1-4.1 2.9-6.4l-4.3-1.7c-6.4 10.5-16.4 16-19.5 17.5l5.5 6.5c5.3-3.5 9.7-7.8 13.1-12.5l.1-.1.1.1c6.1 5.3 28.5 22 62.4 13.3l-.6-7.9c-4.6 1.4-16.8 4.4-32.9 2m2.2-13.5c0-1-.2-23.9-.8-26.9l6.7.1c.7-.6 4.3-3.3 9.7-2.7 1.4.1 2.6 1.1 3 2.5.7 2.3-.1 7.2-.8 11.5-.2 1.2-.4 2.4-.5 3.4-.1 0-.2.1-.4.2-4.5 2.4-8.1 4.1-11.7 5.3h-.1l-.2 4.8c0 1.2.5 2.1 1.3 2.6 3.1 2 11.3-1.3 16.7-3.5l.7-.3.6 6.9c-7.3 2.1-12.9 2.3-16.6 2.5-2.5.1-4.2-1.1-5.2-2.1-1.6-1.4-2.4-3.3-2.4-4.3m5.2-12.2h.2c2.4-.7 4.9-1.5 7.3-2.5h.1v-.1c.1-1.4.5-5.8.5-6.6v-.3c0-.7.1-2-.7-2.6-.6-.4-1.5-.3-2.8.2-1.7.9-3.2 2.1-4.2 2.8zM0 74.2 2.1 84s34.9 2.1 60-4.3v-6.8c-9.5 1.8-36.8 6-62.1 1.3m186.1 48.1v-2.1c0-.2.1-.4.4-.4h3c-.3-.6-.5-1.2-.8-1.6-.1-.1-.1-.2-.1-.3q0-.15.3-.3l2.2-.5c.1 0 .2 0 .3-.1.2 0 .3.1.4.2.3.5.6 1.4.9 2.5h2.8c.3 0 .4.1.4.4v2.1c0 .2-.1.4-.4.4h-9.1c-.1.1-.3 0-.3-.3m.8 17.8v-7.6c0-.2.1-.4.4-.4h7.8c.3 0 .4.1.4.4v7.6c0 .2-.1.4-.4.4h-7.8c-.3-.1-.4-.2-.4-.4m.2-13.7v-1.9c0-.2.2-.4.5-.4h7.3c.3 0 .4.1.4.4v1.9c0 .2-.1.4-.4.4h-7.3c-.3-.1-.5-.2-.5-.4m0 3.9v-1.8c0-.2.2-.4.5-.4h7.3c.3 0 .4.1.4.4v1.8c0 .2-.1.4-.4.4h-7.3c-.3 0-.5-.1-.5-.4m5.4 7.4v-3h-2.6v3zm3.5-7.7v-2.1c0-.2.1-.4.4-.4h2.5l.6-2.4h-2.1c-.2 0-.4-.1-.4-.4v-2.1c0-.2.1-.4.4-.4h2.7l.3-1.7h-3.3c-.2 0-.4-.1-.4-.4V118c0-.2.1-.4.4-.4h12.2c.2 0 .4.1.4.4v2.1c0 .2-.1.4-.4.4h-5.7l-.3 1.7h5.3c.1 0 .2 0 .3.1s.1.2.1.3l-.5 4.8h1.5c.2 0 .4.1.4.4v2.1c0 .2-.1.4-.4.4h-13.3c-.6 0-.7-.1-.7-.3m1 10.1v-7.9c0-.2.1-.4.4-.4h11.2c.2 0 .4.1.4.4v7.9c0 .2-.1.4-.4.4h-11.2c-.3 0-.4-.2-.4-.4m8.7-2.4v-3.1h-5.5v3.1zm-.5-10.2.3-2.4h-3l-.5 2.4zm17.3 12.6-2.4-1c-.2-.1-.2-.2-.2-.3s0-.1.1-.2c.7-1.6 1.2-3.2 1.5-5s.5-4.3.6-7.6v-6.6c0-.2.1-.4.4-.4h12.3v-1.6c0-.2.1-.4.4-.4h2.4c.2 0 .4.1.4.4v1.6h1.6c-.3-.4-.5-.6-.7-.7-.1-.1-.2-.2-.2-.3s.1-.2.2-.2l1.5-.9c.1-.1.2-.1.3-.1s.2 0 .2.1c.8.6 1.7 1.6 2.6 2.8.1.1.1.1.1.2s-.1.2-.2.3l-1.5 1-.1.1v.1c0 .2-.1.4-.4.4H238c0 1.4.1 3.1.3 5 .7-1.2 1.3-2.4 1.7-3.6.1-.1.1-.2.3-.3.1 0 .2 0 .2.1l1.9.9c.1.1.2.2.2.3v.2c-.4 1-.9 2-1.6 3.1s-1.4 2.1-2.2 3c.4 2.4.8 4.4 1.3 5.7.1.3.3.4.4.4.2 0 .3-.3.4-1s.2-1.3.2-2.1c0-.2.1-.3.2-.3s.1 0 .2.1l2 1.2c.1.1.1.2.1.4v.3c-.2 1.4-.6 2.5-1.1 3.3-.5.9-1.2 1.3-2 1.3-.5 0-.9-.1-1.3-.2-.4-.2-.7-.4-.9-.7-.4-.6-.8-1.2-1-1.8-.5-1.3-.8-2.6-1.2-4.2-.6.5-1.2 1-1.9 1.4-.1.1-.2.1-.2.1-.1 0-.2-.1-.3-.2l-1.3-1.5c-.1-.1-.1-.2-.1-.3s0-.2.1-.2l.4-.2h-2.2c.9.7 1.5 1.3 2.1 2.1.1.1.1.1.1.2s-.1.2-.2.3l-1.1 1c-.1.1-.2.1-.3.1s-.1-.1-.2-.2c-.3-.4-.6-.9-1-1.3v3.1c0 .2 0 .3.1.4s.1.1.3.1h.9c.2 0 .3-.2.4-.4s.1-.7.2-1.3c0-.1 0-.2.1-.2 0-.1.1-.1.2-.1l.2.1 1.5.5c-.2-.4-.3-.7-.5-1 0 0-.1-.1-.1-.2s.1-.2.2-.3l1.5-.5h.1c.1 0 .2.1.3.2.6 1 1.1 2.3 1.6 4v.1c0 .1-.1.1-.2.2l-1.7.6h-.1q-.3 0-.3-.3c-.1-.6-.3-1.3-.7-2.3-.1.9-.2 1.5-.4 2s-.5.8-.8 1c-.4.2-.9.3-1.6.4h-1.3q-1.2 0-1.8-.6c-.4-.4-.6-1-.6-1.9V134c0-.2.1-.4.4-.4h1.7l-.5-.5c-.1-.1-.1-.2-.1-.3s.1-.2.2-.3l.9-.7h-3.5c-.2 0-.4-.1-.4-.4V126c0-.2.1-.4.4-.4h7.2c.2 0 .4.1.4.4v5c.5-.4 1.1-.9 1.6-1.5-.3-2.5-.6-5.3-.7-8.3h-9.7v4.7c0 2.8-.2 5.4-.5 7.7s-.9 4.2-1.6 5.7c-.1.2-.2.2-.3.2-.3.7-.4.7-.5.6m3.2.1-1.7-.6c-.2-.1-.3-.1-.3-.2s0-.2.1-.2c.3-.4.5-1.1.8-2.1.3-.9.4-1.7.5-2.3 0-.1.1-.2.1-.3h.2l1.6.3c.2 0 .3.1.3.2v.1c-.2 2.1-.6 3.8-1.1 4.9-.1.1-.1.2-.2.2zm.1-15.4v-1.6c0-.2.1-.4.4-.4h7.7c.2 0 .4.1.4.4v1.6c0 .2-.1.4-.4.4h-7.7c-.3 0-.4-.2-.4-.4m5.6 5.3v-1.8h-2.8v1.8zm24.6 10.6-1.9-2.7c-.1-.1-.1-.2-.1-.2 0-.1.1-.2.2-.3 2.6-1 4.7-2.5 6.4-4.5s2.7-4.3 3.2-6.8h-8.6c-.2 0-.4-.1-.4-.4v-2.7c0-.2.1-.4.4-.4h8.9v-5.3c0-.2.1-.4.4-.4h3c.2 0 .4.1.4.4v5.3h9c.2 0 .4.1.4.4v2.7c0 .2-.1.4-.4.4H268c.7 2.5 1.9 4.7 3.6 6.7s3.8 3.5 6.1 4.5c.2.1.2.2.2.3s0 .1-.1.2l-1.8 2.7c-.1.1-.2.2-.3.2s-.1 0-.2-.1c-2.1-1-3.9-2.4-5.6-4.1-1.6-1.7-3-3.6-3.9-5.8-.9 2.1-2.2 4.1-3.9 5.9s-3.5 3.1-5.7 4.1c-.1 0-.1.1-.2.1s-.2-.1-.2-.2m33.9-9.8v-6.2l-.8.2h-.2c-.1 0-.2-.1-.3-.2l-1-2.4v-.2q0-.15.3-.3c2-.5 3.9-1.1 5.7-1.9s3.2-1.7 4.3-2.7c.1-.1.3-.2.4-.2h3.2c.2 0 .3.1.4.2 1.3 1 2.7 1.9 4.5 2.7 1.7.8 3.6 1.4 5.5 1.8.2.1.3.1.3.3 0 0 0 .1-.1.2l-1 2.4c-.1.2-.3.3-.5.2l-.8-.2v6.3c0 .2-.1.4-.4.4h-19.3c-.1 0-.2-.1-.2-.4m1 9.2v-7.5c0-.2.1-.4.4-.4h17.4c.2 0 .4.1.4.4v7.5c0 .2-.1.4-.4.4h-17.4c-.3 0-.4-.2-.4-.4m13.3-17.9v.8c0 .2-.1.4-.4.4H296c-.2 0-.4-.1-.4-.4v-.8c-1.6.8-3.1 1.5-4.7 2.1h18c-1.6-.6-3.2-1.3-4.7-2.1m-5.6 7.2v-3.2h-5.7v3.2zm-3.1-.3c-.4-.6-.8-1.2-1.4-1.6-.1-.1-.2-.2-.2-.3s.1-.2.2-.2l1.2-.5c.1 0 .2-.1.2-.1.1 0 .2 0 .3.1.6.5 1.2 1.1 1.6 1.8 0 .1.1.2.1.2 0 .1-.1.2-.2.3l-1.2.5c-.1 0-.1 0-.2.1-.2-.1-.3-.2-.4-.3m10.3 6.3v-1.1H294v1.1zm0 3v-1.2H294v1.2zm-5.9-18.9c-.8.7-1.7 1.3-2.6 1.9h5.3c-1-.7-2-1.3-2.7-1.9m7 9.9v-3.2h-5.6v3.2zm-4.7-.9c0-.1.1-.2.2-.3.6-.5 1.1-1 1.4-1.6.1-.2.3-.3.5-.2l1.2.4c.1 0 .2.1.2.2v.3c-.4.8-.9 1.4-1.5 1.9-.1.1-.3.1-.5.1l-1.3-.5c-.1-.1-.2-.2-.2-.3m30 12.4c-.2 0-.3-.1-.4-.3l-.9-2.2-.1-.2c0-.2.1-.3.4-.3h3.1q2.85 0 3.9-.3c1.05-.3 1.2-.5 1.3-1 .1-.3.1-.7.1-1.1h-12.9q-.3 0-.3-.3v-.2c.4-1 .7-2.2 1.1-3.5-1.7.5-3 .9-3.9 1.1h-.1c-.1 0-.3-.1-.3-.2l-1.2-2.6c0-.1 0-.1-.1-.2q0-.3.3-.3c1.9-.3 3.8-.7 5.7-1.1 1.9-.5 3.6-1 5.2-1.6H323c-.2 0-.4-.1-.4-.4v-2c0-.2.1-.4.4-.4h8.5v-2h-6.3c-.2 0-.4-.1-.4-.4v-1.9c0-.2.1-.4.4-.4h6.3v-1.9c0-.2.1-.4.4-.4h2.6c.2 0 .4.1.4.4v1.9h5.2c.2 0 .4.1.4.4v1.4c.6-.6 1.2-1.4 1.8-2.3.1-.1.2-.2.3-.2l.2.1 2.6 1.4c.1.1.2.2.2.3s0 .2-.1.2c-.9 1.2-2.1 2.4-3.4 3.5h3.5c.2 0 .4.1.4.4v2c0 .2-.1.4-.4.4h-6.8c-1.2.7-2.4 1.3-3.6 1.9h9.2c.2 0 .4.1.4.4v2c0 .2-.1.4-.4.4h-13l-.4 1.6h12.2c.2 0 .4.1.4.3 0 1.5-.1 2.7-.2 3.7s-.5 1.8-1 2.4q-.9.9-2.7 1.2c-1.3.2-3 .4-5.3.4zm7.2-19h-4.8v2.1h2.3c1-.7 1.8-1.4 2.5-2.1M85.8 19c3.3 14-10.4 28.6-30.4 32.7-20.1 4.1-39-3.9-42.2-17.9S23.5 5.1 43.6 1.1C63.6-3 82.5 5 85.8 19"/><path d="m48.4 34.2.7 3c-6.1 3.6-14.3 5.2-20.2 5.1l-.1-4.4c1.8 0 4.2-.1 6.8-.5-.1-1.4-.2-2.7-.3-4.1-3.4.7-5.6.7-5.6.7l-.5-4c1.8.1 3.8-.1 5.7-.5-.1-1.2-.3-2.3-.4-3.5v-.2c-3.5.7-6.5.9-6.5.9l.1-1.2c-2 1.8-6.3 5.2-8.6 5.9l-4-3.2c3.7-1 13.7-9 15.3-12.8-2.7-1.2-4.1-2-4.1-2l2.6-3.1c6.9 4.4 14.8 5.5 21.3 5.9L49 20.5c-5.9-.9-10.9-2.3-14.6-3.7 0 .1-.1.2-.1.3-.7 1.8-1.8 3.7-3.2 5.4 3.9-.2 8.4-1.2 11.1-2.3l.9 2.6c-1.2.8-2.8 1.5-4.4 2 .2 1.2.3 2.4.5 3.8 2.3-.7 4.4-1.5 6.1-2.4l1.1 3.3c-2.3 1.2-4.6 2.1-6.7 2.8.2 1.5.3 3 .4 4.4 3.1-.6 6.3-1.5 8.3-2.5m21.5-5.6c2-1 3.8-2.2 5.3-3.6l-1.5-3.1c-1.4 1-3.5 2.1-5.6 3-.6-1-1-2.1-1.3-3.3.7-.2 1.2-.3 1.7-.4 0 0 2.9-2.7 2.8-6.7-.2-7-8.7-3.2-14.3-1.5l-4.1-.3s-1.4 14.2-.4 20.6c1.2 7.4 7 9.2 11.4 6.2l-1.5-3c-5.8 3.4-6.1-5.2-5.5-13 .7 0 1.4-.1 2-.1 1-.1 4.3-.8 5-1 .3 1.2.7 2.2 1.2 3.7-2.6.9-5.1 1.4-6.8 1.4l.5 5s3.7-.7 7.9-2.4c2.7 5.9 7.1 10.8 13.4 11.2l2.4-4.5c-5-.1-9.6-3-12.6-8.2m-12.7-8.9c.1-1.2.3-2.4.4-3.4 3.4-1.7 11.9-5.2 9.8 1.5 0 0-5.3 1.2-6.7 1.4-.3.1-2.6.5-3.5.5M29.8 50.2s15.6 6.4 38.5 5.5c1.2-.1 1.6-1.5.5-2-2.9-1.5-5.1-3.8.6-7 11.2-6.2-27.1-.1-27.1-.1z"/></svg>