<svg xmlns="http://www.w3.org/2000/svg" xml:space="preserve" width="1080.5" height="180.5" style="overflow:visible" viewBox="0 0 1080.5 180.5"><path d="M765.3.3h45v45h-45zm45 0h45v45h-45zm45 0h45v45h-45zm45 0h45v45h-45zm45 0h45v45h-45zm45 0h45v45h-45zm45 0h45v45h-45zm-270 45h45v45h-45zm45 0h45v45h-45zm45 0h45v45h-45zm45 0h45v45h-45zm45 0h45v45h-45zm45 0h45v45h-45zm45 0h45v45h-45zm-270 45h45v45h-45zm45 0h45v45h-45zm45 0h45v45h-45zm45 0h45v45h-45zm45 0h45v45h-45zm45 0h45v45h-45zm45 0h45v45h-45zm-270 45h45v45h-45zm45 0h45v45h-45zm45 0h45v45h-45zm45 0h45v45h-45zm45 0h45v45h-45zm45 0h45v45h-45zm45 0h45v45h-45zM225.3.3h45v45h-45zm45 0h45v45h-45zm45 0h45v45h-45zm45 0h45v45h-45zm45 0h45v45h-45zm45 0h45v45h-45z"/><path d="M495.3.3h45v45h-45zm45 0h45v45h-45zm45 0h45v45h-45zm45 0h45v45h-45zm45 0h45v45h-45zm45 0h45v45h-45zm-495 45h45v45h-45zm45 0h45v45h-45zm45 0h45v45h-45zm45 0h45v45h-45zm45 0h45v45h-45zm45 0h45v45h-45zm45 0h45v45h-45zm45 0h45v45h-45zm45 0h45v45h-45zm45 0h45v45h-45zm45 0h45v45h-45zm45 0h45v45h-45zm-495 45h45v45h-45zm45 0h45v45h-45zm45 0h45v45h-45zm45 0h45v45h-45zm45 0h45v45h-45zm45 0h45v45h-45z"/><path d="M495.3 90.3h45v45h-45zm45 0h45v45h-45zm45 0h45v45h-45zm45 0h45v45h-45zm45 0h45v45h-45zm45 0h45v45h-45zM.3.3h45v45H.3zm45 0h45v45h-45zm45 0h45v45h-45zm45 0h45v45h-45zm45 0h45v45h-45zm-135 45h45v45h-45zm45 0h45v45h-45zm45 0h45v45h-45zm45 0h45v45h-45zm-135 45h45v45h-45zm45 0h45v45h-45zm45 0h45v45h-45zm45 0h45v45h-45z"/><path d="M900.3.3h45v45h-45zm-405 45h45v45h-45zm-360-45h45v45h-45z"/><path d="M1035.3 135.3v-45h-45v45h-45v-45h45v-45h-45v45h-45v45h-45v-45h-45v-45h-45v90h-45v-45h-45v-45h-45v45h-90v45h-45v-45h-45v45h-45v-45h-45v-45h-45v45h-45v45h-45v-45h45v-45h45V.3h-45v45h-90v45h-90v45h-45v-45H.3v90h1080v-45zm-405 0v-45h45v45z"/><path d="M.3 45.3h45v45H.3zm0 45h45v90H.3z"/></svg>