<!-- Generator: Adobe Illustrator 25.0.0, SVG Export Plug-In  -->
<svg version="1.1" xmlns="http://www.w3.org/2000/svg" xmlns:xlink="http://www.w3.org/1999/xlink" x="0px" y="0px"
	 width="1080.5px" height="180.5px" viewBox="0 0 1080.5 180.5" style="overflow:visible;enable-background:new 0 0 1080.5 180.5;"
	 xml:space="preserve">
<style type="text/css">
	.st0{fill:none;stroke:#898989;stroke-width:0.536;stroke-miterlimit:10;}
	.st1{fill:none;stroke:#DF032E;stroke-width:0.536;stroke-miterlimit:10;}
	.st2{fill:#DF032E;}
</style>
<defs>
</defs>
<rect x="765.3" y="0.3" class="st0" width="45" height="45"/>
<rect x="810.3" y="0.3" class="st0" width="45" height="45"/>
<rect x="855.3" y="0.3" class="st0" width="45" height="45"/>
<rect x="900.3" y="0.3" class="st0" width="45" height="45"/>
<rect x="945.3" y="0.3" class="st0" width="45" height="45"/>
<rect x="990.3" y="0.3" class="st0" width="45" height="45"/>
<rect x="1035.3" y="0.3" class="st0" width="45" height="45"/>
<rect x="765.3" y="45.3" class="st0" width="45" height="45"/>
<rect x="810.3" y="45.3" class="st0" width="45" height="45"/>
<rect x="855.3" y="45.3" class="st0" width="45" height="45"/>
<rect x="900.3" y="45.3" class="st0" width="45" height="45"/>
<rect x="945.3" y="45.3" class="st0" width="45" height="45"/>
<rect x="990.3" y="45.3" class="st0" width="45" height="45"/>
<rect x="1035.3" y="45.3" class="st0" width="45" height="45"/>
<rect x="765.3" y="90.3" class="st0" width="45" height="45"/>
<rect x="810.3" y="90.3" class="st0" width="45" height="45"/>
<rect x="855.3" y="90.3" class="st0" width="45" height="45"/>
<rect x="900.3" y="90.3" class="st0" width="45" height="45"/>
<rect x="945.3" y="90.3" class="st0" width="45" height="45"/>
<rect x="990.3" y="90.3" class="st0" width="45" height="45"/>
<rect x="1035.3" y="90.3" class="st0" width="45" height="45"/>
<rect x="765.3" y="135.3" class="st0" width="45" height="45"/>
<rect x="810.3" y="135.3" class="st0" width="45" height="45"/>
<rect x="855.3" y="135.3" class="st0" width="45" height="45"/>
<rect x="900.3" y="135.3" class="st0" width="45" height="45"/>
<rect x="945.3" y="135.3" class="st0" width="45" height="45"/>
<rect x="990.3" y="135.3" class="st0" width="45" height="45"/>
<rect x="1035.3" y="135.3" class="st1" width="45" height="45"/>
<rect x="225.3" y="0.3" class="st0" width="45" height="45"/>
<rect x="270.3" y="0.3" class="st0" width="45" height="45"/>
<rect x="315.3" y="0.3" class="st0" width="45" height="45"/>
<rect x="360.3" y="0.3" class="st0" width="45" height="45"/>
<rect x="405.3" y="0.3" class="st0" width="45" height="45"/>
<rect x="450.3" y="0.3" class="st0" width="45" height="45"/>
<rect x="495.3" y="0.3" class="st0" width="45" height="45"/>
<rect x="540.3" y="0.3" class="st0" width="45" height="45"/>
<rect x="585.3" y="0.3" class="st0" width="45" height="45"/>
<rect x="630.3" y="0.3" class="st0" width="45" height="45"/>
<rect x="675.3" y="0.3" class="st0" width="45" height="45"/>
<rect x="720.3" y="0.3" class="st0" width="45" height="45"/>
<rect x="225.3" y="45.3" class="st0" width="45" height="45"/>
<rect x="270.3" y="45.3" class="st0" width="45" height="45"/>
<rect x="315.3" y="45.3" class="st0" width="45" height="45"/>
<rect x="360.3" y="45.3" class="st0" width="45" height="45"/>
<rect x="405.3" y="45.3" class="st0" width="45" height="45"/>
<rect x="450.3" y="45.3" class="st0" width="45" height="45"/>
<rect x="495.3" y="45.3" class="st0" width="45" height="45"/>
<rect x="540.3" y="45.3" class="st0" width="45" height="45"/>
<rect x="585.3" y="45.3" class="st0" width="45" height="45"/>
<rect x="630.3" y="45.3" class="st0" width="45" height="45"/>
<rect x="675.3" y="45.3" class="st0" width="45" height="45"/>
<rect x="720.3" y="45.3" class="st0" width="45" height="45"/>
<rect x="225.3" y="90.3" class="st0" width="45" height="45"/>
<rect x="270.3" y="90.3" class="st0" width="45" height="45"/>
<rect x="315.3" y="90.3" class="st0" width="45" height="45"/>
<rect x="360.3" y="90.3" class="st0" width="45" height="45"/>
<rect x="405.3" y="90.3" class="st0" width="45" height="45"/>
<rect x="450.3" y="90.3" class="st0" width="45" height="45"/>
<rect x="495.3" y="90.3" class="st0" width="45" height="45"/>
<rect x="540.3" y="90.3" class="st0" width="45" height="45"/>
<rect x="585.3" y="90.3" class="st0" width="45" height="45"/>
<rect x="630.3" y="90.3" class="st0" width="45" height="45"/>
<rect x="675.3" y="90.3" class="st0" width="45" height="45"/>
<rect x="720.3" y="90.3" class="st0" width="45" height="45"/>
<rect x="0.3" y="0.3" class="st0" width="45" height="45"/>
<rect x="45.3" y="0.3" class="st0" width="45" height="45"/>
<rect x="90.3" y="0.3" class="st0" width="45" height="45"/>
<rect x="135.3" y="0.3" class="st0" width="45" height="45"/>
<rect x="180.3" y="0.3" class="st0" width="45" height="45"/>
<rect x="45.3" y="45.3" class="st0" width="45" height="45"/>
<rect x="90.3" y="45.3" class="st0" width="45" height="45"/>
<rect x="135.3" y="45.3" class="st0" width="45" height="45"/>
<rect x="180.3" y="45.3" class="st0" width="45" height="45"/>
<rect x="45.3" y="90.3" class="st0" width="45" height="45"/>
<rect x="90.3" y="90.3" class="st0" width="45" height="45"/>
<rect x="135.3" y="90.3" class="st0" width="45" height="45"/>
<rect x="180.3" y="90.3" class="st0" width="45" height="45"/>
<g>
	<rect x="900.3" y="0.3" class="st2" width="45" height="45"/>
	<rect x="495.3" y="45.3" class="st2" width="45" height="45"/>
	<rect x="135.3" y="0.3" class="st2" width="45" height="45"/>
	<path class="st2" d="M1035.3,135.3v-45h-45v45h-45v-45h45v-45h-45v45h-45v45h-45v-45h-45v-45h-45v45v45h-45v-45h-45v-45h-45v45h-45
		h-45v45h-45v-45h-45v45h-45v-45h-45v-45h-45v45h-45v45h-45v-45h45v-45h45v-45h-45v45h-90v45h-45h-45v45h-45v-45h-45v90l1080,0l0-45
		H1035.3z M630.3,135.3v-45h45v45H630.3z"/>
</g>
<rect x="0.3" y="45.3" class="st0" width="45" height="45"/>
<rect x="0.3" y="90.3" class="st1" width="45" height="90"/>
</svg>
