<svg xmlns="http://www.w3.org/2000/svg" xmlns:xlink="http://www.w3.org/1999/xlink" xml:space="preserve" width="3638" height="1817.1" style="overflow:visible" viewBox="0 0 3638 1817.1"><defs><pattern id="Unnamed_Pattern" width="1116.3" height="1116.3" y="2047.1" patternUnits="userSpaceOnUse" style="overflow:visible" viewBox="0 -1116.3 1116.3 1116.3"><path d="M0-1116.3h1116.3V0H0z" style="fill:none"/><path d="M447.2-976.4c-.1-.2-.1-.5-.1-.7l1-10.6c.1-1 .6-1.2 1.5-1.2 6.5.6 13 1.4 19.4 2.6l-5.4-18.8c-.2-.8.1-1.4.9-1.6l11.1-3.2c.8-.2 1.4.1 1.6.9l7.6 26.5c6.6 2 13.1 4.6 19.4 8 .4.2.5.5.6.8s0 .7-.2 1.1l-5.8 9.1c-.2.3-.5.5-.8.6s-.7 0-1-.2c-15.8-7.9-32.4-10.9-48.6-12.4q-1.05-.3-1.2-.9m44.5 32.1c-9.5-5-21.2-8.1-30.9-9.1-1-.2-1.3-.6-1.2-1.6l1.2-10.2c.1-1.1.8-1.5 1.3-1.5 10.4.6 27.5 5 37 10.8.4.2.6.4.7.7s0 .7-.2 1.1l-5.9 9.4c-.2.4-.4.6-.7.7-.6 0-1-.1-1.3-.3M371.8-694.8l1.4-23.9c.4-6.2.1-11.1-.8-14.8-.8-3.4-2.8-7.2-5.9-11.3-.3-.3-.3-.6-.3-1 0-.3.2-.7.6-.9l9.1-6.9c.4-.2.7-.3 1-.3.4 0 .8.3.9.5 7.3 9.5 10.5 21.4 9.7 35.6l-.7 11.9 37.8 2.2c.8 0 1.3.6 1.2 1.4l-.6 10.7c0 .8-.6 1.3-1.4 1.2l-50.7-2.9c-.9-.1-1.4-.7-1.3-1.5M191.2-972.9c-3-11.2-6.3-21.5-10.2-31-.2-.4-.2-.8-.1-1.1 0-.1.2-.3.3-.6l5-7.4c.4-.6.9-.8 1.6-.6l.2.1 9.7 4.3c-3.1-5.5-6.4-11-10-16.4-.3-.4-.4-.9-.3-1.3 0-.1.1-.4.2-.5l4.7-7.5c.4-.6 1-.8 1.6-.6l.2.1 35.9 15.8 4-4.6c.4-.5.8-.7 1.3-.5.1 0 .4.2.6.4l8.4 8c.4.4.5.8.4 1.2-.1.2-.1.4-.4.7-6 7.3-12.1 13.5-18.1 18.5q-.6.45-1.2.3c-.2-.1-.5-.2-.6-.4l-7.5-8c-.3-.4-.5-.8-.3-1.2.1-.2.2-.4.4-.6l3.6-3.7-11.3-5.1c6.5 11.2 11.8 22.2 15.7 33.1.1.3.2.7.1 1-.1.4-.4.6-.9.7l-11.2 3.5c-.3.1-.6.1-.9.1-.4-.1-.6-.4-.8-.9-1.3-4.5-3-9.3-5.2-14.3l-7.6-3.4c2.3 5.4 4.5 11.5 6.4 18.3.1.3.1.6.1.9-.1.4-.4.6-.9.8l-11.3 3.2c-.3.1-.6.1-.9.1-.3-.5-.5-.8-.7-1.4M24.1-847.4l53.8-12.7c.8-.2 1.4.2 1.6 1l2.5 10.5c.2.8-.2 1.4-1 1.6l-53.8 12.7c-.8.2-1.4-.2-1.6-1l-2.5-10.5c-.2-.8.2-1.4 1-1.6M148-633c-8.3-8.5-18.4-15.5-30.8-22.1-.4-.2-1-.8-1.2-1.5s0-1.3.2-1.7c7.9-12.6 14.1-24.5 18.7-37.1.2-.5.5-.8.8-.9s.5-.1.9.1l11.2 3.9c.5.2.7.5.8.8.1.2.1.5 0 .8-4 11.1-8.9 20.9-14.6 29.7 6 2.7 13.9 8.7 23.9 17.9.2.2.3.4.4.7.1.4 0 .8-.4 1.2l-8.2 8.2c-.2.2-.4.3-.7.4-.2.2-.6.1-1-.4m857.3 214.7c-.1-.2-.1-.5-.1-.7l1-10.6c.1-1 .6-1.2 1.5-1.2 6.5.6 13 1.4 19.4 2.6l-5.4-18.8c-.2-.8.1-1.4.9-1.6l11.1-3.2c.8-.2 1.4.1 1.6.9l7.6 26.5c6.6 2 13.1 4.6 19.4 8 .4.2.5.5.6.8s0 .7-.2 1.1l-5.8 9.1c-.2.3-.5.5-.8.6s-.7 0-1-.2c-15.8-7.9-32.4-10.9-48.6-12.4-.7-.1-1.1-.5-1.2-.9m44.5 32.2c-9.5-5-21.2-8.1-30.9-9.1-1-.2-1.3-.6-1.2-1.6l1.2-10.2c.1-1.1.8-1.5 1.3-1.5 10.4.6 27.5 5 37 10.8.4.2.6.4.7.7s0 .7-.2 1.1l-5.9 9.4c-.2.4-.4.6-.7.7-.6-.1-.9-.1-1.3-.3M929.9-136.6l1.4-23.9c.4-6.2.1-11.1-.8-14.8-.8-3.4-2.8-7.2-5.9-11.3-.3-.3-.3-.6-.3-1 0-.3.2-.7.6-.9l9.1-6.9c.4-.2.7-.3 1-.3.4 0 .8.3.9.5 7.3 9.5 10.5 21.4 9.7 35.6l-.7 11.9 37.8 2.2c.8 0 1.3.6 1.2 1.4l-.6 10.7c0 .8-.6 1.3-1.4 1.2l-50.7-2.9c-.9-.2-1.3-.7-1.3-1.5M749.4-414.7c-3-11.2-6.3-21.5-10.2-31-.2-.4-.2-.8-.1-1.1 0-.1.2-.3.3-.6l5-7.4c.4-.6.9-.8 1.6-.6l.2.1 9.7 4.3c-3.1-5.5-6.4-11-10-16.4-.3-.4-.4-.9-.3-1.3 0-.1.1-.4.2-.5l4.7-7.5c.4-.6 1-.8 1.6-.6l.2.1 35.9 15.8 4-4.6c.4-.5.8-.7 1.3-.5.1 0 .4.2.6.4l8.4 8c.4.4.5.8.4 1.2-.1.2-.1.4-.4.7-6 7.3-12.1 13.5-18.1 18.5q-.6.45-1.2.3c-.2-.1-.5-.2-.6-.4l-7.5-8c-.3-.4-.5-.8-.3-1.2.1-.2.2-.4.4-.6l3.6-3.7-11.3-5.1c6.5 11.2 11.8 22.2 15.7 33.1.1.3.2.7.1 1-.1.4-.4.6-.9.7l-11.2 3.5c-.3.1-.6.1-.9.1-.4-.1-.6-.4-.8-.9-1.3-4.5-3-9.3-5.2-14.3l-7.6-3.4c2.3 5.4 4.5 11.5 6.4 18.3.1.3.1.6.1.9-.1.4-.4.6-.9.8l-11.3 3.2c-.3.1-.6.1-.9.1-.4-.6-.6-.9-.7-1.4M612.3-277l53.8-12.7c.8-.2 1.4.2 1.6 1l2.5 10.5c.2.8-.2 1.4-1 1.6L615.4-264c-.8.2-1.4-.2-1.6-1l-2.5-10.5c-.2-.7.2-1.3 1-1.5M736.2-62.6c-8.3-8.5-18.4-15.5-30.8-22.1-.4-.2-1-.8-1.2-1.5s0-1.3.2-1.7c7.9-12.6 14.1-24.5 18.7-37.1.2-.5.5-.8.8-.9s.5-.1.9.1l11.2 3.9c.5.2.7.5.8.8.1.2.1.5 0 .8-4 11.1-8.9 20.9-14.6 29.7 6 2.7 13.9 8.7 23.9 17.9.2.2.3.4.4.7.1.4 0 .8-.4 1.2l-8.2 8.2c-.2.2-.4.3-.7.4-.2.2-.6 0-1-.4M371.3-404.5c-.1-.2-.1-.5-.1-.7l1-10.6c.1-1 .6-1.2 1.5-1.2 6.5.6 13 1.4 19.4 2.6l-5.4-18.8c-.2-.8.1-1.4.9-1.6l11.1-3.2c.8-.2 1.4.1 1.6.9l7.6 26.5c6.6 2 13.1 4.6 19.4 8 .4.2.5.5.6.8s0 .7-.2 1.1l-5.8 9.1c-.2.3-.5.5-.8.6s-.7 0-1-.2c-15.8-7.9-32.4-10.9-48.6-12.4q-.9-.15-1.2-.9m44.5 32.2c-9.5-5-21.2-8.1-30.9-9.1-1-.2-1.3-.6-1.2-1.6l1.2-10.2c.1-1.1.8-1.5 1.3-1.5 10.4.6 27.5 5 37 10.8.4.2.6.4.7.7s0 .7-.2 1.1l-5.9 9.4c-.2.4-.4.6-.7.7-.6 0-.9-.1-1.3-.3m-253.4-58.5-4.8-23.5c-1.3-6.1-2.8-10.8-4.6-14.1-1.7-3-4.5-6.2-8.6-9.4q-.45-.3-.6-.9c-.1-.3 0-.7.3-1l7-9q.45-.45.9-.6c.4-.1.9.1 1 .2 9.5 7.3 15.7 17.9 18.6 31.9l2.4 11.7 37.1-7.7c.8-.2 1.4.2 1.6 1l2.2 10.5c.2.8-.2 1.4-1 1.6L164-429.7c-.8.1-1.4-.3-1.6-1.1m208.8 328.9c-8.2-8.2-16.2-15.5-24.3-21.7-.4-.2-.6-.5-.7-.9v-.7l.7-9c.1-.7.4-1.2 1-1.3l.2-.1 10.6-1.1c-5.4-3.2-11-6.3-16.9-9.2-.5-.2-.8-.6-.9-1 0-.1-.1-.4 0-.5l.3-8.8c.1-.7.5-1.2 1.1-1.3l.2-.1 39-4.2 1.1-6c.1-.6.4-1 .9-1.1.1 0 .4 0 .7.1l11.3 2.7c.6.1.9.4 1 .8.1.2.1.4 0 .8-1.5 9.3-3.8 17.7-6.5 25.1-.2.5-.5.7-.9.8-.2.1-.5.1-.8 0l-10.5-3.2c-.5-.2-.8-.4-.9-.8-.1-.2 0-.4 0-.8l1.3-5-12.4 1.2c11.2 6.4 21.3 13.4 30.2 20.8.3.2.5.5.6.8.1.4-.1.7-.4 1.1l-7.9 8.7c-.2.3-.4.4-.7.5-.4.1-.8 0-1.2-.4-3.4-3.2-7.3-6.5-11.7-9.8l-8.3.9c4.6 3.5 9.6 7.7 14.6 12.6.3.2.4.5.5.7.1.4 0 .8-.4 1.2l-8.1 8.4c-.2.3-.4.4-.7.5-.3-.2-.6-.3-1.1-.7m-275.6 23 53 15.9c.8.2 1.1.9.9 1.7L146.4-51c-.2.8-.9 1.1-1.7.9L91.7-66c-.8-.2-1.1-.9-.9-1.7L93.9-78c.3-.8.9-1.1 1.7-.9M79.3-234.6c-5.8-10.4-13.8-19.8-24-29.3-.3-.3-.7-1-.7-1.8s.4-1.3.7-1.5c10.9-10.1 20-20 27.6-31 .3-.4.7-.7 1-.7s.5.1.8.3l9.8 6.6c.4.3.6.7.6 1 0 .2-.1.5-.2.8-6.7 9.7-14 17.9-21.7 24.9 5.1 4.2 11.2 12 18.5 23.4.1.3.2.5.2.8 0 .4-.2.7-.7 1l-10 5.8c-.2.1-.5.2-.7.2-.5.3-.9.1-1.2-.5m850.2-728c-.1-.2-.1-.5-.1-.7l1-10.6c.1-1 .6-1.2 1.5-1.2 6.5.6 13 1.4 19.4 2.6l-5.4-18.8c-.2-.8.1-1.4.9-1.6l11.1-3.2c.8-.2 1.4.1 1.6.9l7.6 26.5c6.6 2 13.1 4.6 19.4 8 .4.2.5.5.6.8s0 .7-.2 1.1l-5.8 9.1c-.2.3-.5.5-.8.6s-.7 0-1-.2c-15.8-7.9-32.4-10.9-48.6-12.4-.7-.1-1.1-.5-1.2-.9m44.5 32.2c-9.5-5-21.2-8.1-30.9-9.1-1-.2-1.3-.6-1.2-1.6l1.2-10.2c.1-1.1.8-1.5 1.3-1.5 10.4.6 27.5 5 37 10.8.4.2.6.4.7.7s0 .7-.2 1.1l-5.9 9.4c-.2.4-.4.6-.7.7-.6-.1-1-.1-1.3-.3m-253.5-58.5-4.8-23.5c-1.3-6.1-2.8-10.8-4.6-14.1-1.7-3-4.5-6.2-8.6-9.4q-.45-.3-.6-.9c-.1-.3 0-.7.3-1l7-9q.45-.45.9-.6c.4-.1.9.1 1 .2 9.5 7.3 15.7 17.9 18.6 31.9l2.4 11.7 37.1-7.7c.8-.2 1.4.2 1.6 1l2.2 10.5c.2.8-.2 1.4-1 1.6l-49.7 10.3c-1 .2-1.6-.2-1.8-1m235.7 275.8c-8.2-8.2-16.2-15.5-24.3-21.7-.4-.2-.6-.5-.7-.9v-.7l.7-9c.1-.7.4-1.2 1-1.3l.2-.1 10.6-1.1c-5.4-3.2-11-6.3-16.9-9.2-.5-.2-.8-.6-.9-1 0-.1-.1-.4 0-.5l.3-8.8c.1-.7.5-1.2 1.1-1.3l.2-.1 39-4.2 1.1-6c.1-.6.4-1 .9-1.1.1 0 .4 0 .7.1l11.3 2.7c.6.1.9.4 1 .8.1.2.1.4 0 .8-1.5 9.3-3.8 17.7-6.5 25.1-.2.5-.5.7-.9.8-.2.1-.5 0-.8 0l-10.5-3.2c-.5-.2-.8-.4-.9-.8-.1-.2 0-.4 0-.8l1.3-5-12.4 1.2C962-752 972.1-745 981-737.6c.3.2.5.5.6.8.1.4-.1.7-.4 1.1l-7.9 8.7c-.2.3-.4.4-.7.5-.4.1-.8 0-1.2-.4-3.4-3.2-7.3-6.5-11.7-9.8l-8.3.9c4.6 3.5 9.6 7.7 14.6 12.6.3.2.4.5.5.7.1.4 0 .8-.4 1.2l-8.1 8.4c-.2.3-.4.4-.7.5-.4-.1-.7-.3-1.1-.7M653.7-637l53 15.9c.8.2 1.1.9.9 1.7l-3.1 10.3c-.2.8-.9 1.1-1.7.9l-53-15.9c-.8-.2-1.1-.9-.9-1.7l3.1-10.3c.3-.8 1-1.2 1.7-.9m-16.2-155.7c-5.8-10.4-13.8-19.8-24-29.3-.3-.3-.7-1-.7-1.8s.4-1.3.7-1.5c10.9-10.1 20-20 27.6-31 .3-.4.7-.7 1-.7s.5.1.8.3l9.8 6.6c.4.3.6.7.6 1 0 .2-.1.5-.2.8-6.7 9.7-14 17.9-21.7 24.9 5.1 4.2 11.2 12 18.5 23.4.1.3.2.5.2.8 0 .4-.2.7-.7 1l-10 5.8c-.2.1-.5.2-.7.2-.6.2-.9 0-1.2-.5"/></pattern></defs><pattern xlink:href="#Unnamed_Pattern" id="SVGID_1_" patternTransform="matrix(1.0907 0 0 -1.0829 -5191.29 -7184.066)"/><path d="M0 0h3638v1817.1H0z" style="fill:url(#SVGID_1_)"/></svg>