<!--Generator: Adobe Illustrator 25.0.0, SVG Export Plug-In-->
<svg version="1.1" xmlns="http://www.w3.org/2000/svg" xmlns:xlink="http://www.w3.org/1999/xlink" x="0px" y="0px" width="3638px" height="1817.1px" viewBox="0 0 3638 1817.1" style="overflow:visible;enable-background:new 0 0 3638 1817.1;" xml:space="preserve">
    <style type="text/css">
        .st0{fill:none;}
	.st1{fill:none;stroke:#D3152E;stroke-width:2.2;stroke-miterlimit:10;}
	.st2{fill:url(#SVGID_1_);}
	.st3{fill:url(#SVGID_2_);}
    </style>
    <defs>
        <pattern y="2047.1" width="1116.3" height="1116.3" patternUnits="userSpaceOnUse" id="Unnamed_Pattern" viewBox="0 -1116.3 1116.3 1116.3" style="overflow:visible;">
            <g>
                <rect y="-1116.3" class="st0" width="1116.3" height="1116.3"/>
                <path class="st1" d="M447.2-976.4c-0.1-0.2-0.1-0.5-0.1-0.7l1-10.6c0.1-1,0.6-1.2,1.5-1.2c6.5,0.6,13,1.4,19.4,2.6l-5.4-18.8
				c-0.2-0.8,0.1-1.4,0.9-1.6l11.1-3.2c0.8-0.2,1.4,0.1,1.6,0.9l7.6,26.5c6.6,2,13.1,4.6,19.4,8c0.4,0.2,0.5,0.5,0.6,0.8
				c0.1,0.3,0,0.7-0.2,1.1l-5.8,9.1c-0.2,0.3-0.5,0.5-0.8,0.6s-0.7,0-1-0.2c-15.8-7.9-32.4-10.9-48.6-12.4
				C447.7-975.7,447.3-976,447.2-976.4z M491.7-944.3c-9.5-5-21.2-8.1-30.9-9.1c-1-0.2-1.3-0.6-1.2-1.6l1.2-10.2
				c0.1-1.1,0.8-1.5,1.3-1.5c10.4,0.6,27.5,5,37,10.8c0.4,0.2,0.6,0.4,0.7,0.7c0.1,0.3,0,0.7-0.2,1.1l-5.9,9.4
				c-0.2,0.4-0.4,0.6-0.7,0.7C492.4-944,492-944.1,491.7-944.3z"/>
                <path class="st1" d="M371.8-694.8l1.4-23.9c0.4-6.2,0.1-11.1-0.8-14.8c-0.8-3.4-2.8-7.2-5.9-11.3c-0.3-0.3-0.3-0.6-0.3-1
				c0-0.3,0.2-0.7,0.6-0.9l9.1-6.9c0.4-0.2,0.7-0.3,1-0.3c0.4,0,0.8,0.3,0.9,0.5c7.3,9.5,10.5,21.4,9.7,35.6l-0.7,11.9l37.8,2.2
				c0.8,0,1.3,0.6,1.2,1.4l-0.6,10.7c0,0.8-0.6,1.3-1.4,1.2l-50.7-2.9C372.2-693.4,371.7-694,371.8-694.8z"/>
                <path class="st1" d="M191.2-972.9c-3-11.2-6.3-21.5-10.2-31c-0.2-0.4-0.2-0.8-0.1-1.1c0-0.1,0.2-0.3,0.3-0.6l5-7.4
				c0.4-0.6,0.9-0.8,1.6-0.6l0.2,0.1l9.7,4.3c-3.1-5.5-6.4-11-10-16.4c-0.3-0.4-0.4-0.9-0.3-1.3c0-0.1,0.1-0.4,0.2-0.5l4.7-7.5
				c0.4-0.6,1-0.8,1.6-0.6l0.2,0.1l35.9,15.8l4-4.6c0.4-0.5,0.8-0.7,1.3-0.5c0.1,0,0.4,0.2,0.6,0.4l8.4,8c0.4,0.4,0.5,0.8,0.4,1.2
				c-0.1,0.2-0.1,0.4-0.4,0.7c-6,7.3-12.1,13.5-18.1,18.5c-0.4,0.3-0.8,0.4-1.2,0.3c-0.2-0.1-0.5-0.2-0.6-0.4l-7.5-8
				c-0.3-0.4-0.5-0.8-0.3-1.2c0.1-0.2,0.2-0.4,0.4-0.6l3.6-3.7l-11.3-5.1c6.5,11.2,11.8,22.2,15.7,33.1c0.1,0.3,0.2,0.7,0.1,1
				c-0.1,0.4-0.4,0.6-0.9,0.7l-11.2,3.5c-0.3,0.1-0.6,0.1-0.9,0.1c-0.4-0.1-0.6-0.4-0.8-0.9c-1.3-4.5-3-9.3-5.2-14.3l-7.6-3.4
				c2.3,5.4,4.5,11.5,6.4,18.3c0.1,0.3,0.1,0.6,0.1,0.9c-0.1,0.4-0.4,0.6-0.9,0.8l-11.3,3.2c-0.3,0.1-0.6,0.1-0.9,0.1
				C191.6-972,191.4-972.3,191.2-972.9z"/>
                <path class="st1" d="M24.1-847.4l53.8-12.7c0.8-0.2,1.4,0.2,1.6,1l2.5,10.5c0.2,0.8-0.2,1.4-1,1.6l-53.8,12.7
				c-0.8,0.2-1.4-0.2-1.6-1l-2.5-10.5C22.9-846.6,23.3-847.2,24.1-847.4z"/>
                <path class="st1" d="M148-633c-8.3-8.5-18.4-15.5-30.8-22.1c-0.4-0.2-1-0.8-1.2-1.5c-0.2-0.7,0-1.3,0.2-1.7
				c7.9-12.6,14.1-24.5,18.7-37.1c0.2-0.5,0.5-0.8,0.8-0.9c0.3-0.1,0.5-0.1,0.9,0.1l11.2,3.9c0.5,0.2,0.7,0.5,0.8,0.8
				c0.1,0.2,0.1,0.5,0,0.8c-4,11.1-8.9,20.9-14.6,29.7c6,2.7,13.9,8.7,23.9,17.9c0.2,0.2,0.3,0.4,0.4,0.7c0.1,0.4,0,0.8-0.4,1.2
				l-8.2,8.2c-0.2,0.2-0.4,0.3-0.7,0.4C148.8-632.4,148.4-632.5,148-633z"/>
                <path class="st1" d="M1005.3-418.3c-0.1-0.2-0.1-0.5-0.1-0.7l1-10.6c0.1-1,0.6-1.2,1.5-1.2c6.5,0.6,13,1.4,19.4,2.6l-5.4-18.8
				c-0.2-0.8,0.1-1.4,0.9-1.6l11.1-3.2c0.8-0.2,1.4,0.1,1.6,0.9l7.6,26.5c6.6,2,13.1,4.6,19.4,8c0.4,0.2,0.5,0.5,0.6,0.8
				c0.1,0.3,0,0.7-0.2,1.1l-5.8,9.1c-0.2,0.3-0.5,0.5-0.8,0.6c-0.3,0.1-0.7,0-1-0.2c-15.8-7.9-32.4-10.9-48.6-12.4
				C1005.8-417.5,1005.4-417.9,1005.3-418.3z M1049.8-386.1c-9.5-5-21.2-8.1-30.9-9.1c-1-0.2-1.3-0.6-1.2-1.6l1.2-10.2
				c0.1-1.1,0.8-1.5,1.3-1.5c10.4,0.6,27.5,5,37,10.8c0.4,0.2,0.6,0.4,0.7,0.7c0.1,0.3,0,0.7-0.2,1.1l-5.9,9.4
				c-0.2,0.4-0.4,0.6-0.7,0.7C1050.5-385.9,1050.2-385.9,1049.8-386.1z"/>
                <path class="st1" d="M929.9-136.6l1.4-23.9c0.4-6.2,0.1-11.1-0.8-14.8c-0.8-3.4-2.8-7.2-5.9-11.3c-0.3-0.3-0.3-0.6-0.3-1
				c0-0.3,0.2-0.7,0.6-0.9l9.1-6.9c0.4-0.2,0.7-0.3,1-0.3c0.4,0,0.8,0.3,0.9,0.5c7.3,9.5,10.5,21.4,9.7,35.6l-0.7,11.9l37.8,2.2
				c0.8,0,1.3,0.6,1.2,1.4l-0.6,10.7c0,0.8-0.6,1.3-1.4,1.2l-50.7-2.9C930.3-135.3,929.9-135.8,929.9-136.6z"/>
                <path class="st1" d="M749.4-414.7c-3-11.2-6.3-21.5-10.2-31c-0.2-0.4-0.2-0.8-0.1-1.1c0-0.1,0.2-0.3,0.3-0.6l5-7.4
				c0.4-0.6,0.9-0.8,1.6-0.6l0.2,0.1l9.7,4.3c-3.1-5.5-6.4-11-10-16.4c-0.3-0.4-0.4-0.9-0.3-1.3c0-0.1,0.1-0.4,0.2-0.5l4.7-7.5
				c0.4-0.6,1-0.8,1.6-0.6l0.2,0.1l35.9,15.8l4-4.6c0.4-0.5,0.8-0.7,1.3-0.5c0.1,0,0.4,0.2,0.6,0.4l8.4,8c0.4,0.4,0.5,0.8,0.4,1.2
				c-0.1,0.2-0.1,0.4-0.4,0.7c-6,7.3-12.1,13.5-18.1,18.5c-0.4,0.3-0.8,0.4-1.2,0.3c-0.2-0.1-0.5-0.2-0.6-0.4l-7.5-8
				c-0.3-0.4-0.5-0.8-0.3-1.2c0.1-0.2,0.2-0.4,0.4-0.6l3.6-3.7l-11.3-5.1c6.5,11.2,11.8,22.2,15.7,33.1c0.1,0.3,0.2,0.7,0.1,1
				c-0.1,0.4-0.4,0.6-0.9,0.7l-11.2,3.5c-0.3,0.1-0.6,0.1-0.9,0.1c-0.4-0.1-0.6-0.4-0.8-0.9c-1.3-4.5-3-9.3-5.2-14.3l-7.6-3.4
				c2.3,5.4,4.5,11.5,6.4,18.3c0.1,0.3,0.1,0.6,0.1,0.9c-0.1,0.4-0.4,0.6-0.9,0.8l-11.3,3.2c-0.3,0.1-0.6,0.1-0.9,0.1
				C749.7-413.9,749.5-414.2,749.4-414.7z"/>
                <path class="st1" d="M612.3-277l53.8-12.7c0.8-0.2,1.4,0.2,1.6,1l2.5,10.5c0.2,0.8-0.2,1.4-1,1.6L615.4-264
				c-0.8,0.2-1.4-0.2-1.6-1l-2.5-10.5C611.1-276.2,611.5-276.8,612.3-277z"/>
                <path class="st1" d="M736.2-62.6c-8.3-8.5-18.4-15.5-30.8-22.1c-0.4-0.2-1-0.8-1.2-1.5c-0.2-0.7,0-1.3,0.2-1.7
				c7.9-12.6,14.1-24.5,18.7-37.1c0.2-0.5,0.5-0.8,0.8-0.9c0.3-0.1,0.5-0.1,0.9,0.1l11.2,3.9c0.5,0.2,0.7,0.5,0.8,0.8
				c0.1,0.2,0.1,0.5,0,0.8c-4,11.1-8.9,20.9-14.6,29.7c6,2.7,13.9,8.7,23.9,17.9c0.2,0.2,0.3,0.4,0.4,0.7c0.1,0.4,0,0.8-0.4,1.2
				l-8.2,8.2c-0.2,0.2-0.4,0.3-0.7,0.4C737-62,736.6-62.2,736.2-62.6z"/>
                <path class="st1" d="M371.3-404.5c-0.1-0.2-0.1-0.5-0.1-0.7l1-10.6c0.1-1,0.6-1.2,1.5-1.2c6.5,0.6,13,1.4,19.4,2.6l-5.4-18.8
				c-0.2-0.8,0.1-1.4,0.9-1.6l11.1-3.2c0.8-0.2,1.4,0.1,1.6,0.9l7.6,26.5c6.6,2,13.1,4.6,19.4,8c0.4,0.2,0.5,0.5,0.6,0.8
				c0.1,0.3,0,0.7-0.2,1.1l-5.8,9.1c-0.2,0.3-0.5,0.5-0.8,0.6s-0.7,0-1-0.2c-15.8-7.9-32.4-10.9-48.6-12.4
				C371.9-403.7,371.5-404,371.3-404.5z M415.8-372.3c-9.5-5-21.2-8.1-30.9-9.1c-1-0.2-1.3-0.6-1.2-1.6l1.2-10.2
				c0.1-1.1,0.8-1.5,1.3-1.5c10.4,0.6,27.5,5,37,10.8c0.4,0.2,0.6,0.4,0.7,0.7c0.1,0.3,0,0.7-0.2,1.1l-5.9,9.4
				c-0.2,0.4-0.4,0.6-0.7,0.7C416.5-372,416.2-372.1,415.8-372.3z"/>
                <path class="st1" d="M162.4-430.8l-4.8-23.5c-1.3-6.1-2.8-10.8-4.6-14.1c-1.7-3-4.5-6.2-8.6-9.4c-0.3-0.2-0.5-0.5-0.6-0.9
				c-0.1-0.3,0-0.7,0.3-1l7-9c0.3-0.3,0.6-0.5,0.9-0.6c0.4-0.1,0.9,0.1,1,0.2c9.5,7.3,15.7,17.9,18.6,31.9l2.4,11.7l37.1-7.7
				c0.8-0.2,1.4,0.2,1.6,1l2.2,10.5c0.2,0.8-0.2,1.4-1,1.6L164-429.7C163.2-429.6,162.6-430,162.4-430.8z"/>
                <path class="st1" d="M371.2-101.9c-8.2-8.2-16.2-15.5-24.3-21.7c-0.4-0.2-0.6-0.5-0.7-0.9c0-0.1,0-0.4,0-0.7l0.7-9
				c0.1-0.7,0.4-1.2,1-1.3l0.2-0.1l10.6-1.1c-5.4-3.2-11-6.3-16.9-9.2c-0.5-0.2-0.8-0.6-0.9-1c0-0.1-0.1-0.4,0-0.5l0.3-8.8
				c0.1-0.7,0.5-1.2,1.1-1.3l0.2-0.1l39-4.2l1.1-6c0.1-0.6,0.4-1,0.9-1.1c0.1,0,0.4,0,0.7,0.1l11.3,2.7c0.6,0.1,0.9,0.4,1,0.8
				c0.1,0.2,0.1,0.4,0,0.8c-1.5,9.3-3.8,17.7-6.5,25.1c-0.2,0.5-0.5,0.7-0.9,0.8c-0.2,0.1-0.5,0.1-0.8,0l-10.5-3.2
				c-0.5-0.2-0.8-0.4-0.9-0.8c-0.1-0.2,0-0.4,0-0.8l1.3-5l-12.4,1.2c11.2,6.4,21.3,13.4,30.2,20.8c0.3,0.2,0.5,0.5,0.6,0.8
				c0.1,0.4-0.1,0.7-0.4,1.1l-7.9,8.7c-0.2,0.3-0.4,0.4-0.7,0.5c-0.4,0.1-0.8,0-1.2-0.4c-3.4-3.2-7.3-6.5-11.7-9.8l-8.3,0.9
				c4.6,3.5,9.6,7.7,14.6,12.6c0.3,0.2,0.4,0.5,0.5,0.7c0.1,0.4,0,0.8-0.4,1.2l-8.1,8.4c-0.2,0.3-0.4,0.4-0.7,0.5
				C372-101.4,371.7-101.5,371.2-101.9z"/>
                <path class="st1" d="M95.6-78.9l53,15.9c0.8,0.2,1.1,0.9,0.9,1.7L146.4-51c-0.2,0.8-0.9,1.1-1.7,0.9L91.7-66
				c-0.8-0.2-1.1-0.9-0.9-1.7L93.9-78C94.2-78.8,94.8-79.1,95.6-78.9z"/>
                <path class="st1" d="M79.3-234.6c-5.8-10.4-13.8-19.8-24-29.3c-0.3-0.3-0.7-1-0.7-1.8s0.4-1.3,0.7-1.5c10.9-10.1,20-20,27.6-31
				c0.3-0.4,0.7-0.7,1-0.7c0.3,0,0.5,0.1,0.8,0.3l9.8,6.6c0.4,0.3,0.6,0.7,0.6,1c0,0.2-0.1,0.5-0.2,0.8c-6.7,9.7-14,17.9-21.7,24.9
				c5.1,4.2,11.2,12,18.5,23.4c0.1,0.3,0.2,0.5,0.2,0.8c0,0.4-0.2,0.7-0.7,1l-10,5.8c-0.2,0.1-0.5,0.2-0.7,0.2
				C80-233.8,79.6-234,79.3-234.6z"/>
                <path class="st1" d="M929.5-962.6c-0.1-0.2-0.1-0.5-0.1-0.7l1-10.6c0.1-1,0.6-1.2,1.5-1.2c6.5,0.6,13,1.4,19.4,2.6l-5.4-18.8
				c-0.2-0.8,0.1-1.4,0.9-1.6l11.1-3.2c0.8-0.2,1.4,0.1,1.6,0.9l7.6,26.5c6.6,2,13.1,4.6,19.4,8c0.4,0.2,0.5,0.5,0.6,0.8
				c0.1,0.3,0,0.7-0.2,1.1l-5.8,9.1c-0.2,0.3-0.5,0.5-0.8,0.6c-0.3,0.1-0.7,0-1-0.2c-15.8-7.9-32.4-10.9-48.6-12.4
				C930-961.8,929.6-962.2,929.5-962.6z M974-930.4c-9.5-5-21.2-8.1-30.9-9.1c-1-0.2-1.3-0.6-1.2-1.6l1.2-10.2
				c0.1-1.1,0.8-1.5,1.3-1.5c10.4,0.6,27.5,5,37,10.8c0.4,0.2,0.6,0.4,0.7,0.7c0.1,0.3,0,0.7-0.2,1.1l-5.9,9.4
				c-0.2,0.4-0.4,0.6-0.7,0.7C974.7-930.2,974.3-930.2,974-930.4z"/>
                <path class="st1" d="M720.5-988.9l-4.8-23.5c-1.3-6.1-2.8-10.8-4.6-14.1c-1.7-3-4.5-6.2-8.6-9.4c-0.3-0.2-0.5-0.5-0.6-0.9
				c-0.1-0.3,0-0.7,0.3-1l7-9c0.3-0.3,0.6-0.5,0.9-0.6c0.4-0.1,0.9,0.1,1,0.2c9.5,7.3,15.7,17.9,18.6,31.9l2.4,11.7l37.1-7.7
				c0.8-0.2,1.4,0.2,1.6,1l2.2,10.5c0.2,0.8-0.2,1.4-1,1.6l-49.7,10.3C721.3-987.7,720.7-988.1,720.5-988.9z"/>
                <path class="st1" d="M956.2-713.1c-8.2-8.2-16.2-15.5-24.3-21.7c-0.4-0.2-0.6-0.5-0.7-0.9c0-0.1,0-0.4,0-0.7l0.7-9
				c0.1-0.7,0.4-1.2,1-1.3l0.2-0.1l10.6-1.1c-5.4-3.2-11-6.3-16.9-9.2c-0.5-0.2-0.8-0.6-0.9-1c0-0.1-0.1-0.4,0-0.5l0.3-8.8
				c0.1-0.7,0.5-1.2,1.1-1.3l0.2-0.1l39-4.2l1.1-6c0.1-0.6,0.4-1,0.9-1.1c0.1,0,0.4,0,0.7,0.1l11.3,2.7c0.6,0.1,0.9,0.4,1,0.8
				c0.1,0.2,0.1,0.4,0,0.8c-1.5,9.3-3.8,17.7-6.5,25.1c-0.2,0.5-0.5,0.7-0.9,0.8c-0.2,0.1-0.5,0-0.8,0l-10.5-3.2
				c-0.5-0.2-0.8-0.4-0.9-0.8c-0.1-0.2,0-0.4,0-0.8l1.3-5l-12.4,1.2c11.2,6.4,21.3,13.4,30.2,20.8c0.3,0.2,0.5,0.5,0.6,0.8
				c0.1,0.4-0.1,0.7-0.4,1.1l-7.9,8.7c-0.2,0.3-0.4,0.4-0.7,0.5c-0.4,0.1-0.8,0-1.2-0.4c-3.4-3.2-7.3-6.5-11.7-9.8l-8.3,0.9
				c4.6,3.5,9.6,7.7,14.6,12.6c0.3,0.2,0.4,0.5,0.5,0.7c0.1,0.4,0,0.8-0.4,1.2l-8.1,8.4c-0.2,0.3-0.4,0.4-0.7,0.5
				C956.9-712.5,956.6-712.7,956.2-713.1z"/>
                <path class="st1" d="M653.7-637l53,15.9c0.8,0.2,1.1,0.9,0.9,1.7l-3.1,10.3c-0.2,0.8-0.9,1.1-1.7,0.9l-53-15.9
				c-0.8-0.2-1.1-0.9-0.9-1.7l3.1-10.3C652.3-636.9,653-637.3,653.7-637z"/>
                <path class="st1" d="M637.5-792.7c-5.8-10.4-13.8-19.8-24-29.3c-0.3-0.3-0.7-1-0.7-1.8s0.4-1.3,0.7-1.5c10.9-10.1,20-20,27.6-31
				c0.3-0.4,0.7-0.7,1-0.7c0.3,0,0.5,0.1,0.8,0.3l9.8,6.6c0.4,0.3,0.6,0.7,0.6,1c0,0.2-0.1,0.5-0.2,0.8c-6.7,9.7-14,17.9-21.7,24.9
				c5.1,4.2,11.2,12,18.5,23.4c0.1,0.3,0.2,0.5,0.2,0.8c0,0.4-0.2,0.7-0.7,1l-10,5.8c-0.2,0.1-0.5,0.2-0.7,0.2
				C638.1-792,637.8-792.2,637.5-792.7z"/>
            </g>
        </pattern>
    </defs>
    <pattern id="SVGID_1_" xlink:href="#Unnamed_Pattern" patternTransform="matrix(1.0907 0 0 -1.0829 -5191.29 -7184.0659)"/>
    <rect class="st2" width="3638" height="1817.1"/>
</svg>
